<?xml version="1.0" encoding="UTF-8"?>
<svg width="230px" height="230px" viewBox="0 0 230 230" version="1.1" xmlns="http://www.w3.org/2000/svg" xmlns:xlink="http://www.w3.org/1999/xlink">
    <!-- Generator: Sketch 50.2 (55047) - http://www.bohemiancoding.com/sketch -->
    <title>Artboard 2 Copy 17</title>
    <desc>Created with Sketch.</desc>
    <defs></defs>
    <g id="Artboard-2-Copy-17" stroke="none" stroke-width="1" fill="none" fill-rule="evenodd">
        <g id="noun_Cook_1431137" transform="translate(53.000000, 20.000000)" fill="#FFFFFF" fill-rule="nonzero">
            <path d="M125,32.438353 C125,18.3702924 113.573276,6.92717607 99.5280172,6.92717607 C94.8383621,6.92717607 90.3599138,8.17488805 86.4137931,10.5602198 C80.2866379,3.81437211 71.7219828,0 62.5,0 C53.2780172,0 44.7155172,3.81437211 38.5862069,10.5602198 C34.6422414,8.17704672 30.1637931,6.92717607 25.4741379,6.92717607 C11.4267241,6.92501739 0,18.3702924 0,32.438353 C0,44.1491446 7.92887931,54.0164309 18.6831897,57.0040319 L23.8706897,83.4995629 C23.9590517,83.9572012 24.0064655,84.4256329 24.0064655,84.8962232 L24.0064655,107.525574 C24.0064655,114.95572 30.0431034,121 37.4612069,121 L87.5366379,121 C94.9547414,121 100.991379,114.95572 100.991379,107.525574 L100.991379,84.8962232 C100.991379,84.4277916 101.038793,83.9528839 101.125,83.4974042 L106.314655,57.0018732 C117.073276,54.0142722 125,44.1469859 125,32.438353 Z M87.5387931,114.785185 L37.4633621,114.785185 C33.4676724,114.785185 30.2133621,111.529909 30.2133621,107.525574 L30.2133621,87.136924 L94.786639,87.136924 L94.7866379,107.525574 C94.7887931,111.527751 91.5344828,114.785185 87.5387931,114.785185 Z M95.3081897,80.9221094 L29.6918103,80.9221094 L25.1918103,57.9387366 C25.2866379,57.9387366 25.3793103,57.9538473 25.4741379,57.9538473 C30.5646552,57.9538473 34.4655172,56.9586998 38.0689655,54.7223164 C43.9827586,61.0364298 52.6939655,64.876706 62.5,64.876706 C72.3189655,64.876706 81.0409483,61.0299538 86.9547414,54.6964123 C90.6271552,56.8939397 94.6875,57.9516886 99.5280172,57.9516886 C99.6228448,57.9516886 99.7155172,57.9387366 99.8103448,57.9365779 L95.3081897,80.9221094 Z M99.5280172,51.7347154 C96.0840517,51.7347154 93.2672414,51.09359 90.7068966,49.701247 C92.4159483,46.8431663 93.6637931,43.6763956 94.3232759,40.2527429 C94.6487069,38.5668207 93.5474138,36.9370239 91.8642241,36.6132232 C90.1724138,36.2851052 88.5538793,37.3903449 88.2306034,39.0762671 C86.0107759,50.607889 75.4310345,58.6597328 62.5,58.6597328 C49.5732759,58.6597328 38.9935345,50.6100476 36.7715517,39.0849018 C36.4461207,37.3968209 34.8038793,36.2958985 33.137931,36.6218579 C31.4547414,36.9478172 30.3534483,38.577614 30.6788793,40.2613776 C31.3405172,43.6915063 32.5948276,46.864753 34.3103448,49.7293098 C31.8318966,51.1410808 29.1659483,51.7325567 25.4741379,51.7325567 C14.8512931,51.7325567 6.20905172,43.0762849 6.20905172,32.4361943 C6.20905172,21.7961037 14.8512931,13.1419906 25.4741379,13.1419906 C29.7327586,13.1419906 33.7607759,14.5019535 37.137931,17.0772483 C37.2564655,17.1808645 37.3857759,17.2758461 37.5237069,17.3600343 C38.8793103,18.2105507 40.6659483,17.8781154 41.6336207,16.600182 C46.637931,9.99896527 54.2435345,6.21265588 62.5021552,6.21265588 C70.7650862,6.21265588 78.3728448,9.99896527 83.3728448,16.6023406 C83.4030172,16.6411967 83.4331897,16.6822115 83.4655172,16.7167502 C84.5431034,18.0141116 86.4612069,18.2170267 87.7801724,17.1592778 C87.8469828,17.1074697 87.9116379,17.0513443 87.9719828,16.9930601 C91.325431,14.4695734 95.3168103,13.1376733 99.5301724,13.1376733 C110.153017,13.1376733 118.795259,21.7917863 118.795259,32.431877 C118.795259,43.0719676 110.150862,51.7347154 99.5280172,51.7347154 Z" id="Shape"></path>
            <path d="M82.0651418,174.819176 C81.9143149,174.198656 81.2786869,173.848218 80.6969257,174.06473 L67.7688992,178.901661 C66.7454304,176.044591 64.114577,174 61.0010773,174 C57.8875776,174 55.2567242,176.046823 54.2332555,178.901661 L41.305229,174.06473 C40.7234678,173.848218 40.0878398,174.196424 39.9370128,174.819176 L39.6676789,175.92629 C38.7777998,179.586911 38.7777998,183.41717 39.6655243,187.075559 L39.9327035,188.180442 C40.0835305,188.800961 40.7191584,189.153631 41.3009196,188.934887 L54.2332555,184.095724 C55.2567242,186.952794 57.8875776,188.999617 61.0010773,188.999617 C64.114577,188.999617 66.7454304,186.952794 67.7688992,184.095724 L80.6990804,188.934887 C81.2808416,189.153631 81.9164695,188.800961 82.0672965,188.180442 L82.3344757,187.075559 C83.2222002,183.414938 83.2222002,179.584679 82.3323211,175.92629 L82.0651418,174.819176 Z" id="Shape"></path>
            <path d="M77.0470743,153.416427 C75.6569766,152.400644 74.2262452,151.456775 72.7548803,150.573583 C70.579912,149.270145 67.7612215,147.535224 65.1606694,148.115029 C63.3599582,148.517297 61.8565141,150.090412 61.0010693,151.746677 C60.1456245,150.09266 58.6421804,148.517297 56.8414692,148.115029 C54.2409171,147.535224 51.4222266,149.270145 49.2472583,150.573583 C47.7758934,151.454528 46.345162,152.400644 44.9550643,153.416427 C40.5944346,156.598613 35.5408947,160.176326 30.0040285,160.223519 C25.5065277,160.261724 21.2079178,157.902051 18,154.589521 C19.548355,156.187356 20.6582946,157.960481 22.4868077,159.311113 C24.3174595,160.663992 26.3769428,161.677527 28.5390794,162.277558 C35.9835874,164.345081 43.3019173,161.695506 49.7733569,157.868342 C52.8871758,156.027797 56.5784199,153.904092 60.1777037,155.212025 C60.7080795,155.405293 61.2919205,155.405293 61.8222963,155.212025 C65.4215801,153.906339 69.1128242,156.030045 72.2266431,157.868342 C78.7002213,161.695506 86.0164126,164.345081 93.4609206,162.277558 C95.6251958,161.677527 97.6846791,160.663992 99.5131923,159.311113 C101.341705,157.960481 102.451645,156.187356 104,154.589521 C100.792082,157.902051 96.4934723,160.259476 91.9959715,160.223519 C86.4612439,160.176326 81.407704,156.598613 77.0470743,153.416427 Z" id="Shape"></path>
        </g>
    </g>
</svg>