<?xml version="1.0" encoding="UTF-8"?>
<svg width="230px" height="230px" viewBox="0 0 230 230" version="1.1" xmlns="http://www.w3.org/2000/svg" xmlns:xlink="http://www.w3.org/1999/xlink">
    <!-- Generator: Sketch 50.2 (55047) - http://www.bohemiancoding.com/sketch -->
    <title>Artboard 2 Copy 16</title>
    <desc>Created with Sketch.</desc>
    <defs></defs>
    <g id="Artboard-2-Copy-16" stroke="none" stroke-width="1" fill="none" fill-rule="evenodd">
        <g id="noun_Guitar_1288325" transform="translate(36.000000, 13.000000)" fill="#FFFFFF" fill-rule="nonzero">
            <g id="Group">
                <path d="M15.1385,181.087278 L16.6514844,182.34663 C21.4426016,186.124685 29.0075234,191.413963 35.0594609,194.940148 L35.311625,195.192019 C40.8592344,198.466333 49.9371406,203.755611 59.519375,202.244389 C69.8581016,200.481296 75.4057109,193.428926 78.4316797,189.65087 C81.7098125,185.620944 83.9792891,179.072315 85.2401094,171.768074 L85.7444375,168.9975 C86.7530937,162.197 88.0139141,154.137148 89.5268984,150.359093 C91.5442109,145.825426 94.8223437,141.039889 99.865625,136.002481 C104.656742,131.216944 107.682711,126.179537 108.691367,121.64587 C109.700023,116.860333 108.439203,112.326667 105.413234,108.800481 C102.63943,105.778037 97.0918203,101.496241 94.8223437,99.9850185 C90.0312266,107.289259 86.2487656,112.578537 84.9879453,114.34163 C85.7444375,115.852852 86.2487656,117.364074 86.7530937,118.875296 C92.5528672,123.912704 93.8136875,131.468815 90.5355547,142.551111 C88.5182422,149.603481 84.9879453,155.14463 81.2054844,158.167074 C80.1968281,158.922685 78.9360078,159.174556 77.9273516,159.174556 C74.6492187,159.174556 70.8667578,156.655852 68.0929531,154.892759 C63.8061641,151.870315 61.7888516,147.588519 62.0410156,145.069815 C62.2931797,143.558593 64.3104922,140.284278 65.8234766,138.269315 C58.7628828,136.254352 53.7196016,129.957593 53.7196016,122.149611 C53.7196016,112.830407 61.2845234,105.526167 70.3624297,105.526167 C71.1189219,105.526167 71.62325,105.526167 72.3797422,105.778037 L79.4403359,95.9550926 C79.4403359,95.9550926 79.4403359,95.9550926 79.4403359,95.9550926 C79.4403359,95.9550926 79.4403359,95.9550926 79.4403359,95.9550926 L82.4663047,91.6732963 C79.1881719,89.6583333 73.1362344,86.1321481 70.8667578,85.376537 C66.0756406,84.1171852 59.2672109,83.6134444 53.7196016,90.1620741 C50.4414687,93.9401296 48.4241562,98.4737963 47.1633359,100.9925 C46.9111719,101.748111 46.6590078,102.251852 46.4068437,102.503722 L46.1546797,103.259333 C44.8938594,105.778037 41.8678906,111.822926 37.8332656,115.097241 C37.8332656,115.097241 33.7986406,118.623426 29.0075234,121.14213 C24.4685703,123.660833 11.8603672,131.216944 8.58223437,135.750611 L7.82574219,137.009963 C4.29544531,141.7955 -1.25216406,148.84787 0.260820312,160.182037 C1.77380469,170.760593 9.84305469,177.057352 15.1385,181.087278 Z M33.2943125,141.54363 L36.8246094,136.254352 C37.0767734,136.002481 37.3289375,135.750611 37.5811016,135.750611 C37.8332656,135.750611 38.3375937,135.750611 38.5897578,136.002481 L68.0929531,156.152111 C68.5972812,156.655852 68.8494453,157.411463 68.3451172,157.915204 L64.8148203,163.204481 C64.5626562,163.456352 64.3104922,163.708222 64.0583281,163.708222 C64.0583281,163.708222 63.8061641,163.708222 63.8061641,163.708222 C63.554,163.708222 63.3018359,163.708222 63.0496719,163.456352 C63.0496719,163.456352 61.0323594,161.94513 59.519375,161.189519 C59.2672109,161.189519 58.7628828,160.937648 58.0063906,160.685778 C55.2325859,159.678296 49.9371406,157.411463 47.4155,155.64837 C44.3895312,153.633407 40.6070703,150.359093 39.34625,148.596 C38.3375937,147.084778 35.311625,144.314204 33.2943125,143.306722 C33.0421484,143.054852 32.7899844,142.802981 32.7899844,142.551111 C33.0421484,142.299241 33.0421484,142.04737 33.2943125,141.54363 Z" id="Shape"></path>
                <path d="M41.8678906,147.336648 C42.8765469,148.84787 46.1546797,151.618444 49.1806484,153.633407 C51.450125,155.14463 56.7455703,157.411463 59.2672109,158.418944 C60.0237031,158.670815 60.5280313,158.922685 60.7801953,158.922685 C61.7888516,159.426426 62.7975078,160.182037 63.8061641,160.685778 L65.8234766,157.411463 L38.3375938,138.521185 L36.3202813,141.54363 C38.3375938,143.558593 40.8592344,145.825426 41.8678906,147.336648 Z" id="Shape"></path>
                <path d="M80.7011562,98.2219259 L74.9013828,106.029907 C78.4316797,107.037389 81.2054844,109.052352 83.4749609,111.822926 C84.9879453,109.556093 86.7530937,106.785519 88.7704062,104.014944 L80.7011562,98.2219259 Z" id="Shape"></path>
                <path d="M143.490008,26.6907407 L149.541945,18.6308889 C149.541945,18.6308889 149.541945,18.6308889 149.541945,18.6308889 C149.541945,18.6308889 149.541945,18.6308889 149.541945,18.6308889 L154.333063,12.0822593 C154.333063,12.0822593 154.333063,12.0822593 154.333063,12.0822593 L158.115523,6.79298148 C157.863359,6.28924074 157.359031,5.7855 157.106867,5.53362963 C157.106867,5.28175926 156.854703,5.28175926 156.854703,5.02988889 C156.854703,4.02240741 155.846047,3.01492593 153.828734,1.5037037 C152.063586,0.244351852 149.289781,0.496222222 149.289781,0.496222222 C149.289781,0.496222222 149.037617,0.496222222 149.037617,0.496222222 L147.524633,0.244351852 C145.50732,3.51866667 136.933742,16.8677963 134.412102,20.6458519 C134.412102,22.4089444 133.655609,24.172037 133.151281,25.4313889 L139.203219,29.4613148 C140.968367,27.9500926 142.733516,26.9426111 143.490008,26.6907407 Z" id="Shape"></path>
                <path d="M128.864492,45.0772778 L122.560391,40.7954815 L116.004125,49.8628148 L122.560391,54.3964815 C124.577703,51.1221667 126.84718,47.8478519 128.864492,45.0772778 Z" id="Shape"></path>
                <path d="M121.047406,56.4114444 L114.238977,51.8777778 L108.439203,59.9376296 L115.247633,64.975037 C117.264945,61.9525926 119.282258,59.1820185 121.047406,56.4114444 Z" id="Shape"></path>
                <path d="M113.986813,66.7381296 L106.926219,61.7007222 L101.882938,68.5012222 L108.943531,73.7905 C110.70868,71.5236667 112.473828,69.2568333 113.986813,66.7381296 Z" id="Shape"></path>
                <path d="M107.682711,76.0573333 L100.369953,70.7680556 L96.0831641,76.8129444 L103.648086,82.1022222 C105.16107,80.0872593 106.421891,78.0722963 107.682711,76.0573333 Z" id="Shape"></path>
                <path d="M137.942398,31.2244074 L132.142625,27.1944815 L124.073375,38.5286481 L130.377477,42.8104444 C133.907773,37.2692963 136.681578,33.2393704 137.942398,31.2244074 Z" id="Shape"></path>
                <ellipse id="Oval" cx="70.3624297" cy="122.149611" rx="9.83439844" ry="9.82294444"></ellipse>
                <path d="M68.3451172,138.521185 C66.3278047,141.291759 64.3104922,144.314204 64.3104922,145.321685 C64.0583281,146.581037 65.3191484,150.107222 69.3537734,152.877796 C73.1362344,155.3965 77.1708594,157.915204 79.4403359,156.152111 C81.2054844,154.892759 85.2401094,150.862833 88.0139141,141.7955 C90.5355547,133.231907 90.2833906,127.187019 87.0052578,122.905222 C86.7530937,131.720685 79.1881719,139.024926 70.3624297,139.024926 C69.6059375,138.773056 69.1016094,138.773056 68.3451172,138.521185 Z" id="Shape"></path>
                <path d="M102.387266,84.1171852 L94.8223437,78.8279074 L91.2920469,83.8653148 L98.8569687,89.406463 C99.865625,87.6433704 101.126445,85.8802778 102.387266,84.1171852 Z" id="Shape"></path>
                <path d="M90.2833906,101.999981 C91.0398828,100.74063 92.0485391,99.4812778 92.8050313,98.2219259 L84.7357813,92.6807778 L82.2141406,96.206963 L90.2833906,101.999981 Z" id="Shape"></path>
                <path d="M97.3439844,91.4214259 L89.5268984,85.8802778 L86.2487656,90.4139444 L94.3180156,95.9550926 C95.3266719,94.4438704 96.3353281,92.9326481 97.3439844,91.4214259 Z" id="Shape"></path>
            </g>
        </g>
    </g>
</svg>