<?xml version="1.0" encoding="UTF-8" standalone="no"?>
<svg width="230px" height="230px" viewBox="0 0 230 230" version="1.1" xmlns="http://www.w3.org/2000/svg" xmlns:xlink="http://www.w3.org/1999/xlink">
    <!-- Generator: Sketch 39.1 (31720) - http://www.bohemiancoding.com/sketch -->
    <title>2</title>
    <desc>Created with Sketch.</desc>
    <defs>
        <polygon id="path-1" points="14.1169757 31.0954411 14.1169757 0.285380356 0.0994533836 0.285380356 0.0994533836 31.0954411 14.1169757 31.0954411"></polygon>
        <polygon id="path-3" points="0 218.853061 119.93417 218.853061 119.93417 0 0 0"></polygon>
    </defs>
    <g id="Page-1" stroke="none" stroke-width="1" fill="none" fill-rule="evenodd">
        <g id="2" transform="translate(-644.000000, -455.000000)">
            <g id="Page-1" transform="translate(697.000000, 464.000000)">
                <path d="M53.3119051,86.4276691 C52.8597771,86.4276691 52.4268886,86.1709557 52.222469,85.7301835 C49.1922493,79.2203179 45.2577736,79.0750084 39.812998,78.8788406 C38.0838488,78.8158731 36.2945763,78.7504839 34.4163211,78.4598649 C33.7621784,78.3581482 33.3100504,77.7405828 33.4110577,77.0794246 C33.512065,76.4206882 34.115704,75.9653851 34.7818714,76.0671018 C36.5206403,76.3359243 38.2401697,76.3988918 39.8995757,76.4594374 C45.4766228,76.6604489 50.7482431,76.8517731 54.4013412,84.7009079 C54.6827187,85.3063642 54.4229856,86.028068 53.8217516,86.3114215 C53.6582159,86.3913418 53.4850605,86.4276691 53.3119051,86.4276691 L53.3119051,86.4276691 Z" id="Fill-1" fill="#FFFFFF"></path>
                <path d="M65.8897216,91.4360033 C65.8271933,91.4360033 65.76226,91.4311596 65.6997317,91.4214723 C65.045589,91.3173338 64.5958659,90.6973466 64.6992782,90.0361884 C66.5655087,78.1450276 83.0850157,74.7472071 83.7872571,74.6067413 C84.4413998,74.4808064 85.0690881,74.9046257 85.1989547,75.5609403 C85.3288213,76.2172549 84.9031475,76.8541949 84.2514098,76.9825516 C84.0974939,77.0140353 68.6794477,80.1963134 67.0753552,90.4115713 C66.9815627,91.0097621 66.4693113,91.4360033 65.8897216,91.4360033" id="Fill-3" fill="#FFFFFF"></path>
                <path d="M15.8838824,112.639081 C15.6794628,112.639081 15.4750432,112.588223 15.2874582,112.479241 C10.7132695,109.844295 4.78750657,103.009905 1.69956844,97.9240725 C-0.11615842,94.9331186 -0.503353155,90.8353907 0.665445858,86.9628925 C1.5576772,84.0058441 3.19062891,81.7874524 5.14343714,80.879268 C9.68155182,78.7771239 15.3187224,85.7277617 15.9488157,86.5293858 C16.3600598,87.0525 16.2710771,87.8129531 15.7516109,88.229507 C15.2321447,88.6412172 14.4769947,88.5588752 14.0633457,88.0333391 C12.7718949,86.3937636 8.52958736,81.9763548 6.15351036,83.0782852 C4.85965466,83.6788978 3.63794705,85.4371427 2.96696984,87.6652217 C2.00980522,90.8402343 2.31042225,94.2864913 3.75097905,96.6598798 C7.03612196,102.072659 12.7478455,108.226516 16.4803066,110.377097 C17.0574913,110.708887 17.257101,111.449965 16.9276247,112.028781 C16.7063706,112.418695 16.2999364,112.639081 15.8838824,112.639081" id="Fill-5" fill="#FFFFFF"></path>
                <path d="M15.2994829,102.331794 C14.7559673,102.331794 14.2629554,101.958833 14.1306839,101.404235 C12.3317916,93.9014211 8.29630855,93.2184665 8.12555807,93.1918264 C7.47382035,93.0949534 7.01447753,92.4894971 7.0986503,91.8331826 C7.185228,91.1792898 7.75038802,90.7142994 8.42377017,90.789376 C8.66185886,90.8184379 14.2509307,91.5837346 16.4706868,100.837528 C16.6246027,101.486577 16.2277883,102.142892 15.5832654,102.297888 C15.4870679,102.319685 15.3908705,102.331794 15.2994829,102.331794" id="Fill-7" fill="#FFFFFF"></path>
                <g id="Group-11" transform="translate(105.817195, 79.773286)">
                    <mask id="mask-2" fill="white">
                        <use xlink:href="#path-1"></use>
                    </mask>
                    <g id="Clip-10"></g>
                    <path d="M2.18055569,31.0954411 C1.83905474,31.0954411 1.49995873,30.9501316 1.26187005,30.6667781 C0.831386458,30.155773 0.896319737,29.3928981 1.40376128,28.9593914 C5.09774335,25.8158626 11.2760245,16.344105 11.5141132,14.4235977 C11.8147303,12.01146 12.0383893,7.36155599 10.1577292,3.3049991 C9.94609481,2.84969599 9.7200308,2.75524482 9.50599148,2.71891744 C7.87544471,2.42829844 4.21753668,5.32237933 2.16853101,7.46085081 C1.70678325,7.94279399 0.944418462,7.95732494 0.468241086,7.49233454 C-0.0103412258,7.02734414 -0.0247708433,6.26204743 0.434571979,5.78010426 C1.40616622,4.77020323 6.41083854,-0.242974544 9.90040102,0.330997983 C10.655551,0.456932884 11.6944835,0.90012686 12.3366014,2.28056712 C14.4721848,6.88930011 14.2340961,12.0550529 13.89981,14.723904 C13.5414745,17.6204067 6.79081846,27.5426238 2.95735009,30.8096657 C2.72888115,31.0034117 2.45471842,31.0954411 2.18055569,31.0954411" id="Fill-9" fill="#FFFFFF" mask="url(#mask-2)"></path>
                </g>
                <path d="M105.948745,101.743291 C105.284982,101.743291 104.746276,101.200802 104.746276,100.532378 C104.746276,96.7640183 109.075162,93.8675156 111.660468,92.1359107 C112.146265,91.8089643 112.550295,91.5425636 112.802813,91.3391303 C113.327089,90.9249982 114.079834,91.0073402 114.493483,91.5304544 C114.907132,92.0535686 114.825364,92.8140217 114.305898,93.2329974 C114.014901,93.4679145 113.555558,93.7779081 112.992803,94.1532909 C110.951012,95.5192002 107.151213,98.0621165 107.151213,100.532378 C107.151213,101.200802 106.614912,101.743291 105.948745,101.743291" id="Fill-12" fill="#FFFFFF"></path>
                <path d="M55.9477152,125.00492 C55.8683523,125.00492 55.7913944,124.997654 55.7096265,124.980701 C55.0578888,124.849923 54.63462,124.212983 54.7644866,123.556668 C57.616741,109.195246 55.3585058,91.7363096 55.3344565,91.5619382 C55.2478788,90.9007799 55.7096265,90.29048 56.3685791,90.2008725 C57.0155069,90.1088432 57.6311706,90.5762554 57.7201532,91.2422573 C57.8163507,91.9712266 60.0505364,109.277588 57.1213241,124.031346 C57.010697,124.60774 56.5104703,125.00492 55.9477152,125.00492" id="Fill-14" fill="#FFFFFF"></path>
                <path d="M48.6343041,125.593423 C48.1172428,125.593423 47.6386605,125.254368 47.4823396,124.731254 C46.9893277,123.081991 47.1793177,121.512648 48.03307,120.195175 C50.1710584,116.894228 55.8491128,116.145884 56.0920114,116.1144 C56.7004603,116.039324 57.3473881,116.49947 57.4339658,117.165472 C57.5157336,117.829052 57.049176,118.434508 56.3902235,118.519272 C55.0530789,118.691222 51.3134031,119.563079 50.0484066,121.522335 C49.5842539,122.244039 49.4976762,123.065038 49.7862686,124.038612 C49.9786635,124.677973 49.617923,125.353663 48.9806149,125.547409 C48.865178,125.57647 48.749741,125.593423 48.6343041,125.593423" id="Fill-16" fill="#FFFFFF"></path>
                <path d="M72.6139234,130.601757 C72.3397606,130.601757 72.063193,130.507306 71.837129,130.315982 C71.3296874,129.884897 71.2671591,129.1196 71.6952377,128.608595 C73.2849006,126.714728 73.8644902,124.932265 73.4147671,123.312064 C72.5850641,120.333219 68.5952749,118.419978 67.8473397,118.168108 C67.2172464,117.957409 66.8781504,117.269611 67.0873799,116.635093 C67.2990143,116.000574 67.9844211,115.661519 68.6097045,115.872218 C68.667423,115.891592 74.4657243,118.100297 75.7331257,122.660593 C76.4113177,125.099371 75.6730023,127.627756 73.5350139,130.173094 C73.2945203,130.456448 72.9530194,130.601757 72.6139234,130.601757" id="Fill-18" fill="#FFFFFF"></path>
                <path d="M84.8959327,125.300382 C84.3788714,125.300382 83.9002891,124.961327 83.7439683,124.438213 C83.5515734,123.796429 83.9123138,123.123162 84.5496219,122.929416 C87.3032739,122.096308 89.2031735,120.391343 89.8933902,119.698701 C90.3623528,119.226445 91.1247176,119.226445 91.5936802,119.698701 C92.0626427,120.170957 92.0626427,120.938676 91.5936802,121.410931 C90.5763921,122.435363 88.3999248,124.295325 85.2398386,125.249524 C85.1268066,125.28343 85.0113697,125.300382 84.8959327,125.300382" id="Fill-20" fill="#FFFFFF"></path>
                <path d="M95.7157409,117.938034 C95.4680324,117.938034 95.222729,117.862958 95.0086896,117.705539 C94.4699839,117.313204 94.354547,116.555172 94.7441466,116.015105 C95.9610444,114.329515 93.5272489,111.607384 92.2189636,110.144601 C91.5696308,109.418054 91.2137002,109.018453 91.0669991,108.572837 C90.8553647,107.938319 91.1944607,107.252942 91.8221491,107.039822 C92.4209782,106.83881 93.0655011,107.136695 93.3083997,107.710667 C93.4310515,107.897148 93.6931895,108.173236 94.0082361,108.524401 C95.6459977,110.3553 99.0513874,114.169675 96.6873351,117.439138 C96.4540563,117.766085 96.088506,117.938034 95.7157409,117.938034" id="Fill-22" fill="#FFFFFF"></path>
                <path d="M34.4283457,125.92037 C29.5246807,125.92037 26.5233203,118.059126 26.121696,116.431659 C25.9629702,115.78261 26.3549748,115.126296 26.9970928,114.964033 C27.6488305,114.804193 28.2933534,115.196528 28.4544841,115.847999 C28.8681331,117.516637 31.7131727,123.878771 34.7289628,123.47917 C35.3638659,123.394406 35.9915543,123.854553 36.0805369,124.520555 C36.1671146,125.181713 35.7053669,125.792013 35.0464143,125.88162 C34.8395898,125.90826 34.6303604,125.92037 34.4283457,125.92037" id="Fill-24" fill="#FFFFFF"></path>
                <path d="M101.271144,61.9551274 C100.686744,64.604604 100.686744,108.77627 100.686744,117.608666 C100.686744,126.443484 88.9915392,137.634737 88.9915392,137.634737 C88.9915392,137.634737 87.8227401,150.29846 87.5293379,145.290126 C87.2383406,140.286636 80.511734,131.156355 79.0495327,129.390845 C77.5897364,127.625334 72.0319288,125.561939 67.64773,124.384933 C63.2611263,123.207926 56.8279219,128.213838 56.8279219,128.213838 L55.9501201,123.796429 C36.0637024,123.207926 35.7727051,153.243399 35.7727051,153.243399 C35.7727051,153.243399 34.3105039,141.466064 34.0195066,140.286636 C33.7261044,139.109629 31.6795036,138.223241 26.7085004,132.924288 C21.7374972,127.625334 19.1064969,58.1262221 19.6908965,56.3607116 C20.275296,54.5952012 26.7085004,50.1753706 27.5838972,49.8823297 C28.4616989,49.5868671 31.6795036,51.3523775 31.6795036,51.3523775 C22.3194918,61.0711613 33.7261044,75.5003947 31.9705009,72.2624147 C30.2173024,69.0220128 38.1127081,54.5927794 40.7413034,55.1812829 C43.3747085,55.7697863 56.2411174,57.5377186 66.1831239,57.2422559 C76.1251303,56.9492151 90.4537404,48.9983636 94.8403441,50.4708332 C99.2245429,51.940881 101.855543,59.303229 101.271144,61.9551274 M76.4161276,163.843727 C76.4161276,163.843727 73.1983229,147.942024 72.6139234,148.825991 C72.0295239,149.707535 67.6453251,152.652474 67.6453251,152.652474 C67.6453251,152.652474 65.0119199,141.463643 59.1655199,145.290126 C53.31431,149.119031 52.145511,155.00891 52.145511,155.00891 C52.145511,155.00891 48.9301113,149.709957 48.636709,150.593923 C48.3457118,151.475467 44.2525103,158.837815 44.2525103,158.837815 C44.2525103,158.837815 43.3747085,143.524616 46.0057088,138.223241 C48.636709,132.924288 69.1051214,127.034409 75.5383258,137.9302 C81.9715303,148.825991 76.4161276,163.843727 76.4161276,163.843727 M113.553153,38.9841172 C113.553153,38.9841172 105.948745,50.4684114 107.117544,45.4624991 C108.288748,40.4565868 109.750949,26.322816 108.288748,22.2008699 C106.826546,18.0765019 100.684339,13.0705896 100.684339,13.0705896 L96.3001404,29.5607961 C96.3001404,29.5607961 93.9601374,9.83260954 92.7889335,7.47617381 C91.6201345,5.11973807 84.6025305,5.71066337 84.6025305,5.71066337 L83.7271337,21.6123664 L79.34053,1.29083273 L61.7941152,2.76330234 L60.3343189,23.9663803 L58.2853132,5.4127789 C58.2853132,5.4127789 44.2501053,2.76330234 42.4969068,4.23577194 C40.7413034,5.70824155 38.6947026,30.737803 38.6947026,30.737803 L37.2325014,6.58978585 L28.7526962,9.83018772 C28.7526962,9.83018772 26.9994977,42.5175599 24.6594947,36.6276815 C22.3194918,30.7353812 23.4906957,15.4246035 23.4906957,15.4246035 C21.7374972,18.6625835 13.8396866,22.4914889 13.8396866,26.9088977 C13.8396866,31.3238847 16.1796895,45.1646146 16.1796895,45.1646146 C16.1796895,45.1646146 9.16208559,34.2712457 8.57768609,35.7412935 C7.99328658,37.2137631 7.40888708,41.6311719 7.11788979,46.6370842 C6.82448757,51.6429965 7.11788979,69.6056726 7.40888708,72.257571 C7.7022893,74.9070476 10.917689,81.973933 12.9666947,86.3913418 C15.0132955,90.8087506 16.1820945,106.710454 15.8910972,111.423325 C15.597695,116.133775 14.7222982,122.316694 14.1378987,127.913532 C13.5534992,133.510369 17.0623011,144.110697 19.3998992,151.473045 C21.7374972,158.835393 33.1441098,175.032559 33.1441098,175.032559 C33.1441098,175.032559 34.0219115,161.487292 36.0685123,168.258714 C38.1175179,175.032559 48.9373261,190.345759 48.9373261,190.345759 L48.6439239,182.98341 L54.786131,189.757255 C54.786131,189.757255 67.9459421,190.345759 71.7481463,188.873289 C75.5479456,187.403241 85.1989547,174.151015 85.1989547,174.151015 C85.1989547,174.151015 89.8765557,180.040893 89.5855584,178.861464 C89.2921562,177.684457 89.0011589,175.621062 90.1699579,171.203654 C91.3387569,166.788667 107.129568,138.811744 108.300772,131.744859 C109.469571,124.677973 109.760569,96.7010508 109.469571,90.2226689 C109.176169,83.7418652 115.902776,73.1415371 115.609373,71.9645302 C115.318376,70.7875232 113.562773,67.5471214 113.562773,67.5471214 C113.562773,67.5471214 115.902776,61.0687395 117.362572,53.7063914 C118.817558,46.348887 113.553153,38.9841172 113.553153,38.9841172" id="Fill-26" fill="#FFFFFF"></path>
                <path d="M27.8869192,51.0617585 C26.6940708,51.6260437 21.2589149,55.5542439 20.8236214,56.74336 C20.2680812,60.368832 23.1083109,127.329872 27.5766824,132.09118 C30.0249075,134.699485 31.7564616,136.227657 32.9036162,137.237558 C34.2191163,138.39519 34.9430021,139.034552 35.1810908,139.991173 C35.2796932,140.395618 35.4961374,141.860822 35.7438459,143.674769 C37.6389356,134.677689 42.56665,122.573407 55.3705305,122.573407 L56.9337391,122.609735 L57.6407903,126.164974 C59.5935986,124.900781 63.0639215,122.989961 66.1975535,122.989961 C66.818027,122.989961 67.4072364,123.065038 67.950752,123.210347 C68.9439907,123.476748 77.719603,125.896151 79.9658134,128.611017 C81.2163803,130.119814 85.3552756,135.723917 87.4692145,140.678971 C87.5846515,139.637586 87.6952785,138.550187 87.789071,137.51849 L87.8323599,137.065608 L88.1594312,136.753193 C88.2724632,136.644211 99.481871,125.816231 99.481871,117.606244 C99.481871,82.3444722 99.6886955,63.5317355 100.09513,61.6887267 C100.552068,59.6132226 98.2168746,52.8757055 94.4555543,51.6163564 C94.2174656,51.5364362 93.9048239,51.4952652 93.5152242,51.4952652 C91.2690138,51.4952652 87.3273233,52.8466436 83.1547589,54.2730985 C77.6546697,56.1572783 71.41867,58.293328 66.2119831,58.4483248 C56.1665644,58.7413656 43.3025605,56.992808 40.4743554,56.3607116 C39.7143956,56.5738322 36.8669511,60.1871952 34.6375752,65.1567801 C32.9276655,68.9759981 32.7328657,71.150797 33.0190531,71.6787548 C33.2210677,72.0541377 33.5625687,72.6838122 33.1777789,73.3328613 L32.8266582,73.9262084 L32.1292267,73.9334739 C30.7800575,73.9334739 29.1495107,70.3976094 28.5097976,68.8767033 C26.8720361,64.9872523 24.9937809,57.8041193 29.7387201,51.732604 C28.9354714,51.3644866 28.2115856,51.0956641 27.8869192,51.0617585 L27.8869192,51.0617585 Z M34.5750468,153.391131 C34.0146967,148.86474 33.0455074,141.383722 32.8458977,140.577255 C32.7929891,140.35929 32.042649,139.698132 31.3187632,139.061192 C30.1379395,138.019807 28.3534768,136.445621 25.8282937,133.754974 C20.1766936,127.731895 18.3705865,56.493912 18.5437419,55.9756415 C19.3061067,53.6700641 26.1866292,49.0710184 27.1991074,48.7319629 C27.3866924,48.6689954 27.5959219,48.6375117 27.8219859,48.6375117 C29.1398909,48.6375117 31.5472321,49.9017043 32.2518784,50.2891963 L33.6395266,51.0520712 L32.5404708,52.1951726 C27.4540306,57.4747511 29.1110317,64.3769524 30.9315684,68.4431966 C31.8454442,64.7668663 34.2143064,60.6667165 34.5966913,60.0176674 C36.9679584,55.9950161 38.9784851,53.9534176 40.5729578,53.9534176 L40.9986315,53.9994323 C43.4035678,54.5394992 56.1906138,56.341337 66.1446449,56.0313434 C70.9905914,55.8884558 77.041411,53.8153736 82.3827744,51.9868957 C88.0680436,50.0397484 92.7600742,48.4994677 95.2179191,49.3228882 C100.253856,51.0109002 103.151804,59.0077664 102.444752,62.2191063 C102.312481,62.8221408 101.889212,68.5933498 101.889212,117.611088 C101.889212,126.109272 92.1179563,136.237344 90.1459085,138.194179 C89.260892,147.675624 88.8953417,147.675624 87.7337575,147.675624 C86.4639512,147.675624 86.3821833,146.285496 86.3268698,145.362781 C86.0767564,141.073729 80.1413738,132.602185 78.1236323,130.168251 C77.0822949,128.911323 72.4479828,126.930271 67.3350883,125.554674 C66.9911824,125.462645 66.6112025,125.41663 66.1999584,125.41663 C63.0711364,125.41663 58.9033819,128.129074 57.5590225,129.172881 L56.0246732,130.36684 L54.9592864,125.00492 C37.4681851,125.431161 36.9727683,152.976999 36.9727683,153.25793 L34.5750468,153.391131 Z M72.666832,147.578751 C73.6576657,147.578751 74.2156109,147.578751 76.5676385,158.648913 C77.6282154,153.500113 78.4050098,145.152082 74.5042032,138.547765 C71.79865,133.965672 66.5582939,133.004208 62.6382478,133.004208 C55.6014044,133.004208 48.3721661,136.155002 47.0783104,138.763308 C45.5535808,141.834182 45.2625835,149.150515 45.3154921,154.393766 C46.4626467,152.281935 47.3693076,150.557595 47.4943643,150.204009 L47.7805517,149.402385 L48.749741,149.278872 C49.242753,149.278872 49.8343673,149.278872 51.8088199,152.228655 C52.7707944,150.000576 54.7260076,146.743221 58.5041624,144.270538 C59.5118307,143.611801 60.5243089,143.277589 61.5175475,143.277589 C65.346206,143.277589 67.4529302,148.041319 68.3331368,150.705327 C69.8891306,149.60824 71.3513318,148.496622 71.6158748,148.138192 L71.9766153,147.656249 L72.666832,147.578751 Z M76.0746266,168.229653 L75.2353039,164.08591 C74.1987763,158.968594 72.9458046,153.371756 72.2171089,150.838527 C70.9569223,151.858115 69.2181534,153.049653 68.3090875,153.662375 L66.8733406,154.626261 L66.4717162,152.933406 C66.026803,151.058913 64.1629774,145.704258 61.5175475,145.704258 C60.9980813,145.704258 60.4257065,145.90527 59.8148527,146.307293 C54.4518449,149.816517 53.3311446,155.192968 53.3191199,155.246249 L52.7154809,158.280795 L51.1137934,155.641006 C50.4572458,154.55845 49.6539971,153.337851 49.0455482,152.509586 C47.9681368,154.614152 46.0201384,158.130642 45.2986575,159.42874 L43.2857259,163.049369 L43.0476372,158.908048 C43.0091582,158.268686 42.1818602,143.209778 44.9258924,137.683174 C46.8017427,133.902705 55.0795332,130.584805 62.6358429,130.584805 C69.0594276,130.584805 74.0087864,132.972724 76.5676385,137.312634 C83.2220971,148.576543 77.7749165,163.633029 77.5392328,164.267547 L76.0746266,168.229653 Z M55.3248367,188.568139 C56.2218779,188.599623 58.2396194,188.66259 60.5916471,188.66259 C65.9666796,188.66259 69.7712887,188.335644 71.3032331,187.742297 C73.8308211,186.763879 80.5670475,178.447332 84.2153358,173.434154 L85.1436412,172.160275 L86.1248552,173.392983 C86.7669731,174.201873 87.4788343,175.07373 88.128167,175.836605 C88.1979102,174.574834 88.4432137,172.974008 88.9939441,170.891238 C89.4941708,169.002215 92.202129,163.664512 95.6291632,156.905199 C100.441441,147.414067 106.427327,135.602826 107.103114,131.546269 C108.240649,124.680395 108.560505,97.030419 108.257483,90.2783709 C108.048254,85.6647943 111.01354,79.4189076 112.973563,75.2848523 C113.569988,74.0279251 114.240965,72.6160011 114.382856,72.0977306 C114.106288,71.233139 113.10343,69.2496643 112.494981,68.1259375 L112.237653,67.6464162 L112.422833,67.1329893 C112.446882,67.0700218 114.748406,60.6497637 116.174533,53.4690526 C117.143723,48.5939188 114.873463,43.6267557 113.512269,41.2073526 C108.911626,47.9351824 107.795736,47.9376043 107.2426,47.9376043 L106.660606,47.9376043 L106.138735,47.4023809 C105.660152,46.7945029 105.765969,45.9783478 105.95115,45.1839892 C107.156023,40.0279238 108.478738,26.3252379 107.160832,22.6053146 C106.242147,20.0188055 103.183068,16.9358223 101.350506,15.2550757 L95.8504173,35.9447268 L95.1096969,29.7012619 C94.2150607,22.1548552 92.5027461,9.59284887 91.7163319,8.01624078 C91.5167222,7.61179601 90.1627431,6.85376478 86.4663561,6.85376478 C86.206623,6.85376478 85.9613195,6.8561866 85.7448752,6.86345208 L84.4365899,30.5949154 L78.3881753,2.58650911 L62.9196254,3.88460732 L61.5319772,24.0511442 L59.1366607,24.1020025 L57.1862574,6.44689818 C54.9015679,6.0424534 48.6799979,5.00349047 45.1086676,5.00349047 C43.6031775,5.00349047 43.2328173,5.19481465 43.2183877,5.20208012 C42.3886847,6.50260015 40.8350959,19.2971017 39.8899559,30.8395197 L37.4922345,30.8128796 L36.1286357,8.30685979 L29.9070656,10.6826701 C28.3751212,38.5506105 26.4054784,38.5481887 25.2246547,38.5481887 C24.4935541,38.5481887 23.9283941,38.0541364 23.5411994,37.0781409 C21.8096453,32.7212777 21.8890082,23.7798998 22.0934278,18.8200022 C21.5210529,19.3334291 20.9005794,19.8541214 20.2680812,20.3845011 C17.8150462,22.4406305 15.0373448,24.7704262 15.0373448,26.9088977 C15.0373448,31.1737315 17.3364639,44.8231373 17.3605132,44.9611813 L18.3369174,50.7469213 L15.1648065,45.823351 C13.1663044,42.7185714 10.7108645,39.2335652 9.31359658,37.6157861 C8.95045121,39.4176239 8.55363673,42.5466218 8.31073817,46.709739 C8.01493101,51.7495568 8.32276285,69.6371563 8.59692558,72.1267925 C8.88792286,74.7496289 12.6372185,82.8361027 14.048916,85.8827585 C16.2734821,90.6852375 17.367728,106.894512 17.0839456,111.503245 C16.8915507,114.58865 16.463472,118.199591 16.011344,122.023653 C15.7708504,124.043455 15.5327617,126.08021 15.3259372,128.04431 C14.7968512,133.093815 17.899219,142.824708 20.1646689,149.927921 L20.5398389,151.10735 C22.2232943,156.411146 28.9090171,166.667575 32.2278291,171.581458 C32.9565248,165.153935 34.190257,165.153935 34.9718613,165.153935 C36.381154,165.153935 36.9222646,166.946085 37.2132619,167.90755 C38.6009101,172.496908 44.2885843,181.343835 47.5617025,186.218969 L47.3043744,179.71879 L55.3248367,188.568139 Z M50.2937101,194.365988 L47.9488973,191.05051 C47.5111989,190.432944 37.4465407,176.144177 35.060844,169.077291 C34.7482023,170.670852 34.4716346,173.034553 34.3369582,175.112479 L34.115704,178.517565 L32.155681,175.734888 C31.6867184,175.068886 20.6167969,159.300384 18.2479347,151.846006 L17.8751696,150.668999 C15.5447864,143.359931 12.3558409,133.350529 12.9354306,127.79244 C13.1422551,125.816231 13.3851536,123.767367 13.6232423,121.737878 C14.0729654,117.950143 14.4962342,114.373108 14.6838192,111.353092 C14.9892461,106.393195 13.7314645,90.9249982 11.8700438,86.9096123 C9.23423368,81.225589 6.50463105,75.0572007 6.20882389,72.3980369 C5.88896737,69.4773159 5.62442439,51.4783124 5.91301673,46.571695 C6.14629555,42.5829492 6.6874062,37.2355595 7.45939074,35.2980995 L7.76000777,34.5376465 L8.76046124,34.3996024 C9.26790279,34.3996024 10.2250674,34.3996024 14.1234691,39.9383162 C13.4524918,35.5184856 12.6348135,29.5971235 12.6348135,26.9137413 C12.6348135,23.6394339 15.8742626,20.9245681 18.728922,18.5269613 C20.3402292,17.175583 21.8625539,15.901703 22.4325238,14.8482091 L25.1140277,9.89557699 L24.685949,15.5214765 C24.6739243,15.6570987 23.7720733,27.8001293 25.2102251,34.2736675 C26.1000515,29.7787603 27.0355717,19.3552255 27.5502281,9.76722027 L27.5935169,8.98012714 L38.3339622,4.87755557 L38.9856999,15.6231931 C39.774519,9.24410606 40.7076343,4.16553902 41.7297322,3.30821296 C42.3357761,2.79962971 43.3482542,2.58408729 45.1134774,2.58408729 C49.7501945,2.58408729 58.1554467,4.16069537 58.5089723,4.22850647 L59.3843691,4.39319057 L60.0577512,10.4986114 L60.6686051,1.64926283 L80.2928848,0 L83.0200825,12.6298174 L83.4625907,4.59420204 L84.5063331,4.50701634 C84.5063331,4.50701634 85.3288213,4.43678342 86.468761,4.43678342 C90.5547477,4.43678342 93.0438567,5.2771567 93.8687498,6.93852865 C94.7008578,8.60716609 95.9225654,17.0835536 96.730624,23.2761602 L100.003742,10.96118 L101.444299,12.1333433 C101.704032,12.3464639 107.865479,17.4032345 109.423877,21.7964251 C110.85241,25.8239201 109.741329,37.686019 108.699992,43.6751922 C109.851956,42.2269409 111.316562,40.1853424 112.555104,38.3181153 L113.517079,36.8650203 L114.531962,38.2817879 C114.758026,38.599047 120.082555,46.1599847 118.533776,53.9485739 C117.290424,60.2114134 115.450648,65.7622363 114.866248,67.4502484 C115.412169,68.479524 116.511225,70.6301046 116.768553,71.6787548 C116.963353,72.4585825 116.564133,73.3522359 115.147626,76.3335025 C113.401642,80.0098329 110.482049,86.166112 110.66242,90.1718106 C110.970251,96.9868262 110.63356,124.961327 109.479191,131.948292 C108.74328,136.375388 102.91612,147.86937 97.7767712,158.009551 C94.6816183,164.114972 91.7596208,169.878915 91.3243273,171.520913 C90.2445109,175.599266 90.4753848,177.497977 90.7447377,178.573267 L90.8890338,179.14724 L90.1627431,180.220108 L89.5398646,180.234639 C88.9939441,180.234639 88.5562457,180.234639 85.2278139,176.132068 C82.6016236,179.641292 75.5888295,188.686808 72.1714151,190.009125 C70.3172092,190.725985 66.4236175,191.089259 60.596457,191.089259 C57.3449832,191.089259 54.7260076,190.973011 54.7260076,190.973011 L54.2281858,190.951215 L49.9714487,186.257718 L50.2937101,194.365988 Z" id="Fill-28" fill="#FFFFFF"></path>
                <path d="M53.8025121,140.38593 C53.8025121,140.38593 65.6949218,136.067816 68.2273197,138.816588" id="Fill-30" fill="#FFFFFF"></path>
                <path d="M53.8025121,141.596843 C53.3095002,141.596843 52.8501573,141.291693 52.6697871,140.795219 C52.4437231,140.165544 52.7683895,139.472902 53.3936729,139.245251 C56.3613642,138.16996 66.2624867,134.895653 69.1075263,137.990745 C69.5596543,138.479954 69.5332,139.247673 69.044998,139.702976 C68.5640107,140.158279 67.799241,140.131639 67.347113,139.637586 C66.1566696,138.349176 59.5911936,139.572197 54.2113512,141.524188 C54.0742699,141.572625 53.9371885,141.596843 53.8025121,141.596843" id="Fill-32" fill="#FFFFFF"></path>
                <mask id="mask-4" fill="white">
                    <use xlink:href="#path-3"></use>
                </mask>
                <g id="Clip-35"></g>
                <path d="M55.3953014,200.621562 L66.6359733,200.621562 L66.6359733,189.691866 L55.3953014,189.691866 L55.3953014,200.621562 Z M67.8360365,203.043387 L54.1904283,203.043387 C53.5266659,203.043387 52.9879602,202.500898 52.9879602,201.832475 L52.9879602,188.480953 C52.9879602,187.81253 53.5266659,187.270041 54.1904283,187.270041 L67.8360365,187.270041 C68.4997989,187.270041 69.0385046,187.81253 69.0385046,188.480953 L69.0385046,201.832475 C69.0385046,202.500898 68.5022039,203.043387 67.8360365,203.043387 L67.8360365,203.043387 Z" id="Fill-34" fill="#FFFFFF" mask="url(#mask-4)"></path>
                <path d="M84.7588514,82.1240861 C83.7030844,82.3541595 79.1818042,83.4851518 76.6109274,86.5923532 C73.68412,90.1257959 69.006519,91.8913064 69.006519,91.8913064 C69.006519,91.8913064 67.83772,93.0683133 69.2013188,93.8578283 C69.987733,94.3107096 76.3343597,93.7851735 81.7623008,93.1070625 C83.0585614,90.1572797 84.092684,85.5921395 84.7588514,82.1240861" id="Fill-36" fill="#FFFFFF" mask="url(#mask-4)"></path>
                <path d="M70.0574761,92.8067562 C70.2282266,92.8067562 70.47834,92.8164435 70.8246508,92.8164435 C72.8351775,92.8164435 76.7431989,92.4967626 80.9205731,91.9906012 C81.8368538,89.6850238 82.6112433,86.5584477 83.1860231,83.8242073 C81.492948,84.4006016 79.0807969,85.4952665 77.529613,87.3673373 C74.9972152,90.4236804 71.3200677,92.2158309 69.9564688,92.809178 C69.987733,92.8067562 70.023807,92.8067562 70.0574761,92.8067562 M70.8270557,95.2382685 L70.8270557,95.2382685 C69.4538371,95.2382685 68.9584203,95.1123336 68.6048946,94.9113222 C67.6910189,94.3833643 67.421666,93.6834569 67.3543278,93.1894046 C67.2052218,92.0608341 67.9964458,91.1986644 68.1551716,91.038824 C68.2754184,90.9177327 68.4221195,90.8232815 68.5832502,90.7627359 C68.6265391,90.7457831 73.0083329,89.0553493 75.6874319,85.8197911 C78.4579184,82.4704071 83.1379243,81.24012 84.5039281,80.9446573 C84.9031475,80.8623153 85.3095818,80.9785629 85.5981741,81.2619164 C85.8867665,81.5452699 86.0142281,81.9569802 85.9396751,82.3565813 C85.2831275,85.7883073 84.2129308,90.5253971 82.8613567,93.6011148 C82.6906062,93.9910287 82.3274608,94.2598512 81.9090019,94.3131314 C78.3112173,94.7563254 73.5085596,95.2382685 70.8270557,95.2382685" id="Fill-37" fill="#FFFFFF" mask="url(#mask-4)"></path>
                <path d="M95.1313414,81.8794818 C94.9221119,81.2522291 92.0554279,81.3491021 89.4220227,81.5791755 C88.0512091,86.72071 85.4490681,90.4963352 83.2220971,92.9181602 C86.5793881,92.4677007 89.3089907,91.9881794 89.6721361,91.6951385 C90.6437303,90.9104672 95.5185361,83.0589106 95.1313414,81.8794818" id="Fill-38" fill="#FFFFFF" mask="url(#mask-4)"></path>
                <path d="M90.3503281,82.7198551 C89.2873463,86.2750942 87.6832538,89.1231604 86.1224502,91.2688973 C88.015135,90.9613256 88.8640775,90.748205 89.0588774,90.6585974 C89.7106151,90.0386102 92.9789234,84.7493444 93.7773623,82.6496221 C93.1424591,82.596342 91.7067122,82.6181384 90.3503281,82.7198551 M83.2220971,94.1290727 C82.7771839,94.1290727 82.3635349,93.8796247 82.1543054,93.4751799 C81.9210266,93.0222987 81.9979846,92.4701225 82.3394855,92.0947397 C84.2898888,89.9756428 86.8992446,86.3768108 88.2628435,81.2643382 C88.39271,80.7727077 88.8135739,80.4166995 89.3186105,80.3731066 C90.506649,80.2689681 91.7427862,80.1938916 92.7745039,80.1938916 C94.3256877,80.1938916 95.8720617,80.2956082 96.2712812,81.4944116 C96.954283,83.5723375 91.2954681,91.937321 90.4224762,92.6396503 C90.129074,92.879411 89.6336571,93.2814339 83.378418,94.1169636 C83.3279143,94.1266509 83.2726008,94.1290727 83.2220971,94.1290727" id="Fill-39" fill="#FFFFFF" mask="url(#mask-4)"></path>
                <path d="M53.6053073,93.0683133 C54.0189563,92.6517594 51.2628994,90.9104672 46.7800983,87.7693602 C42.299702,84.6282532 32.5476856,81.683314 30.9916918,81.683314 C29.4332932,81.683314 25.7272864,83.8435819 26.7036905,85.2167566 C27.6776897,86.5899314 30.6020922,91.5013925 31.7708912,91.8913064 C32.9420951,92.283642 48.7329065,97.9797744 53.6053073,93.0683133" id="Fill-40" fill="#FFFFFF" mask="url(#mask-4)"></path>
                <path d="M27.7883168,84.6670024 C28.0119758,84.9891051 28.3029731,85.4371427 28.6396642,85.9529914 C29.4982264,87.2728861 31.5111581,90.3655566 32.2133995,90.7675796 C38.0309402,92.7655852 43.2376272,93.8432973 47.0109721,93.8432973 L47.0133771,93.8432973 C49.1369358,93.8432973 50.7746974,93.5115073 51.9050174,92.8576146 C51.1354378,92.2594238 49.8319624,91.356083 48.4755783,90.4188368 L46.0922865,88.7623085 C41.6888482,85.6744816 32.230234,82.8942265 30.9916918,82.8942265 C30.0730062,82.8942265 28.158677,84.0445933 27.7883168,84.6670024 M47.0133771,96.2651223 L47.0133771,96.2651223 C41.5710064,96.2651223 35.0055304,94.2840695 31.5736864,93.1022189 C30.2798307,92.6687122 29.0220491,90.9637474 26.6267326,87.2801516 C26.2563724,86.7110227 25.9389208,86.2242358 25.7224765,85.9190859 C25.253514,85.2555058 25.2102251,84.422398 25.6142544,83.6328831 C26.4463624,82.0029949 29.3467155,80.4699796 30.9892869,80.4699796 C32.9709544,80.4699796 42.9466299,83.6038212 47.4655051,86.7739901 L49.8367722,88.423253 C53.8914947,91.2301481 54.7524619,91.8574008 54.8414445,92.8406618 C54.8751136,93.1990919 54.7067681,93.6689259 54.4542498,93.9232176 C52.9150906,95.4780292 50.411552,96.2651223 47.0133771,96.2651223" id="Fill-41" fill="#FFFFFF" mask="url(#mask-4)"></path>
                <path d="M47.3669027,111.556525 C46.9652784,111.556525 46.5708688,111.353092 46.3423999,110.980131 C45.9936841,110.411002 46.1716494,109.66508 46.7368094,109.313915 C53.3720285,105.204078 48.2687538,93.2814339 48.2134403,93.1627645 C47.9464923,92.5500428 48.22306,91.8356044 48.8315089,91.5667818 C49.4399577,91.3003811 50.147009,91.5740473 50.4163619,92.186769 C50.6640703,92.7558979 56.3950334,106.170387 47.9945911,111.374889 C47.7997912,111.498402 47.583347,111.556525 47.3669027,111.556525" id="Fill-42" fill="#FFFFFF" mask="url(#mask-4)"></path>
                <path d="M72.7101208,108.415418 C72.4167186,108.415418 72.1257213,108.308858 71.8924425,108.093316 C68.3475665,104.789946 67.2821797,99.5951317 68.7227365,92.6541812 L68.7972895,92.2787984 C68.9079166,91.6176401 69.5476297,91.1889771 70.1825328,91.2858501 C70.8366755,91.3972541 71.2791837,92.0220849 71.1685567,92.6808213 L71.0771691,93.1482336 C69.8217924,99.1979524 70.6442806,103.629892 73.5277991,106.315696 C74.0135962,106.770999 74.0448604,107.536296 73.5927324,108.027926 C73.3546437,108.287062 73.0347872,108.415418 72.7101208,108.415418" id="Fill-43" fill="#FFFFFF" mask="url(#mask-4)"></path>
                <path d="M90.4513355,98.7644458 C89.8885804,93.8723592 88.2892978,92.6130102 85.9372701,92.4144206 C86.5433141,93.0489387 86.9713927,94.13876 87.1830271,95.9817688 C87.4932639,98.6481981 83.7367535,101.513217 79.8143025,101.513217 C75.8942564,101.513217 72.7149307,99.3408401 72.7149307,96.657458 C72.7149307,95.6112296 73.2055377,94.6521869 74.0256209,93.8602501 C71.2431097,95.1244428 69.4009285,97.2871325 69.4009285,99.7477067 C69.4009285,103.649267 74.0256209,106.814592 79.7301297,106.814592 C85.4346385,106.81217 90.8986536,102.641788 90.4513355,98.7644458" id="Fill-44" fill="#FFFFFF" mask="url(#mask-4)"></path>
                <path d="M71.5413218,97.1926813 C70.9328729,97.9821963 70.6009917,98.8540533 70.6009917,99.7452849 C70.6009917,102.920297 74.7807709,105.601258 79.7277248,105.601258 C82.7988283,105.601258 86.1152354,104.186912 87.9766561,102.082346 C88.9169861,101.019165 89.3715191,99.8905944 89.2560821,98.9049116 C89.0468527,97.0764337 88.7053517,95.8897395 88.2772731,95.1147555 C88.3157521,95.3472507 88.3470162,95.5894332 88.3782804,95.841303 C88.5249815,97.1054956 88.0343745,98.4471867 87.0002519,99.61935 C85.3360361,101.505952 82.5126409,102.72413 79.8143025,102.72413 C75.4036494,102.72413 71.8996573,100.333788 71.5413218,97.1926813 M79.7277248,108.023083 C73.3690733,108.023083 68.1960555,104.310425 68.1960555,99.7452849 C68.1960555,96.8851095 70.1897476,94.2719604 73.5277991,92.7558979 C74.061695,92.5112936 74.6917883,92.6929304 75.0188596,93.1797173 C75.3483359,93.6689259 75.2761878,94.3252405 74.8577289,94.7321071 C74.4272453,95.1462392 73.9149939,95.8170847 73.9149939,96.6550362 C73.9149939,98.6312454 76.6157373,100.299883 79.8118975,100.299883 C81.8248292,100.299883 83.9892718,99.3795893 85.2013596,98.0088363 C85.7737345,97.3597872 86.0527071,96.6889417 85.9853689,96.1198128 C85.8218332,94.6812488 85.5140013,93.7149406 85.0690881,93.252372 C84.7203724,92.8890983 84.6337947,92.3466095 84.8502389,91.8913064 C85.0642783,91.4360033 85.4971668,91.1453843 86.0358725,91.2059299 C89.3979734,91.4892834 91.0766189,93.7076751 91.6441838,98.6215581 C91.8365787,100.302305 91.1728163,102.104142 89.7707385,103.690438 C87.4475701,106.322962 83.5034747,108.023083 79.7277248,108.023083" id="Fill-45" fill="#FFFFFF" mask="url(#mask-4)"></path>
                <path d="M83.3279143,95.9115359 C83.489045,97.3113507 81.5194023,98.8153041 79.4583719,98.8153041 C77.4021514,98.8153041 75.7307207,97.6722027 75.7307207,96.2651223 C75.7307207,94.8556202 77.3997465,93.7125188 79.4583719,93.7125188 C81.5194023,93.7149406 82.9767936,92.86488 83.3279143,95.9115359" id="Fill-46" fill="#FFFFFF" mask="url(#mask-4)"></path>
                <path d="M29.8493471,98.7644458 C30.4145071,93.8723592 32.0113848,92.6130102 34.3658174,92.4144206 C33.7597735,93.0489387 33.3316948,94.13876 33.1176555,95.9817688 C32.8098236,98.6481981 36.5663341,101.513217 40.4863801,101.513217 C44.4064262,101.513217 47.5881568,99.3408401 47.5881568,96.657458 C47.5881568,95.6112296 47.0975498,94.6521869 46.2750617,93.8602501 C49.0599778,95.1244428 50.902159,97.2871325 50.902159,99.7477067 C50.902159,103.649267 46.2750617,106.814592 40.5705529,106.814592 C34.8660441,106.814592 29.402029,102.641788 29.8493471,98.7644458" id="Fill-47" fill="#FFFFFF" mask="url(#mask-4)"></path>
                <path d="M32.0234095,95.1171773 C31.5953308,95.8921613 31.2562348,97.0788555 31.0446004,98.9049116 C30.9291635,99.8905944 31.3861014,101.019165 32.3264315,102.082346 C34.1854472,104.186912 37.4994493,105.601258 40.5729578,105.601258 C45.5223166,105.601258 49.7020958,102.920297 49.7020958,99.7452849 C49.7020958,98.8516315 49.3702146,97.9797744 48.7617657,97.1926813 C48.4034302,100.333788 44.8994381,102.72413 40.4887851,102.72413 C37.7928515,102.72413 34.9718613,101.505952 33.3052405,99.6217718 C32.268713,98.4496085 31.778106,97.1054956 31.9248071,95.841303 C31.9536663,95.5894332 31.9849305,95.3472507 32.0234095,95.1171773 M40.5729578,108.023083 C36.7996129,108.023083 32.8579224,106.322962 30.5299441,103.69286 C29.1278663,102.106564 28.4616989,100.307148 28.6540938,98.6239799 C29.2240637,93.7076751 30.9027092,91.4917052 34.2648101,91.2083517 C34.7890862,91.1502279 35.2364043,91.4384251 35.4504436,91.8937282 C35.6668879,92.3490313 35.5803102,92.8915201 35.2315944,93.2547939 C34.7866812,93.7173624 34.4812543,94.6836706 34.3129088,96.1222347 C34.2479755,96.6913635 34.5269481,97.3622091 35.0993229,98.0112582 C36.3114108,99.3795893 38.4758534,100.302305 40.4863801,100.302305 C43.6849453,100.302305 46.3856887,98.6336672 46.3856887,96.657458 C46.3856887,95.8170847 45.8734373,95.148661 45.4429537,94.7345289 C45.0196849,94.3276623 44.9499418,93.6713478 45.2794181,93.1821391 C45.6064894,92.6929304 46.2413925,92.5137154 46.7704785,92.7558979 C50.110935,94.2719604 52.1046271,96.8875314 52.1046271,99.7452849 C52.1046271,104.310425 46.9316092,108.023083 40.5729578,108.023083" id="Fill-48" fill="#FFFFFF" mask="url(#mask-4)"></path>
                <path d="M36.9727683,95.9115359 C36.8116375,97.3113507 38.7836853,98.8153041 40.8423107,98.8153041 C42.9009361,98.8153041 44.5723668,97.6722027 44.5723668,96.2651223 C44.5723668,94.8556202 42.903341,93.7125188 40.8423107,93.7125188 C38.7812803,93.7125188 37.323889,92.86488 36.9727683,95.9115359" id="Fill-49" fill="#FFFFFF" mask="url(#mask-4)"></path>
                <path d="M54.1921118,201.832475 C54.1921118,201.832475 43.0789014,201.243971 48.6343041,208.015394 C54.1921118,214.789238 58.8408535,217.64457 60.8898592,217.64457 C62.9388649,217.64457 69.4418125,211.861252 70.1536736,211.270327 C81.7117972,201.665369 67.83772,201.834896 67.83772,201.834896 L54.1921118,201.834896 L54.1921118,201.832475 Z" id="Fill-50" fill="#FFFFFF" mask="url(#mask-4)"></path>
                <path d="M53.5499938,203.028856 C50.8757047,203.028856 48.7353114,203.60525 48.3505216,204.428671 C48.0980033,204.97116 48.5381067,205.995592 49.5626095,207.242832 C55.050674,213.934334 59.4228481,216.428814 60.8898592,216.431236 C61.1375676,216.421548 62.6791317,216.099446 69.006519,210.660027 L69.3864989,210.335502 C73.7490533,206.707608 73.6360213,205.152797 73.496535,204.762883 C73.1117452,203.687593 70.3412586,203.043387 67.8834138,203.043387 L54.1921118,203.043387 C54.1127489,203.040965 53.8963046,203.028856 53.5499938,203.028856 M60.8898592,218.853061 C57.9005234,218.853061 52.7251006,214.900642 47.7084037,208.785534 C45.996089,206.697921 45.4814327,204.886396 46.1764593,203.396974 C47.2538707,201.091396 50.7819122,200.607031 53.5499938,200.607031 C53.9876922,200.607031 54.2546401,200.621562 54.2546401,200.621562 L67.835315,200.621562 L67.83772,200.621562 C69.4562421,200.621562 74.6581192,200.861323 75.75958,203.944306 C76.5435892,206.143323 74.9587362,208.843658 70.9160384,212.205151 L70.5649177,212.503036 C64.0571602,218.097451 62.0225842,218.853061 60.8898592,218.853061" id="Fill-51" fill="#FFFFFF" mask="url(#mask-4)"></path>
            </g>
        </g>
    </g>
</svg>