<?xml version="1.0" encoding="UTF-8"?>
<svg width="230px" height="230px" viewBox="0 0 230 230" version="1.1" xmlns="http://www.w3.org/2000/svg" xmlns:xlink="http://www.w3.org/1999/xlink">
    <!-- Generator: Sketch 50.2 (55047) - http://www.bohemiancoding.com/sketch -->
    <title>Artboard 2 Copy 14</title>
    <desc>Created with Sketch.</desc>
    <defs></defs>
    <g id="Artboard-2-Copy-14" stroke="none" stroke-width="1" fill="none" fill-rule="evenodd">
        <g id="Candy_Crush_(Print_2)" transform="translate(25.000000, 39.000000)" fill="#FFFFFF">
            <path d="M78.5770849,111.507857 L87.8492138,111.522384 L87.8863835,115.695892 C90.1393688,115.207877 91.5721072,114.889528 93.8748317,114.755014 L93.887042,123.90642 C92.6198612,124.080212 88.9630472,124.770894 87.8492138,125.718228 C87.8657336,133.984894 87.7332157,142.36491 87.8574737,150.614717 C84.8095601,150.631217 81.6456483,150.625119 78.5979143,150.616869 L78.5770849,111.507857 Z M108.277633,80.5494699 C111.317287,76.5578247 115.05257,74.6862926 117.334465,75.0710014 C126.826021,76.6738651 113.769049,92.1187127 107.871819,95.3782454 C102.214846,91.7940866 92.5451627,81.1698465 97.4939373,76.1090874 C100.620679,72.9056917 106.517909,77.3810477 108.277633,80.5494699 Z M140.338905,111.666941 L140.338905,122.398613 C139.444678,121.542569 137.99937,120.630387 136.578842,120.260206 C134.756809,119.786539 133.568098,120.162998 133.054725,121.151583 C131.779105,123.612822 134.640811,126.305425 136.251856,128.075803 C138.430143,130.702404 140.219136,132.648547 141.26671,135.736261 C142.654199,139.959449 141.668574,144.75136 139.212861,147.421185 C137.005665,149.818217 133.518718,151.327997 129.874294,151.193484 C124.557234,151.270246 115.881256,152.206819 111.835148,148.111868 C111.528813,147.729311 111.180998,147.37563 110.982221,146.926893 C110.787574,146.935322 108.543028,151.960749 102.865405,151.783012 C98.7779971,151.656928 96.2229857,148.103617 96.1482872,143.450345 L96.181686,111.5179 L104.733226,111.5179 L104.733226,142.72451 C106.273703,142.139106 109.197358,138.145668 109.197358,136.499401 L109.205618,111.51808 L117.765598,111.51808 L117.765598,141.082368 C117.765598,141.353547 117.856636,143.55401 120.329048,144.0379 C122.86754,144.430859 125.534419,144.042025 128.068961,143.75865 C130.027641,143.35762 131.613906,143.043217 132.371665,141.37202 C133.700975,138.424918 130.238987,135.37433 128.528823,133.37223 C124.81401,129.407667 122.499075,125.05409 124.047812,118.837232 C125.186784,114.731878 129.124975,111.71447 132.549792,111.03401 C134.938887,110.548147 137.854282,110.796549 140.338905,111.666941 Z M153.292807,114.481862 C154.833284,112.357803 156.498198,111.102522 158.638956,110.941286 C162.689194,110.868828 165.198596,114.446709 165.687369,118.113549 C165.786847,127.333288 165.687369,135.093107 165.716278,145.611709 C165.948275,147.30371 167.517841,148.219658 168.772632,147.870281 C171.754286,147.169196 171.224214,143.115496 179.564767,142.124938 C178.090549,148.422504 176.09847,151.69226 167.605109,151.983885 C164.089252,152.112122 160.030754,151.456592 157.541822,150.672647 C157.492083,142.801093 157.487953,126.925981 157.521172,119.51787 C155.645271,120.630387 154.129394,122.489724 153.048601,125.292089 L153.023821,150.610412 L144.045638,150.62494 L144.041687,99.4235167 C147.735491,97.3267192 150.381901,95.6843983 153.305556,93.7795068 L153.292807,114.481862 Z M113.367186,98.6315008 L113.359105,98.5592222 C122.362068,99.2707093 132.08562,96.1146623 139.142293,91.8396418 C145.631544,87.6971621 149.573864,83.8626287 151.536675,79.780411 C153.391926,75.9356546 154.025606,70.4756593 154.038176,64.3622868 C152.559828,65.8410392 150.969612,66.9411809 149.006623,66.7964443 C145.283729,66.5234714 141.718133,63.5989671 141.726393,58.573361 L141.709873,27.5179451 L150.944833,27.4144593 L150.986132,56.9312194 C152.646737,55.2788547 154.104255,54.1763815 154.104255,51.0988905 L154.067086,27.4411827 L163.426123,27.4804606 L163.372434,64.7073589 C163.372434,74.7503211 158.469089,87.3205241 150.464141,93.4651038 C137.833453,103.063454 124.030753,106.761321 108.782925,102.897912 C90.4040456,108.287602 85.4430607,100.821561 70.5015682,94.6088278 C64.7038166,92.1992414 58.2310852,92.2634493 51.5762763,96.2425399 C44.5858629,100.724173 40.5440643,109.633814 41.0328366,119.254941 C41.5420792,126.934052 45.6709661,133.502439 51.9862201,137.59739 C58.3637828,141.710995 67.7021707,142.412259 75.2639557,138.643906 L75.2600053,149.6403 C65.4536745,152.955611 55.1214017,151.55129 46.855368,146.529809 C37.3677627,140.767965 31.2512856,130.857364 30.7129537,119.786539 C30.0462339,106.016834 36.1379312,93.4338966 46.5364629,87.4487604 C53.6346146,83.3620589 60.9976226,83.1737399 67.6276518,84.6194917 C74.0921232,86.0300906 79.931354,89.4838609 86.6565519,93.5043817 C91.8953218,97.3450131 97.6639841,99.1462394 102.815486,98.1307516 C97.6557242,94.9189264 91.1456435,87.4839132 90.0689798,81.2900119 C87.7831344,68.1363787 103.83433,65.1623735 108.373341,74.2458055 C116.93727,63.2515634 130.09803,69.0774356 126.16379,83.3064599 C124.24623,89.2896233 117.984665,96.3090792 113.367186,98.6315008 Z M44.3955254,1.76092883 L44.4244351,12.7284476 C38.6970725,9.89290159 32.2327806,9.60755348 27.354395,10.9187917 C17.2250291,13.6445746 9.52138882,23.1457161 9.98609958,34.6819582 C10.6736489,47.4528555 20.6496673,56.368594 32.5475557,57.0262756 C36.419487,57.2393451 40.341337,56.4575523 44.3168765,54.7390069 L47.580087,63.4004251 C43.7246755,66.4675138 35.7112879,67.662891 29.0149997,66.8192219 C20.6042377,65.8141365 13.2907893,61.4273801 8.05112154,55.3263829 C2.83318103,49.3905682 0.108302433,42.1232487 0.00271899816,33.7265532 C-0.156733535,21.2390312 6.71355181,10.5920134 16.2474845,4.77026631 C24.5217782,-0.280269693 34.2329403,-1.38256353 44.3955254,1.76092883 Z M73.7649582,38.2784923 L73.7315594,56.7574278 C74.7794929,59.7231829 77.2517255,59.2536409 78.9785892,58.3602915 L78.9951091,27.4268345 C82.0223729,27.4331118 85.2484137,27.3977796 88.2756775,27.4350847 L88.2923769,30.1940476 C90.0318101,27.8156684 92.3839146,26.5541105 95.0840134,26.5975136 C98.8316866,26.8414315 100.678499,30.9014096 100.678499,35.2155287 L100.691068,65.4644013 L92.0937397,67.7310445 L92.118699,38.5369377 C92.0441801,37.4635194 92.1558687,36.3881283 92.0897893,35.3416127 C90.0522804,36.7706849 87.5883078,39.6474816 87.5883078,42.1148191 L87.6173971,66.568668 C83.1945645,66.5645429 79.4343218,66.6741266 76.1833217,66.5107374 C74.3363298,66.4176541 72.9244207,66.2377646 71.1558982,65.7599724 C70.2200124,65.5573053 69.3958152,65.1829989 68.518108,64.5832477 C65.7352303,66.5439175 62.5713186,67.3960161 59.5027551,67.1662669 C53.4936571,66.7153774 47.7953838,62.0517024 47.2281422,54.8835642 C46.9465863,50.9954047 48.491193,47.2623843 51.3403296,44.5489766 C53.5642256,42.4333473 56.6864786,40.9958456 59.8051403,40.9669701 C61.7347315,40.9483175 62.8613139,41.2689978 64.5301786,42.3940693 L64.5382589,38.2867424 C64.4472202,36.6652262 63.092951,35.7697246 61.8589895,35.8174321 C60.4634207,35.8732104 59.5108355,37.0809628 59.453016,38.4460065 L50.4997921,35.968446 C51.9863997,29.1496843 58.1486655,25.9895123 63.4326855,26.612041 C68.5800574,27.2200424 73.7649582,31.6044672 73.7649582,38.2784923 Z M57.0468629,56.8463861 C58.8234658,59.0323213 62.4346706,58.8669592 64.004057,56.5526085 C65.8510489,54.1369242 64.5217391,50.7161546 61.8381601,49.8642353 C59.6598733,49.0906927 57.4442373,50.1807906 56.5372612,51.8559329 C55.7423329,53.3264352 55.6884638,55.2497998 57.0468629,56.8463861 Z M137.684415,4.83214256 L137.635035,56.6788719 C137.821243,57.4936654 138.765389,57.9135271 140.355604,57.94868 L141.465487,67.0796402 C138.715829,67.2389042 134.582812,66.3868056 132.321746,64.5875522 C126.938248,68.6660035 118.063673,67.5160022 112.431479,64.0166766 C106.998062,60.6455873 103.113562,54.9499242 103.183951,47.1052724 C103.163301,39.3000779 107.039542,32.7356366 114.183123,28.5890317 C118.137833,26.3243614 123.939715,25.5839987 128.408156,26.8062786 C128.420726,21.838603 128.428806,17.0508168 128.404206,12.085114 L137.684415,4.83214256 Z M128.453766,57.1835668 L128.453766,36.3922534 C120.452947,33.1556776 112.820773,39.1139112 112.423219,46.416563 C112.091924,54.7678825 120.91676,61.2101856 128.453766,57.1835668 Z" id="Shape"></path>
        </g>
    </g>
</svg>