<?xml version="1.0" encoding="UTF-8"?>
<svg width="230px" height="230px" viewBox="0 0 230 230" version="1.1" xmlns="http://www.w3.org/2000/svg" xmlns:xlink="http://www.w3.org/1999/xlink">
    <!-- Generator: Sketch 50.2 (55047) - http://www.bohemiancoding.com/sketch -->
    <title>Artboard 2 Copy 3</title>
    <desc>Created with Sketch.</desc>
    <defs>
        <polygon id="path-1" points="0 0.232061345 215.740827 0.232061345 215.740827 140.729857 0 140.729857"></polygon>
    </defs>
    <g id="Artboard-2-Copy-3" stroke="none" stroke-width="1" fill="none" fill-rule="evenodd">
        <g id="Group" transform="translate(7.000000, 45.000000)">
            <g id="Group-3" transform="translate(0.000000, 0.038086)">
                <mask id="mask-2" fill="white">
                    <use xlink:href="#path-1"></use>
                </mask>
                <g id="Clip-2"></g>
                <path d="M46.060018,65.687281 C45.8275685,66.1670052 45.5155685,66.5457063 45.599164,66.6834649 C46.0290067,67.3914362 46.5602427,68.0378213 47.0564225,68.7055454 L47.4423101,68.448396 C47.0599281,67.6845109 46.6772764,66.9203557 46.060018,65.687281 Z M134.89804,29.8054822 C135.438445,29.1528845 135.841861,28.6655971 136.245276,28.1785799 C136.164108,28.056758 136.08267,27.9346661 136.001501,27.8128443 C135.372917,28.080258 134.744063,28.3476718 134.016243,28.6569534 C134.33067,29.0664477 134.563389,29.3695167 134.89804,29.8054822 Z M67.0163326,40.4839362 C67.6190292,41.094396 68.116018,41.5976201 68.7971865,42.2877638 C68.7284225,41.5487293 68.6798831,41.0268672 68.6291865,40.4839362 L67.0163326,40.4839362 Z M139.142535,50.3831086 C140.318804,50.4673845 141.050939,50.5200569 141.917366,50.5821833 C141.741546,49.9387695 141.607793,49.4493213 141.401231,48.6938098 C140.614355,49.2823902 140.04213,49.7102523 139.142535,50.3831086 Z M144.681951,50.9803328 C144.759613,50.8747178 144.837546,50.7691029 144.915209,50.6632178 C144.381276,50.1578328 143.847074,49.6521776 143.312872,49.1465224 C142.977951,49.5922121 142.643029,50.0379017 142.209411,50.6151374 C143.214715,50.7637006 143.948198,50.8720167 144.681951,50.9803328 Z M127.206445,32.4966374 C127.059479,32.4210052 126.912512,32.345373 126.765546,32.2697408 C126.396917,32.85535 125.805007,33.412327 125.725187,34.034942 C125.65049,34.6143385 126.121591,35.2639649 126.352422,35.8825282 C126.449771,35.8349879 126.547119,35.7874477 126.644467,35.7396374 C126.831883,34.6586374 127.019299,33.5776374 127.206445,32.4966374 Z M45.7283326,69.306281 C45.1509843,68.591827 44.6637034,67.9886603 44.1384,67.3382236 C43.5556584,67.7182753 43.0945348,68.0186431 42.6412315,68.3146891 C43.0419506,69.0229305 43.367164,69.5974649 43.7277034,70.234396 C44.4121079,69.9167408 45.0013213,69.6433845 45.7283326,69.306281 Z M137.923928,27.3333902 C135.652288,28.9149132 135.293097,30.679304 136.817231,32.0504075 C137.175344,30.5234477 137.517546,29.0645569 137.923928,27.3333902 Z M132.064422,26.2226776 C133.406265,28.094304 135.811928,28.1861431 136.78676,26.2226776 L132.064422,26.2226776 Z M50.8886022,68.4486661 C53.6496809,67.4319534 56.2082427,66.4900626 58.4264899,65.6732351 C58.1891865,65.3034477 57.9357034,64.9088098 57.7420854,64.6070914 C57.5743551,64.9077293 57.4513888,65.445258 57.1822652,65.5330454 C56.809591,65.654327 56.3268944,65.4371546 55.8873438,65.3642236 C55.7225798,66.479258 55.2625348,66.6650971 54.1744449,65.8895971 C54.0568719,67.1745339 53.2964225,67.0335339 52.4361978,66.6105339 C52.4459056,67.6985569 51.8976809,67.8906086 50.5979056,67.1942523 C50.7033438,67.6496661 50.7858607,68.0056776 50.8886022,68.4486661 Z M41.424782,73.6572925 C43.2940854,73.0114477 47.8317034,69.9170109 47.7974562,69.2495569 C46.0370966,70.12635 44.3150292,70.9839649 42.4902202,71.8926316 C42.4999281,72.7486259 41.9643775,73.0176603 40.684018,72.2986144 C40.9892764,72.8585626 41.2090517,73.2621144 41.424782,73.6572925 Z M146.763209,129.884959 L159.321951,129.884959 L159.321951,83.0197466 L146.763209,83.0197466 L146.763209,129.884959 Z M94.7716584,93.6476891 L94.7716584,128.26562 L107.127344,128.26562 L107.127344,95.7626891 L113.874849,95.7626891 L113.874849,83.7228557 C105.335164,83.0400052 96.8653213,82.3630971 88.3024449,81.6786259 L88.3024449,93.6476891 L94.7716584,93.6476891 Z M179.886175,131.405706 L179.886175,95.9825626 L186.781456,95.9825626 L186.781456,83.9559649 C178.080782,84.4175914 169.492288,84.8732753 160.883029,85.3303098 L160.883029,97.4049879 L167.531569,97.4049879 L167.531569,131.405706 L179.886175,131.405706 Z M28.1659955,78.0993328 L5.14406292,78.0993328 L5.14406292,135.096557 C9.31466966,134.315925 13.3817258,133.554741 17.5970966,132.765735 L17.5970966,111.715948 L25.6416809,111.715948 L25.6416809,99.6666603 L17.6237933,99.6666603 L17.6237933,90.4462868 L27.0374562,90.4462868 C27.4184899,86.2770626 27.7887371,82.2258787 28.1659955,78.0993328 Z M209.531838,78.952896 C209.341456,78.905896 209.256243,78.8610569 209.174804,78.8678098 C202.604198,79.4002063 196.03467,79.9488098 189.462175,80.4587868 C188.53049,80.5309075 188.302355,80.9206833 188.303973,81.8163845 C188.329591,98.192373 188.333906,114.568632 188.29858,130.94489 C188.296153,132.052902 188.685546,132.267643 189.693007,132.327339 C194.214715,132.596373 198.73049,132.963459 203.249231,133.283816 C205.331569,133.431298 207.415793,133.55339 209.48249,133.685747 L209.48249,120.929028 L200.765366,120.929028 L200.765366,111.443942 L208.137411,111.443942 L208.137411,100.428655 L200.653726,100.428655 L200.653726,92.7328098 L209.531838,92.7328098 L209.531838,78.952896 Z M57.7399281,105.262632 C57.6094112,100.386517 57.3707596,95.325373 55.5777708,90.4822121 C53.5024449,84.8754362 49.1902652,81.6481029 43.559164,81.5133155 C36.5932315,81.3466546 32.3034337,83.9721718 29.8268494,89.9382006 C28.469636,93.2076718 27.9472989,96.6516374 27.6989393,100.15854 C27.2939056,105.875252 27.3238382,111.572517 28.6171416,117.186316 C29.4978607,121.008712 30.9211416,124.605833 34.1837933,127.06766 C41.6103101,132.671735 52.2344899,129.428465 55.5413663,120.578689 C57.3624,115.705275 57.6598382,110.601994 57.7399281,105.262632 Z M88.8134562,129.311235 C87.004018,123.746057 85.3267146,118.361856 83.4787146,113.03681 C82.8989393,111.366419 82.6298157,110.073379 84.2796135,108.864614 C84.9645573,108.362741 85.4186697,107.477844 85.8404225,106.69316 C88.2614562,102.185752 88.5365124,97.4479362 87.1401978,92.5942408 C85.0257708,85.2436029 80.1308494,81.5867868 72.5433438,81.5929994 C68.4989393,81.5959707 64.4545348,81.5827351 60.4101303,81.5857063 C60.0708944,81.5859764 59.7316584,81.6535052 59.4107596,81.6878098 L59.4107596,128.520609 L71.1667146,128.520609 C71.3422652,123.883816 71.5135011,119.355339 71.6847371,114.826861 C71.764018,114.826321 71.8430292,114.825781 71.9223101,114.825511 C73.4335011,120.006045 74.9446921,125.18631 76.4566921,130.369545 C80.6092315,130.013804 84.625591,129.669948 88.8134562,129.311235 Z M126.002939,109.237103 C126.317366,109.860798 126.511254,110.190339 126.655793,110.540137 C129.120243,116.502655 131.590085,122.463011 134.023524,128.438494 C134.320153,129.166724 134.651838,129.479517 135.491838,129.387678 C137.807973,129.13431 140.133007,128.874729 142.458849,128.827999 C143.83413,128.800448 144.160962,128.346925 144.147479,127.023361 C144.012917,113.794752 143.940647,100.565333 143.856243,87.3361833 C143.84222,85.1536546 143.854355,82.9711259 143.854355,80.7939994 L132.2904,80.7939994 C132.841591,88.0387523 133.385231,95.1873443 133.929142,102.336206 C133.875748,102.356735 133.822355,102.377534 133.769231,102.398063 C130.929411,95.3626489 128.089591,88.3272351 125.233591,81.2518443 C121.912692,81.9249707 118.687524,82.5786489 115.488243,83.2271948 L115.488243,127.65516 L126.669816,127.65516 C126.449771,121.576224 126.232422,115.578861 126.002939,109.237103 Z M0.819478652,140.67227 C-0.107622472,140.921586 0.00401797753,140.315988 0.00428764045,139.726867 C0.0121078652,122.124287 0.0104898876,104.521976 0.0104898876,86.919396 L0.0104898876,74.2239937 C11.0453663,73.9433443 22.079973,73.6624247 33.2437483,73.3785339 C33.0919281,75.4200626 32.9541303,77.2730511 32.7920629,79.4536891 C35.0286472,78.1806374 37.0155236,77.049396 39.2877034,75.7558155 C38.3166472,74.8487695 37.6500404,74.2261546 36.8914787,73.5176431 C37.2083326,72.706758 36.6681978,72.2305454 35.6095011,72.1419477 C35.7812764,71.4574764 35.9290517,70.8699764 36.0854562,70.2473615 C36.5457708,70.4075397 36.9249169,70.5396259 37.6780854,70.8019075 C37.0802427,69.5691029 36.6441978,68.6698902 36.2785348,67.9157293 C35.5056809,68.1158845 34.8940854,68.2741718 34.2824899,68.4324592 C34.2398831,68.3030741 34.1972764,68.1736891 34.1549393,68.0440339 C33.8356584,68.3916718 33.5166472,68.7390397 33.1059506,69.1858098 C32.9983551,68.7066259 32.927164,68.389781 32.8516584,68.0542983 C32.4207371,68.2574247 32.0634337,68.4257063 31.4566921,68.7114879 C31.6503101,67.8865569 31.7945798,67.273396 31.9504449,66.6102638 C31.5634787,66.6618557 31.1708494,66.7145282 30.5374112,66.7996144 C30.9675236,65.9090454 31.2889618,65.2434822 31.6737708,64.4461029 C31.2614562,64.6667868 30.9497258,64.8334477 30.4637933,65.0938385 C30.7914337,64.3099649 31.0414112,63.7130109 31.3307596,63.0212466 C30.8345798,63.1673787 30.4476135,63.2813672 29.9066697,63.4407351 C30.2739506,62.2854534 30.5897258,61.292781 30.9718382,60.0913098 C30.4077034,60.3317121 30.0862652,60.4683902 29.6421303,60.6577408 C29.9403775,59.7690626 30.1760629,59.0667638 30.4783551,58.1656603 C29.999164,58.4225397 29.7165573,58.5743443 29.3074787,58.7936776 C29.4371865,57.8115397 29.5466697,56.9806661 29.6615461,56.1103557 C29.3881079,56.21435 29.2006921,56.2856603 28.7589843,56.4534017 C29.1704899,54.541258 29.5401978,52.8227868 29.9058607,51.1224132 C31.1374112,52.1591144 32.1874787,53.0434707 33.2062652,53.9013557 C33.1188944,53.9580799 32.9152989,54.089896 32.6022202,54.2927523 C33.4470742,54.6517351 34.1732764,54.9604764 34.8997483,55.2692178 C34.876018,55.3432293 34.8522876,55.4172408 34.8285573,55.4915224 C34.4844674,55.5396029 34.1403775,55.5876833 33.5538607,55.6697983 C34.631164,56.4420569 35.543973,57.0960052 36.6784449,57.9093213 C35.927973,57.9798213 35.4781753,58.0219592 35.0283775,58.0640971 C35.0108494,58.1489132 34.9930517,58.2334592 34.9752539,58.3182753 C36.0433888,58.6937351 37.1115236,59.0691948 38.3010067,59.4870626 C37.8104899,59.7928328 37.4135461,60.040258 36.8599281,60.3851948 C37.6724225,60.6012868 38.3258157,60.7755109 39.1108045,60.9843098 C38.6453663,61.4005569 38.303973,61.7060569 37.9024449,62.0653098 C38.4579506,62.2751891 38.9473888,62.4602178 39.6498607,62.7257408 C39.1148494,62.8429707 38.7979955,62.9123902 38.2532764,63.0315109 C38.8670292,63.2991948 39.2666697,63.4736891 39.7693213,63.6932925 C39.2210966,63.9960914 38.8222652,64.2165052 38.423164,64.436919 C38.4439281,64.5152523 38.4646921,64.5935856 38.4854562,64.671919 L40.0705348,64.671919 C39.9618607,64.7734822 39.8531865,64.8750454 39.7445124,64.9768787 C39.9742652,65.3912351 40.204018,65.8055914 40.4990292,66.3379879 C39.6021303,66.5484075 38.6539955,66.7709822 37.584782,67.021919 C38.063164,67.8503615 38.4792539,68.5712983 38.9994337,69.4724017 C39.0792539,68.8068385 39.1318382,68.3668213 39.1989843,67.8066029 C39.8313438,68.1180454 40.3396584,68.368442 40.801591,68.5961489 C40.8576809,67.8130856 40.9054112,67.1415799 40.9701303,66.2353443 C41.5865798,66.8023155 42.0005124,67.1834477 42.6762876,67.8052523 C43.0872539,67.0278615 43.4289169,66.3817466 43.8250517,65.6324477 C45.5592539,65.616781 45.5592539,65.616781 46.2978607,64.270258 C46.7161079,64.441781 47.1332764,64.6143845 47.8527371,64.9120511 C47.3851416,63.2975741 47.0186697,62.0337063 46.5823551,60.5272753 C45.7350742,62.1960454 44.8527371,61.4202753 44.0720629,60.8373672 C43.6098607,61.3616603 43.2067146,61.8189649 42.6404225,62.460758 C42.7167371,61.8340914 42.7612315,61.4678155 42.8084225,61.07885 C42.0851865,61.142327 41.4595685,61.1974305 40.7490067,61.259827 C41.0213663,60.122373 41.2532764,59.1545511 41.4822202,58.1991546 C41.0124674,58.5259937 40.5472989,58.8495914 39.8281079,59.3495741 C39.9810067,58.4590052 40.0716135,57.9306603 40.1757034,57.3239822 C39.7822652,57.4744362 39.5206921,57.5746489 39.1925124,57.7002523 C39.5713888,56.8021201 39.9073888,56.0058213 40.2924674,55.0925626 C39.7148494,55.0666316 39.3268045,55.0493443 38.8548944,55.0280052 C39.1013663,54.4807523 39.3144,54.0075109 39.5293213,53.5299477 C39.1757933,53.408396 38.8761978,53.3052121 38.6731416,53.2352523 C39.1620404,52.5175569 39.604827,51.8679305 40.1627596,51.048942 C39.121591,51.3952293 38.4075236,51.6326603 37.4065348,51.9657121 C38.0979506,51.0265224 38.5401978,50.4260569 39.1426247,49.6081489 C38.3347146,49.6905339 37.9445124,49.7305109 37.5861303,49.7669764 C38.2778157,48.8580397 38.9123326,48.0241948 39.5471191,47.19035 C39.4691865,47.1533443 39.3912539,47.1160684 39.3133213,47.0787925 C38.7467596,47.3286489 38.1804674,47.5785052 37.5489169,47.8569937 C37.9747146,46.5318098 38.3322876,45.4181259 38.7812764,44.020281 C38.0785348,44.4157293 37.7223101,44.6164247 37.2884225,44.8603385 C37.656782,43.8692868 38.4355685,42.8285339 38.1845124,42.2015971 C37.8077933,41.2610569 38.3530517,40.560919 38.2648719,39.7195109 C37.9768719,39.8715856 37.7438831,39.994758 37.3704,40.191942 C37.8808719,38.1088155 38.3473888,36.2050454 38.8540854,34.1373155 C40.8150742,35.8077063 42.647164,37.3684305 44.7470292,39.1571316 C43.8617258,39.0374707 43.3318382,38.9658902 42.8016809,38.8943098 C42.7412764,39.033419 42.6811416,39.172258 42.6207371,39.3113672 C43.9550292,39.9909764 45.2893213,40.6703155 46.8533663,41.4668845 C45.959973,41.6548845 45.2682876,41.8004764 44.5766022,41.9460684 C44.5372315,42.048442 44.4978607,42.1510856 44.4584899,42.2534592 C45.9038831,42.9444132 47.3492764,43.6353672 49.0664899,44.4559764 C48.0544449,44.7576948 47.2802427,44.9881029 46.0735011,45.3473557 C47.3538607,45.9880684 48.3629393,46.4929132 49.3617708,46.992896 C48.845636,47.2854305 48.1763326,47.664942 47.1464899,48.2486603 C48.7337258,48.4850109 49.9272539,48.6630167 51.1210517,48.8410224 C51.1410067,48.9374534 51.1612315,49.0341546 51.1811865,49.1305856 C50.256782,49.4536431 49.3323775,49.7767006 48.1652764,50.1845741 C49.7225798,50.6902293 51.1606921,51.157258 52.5988045,51.6240167 C52.6252315,51.7290914 52.6516584,51.8344362 52.6783551,51.9395109 C52.0497708,52.2315052 51.4214562,52.5232293 50.6062652,52.9019305 C51.4276584,53.248758 52.1595236,53.5574994 53.2284674,54.0083213 C52.0325124,54.1390569 51.1722876,54.2330569 50.1402876,54.3459649 C50.7303101,54.8621546 51.2321528,55.3010914 51.8397034,55.8326776 C51.2566921,55.9474764 50.8586697,56.0258098 50.4603775,56.1044132 C50.449591,56.2021948 50.4390742,56.2999764 50.4282876,56.397758 C51.3230292,56.667873 52.2177708,56.9377178 53.3538607,57.2807638 C52.4326921,57.5970684 51.7609618,57.8277466 50.9786697,58.0962408 C51.6822202,58.5330167 52.2393438,58.8787638 52.7961978,59.224781 C52.7794787,59.3082466 52.7627596,59.3919822 52.7457708,59.4754477 L49.8080629,59.4754477 L49.9091865,59.7153098 C49.3089169,59.9675971 48.7086472,60.2196144 48.0115685,60.512419 C48.4362876,61.6298845 48.8823101,62.8043443 49.3941303,64.1514075 C49.7171865,63.3775282 49.9385798,62.8478328 50.2066247,62.2054994 C50.7235685,62.6798213 51.0617258,62.9904534 51.5468494,63.4353328 C51.6641528,62.6836029 51.7526022,62.1155511 51.8736809,61.33735 C52.4704449,61.8189649 52.897591,62.1639017 53.2610966,62.4572466 C53.4622652,61.9359247 53.6593888,61.4248672 53.9109843,60.7728098 C54.3683326,61.2079649 54.6738607,61.4988787 54.9853213,61.7949247 C55.1128719,61.2125569 55.2366472,60.6466661 55.3606921,60.0807753 C55.5036135,60.0046029 55.6465348,59.9284305 55.7897258,59.852258 C56.1181753,60.3476489 56.4468944,60.8430397 56.8389843,61.4343213 C57.1116135,60.7417466 57.2982202,60.2682351 57.5212315,59.7009937 C57.9712989,60.0489017 58.3172764,60.3163155 58.5882876,60.5259247 C58.9283326,60.0853672 59.236827,59.685327 59.5361528,59.297442 C60.8987596,60.1466833 61.4008719,59.7979649 63.4732315,56.7340511 C62.9643775,56.9093557 62.4539056,57.08385 61.752782,57.3237121 C61.8948944,56.7983385 61.9660854,56.5347063 62.0375461,56.270804 C61.8892315,56.2929534 61.7409169,56.3151029 61.5926022,56.3372523 C61.5208719,56.0325626 61.4491416,55.727873 61.2830292,55.0215224 C60.0913888,56.193281 59.0486022,57.2189075 57.673591,58.5708328 C57.7412764,57.826396 57.6226247,57.2810339 57.8418607,57.0076776 C59.8640629,54.4864247 61.9685124,52.0310799 63.9934112,49.5119879 C64.5561978,48.8115799 65.0429393,48.6349247 65.543164,49.0600856 C64.5259955,50.9454879 63.5430742,52.7671431 62.5598831,54.5890684 C62.6332315,54.6274247 62.7068494,54.665781 62.7804674,54.7041374 C63.3699506,54.2589879 63.9597034,53.8138385 64.5491865,53.3689592 C64.6449169,53.4680914 64.7406472,53.5674937 64.8361079,53.666896 C64.3628494,54.3537983 63.889591,55.0409707 63.3017258,55.894804 C64.2463551,55.5055684 64.9550292,55.2135741 66.0328719,54.7695052 C65.6364674,55.504758 65.447164,55.8561776 65.1580854,56.3920856 C66.2755685,55.9731374 67.2177708,55.640896 68.1435236,55.2667868 C69.0371865,54.9061833 69.0466247,54.1171776 68.6693663,53.4888902 C67.9188944,52.2396086 67.6794337,50.9703385 67.9674337,49.556827 C68.2357483,48.2389362 68.4849169,46.915373 68.6771865,45.585327 C68.7578157,45.0261891 68.8877933,44.3006603 68.6224449,43.8952178 C67.4968719,42.1732351 66.2577708,40.5079764 63.843209,40.3386144 C63.9718382,40.0242006 64.0478831,39.5874247 64.1721978,39.5733787 C65.5979056,39.4091489 67.031164,39.3094764 68.5396584,39.186304 L68.5396584,34.7132006 C69.1469393,35.1283672 69.5050517,35.3757925 69.8658607,35.6194362 C70.1255461,35.7944707 70.4032989,36.1204994 70.6465348,36.0972695 C70.9442427,36.0691776 71.332827,35.8090569 71.4733213,35.5397523 C71.8605573,34.7980167 72.5716584,34.7907236 72.7641978,35.3425684 C73.1616809,36.4816431 73.9005573,36.0445971 74.5895461,36.1107753 C75.7992539,31.9631603 73.9677034,28.1115914 73.7455011,24.2629937 C76.0505798,23.095827 76.9898157,20.6818098 78.8556135,19.1137925 C79.755209,20.1953328 80.4830292,21.467304 81.5584449,22.275758 C83.3953888,23.6563155 83.4838382,25.4647351 83.3632989,27.4263098 C83.3430742,27.7555799 83.2894112,28.148327 83.0982202,28.3906201 C82.1961978,29.5329362 82.2886921,30.4197236 83.5612315,30.9739994 C84.4106697,31.3437868 84.6687371,31.8575454 84.6115685,32.7383902 C84.5398382,33.8439707 84.5943101,34.9579247 84.5943101,36.4854247 C85.6775461,35.8174305 86.399164,35.3725511 87.4104,34.749396 L87.4104,45.6271948 L87.4104,50.7736948 C87.5851416,50.7799075 87.7601528,50.7861201 87.935164,50.7926029 C88.2935461,49.1376086 88.8563326,47.4966603 88.972827,45.8246489 C89.3417258,40.5293155 89.6944449,35.2237178 89.7432539,29.9192006 C89.765636,27.5030224 90.1814562,25.6003328 92.4361079,24.4747638 C94.300018,23.5444879 94.2811416,21.930281 94.0921079,20.2272063 C94.0672989,20.0046316 94.0233438,19.7807063 93.9570067,19.5670454 C93.2809618,17.3926201 93.6131865,15.5644822 95.6121978,14.1831144 C96.2653213,13.7317523 96.8367371,13.1004937 97.2981303,12.4468155 C98.0518382,11.3793213 98.8756584,11.3968787 99.9273438,11.9381891 C100.73067,12.3514649 101.609501,12.6169879 102.613996,13.0108155 C102.557906,12.3738845 102.587569,11.9630397 102.477816,11.5935224 C102.054175,10.1665052 102.568962,9.41045345 104.019209,9.40478103 C104.904782,9.40153966 105.790355,9.4042408 106.553231,9.4042408 C106.837456,8.07149368 107.208512,6.92593621 107.295613,5.75903966 C107.384333,4.56837299 107.19422,3.35663736 107.127883,2.18460862 C107.599793,2.03847644 108.021546,1.92124655 108.43413,1.77781552 C109.728782,1.32699368 110.989996,0.725987931 112.319164,0.439395977 C114.864243,-0.108937356 115.38658,0.349987931 115.455613,2.78966609 C118.588018,3.94359713 121.767883,3.46873506 125.0184,3.0157523 C122.803658,5.15020057 118.847164,6.50887874 115.173007,6.44189023 C112.633052,6.39543046 112.591524,6.34870057 112.99467,4.01571782 C113.001681,3.97493046 112.976602,3.9287408 112.942085,3.77639598 C111.198984,3.66240747 109.89867,4.58728103 108.776602,5.74796494 C108.44276,6.09344195 108.29822,6.82437299 108.376422,7.33083851 C108.622355,8.92532701 109.015254,10.497396 109.33076,11.9816776 C109.180827,12.179942 108.812198,12.4497868 108.761501,12.769873 C108.485636,14.5167063 108.60213,16.1052523 110.830625,16.353758 C110.787209,16.6835684 110.783164,16.8180856 110.750804,16.9453098 C109.773007,20.7995799 109.912153,24.4585569 112.502535,27.746396 C113.25058,28.69585 113.877276,29.743896 114.526894,30.7676316 C114.737231,31.0987925 114.977501,31.4961316 114.977501,31.8632178 C114.976692,36.4892063 114.980467,41.1162753 114.880692,45.7406431 C114.840243,47.6217236 114.399613,49.4987523 114.416872,51.3752408 C114.437097,53.591804 114.675209,55.8321374 116.520512,57.5697868 C116.714939,55.3780741 116.789366,53.1971661 116.677187,51.0259822 C116.63431,50.1945684 116.165636,49.385304 115.891119,48.5657753 C116.472243,46.2395454 118.349097,44.1323787 117.829456,41.2864477 C120.09867,41.2702408 119.607883,38.9721029 120.832422,38.1158385 C121.999254,38.8211086 123.144243,39.6352351 124.398445,40.2105799 C124.904602,40.4428787 125.772108,40.3467178 126.25022,40.043919 C126.700827,39.7586776 126.167164,37.0567178 125.717097,36.582396 C124.080782,34.8582523 124.241231,33.1111489 126.163658,31.6919649 C126.337052,31.5636603 126.498849,31.4191489 126.648243,31.2967868 C125.502175,27.8374247 125.009501,24.4393787 126.471344,20.722327 C127.487703,21.4810799 128.447703,21.9270397 129.012647,22.672827 C130.416512,24.5258155 132.292827,25.1570741 134.469816,25.267281 C134.96276,25.2924017 135.49049,25.2472925 135.938939,25.4096316 C136.86604,25.7451144 137.48249,25.539827 137.750804,24.5190626 C138.599164,25.3204937 139.349097,26.0287351 140.155928,26.7907293 C138.503973,27.3404132 138.507479,27.3409534 138.35404,28.86035 C138.313591,29.2612006 138.275838,29.6666431 138.183883,30.0577695 C137.707119,32.0857925 137.61058,34.0025282 139.207254,35.6907466 C139.742535,36.2566374 140.034849,37.0726546 140.365996,37.8073672 C140.716288,38.584758 140.557996,39.1571316 139.555658,39.1160741 C138.61858,39.0777178 137.670715,39.0674534 136.749816,38.9124075 C134.165636,38.4775224 131.882939,37.3314247 129.734804,35.7960914 C130.70667,36.9935109 129.937052,39.5895856 132.814625,39.2011603 C132.814625,40.5155397 132.782804,41.7234937 132.824872,42.9290167 C132.857501,43.8636144 132.921951,44.8055052 133.08267,45.7249764 C133.252557,46.6963098 134.473591,47.6538672 132.998265,48.6071029 C132.84267,48.7075856 132.928692,49.2054075 132.928153,49.5190109 C132.924378,51.0945914 132.909007,52.670442 132.935164,54.2454822 C132.976153,56.7200052 133.027658,59.1947983 133.127703,61.6674305 C133.141726,62.0077753 133.459928,62.3359649 133.665951,62.72385 C134.104422,60.6788098 134.62676,58.9317063 134.824153,57.1489477 C135.085187,54.7938155 135.091119,52.4103213 135.211389,49.9460626 C136.096422,50.0311489 136.940198,50.054919 137.760512,50.2059132 C138.715658,50.381758 139.267119,49.9755052 139.407074,49.1054649 C139.569142,48.1011776 139.629546,47.0733902 139.644647,46.0542466 C139.656243,45.2800971 139.456153,44.4378787 140.564198,44.3039017 C141.493456,44.191804 142.316467,44.9980971 142.383883,46.0450626 C142.417591,46.5728672 142.389816,47.1049937 142.389816,47.6141603 C144.78604,47.9923213 144.78604,47.9923213 145.207793,50.9684477 C145.77004,51.0511029 146.337411,51.1348385 147.021816,51.2353213 C146.749726,50.2750626 146.424512,49.345327 147.801951,49.1543557 C147.89876,49.14085 147.995029,48.872896 148.030625,48.7097466 C148.504153,46.5431546 148.086175,44.4624592 147.464872,42.3525914 C145.684557,42.4555052 143.96276,42.5551776 142.217771,42.6559305 C142.328333,40.8837063 144.449771,39.1501086 146.87404,38.6485052 C149.341996,38.1379879 152.331479,39.1827925 153.257771,41.0609017 C151.625771,41.4544592 150.042849,41.8361316 148.464243,42.2169937 C148.79404,45.3003557 149.121142,48.3572466 149.455793,51.4865282 C150.641231,51.6021374 151.976333,51.7585339 153.315748,51.8549649 C154.372557,51.9311374 154.918355,52.2895799 155.120333,53.4924017 C155.641321,56.592781 156.377231,59.6569649 157.075389,62.9631718 C157.781636,61.9580741 158.33849,61.1655569 158.895613,60.3730397 L159.059569,60.4883787 C158.823344,61.5680282 158.587119,62.6479477 158.304782,63.9385569 C159.739658,64.0557868 160.368512,62.7649075 161.6184,62.244396 C161.094715,63.2006029 160.699119,63.92235 160.303524,64.6443672 C160.439434,64.7305339 160.575344,64.8167006 160.710984,64.9031374 C162.007254,63.1603557 163.303254,61.4175741 164.599524,59.6747925 C164.656692,59.7074764 164.713861,59.7401603 164.771029,59.7728443 C164.055344,61.5021201 163.339658,63.231396 162.623703,64.9606718 C162.724827,65.029281 162.82622,65.0976201 162.927344,65.1662293 C163.468827,64.6519305 164.01031,64.1379017 164.661007,63.5201489 C164.687164,64.0933328 164.704962,64.4849994 164.716827,64.74485 C165.796288,66.0527466 166.854445,65.0514305 168.057142,65.0249592 C167.555569,65.3815109 167.054265,65.7377925 166.521681,66.1162236 C167.726535,67.0035511 168.741546,67.7506891 169.808602,68.5361833 C170.828467,67.7298902 171.863164,66.9117121 172.897591,66.0932638 C172.933726,66.1316201 172.97013,66.1697063 173.006265,66.2075224 C172.33022,67.2542178 171.654445,68.3009132 170.922849,69.4337753 C171.700557,69.6177236 172.25876,69.8086948 172.829636,69.8597466 C173.110355,69.8848672 173.58658,69.7290109 173.680153,69.5218328 C174.539838,67.6202236 175.335074,65.6897121 176.065052,63.9655684 C175.392243,63.3178328 174.872063,62.8170397 174.351883,62.3162466 C174.416872,62.2522293 174.48213,62.1882121 174.547389,62.1241948 C175.081591,62.4507638 175.616063,62.7773328 176.149996,63.1039017 C176.296153,63.0542006 176.44231,63.0044994 176.588467,62.9550684 C176.588467,62.2300799 176.611389,61.5040109 176.584153,60.7801029 C176.509996,58.8155569 176.329321,56.8504707 176.359793,54.8883557 C176.37867,53.6890454 176.436647,52.6898902 174.966175,52.3192925 C174.423074,52.1823443 173.961951,51.7180167 173.344962,51.3282408 C173.801231,51.2712466 174.116198,51.2318098 174.461097,51.1888615 C174.461097,50.6375569 174.532827,49.7294305 174.45031,49.7151144 C173.142175,49.4879477 173.920962,48.4082983 173.598175,47.7889247 C173.219838,48.0106891 172.832872,48.2375856 172.367703,48.5104017 C172.101816,47.8596948 171.893097,47.3483672 171.673861,46.8116489 C170.631613,47.7897351 170.622175,47.7883845 169.78649,46.6320224 C169.532467,47.1049937 169.271164,47.5914707 168.972647,48.1473672 C168.547928,47.8472695 168.249951,47.6365799 167.599793,47.1771144 C168.781456,49.1489534 166.703703,48.7078557 166.571299,49.6305684 C163.437546,47.4493902 164.264872,41.5719592 167.88267,39.2592351 C169.09049,38.4869764 170.254085,37.6458385 171.437906,36.8357638 C175.313771,34.1845856 179.685546,33.5425224 183.344872,36.3765684 C186.200872,38.5888098 188.360333,41.3664017 190.35422,44.2947178 C192.064153,46.8059764 192.140737,48.2921489 189.624512,51.4535741 C189.540917,51.558919 189.462715,51.6753385 189.357816,51.7547523 C189.263703,51.8260626 189.136422,51.8530741 188.997007,51.9108787 C188.836827,51.5562178 188.697681,51.2474764 188.503524,50.8174534 C188.21822,51.5062466 188.006265,52.0186546 187.636018,52.9135454 C187.392782,52.3562983 187.267928,52.0705167 187.180557,51.8698213 C186.797097,52.2174592 186.558715,52.4338213 186.176602,52.7801086 C186.086804,52.1572236 186.02667,51.7409764 185.948737,51.1996661 C185.34631,51.6666948 184.721231,52.0294592 184.543793,50.6999534 C184.021187,51.565942 183.846715,52.7660626 182.73813,51.6872236 C181.17004,53.4767351 180.733996,53.561281 180.229996,52.2396086 C179.813097,52.4716374 179.396198,52.7036661 178.864422,52.9997121 C178.681591,52.3371201 178.537591,51.8157983 178.384962,51.2626029 C176.893456,52.6607178 177.395569,58.7431661 179.021366,61.6785052 C179.963029,61.9310626 180.652018,62.0950224 181.327524,62.3022006 C182.268378,62.5906833 182.607344,62.2908557 182.351164,61.2201201 C182.038085,61.4416144 181.78676,61.61935 181.535164,61.7970856 C181.51413,61.6587868 181.492557,61.5202178 181.471524,61.381919 C181.196467,61.381919 180.909007,61.4340511 180.649591,61.3708443 C180.136962,61.245781 179.377052,61.2090454 179.180467,60.8687006 C178.105321,59.0081489 179.446355,55.9574707 181.525726,55.3480914 C184.251748,54.5488213 186.517726,55.1390224 188.359524,57.4320282 C190.168692,59.6842466 189.201681,62.6611833 186.531209,63.2881201 C186.05067,62.8075856 185.64267,62.3997121 185.13813,61.8948672 C184.798355,61.8475971 184.325097,63.0563615 183.82649,61.9018902 C183.821366,61.8897351 183.520692,61.9775224 183.379119,62.0569362 C182.37867,62.6168845 182.167793,65.1746029 183.055793,65.9157983 C184.013636,66.7156086 184.343164,68.2455397 183.793052,69.3389649 C183.196018,70.5253098 181.669456,70.6220109 180.936782,69.5196718 C180.246715,68.4816201 180.458939,66.6605052 181.492557,65.9941316 C182.59413,65.2839994 181.961231,64.29835 181.973636,63.468827 C181.977681,63.196281 180.995569,62.5928443 180.619389,62.6976489 C179.86676,62.907258 178.777052,63.374827 178.6104,63.959896 C177.97858,66.1788902 177.659838,68.4872925 177.163658,71.0782351 C180.793052,70.6336259 181.736602,73.2869649 183.073591,75.4667925 C183.097052,75.5046086 183.099748,75.5699764 183.131029,75.5861833 C183.552782,75.803896 183.981816,76.2020454 184.401681,76.1936718 C185.83467,76.1639592 187.264153,75.9854132 188.695524,75.8730454 C195.496962,75.338758 202.29813,74.8009592 209.100378,74.2793672 C211.27467,74.1127063 213.452467,73.9927753 215.740827,73.843942 L215.740827,140.67227 L214.931838,140.67227 C214.779748,140.592316 214.633861,140.457528 214.475029,140.439971 C210.242939,139.976724 206.015703,139.456752 201.775524,139.086155 C192.078715,138.237994 182.381097,137.385511 172.672962,136.684022 C164.70631,136.108407 156.727793,135.660017 148.747658,135.316971 C140.224422,134.950695 131.694175,134.601976 123.165276,134.554166 C109.557816,134.477453 95.9479281,134.570643 82.3412764,134.760264 C74.8015011,134.865339 67.2633438,135.247011 59.7305798,135.624361 C53.188018,135.952281 46.6521978,136.428224 40.1161079,136.879316 C35.0148944,137.231545 29.9128719,137.591609 24.820018,138.047563 C18.6598382,138.599137 12.5066697,139.236339 6.35484944,139.878132 C4.50226517,140.071264 2.6642427,140.403505 0.819478652,140.67227 Z" id="Fill-1" fill="#FEFEFE" mask="url(#mask-2)"></path>
            </g>
            <path d="M41.4246742,73.6954868 C41.2092135,73.3003086 40.9891685,72.8964868 40.6839101,72.3368086 C41.9642697,73.0558546 42.4998202,72.78655 42.4901124,71.9308259 C44.3149213,71.0221592 46.0369888,70.1642741 47.797618,69.2877511 C47.8315955,69.9552052 43.2942472,73.0493718 41.4246742,73.6954868" id="Fill-4" fill="#FEFEFE"></path>
            <path d="M50.8885483,68.4868063 C50.7860764,68.0438178 50.7032899,67.6878063 50.5978517,67.2321224 C51.897627,67.9287489 52.4458517,67.7366971 52.4361438,66.6486741 C53.2966382,67.0716741 54.0570876,67.2126741 54.1738517,65.9261167 C55.2624809,66.7029672 55.7225258,66.5173983 55.8872899,65.4023638 C56.3268404,65.4752948 56.8095371,65.6924672 57.1822112,65.5711856 C57.4513348,65.4833983 57.5743011,64.9458695 57.7420315,64.6452316 C57.9356494,64.94695 58.1891326,65.3415879 58.4267056,65.7113753 C56.2084584,66.5282029 53.649627,67.4700937 50.8885483,68.4868063" id="Fill-6" fill="#FEFEFE"></path>
            <path d="M132.064449,26.2608989 L136.786787,26.2608989 C135.811955,28.2240943 133.406292,28.1322552 132.064449,26.2608989" id="Fill-8" fill="#FEFEFE"></path>
            <path d="M137.92382,27.3714224 C137.517708,29.1028592 137.175506,30.5614799 136.817124,32.0884397 C135.292989,30.7176063 135.65218,28.9529454 137.92382,27.3714224" id="Fill-10" fill="#FEFEFE"></path>
            <path d="M45.7281978,69.3443672 C45.0011865,69.6817408 44.4122427,69.954827 43.7275685,70.2727523 C43.3670292,69.6355511 43.0418157,69.0610167 42.6410966,68.3527753 C43.0946697,68.0567293 43.5555236,67.7563615 44.1382652,67.3763098 C44.6638382,68.0267466 45.1511191,68.6299132 45.7281978,69.3443672" id="Fill-12" fill="#FEFEFE"></path>
            <path d="M127.20658,32.5345885 C127.019164,33.6155885 126.831748,34.6965885 126.644602,35.7778586 C126.547254,35.8253989 126.449636,35.8729391 126.352557,35.9207494 C126.121726,35.3019161 125.650625,34.6522897 125.725052,34.0731632 C125.805142,33.4502782 126.397052,32.8935713 126.765411,32.3079621 C126.912647,32.3833241 127.059613,32.4589563 127.20658,32.5345885" id="Fill-14" fill="#FEFEFE"></path>
            <path d="M144.68187,51.018473 C143.948387,50.9101569 143.214903,50.8018408 142.20933,50.6532776 C142.642948,50.076042 142.978139,49.6303523 143.313061,49.1843925 C143.846993,49.6903178 144.381196,50.195973 144.915398,50.701358 C144.837465,50.8072431 144.759802,50.912858 144.68187,51.018473" id="Fill-16" fill="#FEFEFE"></path>
            <path d="M139.142589,50.4212759 C140.042184,49.7484195 140.614409,49.3205575 141.401285,48.731977 C141.607847,49.4872184 141.7416,49.9766667 141.91742,50.6200805 C141.050993,50.557954 140.318858,50.5055517 139.142589,50.4212759" id="Fill-18" fill="#FEFEFE"></path>
            <path d="M67.0163056,40.5221034 L68.6291596,40.5221034 C68.6798562,41.0650345 68.7283955,41.5866264 68.7971596,42.325931 C68.115991,41.6357874 67.6190022,41.1325632 67.0163056,40.5221034" id="Fill-20" fill="#FEFEFE"></path>
            <path d="M134.898013,29.8435954 C134.563362,29.4076299 134.330643,29.1045609 134.016216,28.6950667 C134.744036,28.3857851 135.37289,28.1183713 136.001474,27.8509575 C136.082912,27.9727793 136.164081,28.0946011 136.245249,28.2166931 C135.841834,28.7037103 135.438418,29.1907276 134.898013,29.8435954" id="Fill-22" fill="#FEFEFE"></path>
            <path d="M46.060018,65.7253672 C46.6772764,66.958442 47.0599281,67.7225971 47.4423101,68.4864822 L47.0564225,68.7436316 C46.5602427,68.0759075 46.0290067,67.4295224 45.599164,66.7215511 C45.5155685,66.5837925 45.8275685,66.2050914 46.060018,65.7253672" id="Fill-24" fill="#FEFEFE"></path>
            <path d="M71.4746966,92.4335224 C73.6217528,92.3311489 74.7505618,94.6454937 74.9466067,96.8933902 C75.3548764,101.577994 74.1931685,104.754816 71.4746966,105.239132 L71.4746966,92.4335224 Z" id="Fill-26" fill="#FEFEFE"></path>
            <path d="M40.3585079,105.683903 C40.6567551,101.61084 40.903227,97.5329144 41.3025978,93.4698454 C41.3727101,92.7578224 42.0862382,92.1095466 42.5025978,91.431558 C42.9073618,92.1241328 43.589609,92.7867247 43.6683506,93.5146845 C43.9962607,96.5453741 44.3061034,99.595242 44.3168899,102.639167 C44.3330697,107.220857 44.1205753,111.804437 43.9399011,116.384506 C43.9034966,117.30992 43.6403056,118.244248 43.352036,119.132116 C43.2350022,119.491909 42.7706427,119.737983 42.4643056,120.03592 C42.1655191,119.723397 41.6776989,119.451661 41.6003056,119.091328 C41.2535191,117.47469 40.8619685,115.840225 40.7867326,114.198196 C40.6572944,111.370633 40.7511371,108.532805 40.7511371,105.699299 C40.6200809,105.694167 40.4892944,105.689035 40.3585079,105.683903" id="Fill-28" fill="#FEFEFE"></path>
        </g>
    </g>
</svg>