<?xml version="1.0" encoding="UTF-8" standalone="no"?>
<svg width="230px" height="230px" viewBox="0 0 230 230" version="1.1" xmlns="http://www.w3.org/2000/svg" xmlns:xlink="http://www.w3.org/1999/xlink">
    <!-- Generator: sketchtool 39.1 (31720) - http://www.bohemiancoding.com/sketch -->
    <title>19342D5D-4AF1-4F0C-A92A-AA4EA7866B36</title>
    <desc>Created with sketchtool.</desc>
    <defs>
        <polygon id="path-1" points="39 19.9580435 39 -6.9735575e-06 3.89433874e-05 -6.9735575e-06 3.89433874e-05 19.9580435 39 19.9580435"></polygon>
    </defs>
    <g id="Page-1" stroke="none" stroke-width="1" fill="none" fill-rule="evenodd">
        <g id="5" transform="translate(-1452.000000, -459.000000)">
            <g id="Group-2" transform="translate(184.000000, 405.000000)">
                <g id="Group-11" transform="translate(1225.000000, 54.000000)">
                    <g id="Group-19" transform="translate(0.000000, 34.000000)">
                        <g id="Group-8" fill="#FFFFFF">
                            <g id="Page-1" transform="translate(74.000000, 0.000000)">
                                <path d="M166.114286,138.9575 L87.1285714,156.8875 L87.1285714,39.935 L166.114286,22.005 L166.114286,138.9575 Z M4.07142857,138.9575 L4.07142857,22.005 L83.0571429,39.935 L83.0571429,156.8875 L4.07142857,138.9575 Z M8.14285714,13.4475 L51.3,28.525 L8.14285714,18.745 L8.14285714,13.4475 L8.14285714,13.4475 Z M14.0464286,6.52 L49.0607143,23.43125 L14.0464286,11.0025 L14.0464286,6.52 L14.0464286,6.52 Z M156.139286,6.52 L156.139286,11.0025 L121.125,23.43125 L156.139286,6.52 Z M162.042857,18.745 L118.885714,28.525 L162.042857,13.4475 L162.042857,18.745 Z M170.185714,16.91125 L166.114286,17.93 L166.114286,7.53875 L160.210714,9.57625 L160.210714,0 L85.9071429,35.86 L85.0928571,36.06375 L84.2785714,35.86 L9.975,0 L9.975,9.57625 L4.07142857,7.53875 L4.07142857,17.93 L0,16.91125 L0,142.2175 L83.0571429,160.9625 L83.0571429,161.98125 L85.0928571,161.57375 L87.1285714,161.98125 L87.1285714,160.9625 L170.185714,142.2175 L170.185714,16.91125 Z" id="Fill-1"></path>
                                <path d="M154.103571,52.975 L100.157143,65.40375 L100.157143,55.0125 L154.103571,42.58375 L154.103571,52.975 Z M158.175,37.49 L96.0857143,51.7525 L96.0857143,70.4975 L158.175,56.235 L158.175,37.49 Z" id="Fill-3"></path>
                                <path d="M17.3035714,57.4575 L61.4785714,67.44125 L61.4785714,137.735 L17.3035714,127.75125 L17.3035714,57.4575 Z M13.4357143,131.01125 L65.7535714,142.82875 L65.7535714,64.18125 L13.4357143,52.36375 L13.4357143,131.01125 L13.4357143,131.01125 Z" id="Fill-5"></path>
                                <path d="M143.721429,111.2475 L144.128571,118.99 L136.392857,120.62 L132.932143,128.3625 L126.417857,125.71375 L120.107143,131.215 L116.646429,125.30625 L109.521429,127.5475 L109.725,120.2125 L103.007143,118.37875 L106.875,111.2475 L102.6,105.74625 L109.317857,100.44875 L108.910714,92.70625 L116.646429,91.07625 L120.107143,83.33375 L126.621429,85.9825 L132.932143,80.48125 L136.392857,86.39 L143.721429,84.3525 L143.517857,91.6875 L150.235714,93.52125 L146.164286,100.6525 L150.439286,106.15375 L143.721429,111.2475 Z M147.792857,88.4275 L148.2,78.6475 L138.428571,81.5 L133.95,74.165 L126.010714,81.29625 L118.071429,78.24 L113.796429,87.6125 L104.635714,89.44625 L105.246429,98.81875 L96.9,105.135 L101.989286,111.655 L96.9,121.0275 L105.45,123.26875 L105.042857,133.04875 L114.814286,130.19625 L119.292857,137.53125 L127.232143,130.19625 L135.171429,133.2525 L139.446429,123.88 L148.607143,122.04625 L147.996429,112.8775 L156.342857,106.56125 L151.253571,100.04125 L156.342857,90.66875 L147.792857,88.4275 Z" id="Fill-7"></path>
                                <polygon id="Fill-9" points="15.804675 42.648135 39.0342107 47.90896 38.1364607 51.8841225 14.906925 46.6232975"></polygon>
                            </g>
                        </g>
                        <g id="Page-1" transform="translate(112.573343, 95.301914) rotate(7.000000) translate(-112.573343, -95.301914) translate(93.073343, 85.301914)">
                            <mask id="mask-2" fill="white">
                                <use xlink:href="#path-1"></use>
                            </mask>
                            <g id="Clip-2"></g>
                            <path d="M21.1316837,4.37282609 L21.1359228,4.37282609 L21.1316837,4.37282609 Z M16.3825859,16.0380435 C16.6687272,16.0380435 16.9684337,16.0732609 17.2744989,16.158913 C18.1494554,16.4036957 18.8951185,17.0002174 19.5000424,17.9376087 C20.1049663,17.0002174 20.8502054,16.4036957 21.7255859,16.158913 C22.5755315,15.921087 23.3758793,16.0715217 23.9744446,16.2884783 C24.0376076,15.1728261 24.411075,14.3058696 25.0897598,13.7028261 C26.2135533,12.7032609 27.8456185,12.7697826 28.686662,12.8897826 C29.5221946,11.0271739 30.6913467,9.92891304 32.166988,9.6223913 C34.2407707,9.19282609 36.3709337,10.4802174 37.6456402,11.4723913 C37.2653902,8.05195652 35.5790641,5.34673913 32.6184554,3.41630435 C31.0804989,2.41369565 29.5260098,1.85369565 28.5196402,1.56456522 C28.8574989,2.75456522 28.8337598,3.82847826 28.447575,4.76804348 C27.9282815,6.03369565 26.7930424,6.99152174 25.0749228,7.61543478 C24.3508793,7.87804348 23.557738,7.79891304 22.8981293,7.39847826 C22.2440315,7.00065217 21.7984989,6.33152174 21.6772598,5.56282609 C21.6424989,5.34456522 21.598412,5.12630435 21.5441511,4.90847826 C21.0680967,5.56108696 20.3300641,5.94413043 19.5284446,5.94413043 C18.6958793,5.94413043 17.9464011,5.55978261 17.4567815,4.90456522 C17.4025207,5.12369565 17.3575859,5.34282609 17.322825,5.5623913 C17.2015859,6.33152174 16.7560533,7.00065217 16.1019554,7.39847826 C15.4423467,7.79891304 14.6487815,7.87847826 13.925162,7.61543478 C12.2066185,6.99152174 11.0718033,6.03369565 10.5520859,4.76804348 C10.166325,3.82847826 10.1425859,2.75456522 10.4804446,1.56456522 C9.474075,1.85369565 7.91958587,2.41369565 6.38162935,3.41630435 C3.42102065,5.34673913 1.73469457,8.05195652 1.35444457,11.4723913 C2.62915109,10.4806522 4.75973804,9.1923913 6.83309674,9.6223913 C8.30831413,9.92891304 9.47789022,11.0271739 10.3134228,12.8897826 C11.1540424,12.7697826 12.7856837,12.7032609 13.910325,13.7028261 C14.5890098,14.3058696 14.9620533,15.1728261 15.0256402,16.2884783 C15.4088576,16.1493478 15.8743141,16.0380435 16.3825859,16.0380435 L16.3825859,16.0380435 Z M19.5000424,19.9580435 C19.248238,19.9580435 19.0201728,19.8058696 18.9184337,19.5697826 C18.400412,18.3676087 17.7378359,17.6445652 16.9485098,17.4197826 C15.8276837,17.1002174 14.7399228,17.8728261 14.7289011,17.8806522 C14.5249989,18.0280435 14.2545424,18.0402174 14.0396185,17.9102174 C13.8242707,17.7802174 13.7021837,17.5341304 13.7284663,17.2797826 C13.8560641,16.0576087 13.6369011,15.1858696 13.0773359,14.688913 C12.0510424,13.7763043 10.1057054,14.2519565 10.0862054,14.2567391 C9.77717283,14.3363043 9.45754239,14.1706522 9.33927065,13.8671739 C8.66355326,12.1384783 7.73560761,11.1406522 6.58086848,10.901087 C4.48970543,10.4680435 1.90637935,12.5723913 1.08780326,13.421087 C0.905944565,13.608913 0.631672826,13.6658696 0.393009783,13.5645652 C0.154770652,13.4636957 -0.000805434783,13.2245652 4.23913044e-05,12.9597826 C0.0322597826,1.95717391 11.2841837,0.0263043478 11.3977924,0.00804347826 C11.6296728,-0.0293478261 11.8624011,0.0680434783 12.0035641,0.259782609 C12.1447272,0.451521739 12.1714337,0.708043478 12.072662,0.926304348 C11.4757924,2.24934783 11.3587924,3.37152174 11.7242054,4.26195652 C12.0989446,5.175 12.9823793,5.88978261 14.3494989,6.38586957 C14.7170315,6.51934783 15.1197489,6.47934783 15.4533685,6.27630435 C15.7827489,6.07630435 16.006575,5.74021739 16.0676185,5.35369565 C16.1803793,4.64021739 16.3825859,3.92847826 16.6683033,3.23804348 C16.7530859,3.03282609 16.9345207,2.88673913 17.1485967,2.84978261 C17.3639446,2.81369565 17.580988,2.89152174 17.7259663,3.05673913 C17.756488,3.09108696 18.0316076,3.40978261 18.3898141,3.99847826 C18.6348359,4.39978261 19.0498467,4.63978261 19.5000424,4.63978261 C19.9629554,4.63978261 20.360162,4.41152174 20.5911946,4.02891304 C20.9650859,3.41108696 21.2614011,3.07108696 21.2736946,3.05673913 C21.4190967,2.89108696 21.6365641,2.81369565 21.851488,2.84978261 C22.0655641,2.88673913 22.246575,3.03282609 22.3317815,3.23804348 C22.6174989,3.92847826 22.8197054,4.64021739 22.9324663,5.35413043 C22.9935098,5.74021739 23.2173359,6.07630435 23.5462924,6.27630435 C23.8811837,6.47934783 24.2830533,6.51934783 24.6505859,6.38586957 C26.0172815,5.88978261 26.9007163,5.175 27.2758793,4.26195652 C27.6412924,3.37152174 27.5242924,2.24934783 26.9269989,0.926304348 C26.8286511,0.708043478 26.8553576,0.451521739 26.9965207,0.259782609 C27.1376837,0.0676086957 27.3708359,-0.0297826087 27.6022924,0.00804347826 C27.7159011,0.0263043478 38.967825,1.95717391 39.0000424,12.9597826 C39.0008902,13.2245652 38.845738,13.4628261 38.6074989,13.5641304 C38.368412,13.6654348 38.0945641,13.6084783 37.9127054,13.4215217 C37.8834554,13.391087 34.9287815,10.3793478 32.4166728,10.9015217 C31.2632054,11.1419565 30.3356837,12.1397826 29.6608141,13.8671739 C29.5416946,14.1706522 29.2212163,14.3358696 28.9134554,14.2567391 C28.8952272,14.2519565 26.9537054,13.7680435 25.9193576,14.691087 C25.3623359,15.1884783 25.1440207,16.0593478 25.2716185,17.2797826 C25.2979011,17.535 25.1758141,17.7832609 24.9591946,17.9123913 C24.742575,18.0415217 24.4721185,18.0284783 24.2686402,17.878913 C24.259738,17.8728261 23.1711293,17.1015217 22.0511511,17.4197826 C21.2622489,17.6445652 20.5996728,18.3676087 20.0816511,19.5697826 C19.979912,19.8058696 19.7518467,19.9580435 19.5000424,19.9580435 L19.5000424,19.9580435 Z" id="Fill-1" fill="#FFFFFF" mask="url(#mask-2)"></path>
                        </g>
                    </g>
                </g>
            </g>
        </g>
    </g>
</svg>
