<?xml version="1.0" encoding="UTF-8"?>
<svg width="230px" height="230px" viewBox="0 0 230 230" version="1.1" xmlns="http://www.w3.org/2000/svg" xmlns:xlink="http://www.w3.org/1999/xlink">
    <!-- Generator: Sketch 50.2 (55047) - http://www.bohemiancoding.com/sketch -->
    <title>Artboard 2 Copy 18</title>
    <desc>Created with Sketch.</desc>
    <defs></defs>
    <g id="Artboard-2-Copy-18" stroke="none" stroke-width="1" fill="none" fill-rule="evenodd">
        <g id="noun_trousers_1012771" transform="translate(37.000000, 36.000000)" fill="#FFFFFF" fill-rule="nonzero">
            <rect id="Rectangle-path" x="109" y="34" width="3" height="7"></rect>
            <rect id="Rectangle-path" x="109" y="20" width="3" height="7"></rect>
            <path d="M108.491226,50.1074766 C108.495755,51.074752 108.329804,52.0361512 108,52.953271 L111.315778,54 C111.77095,52.7461742 112.002097,51.4311585 111.999986,50.1074766 L112,47 L108.491226,47 L108.491226,50.1074766 Z" id="Shape"></path>
            <path d="M145.432204,0 L53.5390533,0 L53.5390533,15.7597196 L42.9545892,42.8986616 L44.5047548,85.9651583 L30.1032162,67.9900149 L0,92.5946463 L47.0050219,156.909072 L47.0050219,158 L94.8434662,158 L96.5103109,140.511579 L103.944439,156.75802 L104.061118,158 L151.849557,158 L156,43.2007648 L156,42.848311 L145.432204,15.7597196 L145.432204,0 Z M133.497596,17.7569577 L142.615237,17.7569577 L151.81622,41.3713618 C141.391044,40.2169922 133.49451,31.3551903 133.480927,20.7947737 L133.497596,17.7569577 Z M125.663426,3.35670278 L142.098515,3.35670278 L142.098515,14.4002549 L125.663426,14.4002549 L125.663426,3.35670278 Z M117.329202,3.35670278 L122.329736,3.35670278 L122.329736,19.3849586 L117.329202,19.3849586 L117.329202,3.35670278 Z M113.995512,14.4002549 L101.144139,14.4002549 L101.144139,3.35670278 L113.995512,3.35670278 L113.995512,14.4002549 Z M84.7923923,3.35670278 L97.8104498,3.35670278 L97.8104498,14.4002549 L84.7923923,14.4002549 L84.7923923,3.35670278 Z M76.4581686,3.35670278 L81.4587029,3.35670278 L81.4587029,19.3849586 L76.4581686,19.3849586 L76.4581686,3.35670278 Z M56.8727428,3.35670278 L73.1244791,3.35670278 L73.1244791,14.4002549 L56.8727428,14.4002549 L56.8727428,3.35670278 Z M65.2069666,17.7569577 L65.2069666,20.7947737 C65.1923841,31.2511787 57.4451834,40.0593284 47.1383695,41.3377948 L56.322684,17.8408753 L65.2069666,17.7569577 Z M10.6844748,101.489909 L14.6849022,98.4017421 L12.6513516,95.7331634 L8.71759803,98.7877629 L4.6338284,93.2156363 L29.6364996,72.7229658 L44.738113,91.5708519 L46.8883428,150.984491 L10.6844748,101.489909 Z M50.322043,154.693648 L46.3549525,44.7784151 C58.8361686,43.8645823 68.5045803,33.4120999 68.5239876,20.8115573 L68.5239876,17.7569577 L73.1078107,17.7569577 L73.1078107,22.7920119 L84.7757239,22.7920119 L84.7757239,17.7569577 L97.7937814,17.7569577 L97.7937814,92.846399 L91.8264772,154.693648 L50.322043,154.693648 Z M97.1770488,133.949225 L99.4606261,110.267686 L102.994337,146.637561 L97.1770488,133.949225 Z M148.632546,154.693648 L107.111444,154.693648 L101.144139,92.846399 L101.144139,62.5353728 C103.141495,62.2657652 105.042134,61.504873 106.678064,60.319949 L104.727856,57.6010198 C103.677244,58.3537179 102.477528,58.8689779 101.210813,59.111536 L101.210813,17.7569577 L114.062186,17.7569577 L114.062186,22.7920119 L125.730099,22.7920119 L125.730099,17.7569577 L130.23058,17.7569577 L130.23058,20.7947737 C130.239768,33.4806706 140.026665,43.9813228 152.599637,44.7951986 L148.632546,154.693648 Z" id="Shape"></path>
            <rect id="Rectangle-path" transform="translate(21.500000, 90.500000) rotate(-37.540000) translate(-21.500000, -90.500000) " x="18" y="89" width="7" height="3"></rect>
            <rect id="Rectangle-path" transform="translate(32.500000, 82.500000) rotate(-37.540000) translate(-32.500000, -82.500000) " x="29" y="81" width="7" height="3"></rect>
        </g>
    </g>
</svg>