<?xml version="1.0" encoding="UTF-8" standalone="no"?>
<svg width="230px" height="230px" viewBox="0 0 230 230" version="1.1" xmlns="http://www.w3.org/2000/svg" xmlns:xlink="http://www.w3.org/1999/xlink">
    <!-- Generator: sketchtool 39.1 (31720) - http://www.bohemiancoding.com/sketch -->
    <title>09A8C118-EE4D-448D-A109-E6D70BE7FD67</title>
    <desc>Created with sketchtool.</desc>
    <defs></defs>
    <g id="Page-1" stroke="none" stroke-width="1" fill="none" fill-rule="evenodd">
        <g id="10" transform="translate(-1451.000000, -454.000000)" fill="#FFFFFF">
            <g id="noun_15011_cc" transform="translate(1451.000000, 454.000000)">
                <g id="Group">
                    <g id="Shape">
                        <path d="M115.979379,59.4736073 C115.979379,59.4736073 117.305855,60.2637513 119.265784,59.6161896 C121.843278,58.7686166 120.731262,59.0914073 123.588746,58.1091731 C126.779836,57.0120808 128.968125,61.5786777 128.968125,61.5786777 C128.968125,61.5786777 128.205599,60.5568373 126.924795,60.1429523 C124.931109,59.4993513 124.251985,60.0241337 121.994195,60.727144 C122.353614,60.7291244 122.75672,60.758829 123.197555,60.8202187 C125.643991,61.2242021 126.059011,61.9450352 126.059011,61.9450352 L118.701833,62.0876176 C118.813034,61.9648383 119.041395,61.612343 119.553716,61.2974736 C116.966293,61.4836228 115.979379,59.4736073 115.979379,59.4736073 L115.979379,59.4736073 Z M102.545826,137.278041 C102.047405,139.398954 102.31548,141.135687 103.39771,142.149606 C104.47994,143.165506 106.330653,143.420966 108.582485,142.949652 C107.939105,141.7278 107.40494,140.309897 107.00382,138.763275 C105.357639,138.385035 103.852445,137.885997 102.545826,137.278041 L102.545826,137.278041 Z M106.725816,125.715006 C105.264309,126.085324 103.961661,126.554658 102.855602,127.093303 C103.230908,128.210198 103.802802,129.406306 104.555398,130.64202 C105.085592,129.901383 105.667414,129.160747 106.298881,128.435953 C106.396182,127.499266 106.543127,126.590304 106.725816,125.715006 L106.725816,125.715006 Z M106.725816,137.590931 C106.543127,136.717613 106.400154,135.80667 106.298881,134.873944 C105.667414,134.14915 105.085592,133.410494 104.555398,132.667878 C103.800816,133.901611 103.234879,135.097719 102.855602,136.212634 C103.961661,136.753259 105.264309,137.222593 106.725816,137.590931 L106.725816,137.590931 Z M150.672297,152.49475 C150.354578,153.251229 150.098417,154.065137 149.921686,154.942415 L149.939558,154.946375 L151.579782,158.005955 C152.469395,153.655212 156.601726,147.316237 159.651828,144.678463 C158.140677,145.215127 156.552083,145.977547 155.100504,147.033053 C153.986503,144.300224 152.769242,140.036615 152.769242,137.038424 C152.769242,130.535083 155.465881,124.746634 159.669699,121.015728 C154.395566,123.681227 150.120261,130.644 150.120261,137.830548 C150.120261,138.016697 150.122246,138.202847 150.130189,138.398897 C150.126218,138.474149 150.120261,138.553362 150.120261,138.642476 C149.983244,144.741833 149.347807,149.971834 141.011657,152.459105 L148.420465,154.524569 C149.268377,153.886909 150.022959,153.211623 150.672297,152.49475 L150.672297,152.49475 Z M105.212679,131.653959 C105.502598,132.079725 105.818331,132.509453 106.151936,132.93918 C106.13605,132.511433 106.124135,132.081706 106.124135,131.651978 C106.124135,131.222251 106.13605,130.792523 106.151936,130.366756 C105.818331,130.798464 105.504584,131.228192 105.212679,131.653959 L105.212679,131.653959 Z M101.41991,60.1449326 C103.413596,59.5013316 104.096692,60.026114 106.354482,60.7291244 C105.991091,60.7311047 105.58997,60.7608093 105.14715,60.822199 C102.700714,61.2261824 102.28768,61.9470155 102.28768,61.9470155 L109.646844,62.0895979 C109.535642,61.9668187 109.305296,61.6143233 108.79496,61.2994539 C111.382383,61.4816425 112.369298,59.4736073 112.369298,59.4736073 C112.369298,59.4736073 111.042821,60.2637513 109.080907,59.6161896 C106.501427,58.7686166 107.617414,59.0914073 104.755958,58.1091731 C101.568841,57.0120808 99.3805516,61.5786777 99.3805516,61.5786777 C99.3805516,61.5786777 100.139106,60.5568373 101.41991,60.1449326 L101.41991,60.1449326 Z M107.275866,131.651978 C107.275866,132.612429 107.321539,133.545155 107.40494,134.442236 C108.02052,135.133365 108.68773,135.818552 109.412526,136.499779 C110.137322,137.181006 110.870062,137.806784 111.604786,138.383055 C112.559929,138.464248 113.548829,138.505834 114.571487,138.505834 C115.598116,138.505834 116.587016,138.464248 117.540173,138.383055 C118.276883,137.806784 119.009623,137.181006 119.732433,136.499779 C120.455244,135.818552 121.124439,135.133365 121.742005,134.442236 C121.823421,133.545155 121.869093,132.612429 121.869093,131.651978 C121.869093,130.693508 121.823421,129.762762 121.742005,128.865681 C121.124439,128.172572 120.457229,127.485404 119.732433,126.808138 C119.007637,126.126911 118.278869,125.501133 117.540173,124.920902 C116.587016,124.841689 115.59613,124.800103 114.571487,124.800103 C113.548829,124.800103 112.559929,124.841689 111.604786,124.920902 C110.870062,125.501133 110.137322,126.126911 109.412526,126.808138 C108.689716,127.487384 108.02052,128.176533 107.40494,128.865681 C107.323524,129.762762 107.275866,130.693508 107.275866,131.651978 L107.275866,131.651978 Z M112.309725,85.219629 C112.965021,85.2453731 113.562729,85.2612155 114.152495,85.2651762 C114.911049,85.2691368 115.66166,85.2532943 116.507586,85.219629 C118.008808,85.1582394 120.361914,81.1639523 120.361914,81.1639523 C120.361914,81.1639523 118.048523,83.9284663 116.547301,83.9799544 C115.943635,84.0017378 115.405499,84.0136197 114.865377,84.0175803 C114.039308,84.0235212 113.254939,84.0116394 112.359369,83.9799544 C110.860133,83.9284663 108.461355,81.1639523 108.451426,81.1639523 C108.453412,81.1639523 110.810489,85.1582394 112.309725,85.219629 L112.309725,85.219629 Z M110.983249,74.4962456 C110.647658,74.8982487 112.806161,75.1319254 113.326426,75.7636446 C113.636202,76.1379233 113.924134,76.3240725 114.448371,76.3300135 C114.958707,76.3260528 115.244654,76.1399036 115.556415,75.7636446 C116.07668,75.1319254 118.233197,74.8982487 117.895621,74.4962456 C117.76059,74.3318798 116.853106,74.785371 114.444399,74.8606228 C112.031721,74.785371 111.124237,74.3318798 110.983249,74.4962456 L110.983249,74.4962456 Z M116.849134,78.7598549 C115.469043,78.9776891 114.517872,80.0589389 114.418585,80.0589389 C114.317312,80.0589389 114.204124,79.9718052 114.184267,79.9817067 C113.951935,79.8787306 112.734674,79.6193098 111.886762,79.6351523 C109.980449,79.6668373 109.128565,80.1500332 108.751274,80.5658984 C108.368025,80.7718508 107.887475,80.9401772 107.661101,80.8946301 C107.863646,81.0075078 108.135693,81.0926611 108.453412,81.1639523 L108.779074,81.1718736 C108.850561,81.1758342 108.924033,81.1797948 109.001477,81.1797948 L109.106722,81.1778145 L111.028921,81.2055389 C111.177852,81.2392041 111.392312,81.2689088 111.65443,81.2946528 C112.341497,81.365944 113.376069,81.4095109 114.531772,81.4095109 L114.682688,81.4095109 C115.179124,81.1421689 116.213696,80.8847285 117.405142,80.7560083 C119.053309,80.5797606 120.371843,80.722343 120.349999,81.0748383 C120.346028,81.1025627 120.336099,81.130287 120.359928,81.1540508 C120.729276,81.1124642 121.048981,81.0193896 121.275356,80.8926497 C121.064867,80.9362166 120.629989,80.7896736 120.258655,80.6035244 C120.03228,79.7777347 119.279684,78.3756746 116.849134,78.7598549 L116.849134,78.7598549 Z M111.148066,123.879258 C111.922505,123.289125 112.704888,122.740579 113.499185,122.243521 C112.182638,121.53457 110.911762,120.999886 109.722302,120.647391 C109.150408,121.685074 108.648015,122.908906 108.256824,124.281261 C109.184166,124.110954 110.155194,123.974313 111.148066,123.879258 L111.148066,123.879258 Z M107.005805,124.540682 C107.406925,122.996039 107.94109,121.582097 108.584471,120.356285 C106.330653,119.886951 104.481926,120.142411 103.399696,121.156331 C102.317466,122.17025 102.045419,123.908963 102.547812,126.023935 C103.852445,125.42192 105.357639,124.920902 107.005805,124.540682 L107.005805,124.540682 Z M118.84282,119.68892 C117.605702,117.859113 116.10448,116.809548 114.575458,116.809548 C113.046436,116.809548 111.549186,117.859113 110.308096,119.68694 C111.684216,120.124589 113.129837,120.774131 114.575458,121.59794 C116.025051,120.774131 117.464715,120.124589 118.84282,119.68892 L118.84282,119.68892 Z M126.601119,126.025915 C127.09954,123.910943 126.831465,122.17223 125.749235,121.158311 C124.667005,120.142411 122.816292,119.886951 120.566445,120.358265 C121.211812,121.582097 121.743991,122.996039 122.143125,124.540682 C123.789306,124.920902 125.296486,125.42192 126.601119,126.025915 L126.601119,126.025915 Z M127.314001,135.662108 C129.262015,134.497685 130.376017,133.089684 130.376017,131.653959 C130.376017,130.220213 129.262015,128.810232 127.314001,127.64779 C126.847351,128.938952 126.156312,130.297446 125.2806,131.655939 C126.156312,133.012452 126.847351,134.366984 127.314001,135.662108 L127.314001,135.662108 Z M118.000865,123.879258 C118.995722,123.974313 119.962779,124.108974 120.898064,124.281261 C120.502902,122.908906 120.00448,121.685074 119.428615,120.647391 C118.24114,120.999886 116.964307,121.53457 115.655703,122.243521 C116.444043,122.740579 117.228411,123.289125 118.000865,123.879258 L118.000865,123.879258 Z M101.83493,135.662108 C102.299594,134.370945 102.990633,133.012452 103.870317,131.655939 C102.990633,130.295465 102.299594,128.938952 101.83493,127.64779 C99.8889019,128.810232 98.766957,130.222194 98.766957,131.653959 C98.766957,133.089684 99.8889019,134.497685 101.83493,135.662108 L101.83493,135.662108 Z M174.96985,173.557337 C176.870207,183.076691 173.146938,193.047556 168.91532,201.356941 L167.5531,203.042185 C167.5531,203.042185 165.613029,202.858017 162.406054,202.62434 C159.40361,202.406506 155.291136,202.141144 150.614711,201.939152 C149.647654,208.246442 149.363693,213.918053 149.069803,220.259008 L95.9313158,220.259008 L95.9313158,199.105327 L134.079427,199.105327 C127.621791,197.101253 118.72169,191.796 110.661558,186.385791 C108.769145,187.791811 106.821131,189.282985 104.622914,190.465231 C95.8260714,195.194213 85.7921112,197.940905 81.5366637,199.004332 L81.5585068,199.105327 L90.2282615,199.105327 L90.2282615,220.260989 L80.6152789,220.260989 C80.2618166,213.086322 79.6104928,206.723583 78.3972037,199.608326 C68.4724595,201.053953 65.2773987,201.877763 65.2773987,201.877763 L58.1684383,199.295437 L56.4348845,191.928681 C54.0718501,187.498725 49.6356999,180.886467 51.2143657,175.624781 C48.5554557,167.151031 46.7663011,158.140617 50.8946611,149.757961 C48.227808,138.501874 44.9255172,124.047584 57.4555565,116.179809 C60.3904848,113.946019 79.0088126,106.810959 79.0088126,106.810959 L79.3444032,106.666396 C84.3623762,104.897978 87.7699114,103.480076 91.9816727,100.123449 L92.311306,100.335342 C95.806214,97.3589347 97.4007657,93.6300093 97.4007657,88.2613865 L97.4027515,83.0135627 L97.4504093,81.3639637 C97.4504093,81.3639637 96.532996,79.0291772 96.1279044,76.3894228 C95.7188413,73.7496684 95.3157354,70.020743 95.3157354,70.020743 C95.3157354,70.020743 95.1449615,69.9850974 94.769656,69.8900425 C93.609982,69.4405119 92.6488824,68.581057 91.9260718,67.5136694 C89.4716933,64.3392311 88.5820804,59.0775451 92.5853386,57.2675409 L92.5337093,57.1130767 L91.3641065,53.9525005 C82.2753601,37.8565337 104.869146,22.6675492 118.529073,25.7825782 C121.714205,25.1785834 124.931109,27.3747482 126.855294,29.3907047 C139.552136,27.4995078 137.971484,45.7540135 136.59735,52.3326062 L135.42179,56.6774083 L135.316545,57.293285 C137.633908,58.3903772 138.275303,60.7014 137.903969,63.0579699 C137.757024,66.1036881 135.924183,69.3652601 132.987269,70.084113 L132.709265,70.1296601 L132.643735,71.1000124 L132.631821,71.2524964 L132.411403,74.6210052 C132.204886,77.2310549 131.779937,79.7104041 130.39786,82.2709461 L130.39786,88.722799 C130.39786,89.6000767 130.441546,90.4278466 130.524947,91.2100694 C131.02734,95.131085 132.649692,98.0560041 135.562778,100.483865 L135.60845,100.519511 L135.751423,100.436338 C136.619193,101.119545 137.49292,101.749284 138.376576,102.329515 C142.097858,104.571227 145.787369,106.046559 149.899843,107.224844 L159.024333,110.252739 L159.542612,110.468593 C167.44587,112.787537 175.978608,118.873032 178.635532,126.519012 C182.132426,136.57107 180.206255,144.900258 177.751877,151.987791 C178.419086,153.25717 178.994952,155.483039 179.215369,159.451582 C179.489402,164.309285 177.662518,169.743258 174.96985,173.557337 L174.96985,173.557337 Z M95.9432302,68.5058052 L95.202548,59.0359585 C94.9066723,59.0062539 94.6088108,59.0220964 94.3188923,59.0933876 C92.458251,59.5448984 91.5805525,62.0143461 92.3450637,64.6085534 C92.9546868,66.6740176 94.4320797,68.198857 95.9432302,68.5058052 L95.9432302,68.5058052 Z M134.04567,59.0933876 C133.797452,59.0339782 133.549234,59.0121948 133.297045,59.0240767 L132.671536,68.4424352 C134.093328,68.0285503 135.439662,66.5591596 136.017513,64.6065731 C136.78401,62.0143461 135.898368,59.5448984 134.04567,59.0933876 L134.04567,59.0933876 Z M130.2251,32.6483161 C135.336403,35.8108725 134.569906,46.298599 133.890782,51.2493762 L134.289916,49.7661233 C134.289916,49.7661233 137.546535,34.1177067 130.2251,32.6483161 L130.2251,32.6483161 Z M129.35733,33.7097627 C132.814509,35.444515 133.501576,41.8448798 133.63065,44.8767358 L133.714051,43.9618321 C133.716036,43.9618321 133.972197,34.3355409 129.35733,33.7097627 L129.35733,33.7097627 Z M119.33727,27.9430974 C120.768991,28.0282508 122.659419,28.8758238 124.42673,30.3471948 C125.781007,31.4720114 126.819551,32.7611938 127.425202,33.9592819 L127.578104,33.7513492 C127.089612,32.5473202 126.070925,31.1947679 124.682891,30.0402466 C122.75672,28.4401554 120.665732,27.6698145 119.33727,27.9430974 L119.33727,27.9430974 Z M105.065734,31.6680622 C107.841803,30.0778725 111.974135,29.4520943 116.26334,30.2283762 C118.866649,30.7016705 121.156211,31.6244953 122.939408,32.8126819 C123.193584,32.711686 123.453716,32.6205917 123.721791,32.533458 C122.016038,31.0205005 119.515987,29.832314 116.563187,29.2956497 C111.894705,28.450057 107.426783,29.4798187 105.065734,31.6680622 L105.065734,31.6680622 Z M121.99618,33.2285472 C122.147097,33.151315 122.305956,33.0800238 122.46283,33.010713 C121.112525,32.1651202 119.208197,31.5195389 117.035794,31.2620984 C113.576629,30.8521741 110.407383,31.5294404 108.850561,32.8483275 C110.754888,31.8700539 113.709674,31.4343855 116.886863,31.8126249 C118.844806,32.0423409 120.600203,32.5512808 121.99618,33.2285472 L121.99618,33.2285472 Z M119.172454,43.2825855 C119.921079,42.7479016 120.653818,42.1557886 121.362728,41.5062466 C120.669704,42.0191472 119.936965,42.6152207 119.172454,43.2825855 L119.172454,43.2825855 Z M111.306925,44.8252477 C111.698116,44.8688145 112.109165,44.8905979 112.528157,44.8905979 C114.533758,44.8905979 116.275254,44.3737368 117.154939,43.6113171 C116.160081,43.916285 114.98055,44.1301585 113.691803,44.2252135 C112.873676,44.4885948 112.073422,44.6886062 111.306925,44.8252477 L111.306925,44.8252477 Z M111.487628,44.2687803 C110.323982,44.2291741 109.229838,44.0925326 108.260795,43.8806394 C108.695673,44.1618435 109.257638,44.3975005 109.910948,44.5697876 C110.421284,44.4945358 110.949491,44.3955202 111.487628,44.2687803 L111.487628,44.2687803 Z M97.8217433,76.638942 C98.5306536,83.6056756 106.974033,90.7664798 109.626986,91.0971917 C110.089664,91.1546207 118.272912,91.1546207 118.733604,91.0971917 C121.386557,90.7664798 129.833909,83.6056756 130.540833,76.638942 C130.614306,75.9359316 130.757279,73.8882902 130.945925,71.8624321 C130.932025,71.8802549 131.90901,60.9291358 132.083756,57.9507482 C132.492819,51.0731285 129.782279,54.0336933 129.138899,44.8965389 C128.841037,40.6408508 127.55229,39.088287 125.493074,39.3952352 C124.835793,41.2111803 123.848879,43.0330663 122.54226,44.7539565 C118.697861,49.8077098 113.157638,52.5563813 108.560642,52.1444767 C112.970978,51.5127575 117.764562,48.5997202 121.295213,43.9578715 C121.668533,43.4647741 122.018024,42.9677161 122.347657,42.4627368 C120.195111,44.2945244 117.808248,45.5579627 115.469043,46.1579969 C111.954277,48.3660435 108.389868,49.2116363 106.211508,48.5205078 C108.20718,48.6096218 110.792618,47.916513 113.455499,46.5104922 C112.794247,46.5718819 112.142923,46.5738622 111.513442,46.5184135 C112.72276,46.3441461 113.961864,45.9975917 115.196996,45.4906321 L115.314155,45.4134 C112.458656,46.3679098 110.053921,45.8015409 107.972862,45.0193181 C107.309624,44.9579285 106.719858,44.821287 106.22938,44.617315 C106.53717,44.6668228 106.866803,44.7004881 107.212323,44.7183109 C103.395724,43.1637668 100.695114,41.419113 98.2109489,48.5165472 C97.3034643,51.6929658 96.5151243,54.9624591 96.4078941,57.9467876 C96.3324359,60.0756218 96.880501,66.3373648 97.2021914,69.7514207 C97.4901242,72.2525534 97.7244419,75.6844321 97.8217433,76.638942 L97.8217433,76.638942 Z M94.2613058,101.689875 C98.8126291,103.808807 106.052649,105.179182 114.204124,105.179182 C122.256313,105.179182 129.418888,103.842473 133.98014,101.765126 C130.481261,98.3490902 128.739764,94.0854808 128.739764,88.722799 L128.743736,83.8532145 C125.963695,88.8752829 120.645875,93.0319554 118.636303,93.2814746 C118.175611,93.3408839 109.990377,93.3408839 109.531671,93.2814746 C107.545927,93.0359161 102.331366,88.9742984 99.5235251,84.0314425 L99.5175679,88.6396259 C99.5175679,94.2359845 97.8773441,98.3867161 94.2613058,101.689875 L94.2613058,101.689875 Z M109.658758,182.835093 L105.550256,180.110185 L87.9903289,188.152228 C89.5888522,189.892921 91.3502063,190.976151 92.5555524,191.580146 C103.898117,187.512588 109.658758,182.835093 109.658758,182.835093 L109.658758,182.835093 Z M133.026984,193.839681 C133.048827,193.011911 133.082584,192.037598 133.146128,190.978132 C130.2529,189.954311 127.584062,188.86514 125.40173,187.724481 C113.812933,181.682552 91.074188,166.517332 91.074188,166.517332 C91.074188,166.517332 113.008707,185.93824 133.026984,193.839681 L133.026984,193.839681 Z M177.177997,159.637732 C176.808649,153.019533 175.458343,152.393754 175.458343,152.393754 C175.458343,152.393754 180.887365,139.002892 176.133496,128.09336 C170.847448,115.977818 158.855545,112.676639 158.855545,112.676639 L158.309465,112.440982 L149.333906,109.470516 L149.280291,109.450713 C148.517766,109.232879 147.763184,108.997222 147.022501,108.739781 C143.61298,107.563477 140.733653,106.302019 138.34679,104.880155 C133.870924,107.719921 124.760335,109.664587 114.253768,109.664587 C103.328209,109.664587 93.9157865,107.561496 89.6504102,104.535581 C87.1821315,106.062401 84.1638019,107.405052 80.5557066,108.650667 C80.359118,108.717998 80.150615,108.783348 79.9699123,108.848698 L79.6462362,108.989301 L64.3421137,115.124304 C64.3421137,115.124304 49.766759,118.684903 51.6571865,136.561169 C52.6639582,146.066661 53.7918604,150.169865 53.7918604,150.169865 C53.7918604,150.169865 49.6615146,157.407902 51.1845796,165.723227 C52.7056588,174.036572 53.4443553,175.735679 53.4443553,175.735679 C53.4443553,175.735679 52.0225632,178.395236 54.111565,182.745979 C56.1985811,187.100683 58.4206276,191.275178 58.4206276,191.275178 L59.9615643,197.820106 L64.4374294,199.477626 C64.4374294,199.477626 71.429231,198.513215 80.1029571,196.418046 L80.8575395,196.233877 C84.3087611,195.394225 88.0062149,194.370404 91.6222531,193.162415 C91.6222531,193.162415 91.7552979,193.13469 92.0273447,193.039635 L92.0968458,193.065379 C91.3164487,192.790116 83.3139038,189.782024 82.4044334,180.52407 C82.0410424,176.866436 83.3119181,172.727587 84.1002581,170.58687 C85.2956755,170.58687 86.6340663,170.499737 88.1650743,170.303686 C89.4875793,170.133379 90.7286687,169.965053 91.886357,169.800687 C91.0781595,169.168968 90.6353388,168.814492 90.6353388,168.814492 C90.6353388,168.814492 87.6408381,169.206594 84.556979,169.412546 C84.4557061,169.664046 84.2908894,170.066049 84.1002581,170.58687 C77.5075908,170.600733 74.2986299,169.489778 69.3779584,169.772963 C59.5187436,170.347253 56.9392632,174.337579 56.5143142,174.769287 C62.0426231,166.523273 71.8938949,166.392572 74.4038743,166.499509 L75.0810127,163.671625 L85.7801968,158.79808 L101.453667,157.475232 L109.150408,160.511049 L114.20611,162.509182 L127.067768,168.030289 L138.112472,175.894104 C137.347961,178.183343 136.472248,181.046873 136.003613,183.347994 C134.810181,189.241399 134.96904,196.422006 134.96904,196.422006 C134.069499,196.176448 133.128257,195.869499 132.141342,195.49126 C133.128257,195.867519 134.079427,196.182389 134.963083,196.422006 C134.963083,196.422006 136.152543,196.724994 136.523877,196.802226 C139.990985,197.529 149.967358,198.99641 156.087419,199.863787 C160.690371,200.317278 163.619343,200.444018 163.619343,200.444018 L167.555086,199.614267 C167.555086,199.614267 170.859362,193.114887 172.136195,186.605605 C173.784362,178.22691 172.259311,172.929578 172.259311,172.929578 C172.259311,172.929578 177.549331,166.255931 177.177997,159.637732 L177.177997,159.637732 Z M148.352949,175.367341 L144.028001,172.693921 C143.614966,172.652335 143.201932,172.616689 142.790883,172.585004 L145.130088,175.408927 C145.908499,175.444573 146.688896,175.48616 147.481208,175.539628 C156.337622,176.157485 164.425554,178.217008 170.891134,181.201337 C165.654729,177.789261 158.639099,175.10396 150.626625,173.614766 L148.352949,175.367341 L148.352949,175.367341 Z M126.007382,154.106723 C121.821435,154.300794 118.523116,154.308715 117.146996,150.997635 C116.386456,151.061005 115.615988,151.098631 114.833605,151.098631 C114.225967,151.098631 113.626273,151.074867 113.032536,151.037241 C111.322811,155.083017 106.703972,154.116625 101.102191,153.983944 C81.9576412,153.546295 80.3452178,147.284552 80.0969999,139.393013 C80.1367148,138.880113 80.1545864,138.359291 80.1545864,137.832528 C80.1545864,130.64598 75.8832529,123.681227 70.6051476,121.017709 C74.8089659,124.748615 77.5095766,130.537063 77.5095766,137.040404 C77.5095766,140.226724 76.8602385,143.248679 75.7025503,145.932 L75.9626826,146.306279 C74.6262775,144.795302 73.1012268,143.57345 71.4848318,142.759542 C75.6886501,146.488467 78.387275,152.276916 78.387275,158.780257 C78.387275,159.477326 78.3574889,160.164494 78.2959308,160.83978 L81.0362564,159.572381 C81.0362564,157.239575 80.5815212,154.926572 79.7931812,152.779915 C81.5207777,154.581998 83.9334557,156.160306 86.7869686,157.267299 C93.6913975,156.532604 101.314665,155.87118 109.817618,156.049408 L120.105753,156.017723 C122.063696,155.348378 124.031567,154.716659 126.007382,154.106723 L126.007382,154.106723 Z M148.277491,173.858344 L149.95743,172.571142 L141.162573,163.158724 L152.157633,170.877976 L154.70137,168.951134 L152.491238,165.768774 L153.867358,164.905359 L149.08966,155.99594 L136.509977,152.49277 C136.509977,152.49277 123.070467,155.764244 111.376426,160.503127 L127.663491,166.929236 L141.521993,176.801086 L143.748011,175.694092 L135.914254,166.222265 L148.277491,173.858344 L148.277491,173.858344 Z M93.3796358,132.210426 C93.3796358,122.227679 102.93106,114.132168 114.710489,114.132168 C126.489917,114.132168 136.041342,122.227679 136.041342,132.210426 C136.041342,142.197134 126.489917,150.290664 114.710489,150.290664 C102.93106,150.290664 93.3796358,142.197134 93.3796358,132.210426 L93.3796358,132.210426 Z M97.6191975,131.651978 C97.6191975,133.656053 99.0946046,135.402687 101.489411,136.743358 C100.806315,139.280136 101.078362,141.496104 102.585541,142.914006 C104.096692,144.331909 106.453769,144.583408 109.158351,143.941788 C110.584115,146.18944 112.438799,147.577638 114.575458,147.577638 C116.706161,147.577638 118.568788,146.18944 119.994551,143.941788 C122.697148,144.583408 125.056211,144.331909 126.56339,142.914006 C128.072554,141.496104 128.342616,139.280136 127.655548,136.743358 C130.05234,135.400707 131.529733,133.654073 131.529733,131.651978 C131.529733,129.651864 130.05234,127.90325 127.65952,126.56456 C128.342616,124.025801 128.072554,121.811813 126.56339,120.393911 C125.056211,118.977989 122.699133,118.724509 119.994551,119.36613 C118.566802,117.116496 116.706161,115.728298 114.575458,115.728298 C112.440784,115.728298 110.582129,117.114516 109.156365,119.36613 C106.453769,118.722528 104.094706,118.976008 102.587527,120.391931 C101.080348,121.807853 100.808301,124.023821 101.491397,126.562579 C99.0946046,127.90523 97.6191975,129.649884 97.6191975,131.651978 L97.6191975,131.651978 Z M121.19394,137.874115 C121.309113,137.377057 121.4084,136.864156 121.497759,136.339374 C121.189969,136.652263 120.870264,136.959211 120.546588,137.26814 C120.220926,137.573108 119.891293,137.870154 119.557688,138.157299 C120.121639,138.074126 120.665732,137.977091 121.19394,137.874115 L121.19394,137.874115 Z M107.954991,125.433802 C107.837832,125.92888 107.738545,126.443761 107.651172,126.968543 C107.960948,126.655654 108.274695,126.346725 108.600357,126.039777 C108.926019,125.734809 109.255652,125.437763 109.589257,125.150618 C109.025306,125.233791 108.485184,125.328846 107.954991,125.433802 L107.954991,125.433802 Z M113.207281,139.56332 C113.664002,139.87819 114.118737,140.171276 114.573472,140.444559 C115.028208,140.169295 115.482943,139.87819 115.943635,139.56332 C115.4889,139.579163 115.032179,139.591045 114.573472,139.591045 C114.114766,139.591045 113.656059,139.579163 113.207281,139.56332 L113.207281,139.56332 Z M107.651172,136.337394 C107.738545,136.864156 107.839817,137.375077 107.954991,137.872135 C108.485184,137.977091 109.025306,138.074126 109.587271,138.155319 C109.253667,137.866194 108.924033,137.569147 108.598371,137.262199 C108.274695,136.959211 107.960948,136.652263 107.651172,136.337394 L107.651172,136.337394 Z M115.945621,123.744597 C115.484929,123.429727 115.030193,123.134661 114.575458,122.861378 C114.122709,123.136641 113.665988,123.429727 113.209267,123.744597 C113.660031,123.724794 114.116752,123.716873 114.575458,123.716873 C115.034165,123.716873 115.490886,123.724794 115.945621,123.744597 L115.945621,123.744597 Z M111.148066,139.426679 C110.155194,139.331624 109.186151,139.196963 108.254838,139.022695 C108.650001,140.399011 109.148422,141.620863 109.720316,142.662507 C110.911762,142.310011 112.180652,141.773347 113.4972,141.062416 C112.704888,140.565358 111.92052,140.018792 111.148066,139.426679 L111.148066,139.426679 Z M126.291343,136.212634 C125.916037,135.097719 125.348115,133.901611 124.593532,132.667878 C124.065325,133.410494 123.479531,134.14915 122.852036,134.873944 C122.746791,135.80667 122.603818,136.717613 122.421129,137.590931 C123.882636,137.222593 125.185284,136.749298 126.291343,136.212634 L126.291343,136.212634 Z M121.497759,126.970523 C121.4084,126.44178 121.309113,125.93086 121.19394,125.435782 C120.665732,125.328846 120.121639,125.233791 119.559674,125.152598 C119.893278,125.441723 120.222912,125.73679 120.548574,126.041758 C120.870264,126.346725 121.189969,126.657634 121.497759,126.970523 L121.497759,126.970523 Z M123.934266,131.653959 C123.644347,131.228192 123.328614,130.796484 122.995009,130.366756 C123.010895,130.792523 123.020824,131.222251 123.020824,131.651978 C123.020824,132.081706 123.010895,132.513413 122.995009,132.93918 C123.328614,132.509453 123.642361,132.079725 123.934266,131.653959 L123.934266,131.653959 Z M126.291343,127.093303 C125.183298,126.556638 123.882636,126.083344 122.421129,125.716987 C122.603818,126.590304 122.746791,127.499266 122.852036,128.433973 C123.479531,129.158767 124.065325,129.897423 124.593532,130.64202 C125.350101,129.406306 125.916037,128.212178 126.291343,127.093303 L126.291343,127.093303 Z M110.30611,143.620977 C111.5472,145.446824 113.048422,146.496389 114.573472,146.496389 C116.10448,146.496389 117.599745,145.446824 118.840835,143.620977 C117.464715,143.179368 116.023065,142.533787 114.573472,141.709977 C113.127851,142.533787 111.68223,143.183328 110.30611,143.620977 L110.30611,143.620977 Z M118.000865,139.426679 C117.228411,140.018792 116.444043,140.565358 115.653717,141.062416 C116.962322,141.771367 118.24114,142.310011 119.426629,142.662507 C120.002494,141.620863 120.500916,140.399011 120.896079,139.022695 C119.962779,139.196963 118.995722,139.331624 118.000865,139.426679 L118.000865,139.426679 Z M122.143125,138.763275 C121.743991,140.309897 121.20784,141.7278 120.56446,142.949652 C122.818278,143.415025 124.667005,143.163525 125.745263,142.149606 C126.831465,141.131726 127.09954,139.394994 126.601119,137.278041 C125.296486,137.884017 123.789306,138.385035 122.143125,138.763275 L122.143125,138.763275 Z"></path>
                    </g>
                </g>
            </g>
        </g>
    </g>
</svg>
