<?xml version="1.0" encoding="UTF-8"?>
<svg width="230px" height="230px" viewBox="0 0 230 230" version="1.1" xmlns="http://www.w3.org/2000/svg" xmlns:xlink="http://www.w3.org/1999/xlink">
    <!-- Generator: Sketch 50.2 (55047) - http://www.bohemiancoding.com/sketch -->
    <title>Artboard 2 Copy 15</title>
    <desc>Created with Sketch.</desc>
    <defs></defs>
    <g id="Artboard-2-Copy-15" stroke="none" stroke-width="1" fill="none" fill-rule="evenodd">
        <g id="Mamma_mia!" transform="translate(1.000000, 95.000000)" fill="#FFFFFF" fill-rule="nonzero">
            <path d="M223.256706,0.0963934426 L223.621,0.0963934426 C224.982412,0.158032787 226.355471,0.957377049 227.299529,2.50163934 C228.112882,3.80852459 228.534765,5.60721311 228.571647,7.40393443 L228.571647,8.06885246 C228.522471,9.38032787 228.362,10.6904918 228.033294,11.9068852 C227.687118,13.2360656 227.197294,14.4609836 226.676412,15.6413115 C225.745941,17.8078689 224.768235,19.9927869 224.279059,22.5068852 C224.037059,23.6340984 223.973,24.8209836 223.927059,25.9980328 C223.560176,25.9829508 223.190706,25.9796721 222.825118,26 C222.827706,24.6229508 222.685353,23.2439344 222.378,21.9495082 C221.751,19.2196721 220.603118,16.892459 219.601471,14.4767213 C218.777765,12.482623 218.196706,10.1816393 218.204471,7.79081967 C218.170824,5.8052459 218.634118,3.76983607 219.567824,2.37442623 C220.532588,0.878032787 221.909529,0.163934426 223.256706,0.0963934426 Z" id="Shape"></path>
            <path d="M222.396118,27.187541 C223.853294,26.9390164 225.407529,27.2111475 226.672529,28.4170492 C227.206353,28.877377 227.654765,29.5691803 227.972471,30.372459 C228.492059,31.6898361 228.600765,33.32 228.411824,34.8131148 C228.243588,36.175082 227.722059,37.415082 226.994765,38.2229508 C225.633353,39.6845902 223.890176,40.0386885 222.273824,39.7055738 C221.528412,39.5318033 220.788176,39.2039344 220.135941,38.6078689 C219.166,37.8386885 218.455529,36.3409836 218.276941,34.6806557 C218.095118,33.1114754 218.247176,31.3960656 218.856059,30.0767213 C219.657765,28.3134426 221.056706,27.4760656 222.396118,27.187541 Z" id="Shape"></path>
            <path d="M27.8870327,2.93635 L27.8870327,38.40165 L30.2748084,38.40165 L30.2748084,39.87715 L16.5852897,39.87715 L16.5852897,38.40165 L18.9440748,38.40165 L18.9440748,7.3362 L18.8847757,7.3362 L12.120729,39.8765 L10.8747897,39.8765 L3.97830841,6.9332 L3.91900935,6.9332 L3.91900935,33.6833 C3.91900935,35.11265 4.0428785,36.25665 4.28995794,37.114 C4.53703738,37.97135 5.11026168,38.40035 6.01028972,38.40035 L6.58878505,38.40035 L6.58878505,39.87585 L0.330098131,39.87585 L0.330098131,38.40035 L0.908593458,38.40035 C2.16441589,38.40035 2.7923271,36.86375 2.7923271,33.78925 L2.7923271,2.93635 L0.538303738,2.93635 L0.538303738,1.4069 L11.5428925,1.4069 L15.2807103,19.71675 L19.1074766,1.4069 L30.2754673,1.4069 L30.2754673,2.93635 L27.8870327,2.93635 Z" id="Shape"></path>
            <path d="M36.4517944,39.8765 L30.6082009,39.8765 L30.6082009,38.401 L31.3046355,38.401 C31.7394953,38.401 32.1328458,37.8602 32.484028,36.77795 C32.8345514,35.6957 33.173215,34.3502 33.5000187,32.74015 L39.7587056,1.40625 L46.1063411,1.40625 L53.6109673,38.401 L55.272,38.401 L55.272,39.8765 L41.7913458,39.8765 L41.7913458,38.401 L43.9715748,38.401 L41.8209953,27.1066 L35.6809065,27.1066 L34.4646168,33.02095 C34.2669533,33.9667 34.1681215,34.78765 34.1681215,35.4838 C34.1681215,36.4835 34.3190047,37.21865 34.620771,37.69185 C34.9225374,38.1644 35.2559299,38.401 35.6222664,38.401 L36.4531121,38.401 L36.4531121,39.8765 L36.4517944,39.8765 Z M41.5245,25.5245 L38.7216308,11.46695 L35.9629065,25.5245 L41.5245,25.5245 Z" id="Shape"></path>
            <path d="M82.9560981,2.93635 L82.9560981,38.40165 L85.3438738,38.40165 L85.3438738,39.87715 L71.6543551,39.87715 L71.6543551,38.40165 L74.0131402,38.40165 L74.0131402,7.3362 L73.9538411,7.3362 L67.1904533,39.8765 L65.944514,39.8765 L59.0480327,6.9332 L58.9887336,6.9332 L58.9887336,33.6833 C58.9887336,35.11265 59.1119439,36.25665 59.3596822,37.114 C59.6067617,37.97135 60.179986,38.40035 61.080014,38.40035 L61.6585093,38.40035 L61.6585093,39.87585 L55.3998224,39.87585 L55.3998224,38.40035 L55.9783178,38.40035 C57.2334813,38.40035 57.8613925,36.86375 57.8613925,33.78925 L57.8613925,2.93635 L55.6073692,2.93635 L55.6073692,1.4069 L66.6126168,1.4069 L70.3504346,19.71675 L74.1772009,1.4069 L85.3451916,1.4069 L85.3451916,2.93635 L82.9560981,2.93635 Z" id="Shape"></path>
            <path d="M113.026654,2.93635 L113.026654,38.40165 L115.41443,38.40165 L115.41443,39.87715 L101.72557,39.87715 L101.72557,38.40165 L104.083696,38.40165 L104.083696,7.3362 L104.024397,7.3362 L97.2610093,39.8765 L96.0150701,39.8765 L89.1185888,6.9332 L89.0592897,6.9332 L89.0592897,33.6833 C89.0592897,35.11265 89.1825,36.25665 89.4302383,37.114 C89.6773178,37.97135 90.2512009,38.40035 91.1505701,38.40035 L91.7290654,38.40035 L91.7290654,39.87585 L85.4697196,39.87585 L85.4697196,38.40035 L86.048215,38.40035 C87.3033785,38.40035 87.9312897,36.86375 87.9312897,33.78925 L87.9312897,2.93635 L85.6772664,2.93635 L85.6772664,1.4069 L96.6818551,1.4069 L100.419673,19.71675 L104.246439,1.4069 L115.41443,1.4069 L115.41443,2.93635 L113.026654,2.93635 Z" id="Shape"></path>
            <path d="M121.592075,39.8765 L115.748481,39.8765 L115.748481,38.401 L116.445575,38.401 C116.880435,38.401 117.273785,37.8602 117.624967,36.77795 C117.975491,35.6957 118.314813,34.3502 118.640958,32.74015 L124.899645,1.40625 L131.24728,1.40625 L138.752565,38.401 L140.413598,38.401 L140.413598,39.8765 L126.932285,39.8765 L126.932285,38.401 L129.113173,38.401 L126.961935,27.1066 L120.821846,27.1066 L119.605556,33.02095 C119.407893,33.9667 119.309061,34.78765 119.309061,35.4838 C119.309061,36.4835 119.460603,37.21865 119.76171,37.69185 C120.063477,38.1644 120.396869,38.401 120.763206,38.401 L121.593393,38.401 L121.592075,39.8765 Z M126.66478,25.5245 L123.861252,11.46695 L121.103187,25.5245 L126.66478,25.5245 Z" id="Shape"></path>
            <path d="M176.137897,2.8837 L176.137897,38.349 L178.557869,38.349 L178.557869,39.8245 L164.681682,39.8245 L164.681682,38.349 L167.071794,38.349 L167.071794,7.2829 L167.011411,7.2829 L160.156262,39.82385 L158.893523,39.82385 L151.903009,6.88055 L151.842626,6.88055 L151.842626,33.6313 C151.842626,35.06065 151.968037,36.20465 152.21886,37.062 C152.469019,37.92 153.05029,38.34835 153.962673,38.34835 L154.548589,38.34835 L154.548589,39.82385 L148.205037,39.82385 L148.205037,38.34835 L148.790953,38.34835 C150.063645,38.34835 150.700654,36.81175 150.700654,33.73725 L150.700654,2.8837 L148.415383,2.8837 L148.415383,1.35425 L159.571009,1.35425 L163.359224,19.6641 L167.237682,1.35425 L178.557869,1.35425 L178.557869,2.8837 L176.137897,2.8837 Z" id="Shape"></path>
            <polygon id="Shape" points="193.032579 39.82385 178.810682 39.82385 178.810682 38.34835 181.156336 38.34835 181.156336 2.8837 178.810682 2.8837 178.810682 1.35425 193.032579 1.35425 193.032579 2.8837 190.687589 2.8837 190.687589 38.349 193.032579 38.349"></polygon>
            <path d="M199.290533,39.82385 L193.368336,39.82385 L193.368336,38.34835 L194.074355,38.34835 C194.515617,38.34835 194.913084,37.80755 195.270075,36.7253 C195.625738,35.6437 195.968794,34.2982 196.299243,32.68815 L202.643458,1.35425 L209.077252,1.35425 L216.684869,38.34835 L218.368299,38.34835 L218.368299,39.82385 L204.702458,39.82385 L204.702458,38.34835 L206.912748,38.34835 L204.733645,27.0546 L198.510196,27.0546 L197.277318,32.96895 C197.076925,33.9147 196.976065,34.73565 196.976065,35.4318 C196.976065,36.43085 197.129346,37.16665 197.435243,37.6392 C197.74114,38.1124 198.078888,38.34835 198.450477,38.34835 L199.29186,38.34835 L199.29186,39.82385 L199.290533,39.82385 Z M204.432393,25.47185 L201.591065,11.41495 L198.79486,25.47185 L204.432393,25.47185 Z" id="Shape"></path>
        </g>
    </g>
</svg>