<?xml version="1.0" encoding="UTF-8"?>
<svg width="230px" height="230px" viewBox="0 0 230 230" version="1.1" xmlns="http://www.w3.org/2000/svg" xmlns:xlink="http://www.w3.org/1999/xlink">
    <!-- Generator: Sketch 50.2 (55047) - http://www.bohemiancoding.com/sketch -->
    <title>Artboard 2 Copy 11</title>
    <desc>Created with Sketch.</desc>
    <defs></defs>
    <g id="Artboard-2-Copy-11" stroke="none" stroke-width="1" fill="none" fill-rule="evenodd">
        <path d="M153.556198,36.4180827 C154.354942,36.8839069 154.62865,37.9154976 154.167572,38.7223234 L144.147608,56.2519267 C143.68653,57.0587694 142.665346,57.3351839 141.866601,56.8693597 C141.067689,56.4035524 140.793981,55.3719448 141.255226,54.5651696 L151.275024,37.0355156 C151.736101,36.2286898 152.75762,35.9523091 153.556198,36.4180827 Z M172.942169,61.5401174 C173.180975,62.4399023 172.658942,63.353114 171.768015,63.5943589 L152.377702,68.8423533 C151.486775,69.0834295 150.582322,68.55597 150.344017,67.6563538 C150.105379,66.7564171 150.627411,65.8432054 151.518004,65.6020786 L170.863227,60.3277027 C172.148767,60.2799666 172.255979,60.6729551 172.942169,61.5401174 Z M124.403096,33.2336407 L129.553272,52.7929259 C129.792077,53.6927445 129.270045,54.6059731 128.379118,54.847201 C127.488525,55.0883615 126.584072,54.5609863 126.345433,53.6612183 L121.149834,34.075535 C120.911196,33.1755983 121.433228,32.2623697 122.323988,32.0212261 C123.442531,31.9173197 123.883903,32.1752301 124.403096,33.2336407 Z M170.507524,91.1014991 C171.306102,91.5672727 171.579809,92.5988634 171.118732,93.4056892 C170.657487,94.2124813 169.636303,94.4888957 168.837558,94.0230715 L151.482767,83.9023261 C150.683856,83.4365188 150.410315,82.4049618 150.871393,81.598136 C151.33247,80.7913271 152.353989,80.5149464 153.152567,80.9807031 L170.507524,91.1014991 Z M137.244134,71.7033868 C138.001297,72.1450562 138.292372,73.242651 137.855342,74.0075938 L66.8817777,198.176034 C66.4444136,198.940825 65.3579335,199.235001 64.6006038,198.793399 L58.8156737,195.419817 C58.058511,194.978215 57.7674359,193.880621 58.2044661,193.115661 L129.177863,68.9472042 C129.615227,68.1824301 130.701874,67.8882875 131.459204,68.3298219 L137.244134,71.7033868 Z M115.550605,59.0524719 C116.349516,59.5182793 116.623057,60.5498362 116.161812,61.3566621 C115.700568,62.1634373 114.679383,62.4398517 113.880638,61.9740444 L96.525848,51.853299 C95.7269362,51.3874748 95.4533957,50.3559347 95.9146404,49.549092 C96.375885,48.7423168 97.3970694,48.4659024 98.1958143,48.9317265 L115.550605,59.0524719 Z M134.127977,73.7815807 L131.235429,72.0947898 L118.710682,94.0068783 L121.603063,95.6936355 L134.127977,73.7815807 Z M143.332831,92.7837694 L148.52843,112.369318 C148.767068,113.269221 148.245037,114.182618 147.354277,114.42366 C146.463684,114.664872 145.55923,114.137412 145.320425,113.237678 L140.124826,93.6520281 C139.886188,92.7522433 140.408219,91.8390147 141.299146,91.5977867 C142.578006,91.552412 142.672193,91.9219879 143.332831,92.7837694 Z M112.374496,74.7298777 C112.613134,75.6298144 112.091102,76.5430261 111.200175,76.7841191 L91.8100303,82.0321136 C90.9191033,82.2731897 90.0146496,81.7457302 89.7761784,80.846114 C89.5375402,79.9463291 90.0595717,79.0329656 90.9504987,78.7918726 L110.340811,73.5438781 C111.602971,73.4775872 111.938969,73.5556857 112.374496,74.7298777 Z" id="Shape" fill="#FFFFFF" fill-rule="nonzero"></path>
    </g>
</svg>