<svg width="230" height="230" viewBox="0 0 230 230" xmlns="http://www.w3.org/2000/svg"><title>4CB7973B-27C6-485D-8D6E-462304482AF1</title><g fill="#FFF" fill-rule="evenodd"><path d="M192.992 194.311a3.887 3.887 0 0 1-3.877 3.888H41.643a3.886 3.886 0 0 1-3.878-3.888v-62.33c0-2.152 1.739-3.903 3.878-3.903h147.472c2.137 0 3.877 1.751 3.877 3.904v62.329zm-79.13-74.018h3.882V112.5h-3.883v7.794zm75.253 0h-63.613v-11.689a3.884 3.884 0 0 0-3.877-3.897h-1.945V93.02c0-2.148 1.749-3.897 3.885-3.897h42.686c6.431 0 11.643-5.234 11.643-11.688 0-6.454-5.212-11.688-11.643-11.688H65.352a3.895 3.895 0 0 1 0-7.788h42.688c6.43 0 11.64-5.233 11.64-11.687V22.894c0-2.15-1.733-3.894-3.875-3.894a3.889 3.889 0 0 0-3.883 3.894v23.379a3.894 3.894 0 0 1-3.882 3.894H65.352c-6.43 0-11.642 5.233-11.642 11.687s5.213 11.688 11.642 11.688h100.899a3.892 3.892 0 0 1 3.885 3.894 3.895 3.895 0 0 1-3.885 3.897h-42.686c-6.43 0-11.643 5.232-11.643 11.688v11.686h-1.938a3.889 3.889 0 0 0-3.883 3.897v11.69H41.643c-6.42 0-11.643 5.238-11.643 11.688v62.329c0 6.445 5.224 11.688 11.643 11.688h147.472c6.417 0 11.643-5.243 11.643-11.688v-62.33c0-6.449-5.226-11.688-11.643-11.688z"/><path d="M146.85 151.453a3.897 3.897 0 0 1-3.884-3.892 3.897 3.897 0 0 1 3.884-3.893 3.893 3.893 0 0 1 0 7.785m0-15.58c-6.42 0-11.642 5.24-11.642 11.688 0 6.449 5.222 11.688 11.642 11.688 6.417 0 11.643-5.24 11.643-11.688 0-6.449-5.226-11.687-11.643-11.687M174.016 151.453a3.889 3.889 0 0 1-3.88-3.892 3.89 3.89 0 0 1 3.88-3.893c2.137 0 3.878 1.748 3.878 3.893 0 2.145-1.741 3.892-3.878 3.892m0-15.58c-6.424 0-11.642 5.24-11.642 11.688 0 6.449 5.218 11.688 11.642 11.688 6.417 0 11.643-5.24 11.643-11.688 0-6.449-5.226-11.687-11.643-11.687M146.85 178.732c-2.136 0-3.884-1.755-3.884-3.904a3.894 3.894 0 0 1 3.884-3.892 3.891 3.891 0 0 1 3.881 3.892c0 2.149-1.744 3.904-3.88 3.904m0-15.592c-6.421 0-11.643 5.25-11.643 11.688 0 6.45 5.222 11.687 11.642 11.687 6.417 0 11.643-5.238 11.643-11.687 0-6.438-5.226-11.688-11.643-11.688M174.016 178.732c-2.144 0-3.88-1.755-3.88-3.904a3.886 3.886 0 0 1 3.88-3.892 3.888 3.888 0 0 1 3.878 3.892c0 2.149-1.741 3.904-3.878 3.904m0-15.592c-6.424 0-11.642 5.25-11.642 11.688 0 6.45 5.218 11.687 11.642 11.687 6.417 0 11.643-5.238 11.643-11.687 0-6.438-5.226-11.688-11.643-11.688M88.637 167.044H76.995V178.732a3.89 3.89 0 0 1-3.883 3.892c-2.137 0-3.877-1.748-3.877-3.892V167.044H57.592c-2.142 0-3.882-1.751-3.882-3.904a3.89 3.89 0 0 1 3.882-3.891h11.643V147.56c0-2.145 1.74-3.893 3.877-3.893a3.891 3.891 0 0 1 3.883 3.893v11.688h11.642a3.892 3.892 0 0 1 3.883 3.891c0 2.153-1.746 3.904-3.883 3.904m0-15.591h-3.882v-3.892c0-6.456-5.213-11.687-11.643-11.687-6.43 0-11.643 5.231-11.643 11.687v3.892h-3.877c-6.43 0-11.64 5.239-11.64 11.687 0 6.46 5.21 11.688 11.64 11.688h3.877v3.904c0 6.448 5.213 11.687 11.643 11.687 6.43 0 11.643-5.239 11.643-11.687v-3.904h3.882c6.43 0 11.643-5.227 11.643-11.688 0-6.448-5.213-11.687-11.643-11.687M123.565 182.624H108.04a3.884 3.884 0 0 0-3.877 3.891c0 2.156 1.733 3.904 3.877 3.904h15.525c2.144 0 3.881-1.748 3.881-3.904a3.887 3.887 0 0 0-3.881-3.891"/></g></svg>
