<svg width="230" height="230" viewBox="0 0 230 230" xmlns="http://www.w3.org/2000/svg" xmlns:xlink="http://www.w3.org/1999/xlink"><title>0BD5F3F5-4801-408A-8DAF-F8E7D4F6EAD3</title><defs><path id="a" d="M69.369 198.524h69.369V0H0v198.524h69.369z"/></defs><g transform="translate(45 15)" fill="none" fill-rule="evenodd"><mask id="b" fill="#fff"><use xlink:href="#a"/></mask><path d="M84.038 33.672a12.524 12.524 0 0 0-2.756 4.415c-3.983-.261-7.875 1.198-10.69 4.128-.876.91-.844 2.361.07 3.235a2.313 2.313 0 0 0 3.251-.071c2.2-2.29 5.392-3.23 8.544-2.51a2.296 2.296 0 0 0 2.779-1.841 8.004 8.004 0 0 1 2.123-4.192c3.069-3.191 8.178-3.303 11.385-.247a7.923 7.923 0 0 1 2.484 5.61 7.933 7.933 0 0 1-2.234 5.719c-.397.414-.878.796-1.517 1.2a2.277 2.277 0 0 0-.687 3.171 4.465 4.465 0 0 1-.524 5.554 2.28 2.28 0 0 0 .073 3.234 2.282 2.282 0 0 0 1.586.634c.607 0 1.21-.238 1.662-.71a8.998 8.998 0 0 0 2.023-9.25 12.466 12.466 0 0 0 4.215-9.655 12.478 12.478 0 0 0-3.902-8.815c-5.043-4.799-13.065-4.623-17.885.391zm-36.275 10.93c-1.639.674-3.1 1.669-4.312 2.93a13.533 13.533 0 0 0-11.458-.522c-6.95 2.861-10.272 10.817-7.401 17.731a2.299 2.299 0 0 0 3.002 1.242 2.286 2.286 0 0 0 1.245-2.99c-1.903-4.585.3-9.86 4.908-11.756 2.944-1.206 6.247-.782 8.837 1.141.506.375 1.14.522 1.768.421a2.291 2.291 0 0 0 1.522-.99 8.053 8.053 0 0 1 3.643-2.983c4.1-1.686 8.819.265 10.515 4.348a2.298 2.298 0 0 0 3.002 1.24 2.282 2.282 0 0 0 1.246-2.987c-2.664-6.412-10.077-9.477-16.517-6.826zm78.043 29.296l-27.899 7.699-.046.014-14.218 3.925-68.758-11.55C9.92 72.447 4.592 66.426 4.592 59.303c0-6.878 4.795-12.844 11.401-14.184a2.308 2.308 0 0 0 1.517-1.073 2.274 2.274 0 0 0 .22-1.839 14.268 14.268 0 0 1-.63-4.197c0-7.912 6.469-14.349 14.42-14.349 3.56 0 6.987 1.318 9.648 3.71a2.311 2.311 0 0 0 2.947.113c4.33-3.33 10.233-4.054 15.246-1.828a2.31 2.31 0 0 0 2.365-.297c.671-.531.991-1.389.828-2.228a15.664 15.664 0 0 1-.294-2.98c0-8.587 7.021-15.575 15.65-15.575 6.429 0 12.297 4.028 14.602 10.018a2.303 2.303 0 0 0 2.82 1.37 15.726 15.726 0 0 1 4.586-.683c6.797 0 12.762 4.327 14.837 10.762a2.298 2.298 0 0 0 2.462 1.571c6.675.057 12.09 5.48 12.09 12.141 0 3.187-1.244 6.201-3.498 8.495a2.27 2.27 0 0 0-.561 2.254 2.305 2.305 0 0 0 1.71 1.58c4.636 1.007 7.139 8.223 7.183 11.81.048 3.913-3.455 8.11-8.335 10.005zm-8.477 34.66l-7.307 2.264 4.2-28.98 9.323-2.574-6.216 29.29zm-19.81 6.141l3.142-29.115 8.725-2.409-4.227 29.152-7.64 2.372zm-13.005 4.033L85.98 89.64l9.916-2.738-3.16 29.283-8.222 2.548zm26.557 19.321l-28.107 11.412 1.301-25.865 31.975-9.918-5.17 24.371zm-8.94 42.122l-2.362 1.331 5.171-36.023 4.984-2.025-7.792 36.717zm-12.439 7.013l4.011-37.144 6.305-2.56-5.291 36.87-5.025 2.834zm-4.923 2.775l-3.958 2.234 1.898-37.69 6.158-2.5-4.098 37.956zm-23.107-75.33L60.278 86.25l21.091 3.543-1.473 29.228-18.234-4.387zM36.689 82.288l18.949 3.181 1.367 28.043-17.66-4.247-2.656-26.977zm41.644 67.733l-53.668-13.839-3.965-26.698 15.46 3.717c.326.174.678.3 1.067.3.048 0 .096-.005.147-.007l42.288 10.174-1.329 26.353zm-2.181 43.34l-12.005-2.907-1.529-39.76 15.483 3.99-1.95 38.678zm-29.253-7.083l-4.12-40.7 15.194 3.917 1.53 39.836-12.604-3.053zm-15.347-3.715l-6.158-41.465 12.64 3.257 4.125 40.777-10.607-2.569zm-11.573-77.96l-3.827-25.767 15.84 2.66 2.623 26.63-14.636-3.523zm111.169-55.679a16.527 16.527 0 0 0 2.758-9.167c0-8.667-6.656-15.813-15.326-16.623-3.094-7.495-10.399-12.43-18.66-12.43-1.326 0-2.645.131-3.944.387C92.57 4.383 85.548 0 77.915 0 66.75 0 57.667 9.04 57.667 20.15v.132c-5.043-1.169-10.472-.247-14.848 2.523a19.012 19.012 0 0 0-11.295-3.72c-10.486 0-19.016 8.491-19.016 18.924 0 1.091.095 2.175.283 3.246C5.257 43.825 0 51.07 0 59.302c0 8.294 5.418 15.259 11.304 18.16l4.36 29.367v.009l4.678 31.501c0 .007 0 .012.002.019l6.889 46.396c.138.92.82 1.668 1.73 1.887l48.802 11.817c.115.027.23.032.343.041.03.002.053.02.085.023.039.002.076.002.115.002h.007c.26-.002.512-.06.758-.146.064-.025.127-.048.189-.078.06-.027.124-.041.179-.07l25.858-14.583c.572-.325.98-.876 1.115-1.516l22.173-104.484c6.085-2.8 10.215-8.301 10.15-13.805-.048-4.094-2.353-11.672-7.589-14.918z" fill="#FFF" mask="url(#b)"/></g></svg>
