<?xml version="1.0" encoding="UTF-8"?>
<svg width="230px" height="230px" viewBox="0 0 230 230" version="1.1" xmlns="http://www.w3.org/2000/svg" xmlns:xlink="http://www.w3.org/1999/xlink">
    <!-- Generator: Sketch 43.2 (39069) - http://www.bohemiancoding.com/sketch -->
    <title>Group 8</title>
    <desc>Created with Sketch.</desc>
    <defs></defs>
    <g id="Page-1" stroke="none" stroke-width="1" fill="none" fill-rule="evenodd">
        <g id="2" transform="translate(-1052.000000, -455.000000)" fill="#FFFFFF">
            <g id="Group-8" transform="translate(1052.000000, 455.000000)">
                <path d="M33.2421803,103.979318 L33.2421803,38.5129912 C33.2421803,37.4780767 34.1118484,36.6347434 35.1790804,36.6347434 L61.9063648,36.6347434 L61.9063648,72.6332408 C61.9063648,76.7766555 65.3792267,80.146232 69.6539652,80.146232 L164.565944,80.146232 C168.836809,80.146232 172.313544,76.7766555 172.313544,72.6332408 L172.313544,36.6347434 L183.113699,36.6347434 L201.62078,56.6512303 L201.62078,103.97744 L33.2421803,103.97744 L33.2421803,103.979318 Z M201.62078,203.487009 C201.62078,204.521923 200.751112,205.365257 199.68388,205.365257 L35.1790804,205.365257 C34.1118484,205.365257 33.2421803,204.521923 33.2421803,203.487009 L33.2421803,175.144249 L201.62078,175.144249 L201.62078,203.487009 Z M33.2421803,169.511384 L201.62078,169.511384 L201.62078,109.614062 L33.2421803,109.614062 L33.2421803,169.511384 Z M79.5883258,36.6347434 L79.5883258,74.5114886 L69.6539652,74.5114886 C68.5828595,74.5114886 67.7170651,73.6700336 67.7170651,72.6332408 L67.7170651,36.6347434 L79.5883258,36.6347434 Z M136.802418,66.8426028 L145.355769,66.8426028 C148.030628,66.8426028 150.198019,64.5041843 150.198019,61.6173174 L150.198019,36.6347434 L166.502844,36.6347434 L166.502844,72.6332408 C166.502844,73.6700336 165.633176,74.5114886 164.565944,74.5114886 L85.3990261,74.5114886 L85.3990261,36.6347434 L131.960168,36.6347434 L131.960168,61.6173174 C131.960168,64.5041843 134.127559,66.8426028 136.802418,66.8426028 L136.802418,66.8426028 Z M185.709145,31 L172.313544,31 L61.9063648,31 L35.1790804,31 C30.9082157,31 27.43148,34.3714548 27.43148,38.5129912 L27.43148,103.97744 L27.43148,175.144249 L27.43148,203.487009 C27.43148,207.628545 30.9082157,211 35.1790804,211 L199.68388,211 C203.954744,211 207.43148,207.628545 207.43148,203.487009 L207.43148,175.144249 L207.43148,103.97744 L207.43148,54.49688 L185.709145,31 Z M159.35762,129.68314 L159.35762,139.294134 L168.974329,139.294134 L168.974329,144.842478 L159.35762,144.842478 L159.35762,154.494793 L153.490749,154.494793 L153.490749,144.842478 L143.870166,144.842478 L143.870166,139.294134 L153.490749,139.294134 L153.490749,129.68314 L159.35762,129.68314 Z M119.271535,129.68314 L119.271535,139.294134 L128.888244,139.294134 L128.888244,144.842478 L119.271535,144.842478 L119.271535,154.494793 L113.404665,154.494793 L113.404665,144.842478 L103.784082,144.842478 L103.784082,139.294134 L113.404665,139.294134 L113.404665,129.68314 L119.271535,129.68314 Z M83.4853688,142.890978 L92.8715867,142.890978 C92.5907362,146.83342 91.1613039,149.893086 88.5774792,152.066219 C85.9936545,154.24123 82.4898022,155.326857 78.0794807,155.326857 C73.1307009,155.326857 69.2414055,153.921927 66.4057838,151.110191 C63.5720989,148.300332 62.1542881,144.449924 62.1542881,139.558967 C62.1542881,134.681157 63.5585406,130.834505 66.3651089,128.017134 C69.1716771,125.197884 73.0009286,123.791076 77.8509265,123.791076 C82.319355,123.791076 85.8367656,124.83726 88.4012213,126.929628 C90.9618032,129.021996 92.3989831,132.012167 92.7069502,135.90014 L83.2161397,135.90014 C83.0766829,134.371246 82.5653413,133.214245 81.6840518,132.434773 C80.806636,131.657178 79.5689568,131.266502 77.976825,131.266502 C76.0360511,131.266502 74.5795022,131.953941 73.6071783,133.330697 C72.6348545,134.703696 72.1506295,136.781038 72.1506295,139.557088 C72.1506295,142.280548 72.6697187,144.340985 73.7020864,145.734645 C74.7344542,147.130183 76.251047,147.827013 78.2499279,147.827013 C79.7858897,147.827013 81.0041998,147.400651 81.9087322,146.546048 C82.80358,145.695202 83.3304168,144.476219 83.4853688,142.890978 L83.4853688,142.890978 Z" id="Page-1"></path>
            </g>
        </g>
    </g>
</svg>