<?xml version="1.0" encoding="UTF-8" standalone="no"?>
<svg width="230px" height="230px" viewBox="0 0 230 230" version="1.1" xmlns="http://www.w3.org/2000/svg" xmlns:xlink="http://www.w3.org/1999/xlink">
    <!-- Generator: sketchtool 39.1 (31720) - http://www.bohemiancoding.com/sketch -->
    <title>939C3478-E42C-445A-98DA-57B9B64183B9</title>
    <desc>Created with sketchtool.</desc>
    <defs></defs>
    <g id="Page-1" stroke="none" stroke-width="1" fill="none" fill-rule="evenodd">
        <g id="8" transform="translate(-233.000000, -458.000000)" fill="#FFFFFF">
            <g id="Group-2" transform="translate(178.000000, 405.000000)">
                <g id="Group-13">
                    <g id="Group-17">
                        <g id="noun_281803_cc">
                            <g id="noun_574575_cc" transform="translate(55.000000, 53.000000)">
                                <path d="M160.878921,205.942798 L157.277319,210.968611 L151.425291,209.050502 L151.425291,202.837399 L157.277319,200.91468 L160.878921,205.942798 L160.878921,205.942798 Z M155.750903,191.397911 C163.772654,191.397911 170.297964,197.922246 170.297964,205.945103 C170.297964,213.965655 163.77496,220.48999 155.750903,220.48999 C147.729152,220.48999 141.206148,213.965655 141.206148,205.945103 C141.208454,197.922246 147.731458,191.397911 155.750903,191.397911 L155.750903,191.397911 Z M143.332062,205.942798 C143.332062,207.130089 143.553415,208.257438 143.862387,209.347901 L149.038826,210.627409 L148.646846,216.107389 C150.579076,217.456059 152.907897,218.262956 155.425791,218.325202 L158.229599,213.822719 L163.182378,215.833044 C165.09155,214.396768 166.55571,212.437163 167.383479,210.152493 L163.834909,205.945103 L167.383479,201.735409 C166.534958,199.393103 165.024683,197.389695 163.05095,195.946502 L157.82609,198.065182 L155.047645,193.599586 C152.670403,193.735606 150.473011,194.50331 148.635317,195.787429 L149.038826,201.410345 L143.809355,202.703685 C143.534969,203.743429 143.332062,204.813143 143.332062,205.942798 L143.332062,205.942798 Z M31.7354216,210.076414 C33.5454459,208.612473 37.0363716,204.460414 38.9132629,202.228768 C39.5796285,201.433399 40.0569215,200.870877 40.2137134,200.714108 C40.8109062,200.11931 45.5261922,194.61397 46.6006779,192.285498 C47.2578205,190.86536 49.1669925,187.520197 51.013909,184.283389 C52.5472416,181.597576 53.995261,179.05931 54.6016767,177.84666 C56.0035808,175.043271 60.2069874,168.569655 64.244379,166.444059 C67.5831244,164.685025 73.2691368,157.628138 74.5350009,155.726167 C75.6971056,153.985576 80.486176,145.912 81.4038699,142.979507 C81.9434185,141.243527 83.7396081,138.465498 85.6418629,135.526089 C87.3250701,132.91866 89.0636157,130.225931 89.5939413,128.729714 C90.0205075,127.521675 90.9451186,125.451409 92.0172985,123.056079 C93.5068217,119.724749 96.0039634,114.145635 95.9624596,113.069005 C95.7918331,111.397576 97.5188499,109.281202 99.7946383,106.689911 C100.32727,106.078975 100.993635,105.322798 101.097395,105.124532 C101.417896,104.329163 101.636943,99.9419507 101.798347,96.7328079 C101.950527,93.6619901 102.907419,88.006798 103.350125,85.5261675 C101.152733,85.2656552 96.5642639,84.6823842 94.0625106,84.0852808 C93.4376488,83.9354286 93.0687266,83.9054581 92.870431,83.9054581 L92.6260201,83.9423448 C92.450782,84.0414778 92.1095291,84.1498325 91.9089277,84.1498325 C91.2679255,84.1498325 90.979705,83.8224631 90.2049685,82.9510148 C87.7862228,80.2260099 90.2303319,73.245202 93.3246664,67.6222857 C96.6334368,61.6051429 103.036542,50.6705419 106.059397,47.8648473 C109.031526,45.1098719 116.064104,42.5439409 119.365958,41.5733596 C121.07914,41.0684729 122.663199,41.0431133 123.931369,41.0200591 C124.76375,41.0039212 125.480842,40.9923941 126.061894,40.8655961 C126.384701,40.7918227 126.629112,40.6926897 126.838937,40.5520591 C128.319237,39.5653399 130.122344,37.066266 129.665802,34.9314483 C129.46059,33.9770049 129.142394,33.0709754 128.838033,32.1949163 C128.280039,30.5995665 127.752019,29.0918227 127.89267,27.3927291 L127.915728,27.111468 C128.559036,18.7750739 132.162944,14.1296552 138.625999,13.3066207 C140.196224,13.1014384 141.681135,13 143.032313,13 C149.705192,13 152.638123,15.4529655 154.443535,17.5923941 C157.032908,20.6539901 157.408747,28.9511921 155.808547,33.1470542 C154.574964,36.3907783 154.644137,37.85933 154.697169,38.9290443 C154.708698,39.15267 154.717921,39.3578522 154.717921,39.5538128 C154.717921,41.1814384 153.703385,42.9888867 152.299175,43.2102069 C152.121632,43.5952118 151.872609,44.5427389 151.630504,45.4649064 L151.369953,46.470069 C151.12093,47.4014581 150.954915,48.0654187 150.841933,48.5311133 C152.400629,48.8446502 155.183685,49.674601 158.312606,51.8532217 C161.536063,54.0963941 162.864183,58.269202 164.035511,61.9532611 C164.611952,63.7722365 165.158418,65.487468 165.840924,66.6032906 C166.237515,67.2511133 166.677916,67.9473498 167.145986,68.6804729 C169.225784,71.9449458 171.817462,76.009399 172.97265,80.1314877 C173.634404,82.4922365 174.697361,85.4915862 175.633501,88.1359015 C176.657259,91.0361182 177.544978,93.539803 177.858562,94.9968276 C178.372747,97.3967685 179.550992,103.725143 179.78618,106.360236 C179.795403,106.436315 179.813849,106.510089 179.806932,106.590778 C179.823073,106.79135 179.832296,106.973478 179.832296,107.116414 C179.832296,107.515251 179.929138,108.068552 180.030591,108.702542 C180.39029,110.918049 180.932145,114.267823 178.873098,116.142128 C176.34137,118.440631 172.642925,121.167941 170.274906,120.697635 C167.572552,120.158167 165.677214,116.400335 165.465084,113.230384 C165.324433,111.125537 166.297465,110.286365 166.943078,109.728453 C167.411148,109.3227 167.604833,109.156709 167.604833,108.478916 L167.607138,107.930227 C167.618667,105.315882 167.641725,100.940197 165.628793,97.5858128 C163.313807,93.7311527 161.545286,90.0171232 159.670701,86.0840788 L159.539272,85.8074286 C158.169649,82.9394877 155.99762,79.1424631 154.870102,77.2128276 C153.239927,78.8658128 150.09256,82.4668768 149.034215,86.575133 C147.390205,92.9426995 145.594016,101.498108 145.946797,104.656532 C146.085143,105.901458 146.276522,106.839764 146.421785,107.570581 C146.707699,108.993025 146.93597,110.115764 146.006747,111.047153 C145.633214,111.418325 145.146698,111.727251 144.563339,111.962404 C144.533365,111.976236 144.505695,111.987764 144.478026,111.996985 C144.826196,112.932985 145.561735,114.456867 147.042035,116.20668 C147.819077,117.121931 148.812861,118.223921 149.878124,119.404296 C152.621982,122.445143 155.734763,125.889438 157.14589,128.356236 L158.008245,129.836315 C159.938169,133.119232 162.126339,136.840177 162.020274,139.673537 C161.916514,142.548394 160.470801,150.105557 156.663985,155.124453 C154.750202,157.644276 154.505791,159.421754 154.24524,161.305281 C154.051556,162.713892 153.85326,164.168611 152.983987,165.858483 C151.16474,169.388079 148.642235,172.710187 144.828502,177.736 L142.308303,181.051192 C138.609858,185.897182 135.116627,190.475744 133.986803,193.221498 C131.48505,199.291665 130.055476,201.103724 128.778084,201.451842 C128.778084,201.585557 128.780389,201.733103 128.782695,201.859901 C128.810364,202.906562 128.849562,204.485773 127.814274,205.917438 C127.323147,206.595232 126.882746,207.572729 126.458486,208.520256 C125.556932,210.535192 124.620792,212.61468 122.718537,212.808335 C120.770167,213.025044 119.681847,212.031409 118.104705,210.645852 C117.585908,210.187074 116.98641,209.654522 116.239342,209.059724 C115.280145,208.289714 114.567664,207.925458 113.995835,207.628059 C112.706913,206.964099 111.936788,206.401576 112.112026,204.181458 C112.335685,201.313517 114.595333,198.602345 116.658991,196.135547 L116.829618,195.930365 C118.681146,193.712552 120.781696,191.19734 123.387209,187.105222 C125.720641,183.441911 129.243848,177.906601 129.243848,175.455941 C129.243848,172.592611 130.611165,166.501695 131.835526,162.824552 C132.474222,160.906443 134.42951,158.266739 136.315624,155.71464 C136.659183,155.248946 137.053468,154.7187 137.440836,154.179232 C137.007353,154.322167 136.541589,154.409773 136.036627,154.409773 C133.244347,154.409773 132.280538,151.836926 131.579586,149.953399 C131.261391,149.105005 130.933972,148.22664 130.553521,147.843941 C129.137783,146.430719 123.864502,143.009478 122.282748,142.218719 C121.837736,141.995094 121.540292,141.759941 121.323551,141.58934 C121.277435,141.552453 121.235932,141.520177 121.252072,141.501734 C120.922348,141.587034 120.080744,142.071172 118.752625,142.933399 C114.420095,145.750621 111.36957,150.375291 110.539495,151.726266 C110.052979,152.514719 109.665611,153.307783 109.319747,154.013241 C108.445862,155.790719 107.689572,157.328433 106.057092,157.328433 C104.894987,157.328433 100.532483,156.938818 98.9345886,156.793576 C97.0484742,158.93531 89.0105831,167.9933 86.3612611,170.289498 C78.9689838,176.693951 76.5525438,179.2253 75.8308399,180.218936 C74.3274821,182.291507 66.0590148,191.591567 62.5865352,194.44798 C61.7633777,195.128079 60.9471375,195.771291 60.1470376,196.407586 C57.7582667,198.29803 55.4986187,200.087034 53.3703991,202.503113 C51.9154624,204.153793 51.0554127,205.9013 50.2991223,207.443626 C49.5843357,208.898345 48.9110528,210.270069 47.8688478,211.314424 C47.096417,212.089044 46.3355151,213.380079 45.5999766,214.62731 C44.5693004,216.377123 43.5962683,218.027803 42.3603791,218.712512 C40.8247407,219.563212 38.2999299,220.072709 35.6044925,220.072709 C35.1064476,220.072709 34.6084028,220.054266 34.1241925,220.02199 C33.2341678,219.959744 32.4502083,219.980493 31.751562,220.003547 C30.2620388,220.049655 28.9615883,220.139567 27.56199,219.268118 C27.0016895,218.915389 26.6696596,218.339034 26.6281558,217.642798 C26.4828927,215.173695 30.075272,211.413557 31.7354216,210.076414 L31.7354216,210.076414 Z M147.489353,145.441695 C151.642033,142.848099 157.653158,141.884433 159.497769,141.637754 C159.626891,140.817025 159.712205,140.086207 159.730651,139.574404 C159.735262,139.514463 159.716816,139.438384 159.716816,139.376138 C157.996717,139.117931 153.761029,138.758286 150.479928,140.805498 C147.261083,142.815823 142.834017,146.889498 140.532865,149.084256 C140.5467,149.084256 140.555923,149.07734 140.569757,149.07734 C140.738078,149.07734 141.434419,149.137281 141.729556,149.909596 C143.421987,148.390325 145.453364,146.716591 147.489353,145.441695 L147.489353,145.441695 Z M151.84494,40.9693399 C152.020178,40.8655961 152.419075,40.2246897 152.419075,39.5538128 C152.419075,39.3947389 152.409852,39.2241379 152.400629,39.0397044 C152.345291,37.8385813 152.255366,36.0219113 153.664187,32.330936 C154.249851,30.7932217 154.487345,28.6514877 154.45737,26.5120591 C153.080829,26.104 150.722033,25.4492611 148.109603,24.9535961 C144.021485,24.1743645 143.050759,26.1224433 141.685747,27.8745616 C140.320735,29.6266798 139.737377,31.962069 138.960334,34.103803 C138.180986,36.2455369 137.982691,34.6893793 137.205649,34.6893793 C136.428606,34.6893793 137.205649,32.7389951 135.257279,30.2122562 C133.788507,28.3056749 131.881641,30.3759409 131.028509,31.5125123 C131.351315,32.430069 131.68104,33.3822069 131.90931,34.4473103 C132.619485,37.7555862 130.115426,41.123803 128.114024,42.4586404 C128.102495,42.4655567 128.08866,42.4701675 128.077132,42.4770837 C128.399938,46.5484532 129.691166,53.1235074 131.911616,54.2923547 C137.051162,56.9989163 140.950208,57.9418325 142.612664,56.8744236 C144.003039,55.9822266 144.189806,53.5638424 144.11141,52.0307389 C143.5073,51.943133 142.884744,51.8048079 142.227601,51.5419901 C141.494368,51.249202 140.864895,51.0232709 140.318429,50.8296158 C137.676024,49.8959212 136.5462,49.3841182 134.985198,46.0896749 C134.710813,45.5064039 134.957529,44.8101675 135.543193,44.5335172 C136.124246,44.2591724 136.822892,44.5058522 137.099583,45.0891232 C138.303192,47.6343054 138.840435,47.8279606 141.100083,48.6256355 C141.671912,48.8285123 142.326749,49.0613596 143.094568,49.3679803 C145.68394,50.4031133 147.724541,49.2826798 148.43241,48.7985419 C148.556922,48.1806897 148.785192,47.2262463 149.147197,45.8706601 L149.407748,44.87933 C150.074114,42.3387586 150.459176,40.8217931 151.84494,40.9693399 L151.84494,40.9693399 Z M170.902074,118.452158 C172.117211,118.452158 174.639717,116.875251 177.328237,114.433813 C178.467284,113.39868 178.061469,110.89269 177.764026,109.062187 C177.76172,109.048355 177.759414,109.036828 177.759414,109.022995 C177.111495,109.421833 176.302172,109.749202 175.264578,109.829892 C174.381471,109.899054 173.417662,109.922108 172.525332,109.922108 C171.277914,109.922108 170.187287,109.876 169.640822,109.85064 C169.338767,110.639094 168.831499,111.120926 168.439519,111.457517 C167.923028,111.902463 167.690146,112.10534 167.754707,113.0667 C167.934557,115.747901 169.530145,118.198562 170.902074,118.452158 L170.902074,118.452158 Z M146.809153,85.9895567 C148.437022,79.6773202 154.134563,74.7114483 154.374362,74.506266 C154.630302,74.2849458 154.973861,74.1881182 155.305891,74.2434483 C155.642532,74.2964729 155.933058,74.4947389 156.108296,74.7852217 C156.251254,75.0249852 159.663784,80.7193695 161.612154,84.8114877 L161.745888,85.0858325 C163.59511,88.9704631 165.342879,92.6360788 167.597915,96.3939113 C169.8322,100.119468 169.912902,104.785635 169.903679,107.524473 C170.90438,107.570581 173.226284,107.648966 175.087035,107.501419 C176.495856,107.390759 177.206031,106.572335 177.468888,106.189635 C177.20142,103.722837 176.182272,98.1252808 175.612749,95.4740493 C175.333751,94.162266 174.427586,91.6055567 173.468389,88.8989951 C172.52072,86.2200985 171.443929,83.1838621 170.761423,80.7470345 C169.698466,76.9523153 167.208241,73.046936 165.209144,69.9115665 C164.731851,69.1669163 164.282228,68.4568473 163.878719,67.7974975 C163.053256,66.4465222 162.467592,64.5998818 161.845036,62.6471921 C160.782079,59.3135567 159.580776,55.53267 156.998321,53.7367488 C153.671105,51.419803 150.821181,50.8296158 149.825091,50.6843744 C149.230204,51.0947389 148.028902,51.7794483 146.442537,52.0330443 C146.514015,53.8773793 146.294968,57.2847882 143.876222,58.8409458 C143.034618,59.3804138 142.003942,59.6524532 140.765747,59.6524532 C138.287052,59.6524532 134.994422,58.5596847 130.823296,56.3603153 C127.177884,54.4445123 126.068812,46.0481773 125.794426,43.2032906 C125.208762,43.2678424 124.604652,43.3024236 123.970567,43.3139507 C122.720843,43.3346995 121.42731,43.3577537 120.011571,43.7727291 C116.516034,44.7986404 110.066814,47.2769655 107.618093,49.547803 C105.171678,51.8140296 99.534087,61.0795074 95.3329862,68.7265813 C91.456998,75.7742463 91.0050684,80.3966108 91.9204565,81.427133 C92.0080755,81.5239606 92.0818599,81.6092611 92.148727,81.6830345 C92.6744411,81.5608473 93.4952928,81.5908177 94.595142,81.85133 C97.1845142,82.4691823 102.35173,83.0985616 104.168671,83.3106601 C104.200952,83.3106601 104.228621,83.2968276 104.263208,83.3014384 C107.491276,83.7141084 117.041748,82.9648473 120.37127,82.6858916 L120.080744,79.3706995 C119.917035,77.4917833 120.071521,76.1661675 120.357436,75.2370837 C109.499596,74.4647685 103.532281,73.5241576 102.609975,72.4290837 C102.194938,71.9357241 102.199549,71.1426601 102.692983,70.7299901 C103.186416,70.3127094 103.864311,70.321931 104.279348,70.8152906 C104.837343,71.1611034 107.228419,71.5691626 110.447265,71.9564729 C111.570172,71.3063448 113.795233,69.7294384 114.277138,68.0441773 C115.061097,65.3122562 116.426109,60.8236059 116.426109,60.8236059 L118.6627,61.5037044 C118.6627,61.5037044 117.304605,65.9716059 116.525257,68.6873892 C116.105608,70.1536355 115.008065,71.3962562 113.917439,72.3345616 C116.539092,72.5950739 119.412073,72.8348374 122.188212,73.0215764 C122.900693,72.705734 124.689965,72.0832709 127.539889,72.2584828 C128.164751,72.2953695 128.803447,72.309202 129.414474,72.3230345 C131.812468,72.38067 133.703194,72.4267783 134.556327,73.6002365 C134.826101,73.9714089 135.088958,74.6077044 134.819184,75.5091232 C134.662392,76.037064 134.918331,77.3396256 135.12585,78.3839803 C135.554722,80.5464631 136.038932,82.9994286 134.2658,83.9838424 C132.405049,85.01667 129.428309,85.0950542 128.559036,85.0950542 L128.559036,85.0950542 C127.618285,85.0950542 126.758235,85.0235862 126.068812,84.8852611 C124.978186,84.6662463 123.758437,83.9861478 122.766959,83.3291034 L122.794628,83.6449458 C122.849966,84.2835468 122.377285,84.8483744 121.736282,84.9106207 C121.286658,84.9521182 112.464808,85.7497931 106.98862,85.7497931 C106.50441,85.7497931 106.06862,85.738266 105.642054,85.7244335 C105.231628,88.0367685 104.235539,93.8464236 104.08797,96.8480788 C103.89198,100.781123 103.737494,103.517655 103.463108,105.032315 C105.130175,105.477261 108.351326,106.420177 110.687064,107.6213 C113.961248,109.304256 119.077737,113.7053 126.882746,113.917399 C132.43733,114.071862 139.379983,112.534148 142.029306,111.888631 C141.948604,111.58201 141.916323,111.395271 141.911712,111.3653 C141.81487,110.740532 142.248353,110.15265 142.875521,110.055823 C142.880132,110.055823 143.2675,109.995882 143.694067,109.818365 C143.989204,109.698483 144.224392,109.555547 144.365044,109.431054 C144.413465,109.255842 144.279731,108.591882 144.162137,108.006305 C144.005345,107.229379 143.804743,106.226522 143.657174,104.891685 C143.179881,100.54136 145.949103,89.3231921 146.809153,85.9895567 L146.809153,85.9895567 Z M132.552618,74.9396847 C131.980789,74.72067 130.424399,74.6860887 129.359136,74.6607291 C128.720439,74.6445911 128.058685,74.6284532 127.399237,74.5915665 C125.494677,74.4809064 124.166557,74.7944433 123.493274,75.0226798 L122.861495,80.5141872 C123.774577,81.2242562 125.423198,82.3769655 126.53227,82.5959803 C127.062596,82.704335 127.788911,82.7619704 128.563648,82.7619704 C130.44515,82.7619704 132.239034,82.4392118 133.108307,81.9642956 C133.378081,81.5839015 133.027605,79.7995074 132.836227,78.8381478 C132.552618,77.4087882 132.282844,76.0578128 132.552618,74.9396847 L132.552618,74.9396847 Z M156.032206,130.986719 L155.644838,130.322759 C153.724137,129.86398 150.452259,129.301458 148.109603,130.082995 C144.604843,131.249537 141.489757,133.393576 137.597628,137.091468 C133.703194,140.78936 135.259584,146.241675 135.259584,146.241675 L138.453067,147.834719 C140.625096,145.739094 145.570958,141.116729 149.241733,138.825143 C152.672709,136.681103 156.783885,136.699547 159.140375,136.950837 C158.41406,135.051172 157.141278,132.870246 156.032206,130.986719 L156.032206,130.986719 Z M134.016778,163.536926 C132.875425,166.967389 131.545,172.913064 131.545,175.439803 C131.545,178.323882 128.727357,182.980828 125.328662,188.322483 C123.746908,190.807724 122.354227,192.714305 121.086057,194.330404 C122.351921,194.524059 124.279539,194.892926 125.720641,195.49464 C127.251668,196.130936 127.858084,198.007547 128.097883,199.23403 C128.107106,199.236335 128.114024,199.231724 128.123247,199.23403 C128.381492,199.114148 129.421392,198.268059 131.867806,192.3293 C133.112919,189.304591 136.696075,184.608453 140.48675,179.642581 L143.004643,176.332 C146.746897,171.400709 149.218676,168.143153 150.945692,164.791074 C151.635116,163.44932 151.794213,162.303527 151.974063,160.977911 C152.248449,158.979113 152.559727,156.717498 154.835515,153.718148 C156.963735,150.914759 158.291854,147.140788 159.020476,144.06997 C156.760828,144.42731 151.987897,145.381754 148.725242,147.424355 C144.245144,150.225438 139.469908,155.350384 139.421487,155.401103 L139.396124,155.375744 C139.015673,155.903685 138.628305,156.440847 138.164846,157.06331 C136.47011,159.361813 134.542492,161.962325 134.016778,163.536926 L134.016778,163.536926 Z M96.0846651,156.535369 C89.0958964,155.746916 81.0626169,153.063409 79.2133947,152.420197 C78.0005632,154.529655 76.8984083,156.31866 76.4464787,156.998759 C75.6878825,158.137635 72.9094377,161.729478 69.9695894,164.689635 C70.0525969,166.522443 70.5575591,170.423212 72.2177087,172.085419 C74.0023695,173.867507 77.2788592,174.231764 78.3971545,174.305537 C80.096502,172.72402 82.2270274,170.822049 84.8648206,168.537379 C87.0160978,166.672296 93.2024609,159.776788 96.0846651,156.535369 L96.0846651,156.535369 Z M76.2320427,176.371192 C74.4589107,176.036906 72.1577588,175.326837 70.5667821,173.733793 C68.8120962,171.981675 68.1019211,168.876276 67.8137007,166.702266 C67.518563,166.951251 67.2280368,167.188709 66.9398164,167.407724 C66.9813201,169.076847 67.4470843,173.346483 69.1994645,175.103212 C70.9472331,176.850719 74.1199634,177.231113 75.3005143,177.316414 C75.5749001,177.025931 75.8907897,176.710089 76.2320427,176.371192 L76.2320427,176.371192 Z M51.6502996,200.960788 C53.916865,198.394857 56.2526033,196.543606 58.7243816,194.586305 C59.5152584,193.961537 60.3130525,193.327547 61.126987,192.658975 C64.1521485,190.164512 71.3023206,182.206207 73.5158535,179.446621 C71.7127465,179.14 69.2317452,178.436847 67.5485379,176.753892 C65.5494411,174.755094 64.9061331,171.011094 64.6963087,168.878581 C61.5212725,170.964985 57.9542566,176.27667 56.6561119,178.872571 C56.0220269,180.142857 54.560173,182.704177 53.0107,185.419961 C51.1868412,188.612966 49.3053383,191.914325 48.6896995,193.249163 C47.4215297,195.988 42.3626849,201.816099 41.8392766,202.334818 C41.6963193,202.477754 41.2720588,202.989557 40.6702546,203.704236 C40.3382247,204.100768 39.9485507,204.566463 39.5312075,205.055212 C40.3290016,205.488631 41.1060439,206.470739 41.9937628,208.079921 C42.7800281,209.502365 45.3417311,209.082778 47.0572191,208.607862 C47.4630334,207.971567 47.8342613,207.233833 48.2377699,206.410798 C49.0609274,204.739369 49.99015,202.844315 51.6502996,200.960788 L51.6502996,200.960788 Z" id="Shape"></path>
                            </g>
                        </g>
                    </g>
                </g>
            </g>
        </g>
    </g>
</svg>