<?xml version="1.0" encoding="UTF-8" standalone="no"?>
<svg width="230px" height="230px" viewBox="0 0 230 230" version="1.1" xmlns="http://www.w3.org/2000/svg" xmlns:xlink="http://www.w3.org/1999/xlink">
    <!-- Generator: sketchtool 39.1 (31720) - http://www.bohemiancoding.com/sketch -->
    <title>95A835EC-5C21-4587-9D40-24A3496C5DEB</title>
    <desc>Created with sketchtool.</desc>
    <defs></defs>
    <g id="Page-1" stroke="none" stroke-width="1" fill="none" fill-rule="evenodd">
        <g id="2" transform="translate(-1053.000000, -464.000000)" fill="#FFFFFF">
            <g id="Group-8" transform="translate(1053.000000, 464.000000)">
                <path d="M18.2106303,96.1425381 L18.2106303,19.7651564 C18.2106303,18.5577561 19.2252432,17.5738673 20.4703471,17.5738673 L51.652179,17.5738673 L51.652179,59.5721143 C51.652179,64.406098 55.7038512,68.3372707 60.6910461,68.3372707 L171.421688,68.3372707 C176.404363,68.3372707 180.460555,64.406098 180.460555,59.5721143 L180.460555,17.5738673 L193.060736,17.5738673 L214.65233,40.9264353 L214.65233,96.1403468 L18.2106303,96.1403468 L18.2106303,96.1425381 Z M214.65233,212.234844 C214.65233,213.442244 213.637717,214.426133 212.392613,214.426133 L20.4703471,214.426133 C19.2252432,214.426133 18.2106303,213.442244 18.2106303,212.234844 L18.2106303,179.168291 L214.65233,179.168291 L214.65233,212.234844 Z M18.2106303,172.596615 L214.65233,172.596615 L214.65233,102.716405 L18.2106303,102.716405 L18.2106303,172.596615 Z M72.2811335,17.5738673 L72.2811335,61.7634034 L60.6910461,61.7634034 C59.4414227,61.7634034 58.4313293,60.7817059 58.4313293,59.5721143 L58.4313293,17.5738673 L72.2811335,17.5738673 Z M139.030908,52.81637 L149.009817,52.81637 C152.130486,52.81637 154.659109,50.088215 154.659109,46.7202037 L154.659109,17.5738673 L173.681405,17.5738673 L173.681405,59.5721143 C173.681405,60.7817059 172.666792,61.7634034 171.421688,61.7634034 L79.0602838,61.7634034 L79.0602838,17.5738673 L133.381616,17.5738673 L133.381616,46.7202037 C133.381616,50.088215 135.910239,52.81637 139.030908,52.81637 L139.030908,52.81637 Z M196.088756,11 L180.460555,11 L51.652179,11 L20.4703471,11 C15.4876716,11 11.43148,14.9333639 11.43148,19.7651564 L11.43148,96.1403468 L11.43148,179.168291 L11.43148,212.234844 C11.43148,217.066636 15.4876716,221 20.4703471,221 L212.392613,221 C217.375288,221 221.43148,217.066636 221.43148,212.234844 L221.43148,179.168291 L221.43148,96.1403468 L221.43148,38.4130267 L196.088756,11 Z M165.345309,126.13033 L165.345309,137.343156 L176.564803,137.343156 L176.564803,143.816224 L165.345309,143.816224 L165.345309,155.077259 L158.500627,155.077259 L158.500627,143.816224 L147.276614,143.816224 L147.276614,137.343156 L158.500627,137.343156 L158.500627,126.13033 L165.345309,126.13033 Z M118.578211,126.13033 L118.578211,137.343156 L129.797705,137.343156 L129.797705,143.816224 L118.578211,143.816224 L118.578211,155.077259 L111.733529,155.077259 L111.733529,143.816224 L100.509516,143.816224 L100.509516,137.343156 L111.733529,137.343156 L111.733529,126.13033 L118.578211,126.13033 Z M76.8276837,141.539475 L87.7782712,141.539475 C87.4506122,146.13899 85.7829413,149.7086 82.7684791,152.243922 C79.7540169,154.781435 75.6661892,156.048 70.5208141,156.048 C64.7472377,156.048 60.2097264,154.408915 56.9015011,151.128556 C53.5955354,147.850387 51.9414227,143.358244 51.9414227,137.652128 C51.9414227,131.96135 53.5797174,127.47359 56.854047,124.186656 C60.1283766,120.897531 64.5958367,119.256256 70.2541675,119.256256 C75.4673342,119.256256 79.5709798,120.476804 82.5628448,122.9179 C85.5501904,125.358996 87.2269003,128.847528 87.5861953,133.383496 L76.513583,133.383496 C76.3508834,131.599787 75.7543182,130.249953 74.726147,129.340568 C73.7024953,128.433374 72.2585363,127.977586 70.4010491,127.977586 C68.1368129,127.977586 66.4375059,128.779598 65.3031281,130.385813 C64.1687502,131.987645 63.603821,134.411211 63.603821,137.649936 C63.603821,140.827306 64.2094251,143.23115 65.4138542,144.857086 C66.6182832,146.485214 68.3876415,147.298182 70.7196692,147.298182 C72.5116246,147.298182 73.9329865,146.80076 74.9882742,145.803723 C76.0322633,144.811069 76.6469063,143.388923 76.8276837,141.539475 L76.8276837,141.539475 Z" id="Page-1"></path>
            </g>
        </g>
    </g>
</svg>