<?xml version="1.0" encoding="UTF-8" standalone="no"?>
<svg width="230px" height="230px" viewBox="0 0 230 230" version="1.1" xmlns="http://www.w3.org/2000/svg" xmlns:xlink="http://www.w3.org/1999/xlink">
    <!-- Generator: Sketch 39.1 (31720) - http://www.bohemiancoding.com/sketch -->
    <title>10</title>
    <desc>Created with Sketch.</desc>
    <defs></defs>
    <g id="Page-1" stroke="none" stroke-width="1" fill="none" fill-rule="evenodd">
        <g id="10" transform="translate(-639.000000, -464.000000)" fill="#FFFFFF">
            <g id="noun_263692_cc" transform="translate(754.000000, 579.000000) rotate(-90.000000) translate(-754.000000, -579.000000) translate(639.000000, 464.000000)">
                <g id="Group">
                    <path d="M171.584,23.5945946 C171.584,23.2702703 171.584,22.7837838 171.258667,22.4594595 L157.757333,4.62162162 C157.269333,3.97297297 156.293333,3.81081081 155.642667,4.13513514 C131.242667,18.8918919 120.018667,44.027027 112.048,62.5135135 C108.469333,70.6216216 105.378667,77.5945946 102.125333,81.8108108 C99.1973333,85.5405405 95.944,87.6486486 92.528,87.6486486 C92.528,87.6486486 92.528,87.6486486 92.3653333,87.6486486 C86.184,87.6486486 81.304,81.6486486 81.1413333,81.6486486 C80.816,81.3243243 80.328,81 79.84,81 C62.1093333,81 55.2773333,101.918919 54.7893333,103.216216 L54.7893333,103.216216 L54.7893333,103.216216 L54.7893333,103.378378 L54.7893333,103.864865 C55.928,120.567568 60.6453333,122.513514 61.9466667,122.675676 L62.1093333,122.675676 L114,122.675676 C114.650667,122.675676 115.138667,122.351351 115.464,121.864865 C116.602667,119.756757 122.133333,109.540541 122.458667,104.513514 C122.621333,104.351351 122.621333,104.027027 122.621333,103.864865 C123.597333,87 129.453333,72.4054054 136.773333,60.5675676 C139.376,61.7027027 145.557333,67.0540541 145.557333,89.9189189 L145.557333,120.72973 C145.557333,121.540541 146.208,122.351351 147.184,122.351351 L157.594667,122.837838 L157.594667,122.837838 C158.082667,122.837838 158.408,122.675676 158.733333,122.351351 C159.058667,122.027027 159.221333,121.540541 159.221333,121.054054 C159.221333,120.567568 156.944,79.3783784 162.149333,68.5135135 C162.8,67.0540541 163.613333,65.4324324 164.426667,63.8108108 C169.957333,53.1081081 176.626667,39.4864865 171.584,23.5945946 L171.584,23.5945946 Z M113.024,119.594595 L62.272,119.594595 C60.6453333,119.108108 58.856,112.783784 58.0426667,105.486486 L118.88,105.486486 C118.229333,108.891892 115.301333,115.378378 113.024,119.594595 L113.024,119.594595 Z M119.368,102.243243 L58.6933333,102.243243 C60.808,97.2162162 66.9893333,84.8918919 79.0266667,84.4054054 C80.6533333,86.1891892 85.8586667,91.0540541 92.3653333,91.0540541 C96.7573333,91.0540541 100.986667,88.6216216 104.565333,84.0810811 C108.144,79.3783784 111.397333,72.2432432 114.976,63.972973 C122.784,46.2972973 133.357333,22.1351351 156.130667,7.86486486 L167.68,23.1081081 C162.962667,26.5135135 147.346667,38.3513514 135.146667,57.3243243 C134.658667,57.6486486 134.333333,57.972973 134.333333,58.6216216 L134.333333,58.6216216 C126.688,70.6216216 120.669333,85.2162162 119.368,102.243243 L119.368,102.243243 Z M161.498667,62.5135135 C160.685333,64.1351351 159.872,65.7567568 159.221333,67.2162162 C154.341333,77.5945946 155.642667,111.162162 155.968,119.432432 L148.810667,119.108108 L148.810667,89.9189189 C148.810667,76.7837838 146.858667,67.3783784 142.792,61.7027027 C141.328,59.5945946 139.701333,58.4594595 138.562667,57.8108108 C149.949333,40.6216216 163.938667,29.7567568 168.981333,26.027027 C172.722667,40.1351351 166.541333,52.4594595 161.498667,62.5135135 L161.498667,62.5135135 Z" id="Shape" transform="translate(114.080067, 63.405405) rotate(-270.000000) translate(-114.080067, -63.405405) "></path>
                </g>
            </g>
        </g>
    </g>
</svg>