<svg width="230" height="230" viewBox="0 0 230 230" xmlns="http://www.w3.org/2000/svg"><title>17E59618-3734-47F0-AAEA-2799F0B4F1D8</title><g fill="#FFF" fill-rule="evenodd"><path d="M114.5 177.393c-33.026 0-59.893-26.869-59.893-59.893 0-7.517 1.38-14.814 4.08-21.732 1.59.638 3.32 1 5.134 1 7.623 0 13.822-6.2 13.822-13.822 0-2.494-1.417-6.155-3.271-9.887 11.027-9.97 25.203-15.452 40.128-15.452 33.026 0 59.893 26.869 59.893 59.893s-26.867 59.893-59.893 59.893M63.821 64.055c4.15 6.39 9.215 15.35 9.215 18.891 0 5.082-4.133 9.215-9.215 9.215-5.081 0-9.214-4.133-9.214-9.215 0-3.54 5.066-12.501 9.214-18.891M114.5 53c-15.687 0-30.612 5.614-42.36 15.862a146.53 146.53 0 0 0-6.423-10.26c-.864-1.246-2.928-1.246-3.791 0C60.705 60.37 50 76.066 50 82.946c0 4.13 1.829 7.833 4.71 10.367A64.058 64.058 0 0 0 50 117.5c0 35.565 28.935 64.5 64.5 64.5s64.5-28.935 64.5-64.5S150.065 53 114.5 53"/><path d="M114.5 140.536c-15.328 0-18.237 10.49-18.355 10.937a2.292 2.292 0 0 0 1.629 2.79c1.218.338 2.478-.394 2.824-1.606.087-.306 2.267-7.514 13.902-7.514s13.815 7.208 13.895 7.491a2.304 2.304 0 1 0 4.46-1.163c-.118-.445-3.027-10.935-18.355-10.935M93.768 126.714c-12.331 0-19.746 7.275-20.057 7.586a2.296 2.296 0 0 0-.003 3.248c.447.454 1.042.68 1.634.68a2.3 2.3 0 0 0 1.621-.666c.062-.06 6.45-6.24 16.805-6.24a2.303 2.303 0 1 0 0-4.608M135.232 126.714a2.303 2.303 0 1 0 0 4.607c10.339 0 16.724 6.162 16.805 6.24.449.448 1.036.671 1.624.671.59 0 1.18-.226 1.628-.675.901-.9.901-2.356 0-3.257-.31-.311-7.726-7.586-20.057-7.586"/></g></svg>