<?xml version="1.0" encoding="UTF-8" standalone="no"?>
<svg width="230px" height="230px" viewBox="0 0 230 230" version="1.1" xmlns="http://www.w3.org/2000/svg" xmlns:xlink="http://www.w3.org/1999/xlink">
    <!-- Generator: sketchtool 39.1 (31720) - http://www.bohemiancoding.com/sketch -->
    <title>5B918F16-04D6-4B70-A4E5-7DB2BCDF2C01</title>
    <desc>Created with sketchtool.</desc>
    <defs></defs>
    <g id="Page-1" stroke="none" stroke-width="1" fill="none" fill-rule="evenodd">
        <g id="8" transform="translate(-1453.000000, -458.000000)" stroke="#FFFFFF">
            <g id="Group-2" transform="translate(178.000000, 405.000000)">
                <g id="Group-16" transform="translate(1233.000000, 53.000000)">
                    <polygon id="Star-2" stroke-width="4" points="91.2349537 71.0231975 79.6457291 76.5902823 81.6680911 64.7990074 73.1012284 56.4483801 84.9403414 54.7280563 90.2349537 44 95.5295661 54.7280563 107.368679 56.4483801 98.8018164 64.7990074 100.824178 76.5902823"></polygon>
                    <polygon id="Star-2" stroke-width="4" points="155.050614 46.618425 141.485148 53.7502128 144.075921 38.6448439 133.101228 27.9471623 148.267881 25.7433186 155.050614 12 161.833347 25.7433186 177 27.9471623 166.025307 38.6448439 168.616081 53.7502128"></polygon>
                    <g id="Page-1" transform="translate(72.000000, 66.000000)" stroke-width="6.59999943" stroke-linecap="round" stroke-linejoin="round">
                        <g id="Group-7" transform="translate(4.573770, 0.245655)">
                            <polygon id="Stroke-1" points="44.2791475 72.7474276 8.47603279 87.7938759 0.968163934 69.8537724 36.7740656 54.8073241"></polygon>
                            <polygon id="Stroke-3" points="34.9277541 50.430531 152.67923 0.945117241 164.024639 28.0577724 46.270377 77.5431862"></polygon>
                            <path d="M130.852623,3.54437931 L146.868852,41.8182759" id="Stroke-5"></path>
                        </g>
                        <path d="M153.66377,26.1292759 L58.984918,65.9254138" id="Stroke-8"></path>
                        <g id="Group-19" transform="translate(0.000000, 54.314621)">
                            <path d="M0.393442623,6.47148276 L13.9181967,0.784724138" id="Stroke-9"></path>
                            <path d="M96.8057377,5.39055172 C98.3636066,7.48537931 99.2860656,10.0829655 99.2860656,12.8956207 C99.2860656,19.8364828 93.6704918,25.4645862 86.745082,25.4645862 C80.4495082,25.4645862 75.2380328,20.8168621 74.3406557,14.7558276" id="Stroke-11"></path>
                            <path d="M81.5196721,24.3110345 L20.7878689,99.9482759" id="Stroke-13"></path>
                            <path d="M86.745082,25.4645862 L86.745082,99.9482759" id="Stroke-15"></path>
                            <path d="M93.8154098,23.2747931 L158.738689,102.741379" id="Stroke-17"></path>
                        </g>
                    </g>
                </g>
            </g>
        </g>
    </g>
</svg>