<svg width="230" height="230" viewBox="0 0 230 230" xmlns="http://www.w3.org/2000/svg"><title>F9CF2EC9-95B2-4CE4-A2B7-5B876D431AD3</title><g fill="none" fill-rule="evenodd"><g stroke-width="1.2" stroke="#FFF" stroke-linejoin="round"><path d="M119.865 82.162l-28.597-6.83-.919-31.513 29.516 4.553z"/><path d="M139.73 70.781l-19.865 11.381v-33.79l20.323-8.194z"/><path d="M119.865 48.512L90.349 43.82l22.992-6.96 26.847 3.319z"/></g><path d="M134.384 42.637v31.62M127.566 45.77v31.62M110.236 47.147v32.826M100.218 45.314v32.157M127.448 45.314l-28.427-4.12M133.966 42.574l-27.167-3.734M110.236 46.981l22.172-7.765" stroke="#FFF" stroke-width="1.2" stroke-linejoin="round"/><g stroke="#FFF" stroke-width="1.2" stroke-linejoin="round"><path d="M101.045 45.314l21.65-7.4M119.865 58.952l-29.516-5.31M119.865 70.486l-29.516-6.374M119.865 58.952l20.19-9.839M119.865 70.486l20.026-10.483"/></g><path d="M52.34 33.55c.218 1.748 5.612 42.772 27.706 42.783 4.202 15.02 10.862 29.609 21.428 38.31-1.769 1.31-2.933 3.39-2.933 5.75 0 3.22 2.15 5.92 5.083 6.823-.466 16.071-7.3 28.736-9.313 32.115h-3.987c-3.964 0-7.189 3.218-7.189 7.173 0 1.105.273 2.138.721 3.074H78v39.963h76v-39.963h-5.856c.448-.936.72-1.97.72-3.074 0-3.955-3.224-7.173-7.188-7.173h-3.987c-2.011-3.379-8.847-16.044-9.313-32.115 2.93-.904 5.083-3.603 5.083-6.822 0-2.361-1.164-4.441-2.933-5.75 10.566-8.702 17.226-23.292 21.428-38.311 22.094-.01 27.488-41.035 27.705-42.783l.29-2.303h-21.067c.239-4.626.253-7.632.253-8.198V21h-86.27v2.05c0 .565.014 3.571.253 8.197H52.05l.29 2.303zm97.552 140.127v31.765H82.108v-31.765h67.784zm-8.216-10.247a3.081 3.081 0 0 1 3.08 3.074 3.081 3.081 0 0 1-3.08 3.074H90.324a3.081 3.081 0 0 1-3.08-3.074 3.081 3.081 0 0 1 3.08-3.074h51.352zm-8.722-4.099H99.046c2.919-5.383 8.21-17.124 8.678-31.765h16.556c.466 14.641 5.755 26.382 8.674 31.765zm-6.684-35.863h-20.54a3.081 3.081 0 0 1-3.081-3.074 3.081 3.081 0 0 1 3.08-3.074h20.541a3.081 3.081 0 0 1 3.081 3.074 3.081 3.081 0 0 1-3.08 3.074zm48.959-88.123c-1.389 8.204-7.144 35.53-22.172 36.827 3.433-13.743 4.93-27.391 5.577-36.827h16.595zM154.99 25.1c-.304 11.693-3.143 69.973-29.352 88.122H106.36C80.15 95.07 77.312 36.792 77.008 25.099h77.982zM73.366 35.345c.647 9.436 2.144 23.084 5.577 36.827-15.013-1.299-20.777-28.623-22.17-36.827h16.593z" fill="#FFF"/></g></svg>