<?xml version="1.0" encoding="UTF-8" standalone="no"?>
<svg width="230px" height="230px" viewBox="0 0 230 230" version="1.1" xmlns="http://www.w3.org/2000/svg" xmlns:xlink="http://www.w3.org/1999/xlink">
    <!-- Generator: sketchtool 39.1 (31720) - http://www.bohemiancoding.com/sketch -->
    <title>9EFD4C36-4799-48E2-A46C-7322FF866065</title>
    <desc>Created with sketchtool.</desc>
    <defs></defs>
    <g id="Page-1" stroke="none" stroke-width="1" fill="none" fill-rule="evenodd">
        <g id="8" transform="translate(-1043.000000, -458.000000)" fill="#FFFFFF">
            <g id="Group-2" transform="translate(178.000000, 405.000000)">
                <g id="noun_243388_cc" transform="translate(821.000000, 53.000000)">
                    <g id="Group-11">
                        <g id="Group-8" transform="translate(0.000000, 24.000000)">
                            <g id="Group-20">
                                <g id="Group" transform="translate(50.000000, 0.000000)">
                                    <path d="M216.159352,136.638921 L213.821455,135.230846 C213.738912,135.179599 213.646659,135.160076 213.554405,135.135673 C213.508279,135.084426 213.46458,135.023417 213.401459,134.981931 L209.621494,132.412256 L207.871105,131.004181 C200.488399,120.45216 190.643982,115.371377 188.582845,114.38548 L179.321081,90.8679449 C180.059108,89.5159978 180.566503,88.1347666 180.787425,86.7266917 C181.554586,81.8435757 178.896229,78.5027533 178.750566,78.327049 L161.6424,59.2460477 L171.642192,55.7051176 L188.37406,47.3591623 C188.439609,47.3249975 188.505157,47.2859521 188.560995,47.2395857 L198.84483,38.7667329 C199.060898,38.5885882 199.191995,38.3299124 199.204134,38.0517139 C199.216272,37.7735154 199.114308,37.5001976 198.917662,37.3049705 L196.438957,34.8133856 C196.162196,34.5327468 195.7422,34.447335 195.382897,34.5937552 L189.92052,36.7680962 L189.767574,35.9530234 C189.69717,35.5723307 189.413126,35.2697288 189.039257,35.1745556 L187.55349,34.8011839 C187.138349,34.7011301 186.71107,34.8719537 186.485292,35.2331237 L182.838852,41.021605 L167.575756,45.4923039 L148.984252,46.1121497 C148.901709,46.1121497 148.814311,46.1267917 148.729341,46.1536354 L139.457866,49.0039499 C139.700638,47.9472837 139.841446,46.8393703 139.841446,45.6899712 C139.841446,38.7545312 135.119525,33.1124702 129.312411,33.1124702 C123.507725,33.1124702 118.785803,38.7545312 118.785803,45.6899712 C118.785803,51.2661431 121.844734,55.9979581 126.056834,57.6403054 L115.870107,58.4382959 L89.0267722,52.5766045 C88.9952118,52.5033944 88.9976395,52.4228632 88.949085,52.3594144 C88.7864276,52.147105 87.6211205,50.7097461 86.1329261,50.0386532 L87.4196194,48.9917483 C87.6818135,48.7818792 87.8153383,48.4499933 87.7789225,48.115667 C87.7425066,47.7813407 87.5385779,47.4885002 87.2399679,47.3371992 C87.1744194,47.3030345 85.5866884,46.5172457 83.6979198,46.5172457 C82.9307593,46.5172457 81.9815195,46.6587853 81.0492738,47.1395319 C80.5345965,46.5904559 80.0102083,46.0462605 79.4882478,45.5020652 L77.7305762,43.6718119 C75.6670115,41.5218742 73.6034468,39.3719366 71.5107494,37.2512831 L70.1657907,35.8724922 C68.2527449,33.8958186 66.2765782,31.8556962 63.9872352,30.1743035 C61.3555833,28.2415559 58.6049729,27.0994778 55.9344774,26.7700322 C55.9320497,27.4484461 55.8737843,28.1097777 55.788814,28.7613479 C58.7554918,29.1591229 61.314312,30.6574904 62.8292113,31.7702844 C64.9826017,33.3516233 66.9029308,35.3331776 68.7552836,37.2512831 L70.1148086,38.6422756 C72.2002228,40.7580485 74.258932,42.9031054 76.3152136,45.045722 L78.0777406,46.8784157 C78.5511466,47.371364 79.0269804,47.8667525 79.4955309,48.3645814 C78.4273327,49.5871907 77.5897682,51.583387 77.407689,54.8021926 C77.3882672,54.848559 77.3445682,54.877843 77.3300019,54.9266498 L76.9197166,56.4420996 L70.864975,54.3775738 L52.894968,48.6012942 L44.3275329,39.2572408 C44.6819805,39.3011668 45.0437112,39.3231299 45.4078697,39.3231299 C50.6371854,39.3231299 54.9779545,34.7401755 55.788814,28.7613479 C55.1454674,28.6759361 54.4851267,28.646652 53.8102196,28.6808167 C53.0454868,28.7223025 52.2686154,28.8174757 51.4796054,29.0566288 C48.6707297,29.9058663 45.5146895,32.4218546 43.7206021,35.1135472 C43.4244198,35.5552483 43.159798,35.9945091 42.9461584,36.4386506 C42.8903207,36.5631078 42.8077782,36.6680424 42.7106692,36.7534542 C42.414487,36.6314373 42.1207325,36.5094204 41.8439721,36.3507984 C41.5866334,36.2043782 41.3462888,36.0286739 41.1059442,35.8529695 C38.5762566,34.0105145 36.8501455,30.6379677 36.8501455,26.7480692 C36.8501455,20.9010198 40.6908035,16.1472418 45.4102974,16.1472418 C46.1434698,16.1472418 46.8450818,16.2961024 47.527272,16.5132925 C46.6362976,16.8939852 45.8327212,17.4601435 45.1286815,18.2288499 C41.5186571,22.1724358 41.4603918,30.3353658 41.712875,34.6254796 C42.2324078,33.754279 42.870899,32.9026011 43.6040714,32.0948493 C45.6530697,29.8302158 48.3648365,27.931633 50.9163736,27.1604863 C51.9044569,26.8603247 52.9265284,26.7041431 53.9631662,26.6699784 C54.613796,26.6480153 55.2741367,26.6846204 55.9369051,26.7675919 L55.9369051,26.7480692 C55.9369051,22.6653841 54.2909088,19.0414824 51.7612213,16.7402439 L58.2529531,11.7375514 L66.2547287,9.4216708 C66.6018931,9.32161695 66.8665149,9.03853777 66.9442021,8.68224845 C67.0194615,8.32595913 66.8956476,7.95746812 66.6237426,7.72075536 L65.7910336,7.00329604 L68.5780598,4.75818526 C68.8839529,4.51171115 69.01505,4.10417473 68.9130856,3.72592237 L68.1677746,0.985423023 C68.0876597,0.687701811 67.8740201,0.443668031 67.5899764,0.328972154 C67.3083606,0.214276278 66.9854734,0.236239318 66.7232793,0.392420937 L58.9278601,4.99489803 L43.0626891,14.090037 C42.8466217,14.2120539 35.4177888,21.3768857 35.2114323,21.5623514 L27.5276884,28.4148199 C27.3965914,28.5319561 27.294627,28.6856974 27.2436448,28.8540807 L15.8940389,64.6855607 C14.8622566,66.0204254 8.37052476,75.1204451 13.8207633,85.977508 L15.2749695,111.540046 C13.779492,113.341016 6.65412447,122.40443 5.4111302,132.688014 L1.61174341,147.596037 C1.50249587,147.752219 1.43451962,147.925483 1.42480873,148.110949 C1.3276998,148.218324 1.25001266,148.3379 1.20631364,148.486761 L0.417303607,151.105243 C0.286206555,151.537183 0.465858071,152.003288 0.849438334,152.23756 L4.83818753,154.651054 L13.0438919,160.678688 C13.218688,160.805586 13.420189,160.866594 13.6241177,160.866594 C13.8741732,160.866594 14.121801,160.771421 14.3111634,160.588396 L19.0622177,155.946873 C19.2977068,155.715041 19.4020989,155.388036 19.3462613,155.063471 C19.2879959,154.738906 19.076784,154.468029 18.7781741,154.33381 L14.595207,152.459631 C14.595207,152.45475 14.5927793,152.45231 14.5927793,152.449869 C14.5830684,152.435227 14.5709298,152.430347 14.5636466,152.418145 L10.2325884,146.549133 L23.5243729,119.456502 C24.4760404,118.580421 28.6492965,114.583148 28.9114906,111.840208 L30.1569126,97.8668338 L39.0253854,110.77134 C39.406538,112.701647 42.4727524,127.16797 51.3849242,140.548342 L56.1068458,148.272011 C56.0655745,148.3379 56.01702,148.401349 55.9951705,148.48432 L55.2037327,151.102803 C55.070208,151.534743 55.2498595,152.000847 55.6382952,152.23512 L59.6270444,154.648614 L67.8327488,160.676248 C68.0051171,160.803146 68.2114736,160.864154 68.4129746,160.864154 C68.6630301,160.864154 68.9082301,160.768981 69.0975925,160.585956 L73.8510745,155.944433 C74.084136,155.712601 74.1885281,155.385596 74.1326904,155.061031 C74.0768528,154.736466 73.8632132,154.465588 73.5646032,154.33137 L69.3816362,152.45719 C69.3816362,152.45231 69.3767807,152.449869 69.3767807,152.447429 C69.3694975,152.432787 69.3573589,152.427906 69.3500758,152.415705 L64.9534691,146.453959 L52.1035302,113.582609 C52.1763619,112.14037 52.3463026,104.675376 48.440096,101.642036 L37.4085218,75.5670269 L43.9463803,54.4629856 L49.6442467,58.8385113 C49.772916,58.9385651 49.9234348,59.0020139 50.0836645,59.0288576 L68.199335,62.0011891 L74.6692173,64.5781858 C74.6813559,64.5830665 74.6934945,64.5806261 74.7032054,64.5855068 L74.4725717,65.432304 C74.3851736,65.756869 74.4677162,66.1033969 74.688639,66.3547517 C74.8780014,66.5646208 75.145051,66.6841973 75.4218114,66.6841973 C75.4727936,66.6841973 75.5262035,66.6793166 75.5771857,66.6719956 C75.73256,66.6475923 79.2916022,66.0179851 80.7215312,63.1627899 L99.6480611,73.6708845 C106.176209,76.3650174 111.361825,77.3387122 115.447684,77.3387122 C123.439748,77.3387122 127.217286,73.6196374 128.622937,71.7234949 L128.872993,71.789384 L150.683658,88.7204477 C145.133883,95.1116924 140.278436,101.839704 140.001676,102.227717 C136.003216,106.525152 138.241577,111.574211 138.345969,111.803603 L151.730007,139.95778 C151.734862,139.969982 151.744573,139.972422 151.749428,139.979743 L151.749428,139.979743 L147.296984,146.02202 C147.287273,146.036662 147.277562,146.041542 147.267851,146.056184 C147.265424,146.056184 147.262996,146.063505 147.260568,146.063505 L143.077601,147.940125 C142.781419,148.074344 142.570207,148.345221 142.511942,148.669786 C142.453676,148.994351 142.560496,149.323797 142.793558,149.550748 L147.544612,154.192271 C147.733974,154.380177 147.981602,154.470469 148.22923,154.470469 C148.433159,154.470469 148.637087,154.411901 148.807028,154.282563 L156.944756,148.306176 L161.006337,145.843875 C161.392345,145.609603 161.569569,145.143498 161.438472,144.706678 L160.651889,142.088195 C160.603335,141.944215 160.528075,141.819758 160.430967,141.714823 C160.413972,141.458588 160.297442,141.209673 160.08623,141.026648 C160.059525,141.007125 160.030392,141.002245 160.006115,140.982722 L152.506878,110.717653 L164.888266,102.993983 C170.285095,111.588853 178.978772,126.245522 179.134146,126.418786 C179.995988,127.380279 182.372729,127.726807 186.201248,127.473012 C186.261941,127.499856 186.320207,127.538901 186.388183,127.548662 C186.427026,127.558424 186.458587,127.558424 186.495003,127.563304 L205.783263,139.264724 L205.795402,139.372099 C205.790547,139.416025 205.77598,139.455071 205.77598,139.501437 C205.783263,139.569766 205.809968,139.628335 205.826962,139.691783 L206.567418,147.161657 C206.567418,147.176299 206.562563,147.193382 206.56499,147.210464 C206.567418,147.212904 206.567418,147.217785 206.567418,147.220225 L204.722348,151.434689 C204.591251,151.73485 204.617956,152.081378 204.790325,152.357137 C204.962693,152.637775 205.263731,152.811039 205.589046,152.81836 L212.209447,153.050192 C212.221585,153.052633 212.233724,153.052633 212.245862,153.052633 C212.70713,153.052633 213.110132,152.723187 213.209669,152.264404 L215.239245,142.344431 L216.59877,137.778559 C216.725012,137.336857 216.542933,136.870753 216.159352,136.638921 L216.159352,136.638921 Z M59.0492463,7.12531293 L59.8649613,6.65676807 L66.5654773,2.7009805 L66.8033941,3.56730042 L63.5866609,6.15405849 C63.3584549,6.33708382 63.2249302,6.61284199 63.2200747,6.90812287 C63.2152193,7.20340374 63.3390331,7.48404259 63.5648114,7.67438894 L63.9144035,7.97699083 L58.2213927,9.62421884 L59.0492463,7.12531293 L59.0492463,7.12531293 Z M56.4879983,8.59439629 L55.9150556,10.3197151 C55.8446517,10.5320245 55.8665012,10.7492146 55.9344774,10.9468819 L50.0739537,15.4639472 C49.0251772,14.8318997 47.8792919,14.4048406 46.667858,14.2242556 L56.4879983,8.59439629 L56.4879983,8.59439629 Z M14.9617932,155.568621 C15.0419081,155.319707 15.0831794,155.082994 15.1098843,154.853602 L16.6490608,155.541777 L13.5318643,158.589759 L12.7598483,158.01872 C13.893595,157.379352 14.638906,156.559398 14.9617932,155.568621 L14.9617932,155.568621 Z M69.7482224,155.568621 C69.8259095,155.319707 69.8696085,155.082994 69.8938857,154.853602 L71.4330622,155.541777 L68.3207211,158.587319 L67.5462774,158.01872 C68.6775964,157.379352 69.4253352,156.559398 69.7482224,155.568621 L69.7482224,155.568621 Z M8.45549508,145.699895 C8.45063963,145.712097 8.45306735,145.724298 8.44578418,145.7365 C8.43607329,145.743821 8.4263624,145.743821 8.41907923,145.753582 C8.17630691,145.931727 8.05249303,146.202605 8.03549896,146.485684 C5.62476984,148.220764 4.22397356,148.091426 3.58548236,147.808347 L7.33631469,133.051624 C7.92139597,128.239278 9.89999037,123.658764 11.9174283,120.039743 C12.6773057,121.696732 14.4908149,123.92232 18.76118,124.688587 L8.45549508,145.699895 L8.45549508,145.699895 Z M62.8195004,146.412474 C62.8146449,146.444198 62.8243558,146.473482 62.8219281,146.510087 C59.410977,148.979709 58.0441689,147.642404 58.0223194,147.644844 C58.0223194,147.644844 58.0223194,147.644844 58.0223194,147.647285 L53.0382037,139.481914 C49.4039021,134.0302 46.7771056,128.407661 44.905331,123.55627 C45.694341,123.790542 46.6751412,123.978448 47.8016048,123.978448 C49.4208961,123.978448 51.3460806,123.539187 53.4096453,122.343422 L62.8195004,146.412474 L62.8195004,146.412474 Z M46.7309788,102.671859 C46.8013828,102.840242 46.9203412,102.989103 47.0732878,103.094037 C50.6566072,105.605145 50.132219,113.594811 50.1249358,113.675342 C50.1152249,113.824203 50.1370745,113.973063 50.1904844,114.109722 L50.4526785,114.783255 C50.4502507,114.790576 50.4405399,114.797897 50.4381121,114.807659 C49.9914111,115.954618 49.3067931,116.686719 48.342987,117.045449 C46.0123728,117.914209 42.8636158,116.398759 42.4072038,116.169367 C41.3608551,112.572309 40.9311481,110.26619 40.9214372,110.210062 C40.89716,110.070963 40.8413224,109.939185 40.7636352,109.822049 C40.7636352,109.822049 29.8364532,94.169722 29.5815422,94.1233556 L17.1418886,79.952314 C16.7801579,79.5423372 16.1586607,79.5032918 15.753231,79.8644618 C15.3453735,80.2256318 15.3065299,80.8527986 15.6658329,81.260335 L28.3676806,95.7315382 L26.9498903,111.657183 C26.7969437,113.282448 23.8715373,116.481731 22.0653113,118.116757 C21.9706301,118.199728 21.8977984,118.302223 21.8419607,118.416918 L21.6064716,118.900105 C16.9039718,118.258296 15.726526,114.905272 15.5735795,114.375719 C16.4257103,113.221439 16.998653,112.547906 17.0205025,112.523503 C17.1904431,112.330716 17.2754134,112.07448 17.2632748,111.818245 L15.7726528,85.6553834 C15.7653696,85.5187245 15.726526,85.3820656 15.6658329,85.2600487 C10.2253053,74.6714229 17.2244312,66.154644 17.5254689,65.7983547 C17.5497461,65.7690706 17.559457,65.7300252 17.5788788,65.6983009 L30.416679,71.3794073 L35.51247,75.0228316 L35.4177888,75.3278738 C35.3473848,75.5523849 35.3595234,75.7939783 35.4542046,76.0087281 L46.7309788,102.671859 L46.7309788,102.671859 Z M75.2203104,62.6747223 L68.8208321,60.1270096 C68.7552836,60.1001659 68.6873073,60.0806432 68.6169034,60.0684415 L50.6396132,57.1180731 L44.019212,52.0372898 C43.7618734,51.8420628 43.431703,51.7834947 43.1209544,51.8811082 C42.8174891,51.9811621 42.5771445,52.2227555 42.4800355,52.5302381 L36.126684,73.0363966 L31.4727386,69.7102162 C31.4193287,69.6711708 31.3634911,69.6370061 31.3003703,69.6101623 L18.2295086,63.8216811 L29.0304491,29.708199 L35.0803353,24.3174927 C34.9492382,25.1032815 34.8788342,25.9134737 34.8788342,26.7456289 C34.8788342,31.6336255 37.2288703,35.8773729 40.65196,37.9541004 C40.8364669,38.0663559 41.2588908,38.825301 41.4603918,39.0400507 L51.622841,50.1289457 C51.736944,50.2558432 51.8801797,50.3485761 52.0452649,50.4022635 L70.2507611,56.2517532 L76.3977562,58.3504437 L75.2203104,62.6747223 L75.2203104,62.6747223 Z M148.316628,152.193634 L145.201859,149.152973 L146.741035,148.462357 C146.770168,148.691749 146.809012,148.930902 146.889127,149.174936 C147.212014,150.165713 147.957325,150.980786 149.091072,151.627476 L148.316628,152.193634 L148.316628,152.193634 Z M187.76713,36.8876728 L187.954064,36.9364795 L188.206547,38.305509 C188.262385,38.5959092 188.444464,38.847264 188.699375,38.9912439 C188.954286,39.1327835 189.265035,39.1523062 189.53694,39.042491 L195.504283,36.665602 L196.759416,37.9272567 L187.963775,45.1677389 L184.523691,42.0465469 L187.76713,36.8876728 L187.76713,36.8876728 Z M130.652514,35.2502061 C134.733517,36.0530772 137.87499,40.4041995 137.87499,45.6826502 C137.87499,51.1563279 134.490744,55.6197057 130.186391,56.1687817 L130.652514,35.2502061 L130.652514,35.2502061 Z M84.2708625,51.5443416 C84.4092427,51.6175517 84.5597615,51.6663585 84.7199912,51.6565971 C85.397326,51.5492223 86.3392826,52.3984598 86.941358,53.0329477 L84.8438051,56.322523 L81.6901927,53.6381514 L84.2708625,51.5443416 L84.2708625,51.5443416 Z M100.495337,71.8943185 L81.3260342,61.2446844 C81.3090402,61.2373633 81.2920461,61.2373633 81.275052,61.2300423 C81.4255709,59.5315672 80.8380619,57.571976 79.5440854,55.3854333 L80.1340221,54.9071271 L84.4310922,58.5627531 C84.5840387,58.6945314 84.7709734,58.7579801 84.9627636,58.7799432 C85.0647279,58.9629685 85.2079636,59.1215905 85.4118924,59.211883 L106.234474,68.4314792 C106.3243,68.4705246 106.418981,68.4973683 106.51609,68.50957 L124.469103,70.5984992 L126.518101,71.1548962 C124.119511,73.790461 117.011137,78.702861 100.495337,71.8943185 L100.495337,71.8943185 Z M129.336688,69.8737188 C129.292989,69.7517019 128.042711,69.4222563 126.867693,69.1342965 C125.818917,68.8805013 124.221475,68.5901011 124.221475,68.5901011 L106.892387,66.5597401 L86.4315361,57.4987658 L88.3761424,54.4483436 L115.595775,60.3905661 C115.661323,60.4052082 115.734155,60.4125292 115.804559,60.4125292 C115.828836,60.4125292 115.855541,60.4125292 115.877391,60.4100888 L127.035206,59.5388882 C127.185725,59.5266866 127.328961,59.4827605 127.45763,59.4046697 L129.416803,58.2479495 C131.405108,58.2259865 133.255033,57.5353709 134.835481,56.3664491 C134.854903,56.3810911 134.864614,56.4030542 134.886463,56.4152559 L164.749886,74.0149721 L160.617901,78.9981419 C158.008099,80.8674406 154.94674,83.9349452 151.992201,87.2391626 L129.336688,69.8737188 L129.336688,69.8737188 Z M158.095497,141.47567 C157.39874,141.714823 156.036788,141.69286 153.812993,140.087118 C153.800855,139.88457 153.723167,139.696664 153.589643,139.533161 C153.589643,139.389181 153.567793,139.247642 153.502245,139.106102 L142.79113,116.581784 C144.087534,117.138181 145.308679,117.362692 146.415721,117.362692 C148.790034,117.362692 150.647242,116.379236 151.698446,115.652016 L158.095497,141.47567 L158.095497,141.47567 Z M163.587007,101.468772 L150.853599,109.414512 C150.501579,109.636583 150.336494,110.053881 150.421464,110.458977 C146.097689,113.37274 139.809886,109.075305 139.749193,109.028939 C139.712777,109.006976 139.676361,108.999655 139.639945,108.982572 C139.491854,107.503728 139.722488,105.412358 141.51172,103.484491 C141.642817,103.311227 154.150447,85.9872693 161.85604,80.5428757 C161.926444,80.4916286 161.991993,80.4330605 162.045402,80.364731 L167.005241,74.3859034 C167.18732,74.1613923 167.265007,73.8709921 167.218881,73.5830323 C167.167898,73.2975128 166.993102,73.0485983 166.745475,72.902178 L136.364947,54.9949793 C137.333608,53.9480743 138.134757,52.6937407 138.727121,51.2832255 C138.746543,51.2807851 138.761109,51.2832255 138.775676,51.2783448 L149.185753,48.0766216 L167.769974,47.4567758 C167.850089,47.4543354 167.930203,47.4396934 168.012746,47.4177304 L182.817002,43.0836904 C182.867984,43.1617813 182.914111,43.2423124 182.984515,43.3082015 L186.206104,46.2292859 L170.879887,53.8846256 L159.600685,57.8721375 C159.289937,57.9819527 159.05202,58.2406285 158.974333,58.5603128 C158.894218,58.879997 158.97676,59.2216443 159.197683,59.4656781 L177.257516,79.6082263 C177.281793,79.6375104 179.483738,82.4512199 178.837964,86.4509335 C178.689873,87.3587392 178.396118,88.2592238 177.990688,89.1499471 C177.905718,89.3280918 177.000177,90.9435954 176.903068,91.0826947 C175.378458,93.3326861 173.013856,95.5070271 169.816544,97.5788739 L163.587007,101.468772 L163.587007,101.468772 Z M185.778824,125.51098 C183.445782,125.635438 181.195283,125.486577 180.646617,125.157131 C179.743504,123.026716 170.326366,107.95275 166.556112,101.947079 L170.867749,99.2505053 C173.963096,97.2445476 176.334981,95.1238941 178.005255,92.905627 L186.895577,115.478752 C186.992686,115.722785 187.177193,115.913132 187.41511,116.020507 C187.422393,116.020507 187.502508,116.061992 187.619038,116.11568 L185.778824,125.51098 L185.778824,125.51098 Z M211.442286,151.039354 L207.103945,150.885613 L207.778852,149.335998 C207.953648,149.49218 208.14301,149.63616 208.366361,149.765498 C208.941731,150.099824 209.602072,150.263327 210.332817,150.263327 C210.743102,150.263327 211.18252,150.199878 211.636504,150.097384 L211.442286,151.039354 L211.442286,151.039354 Z M207.757002,138.337396 C207.676887,138.183655 207.570068,138.039675 207.409838,137.939621 L189.83555,127.277785 L191.925819,118.558458 C195.868442,121.076887 201.6707,125.535384 206.34164,132.251193 C206.39505,132.331725 206.463026,132.400054 206.53343,132.456182 L208.456187,133.998475 L211.670492,136.189899 C211.473847,136.78046 210.701831,137.93474 207.757002,138.337396 L207.757002,138.337396 Z" id="Shape"></path>
                                </g>
                            </g>
                        </g>
                    </g>
                </g>
            </g>
        </g>
    </g>
</svg>