<?xml version="1.0" encoding="UTF-8"?>
<svg width="230px" height="230px" viewBox="0 0 230 230" version="1.1" xmlns="http://www.w3.org/2000/svg" xmlns:xlink="http://www.w3.org/1999/xlink">
    <!-- Generator: Sketch 50.2 (55047) - http://www.bohemiancoding.com/sketch -->
    <title>Artboard 2 Copy 12</title>
    <desc>Created with Sketch.</desc>
    <defs></defs>
    <g id="Artboard-2-Copy-12" stroke="none" stroke-width="1" fill="none" fill-rule="evenodd" stroke-linecap="round" stroke-linejoin="round">
        <g id="noun_1571957_cc" transform="translate(41.000000, 34.000000)" stroke="#FFFFFF" stroke-width="5.5999999">
            <path d="M50.4316981,131.192069 L66.4324528,145.744138 C67.5132707,146.720028 68.9138262,147.266471 70.3698113,147.280345 L77.6301887,147.280345 C79.0861738,147.266471 80.4867293,146.720028 81.5675472,145.744138 L97.5683019,131.192069 L102.092075,127.058276 C108.647514,121.123667 112.725649,112.935577 113.513208,104.126897 L115.216604,82.4803448 C122.332057,80.3835126 128.549642,75.9820486 132.89283,69.9672414 C139.787436,60.4532244 144.783987,49.6991276 147.609057,38.2934483 C142.472991,38.312922 137.359817,38.9791972 132.390189,40.2765517 C131.562352,40.5448747 130.751121,40.8619811 129.960755,41.2262069 C124.606189,44.5706878 119.658292,48.5261785 115.216604,53.0131034 C112.284528,14.7196552 74,17.6803448 74,17.6803448 C74,17.6803448 35.7154717,14.7196552 32.7833962,53.0131034 C28.3417078,48.5261785 23.3938107,44.5706878 18.0392453,41.2262069 C17.2488787,40.8619811 16.4376484,40.5448747 15.6098113,40.2765517 C10.6401834,38.9791972 5.52700878,38.312922 0.390943396,38.2934483 C3.21601314,49.6991276 8.21256418,60.4532244 15.1071698,69.9672414 C18.192724,74.0518732 22.0790241,77.4638702 26.5283019,79.9944828 C28.494057,81.0965503 30.5974936,81.9324855 32.7833962,82.4803448 L34.4867925,104.126897 C34.8648166,108.494056 36.0682593,112.749739 38.0332075,116.667931 C39.9854229,120.593456 42.6565192,124.11785 45.9079245,127.058276 L50.4316981,131.192069" id="Shape"></path>
            <path d="M74,132.545942 C82.8343155,132.545942 88.7238498,123.709568 88.7238498,123.709568 C86.9999671,120.346175 83.656515,118.116702 79.8895343,117.81869 L68.1104657,117.81869 C64.3434791,118.116708 61.0000257,120.346193 59.2761502,123.709596 C59.2761502,123.709596 65.1656845,132.545942 74,132.545942 Z" id="Shape"></path>
            <path d="M41.6075472,73.6363738 C41.5573748,75.9949524 42.4720099,78.2717946 44.1397658,79.939939 C45.8075216,81.6080834 48.0838334,82.5229316 50.4418626,82.4727476 C59.2761781,82.4727476 59.2761781,76.581841 59.2761781,76.581841 C59.2761781,76.581841 56.331397,67.7454672 50.4418626,67.7454672 C46.6748761,68.0434855 43.3314227,70.2729702 41.6075472,73.6363738 Z" id="Shape"></path>
            <path d="M59.2761502,76.5818131 L64.5685743,97.7563303 C64.9335658,99.2344114 65.8900203,100.497404 67.2136694,101.249162 C69.6599052,102.566304 71.9384564,104.173639 74,106.036374" id="Shape"></path>
            <path d="M106.392453,73.6363738 C106.442625,75.9949524 105.52799,78.2717946 103.860234,79.939939 C102.192478,81.6080834 99.9161666,82.5229316 97.5581374,82.4727476 C88.7238219,82.4727476 88.7238219,76.581841 88.7238219,76.581841 C88.7238219,76.581841 91.668603,67.7454672 97.5581374,67.7454672 C101.325124,68.0434855 104.668577,70.2729702 106.392453,73.6363738 Z" id="Shape"></path>
            <path d="M88.7238498,76.5818131 L83.4314257,97.7563303 C83.0664342,99.2344114 82.1099797,100.497404 80.7863306,101.249162 C78.3400948,102.566304 76.0615436,104.173639 74,106.036374" id="Shape"></path>
            <path d="M62.2209313,47.1272803 C49.7056604,44.6530934 45.7007804,31.4869066 44.7584672,27.5989066" id="Shape"></path>
            <path d="M68.1104657,67.7454672 C68.1104657,67.7454672 68.1104657,58.9090934 53.3866158,55.9636541 C42.4026423,53.7545607 37.9854845,43.3865607 36.4247547,38.2320279" id="Shape"></path>
            <path d="M103.241561,27.5989066 C102.299248,31.4869066 98.2943396,44.6530934 85.7790966,47.1272803" id="Shape"></path>
            <path d="M111.575245,38.232 C110.014515,43.3865328 105.597358,53.7545328 94.6133842,55.9636262 C79.8895343,58.9090934 79.8895343,67.7454393 79.8895343,67.7454393" id="Shape"></path>
            <polyline id="Shape" points="132.895623 69.9532759 132.895623 162 77.6218113 162 74 162 70.3781887 162 15.1043774 162 15.1043774 69.9532759"></polyline>
            <path d="M132.394768,40.2643738 C128.998226,17.132176 109.153964,-0.00833224476 85.7790687,-2.480774e-15 L62.2209313,-2.480774e-15 C38.8460358,-0.00833224476 19.0017737,17.132176 15.6052317,40.2643738" id="Shape"></path>
            <polyline id="Shape" points="99.1320755 131.189276 99.1320755 162 48.8679245 162 48.8679245 131.189276"></polyline>
            <path d="M74,53.0689655 L74,30.7241379" id="Shape"></path>
        </g>
    </g>
</svg>