<svg width="230" height="230" viewBox="0 0 230 230" xmlns="http://www.w3.org/2000/svg"><title>59CAD841-75EC-4A7E-BB53-2B8BDD942ABC</title><g stroke="#FFF" stroke-width="5" fill="none" fill-rule="evenodd"><path d="M66.951 106.064c.56-.709 1.279-1.64 2.212-3.016 2.183-3.221.024-10.847-.432-12.348a.622.622 0 0 0-.62-.603h-8.156a.62.62 0 0 0-.621.603c-.456 1.5-2.616 9.126-.433 12.348l.137.2c1.117.256 2.265.464 3.456.61a7.48 7.48 0 0 1 4.457 2.206zM59.462 121.02c-.423.142-.795.562-.701.748h10.542c.093-.186-.281-.607-.7-.747-.42-.141-1.9-.219-3.221-2.382a3.638 3.638 0 0 1-.293-.637 7.487 7.487 0 0 1-2.513.801c-1.294 1.998-2.706 2.08-3.114 2.218zM26.05 44.487C28.171 35.37 37.282 29.7 46.4 31.824c9.117 2.123 14.786 11.235 12.663 20.353C56.94 61.294 47.83 66.963 38.712 64.84c-9.116-2.124-14.785-11.236-12.663-20.353zM19.935 133.94c1.92 6.32 4.313 16.726 4.297 29.209-.002 9.96-1.49 21.23-5.85 33.005a9.42 9.42 0 0 0 8.83 12.695 9.423 9.423 0 0 0 8.834-6.152c5.241-14.154 7.024-27.714 7.022-39.549-.022-18.877-4.454-33.397-6.849-39.895-.661-4.947-.533-10.21-.012-15.414-3.047-2.748-5.777-5.954-8.136-9.595-4.902-7.597-6.754-14.535-7.323-17.165l-.017-.076c-.81-4.129 1.855-8.098 5.93-8.898a7.638 7.638 0 0 1 1.462-.144c3.576 0 6.68 2.55 7.38 6.062l.017.079c.015.068.038.17.07.301.085.343.223.869.429 1.541a41.21 41.21 0 0 0 3.501 8.125c.241-1.186.475-2.341.69-3.436 2.162-7.5-.667-16.477-7.098-18.08-6.432-1.605-15.757 1.89-19.55 12.924-5.128 15.203-6.23 25.098-4.281 41.838 1.592 8.194 5.9 11.42 10.654 12.625z"/><path d="M34.578 80.386a30.328 30.328 0 0 1-.449-1.62 9.143 9.143 0 0 1-.103-.447A6.028 6.028 0 0 0 22.2 80.662c.105.452 1.616 8.206 7.134 16.764 2.765 4.269 6.573 8.748 11.775 12.429 5.19 3.684 11.79 6.51 19.743 7.47a6.031 6.031 0 0 0 6.712-5.256 6.03 6.03 0 0 0-5.255-6.715c-5.989-.737-10.54-2.738-14.238-5.341-5.526-3.895-9.117-9.349-11.272-13.913a42.63 42.63 0 0 1-2.222-5.714zM163.087 105.528a6.024 6.024 0 0 0-3.82 6.392 6.028 6.028 0 0 0 4.682 5.114c-.018.031-.031.069-.05.1-1.322 2.162-2.802 2.24-3.221 2.38-.423.141-.795.562-.7.748h10.541c.093-.186-.281-.607-.7-.748-.421-.14-1.9-.218-3.221-2.38-.015-.025-.026-.056-.04-.082 8.3-1.148 15.068-4.192 20.277-8.156 3.546-2.696 6.366-5.758 8.616-8.88.762 4.66 1.345 9.528 1.46 14.319 2.607-6.047 3.932-12.01 3.947-17.82.008-8.204-2.745-13.168-2.773-13.217-2.074-3.546-.893-8.153 2.642-10.267a7.53 7.53 0 0 1 3.863-1.069 7.575 7.575 0 0 1 6.47 3.668c.819 1.396 4.857 8.905 4.869 20.888.018 8.508-2.167 21.895-12.68 37.331a7.528 7.528 0 0 1-6.237 3.3 7.488 7.488 0 0 1-4.226-1.301l-.012-.009a121.906 121.906 0 0 0-3.136 27.308c-.001 11.835 1.78 25.398 7.025 39.55a9.42 9.42 0 0 0 8.834 6.152 9.422 9.422 0 0 0 8.83-12.694c-4.36-11.777-5.85-23.045-5.852-33.008a102.363 102.363 0 0 1 3.422-26.157 92.58 92.58 0 0 1 .872-3.048c4.757-1.205 9.067-4.43 10.659-12.625 1.948-16.741.846-26.636-4.281-41.839-3.794-11.034-13.118-14.528-19.55-12.924-4.92 1.226-7.73 6.77-7.81 12.666-.648 2.754-1.913 6.852-4.267 10.889-1.97 3.404-4.653 6.751-8.32 9.443-2.912 2.126-6.463 3.876-10.971 4.93.55-.7 1.252-1.614 2.15-2.94 2.183-3.222.024-10.847-.432-12.348a.622.622 0 0 0-.62-.603h-8.155a.62.62 0 0 0-.62.603c-.456 1.5-2.617 9.126-.433 12.347 1.425 2.104 2.354 3.173 2.968 3.987zM186.3 31.823c9.117-2.124 18.23 3.546 20.352 12.663 2.123 9.117-3.547 18.23-12.664 20.353-9.117 2.124-18.229-3.546-20.351-12.663-2.124-9.117 3.546-18.23 12.663-20.353z"/><path d="M199.418 82.594h.002-.002zm-2.407 53.05c1.93 0 3.826-.925 4.993-2.643 9.544-14.016 12.438-26.73 12.417-36.482-.011-12.122-4.289-19.493-4.654-20.114a6.028 6.028 0 0 0-10.376 6.14h-.001v.002c.09.154 2.981 5.374 2.974 13.972-.02 7.433-2.062 17.493-10.335 29.708a6.03 6.03 0 0 0 4.982 9.417zM116.216 31.616c9.362 0 16.953 7.592 16.953 16.956s-7.59 16.956-16.953 16.956-16.954-7.592-16.954-16.956 7.59-16.956 16.954-16.956zM77.212 97.842v.002l.002.005.005.022c.958 4.742 3.843 9.337 8.436 13.02 4.614 3.722 10.886 6.736 19.31 9.12a6.03 6.03 0 0 0 3.272-11.604c-7.35-2.066-12.147-4.569-14.996-6.89-2.855-2.346-3.823-4.302-4.218-6.092-.002-.005-.002-.011-.003-.016a7.659 7.659 0 0 1-.158-1.57 8.192 8.192 0 0 1 .186-1.837c.443-2.132 1.646-4.493 3.273-6.534v13.088a15.556 15.556 0 0 0 1.875 1.8c1.65 1.342 4.523 3.157 9.316 4.938-2.123-3.25.01-10.798.464-12.29a.622.622 0 0 1 .621-.603h8.154a.62.62 0 0 1 .621.603c.456 1.5 2.615 9.126.432 12.347a49.858 49.858 0 0 1-2.306 3.138 7.53 7.53 0 0 1 1.675 2.037 7.477 7.477 0 0 1 .677 5.728 7.547 7.547 0 0 1-3.84 4.664c.005.008.008.018.014.026 1.321 2.163 2.8 2.241 3.22 2.381.42.141.794.562.7.748h-10.541c-.094-.186.278-.608.7-.748.36-.12 1.501-.2 2.653-1.585-.05 0-.102.007-.154.007a7.55 7.55 0 0 1-2.05-.285c-4.662-1.32-8.716-2.841-12.233-4.593v82.665a9.316 9.316 0 0 0 18.632 0v-68.028h4.203l11.508 69.523a9.316 9.316 0 0 0 10.712 7.67 9.318 9.318 0 0 0 7.67-10.713l-11.968-72.303V88.832c.285.596.571 1.22.858 1.903 3.215 7.712 6.203 21.185 6.194 43.694a6.029 6.029 0 1 0 12.057 0c-.023-29.622-4.811-45.687-10.452-54.924-2.82-4.596-5.91-7.422-8.548-9.036-1.405-.866-2.653-1.375-3.633-1.679a5.802 5.802 0 0 0-2.3-.473h-29.11c-.481 0-.946.065-1.394.175-2.3.345-4.103 1.264-5.964 2.355-3.328 2.064-6.578 5.092-9.249 8.944-2.4 3.507-4.338 7.779-4.674 12.64-.032.464-.055.932-.057 1.407.002 1.31.13 2.653.408 4.004z"/></g></svg>