<?xml version="1.0" encoding="UTF-8" standalone="no"?>
<svg width="230px" height="230px" viewBox="0 0 230 230" version="1.1" xmlns="http://www.w3.org/2000/svg" xmlns:xlink="http://www.w3.org/1999/xlink">
    <!-- Generator: Sketch 39.1 (31720) - http://www.bohemiancoding.com/sketch -->
    <title>Group 2</title>
    <desc>Created with Sketch.</desc>
    <defs>
        <polygon id="path-1" points="0 149.750012 112.551728 149.750012 112.551728 0.398297749 0 0.398297749"></polygon>
    </defs>
    <g id="Page-1" stroke="none" stroke-width="1" fill="none" fill-rule="evenodd">
        <g id="2" transform="translate(-238.000000, -456.000000)">
            <g id="Group-13" transform="translate(238.000000, 456.000000)">
                <g id="Page-1">
                    <g id="Group-14">
                        <g id="Page-1" transform="translate(4.000000, 20.000000)" fill="#FFFFFF">
                            <path d="M43.6496922,78.3360763 C46.2028712,78.3360763 48.2726198,80.4059929 48.2726198,82.9593792 C48.2726198,85.5127654 46.2028712,87.5826821 43.6496922,87.5826821 C41.0965132,87.5826821 39.0267645,85.5127654 39.0267645,82.9593792 C39.0267645,80.4059929 41.0965132,78.3360763 43.6496922,78.3360763" id="Fill-1"></path>
                            <path d="M71.9233656,78.3360763 C74.4765446,78.3360763 76.5462933,80.4059929 76.5462933,82.9593792 C76.5462933,85.5127654 74.4765446,87.5826821 71.9233656,87.5826821 C69.3701867,87.5826821 67.300438,85.5127654 67.300438,82.9593792 C67.300438,80.4059929 69.3701867,78.3360763 71.9233656,78.3360763" id="Fill-3"></path>
                            <path d="M62.0147107,175.788206 C60.4170568,175.093344 57.09439,175.013988 55.5234081,175.788206 C50.2950257,170.630086 42.8875392,167.651247 34.7512399,165.401279 C30.3750285,172.225202 30.4237049,188.377754 36.568938,193.186443 C43.2822851,190.205603 52.9422235,190.17226 56.5622833,184.097882 C57.7905297,184.47132 60.9058215,184.689382 61.7553253,183.837808 C66.3655837,189.696126 73.1349421,192.267517 83.0469311,193.705923 C87.0670711,186.19914 88.6220498,173.604924 84.604577,164.881799 C74.9306358,166.373553 67.7445271,170.352675 62.0147107,175.788206" id="Fill-5"></path>
                            <g id="Group-9" transform="translate(0.000000, 0.318090)">
                                <path d="M98.3213294,112.049577 C97.6631973,114.739669 94.8813058,115.703274 91.6133167,115.767292 L92.4761565,104.897562 C96.7703515,103.997975 99.1088207,108.828003 98.3213294,112.049577 L98.3213294,112.049577 Z M84.9913212,144.376688 C84.9913212,150.363708 80.1203438,155.235748 74.1338092,155.235748 L42.7661816,155.235748 C36.7789802,155.235748 31.9080027,150.363041 31.9080027,144.376688 L31.4045684,137.84618 C33.5963415,135.01805 35.6674238,132.539352 37.6018119,131.07894 C38.1545895,129.848593 37.0943768,129.551176 37.6471544,128.320829 C42.0613735,125.211953 47.1337246,121.369537 53.3136314,122.817278 C53.5730168,121.847672 53.8324021,120.878732 54.0917875,119.909792 C45.9054782,118.97753 40.291685,122.497855 34.9992897,126.57367 C34.239804,126.363611 33.8990689,126.875755 32.9742167,126.378282 C32.2554058,126.83241 31.482584,127.504599 30.6690875,128.295489 L29.982283,119.382977 C38.4773209,117.825205 44.1504593,111.877529 54.8432716,111.046628 C68.8954247,109.955654 76.126209,118.402701 85.9468463,119.408318 C86.2682441,119.44166 86.6103128,119.469668 86.9610498,119.494342 L84.998656,144.205306 L84.9913212,144.376688 Z M25.2346636,57.7656125 C28.628678,54.7787708 34.9439453,54.6840775 40.59908,53.7978277 C52.6381625,51.911296 70.5890979,51.3844809 84.3351896,53.5604275 C87.75921,54.1025802 90.1556909,55.5336502 91.8893721,57.4255167 L87.284448,115.420527 C87.0423995,115.380516 86.8016845,115.338504 86.5623031,115.293825 C86.5763059,115.047756 86.5449663,114.793684 86.4482802,114.543613 C85.5027572,114.040138 84.8399575,114.137499 84.4558804,114.824359 C82.7762101,114.392904 81.2912454,113.872091 80.2610387,113.387954 C76.5409589,110.621842 71.888692,103.157071 65.5454192,103.687887 C61.7906657,104.001976 59.3795152,107.393598 57.5184751,110.7112 C55.1800059,108.321193 54.3385037,105.108288 51.1638667,104.021982 C43.8917408,101.534614 40.1309861,110.075021 34.4418445,113.387288 C33.1942608,114.113492 31.4999208,114.759674 29.6608852,115.210468 L25.2346636,57.7656125 Z M92.2154375,38.3708135 C94.4445515,15.7371016 82.0220587,0.403447031 59.4595313,0.348764954 C49.0181028,0.324091334 37.2224025,4.16050583 31.8466571,9.79209289 C28.5579972,13.2377306 25.1359772,18.6625927 24.0157524,24.362199 C22.894194,30.0751423 23.5736637,35.4726634 22.5881326,42.1525459 C17.7998384,44.2364665 11.1871782,45.1667287 9.63820069,50.4822266 C7.69981173,57.1301001 16.5122467,63.0944476 21.3172109,65.7845391 C21.3658873,65.6578367 21.4158974,65.5117955 21.4652406,65.3737566 L25.3580217,115.845314 C21.4999142,116.014028 17.9858758,114.980403 17.3850885,111.716817 C16.5769264,107.326246 20.0609588,104.271385 23.739697,104.692837 C20.3583518,103.346458 16.1761793,104.964247 15.0439521,107.703019 C12.4847719,113.896098 17.9338653,118.785476 21.7326276,119.409651 C23.121573,119.637716 24.4225007,119.743079 25.6587487,119.754415 L26.6396122,132.466664 C23.6283413,135.536196 20.3536842,138.311645 17.2177216,137.398721 C14.3311424,136.559151 14.1864467,133.490953 11.3832175,132.029875 C7.72981775,133.47895 1.23184719,133.032824 0.0262719385,136.955263 C-0.166433397,137.581439 0.747750045,140.820352 1.22851318,142.816248 C2.40674961,147.712294 3.22024618,151.724091 6.7989643,154.347497 C8.27059293,154.495539 9.40748773,155.37312 10.9991404,155.471147 C16.9236626,155.833249 22.4507717,149.498131 27.4537756,143.017638 L27.5651313,144.465379 C27.6131409,152.809731 34.4131721,159.580972 42.7661816,159.580972 L74.1338092,159.580972 C82.4854851,159.580972 89.2868498,152.811064 89.3341927,144.468047 L91.3099225,119.5837 C93.0409365,119.532353 94.643258,119.372308 95.6447923,119.076224 C104.765956,116.382798 102.380811,101.764679 92.4781569,104.865553 L95.756148,63.583252 C98.4713595,61.8761043 102.839569,58.2870928 104.845305,54.7927748 C110.145702,45.5568386 100.557111,39.0136613 92.2154375,38.3708135 L92.2154375,38.3708135 Z" id="Fill-7"></path>
                            </g>
                            <path d="M61.6279664,82.0177805 C62.8082032,74.9451207 69.1634785,71.8882592 74.722594,73.2579785 C82.0040551,75.0524842 85.0520001,82.1258109 81.5026212,88.8730457 C80.724465,90.3521292 79.0754675,92.3333542 77.5624972,93.1109067 C70.104334,96.9433201 60.2243514,90.4301512 61.6279664,82.0177805 M76.8783599,95.0187777 C77.4824811,99.924827 84.4045368,95.5469265 80.373728,92.7734783 C81.5206248,91.8065391 82.7282004,90.9783057 83.3243201,89.7946388 C89.47022,77.5878654 78.3353189,68.7773825 68.3519823,71.5121532 C62.8235397,73.02658 60.7124494,77.3337938 59.9589648,81.4189451 C58.1879428,91.018317 67.0877286,98.415735 76.8783599,95.0187777" id="Fill-10"></path>
                            <path d="M82.2907793,100.187568 C83.4443441,98.1856702 80.2617055,97.0073381 80.059665,99.6560846 C80.4970861,100.494321 81.6013076,100.847087 82.2907793,100.187568" id="Fill-12"></path>
                            <path d="M82.6775236,104.362077 C83.5770374,102.090771 79.6255779,101.571958 80.2750415,104.307395 C81.312583,104.826875 82.104742,104.824875 82.6775236,104.362077" id="Fill-14"></path>
                            <path d="M82.0073891,109.234117 C84.7899475,108.747313 81.794013,104.752854 80.6804562,107.68168 C80.8411551,108.333197 80.911836,109.026058 82.0073891,109.234117" id="Fill-16"></path>
                            <path d="M80.9645132,112.895816 C81.1605525,113.671368 82.4654811,114.1395 83.1102771,113.664699 C84.397202,111.478083 81.325919,110.33376 80.9645132,112.895816" id="Fill-18"></path>
                        </g>
                        <path d="M157.462643,111.009496 C160.030574,111.009496 162.112781,113.089841 162.112781,115.655475 C162.112781,118.221109 160.030574,120.301453 157.462643,120.301453 C154.894713,120.301453 152.812506,118.221109 152.812506,115.655475 C152.812506,113.089841 154.894713,111.009496 157.462643,111.009496" id="Fill-1" fill="#FFFFFD"></path>
                        <path d="M185.904541,111.009496 C188.472472,111.009496 190.554679,113.089841 190.554679,115.655475 C190.554679,118.221109 188.472472,120.301453 185.904541,120.301453 C183.336611,120.301453 181.254404,118.221109 181.254404,115.655475 C181.254404,113.089841 183.336611,111.009496 185.904541,111.009496" id="Fill-3" fill="#FFFFFD"></path>
                        <g id="Group-7" transform="translate(114.000000, 43.223072)">
                            <mask id="mask-2" fill="white">
                                <use xlink:href="#path-1"></use>
                            </mask>
                            <g id="Clip-6"></g>
                            <path d="M60.3665792,105.815471 C63.098698,106.789157 72.434422,116.049424 86.6846016,113.824301 L85.0570225,134.300906 L85.0495594,134.473647 C85.0495594,140.489745 80.150652,145.385514 74.1279252,145.385514 L42.5751557,145.385514 C36.5524289,145.385514 31.6528996,140.489745 31.6528996,134.473647 L30.0707211,113.956652 C43.799727,115.652991 52.7909043,106.76803 55.4633183,105.81485 C59.2135292,104.478906 58.3565159,85.3264383 44.350753,94.0361724 C38.6371232,97.5897837 33.5267612,100.052892 29.1303697,101.760415 L24.5716556,42.6625978 C37.9362132,46.0677018 80.4131046,56.7397203 91.1500269,57.6450554 L87.616246,102.105275 C83.0177287,100.390295 77.5976478,97.8408169 71.4797664,94.0361724 C57.4727597,85.3270597 56.6157463,104.478906 60.3665792,105.815471 M93.946826,23.4983245 C91.4404661,22.2910038 83.9518608,17.8569122 73.9152267,13.1929139 C76.5123877,11.238086 79.2009718,9.44108581 82.2558699,8.33566975 C84.509728,7.5198118 85.7927604,2.51281763 82.6675846,3.6443312 C77.8395768,5.3916218 74.0041621,8.45248719 70.0387649,11.4425165 C53.2144356,4.04759991 30.7610584,-2.99127202 12.2264339,2.16982175 C-17.5183982,10.4539178 15.8224073,37.9022872 20.0832191,41.2831578 L24.8676921,103.261643 C16.2042696,105.99194 11.2605836,105.535233 11.2605836,105.535233 C16.4312724,109.49522 21.2306716,111.830948 25.6239536,113.058773 L27.2844947,134.560638 C27.332383,142.943532 34.1735637,149.750012 42.5751557,149.750012 L74.1279252,149.750012 C82.5295172,149.750012 89.370076,142.946018 89.4185862,134.562502 L91.1500269,112.774186 C95.2858316,111.483602 99.7661831,109.21374 104.568692,105.535233 C104.568692,105.535233 99.9726624,105.956522 91.883899,103.542502 L95.5439307,57.4965481 C98.5055401,56.8807711 92.3876587,54.8290095 106.445041,49.3690371 C123.265017,42.8365812 100.728302,26.7661059 93.946826,23.4983245" id="Fill-5" fill="#FFFFFD" mask="url(#mask-2)"></path>
                        </g>
                    </g>
                </g>
            </g>
        </g>
    </g>
</svg>