<?xml version="1.0" encoding="UTF-8" standalone="no"?>
<svg width="230px" height="230px" viewBox="0 0 230 230" version="1.1" xmlns="http://www.w3.org/2000/svg" xmlns:xlink="http://www.w3.org/1999/xlink">
    <!-- Generator: sketchtool 39.1 (31720) - http://www.bohemiancoding.com/sketch -->
    <title>4C7EC776-DA14-4D9A-82A4-96FE1FCC95DF</title>
    <desc>Created with sketchtool.</desc>
    <defs></defs>
    <g id="Page-1" stroke="none" stroke-width="1" fill="none" fill-rule="evenodd">
        <g id="5" transform="translate(-242.000000, -460.000000)" fill="#FFFFFF">
            <g id="Group-2" transform="translate(184.000000, 405.000000)">
                <g id="Group-14" transform="translate(16.000000, 55.000000)">
                    <g id="Page-1" transform="translate(66.000000, 24.000000)">
                        <path d="M94.5121667,15.0652333 L94.5121667,0 L86.4898444,0 L86.4898444,15.0652333 C87.8191889,14.9948444 89.1545667,14.9566333 90.5020111,14.9566333 C91.8454333,14.9586444 93.1828222,14.9968556 94.5121667,15.0652333" id="Fill-1"></path>
                        <path d="M94.5121667,165.934767 C93.1828222,166.005156 91.8454333,166.043367 90.5,166.043367 C89.1545667,166.043367 87.8171778,166.005156 86.4878333,165.934767 L86.4878333,181 L90.5,181 L94.5121667,181 L94.5121667,165.934767 Z" id="Fill-3"></path>
                        <path d="M48.7252,10.1199111 L45.25,12.1249889 L41.7768111,14.1300667 L49.3144556,27.1862 C51.5508111,25.7281444 53.8676111,24.3887444 56.2608333,23.1700111 L48.7252,10.1199111 Z" id="Fill-5"></path>
                        <path d="M131.685544,153.815811 C129.449189,155.273867 127.132389,156.613267 124.739167,157.832 L132.2748,170.8821 L139.223189,166.871944 L131.685544,153.815811 Z" id="Fill-7"></path>
                        <path d="M10.1179,48.7252 L23.1700111,56.2608333 C24.3887444,53.8696222 25.7281444,51.5508111 27.1862,49.3144556 L14.1320778,41.7768111 L10.1179,48.7252 Z" id="Fill-9"></path>
                        <path d="M153.8138,131.687556 L166.869933,139.2252 L168.875011,135.752011 L170.8821,132.276811 L157.829989,124.741178 C156.611256,127.132389 155.271856,129.4512 153.8138,131.687556" id="Fill-11"></path>
                        <path d="M14.9566333,90.5 C14.9566333,89.1525556 14.9948444,87.8151667 15.0652333,86.4858222 L0,86.4858222 L0,90.5 L0,94.5121667 L15.0652333,94.5121667 C14.9948444,93.1828222 14.9566333,91.8474444 14.9566333,90.5" id="Fill-13"></path>
                        <path d="M166.041356,90.5 C166.041356,91.8454333 166.003144,93.1828222 165.932756,94.5121667 L181,94.5121667 L181,86.4878333 L165.934767,86.4878333 C166.003144,87.8171778 166.041356,89.1545667 166.041356,90.5" id="Fill-15"></path>
                        <path d="M10.1179,132.2748 L12.1249889,135.75 L14.1300667,139.223189 L27.1841889,131.685544 C25.7261333,129.449189 24.3867333,127.130378 23.168,124.739167 L10.1179,132.2748 Z" id="Fill-17"></path>
                        <path d="M170.8821,48.7252 L166.869933,41.7768111 L153.8138,49.3144556 C155.271856,51.5508111 156.611256,53.8696222 157.829989,56.2608333 L170.8821,48.7252 Z" id="Fill-19"></path>
                        <path d="M41.7748,166.871944 L48.7231889,170.8821 L56.2568111,157.832 C53.8656,156.613267 51.5467889,155.273867 49.3104333,153.815811 L41.7748,166.871944 Z" id="Fill-21"></path>
                        <path d="M132.2748,10.1199111 L124.739167,23.1700111 C127.130378,24.3887444 129.449189,25.7281444 131.683533,27.1862 L139.221178,14.1300667 L132.2748,10.1199111 Z" id="Fill-23"></path>
                        <path d="M146.907644,81.9206 L145.135856,88.9655222 L132.200389,88.9655222 C131.136511,88.9655222 130.275756,89.8262778 130.275756,90.8901556 C130.275756,91.9520222 131.136511,92.8147889 132.200389,92.8147889 L144.168511,92.8147889 L139.056267,113.137067 L128.847867,113.137067 C127.783989,113.137067 126.923233,113.997822 126.923233,115.0617 C126.923233,116.123567 127.783989,116.986333 128.847867,116.986333 L138.088922,116.986333 L137.228167,120.409244 C134.951589,129.461256 126.842789,135.784189 117.509222,135.784189 L85.4521111,135.784189 C81.8884222,135.784189 78.3750111,134.857067 75.2779,133.099356 L68.9207778,128.349111 L68.9207778,76.9712556 L90.8278111,55.1165111 C90.9464667,54.9998667 91.0530556,54.8731667 91.1495889,54.7364111 C93.0018222,52.1340333 93.9812333,49.0691 93.9812333,45.8754556 L93.9812333,29.3561889 C95.0632111,29.1249111 97.1728667,29.0786556 99.0914667,29.2596556 C101.621444,30.8444111 113.861067,39.9869222 109.213389,66.0891333 C109.058533,66.9519 109.295844,67.8388 109.858956,68.5125222 C110.420056,69.1842333 111.252656,69.5723778 112.131511,69.5723778 L137.2885,69.5723778 C140.367511,69.5723778 143.221278,70.9660778 145.115744,73.3955 C147.006189,75.8269333 147.6598,78.9341 146.907644,81.9206 L146.907644,81.9206 Z M62.988,75.7424667 L62.988,135.782178 L41.8311111,135.782178 L41.8311111,66.5999556 L62.988,66.4933667 L62.988,75.7424667 Z M137.284478,63.6476444 L115.588611,63.6476444 C119.588711,33.4447778 102.152378,24.1393667 101.380111,23.7451889 C101.074422,23.5883222 100.738567,23.4857556 100.396678,23.4435222 C98.0155222,23.1458778 92.2054222,22.7094667 89.5688556,25.0383333 C88.5874333,25.9051222 88.0464444,27.0856444 88.0464444,28.3627 L88.0464444,45.8774667 C88.0464444,47.7538333 87.4954,49.5578 86.4476111,51.1083667 L68.9167556,68.599 L68.9167556,63.5189333 C68.9167556,63.3198333 68.8966444,63.1247556 68.8584333,62.9316889 C68.8322889,62.7969444 68.7840222,62.6722556 68.7397778,62.5455556 C68.7196667,62.4912556 68.7096111,62.4329333 68.6874889,62.3786333 C68.6211222,62.2217667 68.5386667,62.0749556 68.4481667,61.9321667 C68.4361,61.9120556 68.4280556,61.8899333 68.4139778,61.8698222 C68.1967778,61.5480444 67.9192444,61.2705111 67.5974667,61.0553222 C67.5552333,61.0271667 67.5069667,61.0090667 67.4607111,60.9809111 C67.3400444,60.9085111 67.2193778,60.8381222 67.0886556,60.7818111 C67.0243,60.7536556 66.9539111,60.7415889 66.8855333,60.7194667 C66.7709,60.6812556 66.6562667,60.6370111 66.5356,60.6128778 C66.3445444,60.5746667 66.1474556,60.5545556 65.9503667,60.5545556 L65.9383,60.5545556 L38.8506444,60.6832667 C37.2176222,60.6893 35.8963222,62.0146222 35.8963222,63.6476444 L35.8963222,138.746556 C35.8963222,140.3836 37.2256667,141.710933 38.8607,141.710933 L67.5954556,141.710933 C68.4260444,141.710933 69.2164111,141.363011 69.7795222,140.751633 C70.3406222,140.140256 70.6221778,139.321733 70.5497778,138.493156 L70.4110111,136.866167 L71.8690667,137.956189 C71.9615778,138.026578 72.0581111,138.088922 72.1586667,138.147244 C76.1929556,140.478122 80.7883444,141.710933 85.4460778,141.710933 L117.503189,141.710933 C129.5598,141.710933 140.031656,133.545822 142.973911,121.855233 L152.657411,83.3665889 C153.858044,78.5962333 152.812267,73.6328111 149.785544,69.7513667 C146.760833,65.8719333 142.203656,63.6476444 137.284478,63.6476444 L137.284478,63.6476444 Z" id="Fill-25"></path>
                    </g>
                </g>
            </g>
        </g>
    </g>
</svg>