<svg width="230" height="230" viewBox="0 0 230 230" xmlns="http://www.w3.org/2000/svg"><title>E7DA7AE8-E081-4BE1-BD95-DBA3B72DE670</title><g fill="none" fill-rule="evenodd"><g stroke="#FFF" stroke-width="3" stroke-linejoin="round"><path d="M167.257 66.61v91.746M147.685 75.7v91.746M97.935 79.696v95.245M69.178 74.379v93.303M147.346 74.379L65.74 62.425M166.058 66.427L88.07 55.595M97.935 79.216l63.65-22.53M125.577 181.294l-82.092-19.815-2.638-91.438 84.73 13.209z"/><path d="M182.602 148.272l-57.025 33.022V83.25l58.343-23.774z"/><path d="M125.577 83.659L40.847 70.04l66.001-20.193 77.072 9.628z"/><g><path d="M71.553 74.379l62.149-21.474M125.577 113.95l-84.73-15.41M125.577 147.415l-84.73-18.495M125.577 113.95l57.959-28.548M125.577 147.415l57.49-30.418"/></g></g><path d="M141.675 68.612a48.863 48.863 0 0 0-14.447-7.757c-10.144-3.41-21.324-3.41-31.469 0a48.892 48.892 0 0 0-12.358 6.217 51.3 51.3 0 0 0-5.333 4.299 69.096 69.096 0 0 0-1.823 1.779 52.277 52.277 0 0 0-4.46 5.25 48.83 48.83 0 0 0-6.538 12.237c-3.653 10.057-3.919 21.233-.761 31.456a48.847 48.847 0 0 0 8.127 15.581l69.062-69.062zm-60.363 77.763c.197.153.392.305.592.452a48.686 48.686 0 0 0 12.734 6.912 49.49 49.49 0 0 0 35.391-.643 49.159 49.159 0 0 0 15.81-10.353c4.562-4.45 8.256-9.762 10.791-15.613a49.42 49.42 0 0 0 4.038-17.86 49.665 49.665 0 0 0-2.537-17.511c-1.6-4.777-3.95-9.3-6.93-13.36-.269-.365-.547-.73-.827-1.087l-69.062 69.063zm-12.755-82.94c2.071-1.991 4.247-3.862 6.556-5.563a61.24 61.24 0 0 1 15.322-8.188c12.803-4.649 27.04-4.906 40-.726a61.167 61.167 0 0 1 15.55 7.583 62.08 62.08 0 0 1 14.67 13.955 61.317 61.317 0 0 1 8.9 16.644 61.804 61.804 0 0 1 3.427 21.828 61.695 61.695 0 0 1-4.771 22.372c-3.07 7.335-7.59 14.03-13.216 19.654-5.625 5.626-12.32 10.146-19.654 13.216a61.734 61.734 0 0 1-22.373 4.773 61.805 61.805 0 0 1-21.828-3.428 61.29 61.29 0 0 1-16.644-8.902 62.124 62.124 0 0 1-13.956-14.668 61.161 61.161 0 0 1-7.582-15.551c-4.18-12.959-3.924-27.197.727-40a61.199 61.199 0 0 1 8.187-15.32c1.701-2.31 3.572-4.486 5.564-6.556.561-.57.556-.565 1.121-1.123z" fill="#FFF"/></g></svg>