<?xml version="1.0" encoding="UTF-8" standalone="no"?>
<svg width="230px" height="230px" viewBox="0 0 230 230" version="1.1" xmlns="http://www.w3.org/2000/svg" xmlns:xlink="http://www.w3.org/1999/xlink">
    <!-- Generator: Sketch 39.1 (31720) - http://www.bohemiancoding.com/sketch -->
    <title>10</title>
    <desc>Created with Sketch.</desc>
    <defs></defs>
    <g id="Page-1" stroke="none" stroke-width="1" fill="none" fill-rule="evenodd">
        <g id="10" transform="translate(-639.000000, -474.000000)" fill="#FFFFFF">
            <g id="Group-14" transform="translate(639.000000, 474.000000)">
                <g id="noun_263692_cc" transform="translate(63.500000, 106.000000) rotate(-90.000000) translate(-63.500000, -106.000000) translate(3.500000, 46.500000)">
                    <g id="Group">
                        <path d="M117.584,19.5945946 C117.584,19.2702703 117.584,18.7837838 117.258667,18.4594595 L103.757333,0.621621622 C103.269333,-0.027027027 102.293333,-0.189189189 101.642667,0.135135135 C77.2426667,14.8918919 66.0186667,40.027027 58.048,58.5135135 C54.4693333,66.6216216 51.3786667,73.5945946 48.1253333,77.8108108 C45.1973333,81.5405405 41.944,83.6486486 38.528,83.6486486 C38.528,83.6486486 38.528,83.6486486 38.3653333,83.6486486 C32.184,83.6486486 27.304,77.6486486 27.1413333,77.6486486 C26.816,77.3243243 26.328,77 25.84,77 C8.10933333,77 1.27733333,97.9189189 0.789333333,99.2162162 L0.789333333,99.2162162 L0.789333333,99.2162162 L0.789333333,99.3783784 L0.789333333,99.8648649 C1.928,116.567568 6.64533333,118.513514 7.94666667,118.675676 L8.10933333,118.675676 L60,118.675676 C60.6506667,118.675676 61.1386667,118.351351 61.464,117.864865 C62.6026667,115.756757 68.1333333,105.540541 68.4586667,100.513514 C68.6213333,100.351351 68.6213333,100.027027 68.6213333,99.8648649 C69.5973333,83 75.4533333,68.4054054 82.7733333,56.5675676 C85.376,57.7027027 91.5573333,63.0540541 91.5573333,85.9189189 L91.5573333,116.72973 C91.5573333,117.540541 92.208,118.351351 93.184,118.351351 L103.594667,118.837838 L103.594667,118.837838 C104.082667,118.837838 104.408,118.675676 104.733333,118.351351 C105.058667,118.027027 105.221333,117.540541 105.221333,117.054054 C105.221333,116.567568 102.944,75.3783784 108.149333,64.5135135 C108.8,63.0540541 109.613333,61.4324324 110.426667,59.8108108 C115.957333,49.1081081 122.626667,35.4864865 117.584,19.5945946 L117.584,19.5945946 Z M59.024,115.594595 L8.272,115.594595 C6.64533333,115.108108 4.856,108.783784 4.04266667,101.486486 L64.88,101.486486 C64.2293333,104.891892 61.3013333,111.378378 59.024,115.594595 L59.024,115.594595 Z M65.368,98.2432432 L4.69333333,98.2432432 C6.808,93.2162162 12.9893333,80.8918919 25.0266667,80.4054054 C26.6533333,82.1891892 31.8586667,87.0540541 38.3653333,87.0540541 C42.7573333,87.0540541 46.9866667,84.6216216 50.5653333,80.0810811 C54.144,75.3783784 57.3973333,68.2432432 60.976,59.972973 C68.784,42.2972973 79.3573333,18.1351351 102.130667,3.86486486 L113.68,19.1081081 C108.962667,22.5135135 93.3466667,34.3513514 81.1466667,53.3243243 C80.6586667,53.6486486 80.3333333,53.972973 80.3333333,54.6216216 L80.3333333,54.6216216 C72.688,66.6216216 66.6693333,81.2162162 65.368,98.2432432 L65.368,98.2432432 Z M107.498667,58.5135135 C106.685333,60.1351351 105.872,61.7567568 105.221333,63.2162162 C100.341333,73.5945946 101.642667,107.162162 101.968,115.432432 L94.8106667,115.108108 L94.8106667,85.9189189 C94.8106667,72.7837838 92.8586667,63.3783784 88.792,57.7027027 C87.328,55.5945946 85.7013333,54.4594595 84.5626667,53.8108108 C95.9493333,36.6216216 109.938667,25.7567568 114.981333,22.027027 C118.722667,36.1351351 112.541333,48.4594595 107.498667,58.5135135 L107.498667,58.5135135 Z" id="Shape" transform="translate(60.080067, 59.405405) rotate(-270.000000) translate(-60.080067, -59.405405) "></path>
                    </g>
                </g>
                <g id="Group-13" transform="translate(143.000000, 23.000000)">
                    <g id="Group">
                        <path d="M32.3333333,25.385567 L39.3333333,13.1938144 C40,11.857732 39.8333333,10.3546392 38.8333333,9.18556701 L31.3333333,1.00206186 C30.8333333,0.334020619 29.8333333,0 29,0 L13.8333333,0 C12.8333333,0 12,0.334020619 11.3333333,1.00206186 L3.83333333,9.18556701 C2.83333333,10.1876289 2.66666667,11.857732 3.33333333,13.1938144 L10.3333333,25.385567 L3.66666667,108.05567 C2.5,108.556701 1.83333333,109.725773 1.83333333,111.061856 L1.83333333,114.736082 C1.83333333,115.738144 2.33333333,116.573196 3,117.241237 L0.666666667,144.463918 C0.5,145.63299 1.16666667,146.802062 2,147.470103 L19.5,159.995876 C20,160.329897 20.8333333,160.663918 21.5,160.663918 C22.1666667,160.663918 22.8333333,160.496907 23.5,159.995876 L41,147.470103 C42,146.802062 42.5,145.63299 42.3333333,144.463918 L32.3333333,25.385567 L32.3333333,25.385567 Z M6,113.901031 L6,111.896907 L25.6666667,111.896907 L25.6666667,113.901031 L6,113.901031 L6,113.901031 Z M7.16666667,115.571134 L26.5,115.571134 C27,115.571134 27.3333333,115.237113 27.3333333,114.736082 L27.3333333,111.061856 C27.3333333,110.560825 27,110.226804 26.5,110.226804 L7.66666667,110.226804 L14.6666667,25.385567 L28.1666667,25.385567 L38,144.296907 L21.3333333,156.154639 L4.66666667,144.296907 L7.16666667,115.571134 L7.16666667,115.571134 Z M28.5,23.7154639 L14.3333333,23.7154639 L7.33333333,11.5237113 L14.1666667,4.17525773 L28.5,4.17525773 L35.3333333,11.5237113 L28.5,23.7154639 L28.5,23.7154639 Z" id="Shape"></path>
                    </g>
                </g>
            </g>
        </g>
    </g>
</svg>