<?xml version="1.0" encoding="UTF-8" standalone="no"?>
<svg width="230px" height="230px" viewBox="0 0 230 230" version="1.1" xmlns="http://www.w3.org/2000/svg" xmlns:xlink="http://www.w3.org/1999/xlink">
    <!-- Generator: sketchtool 39.1 (31720) - http://www.bohemiancoding.com/sketch -->
    <title>7345971E-4FA6-4119-977A-9D2BAE2E87A9</title>
    <desc>Created with sketchtool.</desc>
    <defs></defs>
    <g id="Page-1" stroke="none" stroke-width="1" fill="none" fill-rule="evenodd">
        <g id="2" transform="translate(-1453.000000, -469.000000)" fill="#FFFFFF">
            <g id="Group-13" transform="translate(1453.000000, 469.000000)">
                <g id="noun_202152_cc" transform="translate(47.000000, 35.000000)">
                    <g id="Group">
                        <path d="M43.3594595,112.738776 L43.1945946,112.573469 L43.1945946,112.573469 C43.3594595,112.573469 43.3594595,112.738776 43.3594595,112.738776 L43.3594595,112.738776 Z" id="Shape"></path>
                        <g id="Shape">
                            <path d="M31.6540541,134.228571 L31.3243243,133.897959 L31.3243243,133.897959 C31.6540541,133.897959 31.6540541,134.228571 31.6540541,134.228571 L31.6540541,134.228571 Z"></path>
                            <path d="M28.3567568,128.938776 C28.027027,128.277551 27.6972973,127.946939 27.6972973,127.285714 C27.3675676,126.62449 27.0378378,125.302041 26.3783784,123.979592 C26.7081081,124.640816 27.3675676,126.62449 28.3567568,128.938776 L28.3567568,128.938776 Z"></path>
                            <path d="M120.096119,89.71875 C117.856565,80.15625 108.058513,74.53125 100.220071,70.59375 C99.9401271,68.0625 98.8203498,66.09375 97.4206281,64.40625 C98.5404055,63 99.3802385,61.03125 99.3802385,58.5 C99.3802385,55.125 97.7005725,52.3125 94.9011291,50.34375 C93.5014075,49.5 92.1016858,48.9375 90.7019641,48.9375 C93.2214631,42.75 96.3008508,34.59375 96.3008508,25.875 C96.3008508,10.125 86.5027991,0 71.3858051,0 C56.2688111,0 46.4707594,10.125 46.4707594,25.875 C46.4707594,34.59375 48.9902584,42.46875 51.2298131,48.9375 C51.7897017,51.1875 52.6295347,53.15625 52.9094791,54.84375 C53.1894234,55.6875 53.1894234,56.25 53.1894234,57.09375 L53.1894234,58.21875 C51.7897017,59.34375 50.9498687,61.03125 50.6699244,62.71875 C40.0320397,64.125 23.2353797,73.6875 18.476326,83.25 C9.51810735,100.40625 20.995825,129.9375 20.995825,130.5 C21.2757694,131.0625 21.5557137,131.90625 22.1156024,132.75 L20.995825,132.75 C16.79666,132.1875 8.67827435,133.03125 3.91922067,137.53125 C1.11977733,140.0625 0,143.15625 0,146.8125 C0.279944334,150.75 2.519499,154.6875 6.43871968,157.78125 C9.51810735,160.03125 13.7172724,162 17.636493,162 C18.476326,162 19.0362147,162 19.8760477,161.71875 C23.515324,160.875 25.4749344,158.34375 26.874656,156.65625 C27.4345447,156.09375 28.2743777,154.96875 28.554322,154.96875 C30.233988,154.96875 32.753487,154.6875 37.5125407,154.125 C39.7520954,155.53125 41.9916501,156.65625 44.2312047,156.65625 C48.9902584,156.65625 52.3495904,154.40625 54.8690894,151.59375 C60.1880318,151.03125 65.2270298,150.46875 69.7061391,150.46875 L73.9053041,150.46875 C96.3008508,150.46875 112.537622,150.1875 117.57662,143.71875 C123.735396,134.4375 122.335674,98.4375 120.096119,89.71875 L120.096119,89.71875 Z M71.1058608,8.15625 C81.7437454,8.15625 87.6225765,14.34375 87.6225765,25.59375 C87.6225765,33.75 84.2632445,42.1875 81.7437454,47.8125 C81.1838568,49.21875 80.6239681,50.625 80.0640794,51.75 C76.4248031,53.71875 72.7855268,56.25 70.2660278,58.5 C66.6267514,56.25 63.8273081,55.125 61.0278648,55.125 C61.0278648,54.28125 60.7479204,53.4375 60.4679761,52.59375 C59.9080874,50.625 59.3481988,48.375 58.5083658,46.40625 C56.5487554,40.5 54.3092007,33.46875 54.3092007,25.875 C54.3092007,14.625 60.4679761,8.15625 71.1058608,8.15625 L71.1058608,8.15625 Z M28.554322,145.6875 C24.0752127,145.40625 21.5557137,148.5 20.155992,150.46875 C19.0362147,151.59375 18.476326,152.4375 17.636493,152.71875 C16.79666,153 13.7172724,152.4375 11.1977733,150.1875 C9.23816301,148.78125 8.11838568,147.09375 8.11838568,145.6875 C8.11838568,144.5625 8.39833001,143.71875 9.23816301,143.15625 C11.4777177,141.1875 16.2367714,140.34375 19.316159,140.625 C20.155992,140.90625 21.2757694,140.90625 25.4749344,140.34375 C26.3147674,142.03125 27.714489,144 29.1142107,145.6875 L28.554322,145.6875 L28.554322,145.6875 Z M49.2702027,142.59375 C47.0306481,145.40625 45.0710377,147.09375 43.9512604,147.09375 C41.9916501,147.09375 40.3119841,145.6875 38.9122624,144.28125 C36.3927634,141.75 34.7130974,138.09375 33.8732644,137.25 C33.59332,136.6875 33.3133757,136.125 32.753487,135.5625 L32.753487,135.5625 C32.753487,135.5625 32.4735427,135.28125 32.4735427,135 L32.1935984,134.71875 L31.913654,134.4375 L31.913654,134.4375 C31.073821,133.03125 30.233988,130.5 29.394155,128.53125 C29.1142107,127.96875 28.8342664,127.6875 28.8342664,127.125 C28.554322,126.5625 28.2743777,125.4375 27.714489,124.3125 L27.714489,124.3125 C24.9150457,116.15625 20.4359364,97.3125 25.7548787,87.1875 C29.1142107,80.4375 44.5111491,72 52.3495904,71.15625 C53.1894234,72.28125 59.9080874,78.1875 60.7479204,79.03125 C60.7479204,79.03125 60.7479204,79.3125 61.0278648,79.3125 C59.9080874,81 58.7883101,83.25 58.2284214,84.09375 C57.9484771,84.375 57.6685327,84.65625 57.6685327,84.9375 C55.7089224,88.875 53.1894234,93.375 50.6699244,97.875 L49.8300914,99.28125 L47.3105924,104.0625 L46.4707594,100.96875 L45.0710377,95.90625 C45.0710377,95.90625 41.1518171,91.125 38.9122624,95.90625 C37.2325964,99 41.1518171,110.25 43.6713161,117 C43.6713161,117.28125 43.9512604,117.28125 43.9512604,117.5625 C44.2312047,118.40625 44.7910934,119.25 45.6309264,119.8125 C45.6309264,119.8125 45.9108707,119.8125 45.9108707,120.09375 L46.1908151,120.09375 L46.4707594,120.09375 L47.0306481,120.09375 C47.0306481,120.09375 47.3105924,120.09375 47.5905367,119.8125 C47.8704811,119.53125 48.1504254,119.53125 48.1504254,119.25 L48.4303697,118.96875 C48.4303697,118.96875 48.7103141,118.6875 48.7103141,118.40625 L49.8300914,116.4375 L54.5891451,108.28125 C58.2284214,101.8125 62.4275864,94.5 65.5069741,88.875 C65.7869184,88.59375 68.8663061,82.40625 69.7061391,80.15625 C70.2660278,78.75 69.1462504,75.375 67.1866401,73.125 C65.2270298,71.15625 62.7075308,69.1875 60.4679761,68.34375 C60.4679761,68.34375 59.9080874,68.0625 59.6281431,67.5 C59.0682544,66.9375 58.7883101,65.8125 59.3481988,64.96875 L59.3481988,64.96875 C59.3481988,64.6875 59.9080874,64.40625 60.4679761,64.125 L61.0278648,64.125 L61.5877534,64.125 C63.5473638,64.40625 66.6267514,66.09375 68.0264731,67.21875 C69.4261948,68.0625 70.8259164,69.1875 71.9456938,69.1875 C72.5055824,69.1875 73.0654711,68.90625 73.6253598,68.34375 C73.6253598,68.0625 73.9053041,68.0625 74.1852484,67.78125 C74.4651928,67.5 74.7451371,67.5 74.7451371,67.21875 C76.4248031,65.8125 79.2242464,63.84375 82.0236898,61.875 C84.2632445,60.46875 86.5027991,59.0625 88.1824651,58.5 L88.4624095,58.5 C88.7423538,58.5 89.0222981,58.21875 89.3022425,58.21875 L90.1420755,58.21875 C90.4220198,58.21875 90.7019641,58.21875 90.7019641,58.5 C92.9415188,60.1875 90.1420755,61.875 88.7423538,62.71875 C87.9025208,63.28125 86.5027991,64.125 85.6629661,64.96875 L85.6629661,64.96875 C85.1030775,65.25 84.8231331,65.53125 84.8231331,65.53125 C84.8231331,65.53125 87.6225765,65.53125 88.7423538,66.65625 C89.8621311,67.5 92.1016858,70.03125 92.3816301,72.28125 L92.3816301,72.28125 L92.3816301,72.28125 L92.3816301,73.125 C92.3816301,73.125 92.9415188,75.09375 91.5417971,76.78125 L90.9819085,77.34375 L90.7019641,77.625 C88.1824651,79.59375 82.8635228,82.125 82.0236898,83.8125 C81.1838568,85.5 76.1448588,97.03125 76.1448588,97.03125 C73.0654711,102.65625 58.2284214,131.625 49.2702027,142.59375 L49.2702027,142.59375 Z M110.857956,137.25 C107.778568,140.90625 82.8635228,140.90625 73.6253598,140.625 L69.1462504,140.625 C66.6267514,140.625 63.8273081,140.625 60.7479204,140.90625 C61.0278648,140.90625 61.0278648,140.625 61.0278648,140.34375 C62.4275864,137.8125 63.8273081,135.5625 65.2270298,133.3125 C78.3844134,131.34375 89.5821868,129.9375 89.5821868,129.9375 C90.9819085,129.65625 92.1016858,128.25 91.8217415,126.84375 C91.5417971,125.4375 90.1420755,124.3125 88.7423538,124.59375 C88.7423538,124.59375 80.0640794,126 68.8663061,127.40625 C76.1448588,115.03125 80.0640794,106.875 82.8635228,98.4375 C83.7033558,96.75 86.5027991,90.28125 87.9025208,87.1875 C88.7423538,86.625 89.5821868,86.0625 90.4220198,85.5 C91.8217415,84.65625 93.2214631,83.8125 94.6211848,82.6875 C96.0209065,81.5625 97.4206281,80.15625 98.2604611,78.75 C104.139292,81.84375 110.298067,85.78125 111.697789,91.125 C114.497232,102.09375 113.937344,133.59375 110.857956,137.25 L110.857956,137.25 Z"></path>
                            <path d="M59.0216216,64.4693878 C58.3621622,64.8 58.0324324,65.1306122 57.7027027,65.4612245 C57.7027027,65.1306122 58.3621622,64.8 59.0216216,64.4693878 L59.0216216,64.4693878 Z"></path>
                        </g>
                    </g>
                </g>
            </g>
        </g>
    </g>
</svg>