<svg xmlns="http://www.w3.org/2000/svg" width="231" height="231" viewBox="0 0 231 231">
    <g fill="none" fill-rule="evenodd">
        <g stroke="#FFF" stroke-width="3">
            <path d="M80.175 65.28c-.002 13.8-6.77 19.98-13.295 23.024-6.538 3.047-13.204 6.155-19.74 9.205-6.503 3.03-15.611 4.256-26.183-4.614 0 0-9.158 16.437-.93 34.078 8.225 17.642 26.703 21.193 26.703 21.193 0-13.8 6.909-20.045 13.296-23.023 6.537-3.047 13.204-6.156 19.74-9.205 6.501-3.032 15.61-4.255 26.183 4.614 0 0 9.157-16.436.93-34.079S80.175 65.281 80.175 65.281z"/>
            <path d="M87.54 81.073c3.224 2.297 7.253 5.25 9.47 10.002 2.21 4.74 1.89 9.731 1.574 13.684M39.366 132.374c-3.225-2.297-7.254-5.25-9.471-10.002-2.21-4.74-1.889-9.731-1.574-13.684M88.704 145.415L76.86 150.94l-5.522-11.844 11.843-5.524zM105.273 180.947l-11.845 5.523-5.521-11.844 11.843-5.524zM51.087 95.667l11.845-5.523-6.444-13.817-3.16 8.682-8.684-3.16 6.443 13.818z"/>
            <path d="M63.974 123.303l36.819 78.957 11.844-5.521-36.818-78.96-11.845 5.524zM47.938 113.49l30.707-14.32"/>
        </g>
        <g fill="#FFF">
            <path d="M177.69 158.266l-8.543-3.28a5.596 5.596 0 0 0-3.444-3.964l-5.79-2.222c4.665-9.726 16.35-25.416 25.603-37.189 10.645-13.543 20.446-24.946 20.544-25.061.4-.464.506-1.114.275-1.68-1.107-2.708-2.905-10.6-5.2-32.835a978.355 978.355 0 0 1-2.295-25.87 1.632 1.632 0 0 0-2.76-1.058c-.09.085-9.025 8.662-19.01 17.69-16.579 14.99-23.198 19.653-25.83 20.923-.55.267-.908.82-.92 1.433-.005.15-.35 15.19-1.5 32.378-.998 14.942-2.811 34.42-5.85 44.764l-6.007-2.306a5.598 5.598 0 0 0-5.212.641l-8.543-3.28a4.827 4.827 0 0 0-6.228 2.78l-.049.126a4.83 4.83 0 0 0 2.768 6.235l8.544 3.28a5.596 5.596 0 0 0 3.444 3.963l7.543 2.896c-2.158 8.113-5.88 21.738-7.264 25.516l-6.834 2.882a1.631 1.631 0 0 0-.994 1.376 46.71 46.71 0 0 0 .076 6.902c.433 4.995 1.647 8.637 3.614 10.834.188.288.473.522.82.645l.036.016c.288.11.606.14.918.074l.084-.02c2.94-.312 6.288-2.206 9.955-5.632 2.71-2.533 4.596-4.98 4.674-5.084.37-.484.44-1.134.183-1.685l-3.142-6.703c1.5-3.734 7.85-16.35 11.676-23.823l7.396 2.84a5.598 5.598 0 0 0 5.212-.642l8.543 3.28c2.467.946 5.251-.305 6.204-2.79l.048-.126c.954-2.484-.277-5.276-2.745-6.224zm25.274-73.114a840.077 840.077 0 0 0-20.005 24.435c-13.532 17.21-22.3 29.991-26.106 38.038l-3.914-1.502c.012-.026.034-.043.044-.07l43.166-112.451c1.126 13.638 3.79 42.51 6.815 51.55zm-50.887 12.586a842.753 842.753 0 0 0 1.48-31.552c8.297-4.697 29.585-24.367 39.545-33.75l-43.165 112.45c-.01.026-.006.053-.013.08l-3.893-1.494c2.554-8.522 4.588-23.886 6.046-45.734zm-14.037 87.566c-.134.398-.11.833.07 1.213l2.998 6.4a44.479 44.479 0 0 1-3.697 3.923c-2.838 2.653-5.414 4.257-7.51 4.684-2.445-3.323-2.71-10.353-2.566-13.883l6.532-2.753a1.63 1.63 0 0 0 .864-.856c1.37-3.167 6.05-20.553 7.563-26.225l7.673 2.946c-2.67 5.229-10.826 21.28-11.927 24.55zm39.3-21.858c-.309.806-1.2 1.214-1.987.913l-9.442-3.625a1.633 1.633 0 0 0-1.763.395c-.66.688-1.685.925-2.55.593l-8.762-3.363-11.065-4.248-8.912-3.42c-.867-.334-1.468-1.197-1.498-2.15a1.633 1.633 0 0 0-1.046-1.472l-9.442-3.625c-.787-.302-1.197-1.227-.891-2.019l.048-.126c.304-.791 1.226-1.203 2.012-.901l9.442 3.624c.613.235 1.309.08 1.763-.395.66-.687 1.685-.925 2.551-.594l7.258 2.786c.111.08.215.169.348.22l13.689 5.254c.133.051.269.056.405.07l7.037 2.701c.868.333 1.469 1.197 1.498 2.147.02.657.433 1.238 1.046 1.473l9.442 3.625c.786.301 1.175 1.202.868 2.007l-.049.13z"/>
            <path d="M133.246 189.592l-2.154.959a1.63 1.63 0 0 0-.827 2.153l.96 2.154c.175.395.502.704.905.86.404.155.853.142 1.248-.032l2.156-.96a1.63 1.63 0 0 0 .827-2.153l-.96-2.155a1.632 1.632 0 0 0-2.155-.826z"/>
        </g>
    </g>
</svg>
