<?xml version="1.0" encoding="UTF-8" standalone="no"?>
<svg width="230px" height="230px" viewBox="0 0 230 230" version="1.1" xmlns="http://www.w3.org/2000/svg" xmlns:xlink="http://www.w3.org/1999/xlink">
    <!-- Generator: Sketch 39.1 (31720) - http://www.bohemiancoding.com/sketch -->
    <title>10</title>
    <desc>Created with Sketch.</desc>
    <defs></defs>
    <g id="Page-1" stroke="none" stroke-width="1" fill="none" fill-rule="evenodd">
        <g id="10" transform="translate(-238.000000, -467.000000)" fill="#FFFFFF">
            <g id="Group-8" transform="translate(238.000000, 467.000000)">
                <path d="M221.531449,107.65974 L191.22056,58.081463 C190.515655,56.9066223 189.340815,55.9667498 188.165974,55.4968135 L175.712663,49.8575783 L175.712663,49.8575783 L138.822666,33.4098088 C137.882793,32.7049044 136.707952,32 135.533112,32 L134.828207,32 C132.948462,32 131.303685,32.9398725 130.128845,34.3496814 C127.074259,35.7594902 122.139928,37.4042671 116.970629,37.4042671 C111.80133,37.4042671 106.866999,35.7594902 103.812413,34.3496814 C102.637573,32.9398725 100.992796,32 99.1130507,32 L98.4081463,32 C97.2333056,32.2349681 96.0584649,32.7049044 95.1185924,33.4098088 L58.2285952,49.8575783 L58.2285952,49.8575783 L58.2285952,49.8575783 L45.775284,55.4968135 C44.6004433,55.9667498 43.4256027,56.9066223 42.7206983,58.081463 L12.4098088,107.424771 C11.4699363,109.069548 11,111.184262 11,113.064007 L15.2294264,155.828207 C15.4643946,157.238016 15.9343308,158.647825 16.8742034,159.822666 L18.7539485,168.986423 C18.9889166,170.161264 20.1637573,170.866168 21.3385979,170.866168 C21.3385979,170.866168 31.912164,169.456359 40.8409532,170.866168 L41.3108894,170.866168 C42.250762,170.866168 43.1906345,170.161264 43.4256027,169.221391 L45.3053477,160.52757 L45.3053477,160.52757 L45.3053477,160.52757 C46.7151566,158.882793 47.420061,156.76808 47.420061,154.653367 L48.3599335,104.605154 L54.9390413,105.545026 C54.7040732,115.17872 53.9991687,156.533112 57.0537545,181.439734 L57.0537545,181.439734 L57.0537545,181.439734 C57.5236908,184.964256 57.993627,188.018842 58.4635633,190.838459 C58.6985314,191.778332 59.638404,192.718204 60.5782765,192.718204 L60.8132447,192.718204 C61.0482128,192.718204 85.4848989,190.368523 116.500693,190.368523 C147.516487,190.368523 171.953173,192.718204 172.188141,192.718204 C173.362981,192.718204 174.302854,192.0133 174.537822,190.838459 C175.242727,188.018842 175.712663,184.964256 175.947631,181.439734 L175.947631,181.439734 L175.947631,181.439734 C179.002217,156.533112 178.297312,115.17872 178.062344,105.545026 L184.641452,104.605154 L186.286229,154.418398 C186.286229,156.76808 187.226101,158.882793 188.63591,160.52757 L190.515655,169.221391 C190.750623,170.161264 191.690496,170.866168 192.630369,170.866168 L193.100305,170.866168 C202.264062,169.456359 212.60266,170.866168 212.60266,170.866168 C213.777501,171.101136 214.952341,170.161264 215.18731,168.986423 L217.067055,159.822666 C218.006927,158.647825 218.711832,157.472984 218.711832,155.828207 L222.941258,113.064007 C223.176226,111.184262 222.70629,109.304516 221.531449,107.65974 L221.531449,107.65974 Z M116.970629,41.8686617 C121.200055,41.8686617 125.194514,40.9287891 128.249099,39.9889166 C128.014131,40.9287891 127.544195,41.8686617 126.839291,43.0435024 C124.724577,46.3330562 121.669992,47.9778332 116.970629,47.9778332 C112.506234,47.9778332 109.216681,46.3330562 107.101967,42.8085342 C106.397063,41.8686617 105.927127,40.693821 105.692158,39.7539485 C108.746744,40.9287891 112.741203,41.8686617 116.970629,41.8686617 L116.970629,41.8686617 Z M98.8780826,36.4643946 L98.8780826,36.4643946 C99.8179551,36.4643946 100.52286,36.9343308 100.52286,37.8742034 C100.52286,37.8742034 100.992796,41.6336935 103.342477,45.3931837 C106.397063,50.0925464 110.861457,52.6771959 116.970629,52.6771959 C123.0798,52.6771959 127.779163,50.3275145 130.833749,45.3931837 C133.18343,41.6336935 133.418398,38.1091715 133.653367,38.1091715 C133.653367,37.4042671 134.358271,36.6993627 135.063175,36.6993627 L135.298144,36.6993627 C136.003048,36.6993627 136.707952,37.6392352 136.707952,38.3441397 C136.707952,38.5791078 136.238016,42.8085342 133.653367,47.0379607 C131.303685,51.032419 126.369354,55.7317817 117.440565,55.7317817 C108.511776,55.7317817 103.577445,51.032419 101.227764,47.0379607 C98.6431144,42.8085342 98.1731782,38.5791078 98.1731782,38.3441397 C97.4682738,37.4042671 97.93821,36.4643946 98.8780826,36.4643946 L98.8780826,36.4643946 Z M39.4311444,166.166805 C32.8520366,165.461901 26.0379607,165.931837 22.7484068,166.166805 L21.5735661,160.52757 C25.0980881,159.822666 32.8520366,158.412857 40.605985,160.52757 L39.4311444,166.166805 L39.4311444,166.166805 Z M56.113882,100.845664 L48.8298698,99.9057911 L48.8298698,90.0371294 C48.8298698,88.8622887 47.8899972,87.687448 46.4801884,87.687448 C45.3053477,87.687448 44.1305071,88.6273206 44.1305071,90.0371294 L44.1305071,101.785536 L43.1906345,154.18343 C43.1906345,154.888335 42.9556664,155.593239 42.7206983,156.298144 C32.8520366,153.478526 23.4533112,155.358271 19.9287891,156.063175 C19.9287891,155.828207 19.693821,155.593239 19.693821,155.358271 L15.4643946,112.829039 C15.4643946,111.889166 15.6993627,110.714325 16.169299,110.009421 L46.4801884,60.4311444 C46.7151566,59.9612081 47.1850928,59.72624 47.420061,59.4912718 L59.8733721,53.8520366 L59.8733721,53.8520366 L93.2388473,39.2840122 C93.4738155,40.9287891 94.413688,44.9232474 96.9983375,49.1526739 C97.2333056,49.6226101 97.7032419,50.0925464 97.93821,50.5624827 C69.7420338,62.3108894 58.4635633,92.856747 56.113882,100.845664 L56.113882,100.845664 Z M171.0133,187.548906 C164.434192,187.078969 143.052092,185.434192 116.970629,185.434192 C90.889166,185.434192 69.5070657,187.078969 62.9279579,187.548906 C62.6929897,186.139097 62.4580216,184.49432 62.2230535,182.849543 C69.0371294,182.379607 90.6541978,180.73483 116.970629,180.73483 C143.28706,180.73483 164.904129,182.379607 171.718204,182.849543 C171.483236,184.729288 171.248268,186.139097 171.0133,187.548906 L171.0133,187.548906 Z M172.423109,178.620116 C165.609033,178.15018 143.756996,176.270435 116.970629,176.270435 C90.1842616,176.270435 68.332225,177.915212 61.5181491,178.620116 C58.4635633,151.833749 59.638404,107.65974 59.8733721,103.665281 C60.8132447,100.610695 71.1518426,65.3654752 100.992796,54.0870047 C105.222222,57.8464949 110.626489,59.9612081 116.970629,59.9612081 C123.314769,59.9612081 128.719036,57.8464949 132.948462,54.0870047 L132.948462,54.0870047 C161.144638,64.6605708 172.188141,96.381269 174.067886,102.725409 C174.067886,102.960377 175.242727,151.833749 172.423109,178.620116 L172.423109,178.620116 Z M211.192851,166.166805 C207.903297,165.931837 201.089221,165.461901 194.510114,166.166805 L193.335273,160.52757 C201.089221,158.412857 208.84317,159.587697 212.367692,160.52757 L211.192851,166.166805 L211.192851,166.166805 Z M214.247437,155.593239 C214.247437,155.828207 214.247437,156.063175 214.012469,156.298144 C210.252979,155.358271 200.854253,153.713494 191.22056,156.533112 C190.985592,155.828207 190.750623,155.123303 190.750623,154.418398 L189.810751,101.785536 L189.810751,90.0371294 C189.810751,88.8622887 188.870878,87.687448 187.46107,87.687448 C186.286229,87.687448 185.111388,88.6273206 185.111388,90.0371294 L185.111388,99.9057911 L178.062344,100.845664 C175.477695,92.6217789 164.434192,62.0759213 136.003048,50.5624827 C136.238016,50.0925464 136.707952,49.6226101 136.94292,49.1526739 C139.52757,44.9232474 140.467443,40.9287891 140.702411,39.2840122 L173.59795,54.0870047 L173.59795,54.0870047 L186.051261,59.72624 C186.521197,59.9612081 186.756165,60.1961762 186.991133,60.6661125 L217.302023,110.009421 C217.771959,110.949293 218.006927,111.889166 218.006927,112.829039 L214.247437,155.593239 L214.247437,155.593239 Z" id="Shape"></path>
            </g>
        </g>
    </g>
</svg>