<?xml version="1.0" encoding="UTF-8"?>
<svg width="230px" height="230px" viewBox="0 0 230 230" version="1.1" xmlns="http://www.w3.org/2000/svg" xmlns:xlink="http://www.w3.org/1999/xlink">
    <!-- Generator: Sketch 50.2 (55047) - http://www.bohemiancoding.com/sketch -->
    <title>Artboard 2 Copy 5</title>
    <desc>Created with Sketch.</desc>
    <defs></defs>
    <g id="Artboard-2-Copy-5" stroke="none" stroke-width="1" fill="none" fill-rule="evenodd">
        <path d="M173.321389,154.833778 L218,127.550556 L187.587111,124.559833 L204.857222,108.490111 L164.305944,110.731444 C159.046556,94.6617222 137.646833,88.6802778 137.646833,88.6802778 C138.022667,84.9447222 136.521611,77.0977778 133.895333,64.3855 C131.266778,51.6755 123.759222,44.5802222 123.759222,44.5802222 C106.796611,34.3051667 88.85,33.0432778 88.2076667,33 C88.4787222,33.2596667 89.4513333,34.9361111 92.9727778,43.8331111 C97.8563333,56.165 96.3507222,77.4667778 96.3507222,77.4667778 C96.3507222,77.4667778 89.5902778,71.4876111 79.8277222,64.7613333 C70.0628889,58.0350556 64.8126111,56.5385556 52.0433889,57.6569444 C39.2764444,58.7798889 13,76.3483889 13,76.3483889 C44.1645556,86.4366667 62.1817778,123.065611 62.1817778,123.065611 L16.3802222,141.376667 L64.8148889,157.446389 L45.2875,168.288611 L85.3126111,171.060667 C85.7226111,171.2315 86.3444444,171.434222 87.1485,171.434222 C87.1553333,171.434222 87.169,171.434222 87.1849444,171.434222 C90.7177778,181.732056 92.6561667,184.483611 93.8269444,185.652111 C98.7742778,190.576667 115.484056,196.150389 117.376889,196.769944 L118.078444,197 L118.784556,196.767667 C120.675111,196.150389 137.382611,190.574389 142.327667,185.649833 C143.298,184.681778 144.810444,182.563444 147.284111,176.076333 L172.193889,174.641333 L162.433611,168.286333 L195.096944,158.942889 C185.327556,153.713111 173.321389,154.833778 173.321389,154.833778 Z M149.669919,167.29211 L148.990021,167.246281 L148.664853,167.431889 L146.177202,165.610178 L145.210792,168.550121 C144.103401,171.911693 143.177922,174.434591 142.379782,176.444201 C140.510632,181.153152 139.421432,182.693013 138.973473,183.146722 C135.592178,186.540374 123.265343,191.192038 117.946681,193 C112.623471,191.192038 100.29891,186.542666 96.9153404,183.146722 C96.3491383,182.576148 94.8028834,180.378638 91.9127511,172.175211 C91.5284613,171.082185 91.1259802,169.911249 90.6939384,168.598242 L89.4501128,165.878279 L86.9897484,167.535005 L86.3257684,167.289818 C83.8563084,166.79028 74.6811048,156.962208 75.008547,149.675365 C75.0517512,148.797736 75.2723199,145.915079 76.4752153,145.915079 C76.5661714,145.915079 76.6366625,145.967783 76.7253447,145.97924 C81.4459699,152.406785 85.5321758,155.330688 85.5321758,155.330688 L85.3820982,147.434317 C88.3791039,151.946202 92.1310459,152.695509 92.1310459,152.695509 L91.0077372,141.792743 C90.6279952,136.153459 101.128885,130.138377 101.128885,130.138377 C101.128885,139.162146 102.629662,155.706488 102.629662,155.706488 C111.252307,139.540237 131.110312,126 131.110312,126 C132.611089,135.773077 130.362198,154.57909 130.362198,154.57909 C137.856986,151.194603 147.230019,131.268067 147.230019,131.268067 C149.478911,135.404152 143.853272,151.570403 143.853272,151.570403 L149.10599,148.559424 C149.10599,151.56582 148.353328,154.198707 148.353328,154.198707 C149.951883,153.99935 153.239948,150.706522 155.975455,147.670338 C157.24202,146.746879 158.510858,146.185471 158.642745,146.121311 C158.763262,146.066316 159.147552,145.912788 159.52502,145.912788 C160.725641,145.912788 160.94621,148.795444 160.991688,149.673074 C161.314582,156.964499 152.137105,166.792572 149.669919,167.29211 Z" id="Shape" fill="#FFFFFF" fill-rule="nonzero"></path>
    </g>
</svg>