<?xml version="1.0" encoding="UTF-8" standalone="no"?>
<svg width="230px" height="230px" viewBox="0 0 230 230" version="1.1" xmlns="http://www.w3.org/2000/svg" xmlns:xlink="http://www.w3.org/1999/xlink">
    <!-- Generator: sketchtool 39.1 (31720) - http://www.bohemiancoding.com/sketch -->
    <title>69004560-09EE-4E9B-A155-526E5A9E79B5</title>
    <desc>Created with sketchtool.</desc>
    <defs>
        <polygon id="path-1" points="193.660839 92.3084545 193.660839 184.616818 0 184.616818 0 92.3084545 0 9.09090909e-05 193.660839 9.09090909e-05"></polygon>
    </defs>
    <g id="Page-1" stroke="none" stroke-width="1" fill="none" fill-rule="evenodd">
        <g id="8" transform="translate(-643.000000, -458.000000)">
            <g id="Group-2" transform="translate(178.000000, 405.000000)">
                <g id="Group-14" transform="translate(425.000000, 53.000000)">
                    <g id="Page-1" transform="translate(60.000000, 25.000000)">
                        <mask id="mask-2" fill="white">
                            <use xlink:href="#path-1"></use>
                        </mask>
                        <g id="Clip-2"></g>
                        <path d="M112.94689,175.093273 L111.848914,181.087818 L109.397459,178.623727 L112.946438,175.093273 L112.94689,175.093273 Z M80.7496737,175.093273 L84.2986527,178.623727 L81.8471981,181.087818 L80.7492214,175.093273 L80.7496737,175.093273 Z M106.690051,161.670091 L113.751832,168.767364 L106.690051,175.902364 L99.5925455,168.767364 L106.690051,161.670091 Z M87.0060606,161.670091 L94.1040186,168.767364 L87.0060606,175.902364 L79.9447319,168.767364 L87.0060606,161.670091 Z M116.495869,151.776909 L117.155198,152.439636 L114.960149,164.429182 L109.398816,158.876 L116.496774,151.777818 L116.495869,151.776909 Z M96.8118788,151.776909 L103.909385,158.874636 L96.8118788,165.972818 L89.7505501,158.874636 L96.8118788,151.776909 Z M77.2002424,151.776909 L84.2986527,158.874636 L78.7368671,164.428273 L76.5418182,152.438727 L77.2015991,151.776 L77.2002424,151.776909 Z M106.690051,141.921 L113.751832,149.018727 L106.690051,156.116909 L99.5925455,149.018727 L106.690051,141.921 Z M87.0060606,141.921 L94.1040186,149.018727 L87.0060606,156.116909 L79.9447319,149.018727 L87.0060606,141.921 Z M116.495869,132.028273 L120.264625,135.852818 L118.764177,143.980545 L116.495869,146.260545 L109.397459,139.162818 L116.495869,132.028273 Z M96.8118788,132.028273 L103.909385,139.162818 L96.8118788,146.260545 L89.7505501,139.162818 L96.8118788,132.028273 Z M77.2002424,132.028273 L84.2986527,139.162818 L77.2002424,146.260545 L74.9319347,143.980545 L73.4314872,135.852818 L77.2002424,132.028273 Z M71.6755385,126.511455 L74.4195758,129.269636 L72.5903683,131.145091 L71.6750862,126.511455 L71.6755385,126.511455 Z M122.021026,126.475091 L121.142373,131.182818 L119.239455,129.270545 L122.019669,126.475091 L122.021026,126.475091 Z M106.690051,122.135545 L113.751832,129.270545 L106.690051,136.368273 L99.5925455,129.270545 L106.690051,122.135545 Z M87.0060606,122.135545 L94.1040186,129.270545 L87.0060606,136.368273 L79.9447319,129.270545 L87.0060606,122.135545 Z M111.483524,121.472818 L121.544844,121.472818 L116.495869,126.511455 L111.483524,121.472818 Z M91.7990816,121.472818 L101.860853,121.472818 L96.8118788,126.511455 L91.7990816,121.472818 Z M72.1512681,121.472818 L82.2130396,121.472818 L77.2002424,126.511455 L72.1512681,121.472818 Z M60.8459068,112.572818 C58.4102797,112.572818 56.4187273,114.575091 56.4187273,117.022818 C56.4187273,119.470545 58.3917389,121.472818 60.8459068,121.472818 L66.7730816,121.472818 L66.9924056,122.538727 L69.2240839,134.491 L71.3092448,145.891455 L72.3335105,151.151 L73.2121632,155.821455 L74.6384476,163.434182 L76.3215897,172.444636 L78.2602331,183.036455 C78.4668951,184.090545 79.4608625,184.768727 80.528993,184.580545 C80.9595012,184.505545 81.3266993,184.256455 81.5894359,183.955091 L81.7042984,184.030091 C82.0606434,184.425091 82.5160233,184.616909 83.0215991,184.616909 C83.5280793,184.616909 84.0558135,184.425091 84.4117063,184.030091 L87.0096783,181.418727 L89.6076503,184.030091 C90.0010769,184.387364 90.492634,184.581455 90.960676,184.581455 C91.4671562,184.581455 91.9948904,184.387364 92.3887692,184.030091 C93.1190956,183.257364 93.1190956,182.024636 92.3887692,181.271455 L89.7912494,178.660091 L96.8521259,171.562364 L103.950536,178.660091 L101.352564,181.271455 C100.566615,182.062364 100.566615,183.257818 101.352564,184.030091 C101.746895,184.425091 102.164289,184.616909 102.669865,184.616909 C103.175893,184.616909 103.704079,184.425091 104.096149,184.030091 L106.693669,181.418727 L109.255464,184.030091 C109.64889,184.425091 110.177077,184.581455 110.681296,184.581455 C111.14979,184.581455 111.624163,184.430545 111.998597,184.030091 C112.030252,183.993727 112.030252,183.993727 112.030252,183.955091 C112.330522,184.275091 112.696364,184.505091 113.164858,184.580545 C113.280172,184.580545 113.399105,184.616909 113.530699,184.616909 C114.467235,184.616909 115.26449,183.976455 115.433166,183.035091 L117.40889,172.443273 L119.056308,163.432818 L120.520126,155.820091 L121.360793,151.149636 L122.348881,145.890091 L123.555389,139.160091 L124.434494,134.489636 L126.666172,122.500545 L126.849319,121.470091 L132.849753,121.470091 C135.28538,121.470091 137.276932,119.468727 137.276932,117.021 C137.276932,114.572364 135.28538,112.570545 132.849753,112.570545 L60.8445501,112.570545 L60.8459068,112.572818 Z M42.7708951,65.4255455 C40.860289,65.4255455 39.3688858,66.9246364 39.3688858,68.846 L39.3688858,123.973727 C39.3688858,125.894182 40.860289,127.394182 42.7708951,127.394182 L64.3944336,127.394182 L63.9557855,124.893273 L60.8092774,124.893273 C57.812,124.893273 55.1118275,123.151 53.894014,120.553273 L46.1742611,120.553273 L46.1742611,72.3028182 L147.449497,72.3028182 L147.449497,120.553273 L139.766373,120.553273 C138.549464,123.152364 135.886825,124.893273 132.81448,124.893273 L129.667972,124.893273 L129.191338,127.394182 L150.851958,127.394182 C152.762112,127.394182 154.253967,125.895091 154.253967,123.973727 L154.253967,68.846 C154.253967,66.9250909 152.762112,65.4255455 150.851958,65.4255455 L42.7708951,65.4255455 Z M50.3445828,9.09090909e-05 C22.5826853,9.09090909e-05 0,22.6973636 0,50.6782727 L0,118.310545 C0,119.120091 0.261379953,119.969182 0.804941725,120.590545 L30.2947506,154.866 C30.9124755,155.619182 31.8254965,156.006909 32.855641,156.006909 L69.7364429,156.006909 L68.5294825,149.203273 L34.3565408,149.203273 L6.80582751,117.097364 L6.80582751,50.6791818 C6.80582751,26.5391818 26.3111935,6.84145455 50.345035,6.84145455 L143.315352,6.84145455 C167.331105,6.84145455 186.855012,26.5205455 186.855012,50.6791818 L186.855012,117.097364 L159.304298,149.203273 L125.131357,149.203273 L123.924396,156.006909 L160.805198,156.006909 C161.817706,156.006909 162.784541,155.619182 163.40317,154.866 L192.855897,120.590545 C193.398555,119.969182 193.660839,119.138273 193.660839,118.310545 L193.660839,50.6782727 C193.642751,22.6973636 171.041524,9.09090909e-05 143.279175,9.09090909e-05 L50.3459394,9.09090909e-05 L50.3445828,9.09090909e-05 Z" id="Fill-1" fill="#FFFFFF" mask="url(#mask-2)"></path>
                    </g>
                </g>
            </g>
        </g>
    </g>
</svg>