<?xml version="1.0" encoding="UTF-8"?>
<svg width="230px" height="230px" viewBox="0 0 230 230" version="1.1" xmlns="http://www.w3.org/2000/svg" xmlns:xlink="http://www.w3.org/1999/xlink">
    <!-- Generator: Sketch 50.2 (55047) - http://www.bohemiancoding.com/sketch -->
    <title>Artboard 2</title>
    <desc>Created with Sketch.</desc>
    <defs>
        <polygon id="path-1" points="0 0.0348288591 38.1972292 0.0348288591 38.1972292 51.3154091 0 51.3154091"></polygon>
        <polygon id="path-3" points="0.0316877483 0.0656003356 16.0321325 0.0656003356 16.0321325 43.0137599 0.0316877483 43.0137599"></polygon>
    </defs>
    <g id="Artboard-2" stroke="none" stroke-width="1" fill="none" fill-rule="evenodd">
        <g id="Group-Copy" transform="translate(7.000000, 62.000000)">
            <path d="M212.234623,62.6518034 C207.795464,70.1497027 203.533785,77.2799242 199.368031,84.4650819 C198.805412,85.4356221 198.481709,86.6808436 198.462667,87.8061389 C198.371053,93.2451859 198.421351,98.6867463 198.421351,104.274085 L184.098992,104.274085 C184.098992,100.971089 183.855406,97.6767094 184.152523,94.4318805 C184.680652,88.6650114 183.368593,83.5968738 180.089881,78.7578168 C177.046851,74.2670483 174.609553,69.3662329 171.899568,64.6492564 C171.847114,64.557696 171.722806,64.5070685 171.312877,64.1914544 L171.312877,73.8817765 L159.010702,73.8817765 C158.817055,74.1790785 158.707836,74.2720752 158.695621,74.3765617 C158.286051,77.9391591 158.287488,77.9395181 161.838887,77.9395181 C164.470192,77.9395181 167.101497,77.9395181 169.899503,77.9395181 L169.899503,88.3361121 C166.987248,88.3361121 164.075712,88.335753 161.164535,88.3364711 C158.594666,88.3368302 158.594666,88.3375483 158.598258,90.9924409 C158.598977,91.6387497 158.598258,92.2850584 158.598258,93.1629611 L171.389402,93.1629611 L171.389402,104.3143 L144.83744,104.3143 L144.83744,62.7738839 C145.452154,62.7361826 146.141596,62.6571893 146.831038,62.6568302 C159.57871,62.6492899 172.326023,62.6805282 185.073336,62.6133839 C186.604192,62.6054846 187.287526,63.137253 187.799488,64.5059913 C188.938379,67.5519007 190.238583,70.5374879 191.602737,73.8638235 C192.995273,70.4225886 194.30877,67.3174342 195.496881,64.165243 C195.920462,63.0413839 196.485237,62.6054846 197.715382,62.6234376 C202.428306,62.6934544 207.142667,62.6518034 212.234623,62.6518034" id="Fill-1" fill="#FFFFFF"></path>
            <path d="M4.9396601,55.4157309 L23.0731717,55.4157309 C25.6020839,65.0256235 28.1460856,74.6929658 30.4985955,83.6317745 C32.9308637,74.7493383 35.5751022,65.0934859 38.2258075,55.4146537 L55.8613687,55.4146537 C55.6702363,56.1001 55.5437727,56.7018852 55.336473,57.2742275 C49.8500376,72.4452477 44.3406088,87.6080094 38.8875856,102.790519 C38.4291551,104.067697 37.8076154,104.491389 36.4431022,104.457637 C32.3154316,104.355305 28.1830906,104.455483 24.0547015,104.378285 C23.5093273,104.367872 22.648872,103.906838 22.4818108,103.453345 C16.6242478,87.5394289 10.8324316,71.6018148 4.9396601,55.4157309" id="Fill-3" fill="#FFFFFF"></path>
            <path d="M188.481458,28.9788315 L188.481458,50.2021738 L174.958837,50.2021738 L174.958837,8.64344564 L178.142342,8.64344564 C181.193994,8.64344564 184.247802,8.70987181 187.29658,8.61041208 C188.501577,8.5712745 189.098686,9.0201 189.657713,10.0225966 C193.033787,16.0788685 196.471297,22.1006705 199.895873,28.1292946 C200.201613,28.6675262 200.560885,29.1752376 201.066021,29.9630161 L201.066021,8.75044564 L214.458226,8.75044564 L214.458226,50.3777544 C211.799617,50.3777544 209.135259,50.0456235 206.588383,50.4499255 C201.911386,51.1928215 199.381756,49.3239121 197.4266,45.1239826 C194.912777,39.7237141 191.673944,34.6602443 188.481458,28.9788315" id="Fill-5" fill="#FFFFFF"></path>
            <g id="Group-9" transform="translate(0.000000, 0.324232)">
                <mask id="mask-2" fill="white">
                    <use xlink:href="#path-1"></use>
                </mask>
                <g id="Clip-8"></g>
                <path d="M32.6997084,16.7107789 C29.9171505,15.5535272 27.4579369,14.3194366 24.8622002,13.5409936 C23.5885826,13.1593124 21.9794055,13.3603862 20.6691422,13.7686379 C18.8939816,14.3215909 18.711831,16.2386144 20.3253194,17.1789936 C21.7505495,18.0098594 23.3726604,18.5358829 24.9530959,19.059752 C26.3689849,19.5286849 27.8664286,19.7477117 29.2941737,20.1868426 C34.4935512,21.7864567 37.983874,26.3748896 38.1818326,31.792393 C38.576672,42.6065742 31.3448955,50.5252923 20.2304717,51.2502352 C12.953427,51.7252721 6.3259452,49.572346 -0.000107781457,45.809752 C1.76247831,41.3135977 3.47620348,36.9413191 5.23627467,32.4516279 C6.97335248,33.4781815 8.4884005,34.5575171 10.1529055,35.3065171 C11.9341737,36.1079399 13.8300495,36.6985943 15.7270031,37.1786581 C16.6111704,37.4019936 17.7281455,37.3976849 18.5354286,37.0382654 C19.3570826,36.6720238 20.373821,35.8045339 20.4787283,35.0429668 C20.5768094,34.3298728 19.7400661,33.2839299 19.0423608,32.7234366 C18.3360329,32.155403 17.3099535,31.9554064 16.3977631,31.6810842 C15.4266522,31.3891681 14.4224882,31.209997 13.437725,30.9636815 C5.13100811,28.8861581 1.177225,22.6399433 2.82161076,14.2314668 C4.0399005,8.00428221 7.69261407,3.74941644 13.559518,1.57602383 C21.9136588,-1.51907685 29.7644601,0.360245302 37.5448442,4.43737617 C35.8591422,8.70768154 34.227331,12.8404668 32.6997084,16.7107789" id="Fill-7" fill="#FFFFFF" mask="url(#mask-2)"></path>
            </g>
            <path d="M145.926033,29.7849581 C146.018725,30.3932064 146.098124,31.2262265 146.277401,32.037344 C147.00744,35.3392634 149.316838,37.3841124 152.454715,37.5485621 C155.587563,37.7126527 158.117194,35.8997567 159.131058,32.6599547 C159.867205,30.3081091 159.785651,27.930052 158.875257,25.6417601 C157.439967,22.0321258 153.44846,20.4332299 150.000531,22.110401 C146.916545,23.6109144 146.134411,26.4374379 145.926033,29.7849581 M174.000228,29.1332634 C174.018911,41.8124044 164.749705,51.3242735 152.537707,51.1871124 C141.110358,51.0589279 131.954682,42.0077332 131.588584,30.5946393 C131.380566,24.1046225 132.858609,18.2020285 137.519079,13.4897198 C143.992075,6.94404866 151.841798,5.5889547 160.345036,8.41224664 C168.248291,11.0362601 173.573414,18.7327198 173.996276,27.3393977 C174.025737,27.935797 174.000228,28.5350688 174.000228,29.1332634" id="Fill-10" fill="#FFFFFF"></path>
            <path d="M65.4925401,89.6211174 C64.4890947,84.9213758 63.5334325,80.4453289 62.5727404,75.9455839 C61.610252,80.4780034 60.6535119,84.9838523 59.6687487,89.6211174 L65.4925401,89.6211174 Z M84.5152487,104.418356 C79.5846063,104.418356 74.9234175,104.442413 70.2640252,104.373832 C69.8767305,104.368087 69.3205781,103.806876 69.1502834,103.38103 C68.6465848,102.122164 68.670656,100.205141 67.7933149,99.6568557 C66.7011295,98.9742819 64.9148315,99.3951007 63.4274474,99.3534497 C62.7699805,99.3347785 62.111795,99.3502181 61.4539689,99.3502181 C57.3288132,99.3502181 57.3514474,99.3573993 56.1169904,103.338661 C55.9833414,103.769534 55.4038364,104.365215 55.0237272,104.37096 C50.3151146,104.441695 45.6054242,104.417279 40.6686742,104.417279 C41.7515185,101.184658 42.7589159,98.1401846 43.7907437,95.1043289 C47.2695699,84.8718255 50.7828861,74.6511711 54.2088993,64.4014329 C54.6396659,63.112406 55.1972553,62.5985906 56.5854805,62.6258792 C60.7706344,62.708104 64.9586626,62.666453 69.1452536,62.6420369 C70.1149275,62.636651 70.7835318,62.7547819 71.1571742,63.890849 C75.4680732,76.9911678 79.838252,90.0713792 84.1890301,103.158413 C84.2986079,103.48803 84.3650732,103.832369 84.5152487,104.418356 Z" id="Fill-12" fill="#FFFFFF"></path>
            <path d="M131.347477,34.685594 C131.347477,35.8823423 131.373345,37.1710101 131.342088,38.4582416 C131.267,41.5687819 131.143411,44.6778859 131.085928,47.7884262 C131.067605,48.7887685 130.794558,49.3948624 129.74333,49.784802 C118.745669,53.8633691 106.487325,48.8717114 102.323009,38.3828389 C98.0530667,27.6275436 101.356928,14.0126913 112.974332,8.91475168 C118.479808,6.49863423 124.126479,6.43508054 129.7286,8.65299664 C130.339361,8.8946443 131.111077,9.74023154 131.124729,10.3219094 C131.23754,15.0992081 131.18832,19.8800973 131.18832,24.9938356 C130.536601,24.4836107 130.099009,24.1417852 129.661775,23.7996007 C127.323996,21.9691107 124.757719,20.7626678 121.705348,21.2208289 C116.952904,21.9342819 114.240045,26.2821443 115.251035,31.4490235 C116.181189,36.201906 120.044795,38.7361544 124.898913,37.455745 C127.099451,36.8755034 129.132568,35.6597248 131.347477,34.685594" id="Fill-14" fill="#FFFFFF"></path>
            <path d="M85.2819341,62.7722322 L99.31005,62.7722322 L99.31005,64.9075644 C99.31005,72.9228698 99.3556775,80.9381752 99.2719672,88.9524034 C99.2554407,90.573202 99.7577023,90.9749906 101.3076,90.9333396 C105.191684,90.828853 109.08008,90.8988698 113.136974,90.8988698 L113.136974,104.281051 L85.2819341,104.281051 L85.2819341,62.7722322 Z" id="Fill-16" fill="#FFFFFF"></path>
            <path d="M129.111156,62.8155349 C129.111156,66.7741758 129.111156,70.5364107 129.111156,74.2990047 C129.111156,79.3251322 129.141694,84.3516188 129.0896,89.3770282 C129.077384,90.5522329 129.455338,90.9357094 130.629437,90.9195517 C134.69172,90.8631792 138.755441,90.8980081 142.963947,90.8980081 L142.963947,104.302092 L115.042083,104.302092 L115.042083,62.8155349 L129.111156,62.8155349 Z" id="Fill-18" fill="#FFFFFF"></path>
            <path d="M83.7987175,36.9290034 L83.7987175,50.2203423 C83.1976563,50.2777919 82.679946,50.3700705 82.1622358,50.3704295 C73.9597076,50.379406 65.7575387,50.3621711 57.5550106,50.3934094 C56.3672589,50.3977181 55.7087142,50.2530168 55.7151811,48.7715336 C55.7701497,35.7871913 55.7475156,22.8024899 55.7529046,9.81814765 C55.7529046,9.52228188 55.808951,9.22641611 55.8531414,8.78836242 L69.8018583,8.78836242 C69.8352705,9.44257047 69.9006579,10.1312483 69.9010172,10.8199262 C69.9085619,18.8977081 69.9426927,26.975849 69.8737126,35.0532718 C69.8611381,36.570302 70.3465139,36.9914799 71.8152159,36.9588054 C75.7513947,36.8711946 79.6911662,36.9290034 83.7987175,36.9290034" id="Fill-20" fill="#FFFFFF"></path>
            <path d="M53.4711353,50.3629252 C48.9130575,50.3629252 44.4932992,50.3657977 40.0731816,50.3611299 C38.7974084,50.3600527 39.1035078,49.3859218 39.1017114,48.6742641 C39.0855442,42.3910661 39.0923704,36.1078681 39.0923704,29.8246701 L39.0923704,10.795905 L39.0923704,8.75213322 L53.4711353,8.75213322 L53.4711353,50.3629252 Z" id="Fill-22" fill="#FFFFFF"></path>
            <path d="M89.112523,7.73976242 C93.8556257,8.64710805 98.4266373,9.52142013 103.119801,10.4194302 C100.515442,24.0170477 97.9232978,37.5500342 95.3063641,51.2144369 C90.6304452,50.3196584 86.0238657,49.4385242 81.2990859,48.5347691 C83.9009303,34.9500779 86.4916373,21.4242725 89.112523,7.73976242" id="Fill-24" fill="#FFFFFF"></path>
            <path d="M173.764654,94.6234393 C173.84046,95.1753151 173.976624,95.7261138 173.982013,96.2783487 C174.006444,98.7903352 174.011474,101.30304 173.989199,103.815027 C173.967283,106.271359 173.333888,106.939211 170.910601,106.945315 C163.130217,106.965782 155.349833,106.951419 147.56909,106.951778 C138.712687,106.952496 129.856285,106.955728 120.999523,106.956087 C104.961283,106.956446 88.9230432,106.963627 72.8844439,106.937775 C71.8382452,106.93598 70.7927651,106.678892 69.7465664,106.540295 C69.7648892,106.317678 69.7835714,106.09506 69.8015349,105.872443 C70.5441492,105.81212 71.2864041,105.700453 72.0286591,105.699735 C84.8359704,105.688963 97.6436409,105.691835 110.450593,105.691835 L140.409886,105.691835 C150.21728,105.691835 160.025033,105.695785 169.832787,105.688963 C172.731749,105.687167 173.157485,105.254141 173.165749,102.367295 C173.173293,99.8093487 173.167186,97.2517614 173.167186,94.6938151 C173.366581,94.6704762 173.565618,94.6467782 173.764654,94.6234393" id="Fill-26" fill="#FFFFFF"></path>
            <path d="M39.7398854,51.9862372 C40.124306,51.9061668 40.5072894,51.7654151 40.8935063,51.7550023 C45.4882298,51.6289721 50.0840311,51.4174856 54.6787546,51.4336433 C63.4604285,51.4648815 72.2421023,51.6537473 81.0241354,51.7280728 C86.6449384,51.7758279 92.2664599,51.7488983 97.8876222,51.7305862 C100.578207,51.7219688 100.97592,51.2997138 100.98598,48.5751634 C100.996758,45.713093 100.988135,42.8510225 100.988135,39.988952 C101.190765,39.9656131 101.393394,39.9422742 101.596023,39.9189352 C101.692308,41.0266366 101.85901,42.1339789 101.870147,43.2427574 C101.892422,45.4534923 101.832783,47.6649453 101.800448,49.8760393 C101.764162,52.3420661 101.181424,53.0002238 98.7272397,53.0041735 C85.3274897,53.0271534 71.9273805,53.0145862 58.5272712,53.0153044 C53.1522099,53.0156634 47.7767894,53.0382842 42.4020874,53.001301 C41.5031901,52.995197 40.6064483,52.7366735 39.7089881,52.5944856 C39.7190477,52.3919755 39.7294666,52.1891064 39.7398854,51.9862372" id="Fill-28" fill="#FFFFFF"></path>
            <path d="M184.756638,105.85808 C185.44608,105.802785 186.135163,105.702966 186.824964,105.699735 C190.296246,105.6825 193.767887,105.70907 197.239168,105.682859 C199.293842,105.667419 199.807959,105.164735 199.816223,103.131376 C199.83742,98.0470802 199.781373,92.9620668 199.853946,87.8784896 C199.867958,86.9201574 200.142082,85.8566205 200.621709,85.0311406 C204.524117,78.3134795 208.496223,71.6363923 212.475155,64.9636138 C212.779817,64.4523117 213.298246,64.0677581 213.717156,63.6239594 C213.911882,63.722701 214.106966,63.8210836 214.301691,63.9194661 C214.041579,64.6781607 213.901103,65.5068721 213.502671,66.183701 C209.739302,72.5735399 205.848751,78.8904896 202.197115,85.342805 C201.30181,86.9248252 200.806375,88.908993 200.719791,90.7366104 C200.509976,95.1534124 200.667696,99.5867312 200.641829,104.012869 C200.628536,106.316241 200.042204,106.921617 197.780231,106.942443 C194.129673,106.975476 190.478397,106.972963 186.827839,106.930953 C186.118277,106.922694 185.411231,106.665607 184.703107,106.523419 C184.72107,106.30152 184.738675,106.07998 184.756638,105.85808" id="Fill-30" fill="#FFFFFF"></path>
            <path d="M23.17463,105.85826 C23.864072,105.802964 24.5538733,105.702787 25.2436747,105.699555 C28.7745952,105.683397 32.3055157,105.692015 35.8364363,105.692015 C41.9555488,105.691656 48.0750207,105.697042 54.1944925,105.689142 C56.8455571,105.685552 57.2411151,105.502072 57.6833783,102.906065 C58.0078005,101.000532 58.8851416,100.464095 60.6955108,100.64578 C62.2953469,100.806639 63.9253618,100.647575 65.5384909,100.710411 C66.0141664,100.728723 66.4790637,101.021716 66.9486316,101.189038 C66.9155786,101.441817 66.8821664,101.694595 66.8487541,101.947374 C65.2887972,101.947374 63.728481,101.943783 62.1681647,101.948451 C59.4459644,101.956709 59.3220157,101.999797 58.5671863,104.640686 C58.0972591,106.285542 57.0966879,106.996481 55.4260753,106.956626 C50.5863286,106.84029 45.7462227,106.670095 40.9061167,106.67225 C35.8874528,106.674045 30.8687889,106.875837 25.8490472,106.933287 C24.9512276,106.94334 24.0501747,106.674763 23.1505588,106.53473 C23.1584627,106.30924 23.166726,106.08375 23.17463,105.85826" id="Fill-32" fill="#FFFFFF"></path>
            <g id="Group-36" transform="translate(200.832781, 10.018862)">
                <mask id="mask-4" fill="white">
                    <use xlink:href="#path-3"></use>
                </mask>
                <g id="Clip-35"></g>
                <path d="M0.148091722,41.7184023 C1.97319106,41.7184023 3.7982904,41.7184023 5.62338974,41.7184023 C7.83722086,41.7180433 10.0514113,41.7324057 12.2652424,41.7133755 C14.7215818,41.6921909 15.2001315,41.2157178 15.2015685,38.7475366 C15.2094725,26.5477413 15.2055205,14.347946 15.2058798,2.14850973 L15.2058798,0.119100336 C15.3944974,0.101147315 15.5831149,0.0831942953 15.7720917,0.0656003356 C15.8583169,0.659127181 16.018552,1.25265403 16.0189113,1.84618087 C16.0332821,14.5242446 16.0379526,27.2023084 16.0228632,39.8800131 C16.0196298,42.3374225 15.4110238,42.9539292 12.9259427,42.9844493 C9.3961,43.0275366 5.86517947,43.0232279 2.33533675,42.970805 C1.56541788,42.9593151 0.799450993,42.6594997 0.0316877483,42.4921775 C0.0704890728,42.2343721 0.109290397,41.9762077 0.148091722,41.7184023" id="Fill-34" fill="#FFFFFF" mask="url(#mask-4)"></path>
            </g>
            <path d="M173.1877,40.0981423 C173.836904,42.6054611 172.415266,44.0384711 171.267394,45.523904 C164.663983,54.0699007 151.38423,56.4016389 142.211669,50.6541591 C142.032033,50.5414141 141.887965,50.3722966 141.467976,49.9988738 C154.793357,55.1039946 165.417375,52.4562832 173.1877,40.0981423" id="Fill-37" fill="#FFFFFF"></path>
            <path d="M37.6628649,42.3729695 C37.8845354,44.5865768 37.3003599,45.9384393 36.1007523,47.2120265 C31.8009907,51.7764023 26.6558632,53.9253789 20.3057391,53.9778017 C14.7948732,54.0230433 9.61489636,53.1444225 4.63826722,50.888805 C3.45590464,50.3527279 2.33677384,49.6769762 1.26578543,48.9419795 C4.70329536,50.1229292 8.06032848,51.7645534 11.5962788,52.3817782 C17.5199477,53.4158721 23.4935553,53.4410064 29.1186695,50.5451842 C32.6621646,48.7207983 35.348797,46.0569292 37.6628649,42.3729695" id="Fill-39" fill="#FFFFFF"></path>
            <path d="M175.488583,51.7372648 C178.64119,51.7372648 181.793798,51.7372648 184.946405,51.7372648 C189.953573,51.7372648 189.953573,51.7372648 189.953573,46.7384258 L189.953573,35.3185097 C190.106982,35.2836809 190.26075,35.248493 190.414159,35.213305 C190.613195,35.950456 190.982886,36.687607 190.982526,37.4247581 C190.981449,41.6106842 190.898098,45.7966104 190.829477,49.9825366 C190.790675,52.3609527 190.217997,52.9760232 187.846086,53.0043889 C184.433725,53.0449628 181.019927,53.0420903 177.607925,52.9885903 C176.849144,52.9767413 176.094314,52.6769258 175.337689,52.5099628 C175.387987,52.2525164 175.438285,51.9947111 175.488583,51.7372648" id="Fill-41" fill="#FFFFFF"></path>
            <path d="M111.208081,50.923957 C114.947379,51.4420812 118.679851,52.2905409 122.428131,52.3666617 C125.104344,52.4208799 127.812174,51.4873228 130.484435,50.8963094 C131.718174,50.6237826 132.364144,49.7304403 132.416238,48.4166383 C132.512164,45.9994436 132.65192,43.5840443 133.162804,41.0681081 C133.398127,41.7485275 133.849732,42.4361282 133.828175,43.1086483 C133.76171,45.1876081 133.502316,47.2601047 133.34244,49.3369101 C133.236096,50.7192926 132.625334,51.7480007 131.295311,52.219447 C124.519091,54.6219201 117.914962,54.2772221 111.518492,50.9103128 C111.389513,50.8424503 111.3173,50.667947 111.2185,50.542994 C111.214907,50.6697423 111.211674,50.7968497 111.208081,50.923957" id="Fill-43" fill="#FFFFFF"></path>
            <path d="M171.957447,78.9701292 C172.138519,79.8620352 172.297677,80.2921896 172.301629,80.7234211 C172.324981,83.2863943 172.307377,85.8497265 172.313844,88.4126997 C172.317796,90.1135688 171.474586,90.9361762 169.779902,90.9243272 C168.527481,90.9160688 167.271827,90.8715453 166.023,90.9447936 C164.205445,91.0507164 162.393279,91.2471225 160.478362,91.4140856 C159.884846,90.0905889 160.045081,89.7484044 161.60863,89.728297 C164.053473,89.6974178 166.499753,89.7458909 168.944596,89.7099849 C170.938552,89.6805419 171.464526,89.1265117 171.493986,87.1200822 C171.529913,84.6777534 171.537817,82.2347064 171.566918,79.7920185 C171.568355,79.6864547 171.662125,79.5819681 171.957447,78.9701292" id="Fill-45" fill="#FFFFFF"></path>
            <path d="M117.439538,32.7049809 C115.740183,29.6518903 116.54567,25.4979205 118.9377,23.8207493 C121.940491,21.7152191 126.145046,22.2782258 128.618271,25.1169574 C121.243505,21.4800346 116.845662,26.2900077 117.439538,32.7049809" id="Fill-47" fill="#FFFFFF"></path>
            <path d="M172.653535,69.1881748 C173.768355,70.7184903 173.990384,74.6229131 173.007058,75.5887856 C172.486474,76.1000876 171.551649,76.4002621 170.792149,76.423601 C167.633434,76.5209064 164.470408,76.494695 161.309177,76.4605842 C160.948828,76.4566346 160.592072,76.1176815 160.233519,75.9342017 C160.628717,75.7058393 161.020323,75.288252 161.419474,75.2803527 C164.223947,75.2250574 167.029858,75.2706581 169.83505,75.2519869 C172.17283,75.2361883 172.629464,74.7543292 172.652098,72.3841715 C172.661439,71.4050138 172.653535,70.425856 172.653535,69.1881748" id="Fill-49" fill="#FFFFFF"></path>
            <path d="M72.1118448,9.95214899 L72.1118448,35.1334141 C71.9732448,35.1341322 71.8346448,35.1348503 71.6964048,35.1355685 L71.6964048,9.92916913 L72.1118448,9.95214899 Z" id="Fill-51" fill="#FFFFFF"></path>
            <path d="M101.570138,64.1457101 L101.570138,89.1233879 C101.436578,89.1248242 101.303378,89.1259013 101.170178,89.1273376 L101.170178,64.1518141 C101.303378,64.1496597 101.436578,64.1478644 101.570138,64.1457101" id="Fill-53" fill="#FFFFFF"></path>
            <path d="M131.388809,64.1453869 L131.388809,89.1230648 C131.255969,89.124501 131.123129,89.1259372 130.990649,89.1273735 L130.990649,64.1532862 C131.123129,64.1507728 131.255969,64.1479003 131.388809,64.1453869" id="Fill-55" fill="#FFFFFF"></path>
            <path d="M32.232368,19.3638044 C35.3465336,16.5157372 35.7190982,12.3836701 37.8416743,9.02214664 C37.6483863,10.4120695 37.6412008,11.8619554 37.2165419,13.1775527 C36.6151214,15.0414352 35.766522,16.8356601 34.9075038,18.6033144 C34.3262025,19.7997037 33.3766478,20.1566097 32.232368,19.3638044" id="Fill-57" fill="#FFFFFF"></path>
            <path d="M30.8144311,18.3411644 C28.1274394,17.1569832 25.521643,15.7907584 22.4038848,16.6647114 C21.9422209,16.7939732 21.3091844,16.3124732 20.575552,16.0489228 C23.0613517,14.2676242 27.3133301,15.2909463 30.8144311,18.3411644" id="Fill-59" fill="#FFFFFF"></path>
            <path d="M18.7725119,34.8307621 C14.9538149,34.027544 10.9928464,33.6315003 7.87401026,30.996356 C9.68006821,31.584497 11.5130715,32.2002856 13.3582901,32.7776547 C15.205305,33.3553829 17.2739904,33.3596916 18.7725119,34.8307621" id="Fill-61" fill="#FFFFFF"></path>
            <path d="M57.2378816,56.492194 C58.25462,58.5488919 57.2993171,60.7118718 55.2532657,61.2827779 C55.9912094,59.5021973 56.6145455,57.9970161 57.2378816,56.492194" id="Fill-63" fill="#FFFFFF"></path>
            <path d="M101.572974,9.95986879 L101.572974,18.0494997 C101.434014,18.0502178 101.295414,18.051295 101.156454,18.0523721 L101.156454,9.96705 C101.295414,9.96453658 101.434014,9.96202315 101.572974,9.95986879" id="Fill-65" fill="#FFFFFF"></path>
            <path d="M133.201737,10.5345809 L133.201737,16.9380641 C133.055577,16.9366279 132.909777,16.9351916 132.763977,16.9337554 L132.763977,10.5065742 C132.909777,10.5159097 133.055577,10.5252453 133.201737,10.5345809" id="Fill-67" fill="#FFFFFF"></path>
            <path d="M156.19351,24.2667023 C150.010088,24.157907 149.287952,24.9036755 148.34235,32.4776956 C147.626681,31.6339037 147.374831,29.3994708 147.763204,27.337746 C148.438275,23.7557594 151.73998,22.0218567 155.084798,23.5137527 C155.486464,23.6929238 155.825616,24.0124876 156.19351,24.2667023" id="Fill-69" fill="#FFFFFF"></path>
        </g>
    </g>
</svg>