<?xml version="1.0" encoding="UTF-8"?>
<svg width="230px" height="230px" viewBox="0 0 230 230" version="1.1" xmlns="http://www.w3.org/2000/svg" xmlns:xlink="http://www.w3.org/1999/xlink">
    <!-- Generator: Sketch 50.2 (55047) - http://www.bohemiancoding.com/sketch -->
    <title>Artboard 2 Copy 10</title>
    <desc>Created with Sketch.</desc>
    <defs></defs>
    <g id="Artboard-2-Copy-10" stroke="none" stroke-width="1" fill="none" fill-rule="evenodd">
        <g id="Page-1" transform="translate(58.000000, 23.000000)" fill="#FFFFFF" fill-rule="nonzero">
            <g id="noun_52590_cc">
                <path d="M57.5001829,173.010079 C57.5001829,173.010079 42.7971155,172.642101 33.0047645,176.353059 C32.7471804,176.45285 42.9591442,184.465192 57.5001829,183.978714 C71.1646047,184.465192 82.2531854,176.45285 81.9956013,176.353059 C72.2053276,172.642101 57.5001829,173.010079 57.5001829,173.010079 Z" id="Shape"></path>
                <path d="M108.568111,118.374303 C108.568111,118.374303 99.5227489,158.924973 82,173.157726 L84.4344776,174 C105.930936,155.78216 113,106 113,106 C113,106 107.499728,114.02465 105.654339,117.39584 L108.568111,118.374303 Z" id="Shape"></path>
                <path d="M6.43400082,118.372589 C6.43400082,118.372589 15.4772511,158.924509 33,173.1577 L30.5655224,174 C9.06906416,155.781599 2,106 2,106 C2,106 7.50027244,114.024897 9.34566135,117.398287 L6.43400082,118.372589 Z" id="Shape"></path>
                <polygon id="Shape" points="52 63 62 63 57.0135614 48"></polygon>
                <path d="M57.1678897,0 C57.1116789,0 57.0596319,0.00833860646 57.0034211,0.00833860646 C56.970111,0.00833860646 56.9430466,0.00416930323 56.9118184,0.00416930323 C2.89949809,3.25205652 -3.52310475,34.1090697 1.3110229,89.1605496 L1.78360988,101.668459 C1.78360988,101.668459 10.4317435,114.697532 12.2533894,118.022551 C15.7988327,124.491225 21.7384391,131.772913 41.3185298,122.84435 C44.0333026,121.606067 50.532935,117.570182 56.9097365,117.049019 C56.918064,117.049019 56.9222278,116.988564 56.9284734,116.898924 C56.9368009,116.988564 56.9409647,117.049019 56.9492922,117.049019 C63.3281756,117.570182 69.8361355,121.610237 72.5509083,122.84435 C92.130999,131.772913 98.0851786,124.491225 101.630622,118.022551 C103.452268,114.697532 112.129548,101.668459 112.129548,101.668459 L112.681246,89.1605496 C117.51121,34.0944772 111.215602,3.23537931 57.1678897,0 Z M22.6648762,114.111745 C21.2138051,114.028359 13.3401312,103.213186 13.7315249,100.471869 C16.0611497,84.1115234 42.661343,96.7799513 46.2609153,100.386399 C47.2477268,101.378693 42.5301845,115.239541 22.6648762,114.111745 Z M49.7043464,70.8531391 L47.3872129,77.107094 L37.9458826,77.107094 L51.4364714,39.5833649 L62.6328273,39.5833649 L76.1213342,77.107094 L66.680004,77.107094 L64.3857711,70.8531391 L49.7043464,70.8531391 Z M89.4786826,114.111745 C69.6133743,115.239541 64.8937501,101.378693 65.8826435,100.386399 C69.4822158,96.7820359 96.0824091,84.1115234 98.4120339,100.471869 C98.8034276,103.217355 90.9318356,114.028359 89.4786826,114.111745 Z" id="Shape"></path>
            </g>
        </g>
    </g>
</svg>