<?xml version="1.0" encoding="UTF-8" standalone="no"?>
<svg width="230px" height="230px" viewBox="0 0 230 230" version="1.1" xmlns="http://www.w3.org/2000/svg" xmlns:xlink="http://www.w3.org/1999/xlink">
    <!-- Generator: sketchtool 39.1 (31720) - http://www.bohemiancoding.com/sketch -->
    <title>8049706F-406B-4C3E-B495-1A97061A32C6</title>
    <desc>Created with sketchtool.</desc>
    <defs></defs>
    <g id="Page-1" stroke="none" stroke-width="1" fill="none" fill-rule="evenodd">
        <g id="5" transform="translate(-636.000000, -460.000000)">
            <g id="Group-2" transform="translate(184.000000, 405.000000)">
                <g id="Group-17" transform="translate(413.000000, 55.000000)">
                    <g id="Group-16" transform="translate(54.000000, 18.000000)">
                        <g id="Page-1">
                            <path d="M101.5,0 C157.557468,0 203,45.4425323 203,101.5 C203,157.557468 157.557468,203 101.5,203 C45.4425323,203 0,157.557468 0,101.5 C0,45.4425323 45.4425323,0 101.5,0 L101.5,0 Z" id="Stroke-1" stroke="#FFFFFF" stroke-width="4" stroke-linecap="round" stroke-linejoin="round"></path>
                            <path d="M147.33871,49.1129032 C152.135403,36.6545968 130.967742,32.7419355 130.967742,32.7419355 C130.967742,32.7419355 134.798548,53.8277419 147.33871,49.1129032 L147.33871,49.1129032 Z" id="Stroke-3" stroke="#FFFFFF" stroke-width="4" stroke-linecap="round" stroke-linejoin="round"></path>
                            <path d="M163.562339,65.4020161 C175.75871,59.9832258 163.562339,42.3680645 163.562339,42.3680645 C163.562339,42.3680645 151.365968,59.9832258 163.562339,65.4020161 L163.562339,65.4020161 Z" id="Stroke-5" stroke="#FFFFFF" stroke-width="4" stroke-linecap="round" stroke-linejoin="round"></path>
                            <path d="M172.89379,89.336371 C186.236129,89.0744355 181.832339,68.0541129 181.832339,68.0541129 C181.832339,68.0541129 163.709677,79.6120161 172.89379,89.336371 L172.89379,89.336371 Z" id="Stroke-7" stroke="#FFFFFF" stroke-width="4" stroke-linecap="round" stroke-linejoin="round"></path>
                            <path d="M172.566371,111.633629 C183.682258,119.033306 192.015081,99.2899194 192.015081,99.2899194 C192.015081,99.2899194 170.601855,98.4222581 172.566371,111.633629 L172.566371,111.633629 Z" id="Stroke-9" stroke="#FFFFFF" stroke-width="4" stroke-linecap="round" stroke-linejoin="round"></path>
                            <path d="M164.921129,132.752177 C173.106613,143.27871 187.283871,127.202419 187.283871,127.202419 C187.283871,127.202419 167.245806,119.60629 164.921129,132.752177 L164.921129,132.752177 Z" id="Stroke-11" stroke="#FFFFFF" stroke-width="4" stroke-linecap="round" stroke-linejoin="round"></path>
                            <path d="M150.007177,152.25 C155.589677,164.364516 173.041129,151.938952 173.041129,151.938952 C173.041129,151.938952 155.262258,139.971774 150.007177,152.25 L150.007177,152.25 Z" id="Stroke-13" stroke="#FFFFFF" stroke-width="4" stroke-linecap="round" stroke-linejoin="round"></path>
                            <path d="M55.6612903,49.1129032 C50.8645968,36.6545968 72.0322581,32.7419355 72.0322581,32.7419355 C72.0322581,32.7419355 68.2014516,53.8277419 55.6612903,49.1129032 L55.6612903,49.1129032 Z" id="Stroke-15" stroke="#FFFFFF" stroke-width="4" stroke-linecap="round" stroke-linejoin="round"></path>
                            <path d="M39.4376613,65.4020161 C27.2412903,59.9832258 39.4376613,42.3680645 39.4376613,42.3680645 C39.4376613,42.3680645 51.6340323,59.9832258 39.4376613,65.4020161 L39.4376613,65.4020161 Z" id="Stroke-17" stroke="#FFFFFF" stroke-width="4" stroke-linecap="round" stroke-linejoin="round"></path>
                            <path d="M30.1062097,89.336371 C16.763871,89.0744355 21.1676613,68.0541129 21.1676613,68.0541129 C21.1676613,68.0541129 39.2903226,79.6120161 30.1062097,89.336371 L30.1062097,89.336371 Z" id="Stroke-19" stroke="#FFFFFF" stroke-width="4" stroke-linecap="round" stroke-linejoin="round"></path>
                            <path d="M30.433629,111.633629 C19.3341129,119.016935 10.9849194,99.2899194 10.9849194,99.2899194 C10.9849194,99.2899194 32.3981452,98.4222581 30.433629,111.633629 L30.433629,111.633629 Z" id="Stroke-21" stroke="#FFFFFF" stroke-width="4" stroke-linecap="round" stroke-linejoin="round"></path>
                            <path d="M38.078871,132.752177 C29.8933871,143.27871 15.716129,127.202419 15.716129,127.202419 C15.716129,127.202419 35.7541935,119.60629 38.078871,132.752177 L38.078871,132.752177 Z" id="Stroke-23" stroke="#FFFFFF" stroke-width="4" stroke-linecap="round" stroke-linejoin="round"></path>
                            <path d="M52.9928226,152.25 C47.4758065,164.364516 29.958871,151.922581 29.958871,151.922581 C29.958871,151.922581 47.7377419,139.971774 52.9928226,152.25 L52.9928226,152.25 Z" id="Stroke-25" stroke="#FFFFFF" stroke-width="4" stroke-linecap="round" stroke-linejoin="round"></path>
                            <path d="M147.33871,49.1129032 C162.23629,61.2929032 171.682339,81.2491129 171.682339,101.991129 C171.886976,131.308258 152.580694,157.189121 124.419355,165.346774 C112.959677,168.620968 96.5887097,171.895161 91.6774194,184.991935" id="Stroke-27" stroke="#FFFFFF" stroke-width="4" stroke-linecap="round" stroke-linejoin="round"></path>
                            <path d="M55.6612903,49.1129032 C40.7637097,61.2929032 31.3176613,81.2491129 31.3176613,101.991129 C31.1130242,131.308258 50.4193065,157.189121 78.5806452,165.346774 C90.0403226,168.620968 106.41129,171.895161 111.322581,184.991935" id="Stroke-29" stroke="#FFFFFF" stroke-width="4" stroke-linecap="round" stroke-linejoin="round"></path>
                            <path d="M94.8867839,77.5983871 L110.439203,77.5983871 C111.372348,77.5983871 111.994445,76.9762903 111.994445,76.0431452 C111.994445,75.11 111.372348,74.4879032 110.439203,74.4879032 L94.8867839,74.4879032 C93.9536387,74.4879032 93.3315419,75.11 93.3315419,76.0431452 C93.3315419,76.9762903 93.9536387,77.5983871 94.8867839,77.5983871 L94.8867839,77.5983871 Z M116.660171,96.2612903 L88.6658161,96.2612903 C87.732671,96.2612903 87.1105742,96.8833871 87.1105742,97.8165323 C87.1105742,98.7496774 87.732671,99.3717742 88.6658161,99.3717742 L116.660171,99.3717742 C117.593316,99.3717742 118.215413,98.7496774 118.215413,97.8165323 C118.215413,96.8833871 117.593316,96.2612903 116.660171,96.2612903 L116.660171,96.2612903 Z M122.881139,90.0403226 L82.4448484,90.0403226 C81.5117032,90.0403226 80.8896065,90.6624194 80.8896065,91.5955645 C80.8896065,92.5287097 81.5117032,93.1508065 82.4448484,93.1508065 L122.881139,93.1508065 C123.814284,93.1508065 124.436381,92.5287097 124.436381,91.5955645 C124.436381,90.6624194 123.814284,90.0403226 122.881139,90.0403226 L122.881139,90.0403226 Z M133.767832,138.252823 L133.767832,138.252823 C132.523639,139.185968 130.812873,139.808065 129.102106,139.808065 L104.218235,139.808065 L104.218235,142.918548 L129.102106,142.918548 C131.746018,142.918548 133.767832,140.896734 133.767832,138.252823 L133.767832,138.252823 Z M101.107752,147.739798 L101.107752,133.587097 L85.5553323,133.587097 L85.5553323,147.739798 L92.3983968,143.074073 C92.8649694,142.763024 93.6425903,142.763024 94.1091629,143.074073 L101.107752,147.739798 Z M129.102106,133.587097 L104.218235,133.587097 L104.218235,136.697581 L129.102106,136.697581 C131.746018,136.697581 133.767832,134.675766 133.767832,132.031855 C132.523639,132.965 130.812873,133.587097 129.102106,133.587097 L129.102106,133.587097 Z M133.767832,119.589919 L133.767832,66.7116935 C133.767832,64.0677823 131.746018,62.0459677 129.102106,62.0459677 L74.6686387,62.0459677 L74.6686387,124.255645 L129.102106,124.255645 C131.746018,124.255645 133.767832,122.233831 133.767832,119.589919 L133.767832,119.589919 Z M71.5581548,124.411169 L71.5581548,62.3570161 C69.6918645,62.9791129 68.447671,64.689879 68.447671,66.7116935 L68.447671,125.810887 C69.3808161,125.18879 70.4694855,124.722218 71.5581548,124.411169 L71.5581548,124.411169 Z M136.878316,66.7116935 L136.878316,119.589919 L136.878316,125.810887 L136.878316,132.031855 L136.878316,138.252823 C136.878316,142.6075 133.456784,146.029032 129.102106,146.029032 L104.218235,146.029032 L104.218235,150.694758 C104.218235,151.316855 103.907187,151.783427 103.440615,152.094476 C103.129566,152.25 102.974042,152.25 102.662994,152.25 C102.351945,152.25 102.040897,152.094476 101.729848,151.938952 L93.3315419,146.340081 L84.9332355,151.938952 C84.4666629,152.25 83.8445661,152.25 83.3779935,151.938952 C82.7558968,151.783427 82.4448484,151.316855 82.4448484,150.694758 L82.4448484,133.587097 L73.1133968,133.587097 C72.1802516,133.587097 71.5581548,132.965 71.5581548,132.031855 C71.5581548,131.09871 72.1802516,130.476613 73.1133968,130.476613 L129.102106,130.476613 C131.746018,130.476613 133.767832,128.454798 133.767832,125.810887 C132.523639,126.744032 130.812873,127.366129 129.102106,127.366129 L73.1133968,127.366129 C70.4694855,127.366129 68.447671,129.387944 68.447671,132.031855 L68.447671,137.319677 L68.447671,137.78625 L68.447671,138.252823 L68.447671,138.563871 L68.447671,138.874919 L68.447671,139.185968 L68.447671,139.341492 C68.447671,139.497016 68.447671,139.65254 68.6031952,139.65254 C68.6031952,139.808065 68.7587194,139.963589 68.7587194,139.963589 C68.7587194,140.119113 68.9142435,140.119113 68.9142435,140.274637 L68.9142435,140.430161 C68.9142435,140.585685 69.0697677,140.585685 69.0697677,140.74121 C69.0697677,140.74121 69.0697677,140.896734 69.2252919,140.896734 C69.2252919,141.052258 69.3808161,141.052258 69.3808161,141.207782 C69.3808161,141.207782 69.3808161,141.363306 69.5363403,141.363306 L69.6918645,141.518831 L69.8473887,141.674355 L70.0029129,141.829879 L70.1584371,141.985403 L70.3139613,142.140927 L70.4694855,142.296452 C70.4694855,142.296452 70.6250097,142.296452 70.6250097,142.451976 C70.7805339,142.451976 70.7805339,142.6075 70.9360581,142.6075 L71.0915823,142.6075 C71.2471065,142.6075 71.4026306,142.763024 71.4026306,142.763024 C71.5581548,142.763024 71.713679,142.918548 71.8692032,142.918548 L72.3357758,142.918548 L72.8023484,142.918548 L79.0233161,142.918548 C79.9564613,142.918548 80.5785581,143.540645 80.5785581,144.47379 C80.5785581,145.406935 79.9564613,146.029032 79.0233161,146.029032 L72.8023484,146.029032 L72.0247274,146.029032 C71.713679,146.029032 71.5581548,146.029032 71.2471065,145.873508 C70.9360581,145.873508 70.7805339,145.717984 70.6250097,145.717984 L70.4694855,145.717984 C70.3139613,145.717984 70.0029129,145.56246 69.8473887,145.56246 C69.6918645,145.56246 69.6918645,145.56246 69.5363403,145.406935 C69.3808161,145.406935 69.2252919,145.251411 69.0697677,145.251411 C68.9142435,145.251411 68.9142435,145.095887 68.7587194,145.095887 C68.6031952,145.095887 68.6031952,144.940363 68.447671,144.940363 C68.2921468,144.784839 68.1366226,144.784839 68.1366226,144.629315 C67.9810984,144.629315 67.9810984,144.47379 67.8255742,144.47379 C67.67005,144.318266 67.5145258,144.318266 67.5145258,144.162742 L67.3590016,144.007218 L67.2034774,143.851694 L67.0479532,143.696169 C67.0479532,143.696169 66.892429,143.540645 66.892429,143.385121 C66.892429,142.918548 66.892429,142.763024 66.7369048,142.763024 C66.7369048,142.6075 66.5813806,142.6075 66.5813806,142.451976 C66.5813806,142.296452 66.4258565,142.296452 66.4258565,142.140927 C66.2703323,141.985403 66.2703323,141.829879 66.2703323,141.674355 C66.2703323,141.518831 66.1148081,141.518831 66.1148081,141.363306 C65.9592839,141.207782 65.9592839,141.052258 65.9592839,140.74121 L65.9592839,140.585685 C65.9592839,140.274637 65.8037597,140.119113 65.8037597,139.808065 C65.8037597,139.497016 65.6482355,139.341492 65.6482355,139.030444 L65.6482355,138.408347 L65.6482355,138.252823 L65.6482355,66.7116935 C65.6482355,62.3570161 69.0697677,58.9354839 73.4244452,58.9354839 L129.413155,58.9354839 C133.456784,58.9354839 136.878316,62.3570161 136.878316,66.7116935 L136.878316,66.7116935 Z M79.3343645,136.697581 C80.2675097,136.697581 80.8896065,137.319677 80.8896065,138.252823 C80.8896065,139.185968 80.2675097,139.808065 79.3343645,139.808065 L73.1133968,139.808065 C72.1802516,139.808065 71.5581548,139.185968 71.5581548,138.252823 C71.5581548,137.319677 72.1802516,136.697581 73.1133968,136.697581 L79.3343645,136.697581 Z" id="Fill-31" fill="#FFFFFF"></path>
                        </g>
                    </g>
                </g>
            </g>
        </g>
    </g>
</svg>