<?xml version="1.0" encoding="UTF-8" standalone="no"?>
<svg width="230px" height="230px" viewBox="0 0 230 230" version="1.1" xmlns="http://www.w3.org/2000/svg" xmlns:xlink="http://www.w3.org/1999/xlink">
    <!-- Generator: Sketch 39.1 (31720) - http://www.bohemiancoding.com/sketch -->
    <title>Group 11</title>
    <desc>Created with Sketch.</desc>
    <defs></defs>
    <g id="Page-1" stroke="none" stroke-width="1" fill="none" fill-rule="evenodd">
        <g id="7" transform="translate(-1047.000000, -462.000000)" fill="#FFFFFF">
            <g id="Group-2" transform="translate(184.000000, 405.000000)">
                <g id="Group-13" transform="translate(816.000000, 57.000000)">
                    <g id="noun_219097_cc" transform="translate(47.000000, 0.000000)">
                        <g id="Group">
                            <path d="M168.89035,23.0229167 C167.786892,23.0229167 166.683435,23.478238 165.840161,24.2564658 L141.415424,48.6788801 L43.3401374,48.6788801 C36.5196097,48.6788801 31,54.1984898 31,61.0213406 L31,148.77059 C31,155.526072 36.5196097,161.045681 43.3401374,161.045681 L94.4569266,161.045681 L91.0791857,172.93282 L89.0650857,172.93282 C86.4678956,172.93282 84.3237038,175.074689 84.3237038,177.674202 L84.3237038,183.258858 C84.3237038,185.856048 86.4678956,188.00024 89.0650857,188.00024 L138.297867,188.00024 C140.895057,188.00024 143.039249,185.856048 143.039249,183.258858 L143.039249,177.674202 C143.039249,175.074689 140.895057,172.93282 138.297867,172.93282 L136.283767,172.93282 L132.906026,161.045681 L183.632539,161.045681 C190.453067,161.045681 195.975,155.526072 195.975,148.77059 L195.975,61.0213406 C195.975,54.2008128 190.453067,48.6788801 183.632539,48.6788801 L173.954638,48.6788801 L182.138807,40.5597573 C183.762631,38.8708868 183.762631,36.0785591 182.138807,34.4547345 L171.940538,24.2564658 C171.16231,23.478238 169.993807,23.0229167 168.89035,23.0229167 L168.89035,23.0229167 L168.89035,23.0229167 Z M168.955396,26.6608412 C169.085487,26.6608412 169.280625,26.7258871 169.408394,26.8536559 L179.541617,36.9868787 C179.799477,37.2470623 179.799477,37.7023836 179.541617,37.9602442 L115.694415,101.744723 C115.241416,102.200045 115.046279,103.043318 115.241416,103.693777 C118.09879,111.292533 116.542334,120.189884 110.369943,126.297229 C105.563515,131.168703 99.0031708,132.987665 92.7053333,132.207115 L104.980425,119.932023 C105.435746,119.479025 105.628561,118.826243 105.500792,118.178107 L102.058005,105.577786 C101.927913,104.994696 101.409869,104.474328 100.824456,104.279191 L88.2241351,100.90145 C87.573676,100.771358 86.92554,100.966496 86.4702187,101.421817 L74.1951272,113.696908 C73.4168994,107.396748 75.2335386,100.836404 80.1050123,96.0322991 C86.2100351,89.8622303 95.1073857,88.2384058 102.708464,91.0957795 C103.3566,91.2909172 104.137151,91.1608254 104.592472,90.705504 L168.439675,26.858302 C168.56512,26.7258871 168.760258,26.6608412 168.955396,26.6608412 L168.955396,26.6608412 L168.955396,26.6608412 Z M43.3401374,52.3818506 L137.779823,52.3818506 L130.113698,60.045652 L43.4075064,60.045652 L43.3424605,60.045652 C42.369095,60.1106979 41.5885441,60.9562947 41.5885441,61.8646143 L41.5885441,147.86227 C41.5885441,148.837959 42.4991868,149.681232 43.4075064,149.681232 L183.569817,149.681232 C184.543182,149.681232 185.453825,148.837959 185.453825,147.86227 L185.453825,61.8646143 C185.453825,60.9562947 184.673274,60.1106979 183.764954,60.045652 L183.632539,60.045652 L162.655235,60.045652 L170.319037,52.3818506 L183.632539,52.3818506 C188.504013,52.3818506 192.337075,56.1498669 192.337075,61.0213406 L192.337075,148.77059 C192.337075,153.577018 188.504013,157.41008 183.632539,157.41008 L43.3401374,157.41008 C38.4686638,157.41008 34.6379246,153.579341 34.6379246,148.77059 L34.6379246,61.0213406 C34.6379246,56.1475439 38.4709868,52.3818506 43.3401374,52.3818506 L43.3401374,52.3818506 L43.3401374,52.3818506 Z M45.2891915,63.6835766 L126.410728,63.6835766 L102.771187,87.32544 C94.1340202,84.5981582 84.3260269,86.5472122 77.5054991,93.3654169 C77.5054991,93.4304629 77.4404532,93.4955088 77.3754073,93.5605547 C77.3754073,93.5605547 77.3754073,93.5605547 77.3103614,93.6256006 C77.3103614,93.6906465 77.2453155,93.7556924 77.1802696,93.8207383 C70.8150632,100.446128 68.8009632,109.733754 71.1402927,118.048015 C71.528245,119.281564 73.2821614,119.736885 74.1928041,118.826243 L88.2868579,104.797235 L98.808033,107.524517 L101.600361,118.113061 L87.506307,132.207115 C86.6630333,133.117757 87.1160316,134.869351 88.3495807,135.259626 C96.7939331,137.661678 106.341743,135.584856 113.032179,128.89442 C119.852706,122.073892 121.669346,112.268222 119.009433,103.693777 L158.952265,63.6835766 L181.748531,63.6835766 L181.748531,146.040985 L45.2891915,146.040985 L45.2891915,63.6835766 L45.2891915,63.6835766 L45.2891915,63.6835766 Z M98.224943,161.045681 L129.075287,161.045681 L132.518073,172.93282 L94.847202,172.93282 L98.224943,161.045681 L98.224943,161.045681 L98.224943,161.045681 Z M89.0650857,176.570745 L138.297867,176.570745 C138.946003,176.570745 139.401324,177.023743 139.401324,177.676525 L139.401324,183.261181 C139.401324,183.909317 138.948326,184.366961 138.297867,184.366961 L89.0650857,184.366961 C88.4169497,184.366961 88.0266743,183.91164 88.0266743,183.261181 L88.0266743,177.676525 C88.0266743,177.023743 88.4169497,176.570745 89.0650857,176.570745 L89.0650857,176.570745 L89.0650857,176.570745 Z" id="Shape"></path>
                        </g>
                    </g>
                </g>
            </g>
        </g>
    </g>
</svg>