<svg width="230" height="230" viewBox="0 0 230 230" xmlns="http://www.w3.org/2000/svg"><title>974506AD-0D0A-4EF4-83D6-03E234709EBC</title><g fill="#FFF" fill-rule="evenodd"><path d="M75.568 69.83c0-7.242-5.86-13.113-13.088-13.113-7.227 0-13.087 5.87-13.087 13.112 0 4.164 1.939 7.87 4.958 10.273h16.258a13.092 13.092 0 0 0 4.959-10.273"/><path d="M68.19 81.455H45.718c-.253 0-.499.026-.74.066a22.325 22.325 0 0 0-6.75 2.058c-1.772.887-3.748 2.184-5.406 4.276-1.665 2.066-2.835 5.04-2.805 8.234.014 3.785 1.394 7.63 4.002 11.786a46.73 46.73 0 0 0 1.889 2.755c1.607-7.69 3.2-12.314 3.2-12.314l1.301-.13c-2.394 8.995-7.121 30.196-5.582 52.679 0 0 8.09 2.628 21.448 2.715v-12.234h1.358v12.234c13.359-.087 21.448-2.715 21.448-2.715 1.427-20.83-2.527-40.563-5.02-50.504-.557-2.22-1.04-3.951-1.376-5.098v-1.299a44.54 44.54 0 0 0 4.578.24h.082c7.067 0 17.098-1.742 26.933-8.92v-.001h.001a52.612 52.612 0 0 0 5.245-4.388l-8.178-8.295a40.59 40.59 0 0 1-3.912 3.259c-7.529 5.475-14.876 6.673-20.17 6.688-2.257 0-4.11-.229-5.35-.448a19.834 19.834 0 0 1-1.372-.286c-.144-.035-.24-.063-.291-.076v.001c-.107-.033-.214-.055-.32-.082a5.804 5.804 0 0 0-1.26-.175 4.665 4.665 0 0 0-.48-.026M41.223 182.927c0 3.98 3.22 7.205 7.19 7.205 3.972 0 7.193-3.225 7.193-7.205v-27.992a110.676 110.676 0 0 1-14.384-1.136v29.128zM58.302 182.927c0 3.98 3.22 7.205 7.191 7.205 3.972 0 7.192-3.225 7.192-7.205v-29.128a110.674 110.674 0 0 1-14.383 1.135v27.993zM110.95 77.807a4.666 4.666 0 0 0 .584-5.608l8.105-12.52-2.928-1.903-7.981 12.327a4.643 4.643 0 0 0-4.561 1.318c-.287.305-.572.601-.859.89l6.54 6.634c.369-.37.735-.749 1.1-1.138"/><path d="M13 124.73h15.162V120.07h-10.51V25.66h193.695v94.408H85.455v4.664L216 124.73V21H13z"/></g></svg>