<?xml version="1.0" encoding="UTF-8"?>
<svg width="230px" height="230px" viewBox="0 0 230 230" version="1.1" xmlns="http://www.w3.org/2000/svg" xmlns:xlink="http://www.w3.org/1999/xlink">
    <!-- Generator: Sketch 50.2 (55047) - http://www.bohemiancoding.com/sketch -->
    <title>Artboard 2 Copy 6</title>
    <desc>Created with Sketch.</desc>
    <defs></defs>
    <g id="Artboard-2-Copy-6" stroke="none" stroke-width="1" fill="none" fill-rule="evenodd">
        <g id="noun_1742726_cc" transform="translate(22.000000, 22.000000)" fill="#FFFFFF">
            <g id="Group">
                <path d="M93,0 C143.805556,0 186,41.3333333 186,93 C186,143.805556 143.805556,186 93,186 C41.3333333,186 0,143.805556 0,93 C0,41.3333333 41.3333333,0 93,0 Z M18.0833333,138.638889 C9.47222222,124.861111 5.16666667,109.361111 5.16666667,93 C5.16666667,46.5 41.3333333,7.75 87.8333333,5.16666667 C98.1666667,16.3611111 112.805556,37.0277778 105.916667,52.5277778 C94.7222222,74.9166667 54.25,81.8055556 38.75,98.1666667 C27.5555556,110.222222 20.6666667,124 18.0833333,138.638889 Z M169.638889,135.194444 C161.888889,148.972222 150.694444,160.166667 136.916667,168.777778 C96.4444444,192.027778 44.7777778,179.972222 19.8055556,141.222222 C24.1111111,126.583333 34.4444444,103.333333 51.6666667,101.611111 C76.6388889,99.8888889 102.472222,132.611111 124,136.916667 C140.361111,140.361111 155.861111,139.5 169.638889,135.194444 Z M91.2777778,5.16666667 C106.777778,5.16666667 122.277778,8.61111111 136.916667,17.2222222 C177.388889,40.4722222 192.027778,91.2777778 171.361111,131.75 C156.722222,135.194444 130.888889,138.638889 121.416667,124 C107.638889,103.333333 122.277778,64.5833333 115.388889,43.9166667 C110.222222,27.5555556 102.472222,15.5 91.2777778,5.16666667 Z M93,80.9444444 C99.8888889,80.9444444 105.055556,86.1111111 105.055556,93 C105.055556,99.8888889 99.8888889,105.055556 93,105.055556 C86.1111111,105.055556 80.9444444,99.8888889 80.9444444,93 C80.9444444,86.1111111 86.1111111,80.9444444 93,80.9444444 Z" id="Shape"></path>
                <circle id="Oval" cx="93" cy="93" r="8.61111111"></circle>
            </g>
        </g>
    </g>
</svg>