<?xml version="1.0" encoding="UTF-8"?>
<svg width="230px" height="230px" viewBox="0 0 230 230" version="1.1" xmlns="http://www.w3.org/2000/svg" xmlns:xlink="http://www.w3.org/1999/xlink">
    <!-- Generator: Sketch 50.2 (55047) - http://www.bohemiancoding.com/sketch -->
    <title>Artboard 2 Copy 7</title>
    <desc>Created with Sketch.</desc>
    <defs></defs>
    <g id="Artboard-2-Copy-7" stroke="none" stroke-width="1" fill="none" fill-rule="evenodd">
        <path d="M91.0380647,79.7011253 C91.160323,79.5055737 91.2825812,79.3100222 91.4043948,79.1144707 C88.2056755,76.9982283 85.0074007,74.8824323 81.8082368,72.7661899 L81.310757,73.560897 C84.5908336,75.5467717 86.6950086,79.4194061 91.0380647,79.7011253 Z M76.0447625,121.75363 C76.2070324,121.873729 76.3688579,121.994721 76.5306833,122.11482 C77.3211382,121.243321 78.1107039,120.370036 78.9033817,119.50077 C81.1373726,117.050572 83.1481867,114.332941 85.6573698,112.210895 C90.280953,108.301651 94.3030258,108.718648 98.5496092,113.015871 C99.1586773,113.631992 99.8824459,114.132925 100.849842,114.93299 C100.849842,114.157034 100.925864,113.904335 100.839172,113.737358 C98.1010327,108.480236 90.4049895,106.580529 85.9521232,110.465665 C82.4657636,113.507875 79.5386798,117.197459 76.3933095,120.6272 C76.1536834,120.888382 76.1550171,121.372796 76.0447625,121.75363 Z M79.8823365,45.8238343 C80.6790155,41.8976242 76.6542752,35.2372646 72.2849891,32.8598404 C70.9592655,33.6407071 70.8756854,34.6800768 71.7759504,35.8056141 C74.4011675,39.0893616 77.0623953,42.3440889 79.8823365,45.8238343 Z M41.1371538,72.2429333 C41.2536325,72.5603697 41.3696667,72.8778061 41.4861454,73.194796 C42.4802158,72.9764747 43.8926316,73.1014848 44.3981137,72.4813455 C46.6876765,69.670404 48.7834045,66.6902525 50.7822151,63.660097 C51.0809697,63.2073818 50.4941303,62.1657798 50.3167448,61.3960747 C49.6156495,61.6103778 48.6113539,61.6005556 48.2619177,62.0751475 C45.8114186,65.4084525 43.4960704,68.8417657 41.1371538,72.2429333 Z M167.915361,71.1682929 C166.159733,72.178196 166.550959,73.1894384 167.63928,74.2511313 C170.34452,76.8906303 172.994189,79.5890626 175.750111,82.1732 C177.587097,83.8952141 178.576721,83.5746525 179.618806,81.0396263 C175.749222,77.7759697 171.852075,74.4886505 167.915361,71.1682929 Z M190.599371,71.0276566 C201.415444,81.4762687 212.159496,91.8547859 222.862201,102.192675 C224.674735,101.29796 223.749574,100.535844 222.985793,99.7817657 C216.921786,93.7906566 210.865337,87.792404 204.787548,81.8155818 C200.516068,77.6143495 196.214802,73.4430303 191.865522,69.1989374 C191.397384,69.8748848 191.027497,70.409303 190.599371,71.0276566 Z M176.420531,49.5736909 C175.851475,52.748501 174.317245,54.9022465 170.891792,55.2781697 C170.252938,55.3482646 169.487824,56.1889576 169.157504,56.8608869 C167.059109,61.1317677 166.95819,63.7471576 169.949293,66.829996 C172.731445,69.6985313 175.639857,72.4442889 178.531819,75.2029939 C178.993288,75.6436545 179.693939,76.1820909 180.220761,76.1209253 C181.046337,76.0253818 182.078641,75.6423152 182.514769,75.0208364 C182.779736,74.6431273 182.307153,73.2992687 181.780776,72.897897 C180.685342,72.0621152 179.369399,71.4785859 178.081464,70.9441677 C174.874743,69.6128101 174.245669,68.7841717 174.31769,65.2740667 C174.349255,63.7614444 174.135414,62.6193879 172.566063,61.8184303 C171.54354,61.2960667 171.744043,60.3562586 172.803466,59.5865535 C174.5422,58.3230586 176.391189,57.0841192 177.756924,55.4634525 C179.483655,53.4132869 178.898149,51.3720505 176.420531,49.5736909 Z M181.174819,49.6321778 C181.455346,53.6561636 180.057157,56.9443758 177.898299,60.0825758 C176.890447,61.5469798 176.47388,63.4873152 176.073318,65.2758525 C175.900822,66.0473434 176.448984,66.9813475 176.669493,67.8416848 C176.902006,67.8425778 177.134074,67.8439172 177.366143,67.8452566 C179.060419,65.7696424 180.754696,63.6944747 182.448972,61.6188606 C182.769066,62.2238202 182.826417,62.6734101 182.669926,63.027903 C181.955049,64.6534808 181.077457,66.2152141 180.476836,67.8796343 C180.231875,68.5569212 180.54041,69.4355636 180.597316,70.2226808 C181.324197,69.9771253 182.256471,69.936497 182.738391,69.4480646 C184.087677,68.080097 185.229791,66.5080949 186.503054,65.0606566 C186.812923,64.7079495 187.312182,64.5235596 187.723858,64.2619313 C187.850118,64.4003354 187.975932,64.5391859 188.101303,64.6780364 C186.807589,66.8215131 185.513874,68.9649899 183.94808,71.558503 C187.984379,71.4687636 189.685325,69.1516121 191.161315,66.6799838 C192.970291,63.6498283 192.784904,60.9549677 190.94125,58.6038848 C190.318844,57.8100707 189.672432,56.9372323 189.387459,55.9934061 C188.647686,53.5467798 184.30463,49.8853232 181.174819,49.6321778 Z M150.676953,7.11847475 C146.772248,7.53859798 143.575752,9.8834303 141.70898,13.9779576 C139.698611,18.385903 140.051159,22.4835556 143.656665,26.0240202 C152.177839,34.3912141 160.674563,42.7834101 169.244641,51.0992606 C169.760348,51.5997475 170.836665,51.517598 171.652016,51.7060061 C171.513309,50.872903 171.664909,49.7701354 171.187435,49.2513434 C168.625348,46.4694222 165.858311,43.8799273 163.252655,41.1368485 C157.378481,34.9533131 151.479412,28.7903152 145.748391,22.4750727 C142.892884,19.3279434 143.32679,15.3463717 146.414365,12.8376869 C149.342783,10.4575838 151.909761,10.6388485 156.147452,13.2582566 C156.942353,13.7493677 158.129369,13.6002485 159.135888,13.7466889 C158.914045,12.7189273 159.005627,11.4290909 158.411674,10.7129616 C156.607143,8.53823232 154.241558,7.19705253 150.676953,7.11847475 Z M35.3643434,61.7496747 C35.1482798,61.7925354 34.9326608,61.835396 34.7161526,61.878703 C34.4102848,60.7853111 34.0390644,59.7057596 33.8105527,58.5962949 C33.2246025,55.7465111 32.7591321,55.349604 30.1245789,56.4255838 C23.7098017,59.0463313 17.3310352,61.7603899 10.9722746,64.5186485 C8.38262339,65.6419535 7.03066988,67.6997091 6.85106145,70.6003899 C6.59765353,74.6859879 7.80378634,75.7659859 11.5924571,74.330602 C19.4134259,71.3678626 27.3459832,69.4851212 35.8249235,70.1869636 C40.0239372,70.5347596 44.9080416,65.339697 44.3838873,61.1170343 C43.8766269,57.0305434 42.7078384,53.0217374 41.7231041,49.0053414 C41.5750605,48.4003818 40.8055006,47.4770929 40.3996034,47.5154889 C39.7327404,47.5784404 38.8698197,48.1717919 38.5501701,48.7843414 C37.8392942,50.147398 37.2386729,51.6216242 36.9070198,53.1204061 C36.276612,55.9710828 35.8658244,58.8704242 35.3643434,61.7496747 Z M121.508367,124.780661 C123.122176,126.604915 124.707531,128.396578 126.288886,130.184222 C128.884316,127.914842 129.495163,125.656624 128.390838,122.616646 C126.665885,117.868941 126.503615,112.903808 127.401658,107.91278 C128.35705,102.602976 129.37246,97.3003152 130.148688,91.9632768 C130.489678,89.6162121 129.405803,88.8795455 127.242944,89.864 C120.080391,93.1227455 113.155686,92.1878485 106.311449,88.9174949 C104.564269,88.0821596 102.816198,87.2477172 100.389262,86.0886949 C101.859028,90.1211636 102.965576,93.5589414 104.354874,96.8770667 C106.42037,101.808715 108.550331,106.679644 108.859311,112.147497 C108.907325,113.004709 109.702225,114.103905 110.467339,114.58564 C113.520683,116.508117 115.296316,119.283788 116.464216,122.597448 C117.121298,124.460992 117.925535,126.272745 118.741775,128.30282 C119.805199,126.949139 120.670343,125.847711 121.508367,124.780661 Z M100.500406,72.6054626 C101.363771,73.1720263 101.801233,73.4260646 102.202684,73.7283212 C106.795592,77.1893152 107.931926,77.0111758 112.212298,72.9787071 C114.244007,71.0642667 116.586474,69.4574404 118.90938,67.8925818 C119.684719,67.3706646 120.836169,67.4135253 121.816013,67.1983293 L122.008959,67.972499 C121.358101,68.4350364 120.69435,68.8801616 120.059052,69.3627899 C118.126038,70.8325515 115.974294,72.0996182 114.332033,73.8470808 C111.991788,76.3374606 109.700892,78.6171091 105.830864,78.6599697 C106.837382,79.7283596 107.824784,80.7186182 109.011355,81.2932182 C114.088405,83.7514525 119.978139,82.7344061 124.167817,78.6340747 C126.559187,76.2932606 128.958116,75.3838121 132.340445,76.6665051 C137.513523,78.6278242 144.957492,73.6626909 145.674592,67.8782949 C143.000471,67.8782949 140.27478,68.2801131 137.722029,67.7845374 C133.865338,67.0353697 130.138908,65.7013333 126.246651,67.5438929 C125.918999,67.6992626 125.22146,67.4461172 124.924928,67.1505576 C124.74043,66.9666141 124.8289,66.1308323 125.065859,65.9540323 C127.418996,64.1989798 126.600088,62.4867879 125.167667,60.6647657 C124.931597,60.3651879 125.112539,59.7347798 125.10098,59.2575091 C125.58779,59.2601879 126.229312,59.0646364 126.531179,59.3030485 C127.447449,60.0263212 128.425514,60.7969192 129.026136,61.7693192 C130.143353,63.5752687 131.728709,64.4284626 133.703513,64.8008141 C134.64779,64.9785071 135.591624,65.1740586 136.518563,65.4254182 C139.457206,66.222804 140.129404,65.6732061 139.933791,62.6850182 C139.560348,56.9671455 138.166604,51.5510828 135.136379,46.6529192 C134.330808,45.3505818 133.459885,43.750899 132.210184,43.1629051 C131.058734,42.620897 129.359123,43.2548768 127.892024,43.371404 C128.4513,42.5753576 129.117718,41.6261737 129.839709,40.5984121 C128.450855,39.0415899 126.764581,39.2965212 125.09609,39.5733293 C119.193464,40.5528727 113.292171,41.5386667 107.394435,42.5467838 C99.2964957,43.9317172 91.4999785,46.1100182 85.070975,51.6095697 C82.2399194,54.0311939 79.625372,56.6648889 78.5072651,60.401798 C77.2397809,64.6396404 79.0438675,68.4671818 82.8249805,69.3141253 C82.5315608,68.4944162 82.2234701,67.7483737 81.9962921,66.9786687 C81.1556002,64.1262061 81.1124764,61.2661535 83.1668589,58.9552525 C88.0314019,53.4833818 93.3747526,48.5972727 100.545752,46.2899434 C101.020114,46.1372525 101.544713,46.1421636 102.046194,46.0738545 C101.796787,46.8042707 101.420676,47.1199212 101.034341,47.4230707 C96.7855343,50.759501 92.4909368,54.0401232 88.318153,57.4698646 C87.3423102,58.2721616 86.5265145,59.4838667 86.0788272,60.6745879 C85.2763687,62.8082424 86.3237882,64.1212949 88.5377732,64.4606081 C89.3148908,64.5798141 90.0186536,65.1847737 90.7557594,65.5678404 C90.1466912,66.0486828 89.5976407,66.652303 88.9169959,66.9858121 C87.2596192,67.7979313 85.7084959,68.6801455 85.6693733,70.7972808 C85.6338073,72.7255616 87.4734599,75.0177111 89.5518495,75.4485495 C90.9758242,75.7436626 92.4904923,75.5690949 93.9429198,75.7655394 C94.6337898,75.8588505 95.6042977,76.1432485 95.8874922,76.6544505 C99.9255697,83.935396 106.54663,87.3057576 114.257789,89.0058949 C119.89367,90.2484061 125.147216,89.2831495 129.832595,85.8069758 C132.096373,84.1269293 134.111188,82.2040061 135.035905,79.2595717 C131.074294,78.333604 127.815113,79.5430768 124.676855,81.6115475 C118.233181,85.8592121 110.727861,85.6587495 105.041742,81.0704323 C102.517444,79.0336606 100.642225,76.5294404 100.500406,72.6054626 Z M104.918595,226 C103.5782,225.419149 102.215133,224.886071 100.902302,224.248073 C96.4805557,222.097006 93.7908751,218.557434 93.5561393,213.634269 C93.2631642,207.486897 93.4743374,201.316309 93.280058,195.161347 C93.2209295,193.293339 92.5122765,191.449887 92.1548379,189.584558 C92.0085726,188.823782 91.7667237,187.961212 91.9805644,187.274996 C92.5291703,185.520836 93.2009236,183.785428 94.0224988,182.142438 C95.1148203,179.957887 96.9762571,178.891729 99.4516525,179.015846 C100.635112,179.075673 101.83591,179.292208 102.995807,179.154697 C103.86673,179.051117 104.783444,178.634566 105.507657,178.115327 C107.388211,176.765665 109.013134,174.96284 111.037285,173.929721 C113.925246,172.455048 116.361074,171.009842 116.034311,167.198374 C115.989409,166.674671 116.694506,165.946933 117.223995,165.538865 C118.752,164.361537 119.037418,162.997588 118.342546,161.229141 C117.073729,158.001202 114.652127,155.157222 112.130051,154.552263 C112.247864,155.565291 112.21541,156.467596 112.470151,157.279269 C113.700736,161.197889 112.350116,165.566545 109.067372,168.027459 C105.547225,170.666511 100.066945,168.802521 98.285976,163.993204 C99.6419307,164.938816 100.724916,165.645123 101.754553,166.421972 C103.561307,167.785028 105.217794,167.576529 106.644436,165.911216 C107.751873,164.619594 108.720603,163.209659 109.753796,161.854192 C110.911026,160.334873 110.106789,159.746879 108.633911,159.541505 C106.239873,159.208442 103.8405,158.916455 101.442905,158.607055 C101.393557,158.39677 101.34421,158.186485 101.294417,157.9762 C103.011812,157.290877 104.699864,156.516261 106.453269,155.942107 C108.768173,155.183117 110.094341,153.707998 110.815442,151.349772 C112.201628,146.818602 114.153313,142.438337 115.243412,137.845109 C116.47533,132.654511 115.718218,127.46436 113.053434,122.748354 C110.731417,118.639986 107.618501,118.35023 104.904369,122.159467 C100.939646,127.723309 98.8248013,133.980065 98.9648425,140.916786 C99.0204144,143.658079 98.9741786,146.401604 98.9741786,149.405865 C98.1294855,148.704022 97.37104,148.074061 96.4049779,147.271317 C92.9292881,153.212869 95.2779795,159.233891 95.995524,165.183925 C95.8239179,165.293756 95.6518673,165.403139 95.4793721,165.51297 C94.8262909,164.741925 94.065178,164.037851 93.5379117,163.187782 C90.803329,158.774032 88.1625516,154.301796 85.4106305,149.898762 C84.645961,148.676341 83.6118788,147.623131 82.6493732,146.427499 C81.2378466,148.131208 81.9802874,149.430867 82.8049746,150.687218 C84.8406849,153.789255 86.907071,156.8712 88.9561186,159.963414 C90.3672006,162.093051 90.1142372,163.054289 87.8091143,164.096337 C85.0989832,165.321883 82.3821835,165.325008 79.6676067,164.056602 C72.1796247,160.558998 68.5016532,154.425467 67.5884955,146.407855 C67.1968247,142.97097 67.0176608,142.725414 63.5273001,141.985176 C49.8788381,139.089406 41.9582844,125.987901 42.5624623,113.704319 C42.5864693,113.223923 42.7651886,112.751117 43.384482,112.161784 C43.7463663,113.120343 44.1771598,114.058366 44.4594651,115.039695 C46.949976,123.700216 53.942701,127.818853 62.7079478,125.699931 C70.6338364,123.784598 74.5625484,118.151107 76.4066468,110.639339 C77.9591037,104.312489 76.5186797,98.8397253 72.1400575,93.942901 C64.9712807,85.9252889 55.8392593,81.6012788 45.6567064,79.0841111 C44.8680298,78.8890061 44.0388969,78.7604242 43.3217969,78.4090566 C42.8870022,78.1965394 42.2721546,77.5121091 42.3557347,77.2152101 C42.8612169,75.4226545 41.6417468,75.076198 40.4467284,74.5886586 C33.6340563,71.8080768 26.7929315,72.7309192 19.9669222,74.4609697 C16.9624823,75.2221919 14.0158371,76.2124505 11.0207333,77.0129616 C7.44190204,77.9692889 5.89211251,77.3107535 4,74.2020202 L4,70.630303 C5.19235098,65.2508505 8.67159734,61.7920889 13.4939057,59.6459333 C18.5451704,57.3979838 23.5839869,55.0116303 28.8424237,53.3815879 C32.5492926,52.2323879 35.0558082,50.2902667 36.8807898,47.009198 C37.540095,45.8229414 38.5306088,44.7000828 39.6282652,43.9107333 C41.2554108,42.7405495 42.6478207,43.2544303 43.207541,45.1666384 C43.6605633,46.7145313 44.0002188,48.3686828 43.9775455,49.9697051 C43.903746,55.1518202 47.3091928,57.5984465 51.2676914,59.5887859 C52.056368,59.9852465 53.1411317,59.7691576 54.084076,59.8812202 C55.7867994,60.0834687 57.6126702,59.9981939 59.1571248,60.6147616 C61.6836463,61.6242182 64.0390063,63.0756747 66.4423804,64.3842626 C69.4121434,66.0013576 72.358344,67.663099 75.7011057,69.5203919 C75.5299443,68.0939374 75.4668146,67.0876061 75.2818712,66.103598 C74.1579849,60.1209717 75.7735715,55.1138707 80.3678128,51.0586323 C82.0305244,49.5906566 83.5260758,47.9284687 85.0691966,46.3278929 C88.3892851,42.8847576 91.6915904,39.4242101 95.2597519,35.7006949 C96.3249543,37.9419475 97.1038502,39.5809192 97.875633,41.2047111 C106.898733,39.7474505 115.67954,38.3290323 124.460347,36.9106141 C124.437674,36.6686303 124.415445,36.4270929 124.392772,36.1851091 C122.063197,35.9891111 119.448205,36.3860182 117.481849,35.4332626 C115.437247,34.4425576 114.018607,32.1481758 111.9949,30.0855091 C113.381531,29.7448566 114.221778,29.5568949 115.052245,29.3296444 C115.938283,29.0872141 116.814097,28.8077273 117.6948,28.5447596 C117.667237,28.2951859 117.640117,28.0460586 117.612554,27.7969313 C115.862261,27.9576586 114.095519,28.0192707 112.363009,28.2956323 C97.9116436,30.6007293 87.1142431,38.4451131 79.2310337,50.9809475 C75.8611529,46.4837091 72.8100325,42.292299 69.6246504,38.206701 C67.8365685,35.9136586 67.7649919,33.6313313 69.0382556,31.1525596 C71.1388739,27.0611576 73.9961594,23.5845374 77.5572077,20.7061798 C86.2917787,13.6462343 95.7403378,8.58466465 107.478015,9.23114545 C111.232009,9.43785859 113.43399,10.752697 114.714812,14.4034384 C117.174647,21.4138263 121.117586,27.6058444 126.13195,33.0821798 C127.906695,35.0202828 128.886094,35.0077818 130.807104,33.2594263 C132.067475,32.1120121 133.294948,30.9172727 134.640233,29.8792424 C135.709436,29.0541758 137.078284,27.6710283 138.31198,29.0139939 C139.615475,30.4324121 137.942538,31.5758081 137.056944,32.5446364 C135.426686,34.3282626 133.65372,35.9801818 131.722485,37.9044444 C138.807237,45.8001717 142.219797,55.2344162 143.421929,65.6218626 C143.747358,65.6866 144.072342,65.7513374 144.397327,65.8156283 C145.654141,64.0757556 146.910511,62.3358828 148.204225,60.5442202 C149.836261,67.3121778 147.952596,72.8398566 142.302933,76.818303 C138.962838,79.1707253 136.515007,82.1986485 133.719073,85.961899 C136.753744,86.580699 139.324278,87.5910485 141.872584,87.5374727 C151.510087,87.3334384 159.780966,82.930404 163.611872,72.8827172 C163.945303,72.0085394 164.658847,71.0499798 165.456415,70.6316424 C167.300513,69.6646 167.708633,68.2247515 166.994201,66.5491697 C165.071413,62.0434485 165.463528,57.8636465 168.580001,53.7356343 C165.203007,50.4246525 161.878473,47.1431374 158.529931,43.8861778 C153.211032,38.7143313 147.747647,33.6853535 142.586127,28.3599232 C137.842509,23.4653313 137.144081,16.8701556 140.329907,11.5697273 C142.33761,8.23061818 145.313152,6.19831111 148.931551,5 L153.377304,5 C156.13456,5.94471919 158.666861,7.21669697 160.457165,9.66198384 C162.014513,11.7893879 162.048745,13.6042667 160.480283,15.2932424 C158.878923,17.0174889 157.486513,17.1005313 155.143157,15.6941677 C154.073953,15.0517051 153.005194,14.2860182 151.831071,13.9690283 C149.933179,13.4569333 148.2678,14.1708303 147.271951,15.9004343 C146.083157,17.9639939 146.572634,19.9976404 148.037065,21.6817051 C150.616936,24.6480162 153.257268,27.5710202 156.014969,30.3699071 C161.327644,35.7618606 166.763911,41.0319293 172.095258,46.4055778 C173.38008,47.7007717 174.691578,48.0963394 176.481438,47.6753232 C180.020257,46.8431131 183.057151,47.8851616 186.01002,50.0598909 C189.958294,52.9677152 192.056245,56.9354465 193.532235,61.3898242 C193.754078,62.0599677 193.89323,62.9238768 193.666496,63.5498202 C192.75734,66.0544869 193.784753,67.8251657 195.492812,69.5061051 C204.856901,78.7206889 214.19565,87.9607212 223.536622,97.1980747 C224.115459,97.7708889 224.692518,98.3593293 225.178439,99.0093818 C226.40191,100.647907 226.238306,102.29938 224.825001,103.568679 C223.305443,104.933521 222.00017,104.334812 220.755804,103.153913 C215.265743,97.9450101 209.782351,92.7289636 204.291402,87.5205071 C198.973392,82.476796 193.649158,77.4393354 188.231563,72.3081172 C186.480826,74.1649636 184.85857,75.8851919 183.076268,77.7755232 C186.663546,82.0763172 180.702236,82.4241131 179.969131,85.1890687 C181.205051,86.113697 182.43608,87.0338606 184.041886,88.2348505 C179.664152,92.2798202 175.534492,96.3908667 171.093185,100.129562 C164.248504,105.891634 156.313279,109.60622 147.668068,111.831846 C142.508327,113.160079 141.036338,115.141042 141.148371,120.513352 C141.227505,124.292228 142.518996,127.620622 145.019732,130.470406 C148.223342,134.121147 152.026684,134.636814 156.081211,131.965616 C157.147302,131.262881 158.248515,130.613721 159.818311,129.638642 C159.010962,133.555477 156.981031,135.869949 154.229999,137.409806 C151.142868,139.137178 147.872128,140.544881 144.63473,141.985622 C142.294486,143.026331 142.006401,143.50896 143.042706,145.822539 C144.498246,149.072356 146.087602,152.265024 147.449336,155.553683 C150.72719,163.474412 147.876573,173.133228 140.987879,178.248374 C135.994854,181.955816 131.019167,185.699422 126.212419,189.643937 C121.472801,193.533984 117.782826,198.376339 114.7117,203.689269 C114.346259,204.321909 113.912798,204.915261 113.37664,205.730952 C111.118198,204.561214 109.270098,201.405602 105.873098,204.571929 C105.488096,200.159519 105.107095,196.346711 104.838571,192.525867 C104.65674,189.9328 104.738987,187.318749 104.486912,184.735059 C104.389995,183.743461 103.729801,182.019661 103.262552,181.997784 C101.753663,181.927242 99.7886405,182.005374 98.7692294,182.905446 C96.0150853,185.338232 94.6591306,188.305436 95.4175761,192.412911 C96.0359804,195.763628 95.1837295,199.363919 95.239746,202.849915 C95.2895384,205.95463 95.422911,209.104885 95.9919674,212.145309 C97.1207441,218.177493 100.957429,221.735816 106.884507,223.073871 C107.52025,223.217186 108.149324,223.390414 109.32567,223.686867 C108.437853,224.627121 107.789662,225.313784 107.141472,226 L104.918595,226 Z" id="Fill-1" fill="#FFFFFF"></path>
    </g>
</svg>