<?xml version="1.0" encoding="UTF-8" standalone="no"?>
<svg width="230px" height="230px" viewBox="0 0 230 230" version="1.1" xmlns="http://www.w3.org/2000/svg" xmlns:xlink="http://www.w3.org/1999/xlink">
    <!-- Generator: sketchtool 39.1 (31720) - http://www.bohemiancoding.com/sketch -->
    <title>9423CDE1-83E7-4839-B385-7EE5D50612BB</title>
    <desc>Created with sketchtool.</desc>
    <defs></defs>
    <g id="Page-1" stroke="none" stroke-width="1" fill="none" fill-rule="evenodd">
        <g id="5" transform="translate(-1047.000000, -460.000000)" fill="#FFFFFF">
            <g id="Group-13" transform="translate(1005.000000, 460.000000)">
                <g id="Page-1" transform="translate(59.000000, 48.000000)">
                    <path d="M188.140333,124.919167 L140.753167,124.904 L140.753167,119.114667 L179.636167,119.114667 C179.670833,119.114667 179.699,119.097333 179.733667,119.095167 C180.028333,119.084333 180.320833,119.032333 180.596,118.921833 C180.650167,118.900167 180.695667,118.867667 180.747667,118.843833 C180.866833,118.7875 180.988167,118.737667 181.098667,118.664 C181.2005,118.594667 181.282833,118.503667 181.373833,118.4235 C181.419333,118.382333 181.464833,118.349833 181.508167,118.3065 C181.7075,118.096333 181.865667,117.858 181.984833,117.598 C182.013,117.5395 182.030333,117.481 182.052,117.420333 C182.160333,117.132167 182.234,116.833167 182.234,116.516833 L182.234,17.7103333 L188.138167,17.7103333 L188.138167,124.919167 L188.140333,124.919167 Z M135.551,134.019167 L128.645833,128.767167 C127.714167,128.060833 126.429333,128.060833 125.497667,128.767167 L118.590333,134.021333 L118.590333,113.962333 C123.560667,113.243 129.276333,112.7165 135.551,112.597333 L135.551,134.019167 L135.551,134.019167 Z M107.804667,124.919167 C107.117833,124.919167 106.457,125.192167 105.9695,125.6775 C105.937,125.71 102.502833,128.970833 96.6701667,128.970833 C90.8461667,128.970833 87.4986667,125.801 87.3708333,125.6775 C86.8833333,125.192167 86.2225,124.919167 85.5356667,124.919167 L5.2,124.919167 L5.2,17.7125 L11.1063333,17.7125 L11.1063333,116.514667 C11.1063333,116.831 11.1821667,117.132167 11.2883333,117.418167 C11.31,117.478833 11.3295,117.537333 11.3555,117.595833 C11.4768333,117.855833 11.6328333,118.096333 11.8343333,118.3065 C11.8755,118.349833 11.9231667,118.382333 11.9665,118.421333 C12.0575,118.503667 12.142,118.594667 12.2438333,118.664 C12.3348333,118.724667 12.4366667,118.755 12.532,118.802667 C12.623,118.850333 12.7096667,118.898 12.8071667,118.934833 C13.091,119.041 13.3835,119.110333 13.6825,119.1125 C13.6911667,119.1125 13.6976667,119.116833 13.7063333,119.116833 L113.390333,119.116833 L113.390333,124.921333 L107.804667,124.921333 L107.804667,124.919167 Z M74.386,113.9125 L35.9883333,113.9125 C41.5631667,113.121667 48.0241667,112.554 55.1871667,112.554 C62.3501667,112.554 68.8111667,113.121667 74.386,113.9125 L74.386,113.9125 Z M16.3063333,10.9958333 C21.0123333,9.42066667 35.4683333,5.20216667 55.1871667,5.20216667 C74.8475,5.20216667 89.3511667,9.425 94.068,10.998 L94.068,112.876833 C87.8301667,110.931167 73.8248333,107.354 55.1871667,107.354 C36.5451667,107.354 22.5441667,110.931167 16.3063333,112.876833 L16.3063333,10.9958333 Z M177.036167,10.998 L177.036167,15.0886667 C177.036167,15.0951667 177.031833,15.1016667 177.031833,15.1103333 C177.031833,15.119 177.036167,15.1233333 177.036167,15.132 L177.036167,112.876833 C170.798333,110.931167 156.793,107.354 138.153167,107.354 C119.500333,107.354 105.503667,110.933333 99.2723333,112.879 L99.2723333,11.0001667 C103.974,9.42933333 118.471167,5.20216667 138.153167,5.20216667 C157.817833,5.20216667 172.317167,9.425 177.036167,10.998 L177.036167,10.998 Z M140.753167,112.595167 C146.8805,112.712167 152.466167,113.219167 157.352,113.9125 L140.753167,113.9125 L140.753167,112.595167 Z M190.740333,12.5103333 L182.236167,12.5103333 L182.236167,9.16066667 C182.236167,8.0925 181.584,7.13483333 180.591667,6.74266667 C179.894,6.4675 163.251833,0 138.151,0 C116.105167,0 100.589667,4.98766667 96.6701667,6.38733333 C92.755,4.98983333 77.2373333,0 55.1871667,0 C30.0885,0 13.4441667,6.46533333 12.7486667,6.74266667 C11.7563333,7.13483333 11.1041667,8.09466667 11.1041667,9.16066667 L11.1041667,12.5081667 L2.6,12.5081667 C1.1635,12.5081667 0,13.6738333 0,15.1081667 L0,127.517 C0,128.9535 1.16566667,130.117 2.6,130.117 L84.5801667,130.117 C86.3113333,131.4755 90.519,134.168667 96.6701667,134.168667 C102.821333,134.168667 107.029,131.4755 108.760167,130.117 L113.390333,130.117 L113.390333,139.260333 C113.390333,140.248333 113.9515,141.151833 114.8355,141.5895 C115.721667,142.025 116.776833,141.929667 117.5655,141.3295 L127.075,134.099333 L136.580167,141.3295 C137.041667,141.6805 137.596333,141.860333 138.155333,141.860333 C138.549667,141.860333 138.944,141.769333 139.310167,141.5895 C140.194167,141.149667 140.755333,140.248333 140.755333,139.260333 L140.755333,130.104 L190.7425,130.119167 C191.4315,130.119167 192.0945,129.846167 192.579833,129.3565 C193.0695,128.869 193.3425,128.208167 193.3425,127.517 L193.3425,15.1103333 C193.340333,13.6738333 192.176833,12.5103333 190.740333,12.5103333 L190.740333,12.5103333 Z" id="Fill-1"></path>
                    <path d="M28.9141667,38.7725 C29.627,38.7725 30.3355,38.4821667 30.849,37.9101667 L35.3535,32.9008333 L39.8558333,37.9101667 C40.3498333,38.4583333 41.0518333,38.7725 41.7885,38.7725 C42.5251667,38.7725 43.2293333,38.4583333 43.7211667,37.9101667 L48.23,32.8986667 L52.7388333,37.9101667 C53.7246667,39.0086667 55.6183333,39.0086667 56.6041667,37.9101667 L61.1108333,32.8986667 L65.6153333,37.9101667 C66.1093333,38.4583333 66.8113333,38.7725 67.5501667,38.7725 C68.289,38.7725 68.991,38.4583333 69.485,37.9101667 L73.9916667,32.8986667 L78.5005,37.9123333 C79.4581667,38.9783333 81.1048333,39.0693333 82.173,38.1051667 C83.2411667,37.1453333 83.3278333,35.5008333 82.3658333,34.4326667 L75.9221667,27.2696667 C74.9363333,26.1733333 73.0426667,26.1755 72.0546667,27.2696667 L67.5501667,32.2811667 L63.0478333,27.2696667 C62.5538333,26.7215 61.8518333,26.4095 61.113,26.4073333 C60.3763333,26.4073333 59.6721667,26.7215 59.1803333,27.2696667 L54.6715,32.2811667 L50.1626667,27.2696667 C49.1768333,26.1711667 47.2831667,26.1711667 46.2973333,27.2696667 L41.7906667,32.2811667 L37.2883333,27.2718333 C36.7943333,26.7236667 36.0923333,26.4095 35.3535,26.4095 C34.6168333,26.4095 33.9126667,26.7236667 33.4186667,27.2718333 L26.9793333,34.4348333 C26.0195,35.503 26.1083333,37.1453333 27.1743333,38.1073333 C27.6748333,38.5536667 28.2945,38.7725 28.9141667,38.7725" id="Fill-3"></path>
                    <path d="M30.849,61.256 L35.3535,56.2466667 L39.8558333,61.256 C40.3498333,61.8041667 41.0518333,62.1161667 41.7885,62.1183333 C42.5251667,62.1183333 43.2293333,61.8041667 43.7211667,61.2581667 L48.23,56.2466667 L52.7388333,61.2581667 C53.7246667,62.3545 55.6183333,62.3545 56.6041667,61.2581667 L61.1108333,56.2466667 L65.6153333,61.256 C66.1093333,61.8041667 66.8113333,62.1183333 67.5501667,62.1183333 C68.289,62.1183333 68.991,61.8041667 69.4828333,61.256 L73.9895,56.2466667 L78.4983333,61.2581667 C79.0118333,61.828 79.7203333,62.1183333 80.4331667,62.1183333 C81.0528333,62.1183333 81.6746667,61.8973333 82.1708333,61.451 C83.239,60.4911667 83.3256667,58.8466667 82.3636667,57.7785 L75.92,50.6176667 C74.9341667,49.5235 73.0405,49.5235 72.0546667,50.6176667 L67.548,55.627 L63.0456667,50.6176667 C62.5516667,50.0695 61.8496667,49.7575 61.1108333,49.7553333 C60.3741667,49.7553333 59.67,50.0695 59.1781667,50.6155 L54.6693333,55.627 L50.1605,50.6155 C49.1746667,49.5191667 47.281,49.5191667 46.2951667,50.6155 L41.7885,55.6248333 L37.2861667,50.6155 C36.7921667,50.0673333 36.0901667,49.7553333 35.3513333,49.7531667 C34.6146667,49.7531667 33.9105,50.0673333 33.4186667,50.6155 L26.9793333,57.7763333 C26.0195,58.8445 26.1061667,60.4868333 27.1743333,61.4466667 C28.2446667,62.4151667 29.8891667,62.3241667 30.849,61.256" id="Fill-5"></path>
                    <path d="M28.9141667,85.4663333 C29.627,85.4663333 30.3355,85.176 30.849,84.604 L35.3535,79.5946667 L39.8558333,84.604 C40.3498333,85.1521667 41.0518333,85.4641667 41.7885,85.4663333 C42.5251667,85.4663333 43.2293333,85.1521667 43.7211667,84.6061667 L48.23,79.5946667 L52.7388333,84.6061667 C53.7246667,85.7025 55.6183333,85.7025 56.6041667,84.6061667 L61.1108333,79.5968333 L65.6153333,84.6061667 C66.1093333,85.1543333 66.8113333,85.4685 67.5501667,85.4685 C68.289,85.4685 68.991,85.1543333 69.4828333,84.6061667 L73.9895,79.5968333 L78.4983333,84.6061667 C79.4603333,85.6743333 81.1048333,85.761 82.1708333,84.799 C83.239,83.8391667 83.3256667,82.1946667 82.3636667,81.1265 L75.9178333,73.9656667 C74.932,72.8693333 73.0383333,72.8715 72.0525,73.9656667 L67.5458333,78.975 L63.0435,73.9656667 C62.5495,73.4175 61.8475,73.1055 61.1086667,73.1033333 C60.372,73.1033333 59.6678333,73.4175 59.176,73.9635 L54.6671667,78.9728333 L50.1626667,73.9656667 C49.1768333,72.8693333 47.2831667,72.8693333 46.2973333,73.9656667 L41.7906667,78.975 L37.2883333,73.9656667 C36.7943333,73.4175 36.0923333,73.1055 35.3535,73.1033333 C34.6168333,73.1033333 33.9126667,73.4175 33.4208333,73.9656667 L26.9815,81.1243333 C26.0216667,82.1925 26.1083333,83.8348333 27.1765,84.7946667 C27.6726667,85.2453333 28.2945,85.4663333 28.9141667,85.4663333" id="Fill-7"></path>
                    <path d="M114.3285,37.9101667 L118.835167,32.8986667 L123.339667,37.9101667 C123.833667,38.4583333 124.535667,38.7703333 125.2745,38.7725 C126.011167,38.7725 126.715333,38.4583333 127.207167,37.9101667 L131.716,32.8986667 L136.2205,37.9101667 C137.206333,39.0065 139.102167,39.0065 140.088,37.9101667 L144.5925,32.8986667 L149.094833,37.9101667 C149.588833,38.4583333 150.290833,38.7703333 151.0275,38.7725 C151.764167,38.7725 152.468333,38.4583333 152.960167,37.9123333 L157.469,32.8986667 L161.975667,37.9101667 C162.489167,38.4821667 163.197667,38.7725 163.9105,38.7725 C164.530167,38.7725 165.149833,38.5515 165.648167,38.1051667 C166.716333,37.1453333 166.803,35.5008333 165.843167,34.4326667 L159.403833,27.2696667 C158.909833,26.7215 158.207833,26.4095 157.469,26.4073333 C156.732333,26.4073333 156.028167,26.7215 155.536333,27.2675 L151.0275,32.279 L146.523,27.2675 C146.029,26.7193333 145.327,26.4051667 144.588167,26.4051667 C143.849333,26.4051667 143.147333,26.7193333 142.653333,27.2675 L138.148833,32.279 L133.644333,27.2675 C133.150333,26.7193333 132.448333,26.4051667 131.7095,26.4051667 C130.970667,26.4051667 130.268667,26.7193333 129.776833,27.2675 L125.270167,32.279 L120.765667,27.2675 C120.271667,26.7193333 119.569667,26.4073333 118.830833,26.4051667 C118.094167,26.4051667 117.39,26.7193333 116.898167,27.2675 L110.456667,34.4305 C109.496833,35.4986667 109.5835,37.141 110.651667,38.1008333 C111.726333,39.0671667 113.370833,38.9805 114.3285,37.9101667" id="Fill-9"></path>
                    <path d="M112.393667,62.1183333 C113.1065,62.1183333 113.815,61.828 114.3285,61.2581667 L118.835167,56.2466667 L123.339667,61.256 C123.833667,61.8041667 124.535667,62.1161667 125.2745,62.1183333 C126.011167,62.1183333 126.715333,61.8041667 127.207167,61.2581667 L131.716,56.2466667 L136.222667,61.256 C137.2085,62.3545 139.102167,62.3545 140.088,61.256 L144.594667,56.2466667 L149.097,61.256 C149.591,61.8041667 150.293,62.1161667 151.029667,62.1183333 C151.766333,62.1183333 152.4705,61.8041667 152.962333,61.2581667 L157.471167,56.2466667 L161.977833,61.256 C162.9355,62.3241667 164.584333,62.4151667 165.648167,61.451 C166.716333,60.4911667 166.803,58.8466667 165.843167,57.7806667 L159.403833,50.6198333 C158.909833,50.0716667 158.207833,49.7596667 157.471167,49.7575 C156.7345,49.7575 156.030333,50.0716667 155.5385,50.6176667 L151.029667,55.6291667 L146.525167,50.6198333 C146.031167,50.0716667 145.329167,49.7575 144.590333,49.7575 C143.8515,49.7575 143.1495,50.0716667 142.657667,50.6198333 L138.151,55.6291667 L133.644333,50.6198333 C133.150333,50.0716667 132.448333,49.7575 131.711667,49.7575 C130.975,49.7575 130.270833,50.0716667 129.779,50.6176667 L125.272333,55.6291667 L120.767833,50.6198333 C120.273833,50.0716667 119.571833,49.7596667 118.833,49.7575 C118.096333,49.7575 117.392167,50.0716667 116.900333,50.6176667 L110.458833,57.7785 C109.499,58.8466667 109.585667,60.489 110.651667,61.451 C111.154333,61.8995 111.776167,62.1183333 112.393667,62.1183333" id="Fill-11"></path>
                    <path d="M159.403833,73.9678333 C158.909833,73.4196667 158.207833,73.1076667 157.471167,73.1055 C156.7345,73.1055 156.030333,73.4196667 155.5385,73.9656667 L151.029667,78.975 L146.525167,73.9656667 C146.031167,73.4175 145.329167,73.1033333 144.590333,73.1033333 C143.8515,73.1033333 143.1495,73.4175 142.657667,73.9656667 L138.151,78.975 L133.644333,73.9656667 C133.150333,73.4175 132.448333,73.1033333 131.711667,73.1033333 C130.975,73.1033333 130.270833,73.4175 129.779,73.9635 L125.272333,78.9728333 L120.767833,73.9635 C120.273833,73.4153333 119.571833,73.1033333 118.833,73.1011667 C118.096333,73.1011667 117.392167,73.4153333 116.900333,73.9613333 L110.458833,81.12 C109.499,82.1881667 109.585667,83.8305 110.651667,84.7925 C111.722,85.7566667 113.364333,85.6656667 114.324167,84.5996667 L118.830833,79.5903333 L123.335333,84.5996667 C123.829333,85.1478333 124.531333,85.4598333 125.270167,85.462 C126.006833,85.462 126.711,85.1478333 127.202833,84.6018333 L131.711667,79.5925 L136.218333,84.6018333 C137.204167,85.7003333 139.097833,85.7003333 140.083667,84.6018333 L144.590333,79.5925 L149.092667,84.6018333 C149.586667,85.15 150.288667,85.462 151.025333,85.4641667 C151.762,85.4641667 152.466167,85.15 152.958,84.604 L157.466833,79.5946667 L161.9735,84.604 C162.487,85.176 163.1955,85.4663333 163.908333,85.4663333 C164.528,85.4663333 165.149833,85.2453333 165.646,84.799 C166.714167,83.8391667 166.800833,82.1946667 165.841,81.1286667 L159.403833,73.9678333 Z" id="Fill-13"></path>
                </g>
            </g>
        </g>
    </g>
</svg>