<svg width="230" height="230" viewBox="0 0 230 230" xmlns="http://www.w3.org/2000/svg" xmlns:xlink="http://www.w3.org/1999/xlink"><title>E4E21A3F-0325-46A7-B393-B8E241231133</title><defs><path id="a" d="M66.855 146.442H0V0h133.709v146.442z"/></defs><g fill="none" fill-rule="evenodd"><g transform="translate(48 41.559)"><mask id="b" fill="#fff"><use xlink:href="#a"/></mask><path d="M66.859 141.375l.128.007c.028 0 .376.022.952.022 1.652-.008 7.304-.16 10.878-2.15 13.013-7.233 28.663-24.316 29.956-26.7.476-.91 1.236-2.821 2.145-6.782l.487-2.099 2.217.153c.22 0 .856-.071 1.95-.715 2.672-1.598 10.932-11.308 12.428-16.375 1.26-4.287.87-16.36-1.738-20.676-.422-.701-.795-.993-.984-1.028-1.56-.306-2.789.217-3.695 1.562l-5.488 8.215.891-9.849c1.631-18.068-3.062-34.613-12.889-45.384-8.8-9.639-21.326-14.531-37.238-14.531-18.78 0-50.284 7.312-50.284 56.286 0 1.224.053 2.448.163 3.633l.913 9.881-5.513-8.248c-.9-1.348-2.136-1.868-3.692-1.562-.191.036-.564.328-.987 1.036-2.615 4.323-3.006 16.381-1.737 20.669 1.499 5.067 9.755 14.773 12.434 16.374 1.09.648 1.72.716 1.94.716h.07l2.146-.153.483 2.099c.917 3.96 1.677 5.87 2.15 6.782 1.29 2.384 16.95 19.466 29.956 26.7 3.574 1.989 9.233 2.15 10.881 2.15.572-.008.928-.022.956-.022l.12-.01zm1.08 5.067c-.519 0-.9-.014-1.08-.021-.185.007-.558.02-1.08.02-3.112 0-8.981-.362-13.33-2.778-13.663-7.597-30.25-25.512-31.96-28.757-.76-1.445-1.474-3.508-2.18-6.276-.882-.228-1.795-.627-2.732-1.182C11.757 105.168 2.723 94.376.89 88.17-.535 83.35-.56 69.593 3.146 63.46c1.147-1.897 2.6-3.032 4.323-3.37 1.421-.277 2.807-.227 4.072.125.124-11.432 2.199-27.234 11.027-39.851C32.018 6.853 46.918 0 66.855 0c17.387 0 31.16 5.443 40.955 16.182 9.802 10.75 14.964 26.561 14.488 43.996 1.232-.327 2.572-.363 3.943-.089 1.72.342 3.172 1.473 4.32 3.363 3.705 6.13 3.684 19.89 2.26 24.718-1.834 6.206-10.864 16.997-14.684 19.271-.937.562-1.85.96-2.735 1.189-.707 2.764-1.425 4.828-2.185 6.276-1.702 3.238-18.278 21.146-31.963 28.757-4.334 2.42-10.203 2.779-13.315 2.779z" fill="#FFF" mask="url(#b)"/></g><path d="M102.798 59.637a3.358 3.358 0 0 1 3.353 3.359 3.358 3.358 0 0 1-3.353 3.359 3.358 3.358 0 0 1-3.354-3.36 3.358 3.358 0 0 1 3.354-3.358" fill="#FFF"/><path d="M102.798 60.142a2.857 2.857 0 1 0 0 5.714 2.858 2.858 0 0 0 0-5.714m0 6.718a3.865 3.865 0 0 1 0-7.728 3.863 3.863 0 1 1 0 7.728M126.916 59.758a3.36 3.36 0 0 1 3.358 3.362 3.36 3.36 0 0 1-3.358 3.363 3.36 3.36 0 0 1-3.357-3.363 3.36 3.36 0 0 1 3.357-3.362" fill="#FFF"/><path d="M126.916 60.267a2.86 2.86 0 0 0 0 5.718 2.861 2.861 0 0 0 2.857-2.861 2.863 2.863 0 0 0-2.857-2.857m0 6.725a3.869 3.869 0 0 1 0-7.736 3.865 3.865 0 0 1 3.859 3.864c-.004 2.135-1.73 3.872-3.859 3.872M102.929 74.887a3.358 3.358 0 0 1 3.354 3.36 3.358 3.358 0 0 1-3.354 3.358 3.358 3.358 0 0 1-3.354-3.359 3.358 3.358 0 0 1 3.354-3.359" fill="#FFF"/><path d="M102.929 75.392a2.862 2.862 0 0 0-2.853 2.858 2.86 2.86 0 0 0 2.853 2.86 2.858 2.858 0 0 0 0-5.718m0 6.722a3.869 3.869 0 0 1-3.862-3.868 3.867 3.867 0 0 1 3.862-3.86 3.864 3.864 0 0 1 0 7.728M126.916 74.884a3.36 3.36 0 0 1 3.358 3.362 3.36 3.36 0 0 1-3.358 3.363 3.36 3.36 0 0 1-3.357-3.363 3.36 3.36 0 0 1 3.357-3.362" fill="#FFF"/><path d="M126.916 75.392a2.862 2.862 0 0 0-2.852 2.858 2.86 2.86 0 0 0 2.852 2.86 2.861 2.861 0 0 0 2.857-2.86 2.865 2.865 0 0 0-2.857-2.858m0 6.722a3.864 3.864 0 1 1 0-7.728 3.862 3.862 0 0 1 3.859 3.86 3.868 3.868 0 0 1-3.859 3.868M102.929 87.6a3.358 3.358 0 0 1 3.354 3.36 3.358 3.358 0 0 1-3.354 3.358 3.358 3.358 0 0 1-3.354-3.359 3.358 3.358 0 0 1 3.354-3.359" fill="#FFF"/><path d="M102.929 88.095a2.862 2.862 0 0 0 0 5.721 2.86 2.86 0 0 0 2.853-2.857c-.004-1.58-1.283-2.864-2.853-2.864m0 6.728a3.87 3.87 0 0 1-3.862-3.864 3.872 3.872 0 0 1 3.862-3.87 3.869 3.869 0 0 1 0 7.734M126.916 87.597a3.36 3.36 0 0 1 3.358 3.362 3.36 3.36 0 0 1-3.358 3.363 3.36 3.36 0 0 1-3.357-3.363 3.36 3.36 0 0 1 3.357-3.362" fill="#FFF"/><path d="M126.916 88.095a2.862 2.862 0 0 0 0 5.721 2.863 2.863 0 0 0 2.857-2.857 2.866 2.866 0 0 0-2.857-2.864m0 6.728a3.869 3.869 0 0 1 0-7.735 3.866 3.866 0 0 1 3.859 3.871c-.004 2.125-1.73 3.864-3.859 3.864" fill="#FFF"/></g></svg>