<?xml version="1.0" encoding="UTF-8"?>
<svg width="230px" height="230px" viewBox="0 0 230 230" version="1.1" xmlns="http://www.w3.org/2000/svg" xmlns:xlink="http://www.w3.org/1999/xlink">
    <!-- Generator: Sketch 50.2 (55047) - http://www.bohemiancoding.com/sketch -->
    <title>Artboard 2 Copy 13</title>
    <desc>Created with Sketch.</desc>
    <defs>
        <polygon id="path-1" points="0.000348771048 0.730316392 157.875879 0.730316392 157.875879 190 0.000348771048 190"></polygon>
    </defs>
    <g id="Artboard-2-Copy-13" stroke="none" stroke-width="1" fill="none" fill-rule="evenodd">
        <g id="Group" transform="translate(36.000000, 20.000000)">
            <g id="Group-3" transform="translate(0.000000, 0.270000)">
                <mask id="mask-2" fill="white">
                    <use xlink:href="#path-1"></use>
                </mask>
                <g id="Clip-2"></g>
                <path d="M155.3866,99.0173 C153.9016,94.7153 152.6216,90.3243 150.8126,86.1633 C150.2256,84.8133 147.7706,82.9383 147.0096,83.2643 C145.0976,84.0833 143.2016,85.7643 142.1856,87.5913 C141.3656,89.0683 141.8386,91.2643 141.7116,93.6183 C148.6536,88.1193 148.6536,88.1193 155.3866,99.0173 M16.8576,94.8113 C16.5586,92.1893 16.8936,89.5993 15.8786,87.7503 C14.8036,85.7893 12.6346,84.0713 10.5456,83.2163 C9.8076,82.9133 7.2966,85.2143 6.6426,86.7673 C4.9586,90.7663 3.8606,95.0123 2.5276,99.1593 C9.5146,88.4713 9.5146,88.4713 16.8576,94.8113 M145.4236,116.4613 L144.4326,116.4053 C143.2756,114.8943 142.1176,113.3833 140.5636,111.3543 C137.8896,120.4453 138.1016,122.6973 141.4616,125.2823 C153.3096,116.5963 156.1256,100.8693 147.3796,92.2333 C139.5016,98.7423 138.8606,104.3463 144.8206,112.2983 C145.5586,113.2833 145.2476,115.0543 145.4236,116.4613 M10.9006,92.1853 C10.3056,92.1403 9.7116,92.0953 9.1176,92.0503 C7.4136,96.6073 3.6786,101.5433 4.4436,105.6383 C5.8686,113.2613 10.0236,120.3233 16.4646,125.7453 C22.0136,121.2403 17.7256,116.4023 18.5256,111.9863 C18.0946,111.8153 17.6636,111.6453 17.2326,111.4753 C15.8246,113.1633 14.4156,114.8523 13.0066,116.5403 C12.6306,116.3573 12.2546,116.1733 11.8776,115.9893 C12.6266,114.3943 13.2956,112.7553 14.1456,111.2163 C14.9056,109.8423 16.1676,108.6873 16.6836,107.2483 C19.1146,100.4793 14.4186,96.5543 10.9006,92.1853 M139.8246,74.9873 C139.7736,59.5283 135.8056,44.5713 127.5596,31.6653 C109.0386,2.6773 72.5766,-5.0617 45.8556,15.0873 C27.0496,29.2683 18.1806,49.1293 18.8846,72.5043 C19.3896,89.2893 21.7236,106.0163 23.1626,122.7763 C25.0606,144.8943 35.9476,162.0663 52.6756,175.8343 C67.4256,187.9753 82.2376,189.9773 96.9766,180.9563 C116.4816,169.0183 129.4986,151.6223 133.5606,129.0213 C136.7616,111.2103 137.8166,93.0133 139.8246,74.9873 M137.4786,129.0233 C132.6806,150.5543 121.0636,168.1983 102.8846,181.1193 C85.5326,193.4533 69.1336,192.8493 52.2346,179.8753 C35.1036,166.7243 24.0486,149.6293 20.1846,127.7403 C15.4606,130.4673 12.4566,127.7053 10.1426,124.2523 C4.9636,116.5213 -0.6604,108.7793 0.0636,98.8183 C0.3576,94.7653 1.5206,90.6433 3.0156,86.8383 C5.7336,79.9203 8.3456,78.8783 15.2246,80.9273 C15.7606,72.8833 15.3736,64.6353 17.0076,56.8093 C21.9436,33.1833 34.2026,14.4583 57.2106,5.0493 C85.5756,-6.5497 117.5946,5.9633 132.6796,33.6053 C140.1296,47.2573 143.4926,61.7893 142.1476,77.3443 C142.0766,78.1703 142.0626,79.0053 142.0836,79.8343 C142.0916,80.1473 142.2746,80.4553 142.3826,80.7643 C150.0926,79.2883 152.5946,80.8683 155.7136,88.3523 C161.9726,103.3753 153.5216,118.2373 144.6586,127.2053 C143.2826,128.5993 140.2696,128.3753 137.4786,129.0233" id="Fill-1" fill="#FFFFFF" mask="url(#mask-2)"></path>
            </g>
            <path d="M76.1017,158.2443 C70.4877,157.8243 66.2117,155.5283 63.5257,150.8853 C61.9217,148.1133 62.4667,146.0573 66.2877,146.0813 C72.7347,146.1213 79.1817,146.0833 85.6277,146.1193 C89.2117,146.1403 90.3587,148.1043 88.3507,151.2653 C85.4837,155.7783 81.1507,157.9663 76.1017,158.2443" id="Fill-14" fill="#FFFFFF"></path>
            <path d="M49.4491,89.1872 C46.0111,89.6812 42.6361,89.8162 39.4681,90.6972 C34.0401,92.2072 32.7461,96.7512 36.2041,101.0762 C41.7251,107.9792 56.2341,107.8962 61.7041,100.9322 C64.9891,96.7492 63.8191,92.4132 58.6621,90.8122 C55.6851,89.8892 52.4821,89.6972 49.4491,89.1872 M51.1961,108.4252 C43.3661,107.8582 38.2421,106.6132 34.6071,102.1332 C30.4841,97.0512 32.1031,90.2952 38.4301,89.2622 C45.1571,88.1642 52.3711,87.9422 59.0391,89.1632 C66.2221,90.4772 67.8131,98.6462 61.9951,103.1992 C58.3931,106.0172 53.5991,107.3092 51.1961,108.4252" id="Fill-16" fill="#FFFFFF"></path>
            <path d="M109.9464,107.7385 C114.4884,105.3145 119.1744,103.7865 122.5234,100.7725 C126.4644,97.2275 124.9064,91.7255 119.6944,90.9265 C113.4084,89.9615 106.7744,89.8775 100.4794,90.7615 C94.8214,91.5565 93.2754,97.4375 97.6404,101.2435 C100.8204,104.0165 105.2574,105.3495 109.9464,107.7385 M110.0064,87.4175 C113.4694,87.9345 117.0284,88.0385 120.3094,89.0465 C126.7314,91.0215 128.3114,97.2845 124.0014,102.4585 C117.8374,109.8585 102.4684,110.0205 96.0794,102.7535 C91.4424,97.4785 92.9694,91.0435 99.6374,89.0055 C102.9194,88.0025 106.4834,87.9265 110.0064,87.4175" id="Fill-18" fill="#FFFFFF"></path>
            <path d="M74.7255,135.5876 C76.2965,135.4236 77.6715,135.2796 79.0475,135.1356 L79.4595,136.6026 C77.6805,136.9266 75.8185,137.6986 74.1585,137.3896 C73.3085,137.2326 72.1755,135.0846 72.2695,133.9256 C73.0355,124.4836 74.0525,115.0616 75.0405,105.6376 C75.0785,105.2706 75.5885,104.9526 77.2775,104.8026 C76.4445,114.8426 75.6125,124.8836 74.7255,135.5876" id="Fill-20" fill="#FFFFFF"></path>
            <path d="M64.2697,82.1906 L32.9507,82.1906 C39.9107,78.3166 59.8397,78.4196 64.2697,82.1906" id="Fill-22" fill="#FFFFFF"></path>
            <path d="M125.9384,82.1999 L94.3174,82.1999 C98.1954,78.4329 117.7774,78.2189 125.9384,82.1999" id="Fill-24" fill="#FFFFFF"></path>
        </g>
    </g>
</svg>