<svg width="230" height="230" viewBox="0 0 230 230" xmlns="http://www.w3.org/2000/svg"><title>3CAE0F3E-0E71-4125-A582-4854E0A870DA</title><path d="M188.133 164.093c-1.106-7.28-7.179-12.934-14.657-13.402-1.352-7.372-7.82-12.978-15.587-12.978h-35.38c-.536-13.642-4.671-26.407-8.728-38.767-3.54-10.793-6.89-21.05-7.585-31.128h13.005l.805-.666c.048-.04 4.865-3.837 12.183-3.837 4.968 0 8.243-3.323 9.666-7.39h8.696l4.882 4.877 4.125-4.119-3.675-3.67 3.674-3.67-4.124-4.119-4.882 4.876h-7.906c-.136-4.109-.947-6.777-.986-6.897l-.644-2.037h-2.14c-7.683 0-11.453-1.907-15.819-4.117-4.902-2.478-10.459-5.292-21.735-5.292-10.93 0-19.17 8.139-19.17 18.932v.002c0 17.212 3.88 32.75 7.632 47.779 3.333 13.339 6.454 26 6.868 39.24H67.109c-7.764 0-14.232 5.605-15.587 12.977-7.478.468-13.55 6.122-14.657 13.402C30.052 165.87 25 172.047 25 179.403c0 8.732 7.115 15.838 15.859 15.838H184.14c8.744 0 15.859-7.106 15.859-15.838 0-7.356-5.054-13.535-11.867-15.31zm-92.692-67.03c-3.669-14.685-7.459-29.872-7.459-46.37 0-7.595 5.61-13.108 13.337-13.108 9.884 0 14.36 2.264 19.099 4.662 4.188 2.123 8.514 4.307 16.09 4.688.171 1.076.327 2.548.327 4.303 0 .062-.125 6.251-4.65 6.251-7.519 0-12.924 3.101-14.985 4.501h-11.385c-4.855 0-5.355-1.909-5.686-3.175l-5.644 1.47c.86 3.292 2.83 5.492 5.837 6.626.535 11.224 4.107 22.242 7.916 33.848 3.904 11.902 7.933 24.18 8.481 36.952h-14.198c-.406-13.917-3.655-26.926-7.08-40.649zM67.11 143.538h90.782c4.505 0 8.283 3.004 9.542 7.1H57.568c1.258-4.096 5.034-7.1 9.54-7.1zm-14.583 12.925h119.948c4.506 0 8.284 3.004 9.542 7.1H42.984c1.258-4.096 5.034-7.1 9.542-7.1zm-11.667 32.951c-5.53 0-10.026-4.491-10.026-10.012 0-5.424 4.348-9.83 9.746-9.985 18.517.423 51.946 12.593 70.65 19.997h-70.37zm143.282 0h-57.548c-4.3-1.85-30.5-12.983-55.15-20.024h112.698c5.53 0 10.026 4.49 10.026 10.012 0 5.523-4.496 10.012-10.026 10.012zM112.397 49.236c.785 0 1.546-.322 2.069-.845.556-.553.848-1.31.848-2.068 0-.759-.29-1.514-.848-2.068-1.08-1.078-3.033-1.078-4.113 0a2.963 2.963 0 0 0-.873 2.068c0 .758.321 1.515.873 2.068a2.952 2.952 0 0 0 2.044.845z" fill="#FFF" fill-rule="evenodd"/></svg>