<svg width="230" height="230" viewBox="0 0 230 230" xmlns="http://www.w3.org/2000/svg"><title>C0CC15E6-FF39-470B-A160-E7BD01261256</title><g fill="#FFF" fill-rule="evenodd"><path d="M70.468 24.841c1.799-1.484 4.25-2.142 6.547-1.712 10.73 2.128 21.462 4.254 32.186 6.401 2.579.612 5.24.18 7.856.26 13.535-.11 27.064-.276 40.596-.387 4.003-.086 7.675 3.277 7.959 7.248.02 1.34.083 2.683.077 4.022 2.652.776 5.44 1.018 8.1 1.777 3.71 1.193 6.072 5.338 5.248 9.128-4.125 20.555-8.233 41.118-12.364 61.675-.188.868-.007 1.752.092 2.618 2.287 20.032 4.579 40.066 6.862 60.098.148 1.744.608 3.515.216 5.263-.592 3.225-3.375 5.907-6.642 6.355-5.258.643-10.533 1.149-15.784 1.834-.864 3.868-4.881 6.648-8.823 6.078-5.45-1.002-10.869-2.208-16.322-3.172-2.95.132-5.873.634-8.81.91-15.898 1.8-31.795 3.618-47.696 5.403-3.784.382-7.557-2.329-8.413-6.012-.405-1.995-.468-4.044-.786-6.054-2.094-.312-4.06-1.396-5.353-3.078-1.286-1.575-1.78-3.651-1.687-5.65-2.467-.588-4.977-.984-7.45-1.533-2.843-.668-5.182-3.038-5.85-5.863-.325-1.316-.273-2.696.026-4.009 3.812-18.86 7.545-37.735 11.352-56.595.1-.47.108-.954.06-1.429a76481.363 76481.363 0 0 1-6.456-56.504c-.4-4.078 2.838-8.105 6.94-8.528.181-2.147-.229-4.32.126-6.457.493-2.925 2.788-5.449 5.654-6.245 1.45-.468 2.987-.262 4.484-.333 1.698-.1 3.4-.006 5.1-.061.344-2.08 1.269-4.121 2.955-5.448zm3.812 2.56c-1.382.487-2.364 1.778-2.557 3.212-9.14 45.688-18.308 91.37-27.455 137.058-.343 1.447.247 3.039 1.432 3.931 1.114.86 2.595.872 3.915 1.183 30.528 6.08 61.06 12.133 91.586 18.222 1.11.206 2.265.558 3.393.253 1.386-.385 2.542-1.572 2.794-2.997 9.068-45.197 18.109-90.394 27.168-135.588.176-1.008.509-2.005.428-3.037-.135-1.664-1.51-3.098-3.136-3.41-31.318-6.23-62.643-12.446-93.957-18.687-1.184-.21-2.438-.631-3.611-.14zm56.833 6.557c3.28.53 6.526 1.278 9.793 1.898 6.857 1.365 13.715 2.738 20.579 4.075-.061-1.554.297-3.295-.67-4.654-.825-1.285-2.425-1.898-3.918-1.697-8.41.059-16.815.145-25.22.195-.197.029-.386.09-.564.183zM56.33 38.432c.066 13.404.286 26.8.369 40.205-.008 1.688-.05 3.386.192 5.064 3.188-16.415 6.59-32.815 9.81-49.234-2.259.032-4.52-.066-6.778.061-1.969.095-3.69 1.927-3.593 3.904zm-6.61 11.27c-.49.977-.32 2.1-.222 3.143 1.04 8.764 1.969 17.544 3.045 26.303.034.403-.004.806.016 1.211.164-.367.036-.806.061-1.197-.162-2.038.04-4.085-.15-6.122-.059-8.484-.106-16.968-.217-25.451-1.101.298-2.06 1.07-2.533 2.113zM153.176 180.47c-.079.367-.14.742-.095 1.123 1.356.011 2.71-.102 4.066-.077 1.23-.003 2.551.137 3.665-.489 1.342-.672 2.153-2.196 2.056-3.68-.074-8.053-.194-16.108-.208-24.168-.14-2.622.057-5.256-.146-7.878.003-3.638-.04-7.28-.081-10.917-3.114 15.344-6.142 30.728-9.257 46.086zm13.663-25.013c.029 7.388.106 14.775.17 22.162.062 2.322-1.059 4.52-2.728 6.088 1.218-.11 2.526-.088 3.62-.717 1.252-.71 2.034-2.178 1.912-3.61-1.015-9.062-2.085-18.122-3.091-27.183-.126 1.086.085 2.174.117 3.26zM57.791 178.633c-.22 1.918 1.655 3.784 3.58 3.795 5.023.014 10.043-.119 15.066-.077-6.209-1.266-12.434-2.467-18.646-3.718zm16.63 7.871c-3.173-.037-6.345.088-9.515.032-.205.386-.005.827.011 1.236.193 1.3.227 2.622.515 3.907.462 1.764 2.299 3.023 4.123 2.8 14.27-1.579 28.524-3.284 42.799-4.81-.002-.056-.004-.162-.008-.214-5.084-.941-10.141-2.02-15.217-2.997-1.333-.36-2.711-.115-4.071-.158-3.49-.029-6.98.084-10.468.055-2.724.138-5.451-.053-8.17.15z"/><path d="M107.02 107.217c.173-.338.339-.659.508-.956.787-1.387.966-2.717.536-3.955-.692-1.985-2.695-3.15-5.491-4.289a12.083 12.083 0 0 0-2.04-.62c-2.71-.575-6.428-.42-8.744 1.74-1.095 1.023-2.303 2.905-1.845 6.063.632 4.348 2.935 7.255 6.319 7.974.196.042.397.076.602.104 6.579.864 8.816-3.471 10.155-6.061zm-2.81-2.831c-.191.338-.381.704-.579 1.088-1.261 2.443-2.35 4.552-6.273 4.035-2.598-.334-3.404-3.209-3.644-4.85-.271-1.859.444-2.526.68-2.745 1.011-.944 3.16-1.265 5.346-.8.5.106.969.247 1.393.42 2.665 1.086 3.23 1.728 3.33 2.015.053.151-.041.465-.253.837zM123.393 102.255a12.004 12.004 0 0 0-2.117-.263c-3.02-.096-5.327.153-6.765 1.684-.898.956-1.274 2.246-1.119 3.83.033.34.054.702.076 1.08.17 2.91.45 7.782 6.818 9.668.199.06.396.109.592.15 3.384.72 6.67-.999 9.016-4.714 1.704-2.698 1.365-4.909.78-6.289-1.238-2.915-4.573-4.57-7.28-5.146zm3.274 9.407c-.887 1.403-2.79 3.701-5.302 2.949-3.799-1.124-3.936-3.495-4.094-6.24a31.59 31.59 0 0 0-.086-1.228c-.042-.426-.002-.75.109-.867.208-.22.986-.578 3.865-.486.459.015.944.076 1.444.182 2.187.465 4.02 1.632 4.559 2.906.125.296.507 1.196-.495 2.784z"/><path d="M141.792 90.619c-3.893-9.492-14.484-13.923-22.683-15.967a58.606 58.606 0 0 0-1.99-.46c-11.832-2.514-21.791-.84-28.043 4.713-5.885 5.23-8.327 13.557-7.259 24.75.406 4.25-.243 5.226-.931 6.257-.584.877-1.31 1.967-1.52 4.093-.562 5.683 5.633 10.206 10.131 11.162.138.03.275.057.41.08-1.111 2.518-1.652 5.41-1.497 8.287.029.534.28 1.03.695 1.37 3.625 2.969 7.91 4.995 12.738 6.02.422.09.843.154 1.266.226.022.006.042.017.064.021.045.01.09.008.133.014 5.498.923 10.867.522 14.537.106.517-.06.986-.326 1.3-.739 1.789-2.35 2.225-5.536 2.294-9.403.142.038.288.073.433.104h.001c5.092 1.08 10.603-2 12.989-5.605 1.62-2.446 1.45-4.132 1.312-5.488-.124-1.236-.222-2.212 1.132-4.412 5.89-9.574 7.4-18.029 4.488-25.13zm-7.738 23.138c-2.026 3.293-1.823 5.309-1.675 6.78.111 1.094.171 1.696-.702 3.016-1.655 2.499-5.674 4.695-9.02 3.985a4.927 4.927 0 0 1-1.976-.892 1.905 1.905 0 0 0-3.06 1.53c.062 4.69-.102 7.587-1.104 9.437a68.07 68.07 0 0 1-3.458.274l1.016-4.783a1.903 1.903 0 0 0-1.469-2.254 1.903 1.903 0 0 0-2.258 1.462l-1.197 5.629a39.69 39.69 0 0 1-3.297-.224l1.293-6.086a1.903 1.903 0 0 0-1.469-2.254 1.903 1.903 0 0 0-2.259 1.462l-1.327 6.242c-1.297-.3-2.54-.669-3.721-1.124l1.259-5.923a1.903 1.903 0 0 0-1.47-2.255 1.903 1.903 0 0 0-2.258 1.462l-1.067 5.02a25.112 25.112 0 0 1-2.64-1.756c.018-3.216 1.13-6.446 2.984-8.59.67-.773.603-1.94-.15-2.636a1.908 1.908 0 0 0-2.646.056c-.223.223-.974.356-2.096.117-3.473-.738-7.427-4.055-7.13-7.069.118-1.185.43-1.654.904-2.364 1.18-1.772 2.043-3.539 1.549-8.718-.947-9.923 1.073-17.175 6.005-21.556 7.181-6.38 18.566-5.14 24.714-3.834.623.133 1.242.276 1.86.43 10.38 2.589 17.51 7.46 20.076 13.715 2.427 5.915 1.01 13.217-4.211 21.701z"/><path d="M110.622 114.07a1.837 1.837 0 0 0-1.403-1.353 1.837 1.837 0 0 0-1.831.666l-5.848 7.498a1.825 1.825 0 0 0-.274 1.752 1.84 1.84 0 0 0 1.345 1.165l8.14 1.73c.007 0 .013.002.019.004a1.836 1.836 0 0 0 2.088-2.47l-2.236-8.992zm-4.38 6.754l1.724-2.21.676 2.72-2.4-.51z"/></g></svg>