<svg width="230" height="230" viewBox="0 0 230 230" xmlns="http://www.w3.org/2000/svg"><title>017CFF71-FBDE-402D-A856-0E7C3C054A5C</title><path d="M78.815 78.892l18.192 16.606-4.44 24.22-18.193-16.608 4.44-24.218zm-35.518-7.874l5.63 4.986 1.468-7.375-5.63-4.986-1.468 7.375zm86.745 5.48s8.057-2.803 8.998-7.417a3.976 3.976 0 0 0-3.105-4.692 3.975 3.975 0 0 0-3.65 1.123 3.978 3.978 0 0 0-2.92-2.464 3.982 3.982 0 0 0-4.696 3.102c-.94 4.616 5.373 10.347 5.373 10.347zm70.07 84.28v32.69c.015 2.676-2.097 5.052-4.805 5.403l-29.763 4.06c-3.82.37-6.35-.875-6.35-.875l-17.775-9.56c-1.896-1.005-2.941-3.009-2.934-5.635v-8.56l-9.752 7.22c-3.171 2.16-5.988 2.285-5.988 2.285l-20.185.164c-2.146.031-4.028-1.221-5.285-3.527l-11.44-20.835-13.407 4.509c-1.267.453-2.532.686-3.727.686-3.824 0-6.817-2.411-8.205-6.613l-32.93-97.75c-1.367-4.056-.56-9.305 5.798-11.877l.126-.045C100.815 30 101.5 30 101.953 30a9.414 9.414 0 0 1 8.929 6.408l4.781 14.195c1.636-2.127 4.06-3.472 6.61-3.49 1.426-.008 49.652 9.87 70.308 14.044 5.494 1.057 8.255 5.171 7.37 10.995l-.022.107-15.436 75.64 12.107 6.583c2.66 1.639 3.506 4.9 3.513 6.296zm-95.485-28.417c2.43-1.789 4.183-3.059 4.51-3.237 1.343-.732 2.89-1 5.522-.943l17.976-.066c1.927.1 3.546 1.071 4.66 2.089-5.072-5.73-12.453-15.833-10.679-24.53 1.238-6.06 7.155-9.97 13.217-8.733a11.19 11.19 0 0 1 8.214 6.935 11.206 11.206 0 0 1 10.276-3.167c6.065 1.237 9.977 7.15 8.74 13.21-2.651 12.985-25.325 20.87-25.325 20.87s-1.38-1.253-3.312-3.34c.13.178.237.344.32.493l8.761 15.956c2.628-.377 7.077-1.014 11.666-1.66a3.944 3.944 0 0 1-.65-3.084c.941-4.614 8.996-7.414 8.996-7.414s4.863 4.415 5.413 8.613c1.408-.18 2.346-.285 2.583-.283.942.001 1.868.197 2.973.654l15.055-73.766a2.898 2.898 0 0 0-2.262-3.419l-67.682-13.798a2.905 2.905 0 0 0-3.42 2.261l-15.552 76.359zm-6.27 4.654l15.2-72.25-8.852-26.28a2.907 2.907 0 0 0-3.673-1.821L35.566 58.69a2.9 2.9 0 0 0-1.823 3.67l32.933 97.762a2.903 2.903 0 0 0 3.673 1.822l12.3-4.138-1.385-2.523c-1.527-2.939-.65-4.81 3.222-7.876 0 0 7.232-5.441 13.871-10.392zm-5.19 23.474c-1.01-1.233-2.415-1.756-3.133-1.166-.718.59-.483 2.066.53 3.3 1.01 1.233 2.415 1.753 3.133 1.165.717-.59.481-2.065-.53-3.299zm14.583-12.331c1.025-.758 22.592-16.505 22.592-16.505l-15.738.06c-2.398-.056-3.481.132-4.977 1.345l-22.785 16.994 17.102-.062c1.471-.045 2.783-1.075 3.806-1.832zm7.69 29.763c-1.011-1.234-2.415-1.756-3.133-1.166-.72.59-.483 2.065.528 3.299 1.01 1.233 2.415 1.754 3.133 1.166.72-.59.483-2.068-.528-3.3zm28.364-29.43l-8.148-14.838c-.308-.555-.955-.681-1.532-.373-.19.1-24.296 17.734-24.296 17.734-.748.553-1.027 1.71-.592 2.494l15.76 28.881c.304.547.9.711 1.471.396.031-.015 6.004-4.434 12.02-8.885v-20.3c.067-2.996 1.442-4.278 5.317-5.109zm2.61 35.678c-.293-1.567-1.271-2.7-2.187-2.529-.916.171-1.418 1.58-1.124 3.145.293 1.568 1.271 2.7 2.187 2.53.916-.172 1.418-1.578 1.123-3.146zm0-20.28c-.293-1.568-1.271-2.701-2.187-2.53-.916.172-1.418 1.58-1.124 3.147.293 1.566 1.271 2.699 2.187 2.528.916-.172 1.418-1.58 1.123-3.145zm5.497 12.97c-.292-1.568-1.27-2.7-2.184-2.528-.914.171-1.418 1.578-1.126 3.145.295 1.566 1.271 2.7 2.187 2.527.914-.17 1.418-1.577 1.123-3.145zm5.637 13.02c-.293-1.568-1.27-2.701-2.185-2.53-.916.171-1.42 1.58-1.125 3.145.293 1.568 1.27 2.7 2.186 2.53.916-.172 1.418-1.58 1.124-3.146zm0-20.283c-.293-1.568-1.27-2.7-2.185-2.53-.916.172-1.42 1.58-1.125 3.146.293 1.567 1.27 2.7 2.186 2.529.916-.171 1.418-1.578 1.124-3.145zm7.587-9.508c1.262-.172 27.75-3.607 27.75-3.607l-13.823-7.516c-2.077-1.2-3.117-1.555-5.013-1.21l-28.155 3.944 15.024 8.167c1.31.666 2.955.395 4.217.222zm31.445.702c-.002-.635-.508-1.055-1.16-1.064-.217-.002-29.838 3.867-29.838 3.867-.923.124-1.724 1.005-1.72 1.903l-.089 32.896c.004.626.445 1.055 1.1 1.055.067 0 29.969-4.072 29.969-4.072.936-.122 1.745-1.006 1.74-1.893V160.79h-.002zm-6.667 4.974c-1.473-.087-2.747 1.22-2.848 2.917-.1 1.697 1.015 3.141 2.488 3.228 1.475.086 2.749-1.22 2.848-2.917.1-1.697-1.015-3.143-2.488-3.228zm-9.066 11.23c-1.475-.087-2.749 1.219-2.85 2.916-.1 1.697 1.015 3.14 2.488 3.227 1.475.086 2.75-1.218 2.848-2.917.099-1.696-1.013-3.14-2.486-3.227zm-8.995 11.872c-1.473-.086-2.747 1.22-2.85 2.917-.098 1.696 1.015 3.14 2.49 3.228 1.475.087 2.75-1.22 2.848-2.916.099-1.698-1.016-3.142-2.488-3.229zm-13.567-36.484c0-.484-1.262-.875-2.816-.875-1.556 0-2.82.39-2.82.875 0 .483 1.262.876 2.82.876 1.554 0 2.816-.391 2.816-.876zm5.874-.337c1.556 0 2.818-.393 2.818-.875 0-.483-1.262-.876-2.818-.876s-2.818.393-2.818.876c0 .482 1.262.875 2.818.875zm8.824-1.014c1.554 0 2.818-.393 2.818-.875 0-.483-1.262-.876-2.818-.876-1.557 0-2.819.393-2.819.876 0 .482 1.262.875 2.819.875zm-9.612 4.247c0-.484-1.262-.877-2.818-.877-1.554 0-2.818.393-2.818.877 0 .483 1.262.876 2.818.876 1.558 0 2.818-.393 2.818-.876zm3.187-1.212c0 .482 1.262.875 2.819.875 1.556 0 2.818-.393 2.818-.875 0-.483-1.262-.876-2.818-.876-1.557 0-2.819.393-2.819.876zm8.694-1.146c0 .483 1.262.876 2.817.876 1.556 0 2.82-.393 2.82-.876 0-.482-1.262-.875-2.82-.875-1.557 0-2.817.39-2.817.875zm-6.824 5.123c0-.483-1.262-.876-2.816-.876-1.555 0-2.819.393-2.819.876 0 .482 1.262.875 2.819.875 1.556 0 2.816-.393 2.816-.875zm6.005-1.957c-1.554 0-2.816.393-2.816.876 0 .482 1.262.875 2.816.875 1.558 0 2.82-.393 2.82-.875 0-.483-1.262-.876-2.82-.876zm5.878-.27c0 .483 1.261.877 2.816.877 1.556 0 2.818-.394 2.818-.877 0-.482-1.262-.875-2.818-.875s-2.816.39-2.816.875zm-62.76-3.814c-1.334.631-1.824 2.39-1.093 3.925.73 1.536 2.403 2.268 3.736 1.635 1.333-.633 1.82-2.391 1.092-3.927-.73-1.535-2.403-2.267-3.736-1.633zm14.653-10.782c-1.334.632-1.823 2.39-1.094 3.926.73 1.534 2.405 2.266 3.736 1.633 1.333-.633 1.823-2.391 1.092-3.926-.729-1.534-2.4-2.266-3.734-1.633zm-4.712 28.938c-1.335.631-1.821 2.39-1.092 3.925.729 1.537 2.403 2.267 3.734 1.634 1.331-.634 1.823-2.391 1.092-3.926-.73-1.536-2.4-2.268-3.734-1.633zm-19.345-30.088c-1.364.749-2.282 1.699-2.05 2.124.232.422 1.527.161 2.893-.588 1.364-.749 2.281-1.697 2.048-2.123-.23-.424-1.525-.162-2.891.587z" fill="#FFF" fill-rule="evenodd"/></svg>