<svg width="230" height="230" viewBox="0 0 230 230" xmlns="http://www.w3.org/2000/svg" xmlns:xlink="http://www.w3.org/1999/xlink"><title>992C386F-A0AC-4F7C-8073-C46FB247926E</title><defs><path id="a" d="M215.925 144.954H0V.001h215.925z"/></defs><g fill="none" fill-rule="evenodd"><g transform="translate(8 31)"><mask id="b" fill="#fff"><use xlink:href="#a"/></mask><path d="M209.041 130.146c0 4.359-3.536 7.903-7.88 7.903H14.764c-4.344 0-7.88-3.544-7.88-7.903v-1.966h73.23a6.263 6.263 0 0 0 5.236 2.836h45.227a6.259 6.259 0 0 0 5.235-2.836h73.23v1.966zm-182.65-19.453h163.145V20.328H26.392v90.365zm-13.49-99.187c0-2.537 2.058-4.601 4.587-4.601h89.754c-.635.126-1.246.366-1.712.833a3.454 3.454 0 0 0 0 4.88c.161.16.345.299.528.437.184.115.39.23.597.299.069.03.144.044.215.069H22.95a3.447 3.447 0 0 0-3.442 3.452v97.27a3.447 3.447 0 0 0 3.442 3.452h170.028c1.9 0 3.442-1.546 3.442-3.452v-97.27a3.449 3.449 0 0 0-3.442-3.452h-83.884c.484-.17.932-.437 1.301-.806a3.454 3.454 0 0 0 1.01-2.44c0-.23-.023-.46-.069-.667a3.019 3.019 0 0 0-.206-.644 2.912 2.912 0 0 0-.299-.599 4.853 4.853 0 0 0-.436-.53c-.466-.466-1.076-.706-1.712-.832h89.754c2.53 0 4.588 2.064 4.588 4.6v109.77h-69.623a3.446 3.446 0 0 0-3.387 2.836H85.913a3.448 3.448 0 0 0-3.387-2.836H12.9V11.505zm199.582 109.77h-2.574V11.505C209.909 5.16 204.764 0 198.437 0H17.488C11.164 0 6.017 5.16 6.017 11.506v109.77H3.442A3.449 3.449 0 0 0 0 124.727v5.418c0 8.166 6.625 14.808 14.764 14.808h186.397c8.142 0 14.765-6.642 14.765-14.808v-5.418a3.447 3.447 0 0 0-3.443-3.453z" fill="#FFF" mask="url(#b)"/></g><path d="M108.124 76.21c-2.844 0-5.691 1.064-7.86 3.202a10.878 10.878 0 0 0 0 15.51l16.672 16.47c.555.543 1.555.543 2.11 0 5.562-5.484 11.125-10.955 16.687-16.439a10.873 10.873 0 0 0 0-15.51c-4.336-4.276-11.382-4.276-15.718 0l-2 1.979-2.032-2.01c-2.168-2.138-5.015-3.202-7.859-3.202zm5.734 5.305l3.094 3.046c.555.543 1.555.543 2.11 0l3.078-3.015a8.139 8.139 0 0 1 11.468 0c3.196 3.15 3.196 8.138 0 11.289-5.21 5.136-10.4 10.281-15.609 15.418l-15.61-15.434c-3.193-3.155-3.21-8.153-.015-11.304 3.4-3.043 8.343-3.173 11.484 0z" fill="#FFF"/></g></svg>