<?xml version="1.0" encoding="UTF-8" standalone="no"?>
<svg width="231px" height="231px" viewBox="0 0 231 231" version="1.1" xmlns="http://www.w3.org/2000/svg" xmlns:xlink="http://www.w3.org/1999/xlink">
    <!-- Generator: Sketch 39.1 (31720) - http://www.bohemiancoding.com/sketch -->
    <title>Group</title>
    <desc>Created with Sketch.</desc>
    <defs></defs>
    <g id="Page-1" stroke="none" stroke-width="1" fill="none" fill-rule="evenodd">
        <g id="9" transform="translate(-1048.000000, -458.000000)">
            <g id="Group-8" transform="translate(1042.000000, 459.000000)">
                <g id="Group-11">
                    <g id="noun_736457_cc" transform="translate(78.892227, 126.190798) rotate(-70.000000) translate(-78.892227, -126.190798) translate(17.892227, 64.690798)" stroke="#FFFFFF" stroke-width="2">
                        <g id="14--Battle-Axe--(medieval,-antique,-old)" transform="translate(0.000000, 0.000000)">
                            <g id="Group" transform="translate(-0.000000, -0.000000)">
                                <g transform="translate(0.000000, 0.000000)" id="Shape">
                                    <g transform="translate(0.000000, 0.000000)">
                                        <path d="M121.667274,47.169533 C108.699321,51.8871323 100.577471,47.6399861 95.4852518,42.5499449 C90.3864984,37.4490135 85.1853779,32.247893 80.0844465,27.1491396 C75.0118294,22.0743445 70.7450811,13.9350701 75.4648583,0.967117241 C75.4648583,0.967117241 56.8863165,-2.01677517 43.1233851,11.7483343 C29.3582756,25.5112658 32.342168,44.0898076 32.342168,44.0898076 C45.3101208,39.3700303 53.5408722,43.7260776 58.5241903,48.7093958 C63.6229437,53.8103272 68.8240642,59.0114476 73.9249956,64.110201 C78.9976127,69.1828181 83.262183,77.3242705 78.5445838,90.2922234 C78.5445838,90.2922234 97.1209475,93.2761158 110.886057,79.5110063 C124.651167,65.7458968 121.667274,47.169533 121.667274,47.169533 L121.667274,47.169533 L121.667274,47.169533 Z"></path>
                                        <path d="M109.346412,59.4901772 C108.290071,63.3060747 106.893957,68.1020828 103.186961,71.8112571 C99.488677,75.5095412 94.6883129,76.9143665 90.8658814,77.970708"></path>
                                        <path d="M44.6623766,31.76851 C45.718718,27.9526125 47.1148312,23.1566044 50.8218275,19.4474302 C54.5201116,15.749146 59.3204758,14.3443207 63.1429073,13.2879793"></path>
                                        <polygon points="49.2826182 82.5916029 40.0412638 73.3502486 49.2826182 64.1110722 58.5239725 73.3502486"></polygon>
                                        <polygon points="21.5609509 110.313488 12.3195965 101.072134 21.5609509 91.8329573 30.8023052 101.072134"></polygon>
                                        <polygon points="83.1648253 30.2284294 92.4061797 39.4697838 103.185219 28.6885667 93.9460424 28.6885667 93.9460424 19.4472123 83.1648253 30.2284294"></polygon>
                                        <polygon points="61.6034802 51.7897746 0.00025910983 113.392996 9.23943545 122.63435 70.8448345 61.031129 61.6034802 51.7897746"></polygon>
                                        <path d="M65.3403154,33.3641301 L89.2985756,57.3223903"></path>
                                    </g>
                                </g>
                            </g>
                        </g>
                    </g>
                    <g id="noun_345463_cc" transform="translate(169.010101, 114.463765) rotate(-24.000000) translate(-169.010101, -114.463765) translate(99.510101, 44.963765)" fill="#FFFFFF">
                        <g id="Group" transform="translate(0.000000, 0.000000)">
                            <path d="M65.5016126,114.572543 L59.0306126,108.101543 C59.3780126,106.288943 58.8254126,104.407943 57.4970126,103.079543 L53.1122126,98.6947427 C61.3292126,91.7071427 78.3860126,82.1257427 91.6268126,75.1345427 C106.860213,67.0921427 120.452013,60.6607427 120.588813,60.5959427 C121.143213,60.3349427 121.503213,59.7841427 121.523013,59.1721427 C121.613013,56.2489427 123.180813,48.3073427 130.127013,27.0619427 C134.312013,14.2657427 138.509613,2.61254272 138.552813,2.49554272 C138.767013,1.89974272 138.619413,1.23554272 138.171213,0.787342722 C137.724813,0.340942722 137.058813,0.191542722 136.463013,0.405742722 C136.346013,0.447142722 124.694613,4.64834272 111.900213,8.83514272 C90.6584126,15.7849427 82.7150126,17.3527427 79.7936126,17.4427427 C79.1816126,17.4625427 78.6308126,17.8225427 78.3698126,18.3769427 C78.3050126,18.5119427 71.8718126,32.1109427 63.8312126,47.3461427 C56.8418126,60.5905427 47.2622126,77.6473427 40.2800126,85.8607427 L35.7296126,81.3103427 C34.4012126,79.9819427 32.5184126,79.4293427 30.7076126,79.7767427 L24.2366126,73.3057427 C22.3574126,71.4265427 19.2974126,71.4283427 17.4164126,73.3111427 L17.3210126,73.4065427 C15.4382126,75.2893427 15.4364126,78.3493427 17.3138126,80.2285427 L23.7848126,86.6995427 C23.4374126,88.5121427 23.9900126,90.3931427 25.3184126,91.7215427 L31.0316126,97.4347427 C25.7612126,103.968743 16.8188126,114.901943 14.0180126,117.790943 L6.60201256,117.643343 C5.99181256,117.630743 5.42661256,117.960143 5.13501256,118.496543 C5.07381256,118.609943 3.60861256,121.327943 2.39721256,124.832543 C0.761012562,129.571943 0.388412562,133.393343 1.29201256,136.199543 C1.34601256,136.539743 1.51161256,136.869143 1.77801256,137.122943 C1.78701256,137.131943 1.79601256,137.142743 1.80501256,137.151743 C2.02281256,137.369543 2.30181256,137.526143 2.61321256,137.592743 C2.64201256,137.598143 2.66901256,137.603543 2.69781256,137.608943 C5.51121256,138.519743 9.33981256,138.150743 14.0828126,136.512743 C17.5892126,135.301343 20.3072126,133.832543 20.4206126,133.769543 C20.9552126,133.477943 21.2846126,132.912743 21.2738126,132.304343 L21.1298126,124.902743 C24.0188126,122.101943 34.9520126,113.159543 41.4860126,107.889143 L47.0876126,113.490743 C48.4160126,114.819143 50.2988126,115.371743 52.1096126,115.024343 L58.5806126,121.495343 C60.4490126,123.363743 63.5018126,123.352943 65.3828126,121.470143 L65.4782126,121.374743 C67.3592126,119.493743 67.3700126,116.442743 65.5016126,114.572543 L65.5016126,114.572543 Z M118.328013,58.0597427 C115.086213,59.6077427 103.202613,65.3353427 90.1148126,72.2455427 C70.7522126,82.4641427 57.5438126,90.5731427 50.7938126,96.3763427 L47.8292126,93.4117427 C47.8508126,93.3937427 47.8778126,93.3865427 47.8976126,93.3667427 L133.070013,8.19434272 C128.552013,21.1111427 119.242413,48.5701427 118.328013,58.0597427 L118.328013,58.0597427 Z M66.7220126,48.8599427 C73.6322126,35.7667427 79.3598126,23.8795427 80.9078126,20.6377427 C90.3974126,19.7215427 117.845613,10.4101427 130.760613,5.89034272 L45.5900126,91.0609427 C45.5702126,91.0807427 45.5630126,91.1077427 45.5450126,91.1293427 L42.5966126,88.1809427 C48.3962126,81.4345427 56.5034126,68.2261427 66.7220126,48.8599427 L66.7220126,48.8599427 Z M18.2822126,123.145943 C17.9978126,123.455543 17.8430126,123.862343 17.8520126,124.281743 L17.9888126,131.348543 C16.9664126,131.852543 15.1358126,132.696743 13.0154126,133.429343 C9.34341256,134.698343 6.33741256,135.115943 4.24941256,134.653343 C3.36741256,130.623143 5.98461256,124.092743 7.55241256,120.926543 L14.6390126,121.068743 C15.0602126,121.077743 15.4670126,120.922943 15.7766126,120.638543 C18.3164126,118.302143 29.6636126,104.323343 33.3518126,99.7567427 L39.1640126,105.568943 C34.5974126,109.258943 20.6186126,120.606143 18.2822126,123.145943 L18.2822126,123.145943 Z M63.0752126,119.162543 C62.4650126,119.772743 61.4840126,119.783543 60.8882126,119.187743 L53.7368126,112.036343 C53.2724126,111.571943 52.5740126,111.431543 51.9656126,111.679943 C51.0836126,112.039943 50.0504126,111.840143 49.3952126,111.184943 L42.7586126,104.548343 L34.3778126,96.1675427 L27.6278126,89.4175427 C26.9708126,88.7605427 26.7728126,87.7273427 27.1328126,86.8453427 C27.3812126,86.2369427 27.2408126,85.5385427 26.7764126,85.0741427 L19.6250126,77.9227427 C19.0292126,77.3269427 19.0310126,76.3153427 19.6322126,75.7159427 L19.7276126,75.6205427 C20.3270126,75.0211427 21.3368126,75.0193427 21.9326126,75.6151427 L29.0840126,82.7665427 C29.5484126,83.2309427 30.2468126,83.3713427 30.8552126,83.1229427 C31.7372126,82.7629427 32.7704126,82.9627427 33.4274126,83.6179427 L38.9246126,89.1151427 C38.9930126,89.2339427 39.0524126,89.3563427 39.1532126,89.4571427 L49.5212126,99.8251427 C49.6220126,99.9259427 49.7444126,99.9853427 49.8632126,100.053743 L55.1930126,105.383543 C55.8500126,106.040543 56.0480126,107.073743 55.6880126,107.953943 C55.4396126,108.562343 55.5800126,109.260743 56.0444126,109.725143 L63.1958126,116.876543 C63.7916126,117.472343 63.7808126,118.453343 63.1724126,119.063543 L63.0752126,119.162543 L63.0752126,119.162543 Z" id="Shape"></path>
                            <path d="M12.1586126,125.113343 L9.80061256,125.113343 C8.89881256,125.113343 8.16981256,125.844143 8.16981256,126.744143 L8.16981256,129.102143 C8.16981256,129.534143 8.34261256,129.949943 8.64681256,130.255943 C8.95281256,130.561943 9.36861256,130.732943 9.80061256,130.734743 L12.1604126,130.734743 C13.0622126,130.734743 13.7912126,130.003943 13.7912126,129.103943 L13.7912126,126.744143 C13.7894126,126.312143 13.6184126,125.896343 13.3124126,125.590343 C13.0064126,125.284343 12.5906126,125.113343 12.1586126,125.113343 Z" id="Shape"></path>
                        </g>
                    </g>
                </g>
            </g>
        </g>
    </g>
</svg>