<svg width="230" height="230" viewBox="0 0 230 230" xmlns="http://www.w3.org/2000/svg"><title>6A630A8C-D1C5-4944-ACC4-9CA1BDC50523</title><path d="M107.078 202.23l-1.629-1.68-.523-.429.058.01-1.003-.197c-3.72-.57-11.185-.948-18.391-4.034-27.204-12.492-33.926-35.184-27.527-55.096 3.905-12.15 8.93-19.797 12.275-28.988 2.09-5.734 3.533-11.002 5.396-17.566.333-1.215.642-2.4.924-3.57-.475.06-.986.106-1.512.144-.872.063-1.814.104-2.75.125-1.867.053-3.762.053-5.165.085a1.173 1.173 0 0 1-1.205-1.148 1.172 1.172 0 0 1 1.148-1.202c1.431-.034 3.311-.034 5.16-.085a61.79 61.79 0 0 0 2.644-.122c.831-.06 1.564-.14 2.154-.246a.853.853 0 0 1 .092-.012c.164-.757.32-1.508.472-2.26-1.282-.15-2.894-.366-4.495-.619a69.17 69.17 0 0 1-3.114-.558c-.961-.195-1.85-.407-2.54-.63a1.173 1.173 0 0 1-.759-1.48 1.18 1.18 0 0 1 1.485-.757c.566.18 1.357.37 2.287.565.925.188 1.964.37 3.015.534 1.636.26 3.287.479 4.562.625.393-2.162.748-4.358 1.104-6.67l.007-.038a22.313 22.313 0 0 1-1.68-2.437c-.433-.722-1.424-2.785-1.265-4.106.022-.19.073-.418.186-.642a1.15 1.15 0 0 1 .294-.375l.07-.058c.64-.505 1.723-.806 2.762-1.02.313-.065.653-.125 1.007-.185.003-.005.003-.012.005-.02 1.058-8.568 1.56-15.822 1.909-18.622.49-3.834 1.027-8.934 2.077-13.057.842-3.295 2.232-6.932 4.932-7.788l.894-.138.417-.089c2.617-.3 5.762 3.991 7.64 6.784 1.675 2.497 3.266 5.313 4.049 7.149l.08.206.26-.074c6.857-1.67 19.341-1.583 26.627.21l.588.163.212-.366c.877-1.54 2.579-4.55 4.572-7.418 2.29-3.284 5.968-7.967 9.347-6.783 2.52.878 3.86 5.145 4.818 9.15 1.07 4.5 1.976 10.276 3.022 15.726.877 3.93 2.246 9.581 2.711 14.712.012.154 0 .298-.04.433l.036.007c1.05.216 2.125.517 2.76 1.017l.069.06c.123.102.222.23.296.376.111.224.162.452.186.64.094.8-.239 1.885-.607 2.766 2.135 1.66 4.622 3.94 5.642 5.109 8.293 9.494 9.768 19.068 7.334 29.514-.94 4.032-3.119 7.72-5.594 10.649l-1.945 2.042 1.716 3.95c1.779 4.577 2.837 8.84 3.933 13.417.707 2.928 1.656 7.78 1.716 15.753l-.031 3.276 2.225 3.835c4.875 9.86 4.415 20.275 1.542 28.347-5.683 15.972-26.793 22.31-40.326 10.216l-2.054-2.114-.545.146c-1.15.325-2.846.82-4.022 1.24l-1.08.478-.537 1.842c-1.152 2.391-3.606 4.614-6.688 5.025-4.741.63-8.863-1.272-11.69-3.646zm16.724-3.98c.012-.125.044-.248.092-.366a1.143 1.143 0 0 1-.094-.546c.026-.38-.16-1.27-.627-2.605-.443-1.265-1.075-2.764-1.786-4.289-1.42-3.06-3.082-6.102-3.988-7.432-3.898-5.718-10.188-14.926-9.872-23.535a1.178 1.178 0 0 1 2.357.091c-.28 7.616 5.31 16.023 9.464 22.123 1.013 1.484 2.738 4.657 4.182 7.767.72 1.561 1.39 3.134 1.87 4.498.294.844.552 1.696.68 2.451 1.28-.483 2.95-.979 4.14-1.313-4.008-6.264-5.605-14.512-3.875-21.452 1.919-7.694 7.925-13.7 18.87-13.585 12.064.127 19.487 13.496 16.063 22.538-2.868 7.57-8.57 9.013-12.948 7.306-2.906-1.136-5.275-3.753-5.389-6.572l.003-.132-.304-.157c-1.475-1.157-2.347-3.124-2.449-4.895-.106-1.77.586-3.86 2.85-4.406 2.072-.5 3.952.151 4.598 1.972.573 1.61-.063 3.589-1.478 5.278-1.86 2.222-.253 5.436 3.027 6.718 3.07 1.2 7.448.488 9.884-5.946 2.873-7.585-3.557-19.241-13.882-19.352-9.817-.1-14.895 5.129-16.555 11.801-1.7 6.815.166 15.2 4.593 21.086.087.113.147.238.186.366 12.077 13.335 32.964 7.82 38.384-7.407 3.083-8.657 3.189-20.14-3.704-30.433-.135-.2-.203-.44-.196-.68.241-9.942-.863-15.592-1.622-18.763-1.46-6.085-2.803-11.416-5.808-17.648a1.169 1.169 0 0 1 .258-1.374c3.186-2.951 6.322-7.329 7.435-12.113 2.28-9.793.926-18.575-6.813-27.436-.854-.975-3.037-2.998-5.001-4.551-2.023 3.09-4.814 5.69-8.087 7.44 1.743 2.833 2.859 5.479 3.192 8.214.375 3.113-.278 6.213-1.948 9.694a1.18 1.18 0 0 1-1.574.553 1.175 1.175 0 0 1-.554-1.568c1.535-3.192 2.041-5.838 1.733-8.398-.287-2.35-1.28-4.733-3.008-7.502-4.842 1.905-10.506 1.994-16.203-.714-1.885-.895-5.295-2.916-7.776-5.314-1.234-1.19-2.337-2.569-2.839-4.039a5.252 5.252 0 0 1-.265-1.18h-3.651c-.041.396-.13.79-.26 1.18-.502 1.472-1.606 2.85-2.837 4.039-2.485 2.4-5.893 4.421-7.775 5.316-8.77 4.166-17.476 1.705-23.212-3.805-.846 5.34-1.76 10.225-3.276 15.712-1.856 6.538-3.328 11.9-5.454 17.735-3.82 10.5-8.132 16.111-12.246 28.908-6.032 18.777.15 40.238 26.237 52.221 5.88 2.519 11.12 3.01 15.143 3.478-8.978-8.507-17.585-20.929-20.537-32.713a1.18 1.18 0 0 1 2.29-.568c3.104 12.4 12.906 25.784 22.554 33.996.229.072.434.212.58.4.06.081.124.158.189.237.103.087.21.176.318.263.168.139.294.32.364.517 2.388 2.499 6.406 4.798 11.01 4.185 2.956-.394 5.157-3.218 5.347-5.294zm19.773-17.596l.224-.42c.16-.253.345-.506.552-.754 1.143-1.363 1.244-2.475 1.066-2.98-.109-.3-.478-.796-1.827-.471-.668.158-1.116.767-1.046 1.98.053.904.414 1.861.959 2.57l.072.075zm-28.517-37.146c-2.412-1.855-4.952-4.936-6.206-7.183a1.268 1.268 0 0 1-.137-.414c-.12-.834.18-2.436.513-3.908.371-1.677.902-3.712 1.46-5.735 1.04-3.774 2.204-7.613 2.592-8.958l.033-.113.051-.895-.075-.021c-.98-.361-2.056-1.14-2.902-1.997-1.188-1.193-2.342-2.925-2.388-4.861a1.17 1.17 0 0 1 .318-.832c1.608-1.718 5.127-2.245 8.1-2.233 3.04.01 6.448.578 8.104 1.87.265.204.429.512.453.839.214 2.807-1.348 5.07-3.297 6.374l-.892.508.077.18c.188.44.48 1.07.913 1.973.76 1.563 1.762 3.555 2.714 5.595.957 2.044 1.89 4.2 2.53 6.138.618 1.857 1.052 3.772.765 5.208-.395 1.972-1.656 4.609-3.14 6.69-1.338 1.876-3.41 4.093-5.58 3.785-1.248-.178-2.557-.894-4.006-2.01zm7.665-3.14c1.354-1.902 2.436-4.23 2.747-5.79.152-.76-.067-2.133-.687-4.007-.6-1.804-1.49-3.86-2.432-5.879-.947-2.025-1.918-3.956-2.697-5.566-.588-1.212-1.378-2.836-1.503-3.677-.087-.583.27-1.131.826-1.3 1.721-.514 3.36-2.073 3.62-4.036l.01-.315-.562-.245c-1.304-.49-3.374-.832-5.635-.842-2.672-.01-4.916.462-5.989 1.171l.073.306c.248.832.819 1.69 1.564 2.439.48.481.993.876 1.443 1.147.367.22.622.315.757.35l.087.016.142-.034c.69-.07 1.33.496 1.292 1.237l-.12 2.116a1.356 1.356 0 0 1-.04.258c-.332 1.162-1.546 5.135-2.657 9.174-.555 2.009-1.073 4.005-1.435 5.624-.37 1.66-.467 2.47-.482 2.826l-.002.053.34.568c1.217 1.893 3.242 4.24 5.117 5.684 1.35 1.037 2.26 1.453 2.899 1.542.54.079 1.812-.703 3.324-2.82zm-10.246-58.16c0-1.494 2.273-2.706 5.071-2.706 2.8 0 5.071 1.212 5.071 2.706 0 1.496-2.27 2.709-5.071 2.709-2.798 0-5.07-1.213-5.07-2.709zm42.317-8.919c.181-.303.456-.859.668-1.44.116-.323.193-.59.236-.79l.012-.074-.154-.06a10.623 10.623 0 0 0-1.258-.328c-1.044-.216-2.408-.406-4.008-.565-3.191-.32-7.228-.512-11.282-.57-4.05-.055-8.09.024-11.292.243-1.605.108-2.976.252-4.027.423-.865.142-1.383.289-1.634.388l-.135.06-.35.505c-.281.555-.277 1.135-.055 1.782.323.95 1.116 2.018 2.246 3.11 2.247 2.165 5.42 4.056 7.146 4.874 9.694 4.606 19.3.122 23.887-7.558zm-51.314 7.56c1.728-.818 4.902-2.71 7.149-4.876 1.13-1.092 1.92-2.16 2.246-3.11.221-.644.226-1.224-.06-1.78l-.348-.505-.125-.058c-.248-.098-.757-.245-1.639-.39-1.053-.173-2.424-.314-4.03-.423-3.203-.216-7.242-.296-11.296-.243-4.049.058-8.086.248-11.275.568-1.602.161-2.969.351-4.008.565-.573.118-.985.236-1.267.332l-.15.056.015.079c.04.202.12.467.236.787a9.2 9.2 0 0 0 .665 1.438 20.453 20.453 0 0 0 2 2.783c5.055 5.896 13.43 8.797 21.887 4.777zm16.705-11.88a2.14 2.14 0 0 1 .376-.325c.629-.42 1.67-.659 2.74-.837 1.157-.19 2.613-.34 4.254-.45 3.285-.223 7.392-.303 11.487-.248 4.095.058 8.201.253 11.482.58.665.065 1.299.14 1.896.217-.465-4.898-1.766-10.288-2.658-14.286-1.077-5.614-1.952-11.226-3.01-15.657-1.15-4.835-2.338-7.144-3.3-7.478-1.188-.416-3.646 1.623-6.63 5.905-2.519 3.62-4.729 7.808-5.177 8.436l-.048.065-.05.057c-.307.37-.808.518-1.266.376-6.978-2.192-21.699-2.278-28.054-.238a1.178 1.178 0 0 1-1.523-.936c-.119-.734-1.832-4.183-4.17-7.661-1.118-1.665-2.3-3.212-3.374-4.306-.902-.924-1.507-1.287-1.82-1.402l-.214-.046-.343.05c-1.434 0-2.798 1.954-3.882 6.206-1.005 3.943-1.526 8.845-2.02 12.77-.362 2.849-.805 9.502-1.841 18.015.27-.03.542-.06.824-.087 3.282-.327 7.387-.522 11.484-.58 4.095-.052 8.202.025 11.487.25 1.641.111 3.097.26 4.251.45 1.058.176 2.107.412 2.74.838.121.081.254.187.38.324.317.363.566.736.751 1.116h4.476a5.06 5.06 0 0 1 .752-1.118z" fill="#FFF" fill-rule="evenodd"/></svg>