<svg width="230" height="230" viewBox="0 0 230 230" xmlns="http://www.w3.org/2000/svg"><title>E55E36D3-EF28-4D1E-87EC-4FE5F8E33993</title><g fill="#FFF" fill-rule="evenodd"><path d="M60.805 94.993h97.084V19.685H60.805v75.308zm97.084 109.02h-14.652c-4.54-8.336-13.4-14.01-23.567-14.01h-19.329c-10.166 0-19.024 5.675-23.564 14.01H60.805v-93.696h97.084v93.697zm-75.963 0c4.048-5.814 10.791-9.632 18.415-9.632h19.329c7.624 0 14.366 3.818 18.415 9.633H81.926zM60.805 105.94h97.084V99.37H60.805v6.568zm81.351 108.145h4.832v-5.048h-4.832v5.048zm-70.808 0h4.832v-5.048h-4.832v5.048zM56.412 15.307v193.085h10.543v10.07h13.618v-10.07h57.19v10.07h13.618v-10.07h10.9V15.307H56.412z"/><path d="M73.544 69.38a1.098 1.098 0 0 1-2.196 0V41.357a1.098 1.098 0 0 1 2.196 0v28.021zm-1.098-33.495c-3.028 0-5.491 2.455-5.491 5.473v28.021c0 3.018 2.463 5.473 5.491 5.473 3.028 0 5.491-2.455 5.491-5.473V41.358c0-3.018-2.463-5.473-5.491-5.473zM71.348 121.482a1.098 1.098 0 0 1 2.196 0v28.021a1.098 1.098 0 0 1-2.196 0v-28.021zm1.098 33.494c3.028 0 5.491-2.455 5.491-5.473v-28.021c0-3.018-2.463-5.473-5.491-5.473-3.028 0-5.491 2.455-5.491 5.473v28.021c0 3.018 2.463 5.473 5.491 5.473zM126.699 35.885h16.254v-5.254h-16.254v5.254zm-4.393 4.378h25.04v-14.01h-25.04v14.01zM115.568 37.732l3.496 2.652-21.02 27.523-3.496-2.652zM101.367 83.085l-3.496-2.652 18.889-24.736 3.496 2.652zM116.596 126.073l3.372 2.806-22.246 26.547-3.371-2.806zM100.34 170.744l-3.372-2.806 19.993-23.859 3.37 2.807zM200.5 1.18c-2.713 0-5.429 1.013-7.497 3.052a10.375 10.375 0 0 0 0 14.794l15.902 15.709c.529.517 1.483.517 2.012 0 5.305-5.23 10.61-10.449 15.916-15.68a10.37 10.37 0 0 0 0-14.793c-4.136-4.078-10.857-4.078-14.992 0l-1.908 1.888-1.937-1.918c-2.068-2.039-4.784-3.053-7.497-3.053zm5.469 5.058l2.95 2.906c.53.518 1.484.518 2.012 0l2.936-2.876a7.763 7.763 0 0 1 10.939 0c3.048 3.005 3.048 7.762 0 10.767-4.969 4.9-9.92 9.806-14.888 14.706L195.03 17.02c-3.046-3.01-3.063-7.777-.015-10.783 3.244-2.902 7.958-3.026 10.954 0zM12.453 100.262a8.655 8.655 0 0 0-6.096 2.483 8.438 8.438 0 0 0 0 12.032l12.932 12.774c.43.421 1.206.421 1.636 0 4.314-4.253 8.63-8.497 12.944-12.75a8.434 8.434 0 0 0 0-12.032c-3.364-3.316-8.83-3.316-12.193 0l-1.551 1.536-1.576-1.56a8.655 8.655 0 0 0-6.096-2.483zm4.448 4.115l2.4 2.363c.43.42 1.206.42 1.636 0l2.388-2.34a6.313 6.313 0 0 1 8.895 0c2.48 2.445 2.48 6.313 0 8.757-4.04 3.984-8.066 7.975-12.107 11.96L8.005 113.144c-2.477-2.447-2.49-6.324-.012-8.768 2.638-2.36 6.472-2.461 8.908 0z"/></g></svg>