<?xml version="1.0" encoding="UTF-8"?>
<svg width="230px" height="230px" viewBox="0 0 230 230" version="1.1" xmlns="http://www.w3.org/2000/svg" xmlns:xlink="http://www.w3.org/1999/xlink">
    <!-- Generator: Sketch 50.2 (55047) - http://www.bohemiancoding.com/sketch -->
    <title>Artboard 2 Copy 8</title>
    <desc>Created with Sketch.</desc>
    <defs></defs>
    <g id="Artboard-2-Copy-8" stroke="none" stroke-width="1" fill="none" fill-rule="evenodd">
        <g id="noun_2289_cc" transform="translate(64.000000, 12.000000)" fill="#FFFFFF" fill-rule="nonzero">
            <polygon id="Shape" points="2.75708942 38.29952 2.26064921 125.19444 9.82007964 124.81334 12.0848317 164.26852 7.93073489 199.1711 11.707373 198.78588 9.0631109 206 29.8438518 206 31.7311452 204.10274 25.6836008 202.5804 20.0196694 198.40684 26.0672137 197.65082 29.0827803 163.88948 26.8180282 128.22676 47.2192591 159.71798 50.2491855 191.20096 54.3930252 190.06796 54.0217208 193.8563 70.6442621 191.96522 71.3991794 188.1707 64.5987692 188.1707 61.1995897 185.51742 64.5987692 183.62016 58.9348377 152.88496 42.6836008 121.7769 40.4229516 113.43184 35.1303246 66.76872 72.9069627 58.80476 94.0651623 47.41708 92.9307349 44.38476 96.3299143 44.38476 98.9741764 32.24724 102 31.4871 101.626644 28.45272 97.4663931 28.83382 98.602872 25.41834 95.5729456 25.04136 94.8180282 28.07574 94.0651623 30.34792 92.557379 28.07574 93.6877036 23.51902 90.6680343 23.51902 90.2864728 28.83382 91.0434415 31.86614 89.9110655 37.18094 87.2668034 37.93902 86.5036805 35.66066 71.3991794 44.76586 46.0848317 48.18134 66.4860625 40.59436 75.9348377 34.52354 74.0454929 31.4871 76.6836008 29.973 78.2036925 25.79944 81.5987692 19.72862 78.5688428 18.2104 77.0692651 20.86574 75.1758175 22.38602 73.6639315 16.69424 75.557379 12.51862 78.5688428 11.75848 78.5688428 8.34918 75.1758175 9.86534 71.7786895 12.14164 72.5356583 8.34918 72.5356583 5.31274 69.5077833 7.58698 69.1303246 11.38356 68.7508145 13.27876 68.7508145 20.86574 69.1303246 25.04136 66.1065524 26.17848 63.8438518 23.90218 56.6680343 28.83382 29.0827803 36.04382 24.9286835 33.7634 24.5512248 28.83382 30.5987692 24.28122 29.0827803 18.58944 24.5512248 19.72862 23.0413901 23.14204 21.1520454 23.14204 21.529504 18.58944 25.6836008 13.27876 23.4188488 10.24438 24.9286835 7.58698 18.8852419 4.5526 18.132376 1.51616 14.3557379 0 0.756968746 1.89726 0 11.38356 3.77663811 25.41834 12.0848317 29.5919 9.82007964 33.7634"></polygon>
        </g>
    </g>
</svg>