<?xml version="1.0" encoding="UTF-8"?>
<svg width="230px" height="230px" viewBox="0 0 230 230" version="1.1" xmlns="http://www.w3.org/2000/svg" xmlns:xlink="http://www.w3.org/1999/xlink">
    <!-- Generator: Sketch 50.2 (55047) - http://www.bohemiancoding.com/sketch -->
    <title>Artboard 2 Copy</title>
    <desc>Created with Sketch.</desc>
    <defs></defs>
    <g id="Artboard-2-Copy" stroke="none" stroke-width="1" fill="none" fill-rule="evenodd">
        <g id="Group" transform="translate(55.000000, 18.000000)">
            <path d="M37.4587541,88.629807 C37.539253,85.6687473 35.3470967,83.4009002 32.3722328,83.3664192 C29.5202734,83.3340932 27.4229908,85.3713483 27.3309921,88.2627276 C27.2382747,91.1878696 29.5195547,93.5713718 32.4117635,93.5720902 C35.1954426,93.5728085 37.3825677,91.4299552 37.4587541,88.629807 M86.6471474,93.4370394 C89.412858,93.4549983 91.6919818,91.2503665 91.766012,88.486136 C91.8436359,85.5947567 89.4545449,83.1013461 86.6320538,83.1286436 C84.0424345,83.1530677 81.4952207,85.59332 81.4003471,88.1398889 C81.298286,90.8782585 83.8160314,93.4197989 86.6471474,93.4370394 M109.592914,73.3791281 C110.068001,73.2965173 110.543088,73.2146248 111.018175,73.1327323 C111.657135,64.3429393 110.287936,55.9130421 104.490581,48.8027633 C100.633104,44.0731132 96.0597633,44.044379 91.37933,48.025503 C87.2868258,51.5066519 83.0865106,54.8958513 79.2951583,58.6858928 C76.3540752,61.6268386 73.8003928,65.0088545 71.4493951,68.4504938 C70.7939044,69.4102162 71.4709572,71.2793762 71.5363626,72.7318902 C72.8760935,72.6227002 74.4206652,72.891365 75.5030873,72.3059056 C76.7939439,71.6091012 77.6722439,70.1630523 78.7582597,69.0697159 C83.3811939,64.4147748 87.9236292,59.6743494 92.6788115,55.1573325 C95.3553983,52.6150738 98.3367309,52.5202509 101.338907,55.0251552 C105.636971,58.6119022 107.451789,63.4363751 108.555054,68.6746206 C108.885674,70.2456632 109.246482,71.810959 109.592914,73.3791281 M10.2824849,72.8080358 L11.1622224,73.2081596 C11.7745887,72.0200003 12.3776113,70.8275308 13.0014774,69.6458367 C14.8378575,66.1682796 16.4650844,62.5556718 18.578898,59.2555484 C21.3079529,54.9971393 25.1072113,53.8908725 29.3542446,56.4956281 C33.2735325,58.8992443 36.8262631,61.9630288 40.3020886,65.0081361 C42.8953017,67.2795749 45.0105528,70.0904985 47.5520166,72.4308994 C48.3246619,73.142071 49.8059845,73.0846026 50.9631556,73.3798465 C51.1730276,72.0681301 51.5288038,70.757132 51.5266475,69.4461339 C51.5252101,68.8427157 50.8898441,68.1811106 50.426257,67.6473728 C44.0646913,60.3402646 37.6017833,53.1545585 28.9991871,48.3121267 C24.7823409,45.9372447 20.4418715,46.1534696 17.2830102,49.7193844 C11.4216874,56.3361533 10.1682053,64.4154931 10.2824849,72.8080358 M22.8237751,97.3635684 C19.7870996,98.9252724 20.9083336,101.162949 21.5250123,102.858985 C23.4706408,108.210731 22.9847728,113.426707 21.3834206,118.70949 C20.7954914,120.649768 20.3563415,122.651823 20.0415334,124.656034 C18.8448317,132.272753 19.0396102,139.801115 23.193926,146.552216 C24.3891903,148.494648 26.7509691,150.605175 28.8446581,150.932027 C33.6163714,151.675525 38.6382061,151.988009 43.4041695,151.340771 C52.1160141,150.15764 60.7430475,149.495317 69.5210163,150.420558 C75.1070617,151.008173 80.7520438,151.166929 86.374745,151.24092 C94.6539083,151.35011 98.256232,148.199404 99.9114897,140.018776 C101.523623,132.052218 100.046613,124.372284 98.413636,116.582441 C97.5310236,112.378627 97.944299,107.900401 97.7998323,103.545014 C97.7538329,102.143503 97.7926449,100.738401 97.7926449,99.3354532 C97.3233078,99.2708012 96.8539707,99.2047126 96.3839149,99.1393422 C95.8707348,100.723315 94.8889362,102.318064 94.925592,103.889106 C95.0758086,110.303299 95.6306757,116.705998 95.8542037,123.120191 C96.049701,128.721205 96.1222937,134.334432 95.9519523,139.93401 C95.9203278,140.97347 94.4526612,142.867054 93.6900783,142.846222 C87.3658871,142.670943 81.0186963,142.400123 74.7491293,141.601313 C71.7994213,141.226331 69.4419549,141.521575 66.9795525,143.135719 C61.4093193,146.7864 55.320156,146.474634 50.4571628,142.117092 C48.0084164,139.921798 45.6142942,139.645232 42.5510254,140.312583 C38.138682,141.275179 33.6429647,142.095541 29.1465288,142.363487 C24.9354325,142.613475 23.0408345,140.376517 23.4253602,136.057048 C23.9636963,130.002751 24.4711266,123.907508 25.6275789,117.953781 C27.0183403,110.788907 26.6144086,104.083062 22.8237751,97.3635684 M35.4994695,186.232715 C34.8195417,185.295262 34.1396139,184.359245 33.4596861,183.42251 C29.9306738,178.896873 26.4677857,174.319514 22.859712,169.859247 C17.054451,162.68288 14.4439882,154.442628 14.1435549,145.308025 C14.0379002,142.104161 13.9487765,138.773148 13.0316645,135.748155 C10.7805716,128.318927 8.11476579,121.0111 5.50142801,113.69609 C1.52607838,102.570925 0.232346801,91.4752116 5.38499217,80.3277771 C5.78245526,79.4686244 6.05917007,78.5196773 6.20363676,77.5836606 C7.31337096,70.3878975 8.91184819,63.2158401 9.32943599,55.9769757 C9.97917674,44.713886 12.0656783,34.2122527 20.1630005,25.7033365 C23.5231089,22.1733395 27.1053078,19.4522104 32.4052949,21.0333099 C35.2083799,21.8701936 38.0265585,23.1740082 40.8684556,23.2594924 C46.6801853,23.4333343 51.3325878,26.3081915 56.2954859,28.6406905 C60.0243078,30.3927586 63.4656338,29.855429 67.0708324,27.4589964 C72.3054141,23.9785659 77.7412429,20.5936766 83.5177544,18.1929339 C88.8407411,15.9804001 94.536035,16.7677173 98.7909744,21.2085886 C106.017903,28.7513172 109.337043,38.0691013 110.612087,48.3178736 C111.642041,56.5911693 113.055084,64.8192087 114.34594,73.0594601 C115.804263,82.3729341 119.363463,91.4572527 117.445865,101.135651 C116.821999,104.282765 116.636564,107.664062 115.312645,110.500847 C108.941017,124.157496 105.314257,138.355066 105.629065,153.49009 C105.713876,157.585432 104.347552,161.098907 101.589028,164.284093 C97.046593,169.527367 92.9411515,175.146341 88.4454343,180.430561 C83.5148795,186.225532 78.0970191,192.055702 70.2915053,193.138981 C58.5688597,194.766056 46.7714653,194.841483 36.8485441,186.489886 C36.5430797,186.232715 35.9558693,186.311016 35.4994695,186.232715" id="Fill-4"></path>
            <path d="M36.5868248,186.545494 C46.535505,194.90444 58.3635244,194.828953 70.1166008,193.200587 C77.942377,192.115728 83.3743016,186.281648 88.3176557,180.482076 C92.8250434,175.192942 96.9411422,169.570226 101.495369,164.322789 C104.261774,161.135073 105.630924,157.618809 105.545893,153.520215 C105.230268,138.373174 108.866443,124.164331 115.254612,110.496839 C116.581967,107.657803 116.767883,104.27382 117.393369,101.124208 C119.315944,91.4374062 115.747506,82.3465937 114.285397,73.0257251 C112.99119,64.7782122 111.574479,56.5443588 110.541851,48.2644942 C109.263497,38.0075846 105.935741,28.6824024 98.6900519,21.1336851 C94.4240671,16.6892878 88.7139887,15.9013455 83.3779047,18.115636 C77.5856773,20.5175659 72.1357376,23.9058617 66.8875674,27.3890555 C63.27301,29.7873909 59.8234712,30.3251471 56.0842491,28.5716879 C51.1084678,26.2373369 46.4439881,23.3601972 40.6171716,23.1854983 C37.7678973,23.1006651 34.942403,21.7958154 32.1320414,20.9582673 C26.8182961,19.3759123 23.226798,22.099202 19.8579671,25.6320017 C11.739625,34.1469549 9.64770715,44.6576452 8.99627973,55.9296775 C8.57760791,63.1735705 6.97498118,70.3520413 5.86236622,77.5535177 C5.71752451,78.4902775 5.44009137,79.4399781 5.04231711,80.2998129 C-0.124424645,91.4560983 1.17266534,102.560621 5.1583346,113.693901 C7.77845636,121.015438 10.4511823,128.329066 12.7081189,135.764194 C13.6276116,138.791589 13.7169667,142.125246 13.8228957,145.331654 C14.1248294,154.47351 16.7413481,162.720304 22.5616791,169.902369 C26.1791189,174.366177 29.6509965,178.947171 33.1891697,183.476401 C32.658804,183.271507 31.9612578,183.21615 31.6218526,182.839433 C21.1910874,171.29349 12.0329115,159.191099 12.6036311,142.416411 C12.7016334,139.535677 11.7864644,136.532006 10.899399,133.723883 C8.19712819,125.170827 4.78650214,116.807567 2.62972975,108.128699 C1.30885978,102.812964 1.77365036,97.052933 1.46378998,91.4906067 C1.41839183,90.6703128 1.75491462,89.7716559 1.52792387,89.0268492 C-1.34657165,79.6038931 0.677609326,70.0781307 0.888026145,60.5983795 C1.00692606,55.2265684 0.796509241,49.7454807 1.82481335,44.5268008 C2.67224547,40.2240318 4.80884091,36.065048 6.94183333,32.1504989 C9.65923684,27.162594 12.5279675,22.1401807 16.1216274,17.7813356 C19.0249471,14.2600387 22.7000354,10.8933107 26.7469561,8.90188721 C32.7928366,5.92697364 39.3380968,3.68105049 45.9092988,2.13320396 C51.8766333,0.727704682 58.1617548,0.663720315 64.3085201,0.0253145028 C64.7797962,-0.0235724288 65.2798964,-0.00272359029 65.7425252,0.0972070493 C72.4744222,1.54584186 79.2027161,3.01244981 85.9302895,4.48049561 C86.2805038,4.55742063 86.6653072,4.61781037 86.9564318,4.80544992 C94.1041182,9.40441611 101.663991,13.2643269 107.067812,20.3558077 C114.187395,29.699682 118.689018,39.933586 119.598422,51.5413565 C120.16698,58.8032226 120.025741,66.1441705 119.817486,73.4383883 C119.545097,82.9756535 119.150926,92.5258594 118.279714,102.022865 C117.916528,105.988458 116.682131,110.0547 114.999517,113.686712 C108.944269,126.757495 106.51799,140.484658 106.12526,154.769707 C106.043111,157.772659 104.797904,161.156641 103.038906,163.61968 C98.5207096,169.946224 93.3827921,175.82991 88.5489701,181.935025 C79.570225,193.275355 67.646365,196.334383 53.8496513,194.508312 C53.0361398,194.400578 52.2290153,194.281229 51.4299671,194.145966 C45.3025427,193.108719 39.6500404,191.135711 35.2342482,186.288837 C35.6918327,186.366481 36.2805675,186.288837 36.5868248,186.545494 Z" id="Fill-6" fill="#FFFFFF"></path>
            <path d="M22.411499,97 C26.1926084,103.802594 26.5955252,110.590644 25.2082581,117.844854 C24.0547115,123.872211 23.5485561,130.042835 23.0115726,136.172006 C22.6287299,140.544894 24.5178508,142.809517 28.7183665,142.556438 C33.204222,142.285177 37.6886435,141.45467 42.0891838,140.48017 C45.1447562,139.803838 47.532863,140.084552 49.9754568,142.306995 C54.8262316,146.718427 60.9000956,147.034049 66.4570503,143.33822 C68.9132659,141.704113 71.2640922,141.405218 74.2063889,141.784837 C80.4602034,142.5928 86.7914467,142.867696 93.0997481,143.044415 C93.860415,143.066232 95.324394,141.14923 95.3559391,140.096915 C95.5258524,134.428086 95.4534421,128.744713 95.2584361,123.07443 C95.0354696,116.581639 94.4819967,110.099758 94.3321575,103.60624 C94.2963108,102.015041 95.2749256,100.401297 95.7875333,98.797735 C96.2556912,98.8639138 96.723849,98.9300925 97.1927238,98.9962713 C97.1927238,100.416569 97.1532924,101.838322 97.1991762,103.257165 C97.3439968,107.667143 96.9310429,112.200024 97.8114377,116.456554 C99.4403116,124.342735 100.913611,132.117648 99.305528,140.182729 C97.6544292,148.464528 94.0611565,151.653471 85.8027948,151.543658 C80.1949378,151.468025 74.563422,151.308033 68.9921286,150.712424 C60.2354979,149.776467 51.6301403,150.446982 42.9401844,151.644744 C38.1861957,152.299987 33.1769785,151.982911 28.4172543,151.230218 C26.3288258,150.900052 23.972981,148.763423 22.7807199,146.796969 C18.636842,139.962376 18.4425529,132.34091 19.6362478,124.629994 C19.9502649,122.600997 20.3883115,120.574182 20.9754804,118.609909 C22.5728091,113.261066 23.0567395,107.98131 21.1159994,102.562652 C20.5008701,100.846367 19.3824532,98.5810178 22.411499,97" id="Fill-8" fill="#FFFFFF"></path>
            <path d="M10.0071514,72.4203286 C9.89006354,63.9124123 11.1663213,55.7220045 17.1348752,49.0142739 C20.3511325,45.399338 24.7697358,45.1801406 29.0639332,47.5869423 C37.8228373,52.4966719 44.4024436,59.781161 50.8795979,67.1879928 C51.3523402,67.7297963 51.9992506,68.4004965 51.9999824,69.0122101 C52.0029096,70.3412307 51.6399372,71.6702512 51.4269837,73 C50.248787,72.7006973 48.740549,72.7589557 47.9538649,72.0380076 C45.3654913,69.6654328 43.2125381,66.8158671 40.571475,64.5132024 C37.0324943,61.4262336 33.4159428,58.3203307 29.425442,55.8836717 C25.1012408,53.2431081 21.2329505,54.364583 18.4543091,58.681533 C16.301356,62.0270237 14.6452945,65.6892946 12.7755476,69.2146582 C12.140346,70.4125972 11.5263665,71.6214598 10.9021418,72.8259529 L10.0071514,72.4203286 Z" id="Fill-10" fill="#FFFFFF"></path>
            <path d="M109.431117,73 C109.08465,71.3895298 108.723807,69.7827483 108.393154,68.1685894 C107.289778,62.7897813 105.47478,57.8344317 101.176288,54.1516707 C98.1738138,51.5784595 95.1921847,51.676578 92.5153316,54.2874135 C87.7596763,58.9255381 83.2160704,63.7938353 78.5933952,68.5750801 C77.5072713,69.697909 76.6281652,71.182227 75.3371802,71.8985653 C74.2546504,72.4990796 72.7106438,72.2231676 71.3707796,72.335303 C71.304649,70.8443454 70.6282476,68.9247653 71.2838035,67.9384169 C73.6350351,64.4039402 76.1889715,60.931433 79.1303472,57.9111559 C82.9220766,54.0181411 87.1220907,50.5375189 91.2157209,46.9624669 C95.8966198,42.873953 100.470416,42.9042 104.327557,47.7606935 C110.126207,55.0635082 111.495543,63.7200621 110.855801,72.7476955 C110.380667,72.8310592 109.906251,72.9158985 109.431117,73" id="Fill-12" fill="#FFFFFF"></path>
            <path d="M86.5684655,92.9999026 C83.5654992,92.9831795 80.8949251,90.5172236 81.0031814,87.8610429 C81.1038139,85.3916031 83.805645,83.0245921 86.5524558,83.0002042 C89.5462738,82.9744228 92.080384,85.3929967 91.9980483,88.1975946 C91.9195244,90.87886 89.5020564,93.0166256 86.5684655,92.9999026" id="Fill-14" fill="#FFFFFF"></path>
            <path d="M37.9978813,88.1574967 C37.9226921,90.9011126 35.7641969,93.0007037 33.0169566,92.9999998 C30.1626073,92.999296 27.9111896,90.6639144 28.0026934,87.7978282 C28.0934878,84.9648231 30.1633166,82.9686983 32.9779434,83.0003716 C35.9138658,83.0341565 38.0773264,85.2562179 37.9978813,88.1574967" id="Fill-16" fill="#FFFFFF"></path>
        </g>
    </g>
</svg>