<svg width="230" height="230" viewBox="0 0 230 230" xmlns="http://www.w3.org/2000/svg"><title>8414C31F-958F-4764-B887-43CD297F49C0</title><g fill="#FFF" fill-rule="evenodd"><path d="M104.047 146.858c-.59 0-1.693-.113-2.728-.842-1.12-.788-3.771-2.672-4.61-3.301-.045.002-.362.043-.592.072-.762.095-1.92.245-3.172-.46-2.37-1.328-.651-5.853-.068-7.21.244-.572.913-.84 1.483-.59.574.246.839.912.592 1.487-.762 1.78-1.196 3.94-.875 4.362.575.317 1.12.245 1.752.168.665-.088 1.497-.193 2.232.362.827.62 3.45 2.481 4.553 3.258.719.505 1.562.428 1.569.425a1.14 1.14 0 0 1 1.261.983 1.131 1.131 0 0 1-.98 1.263 3.185 3.185 0 0 1-.417.023z"/><path d="M103.493 146.858c-.221 0-.373-.016-.42-.023a1.131 1.131 0 0 1-.981-1.263 1.139 1.139 0 0 1 1.261-.983s.85.08 1.571-.427c1.104-.777 3.724-2.638 4.554-3.258.737-.55 1.566-.446 2.231-.36.63.08 1.178.15 1.78-.188.295-.403-.139-2.563-.9-4.34a1.132 1.132 0 0 1 .59-1.487 1.127 1.127 0 0 1 1.485.59c.583 1.355 2.303 5.88-.068 7.211-1.253.704-2.405.557-3.17.46-.232-.03-.547-.073-.646-.046-.785.6-3.439 2.486-4.556 3.272-1.037.726-2.138.842-2.73.842zM98.954 131.464a1.13 1.13 0 0 1-1-1.657c.5-1.27.33-11.888-.128-21.407a1.132 1.132 0 0 1 1.076-1.184c.576-.057 1.15.453 1.182 1.077.296 6.144.877 20.647-.129 22.566a1.128 1.128 0 0 1-1.001.605zM107.174 131.475c-.414 0-.814-.229-1.017-.616-1.006-1.92-.425-16.422-.13-22.566.032-.622.604-1.104 1.183-1.077.624.03 1.106.561 1.076 1.184-.459 9.517-.628 20.137-.115 21.431a1.12 1.12 0 0 1-.482 1.515c-.162.088-.339.129-.515.129z"/><path d="M130.63 152.59l-2.257-.13c.002-.074.423-7.456.974-13.521.482-5.311 5.04-6.93 9.062-8.358 3.411-1.211 6.359-2.26 6.752-5.157.645-4.73 1.312-21.538.792-23.189-.428-.849-2.044-2.27-3.47-3.527a153.98 153.98 0 0 1-1.226-1.086c-1.347-1.22-2.166-3.525-2.084-5.87.237-6.819.838-23.666 1.272-32.828.51-10.69-10.193-14.837-10.648-15.01-.011 0-9.357-2.616-15.588-.278-6.777 2.547-9.979 2.574-10.112 2.574h-.977c-.133 0-3.337-.03-10.114-2.574-6.24-2.35-15.58.281-15.672.308-.37.143-11.07 4.292-10.562 14.98.434 9.162 1.035 26.009 1.273 32.825.081 2.346-.737 4.65-2.085 5.87-.4.363-.814.727-1.225 1.09-1.424 1.254-3.04 2.675-3.495 3.585-.495 1.594.172 18.4.818 23.125.394 2.9 3.342 3.948 6.753 5.16 4.022 1.428 8.58 3.047 9.061 8.358.552 6.064.97 13.447.975 13.521l-2.257.13c-.004-.075-.422-7.42-.97-13.443-.35-3.867-3.854-5.112-7.564-6.43-3.59-1.274-7.657-2.718-8.24-6.986-.484-3.55-1.567-22.504-.6-24.444.654-1.309 2.293-2.749 4.027-4.277.405-.355.81-.71 1.2-1.066.694-.627 1.409-2.182 1.343-4.111-.237-6.814-.839-23.65-1.273-32.796-.587-12.358 11.991-17.192 12.118-17.24.495-.144 10.239-2.879 17.17-.278 6.32 2.373 9.297 2.432 9.326 2.432h.97c.023 0 3.002-.057 9.319-2.432 6.931-2.6 16.675.134 17.087.25.21.074 12.789 4.907 12.2 17.266-.433 9.148-1.034 25.984-1.272 32.798-.065 1.929.649 3.484 1.343 4.111.391.353.796.71 1.2 1.066 1.737 1.526 3.374 2.968 4.027 4.277.968 1.933-.115 20.892-.6 24.442-.58 4.267-4.65 5.712-8.24 6.986-3.71 1.318-7.214 2.563-7.564 6.43-.545 6.028-.963 13.372-.968 13.447z"/><path d="M84.27 122.406c-1.119 0-2.351-.124-3.703-.419l.482-2.214c7.006 1.522 10.062-2.2 10.573-2.911.15-.539.676-2.855-.617-5.073-1.33-2.282-4.144-3.837-8.367-4.623-4.93-.143-8.177.81-9.19 2.771-1.27 2.454.99 6.366 1.971 7.668l-1.806 1.362c-.179-.235-4.35-5.86-2.17-10.07 1.46-2.827 5.294-4.158 11.439-3.972 5.089.933 8.43 2.866 10.099 5.761 1.98 3.44.791 6.905.74 7.052l-.105.22c-.133.208-2.846 4.448-9.346 4.448z"/><path d="M86.382 116.206c-10.35 0-14.44-5.513-14.634-5.785l1.833-1.324c.2.272 5.028 6.608 18.143 4.367l.382 2.23c-2.091.358-3.997.512-5.724.512z"/><path d="M83.954 114.945c-2.46 0-4.463-2.076-4.463-4.628 0-2.551 2-4.625 4.463-4.625 2.462 0 4.462 2.076 4.462 4.625 0 2.55-2 4.628-4.462 4.628zm0-6.989c-1.214 0-2.202 1.06-2.202 2.361 0 1.304.988 2.364 2.202 2.364s2.202-1.06 2.202-2.364c0-1.301-.988-2.36-2.202-2.36zM122.952 122.406c-6.5 0-9.213-4.24-9.344-4.45l-.104-.22c-.052-.145-1.241-3.613.74-7.052 1.67-2.895 5.01-4.829 9.929-5.743 6.291-.213 10.146 1.127 11.609 3.955 2.177 4.21-1.994 9.834-2.173 10.071l-1.806-1.36c.976-1.306 3.237-5.23 1.969-7.672-1.015-1.956-4.26-2.914-9.36-2.749-4.067.77-6.888 2.334-8.21 4.63-1.29 2.234-.758 4.507-.605 5.046.493.688 3.54 4.448 10.576 2.911l.482 2.214c-1.35.295-2.582.42-3.703.42z"/><path d="M120.842 116.206c-1.73 0-3.63-.154-5.722-.512l.383-2.23c13.112 2.241 17.943-4.095 18.142-4.367l1.834 1.324c-.197.274-4.29 5.785-14.637 5.785z"/><path d="M123.268 114.945c-2.46 0-4.463-2.076-4.463-4.628 0-2.551 2.001-4.625 4.463-4.625s4.463 2.076 4.463 4.625c0 2.55-2.003 4.628-4.463 4.628zm0-6.989c-1.214 0-2.202 1.06-2.202 2.361 0 1.304.988 2.364 2.202 2.364s2.202-1.06 2.202-2.364c0-1.301-.988-2.36-2.202-2.36zM75.847 172.075h-.01a1.132 1.132 0 0 1-1.12-1.141c.119-15.58 2.547-24.228 7.421-26.435 4.092-1.854 9.35-2.902 13.576-3.745l.733-.144a1.12 1.12 0 0 1 1.329.887 1.132 1.132 0 0 1-.886 1.331l-.735.147c-4.11.82-9.228 1.839-13.085 3.586-2.704 1.225-5.955 6.45-6.093 24.39a1.13 1.13 0 0 1-1.13 1.124zM131.3 171.936c-.619 0-1.125-.5-1.13-1.12-.165-17.87-3.364-23.053-6.02-24.255-3.979-1.804-9.097-2.97-13.583-3.871a1.132 1.132 0 0 1-.886-1.333 1.124 1.124 0 0 1 1.332-.888c4.607.928 9.884 2.13 14.068 4.028 4.802 2.173 7.205 10.773 7.348 26.294a1.133 1.133 0 0 1-1.12 1.143c-.002.002-.004.002-.008.002zM151.898 94.78c-4.95 0-9.809-.794-10.736-.955l.384-2.23c4.24.734 15.74 1.977 19.004-.817 1.988-5.863 2.03-8.03.229-12.213-1.988-1.684-4.65-1.413-4.676-1.408l-1.32.147 1.533-29.95c-1.225-2.4-12.886-23.01-51.233-23.01h-2.937c-38.347 0-50.008 20.61-51.233 23.01l1.532 29.95-1.32-.147c-.022-.005-2.71-.256-4.675 1.41-1.804 4.181-1.761 6.348.228 12.211 3.265 2.796 14.768 1.553 19.004.817l.385 2.23c-1.707.295-16.81 2.753-21.166-1.612l-.185-.185-.086-.247c-2.3-6.714-2.326-9.397-.15-14.35l.268-.376c1.774-1.641 3.95-2.065 5.315-2.155l-1.434-27.99.109-.247c.443-1.003 11.33-24.58 53.41-24.58h2.937c42.082 0 52.967 23.577 53.41 24.58l.109.247-1.433 27.99c1.365.09 3.54.516 5.315 2.155l.266.376c2.177 4.953 2.15 7.636-.149 14.35l-.086.247-.185.185c-2 2-6.251 2.568-10.434 2.568z"/><path d="M61.075 128.478c-.075-.014-7.388-1.479-8.639-1.657-1.998-.286-2.378-3.299-2.448-4.58-.579-11.163-1.497-28.13-1.648-29.133l2.206-.487c.186.738 1.144 18.799 1.698 29.5.059 1.06.373 2.28.642 2.508 1.178.138 8.327 1.567 8.63 1.628l-.441 2.22zM55.224 140.433c-.477-3.808 7.467-9.768 9.066-10.928l1.324 1.836c-4.078 2.955-8.353 7.165-8.147 8.811l-2.243.281zM57.055 150.172c-.746-2.834 8.033-12.428 13.33-17.893l1.623 1.575c-6.125 6.32-12.744 14.163-12.755 15.815l-2.198.503zM61.907 159.318c-1.187-5.055 11.231-18.878 13.734-21.6l1.661 1.536c-5.884 6.397-13.867 16.69-13.196 19.543l-2.2.52zM67.943 165.774c-1.167-2.628 4.836-14.042 8.516-20.612l1.972 1.107c-4.323 7.718-8.765 17.033-8.406 18.63l-2.082.875z"/><path d="M59.404 105.846c-.888 0-3.147-.133-9.41-.702l.207-2.254c4.132.378 8.742.722 9.318.704l.516 2.191c-.086.027-.186.061-.63.061zM50.625 109.974l9.438.972-.232 2.252-9.438-.972zM51.198 116.931l9.023.971-.242 2.251-9.023-.971zM100.957 45.418l-2.05-.953c4.103-8.859-5.047-20.667-5.14-20.787l1.778-1.399c.413.528 10.092 13.033 5.412 23.139zM91.154 41.526l-2.161-.67c.122-.398 2.824-9.786-8.914-14.461l.834-2.103c13.725 5.467 10.28 17.117 10.241 17.234zM80.506 42.314l-2.24-.3c.004-.044.526-4.298-2.02-7.336-1.647-1.967-4.25-3.042-7.738-3.2l.102-2.262c4.157.188 7.316 1.541 9.384 4.025 3.183 3.819 2.541 8.86 2.512 9.073zM71.257 46.71c-.493-.162-.658-.47-1.148-1.383-2.18-4.047-5.68-9.27-10.836-7.907l-.577-2.19c7.493-1.976 11.94 6.305 13.402 9.022.168.31.285.539.362.65l-.78.54-.423 1.269zM66.27 52.017c-.255-.337-6.332-8.243-15.181-5.843l-.592-2.185c10.331-2.814 17.29 6.28 17.58 6.667l-1.807 1.36zM65.646 62.197c-.436 0-.732-.194-1.447-.667-1.992-1.318-7.275-4.82-12.784-2.219l-.966-2.047c6.654-3.148 12.717.868 14.996 2.378.264.174.456.31.576.369l-.377.756v1.43h.002zM65.926 73.838c-.31-.077-.517-.238-1.015-.627-1.815-1.415-7.338-5.723-13.718-2.255l-1.078-1.99c5.1-2.766 10.544-1.94 16.184 2.459.188.145.324.256.412.312l-.427.677-.358 1.424zM66.134 85.719c-.126-.062-12.859-6.02-20.932-3.154l-.755-2.132c8.939-3.177 22.099 2.976 22.655 3.241l-.968 2.045z"/><path d="M53.587 134.24c-1.87 0-3.832-.605-4.402-.798l-.535-.179-.179-.536c-.07-.208-1.707-5.148-1.994-7.738-.104-.948-.859-1.29-2.437-1.793-.633-.201-1.23-.391-1.74-.7-.548-.33-.79-.973-.984-1.838-.968-4.317-1.384-21.624.902-25.056 1.17-1.754 3.013-2.47 5.197-2.008a8.71 8.71 0 0 1 2.754 1.14l-1.25 1.885c-.333-.217-3.285-2.072-4.82.24-1.888 2.834-1.427 21.318-.452 23.797.282.134.671.256 1.078.385 1.48.47 3.719 1.184 4 3.7.207 1.88 1.281 5.373 1.713 6.72 1.922.548 4.16.743 4.62.186l1.74 1.449c-.724.867-1.947 1.143-3.21 1.143z"/><path d="M45.182 112.853c-1.147-10.149 3.178-16.12 3.364-16.37l1.817 1.347c-.04.054-3.974 5.555-2.934 14.77l-2.247.253zM145.528 128.478l-.443-2.219c.302-.061 7.449-1.492 8.76-1.68.136-.176.454-1.419.513-2.463.554-10.696 1.513-28.755 1.696-29.493l2.195.546-1.097-.274 1.11.21c-.151 1.001-1.067 17.97-1.645 29.131-.073 1.286-.453 4.297-2.449 4.582-1.252.181-8.566 1.644-8.64 1.66z"/><path d="M103.123 191.695c-.104-.002-7.644-.2-11.61-.514-2.224-.176-4.813-.46-6.02-.66-3.73-.623-3.285-5.511-2.957-9.081.1-1.084.192-2.108.163-2.83-.048-.346-1.056-1.13-1.436-1.421a10.74 10.74 0 0 1-.705-.578c-1.078-1.007-2.6-2.232-4.363-3.65-5.541-4.457-13.133-10.56-17.37-18.17-6.422-11.537-3.045-28.774-2.898-29.503l2.216.448c-.034.17-3.358 17.153 2.654 27.952 4.022 7.224 11.414 13.168 16.81 17.508 1.798 1.447 3.351 2.694 4.49 3.76.138.127.33.277.545.442.952.738 2.254 1.745 2.31 3.117.037.874-.062 1.972-.169 3.133-.244 2.685-.58 6.364 1.079 6.64.979.163 3.352.442 5.826.636 3.909.308 11.387.505 11.462.507h.325c.045 0 7.526-.197 11.433-.507 2.47-.194 4.847-.473 5.826-.636 1.66-.278 1.322-3.955 1.078-6.64-.106-1.161-.205-2.26-.17-3.133.057-1.372 1.36-2.381 2.311-3.117.215-.165.41-.315.545-.442 1.14-1.066 2.693-2.313 4.49-3.76 5.396-4.34 12.789-10.284 16.81-17.508 6.021-10.812 2.689-27.78 2.655-27.952l2.216-.448c.147.729 3.526 17.966-2.899 29.502-4.236 7.611-11.826 13.714-17.37 18.172-1.762 1.417-3.284 2.642-4.362 3.65-.177.164-.425.361-.706.577-.38.294-1.388 1.075-1.435 1.426-.03.72.063 1.743.162 2.827.328 3.57.774 8.458-2.957 9.08-1.207.202-3.793.485-6.02.661-3.965.313-11.505.512-11.58.514h-.38v-.002z"/><path d="M151.378 140.433l-2.242-.28c.206-1.649-4.07-5.857-8.148-8.812l1.325-1.836c1.598 1.16 9.542 7.123 9.065 10.928zM149.547 150.172l-2.186-.575c-.023-1.58-6.642-9.424-12.766-15.743l1.623-1.575c5.297 5.465 14.073 15.059 13.33 17.893zM144.696 159.318l-2.202-.519c.671-2.857-7.312-13.148-13.196-19.543l1.661-1.535c2.505 2.719 14.924 16.542 13.737 21.597zM138.66 165.774l-2.067-.919c.391-1.483-3.552-9.895-7.436-16.825l1.972-1.107c2.668 4.759 8.74 16.123 7.53 18.851zM147.198 105.846c-.445 0-.545-.034-.63-.06l.359-1.074.156-1.118c.567.018 5.184-.329 9.319-.704l.206 2.254c-6.26.569-8.521.702-9.41.702zM155.982 109.974l.231 2.249-9.45.974-.232-2.25zM155.414 116.923l.243 2.248-9.035.976-.242-2.248zM105.646 45.418c-4.68-10.106 4.998-22.611 5.412-23.139l1.777 1.4c-.093.117-9.233 11.943-5.139 20.786l-2.05.953zM115.448 41.526c-.036-.117-3.484-11.767 10.241-17.234l.835 2.103c-11.738 4.675-9.037 14.063-8.914 14.461l-2.162.67zM126.096 42.314c-.029-.213-.669-5.254 2.512-9.073 2.071-2.484 5.227-3.837 9.385-4.025l.101 2.261c-3.488.156-6.092 1.234-7.738 3.201-2.544 3.038-2.024 7.292-2.02 7.335l-2.24.301zM135.345 46.71l-.714-2.146.357 1.073-.846-.735c.077-.111.195-.34.362-.65 1.463-2.719 5.919-10.998 13.402-9.021l-.577 2.189c-5.163-1.368-8.658 3.862-10.835 7.907-.49.91-.656 1.22-1.149 1.384zM140.332 52.017l-1.806-1.36c.29-.39 7.25-9.48 17.58-6.668l-.593 2.185c-8.844-2.404-14.925 5.506-15.18 5.843zM140.956 62.197v-1.132l-.377-1.057c.12-.059.314-.192.576-.369 2.281-1.51 8.345-5.519 14.998-2.377l-.965 2.047c-5.505-2.601-10.795.903-12.787 2.218-.712.473-1.008.67-1.445.67zM140.676 73.838l-.55-2.196.276 1.098-.51-1.003c.088-.054.226-.165.411-.312 5.643-4.399 11.089-5.227 16.185-2.459l-1.079 1.99c-6.386-3.468-11.905.84-13.718 2.255-.497.39-.705.55-1.015.627zM140.468 85.719l-.968-2.047c.557-.265 13.707-6.418 22.655-3.242l-.755 2.133c-8.061-2.869-20.803 3.094-20.932 3.156z"/><path d="M153.015 134.24c-1.264 0-2.487-.277-3.208-1.146l1.739-1.45c.465.56 2.704.368 4.62-.183.43-1.347 1.506-4.84 1.714-6.723.28-2.515 2.519-3.228 4-3.7.404-.128.793-.25 1.078-.384.974-2.477 1.436-20.96-.452-23.797-1.537-2.31-4.488-.458-4.82-.24l-1.25-1.886a8.71 8.71 0 0 1 2.753-1.139c2.18-.462 4.03.254 5.198 2.008 2.285 3.434 1.87 20.741.902 25.056-.195.867-.436 1.51-.984 1.838-.513.308-1.11.498-1.743.7-1.575.503-2.33.842-2.437 1.793-.287 2.592-1.926 7.53-1.994 7.738l-.178.536-.536.179c-.57.195-2.532.8-4.402.8z"/><path d="M161.42 112.853l-2.246-.254c1.04-9.214-2.894-14.715-2.935-14.769l1.818-1.347c.187.25 4.512 6.221 3.364 16.37zM92.574 101.42s-3.886 1.112-8.883-2.78c-4.84-3.769-10.363-3.336-10.363-3.336"/><path d="M91.138 103.836c-1.982 0-5.188-.568-8.837-3.41-4.049-3.15-8.758-2.868-8.81-2.863-1.248.068-2.322-.849-2.415-2.094a2.257 2.257 0 0 1 2.073-2.422c.263-.02 6.462-.451 11.928 3.805 3.918 3.052 6.796 2.404 6.92 2.38 1.19-.286 2.426.427 2.738 1.618.312 1.19-.36 2.406-1.542 2.746-.185.054-.92.24-2.055.24zM112.195 101.42s3.886 1.112 8.883-2.78c4.84-3.769 10.363-3.336 10.363-3.336"/><path d="M113.628 103.836c-1.135 0-1.87-.188-2.057-.24a2.266 2.266 0 0 1-1.553-2.798 2.266 2.266 0 0 1 2.756-1.564c.187.043 3.043.636 6.913-2.38 5.469-4.258 11.668-3.823 11.928-3.805a2.262 2.262 0 0 1 2.078 2.433c-.095 1.246-1.144 2.185-2.43 2.08-.037-.008-4.753-.284-8.802 2.867-3.644 2.839-6.85 3.407-8.833 3.407zM104.047 92.17c-2.828 0-5.362-.953-5.507-1.01-.08-.024-13.144-4.294-16.63-4.753-3.237-.417-7.262 1.752-7.302 1.775l-1.083-1.988c.192-.104 4.732-2.554 8.677-2.03 3.694.484 16.548 4.685 17.093 4.864.095.036 4.246 1.596 7.25.49 3.016-1.108 13.224-4.757 17.899-5.199 2.842-.282 7.09 1.483 8.197 2.258l-1.293 1.856c-.807-.566-4.517-2.058-6.692-1.861-4.404.419-14.38 3.987-17.333 5.071-1.056.387-2.188.527-3.276.527zM104.56 80.772c-2.49 0-4.711-.874-4.84-.926-.059-.018-11.353-3.876-14.356-4.288-2.697-.378-6.172 1.565-6.208 1.583l-1.116-1.97c.167-.095 4.155-2.327 7.63-1.858 3.217.439 14.362 4.247 14.835 4.407.088.034 3.615 1.415 6.149.444 2.613-1.003 11.462-4.308 15.543-4.713 2.495-.25 6.246 1.36 7.223 2.074l-1.332 1.831c-.687-.5-3.861-1.843-5.67-1.65-3.02.298-9.708 2.558-14.96 4.575-.933.362-1.934.491-2.898.491zM91.477 190.631c-.32 0-.64-.136-.863-.4-3.552-4.205-1.221-17.928-1.18-18.048a1.13 1.13 0 0 1 2.159.663c-.378 1.667-1.68 13.05.746 15.922a1.135 1.135 0 0 1-.862 1.863z"/><path d="M112.554 174.454c-.68 0-1.225-.118-1.67-.396a1.134 1.134 0 0 1-.36-1.56 1.136 1.136 0 0 1 1.551-.365c.53.243 2.785-.249 4.284-.575a66.54 66.54 0 0 1 2.706-.547c.692-.12 1.963-1.719 2.682-11.057.052-.675.095-1.222.138-1.58l.043-.342c.045-.349.097-.786.063-.915-.443-.344-3.925-.48-5.412-.538-1.617-.06-3.518.373-5.546.833-2.222.505-4.743 1.077-7.302 1.08h-.007c-2.473 0-5.008-.57-7.244-1.078-2.043-.462-3.99-.892-5.511-.835-1.486.058-4.967.194-5.46.613.011.052.066.49.11.84l.044.34c.043.36.086.907.138 1.582.719 9.338 1.99 10.937 2.68 11.057.9.156 1.82.355 2.707.547 1.499.329 3.764.815 4.286.573a1.124 1.124 0 0 1 1.554.362c.33.53.162 1.232-.367 1.562-1.135.711-2.914.374-5.952-.285a65.892 65.892 0 0 0-2.614-.53c-3.31-.577-4.062-6.793-4.548-13.112a38.96 38.96 0 0 0-.13-1.492l-.04-.321c-.113-.899-.23-1.831.42-2.597.842-.993 2.508-1.222 7.084-1.4 1.84-.078 3.906.395 6.097.889 2.222.502 4.521 1.02 6.744 1.02h.006c2.309 0 4.594-.52 6.803-1.023 2.175-.495 4.23-.97 6.134-.887 4.575.179 6.241.408 7.082 1.401.65.768.532 1.698.421 2.597l-.04.324c-.041.337-.08.855-.13 1.492-.486 6.318-1.238 12.537-4.548 13.112-.868.151-1.757.344-2.614.53-1.847.398-3.228.68-4.282.68z"/><path d="M110.51 190.91a1.13 1.13 0 0 1-1.046-.707c-3.41-8.423.782-19.448 3.217-24.655-2.672.437-7.063 1.105-9 1.105h-.002c-1.92 0-6.192-.661-8.817-1.098 2.469 5.288 6.613 16.256 3.217 24.646a1.133 1.133 0 0 1-1.472.623 1.132 1.132 0 0 1-.622-1.474c3.642-8.999-2.746-22.122-4.064-24.665-.2-.382-.19-.896.065-1.245.256-.348.66-.566 1.083-.495.08.013 8 1.44 10.612 1.442h.002c2.627 0 10.716-1.427 10.798-1.442a1.129 1.129 0 0 1 1.207 1.618c-1.38 2.66-7.77 15.786-4.128 24.785.235.58-.045 1.24-.622 1.473-.14.061-.285.089-.427.089zM117.099 190.228l-1.728-1.462c2.433-2.88 1.12-14.314.744-15.935l2.164-.652c.04.122 2.371 13.845-1.18 18.05zM102.926 211.793c-.37-.378-.484-.91-.604-1.467-.35-1.627-.938-4.35-7.451-4.543-9.321-.276-34.153-.555-34.404-.557a1.132 1.132 0 0 1-1.12-1.143c.007-.625.45-1.148 1.142-1.12.251.001 25.106.28 34.445.556 5.634.165 7.863 2.191 8.833 4.043.972-1.852 3.199-3.878 8.833-4.043 9.341-.276 52.025-.552 52.276-.557a1.133 1.133 0 0 1 .023 2.264c-.25.002-42.915.28-52.236.557-6.513.19-7.101 2.916-7.451 4.543-.102.471-.2.924-.448 1.28-.192.346-.565.57-.977.57-.332 0-.646-.145-.861-.383zM79.27 203.723v-30.209"/><path d="M78.139 173.514H80.4v30.209h-2.261zM128.314 203.723v-30.209M127.184 173.514h2.261v30.209h-2.261zM183.46 165.563a14.638 14.638 0 0 0-5.282-16.392 14.601 14.601 0 0 0-17.205 0 14.638 14.638 0 0 0-5.282 16.392 17.93 17.93 0 0 0-2.538 18.354 17.897 17.897 0 0 0 15.05 10.786v7.829h-5.907a1.397 1.397 0 0 0 0 2.796h14.558a1.397 1.397 0 0 0 0-2.796h-5.858v-7.829c9.293-.742 16.46-8.499 16.478-17.83a17.857 17.857 0 0 0-4.014-11.31zm-28.998 11.31a14.961 14.961 0 0 1 3.394-9.577l.963-1.188-.475-1.454a11.84 11.84 0 0 1 4.273-13.258 11.81 11.81 0 0 1 13.917 0 11.84 11.84 0 0 1 4.272 13.258l-.474 1.454.963 1.188a14.961 14.961 0 0 1 3.387 9.576c-.026 7.786-5.944 14.285-13.686 15.028v-15.496l6.284-6.291a1.4 1.4 0 0 0 0-1.978 1.396 1.396 0 0 0-1.976 0l-4.308 4.313V165.5a1.397 1.397 0 1 0-2.793 0v12.98l-4.19-4.145a1.395 1.395 0 0 0-1.873.101 1.4 1.4 0 0 0-.081 1.877l6.144 6.151v9.436c-7.764-.717-13.713-7.222-13.74-15.028z"/></g></svg>