<?xml version="1.0" encoding="UTF-8"?>
<svg width="230px" height="230px" viewBox="0 0 230 230" version="1.1" xmlns="http://www.w3.org/2000/svg" xmlns:xlink="http://www.w3.org/1999/xlink">
    <!-- Generator: Sketch 50.2 (55047) - http://www.bohemiancoding.com/sketch -->
    <title>Artboard 2 Copy 9</title>
    <desc>Created with Sketch.</desc>
    <defs></defs>
    <g id="Artboard-2-Copy-9" stroke="none" stroke-width="1" fill="none" fill-rule="evenodd">
        <g id="Group" transform="translate(9.000000, 54.000000)" fill-rule="nonzero">
            <g id="Shape">
                <path d="M54.7695868,14.4603399 C55.0499174,14.5648725 55.3302479,14.4603399 55.4704132,14.1815864 L56.4515702,12.0212465 C56.5566942,11.7424929 56.4515702,11.4637394 56.1712397,11.3243626 L55.3302479,10.9410765 C55.0499174,10.8365439 54.7695868,10.9410765 54.6294215,11.21983 L53.6482645,13.38017 C53.5431405,13.6589235 53.6482645,13.9376771 53.928595,14.0770538 L54.7695868,14.4603399 Z" fill="#FFFFFF"></path>
                <path d="M57.0122314,8.95495751 C57.292562,9.05949008 57.5728926,8.95495751 57.7130579,8.67620397 L58.378843,7.14305949 C58.4839669,6.86430595 58.378843,6.58555241 58.0985124,6.44617564 L57.2575207,6.06288952 C56.9771901,5.95835694 56.6968595,6.06288952 56.5566942,6.34164306 L55.8909091,7.87478754 C55.7857851,8.15354108 55.8909091,8.43229462 56.1712397,8.57167139 L57.0122314,8.95495751 Z" fill="#FFFFFF"></path>
                <path d="M58.0284298,13.38017 C58.2386777,13.4847025 58.4839669,13.38017 58.5540496,13.1711048 L59.0796694,11.9864023 C59.1847934,11.7773371 59.0796694,11.5334278 58.8694215,11.4637394 L58.2036364,11.1849858 C57.9933884,11.0804533 57.7480992,11.1849858 57.6780165,11.394051 L57.1523967,12.5787535 C57.0472727,12.7878187 57.1523967,13.031728 57.3626446,13.1014164 L58.0284298,13.38017 Z" fill="#FFFFFF"></path>
                <path d="M58.9745455,10.6971671 C59.254876,10.8016997 59.5352066,10.6971671 59.6753719,10.4184136 L60.341157,8.88526912 C60.446281,8.60651558 60.341157,8.32776204 60.0608264,8.18838527 L59.2198347,7.80509915 C58.9395041,7.70056657 58.6591736,7.80509915 58.5190083,8.08385269 L57.8532231,9.61699717 C57.7480992,9.89575071 57.8532231,10.1745042 58.1335537,10.313881 L58.9745455,10.6971671 Z" fill="#FFFFFF"></path>
                <path d="M52.3166942,8.64135977 C52.5269421,8.74589235 52.7722314,8.64135977 52.842314,8.43229462 L53.3679339,7.24759207 C53.4730579,7.03852691 53.3679339,6.79461756 53.157686,6.72492918 L52.4919008,6.44617564 C52.2816529,6.34164306 52.0363636,6.44617564 51.966281,6.65524079 L51.4406612,7.83994334 C51.3355372,8.0490085 51.4406612,8.29291785 51.6509091,8.36260623 L52.3166942,8.64135977 Z" fill="#FFFFFF"></path>
                <path d="M51.3705785,10.8713881 C51.4757025,10.9062323 51.6158678,10.8713881 51.6859504,10.7668555 L51.966281,10.1048159 C52.0013223,10.0002833 51.966281,9.86090652 51.861157,9.79121813 L51.4757025,9.61699717 C51.3705785,9.58215297 51.2304132,9.61699717 51.1603306,9.72152975 L50.88,10.3835694 C50.8449587,10.488102 50.88,10.6274788 50.985124,10.6971671 L51.3705785,10.8713881 Z" fill="#FFFFFF"></path>
                <path d="M56.3814876,16.0631728 C56.7319008,16.2373938 56.9071074,16.6903683 56.7319008,17.0388102 L54.2089256,22.2654391 C54.033719,22.613881 53.5781818,22.788102 53.2277686,22.613881 C52.8773554,22.4396601 52.7021488,21.9866856 52.8773554,21.6382436 L55.4003306,16.4116147 C55.5755372,16.0631728 55.9960331,15.8889518 56.3814876,16.0631728 Z" fill="#FFFFFF"></path>
                <path d="M63.2145455,16.3767705 C63.1094215,16.8645892 62.618843,17.1433428 62.1633058,17.0388102 L58.9044628,16.272238 C58.4138843,16.1677054 58.1335537,15.6798867 58.2386777,15.2269122 C58.3438017,14.7390935 58.8343802,14.4603399 59.2899174,14.5648725 L62.5487603,15.3314448 C63.0393388,15.4359773 63.3196694,15.8889518 63.2145455,16.3767705 Z" fill="#FFFFFF"></path>
                <path d="M49.3381818,7.83994334 C49.5133884,8.15354108 49.3732231,8.57167139 49.0578512,8.74589235 L45.9391736,10.3487252 C45.6238017,10.5229462 45.2033058,10.3835694 45.0280992,10.0699717 C44.8528926,9.75637394 44.9930579,9.33824363 45.3084298,9.16402266 L48.4271074,7.5611898 C48.7424793,7.38696884 49.1629752,7.52634561 49.3381818,7.83994334 Z" fill="#FFFFFF"></path>
                <path d="M56.9771901,15.2966006 C57.187438,15.4011331 57.4327273,15.2966006 57.5028099,15.0875354 L57.7480992,14.5648725 C57.8532231,14.3558074 57.7480992,14.111898 57.5378512,14.0422096 L56.8720661,13.7634561 C56.6618182,13.6589235 56.4165289,13.7634561 56.3464463,13.9725212 L56.101157,14.4951841 C55.9960331,14.7042493 56.101157,14.9481586 56.311405,15.017847 L56.9771901,15.2966006 Z" fill="#FFFFFF"></path>
                <path d="M54.4892562,32.0566572 C54.6644628,32.3005666 54.9798347,32.3354108 55.225124,32.1611898 L56.5566942,31.1507082 C56.8019835,30.9764873 56.8370248,30.6628895 56.6618182,30.4189802 L56.101157,29.6872521 C55.9259504,29.4433428 55.6105785,29.4084986 55.3652893,29.5827195 L54.033719,30.5932011 C53.7884298,30.7674221 53.7533884,31.0810198 53.928595,31.3249292 L54.4892562,32.0566572 Z" fill="#FFFFFF"></path>
                <path d="M59.1497521,31.4991501 C59.2899174,31.5688385 59.465124,31.4991501 59.5001653,31.3597734 L59.8505785,30.5583569 C59.9206612,30.4189802 59.8505785,30.2447592 59.7104132,30.209915 L59.254876,30.0008499 C59.1147107,29.9311615 58.9395041,30.0008499 58.9044628,30.1402266 L58.5540496,30.9416431 C58.4839669,31.0810198 58.5540496,31.2552408 58.6942149,31.290085 L59.1497521,31.4991501 Z" fill="#FFFFFF"></path>
                <path d="M60.341157,27.4572238 C60.446281,27.5617564 60.6214876,27.5617564 60.7266116,27.4572238 L61.3573554,26.8648725 C61.4624793,26.7603399 61.4624793,26.586119 61.3573554,26.4815864 L61.0069421,26.1331445 C60.9018182,26.0286119 60.7266116,26.0286119 60.6214876,26.1331445 L59.9907438,26.7254958 C59.8856198,26.8300283 59.8856198,27.0042493 59.9907438,27.1087819 L60.341157,27.4572238 Z" fill="#FFFFFF"></path>
                <path d="M53.7884298,69.270255 C53.6833058,69.5838527 53.3328926,69.7580737 53.0175207,69.6186969 L48.4621488,67.9461756 C48.1467769,67.8416431 47.9715702,67.4932011 48.1117355,67.1796034 C48.2168595,66.8660057 48.5672727,66.6917847 48.8826446,66.8311615 L53.4380165,68.5036827 C53.7533884,68.6082153 53.928595,68.9566572 53.7884298,69.270255 Z" fill="#FFFFFF"></path>
                <path d="M57.397686,70.2458924 C57.397686,70.4549575 57.2224793,70.6291785 57.0122314,70.6291785 L54.9447934,70.6291785 C54.7345455,70.6291785 54.5593388,70.4549575 54.5593388,70.2458924 C54.5593388,70.0368272 54.7345455,69.8626062 54.9447934,69.8626062 L57.0122314,69.8626062 C57.2224793,69.8974504 57.397686,70.0368272 57.397686,70.2458924 Z" fill="#FFFFFF"></path>
                <path d="M61.1120661,24.425779 C61.0069421,24.0773371 60.7966942,23.7985836 60.4813223,23.6592068 C60.341157,23.5895184 60.0608264,22.8229462 60.0608264,22.8229462 L62.408595,22.9274788 L62.3385124,24.8439093 C62.3034711,24.8090652 61.1120661,24.5303116 61.1120661,24.425779 Z" fill="#FFFFFF"></path>
                <path d="M51.966281,11.6379603 L50.6347107,11.6379603 C50.6347107,11.6379603 50.6347107,11.6379603 50.6347107,11.6379603 C50.3193388,11.6379603 50.0390083,11.4637394 49.8638017,11.1849858 L49.5834711,10.5926346 C49.4433058,10.2790368 49.0578512,10.1745042 48.7775207,10.313881 L47.0604959,11.1849858 C46.745124,11.3243626 46.64,11.7076487 46.7801653,11.9864023 L47.2357025,12.9271955 C47.3758678,13.1711048 47.6561983,13.3104816 47.9014876,13.2407932 C47.9365289,13.2407932 47.9365289,13.2407932 47.9715702,13.2407932 L51.9312397,13.2407932 C52.3867769,13.2407932 52.7371901,12.8923513 52.7371901,12.4393768 C52.7722314,12.0212465 52.4218182,11.6379603 51.966281,11.6379603 Z" fill="#FFFFFF"></path>
                <path d="M53.9986777,15.7495751 C53.7884298,15.6450425 53.5080992,15.6450425 53.3328926,15.7844193 C53.2978512,15.7844193 53.2628099,15.8192635 53.2628099,15.8192635 L50.6347107,17.0736544 C50.4945455,17.1433428 50.3894215,17.2478754 50.3543802,17.3524079 C50.2492562,17.5266289 50.2142149,17.7705382 50.3193388,17.9796034 L51.3705785,20.2096317 C51.4406612,20.3838527 51.5457851,20.5580737 51.7560331,20.627762 C52.1064463,20.801983 52.5619835,20.6626062 52.7371901,20.2793201 L54.3140496,16.7252125 C54.5242975,16.3767705 54.3490909,15.923796 53.9986777,15.7495751 Z" fill="#FFFFFF"></path>
                <path d="M49.6185124,21.3594901 L49.1629752,20.8716714 C49.1629752,20.8716714 49.1629752,20.8716714 49.1629752,20.8368272 C48.917686,20.5580737 48.8476033,20.2096317 48.917686,19.8611898 L49.7236364,16.6903683 C49.8287603,16.272238 49.5834711,15.8541076 49.1629752,15.7147309 C48.7424793,15.6101983 48.3219835,15.8541076 48.1818182,16.272238 L48.0416529,16.7949008 C47.9365289,17.003966 47.6912397,17.178187 47.4109091,17.178187 C47.1305785,17.178187 46.9203306,17.0388102 46.7801653,16.829745 C46.7801653,16.829745 46.7801653,16.829745 46.7801653,16.829745 L46.4998347,16.3070822 C46.2195041,15.7495751 45.553719,15.5405099 44.9930579,15.7844193 C44.9229752,15.7844193 44.8178512,15.8192635 44.7477686,15.8541076 L42.1547107,17.2130312 C42.0495868,17.2478754 41.9795041,17.3175637 41.9094215,17.3872521 C41.8042975,17.4917847 41.6991736,17.5963173 41.6641322,17.7356941 C41.4889256,18.1886686 41.6991736,18.7461756 42.1897521,18.9203966 L42.9256198,19.1991501 L42.8905785,19.1991501 C42.9256198,19.1991501 42.9256198,19.1991501 42.9256198,19.1991501 L42.9606612,19.1991501 C43.1008264,19.2688385 43.1709091,19.3733711 43.1709091,19.5127479 C43.1709091,19.6521246 43.0657851,19.7566572 42.9606612,19.7915014 L42.8204959,19.7915014 C42.8204959,19.7915014 42.8204959,19.7915014 42.8204959,19.7915014 L42.4350413,19.8263456 C42.0145455,19.8611898 41.7342149,20.2444759 41.7692562,20.627762 L41.9094215,21.9169972 C41.9444628,22.3351275 42.3299174,22.613881 42.7153719,22.5790368 L46.2895868,22.1609065 C46.5699174,22.1609065 46.8502479,22.2305949 47.0604959,22.4048159 L47.5861157,22.9971671 C47.831405,23.2759207 48.2869421,23.3107649 48.5672727,23.0668555 L49.5133884,22.2654391 C49.8638017,22.0912181 49.898843,21.6382436 49.6185124,21.3594901 Z" fill="#FFFFFF"></path>
                <path d="M44.5024793,13.1362606 L42.8905785,12.7529745 C42.7854545,12.7181303 42.6452893,12.7181303 42.5401653,12.7529745 C42.2598347,12.7529745 42.0145455,12.8575071 41.8393388,13.1014164 L39.7368595,15.6101983 C39.4214876,15.9934844 39.4915702,16.5509915 39.8770248,16.8645892 C40.2624793,17.178187 40.8231405,17.1084986 41.1385124,16.7252125 L42.6102479,14.9830028 C42.8905785,14.7390935 43.2409917,14.6345609 43.591405,14.7390935 L44.1170248,14.8784703 C44.6076033,14.9830028 45.0631405,14.6694051 45.1682645,14.2164306 C45.2733884,13.6937677 44.9580165,13.205949 44.5024793,13.1362606 Z" fill="#FFFFFF"></path>
                <path d="M74.5328926,1.35892351 C73.3765289,-0.139376771 71.2390083,-0.418130312 69.7322314,0.696883853 L67.1041322,2.64815864 C67.1041322,2.64815864 67.1041322,2.64815864 67.1041322,2.64815864 L61.532562,6.69008499 C60.7616529,7.24759207 60.6214876,8.32776204 61.1821488,9.05949008 C61.2872727,9.19886686 61.427438,9.33824363 61.5676033,9.4427762 C61.9530579,9.79121813 62.0231405,10.4184136 61.6727273,10.8365439 C61.4975207,11.0804533 61.2171901,11.1849858 60.9368595,11.21983 C60.551405,11.1849858 60.1659504,11.3592068 59.9557025,11.7076487 C59.6403306,12.1954674 59.8155372,12.8575071 60.3061157,13.1362606 L61.6026446,14.0770538 C61.7077686,14.1467422 61.8479339,14.1815864 61.9880992,14.2164306 C62.3034711,14.3209632 62.6889256,14.286119 63.0042975,14.0422096 L68.7861157,9.86090652 C68.926281,9.79121813 69.031405,9.72152975 69.1715702,9.61699717 L70.2578512,8.81558074 L70.7484298,8.46713881 C70.7834711,8.43229462 70.8185124,8.39745042 70.8535537,8.36260623 L73.9021488,6.09773371 C75.4089256,4.98271955 75.6892562,2.8572238 74.5328926,1.35892351 Z" fill="#FFFFFF"></path>
                <path d="M95.9080992,9.33824363 C95.9080992,8.57167139 95.2773554,7.94447592 94.5064463,7.94447592 L94.4363636,7.94447592 C93.4902479,7.94447592 92.7543802,7.21274788 92.7193388,6.27195467 C92.7193388,6.1674221 92.7193388,6.09773371 92.7193388,5.99320113 C92.7193388,4.49490085 91.4928926,3.3101983 90.021157,3.3101983 L89.1801653,3.3101983 L86.0965289,3.3101983 L84.6598347,3.3101983 C83.6786777,3.3101983 82.9077686,4.04192635 82.837686,4.98271955 C82.6975207,5.40084986 82.3120661,5.6796034 81.8565289,5.6796034 L76.7404959,5.6796034 C75.2687603,5.6796034 74.042314,6.79461756 73.9021488,8.22322946 L73.8671074,8.22322946 C73.8671074,9.4776204 72.9560331,10.488102 71.7646281,10.6623229 L71.3441322,10.6623229 C69.9424793,10.6623229 68.7861157,11.8121813 68.7861157,13.205949 C68.7861157,14.5997167 69.9424793,15.7495751 71.3441322,15.7495751 C72.4304132,15.8541076 73.271405,16.7949008 73.271405,17.909915 L73.9722314,26.4815864 C73.9722314,26.7951841 73.7970248,27.1087819 73.5166942,27.2830028 C73.4115702,27.317847 73.3064463,27.3526912 73.2013223,27.3875354 C73.2013223,27.3875354 73.166281,27.3875354 73.166281,27.3875354 C72.6406612,27.666289 72.3252893,28.223796 72.3603306,28.8509915 L73.0261157,35.7849858 C73.061157,36.0288952 73.1312397,36.2379603 73.2363636,36.4121813 C73.4816529,36.9696884 73.9021488,37.4226629 74.4978512,37.631728 C75.6892562,38.1195467 77.0208264,37.5271955 77.511405,36.3424929 L79.0882645,32.4399433 C79.1933884,32.2308782 79.4036364,32.0566572 79.6489256,31.9869688 L82.5923967,31.0461756 C83.0829752,30.8719547 83.3633058,30.4189802 83.2932231,29.9660057 C83.3282645,29.7569405 83.4684298,29.6175637 83.6436364,29.5478754 L86.5520661,28.6070822 C86.6922314,28.572238 86.7973554,28.5373938 86.9375207,28.5025496 L86.972562,28.5025496 C87.0426446,28.4677054 87.077686,28.4677054 87.1127273,28.4328612 C88.1639669,27.9798867 89.0049587,27.0739377 89.3203306,25.8892351 L92.4740496,13.9725212 C92.4740496,13.9376771 92.5090909,13.9376771 92.5090909,13.9028329 C92.5441322,13.7286119 92.6142149,13.5892351 92.7193388,13.4498584 C92.7193388,13.4498584 92.7193388,13.4498584 92.7193388,13.4150142 L95.6277686,10.1745042 C95.8029752,9.96543909 95.9080992,9.68668555 95.8730579,9.4427762 C95.9080992,9.40793201 95.9080992,9.37308782 95.9080992,9.33824363 Z" fill="#FFFFFF"></path>
                <path d="M68.0502479,28.2934844 L64.2307438,19.9308782 C64.0905785,19.6521246 63.8452893,19.4430595 63.5649587,19.3733711 C63.4247934,19.2688385 63.2495868,19.1991501 63.0743802,19.1294618 L59.6403306,17.6311615 C58.3087603,17.0736544 56.8019835,17.7356941 56.2413223,19.0597734 C55.6806612,20.3838527 56.3464463,21.882153 57.6780165,22.4396601 L60.8317355,23.7985836 L62.3385124,27.1436261 C62.513719,27.5617564 62.3735537,28.0495751 62.0932231,28.3631728 L60.9018182,29.4084986 C60.446281,29.7569405 60.341157,30.4189802 60.6915702,30.8719547 L62.7239669,33.8685552 C62.8290909,34.007932 63.0042975,34.1473088 63.1444628,34.2169972 C63.1444628,34.2169972 63.1795041,34.2169972 63.1795041,34.2518414 C63.6700826,34.5654391 64.3358678,34.4609065 64.6512397,33.9730878 L67.8750413,29.478187 C68.1553719,29.1645892 68.2254545,28.7116147 68.0502479,28.2934844 Z" fill="#FFFFFF"></path>
                <path d="M76.8456198,85.4728045 L69.802314,83.0685552 C69.1365289,82.7549575 68.7510744,82.0232295 68.8561983,81.2915014 C69.1014876,80.4203966 68.6459504,79.4796034 67.734876,79.1660057 L54.6995041,74.705949 C53.7884298,74.3923513 52.8072727,74.88017 52.4919008,75.786119 C52.4218182,75.9254958 52.4218182,76.0997167 52.3867769,76.2739377 C52.3867769,76.517847 52.2115702,76.692068 51.966281,76.692068 C51.7209917,76.692068 51.5457851,76.517847 51.5457851,76.2739377 C51.5457851,75.9603399 51.3004959,75.7164306 50.985124,75.7164306 L48.707438,75.7164306 C48.2519008,75.6815864 47.831405,75.4028329 47.621157,74.9498584 C47.4109091,74.4968839 47.4809917,73.974221 47.7963636,73.625779 C48.0066116,73.4167139 48.1117355,73.1379603 48.1117355,72.8592068 C48.1117355,72.2668555 47.621157,71.7790368 47.0254545,71.7790368 L46.5699174,71.7790368 C46.1143802,71.7790368 45.6238017,71.5351275 45.3785124,71.1169972 C45.2033058,70.7685552 45.1682645,70.4201133 45.2733884,70.0716714 L45.5887603,69.4444759 C45.8690909,68.8521246 45.658843,68.1552408 45.0631405,67.8416431 C44.467438,67.5628895 43.7666116,67.7719547 43.4512397,68.3643059 L43.2760331,68.7475921 C42.8905785,69.3399433 42.2247934,69.7580737 41.4538843,69.7580737 C40.5428099,69.7580737 39.7719008,69.2354108 39.4565289,68.4339943 C39.4565289,68.4339943 39.4565289,68.4339943 39.4565289,68.4339943 L38.8958678,65.298017 C38.7907438,64.0436261 39.6667769,62.9286119 40.8581818,62.6847025 L47.3758678,62.6847025 C47.9365289,62.6847025 48.4271074,63.0679887 48.5672727,63.6254958 L49.0928926,65.472238 C49.1980165,65.8903683 49.6535537,66.1342776 50.0740496,66.029745 C50.4945455,65.9252125 50.7398347,65.472238 50.6347107,65.0541076 L49.7586777,62.0226629 C49.5484298,61.5 49.7586777,60.9076487 50.2142149,60.6288952 L53.2277686,59.2699717 C54.1738843,58.8518414 54.5943802,57.7368272 54.2089256,56.796034 C53.9986777,55.8552408 54.4542149,54.9144476 55.2601653,54.4614731 L68.4006612,48.4334278 C69.3467769,47.9804533 69.7672727,46.8654391 69.3467769,45.8898017 C69.3467769,45.8549575 69.3117355,45.8201133 69.3117355,45.8201133 C69.3117355,45.7155807 69.2766942,45.6110482 69.2416529,45.5413598 L65.2119008,36.9348442 C65.0016529,36.4818697 64.4409917,36.2728045 63.9854545,36.4818697 C63.6700826,36.6212465 63.494876,36.9 63.4598347,37.2135977 C63.4598347,37.8756374 62.9342149,38.3983003 62.2684298,38.3983003 C61.6727273,38.3983003 61.1471074,37.9453258 61.0770248,37.3529745 L61.1821488,35.6107649 C61.2171901,34.4609065 60.3061157,33.4852691 59.1147107,33.4504249 C57.9583471,33.4155807 56.9771901,34.3215297 56.9421488,35.5062323 L56.5917355,40.523796 C56.5216529,40.7677054 56.4165289,41.0116147 56.206281,41.2206799 L53.0876033,43.6249292 C52.8072727,43.7294618 52.4919008,43.6597734 52.2816529,43.415864 C52.0013223,43.1022663 52.0013223,42.6492918 52.3166942,42.3356941 L52.2816529,42.3356941 C52.3166942,42.3008499 52.3517355,42.2311615 52.3867769,42.1963173 C52.9123967,41.3252125 52.6320661,40.2101983 51.7560331,39.6875354 L49.3031405,38.2240793 C47.8664463,36.6212465 47.9365289,34.1473088 49.5133884,32.6838527 L58.3438017,25.9240793 C58.7993388,25.5756374 58.9044628,24.8787535 58.5540496,24.425779 C58.2036364,23.9728045 57.5028099,23.868272 57.0472727,24.2167139 L56.9421488,24.2864023 C56.3464463,24.774221 55.4704132,24.7393768 54.9447934,24.1818697 C54.4892562,23.5895184 53.6132231,23.51983 53.0175207,23.9728045 L52.4568595,24.3909348 C52.1064463,24.6696884 51.6158678,24.6696884 51.2654545,24.3909348 C51.2304132,24.3560907 51.1953719,24.3212465 51.1603306,24.2864023 C51.1603306,24.2864023 51.1252893,24.2864023 51.1252893,24.2515581 C50.7398347,23.9728045 50.2142149,23.9379603 49.8287603,24.2515581 L48.5322314,25.2620397 C48.4271074,25.331728 48.2869421,25.4014164 48.1117355,25.4014164 C47.6912397,25.4014164 47.3758678,25.0529745 47.3758678,24.6696884 L47.3758678,24.7045326 C47.3408264,23.868272 46.64,23.1713881 45.7990083,23.1365439 C44.8879339,23.1016997 44.1170248,23.7985836 44.1170248,24.7045326 L44.0469421,25.8892351 L44.0469421,25.8543909 C44.0469421,26.0983003 43.8366942,26.3073654 43.591405,26.3073654 C43.381157,26.3073654 43.1709091,26.1331445 43.1358678,25.9240793 C43.1358678,24.8439093 42.7153719,23.7288952 41.8743802,22.8926346 L37.7745455,18.7461756 C36.3378512,17.3175637 34.1302479,17.0736544 32.4482645,18.084136 C31.747438,18.5022663 30.8013223,18.3628895 30.2757025,17.7008499 L24.353719,11.9515581 C24.0383471,11.6379603 23.6879339,11.4637394 23.3024793,11.4288952 C22.6717355,11.21983 21.9358678,11.1849858 21.2700826,11.4637394 L20.5692562,11.7076487 C20.4641322,11.7424929 20.3590083,11.7424929 20.2889256,11.7773371 L18.3616529,12.474221 L18.0813223,12.5439093 L16.3292562,13.1711048 C15.4882645,13.5195467 15.1028099,14.4254958 15.4181818,15.2617564 C15.5583471,15.8889518 15.2429752,16.5161473 14.682314,16.7949008 L11.9140496,17.8053824 C11.0730579,18.1538244 10.652562,19.0946176 11.0029752,19.9308782 C11.3533884,20.7671388 12.2995041,21.1852691 13.1404959,20.8368272 L13.8763636,20.5929178 C14.1917355,20.5580737 14.4720661,20.7322946 14.5771901,21.0458924 C14.682314,21.3594901 14.5771901,21.6730878 14.2968595,21.8473088 L11.3533884,23.0320113 C9.28595041,23.868272 8.26975207,26.2376771 9.1107438,28.2934844 C9.18082645,28.5025496 9.28595041,28.6767705 9.39107438,28.8509915 C9.91669421,30.0705382 9.35603306,31.4991501 8.1646281,32.0566572 L0.770909091,34.9835694 C0.385454545,35.1229462 0.210247934,35.5410765 0.385454545,35.9243626 C0.525619835,36.3076487 0.946115702,36.4818697 1.33157025,36.3076487 L13.806281,31.3597734 C14.0866116,31.2552408 14.2267769,31.0113314 14.2618182,30.7325779 C14.2618182,30.6280453 14.3319008,30.5235127 14.4370248,30.4886686 L17.8009917,29.129745 C19.9034711,28.6419263 22.0059504,29.8963173 22.5315702,31.9869688 L22.5666116,31.9869688 L26.1408264,46.4124646 C26.2109091,47.1790368 25.8955372,47.9456091 25.2998347,48.4334278 C25.2998347,48.4334278 25.2647934,48.468272 25.2647934,48.5031161 C23.8280992,49.7226629 23.3024793,51.7784703 24.1084298,53.5555241 L27.2621488,61.0121813 L29.3996694,66.0645892 C29.574876,66.4478754 29.9953719,66.6220963 30.3808264,66.4827195 C30.766281,66.3084986 30.9414876,65.8903683 30.8013223,65.5070822 L28.9441322,61.0470255 C28.9090909,60.8379603 29.0142149,60.594051 29.2244628,60.5243626 C29.4697521,60.41983 29.7500826,60.5243626 29.8552066,60.768272 L29.8201653,60.6985836 L33.4644628,67.7719547 C33.5695868,68.0855524 33.5695868,68.3991501 33.4995041,68.7127479 C33.4644628,68.7475921 33.4644628,68.7824363 33.4294215,68.8172805 C33.2191736,69.3050992 33.4294215,69.8974504 33.92,70.1413598 L44.3973554,74.9150142 C44.4323967,74.9498584 44.467438,74.9498584 44.5024793,74.9847025 L50.4244628,77.6677054 C50.4244628,77.6677054 50.4244628,77.6677054 50.4244628,77.6677054 C51.0552066,77.9813031 51.4757025,78.6433428 51.4757025,79.3750708 C51.4757025,80.0719547 51.1252893,80.6643059 50.5646281,81.0127479 C48.9527273,81.7793201 48.2168595,83.6957507 48.9527273,85.2985836 L50.88,89.6889518 C50.985124,89.898017 51.0902479,90.1070822 51.2304132,90.3161473 L51.7560331,91.4660057 C52.2466116,92.5810198 53.1927273,93.3475921 54.2790083,93.6611898 C54.2790083,93.6611898 54.2790083,93.6611898 54.2790083,93.6611898 C55.225124,93.9050992 55.8909091,94.8110482 55.8208264,95.8215297 L55.4353719,117.111331 C55.3652893,120.212465 57.8181818,122.790935 60.9719008,122.860623 C61.322314,122.860623 61.6727273,122.860623 61.9880992,122.790935 C62.0932231,122.756091 62.1282645,122.686402 62.1282645,122.58187 C62.1282645,122.512181 62.0932231,122.442493 62.0581818,122.407649 C60.7966942,121.884986 60.1309091,120.560907 60.3761983,119.271671 L63.1795041,110.003116 C63.2846281,109.584986 63.7401653,109.341076 64.1606612,109.445609 C64.8614876,109.480453 65.562314,109.132011 65.9127273,108.469972 L71.4842975,98.5045326 C71.7646281,97.9818697 72.3603306,97.7031161 72.9209917,97.8773371 C72.9209917,97.8773371 72.9560331,97.8773371 72.9560331,97.8773371 C72.9910744,97.9121813 73.061157,97.9121813 73.0961983,97.9121813 C73.1312397,97.9121813 73.1312397,97.9121813 73.166281,97.9470255 C73.8320661,98.0864023 74.5328926,97.7379603 74.7781818,97.1107649 L78.1771901,88.7830028 C78.2122314,88.7133144 78.2122314,88.6436261 78.2472727,88.6087819 C78.2472727,88.5739377 78.282314,88.5390935 78.282314,88.5042493 C78.7378512,87.2150142 78.0720661,85.8909348 76.8456198,85.4728045 Z" fill="#FFFFFF"></path>
                <path d="M134.34843,4.52974504 C134.593719,3.97223796 135.259504,3.69348442 135.820165,3.93739377 L140.690909,5.99320113 C141.25157,6.23711048 141.531901,6.89915014 141.286612,7.45665722 C141.041322,8.01416431 140.375537,8.29291785 139.814876,8.0490085 L134.944132,5.99320113 C134.34843,5.78413598 134.10314,5.12209632 134.34843,4.52974504 Z" fill="#FFFFFF"></path>
                <path d="M144.089917,8.57167139 C143.914711,8.95495751 143.459174,9.09433428 143.10876,8.92011331 L142.793388,8.74589235 C142.407934,8.57167139 142.267769,8.11869688 142.442975,7.77025496 C142.618182,7.38696884 143.073719,7.24759207 143.424132,7.42181303 L143.739504,7.59603399 C144.089917,7.73541076 144.265124,8.18838527 144.089917,8.57167139 Z" fill="#FFFFFF"></path>
                <path d="M131.615207,90.4903683 C131.194711,90.3858357 130.774215,90.5949008 130.63405,91.0130312 L130.353719,91.9189802 C130.248595,92.2325779 129.898182,92.4067989 129.58281,92.3022663 C129.58281,92.3022663 129.547769,92.3022663 129.547769,92.3022663 C129.127273,92.1977337 128.706777,92.4067989 128.566612,92.8249292 L128.111074,94.2883853 C128.076033,94.3580737 128.040992,94.427762 128.00595,94.5322946 L127.270083,97.1107649 C127.024793,97.9121813 127.515372,98.7484419 128.321322,98.9923513 C129.127273,99.2362606 129.968264,98.7484419 130.213554,97.9470255 L130.38876,97.3546742 C130.38876,97.3546742 130.38876,97.3546742 130.38876,97.3546742 L132.105785,91.4311615 C132.280992,91.0478754 132.035702,90.5949008 131.615207,90.4903683 Z" fill="#FFFFFF"></path>
                <path d="M125.86843,84.7410765 C125.553058,84.9849858 125.377851,85.4379603 125.482975,85.8560907 L124.81719,85.9954674 L124.326612,83.8002833 L126.113719,83.4169972 C126.078678,83.4518414 126.008595,84.6365439 125.86843,84.7410765 Z" fill="#FFFFFF"></path>
                <path d="M131.825455,25.0181303 C132.456198,25.0181303 132.946777,24.5303116 132.946777,23.9031161 L133.647603,23.9031161 L133.647603,26.1331445 L131.825455,26.1331445 L131.825455,25.0181303 Z" fill="#FFFFFF"></path>
                <path d="M93.5252893,32.927762 C93.5252893,33.5201133 93.0347107,34.007932 92.4390083,34.007932 L88.8647934,34.007932 C88.2690909,34.007932 87.7785124,33.5201133 87.7785124,32.927762 C87.7785124,32.3354108 88.2690909,31.8475921 88.8647934,31.8475921 L92.4390083,31.8475921 C93.0697521,31.8824363 93.5252893,32.370255 93.5252893,32.927762 Z" fill="#FFFFFF"></path>
                <path d="M126.67438,20.627762 L130.63405,16.1328612 C130.984463,15.7495751 130.949421,15.1572238 130.528926,14.8087819 C130.143471,14.4603399 129.547769,14.4951841 129.197355,14.9133144 L124.29157,20.4883853 C124.256529,20.5232295 124.221488,20.5580737 124.221488,20.5929178 C123.941157,20.8368272 123.871074,21.2201133 124.081322,21.4988669 L126.534215,25.1575071 C126.744463,25.4711048 127.2,25.5756374 127.515372,25.331728 C127.830744,25.1226629 127.935868,24.6696884 127.690579,24.3560907 L126.639339,22.788102 C126.288926,22.1260623 126.288926,21.3246459 126.67438,20.627762 Z" fill="#FFFFFF"></path>
                <g transform="translate(89.705785, 8.014164)">
                    <path d="M107.611901,4.00708215 L95.557686,2.50878187 C94.7517355,2.40424929 93.9808264,2.96175637 93.8406612,3.7631728 C93.8406612,3.798017 93.8056198,3.798017 93.8056198,3.83286119 C93.7705785,4.18130312 93.5603306,4.52974504 93.2099174,4.70396601 L91.6680992,5.26147309 C91.002314,5.47053824 90.2664463,5.15694051 89.9861157,4.52974504 C89.9861157,4.52974504 89.9861157,4.49490085 89.9861157,4.49490085 C89.7408264,3.69348442 88.8647934,3.27535411 88.058843,3.51926346 L85.8161983,4.2509915 C85.3957025,4.39036827 84.9401653,4.2509915 84.6598347,3.97223796 C84.4145455,3.62379603 83.9940496,3.37988669 83.5385124,3.44957507 L77.3712397,4.28583569 L77.3712397,4.32067989 C77.1960331,4.35552408 77.0909091,4.49490085 77.0909091,4.70396601 L77.0558678,6.02804533 C76.9507438,6.69008499 76.5652893,7.24759207 75.8995041,7.5611898 C75.338843,7.80509915 74.7080992,7.77025496 74.1824793,7.52634561 L70.3980165,4.84334278 C69.9424793,4.49490085 69.2766942,4.63427762 68.9613223,5.08725212 C68.7861157,5.33116147 68.7510744,5.60991501 68.7861157,5.85382436 C68.7510744,6.1674221 68.5758678,6.44617564 68.2604959,6.58555241 L67.6647934,6.75977337 C67.3494215,6.86430595 67.0340496,6.72492918 66.858843,6.48101983 C66.7887603,6.1674221 66.4733884,5.99320113 66.1580165,6.06288952 L62.6889256,6.72492918 C62.4786777,6.79461756 62.3034711,6.93399433 62.1983471,7.14305949 L61.637686,8.18838527 C61.6026446,8.29291785 61.4624793,8.36260623 61.3573554,8.32776204 C61.2522314,8.29291785 61.1821488,8.15354108 61.2171901,8.0490085 L62.0932231,4.70396601 C62.2333884,4.11161473 61.9180165,3.51926346 61.3573554,3.34504249 L61.3573554,3.3101983 L57.8882645,0.696883853 C56.9071074,3.88578059e-16 55.5755372,0.209065156 54.8396694,1.18470255 C54.3490909,1.84674221 54.3140496,2.68300283 54.6294215,3.37988669 C54.7695868,3.72832861 54.6294215,4.14645892 54.3140496,4.42521246 L50.1441322,7.42181303 C49.6185124,7.80509915 49.4783471,8.5368272 49.8638017,9.05949008 C50.0390083,9.4776204 49.9338843,10.0002833 49.5834711,10.313881 L49.0928926,10.6623229 C48.707438,10.9410765 48.5672727,11.4288952 48.707438,11.8818697 C48.7424793,11.9515581 48.7775207,12.0212465 48.812562,12.0909348 C48.9527273,12.4393768 48.812562,12.8575071 48.4971901,13.1014164 L46.1494215,14.7739377 L46.2195041,13.4847025 C46.2545455,12.6832861 45.6238017,12.0212465 44.8528926,11.9864023 C44.0469421,11.9515581 43.381157,12.5787535 43.3461157,13.3453258 L43.1709091,17.5963173 C42.9256198,17.2827195 42.5401653,17.0736544 42.1196694,17.0736544 C41.313719,17.0388102 40.6479339,17.6660057 40.6128926,18.4325779 L40.5778512,19.1991501 C40.5428099,19.3385269 40.437686,19.4430595 40.2975207,19.4779037 C40.1923967,19.5127479 40.122314,19.5127479 40.0171901,19.4779037 C38.9309091,18.815864 37.4591736,18.8855524 36.4429752,19.7566572 L29.6449587,25.5407932 C29.4697521,25.6104816 29.2945455,25.6104816 29.1193388,25.5407932 C28.9791736,25.4711048 28.8740496,25.3665722 28.8039669,25.2271955 L28.8039669,24.6 C28.8039669,24.2167139 28.5586777,23.868272 28.2082645,23.7288952 C27.9629752,23.5895184 27.8578512,23.2759207 27.9980165,23.0320113 C28.1031405,22.8229462 28.3484298,22.7184136 28.593719,22.788102 L29.3646281,23.2062323 C30.0304132,23.5546742 30.8363636,23.3107649 31.2218182,22.6835694 C31.5722314,22.0215297 31.3269421,21.2201133 30.6961983,20.8368272 L25.545124,18.0492918 C25.4049587,17.9447592 25.2998347,17.8750708 25.1596694,17.8053824 C23.2323967,16.7600567 20.8145455,17.4569405 19.7633058,19.3733711 L18.5368595,21.6382436 L18.5719008,21.6382436 L15.9438017,26.586119 C15.9438017,26.586119 15.9438017,26.586119 15.9438017,26.586119 C15.7335537,26.8648725 15.3831405,27.0390935 14.997686,27.0042493 L13.7712397,26.9694051 C13.2806612,26.9345609 12.825124,27.317847 12.825124,27.8405099 L12.72,31.4643059 C12.6849587,31.9521246 13.0704132,32.4050992 13.5960331,32.4050992 L14.8224793,32.4747875 C15.2780165,32.5096317 15.6634711,32.196034 15.768595,31.7779037 C15.8036364,31.7082153 15.8386777,31.6733711 15.9087603,31.6733711 C15.978843,31.6733711 16.0138843,31.7082153 16.0489256,31.7430595 L16.8899174,34.182153 C17.0300826,34.6699717 17.5557025,34.913881 18.046281,34.7745042 L19.237686,34.4260623 C19.7282645,34.2866856 19.9735537,33.7640227 19.8333884,33.276204 L19.3428099,31.9172805 C19.3428099,31.8127479 19.3778512,31.6733711 19.4829752,31.6036827 C19.5180165,31.5688385 19.5880992,31.5339943 19.6581818,31.5339943 L20.2538843,31.5339943 C20.6743802,31.5339943 21.0247934,31.1855524 21.0247934,30.7674221 C21.0247934,30.3492918 20.6743802,30.0008499 20.2538843,30.0008499 L19.9385124,30.0008499 C19.7983471,29.9660057 19.6581818,29.8963173 19.5880992,29.7569405 C19.5180165,29.6524079 19.5180165,29.5130312 19.5530579,29.4084986 L22.286281,24.2515581 C22.4965289,24.0424929 22.8119008,23.9728045 23.0571901,24.1121813 C23.3375207,24.2515581 23.477686,24.5651558 23.4076033,24.8439093 L22.1110744,28.0495751 C22.0409917,28.1889518 21.9709091,28.3283286 21.9358678,28.5025496 C21.7957025,28.9903683 22.0760331,29.5478754 22.5666116,29.7220963 C22.6016529,29.7220963 22.6366942,29.7569405 22.6717355,29.7569405 C22.8119008,29.7917847 22.9170248,29.8266289 23.0571901,29.8266289 L25.9656198,29.8266289 C26.1758678,29.8266289 26.3510744,30.0008499 26.3510744,30.209915 C26.3510744,30.4189802 26.1758678,30.5932011 25.9656198,30.5932011 L25.3699174,30.5932011 C23.7930579,30.5932011 22.5315702,31.8475921 22.5315702,33.4155807 C22.5315702,34.3215297 22.9520661,35.1229462 23.6528926,35.6456091 L17.5557025,35.6456091 C17.1001653,35.6456091 16.6796694,35.3668555 16.5044628,34.9487252 L16.3993388,34.5654391 C16.3993388,34.5305949 16.3993388,34.5305949 16.3993388,34.4957507 L16.2241322,33.7640227 C16.1540496,33.4155807 15.768595,33.1716714 15.4181818,33.2413598 C15.0677686,33.3110482 14.8224793,33.6943343 14.892562,34.0427762 L15.0327273,34.6002833 C15.0677686,35.088102 14.787438,35.5410765 14.3669421,35.7152975 C14.3319008,35.7152975 14.2968595,35.7501416 14.2618182,35.7501416 C14.2618182,35.7501416 14.2618182,35.7501416 14.2618182,35.7501416 C13.3857851,36.0985836 12.7550413,36.8651558 12.614876,37.7711048 C12.614876,37.805949 12.614876,37.8407932 12.614876,37.8756374 C12.614876,37.9104816 12.614876,37.98017 12.614876,38.0150142 C12.4747107,39.0951841 11.5986777,39.966289 10.5123967,40.1056657 L8.51504132,40.1056657 C7.95438017,40.1056657 7.49884298,40.5586402 7.49884298,41.1161473 C7.49884298,41.6736544 7.95438017,42.1266289 8.51504132,42.1266289 L8.76033058,42.1266289 C9.32099174,42.2311615 9.7414876,42.7189802 9.7414876,43.2764873 C9.7414876,43.8339943 9.35603306,44.2869688 8.83041322,44.4263456 L5.5014876,44.4263456 C4.94082645,44.4263456 4.52033058,44.8444759 4.48528926,45.401983 L4.45024793,48.5379603 C4.45024793,49.0954674 4.8707438,49.5135977 5.43140496,49.5484419 L9.81157025,49.5484419 C10.3722314,49.5484419 10.7927273,49.1303116 10.8277686,48.5728045 L10.8277686,47.9107649 C10.8277686,47.4926346 11.1431405,47.1093484 11.5636364,47.0396601 C11.5986777,47.0396601 11.633719,47.0396601 11.6687603,47.0396601 C11.6687603,47.0396601 11.7038017,47.0396601 11.7038017,47.0396601 C12.1242975,46.9351275 12.4747107,46.5866856 12.5097521,46.1685552 C12.5097521,45.6458924 12.9302479,45.1929178 13.4909091,45.1929178 L15.0677686,45.1929178 C15.2079339,45.1929178 15.3480992,45.1580737 15.4532231,45.0535411 C15.9087603,44.6005666 16.6095868,44.6005666 17.065124,45.0535411 L19.2727273,47.2487252 C19.4479339,47.4926346 19.5180165,47.8062323 19.4128926,48.11983 C19.3077686,48.468272 18.9923967,48.7121813 18.6419835,48.7470255 L18.3616529,48.7470255 C18.151405,48.7470255 17.9761983,48.9212465 17.9761983,49.1303116 C17.9761983,49.3393768 18.151405,49.5135977 18.3616529,49.5135977 L20.0436364,49.5484419 C20.1838017,49.5484419 20.2889256,49.4787535 20.3590083,49.374221 C20.3940496,49.3393768 20.3940496,49.3393768 20.4290909,49.3045326 L21.3752066,48.11983 C21.3752066,48.11983 21.3752066,48.11983 21.4102479,48.11983 C21.7606612,47.7713881 21.7606612,47.213881 21.4102479,46.8305949 L18.3266116,43.7294618 C18.2214876,43.5203966 18.2565289,43.3113314 18.4317355,43.1371105 C18.6069421,42.9628895 18.8522314,42.9280453 19.027438,43.0325779 L21.9709091,45.9594901 C22.1110744,46.133711 22.181157,46.3427762 22.2161983,46.5518414 L22.2161983,47.4577904 C22.2161983,47.5971671 22.2512397,47.7016997 22.3563636,47.7713881 C22.3563636,47.7713881 22.3563636,47.7713881 22.3563636,47.7713881 L23.9332231,49.6529745 C24.0033058,49.7575071 24.1785124,49.7923513 24.2836364,49.7575071 C24.458843,49.7226629 24.6340496,49.6181303 24.6690909,49.4090652 L25.1246281,47.4229462 C25.2647934,47.0396601 25.6852893,46.7957507 26.1057851,46.9002833 C26.526281,47.0048159 26.8066116,47.4229462 26.7014876,47.8410765 C26.6664463,47.9804533 26.631405,48.11983 26.631405,48.2592068 C26.631405,48.9909348 27.1219835,49.5832861 27.8228099,49.7575071 C27.8578512,49.7923513 27.9279339,49.7923513 27.9980165,49.7923513 L30.8363636,50.3847025 L30.7312397,50.3498584 C31.5722314,50.4892351 32.1679339,51.3254958 31.9927273,52.1617564 C31.852562,52.9283286 31.1867769,53.4509915 30.4158678,53.4509915 L24.5639669,52.2314448 C23.9682645,52.092068 23.4076033,52.4056657 23.162314,52.9631728 C23.0571901,53.3116147 22.7067769,53.5555241 22.3563636,53.5206799 L18.6419835,52.5798867 C18.2214876,52.4753541 17.9061157,52.1269122 17.8009917,51.7436261 C17.7309091,50.9073654 16.9950413,50.28017 16.1540496,50.3150142 L12.6849587,50.4543909 C12.6499174,50.4543909 12.614876,50.4543909 12.5798347,50.4543909 L7.42876033,50.5937677 C5.85190083,50.6634561 4.59041322,52.0223796 4.66049587,53.5903683 C4.66049587,53.6252125 4.66049587,53.6600567 4.66049587,53.6949008 C4.66049587,53.729745 4.66049587,53.7645892 4.66049587,53.7994334 C4.66049587,53.8342776 4.66049587,53.8691218 4.66049587,53.9388102 C4.69553719,54.3220963 4.52033058,54.6705382 4.20495868,54.8796034 C1.5768595,56.5172805 -0.105123967,59.4790368 0.0350413223,62.7892351 C0.245289256,67.7022663 4.41520661,71.5002833 9.35603306,71.2563739 L12.8601653,71.1169972 C13.1404959,71.082153 13.3857851,71.2563739 13.4909091,71.5002833 C13.6310744,71.988102 14.0866116,72.3016997 14.6122314,72.2668555 L15.1728926,72.2320113 C15.7335537,72.1971671 16.2241322,72.6152975 16.3292562,73.1728045 L16.4694215,75.5422096 C16.5395041,76.3784703 17.1001653,77.0753541 17.8710744,77.2844193 C17.8710744,77.2844193 17.9061157,77.2844193 17.9061157,77.2844193 C18.2915702,77.3889518 18.6069421,77.6677054 18.7471074,78.0858357 L19.2026446,81.6747875 C19.2026446,81.7096317 19.2026446,81.7444759 19.2026446,81.7444759 L19.237686,81.8838527 C19.2727273,82.301983 19.027438,82.7201133 18.6419835,82.9291785 C18.6419835,82.9291785 18.6419835,82.9291785 18.6419835,82.9291785 C17.7309091,83.4866856 17.3104132,84.6016997 17.6958678,85.6121813 L21.2350413,95.6473088 C21.5854545,96.6229462 22.5315702,97.2152975 23.5477686,97.1456091 C23.6178512,97.1456091 23.7229752,97.1456091 23.8280992,97.1456091 L26.9467769,96.6229462 C27.2271074,96.588102 27.4723967,96.413881 27.6476033,96.2048159 C27.6826446,96.1699717 27.7527273,96.1351275 27.7877686,96.1002833 L30.9765289,92.7203966 C31.1867769,92.4764873 31.2568595,92.1280453 31.1517355,91.8492918 C30.9414876,91.5008499 31.0466116,91.0478754 31.4320661,90.8388102 L32.5884298,90.3509915 C32.8687603,90.2464589 33.0089256,89.9677054 33.0089256,89.6889518 C33.0089256,89.5844193 33.0089256,89.5147309 32.9738843,89.4101983 L32.6234711,88.3300283 C32.4132231,87.8770538 32.5533884,87.3543909 32.9038017,87.0407932 L36.1626446,84.6016997 C36.5130579,84.3577904 36.6532231,83.9745042 36.6532231,83.5912181 C36.6532231,83.5215297 36.6532231,83.4169972 36.6532231,83.3124646 L35.6720661,77.0056657 L40.8581818,73.1379603 C41.2786777,72.7895184 41.4538843,72.2668555 41.313719,71.7441926 C41.313719,71.6048159 41.3487603,71.4654391 41.4538843,71.3609065 L43.9067769,69.5141643 C44.6076033,68.9915014 44.7477686,67.9810198 44.2221488,67.284136 C43.8016529,66.7266289 43.0657851,66.5524079 42.4350413,66.7614731 C42.0145455,66.7963173 41.6290909,66.5872521 41.418843,66.203966 C41.208595,65.7509915 41.3487603,65.2283286 41.7692562,64.9495751 L47.5510744,62.3711048 C48.5322314,61.9181303 48.9877686,60.7334278 48.5322314,59.7577904 C48.0766942,58.782153 46.8852893,58.3291785 45.9041322,58.782153 L44.8528926,59.2699717 C44.362314,59.4790368 43.8016529,59.3396601 43.486281,58.9215297 L43.381157,58.7124646 C43.381157,58.7124646 43.381157,58.7124646 43.381157,58.7124646 L40.9633058,54.6356941 C40.8581818,54.3220963 40.9633058,53.9736544 41.2436364,53.7994334 C41.5239669,53.5903683 41.9094215,53.6600567 42.1547107,53.903966 L43.7666116,56.3779037 C43.8717355,56.5172805 43.9768595,56.621813 44.1170248,56.7263456 C44.2922314,56.9005666 44.5375207,57.0050992 44.7828099,57.0050992 L51.2304132,57.0747875 C51.2654545,57.0747875 51.2654545,57.0747875 51.3004959,57.0747875 C51.7560331,57.0747875 52.2115702,57.2838527 52.5269421,57.6322946 L54.5593388,60.4895184 C54.7695868,60.8031161 55.12,60.9773371 55.4704132,61.0121813 C55.8208264,61.0818697 56.1361983,61.3606232 56.2763636,61.7090652 L59.3950413,67.7719547 C59.5702479,68.0855524 59.8155372,68.2946176 60.1309091,68.3991501 C60.3061157,68.4688385 60.4813223,68.5036827 60.6565289,68.5385269 C61.4624793,68.5733711 62.1633058,67.9461756 62.1983471,67.1447592 L62.3385124,64.5314448 C62.3385124,64.4966006 62.3385124,64.4617564 62.3735537,64.4269122 C62.3735537,64.1481586 62.4786777,63.9042493 62.6889256,63.6951841 L62.8290909,63.5558074 C62.8290909,63.5558074 62.8641322,63.5558074 62.8641322,63.5209632 L66.4733884,60.41983 C66.6135537,60.3152975 66.7186777,60.2456091 66.753719,60.1759207 C66.9639669,60.0016997 67.2092562,59.8971671 67.4895868,59.8971671 L68.0852893,59.8971671 C68.3305785,59.8971671 68.5758678,60.0016997 68.7861157,60.1759207 C68.8561983,60.2456091 69.031405,60.3501416 69.1715702,60.4895184 L70.117686,61.3606232 C70.2578512,61.5 70.3279339,61.7090652 70.3629752,61.8832861 L70.4330579,63.9739377 C70.4330579,64.2875354 70.7133884,64.5314448 71.0287603,64.5314448 C71.098843,64.5314448 71.1689256,64.5314448 71.2039669,64.4966006 C71.3090909,64.4617564 71.4492562,64.392068 71.5193388,64.2875354 L72.0099174,63.6951841 C72.0099174,63.6951841 72.0099174,63.6951841 72.0099174,63.6951841 C72.1150413,63.5209632 72.3252893,63.4512748 72.5705785,63.486119 C72.7808264,63.5209632 72.9209917,63.6603399 72.9910744,63.8694051 L73.4816529,67.9113314 C73.5166942,68.2597734 73.8671074,68.5385269 74.2175207,68.4688385 C74.5679339,68.4339943 74.8482645,68.0855524 74.7781818,67.7371105 L74.6029752,66.2388102 C74.6029752,66.0645892 74.7080992,65.9252125 74.8482645,65.8555241 C74.9884298,65.7858357 75.1636364,65.8206799 75.2687603,65.9252125 C75.2687603,65.9252125 75.2687603,65.9252125 75.2687603,65.9252125 L77.3361983,67.6325779 C78.2472727,68.3643059 79.578843,68.2597734 80.3497521,67.3538244 C81.0856198,66.4478754 80.9804959,65.123796 80.0694215,64.3572238 L78.7028099,63.2073654 C78.1771901,62.6847025 78.0019835,61.8832861 78.3173554,61.1515581 C78.5626446,60.594051 79.0532231,60.2107649 79.6138843,60.1062323 L81.7163636,60.1410765 C84.8350413,60.1410765 87.3930579,57.6322946 87.3930579,54.5311615 C87.3930579,53.172238 86.9375207,51.9526912 86.1315702,50.9770538 L83.6436364,47.1093484 C83.2932231,46.2730878 83.5385124,45.2974504 84.3444628,44.7747875 C85.1504132,44.2521246 86.1666116,44.3915014 86.7973554,45.0883853 L89.2852893,48.9212465 C89.6006612,49.4090652 90.2664463,49.5484419 90.7570248,49.2348442 C91.2476033,48.9212465 91.3877686,48.2592068 91.0723967,47.7713881 L91.002314,47.6320113 C89.8109091,45.4716714 90.5117355,42.7189802 92.6492562,41.3600567 C93.0347107,41.2555241 93.3150413,40.9070822 93.3500826,40.4889518 L94.0158678,33.2065156 C94.0158678,33.1368272 94.0158678,33.101983 94.0158678,33.0322946 C94.0509091,32.0566572 93.4902479,31.1507082 92.6842975,30.6977337 C92.6142149,30.6628895 92.5441322,30.5932011 92.4740496,30.5583569 L90.3014876,29.478187 C90.2664463,29.478187 90.2664463,29.4433428 90.231405,29.4433428 L90.1613223,29.4084986 C89.6707438,29.1645892 89.4254545,28.572238 89.6357025,28.0495751 L91.002314,23.2759207 C91.107438,22.7532578 91.5279339,22.3699717 92.0535537,22.3699717 L95.9080992,22.0563739 C96.0132231,22.0563739 96.0833058,22.0215297 96.1533884,21.9866856 C96.5738843,21.9169972 96.9242975,21.6033994 96.9943802,21.1852691 L97.4849587,18.6416431 L97.4849587,18.6764873 C97.625124,17.8750708 98.3960331,17.3175637 99.2370248,17.4917847 C99.9378512,17.6311615 100.42843,18.2235127 100.463471,18.9203966 L99.4122314,24.4954674 C99.3771901,24.6696884 99.3771901,24.8439093 99.4472727,24.9832861 C99.4472727,25.0878187 99.482314,25.1575071 99.5173554,25.2620397 L102.776198,30.6977337 C102.951405,31.0113314 103.371901,31.115864 103.687273,30.9416431 C103.827438,30.8719547 103.932562,30.7325779 103.967603,30.5932011 C103.967603,30.5235127 104.002645,30.4886686 104.002645,30.4189802 L104.913719,25.6453258 C104.94876,25.3665722 104.913719,25.1226629 104.808595,24.8787535 C104.808595,24.8090652 104.773554,24.7045326 104.738512,24.6348442 L103.021488,21.3943343 C102.986446,21.2549575 102.951405,21.1155807 102.951405,20.976204 L103.231736,19.4082153 C103.406942,18.5719547 104.212893,18.0144476 105.053884,18.1538244 C105.299174,18.2583569 105.579504,18.1538244 105.719669,17.909915 L106.80595,15.923796 L108.102479,13.5892351 C108.417851,13.031728 108.207603,12.3696884 107.646942,12.0560907 C107.646942,12.0560907 107.611901,12.0560907 107.611901,12.0560907 C107.57686,12.0212465 107.541818,11.9864023 107.506777,11.9515581 L105.404298,10.5926346 C104.598347,9.96543909 104.353058,8.81558074 104.913719,7.90963173 C105.299174,7.24759207 106.035041,6.86430595 106.770909,6.89915014 L107.436694,6.96883853 C108.277686,7.0733711 109.048595,6.48101983 109.153719,5.64475921 C109.048595,4.87818697 108.452893,4.11161473 107.611901,4.00708215 Z M31.6072727,53.8342776 L31.5371901,53.8691218 C31.4320661,53.8342776 31.3269421,53.7645892 31.2218182,53.7645892 L31.1867769,53.7645892 L31.6072727,53.8342776 Z M21.2350413,83.1730878 L21.2,82.9988669 L21.2350413,83.1730878 C21.2350413,83.207932 21.2350413,83.1730878 21.2350413,83.1730878 Z M74.4277686,65.3677054 L74.4277686,65.298017 L74.4978512,65.3328612 L74.4277686,65.3677054 Z" fill="#FFFFFF"></path>
                    <path d="M16.2942149,47.7365439 L16.3292562,46.5169972 C16.3292562,46.2382436 16.1190083,45.9943343 15.8386777,45.9943343 C15.5583471,45.9943343 15.3130579,46.2033994 15.3130579,46.482153 L15.2780165,47.7016997 C15.2780165,47.9804533 15.4882645,48.2243626 15.768595,48.2243626 C16.0489256,48.2243626 16.2942149,48.0152975 16.2942149,47.7365439 Z" fill="#000000"></path>
                </g>
                <path d="M162.45157,78.9917847 C162.837025,78.678187 163.397686,78.7478754 163.713058,79.1311615 L168.128264,84.6713881 C168.443636,85.0546742 168.373554,85.6121813 167.988099,85.925779 C167.602645,86.2393768 167.041983,86.1696884 166.726612,85.7864023 L162.311405,80.2461756 C161.996033,79.8280453 162.066116,79.2705382 162.45157,78.9917847 Z" fill="#FFFFFF"></path>
                <path d="M164.238678,76.9011331 C164.448926,76.7269122 164.764298,76.7617564 164.939504,76.9708215 L167.322314,79.9674221 C167.497521,80.1764873 167.462479,80.490085 167.252231,80.6643059 C167.041983,80.8385269 166.726612,80.8036827 166.551405,80.5946176 L164.168595,77.598017 C163.993388,77.3889518 164.02843,77.0753541 164.238678,76.9011331 Z" fill="#FFFFFF"></path>
                <path d="M183.336198,37.0393768 C183.581488,36.9348442 183.861818,37.074221 183.931901,37.3181303 L187.08562,45.1929178 C187.190744,45.4368272 187.050579,45.7155807 186.805289,45.7852691 C186.56,45.8898017 186.279669,45.7504249 186.209587,45.5065156 L183.055868,37.631728 C182.985785,37.3878187 183.090909,37.1090652 183.336198,37.0393768 Z" fill="#FFFFFF"></path>
                <path d="M168.829091,87.4589235 C168.829091,87.18017 169.109421,86.9362606 169.389752,86.9362606 L178.009917,87.5983003 C178.325289,87.5983003 178.535537,87.8770538 178.535537,88.1558074 C178.535537,88.4345609 178.255207,88.6784703 177.974876,88.6784703 L169.354711,88.0164306 C169.039339,88.0164306 168.79405,87.7725212 168.829091,87.4589235 Z" fill="#FFFFFF"></path>
                <path d="M177.379174,86.0651558 C177.589421,86.1696884 177.834711,86.0651558 177.939835,85.8560907 L179.061157,83.3124646 C179.166281,83.1033994 179.061157,82.8594901 178.850909,82.7549575 L178.150083,82.4413598 C177.939835,82.3368272 177.694545,82.4413598 177.589421,82.6504249 L176.468099,85.194051 C176.362975,85.4031161 176.468099,85.6470255 176.678347,85.7515581 L177.379174,86.0651558 Z" fill="#FFFFFF"></path>
                <path d="M181.899504,78.3645892 C182.144793,78.2600567 182.214876,77.9813031 182.109752,77.7373938 L181.408926,76.4133144 C181.303802,76.1694051 181.023471,76.0997167 180.778182,76.2042493 L180.042314,76.5875354 C179.797025,76.692068 179.726942,76.9708215 179.832066,77.2147309 L180.532893,78.5388102 C180.638017,78.7827195 180.918347,78.8524079 181.163636,78.7478754 L181.899504,78.3645892 Z" fill="#FFFFFF"></path>
                <path d="M168.934215,69.9671388 C168.899174,70.1413598 169.004298,70.2807365 169.179504,70.3155807 L170.476033,70.5943343 C170.65124,70.6291785 170.791405,70.5246459 170.826446,70.3504249 L170.93157,69.827762 C170.966612,69.6535411 170.861488,69.5141643 170.686281,69.4793201 L169.389752,69.2005666 C169.214545,69.1657224 169.07438,69.270255 169.039339,69.4444759 L168.934215,69.9671388 Z" fill="#FFFFFF"></path>
                <path d="M179.832066,89.3405099 C179.797025,89.166289 179.902149,88.9572238 180.077355,88.9223796 L182.705455,88.1906516 C182.880661,88.1558074 183.090909,88.2603399 183.12595,88.4345609 C183.160992,88.6087819 183.055868,88.817847 182.880661,88.8526912 L180.252562,89.5844193 C180.077355,89.6192635 179.867107,89.5147309 179.832066,89.3405099 Z" fill="#FFFFFF"></path>
                <path d="M206.848926,116.309915 C207.23438,116.658357 207.304463,117.250708 206.95405,117.633994 L202.924298,122.233428 C202.573884,122.616714 201.978182,122.686402 201.592727,122.33796 C201.207273,121.989518 201.13719,121.397167 201.487603,121.013881 L205.517355,116.414448 C205.867769,116.031161 206.463471,115.961473 206.848926,116.309915 Z" fill="#FFFFFF"></path>
                <path d="M177.799669,64.8450425 C178.08,64.9147309 178.220165,65.2283286 178.115041,65.472238 L177.694545,66.6917847 C177.624463,66.9705382 177.309091,67.109915 177.063802,67.0053824 C176.783471,66.9356941 176.643306,66.6220963 176.74843,66.378187 L177.168926,65.1586402 C177.239008,64.9147309 177.519339,64.7753541 177.799669,64.8450425 Z" fill="#FFFFFF"></path>
                <path d="M109.18876,17.0388102 C109.574215,16.7949008 109.679339,16.272238 109.43405,15.8889518 L107.366612,12.6832861 C107.121322,12.3 106.595702,12.1954674 106.210248,12.4393768 L104.94876,13.2407932 C104.563306,13.4847025 104.458182,14.0073654 104.703471,14.3906516 L106.770909,17.5963173 C107.016198,17.9796034 107.541818,18.084136 107.927273,17.8402266 L109.18876,17.0388102 Z" fill="#FFFFFF"></path>
                <path d="M109.819504,13.4150142 C110.064793,13.2756374 110.134876,12.9620397 109.959669,12.7181303 L108.733223,10.8016997 C108.593058,10.5577904 108.277686,10.488102 108.032397,10.6623229 L107.296529,11.1501416 C107.05124,11.2895184 106.981157,11.6031161 107.156364,11.8470255 L108.38281,13.7634561 C108.522975,14.0073654 108.838347,14.0770538 109.083636,13.9028329 L109.819504,13.4150142 Z" fill="#FFFFFF"></path>
                <path d="M164.659174,6.06288952 C164.519008,5.74929178 164.168595,5.57507082 163.853223,5.71444759 L161.225124,6.75977337 C160.909752,6.89915014 160.734545,7.24759207 160.874711,7.5611898 L161.295207,8.57167139 C161.435372,8.88526912 161.785785,9.05949008 162.101157,8.92011331 L164.729256,7.87478754 C165.044628,7.73541076 165.219835,7.38696884 165.079669,7.0733711 L164.659174,6.06288952 Z" fill="#FFFFFF"></path>
                <path d="M189.047934,50.3150142 C189.328264,50.2104816 189.433388,49.931728 189.363306,49.6529745 L188.557355,47.4926346 C188.452231,47.213881 188.171901,47.1093484 187.89157,47.1790368 L187.050579,47.4926346 C186.770248,47.5971671 186.665124,47.8759207 186.735207,48.1546742 L187.541157,50.3150142 C187.646281,50.5937677 187.926612,50.6983003 188.206942,50.6286119 L189.047934,50.3150142 Z" fill="#FFFFFF"></path>
                <path d="M208.81124,115.926629 C209.056529,116.170538 209.441983,116.135694 209.687273,115.891785 L211.614545,113.835977 C211.859835,113.592068 211.824793,113.208782 211.579504,112.964873 L210.773554,112.1983 C210.528264,111.954391 210.14281,111.989235 209.897521,112.233144 L207.970248,114.288952 C207.724959,114.532861 207.76,114.916147 208.005289,115.160057 L208.81124,115.926629 Z" fill="#FFFFFF"></path>
                <path d="M189.818843,116.971955 C190.099174,117.041643 190.414545,116.832578 190.449587,116.553824 L190.905124,114.149575 C190.975207,113.870822 190.764959,113.557224 190.484628,113.52238 L189.538512,113.348159 C189.258182,113.27847 188.94281,113.487535 188.907769,113.766289 L188.452231,116.170538 C188.382149,116.449292 188.592397,116.76289 188.872727,116.797734 L189.818843,116.971955 Z" fill="#FFFFFF"></path>
                <path d="M153.375868,78.4691218 C153.516033,78.3645892 153.551074,78.1903683 153.480992,78.0509915 L152.710083,76.866289 C152.604959,76.7269122 152.429752,76.692068 152.289587,76.7617564 L151.83405,77.0753541 C151.693884,77.1798867 151.658843,77.3541076 151.728926,77.4934844 L152.499835,78.678187 C152.604959,78.8175637 152.780165,78.8524079 152.920331,78.7827195 L153.375868,78.4691218 Z" fill="#FFFFFF"></path>
                <path d="M183.020826,82.476204 C183.160992,82.476204 183.266116,82.3368272 183.266116,82.1974504 L183.160992,81.0127479 C183.160992,80.8733711 183.020826,80.7688385 182.880661,80.7688385 L182.425124,80.8036827 C182.284959,80.8036827 182.179835,80.9430595 182.179835,81.0824363 L182.284959,82.2671388 C182.284959,82.4065156 182.425124,82.5110482 182.565289,82.5110482 L183.020826,82.476204 Z" fill="#FFFFFF"></path>
                <path d="M180.638017,75.2983003 C180.74314,75.2983003 180.813223,75.1937677 180.813223,75.0892351 L180.74314,74.2529745 C180.74314,74.1484419 180.638017,74.0787535 180.532893,74.0787535 L180.217521,74.1135977 C180.112397,74.1135977 180.042314,74.2181303 180.042314,74.3226629 L180.112397,75.1589235 C180.112397,75.2634561 180.217521,75.3331445 180.322645,75.3331445 L180.638017,75.2983003 Z" fill="#FFFFFF"></path>
                <path d="M179.096198,74.88017 C179.166281,74.8104816 179.13124,74.6711048 179.061157,74.6362606 L178.360331,74.1832861 C178.290248,74.1135977 178.150083,74.1484419 178.115041,74.2181303 L177.939835,74.4968839 C177.869752,74.5665722 177.904793,74.705949 177.974876,74.7407932 L178.675702,75.1937677 C178.745785,75.2634561 178.88595,75.2286119 178.920992,75.1589235 L179.096198,74.88017 Z" fill="#FFFFFF"></path>
                <path d="M188.031736,55.4371105 L186.56,49.4090652 C186.489917,49.0606232 186.104463,48.8515581 185.75405,48.9212465 C185.403636,48.9909348 185.193388,49.374221 185.263471,49.7226629 L186.279669,53.9736544 C186.279669,53.9736544 186.279669,54.0084986 186.279669,54.0084986 C186.314711,54.4963173 186.069421,54.984136 185.578843,55.1932011 L181.864463,57.4580737 C181.408926,57.7716714 181.26876,58.3988669 181.584132,58.8518414 C181.619174,58.8866856 181.619174,58.9215297 181.654215,58.9563739 L182.249917,60.2107649 C182.425124,60.5592068 182.84562,60.6985836 183.160992,60.5243626 C183.476364,60.3849858 183.616529,60.0365439 183.511405,59.7229462 C183.511405,59.7229462 183.511405,59.688102 183.476364,59.688102 C183.476364,59.6532578 183.476364,59.6532578 183.441322,59.6184136 L183.406281,59.5487252 C183.301157,59.1654391 183.441322,58.782153 183.826777,58.5730878 L187.506116,56.3430595 C187.61124,56.2733711 187.681322,56.2036827 187.751405,56.0991501 C187.996694,55.9249292 188.101818,55.6810198 188.031736,55.4371105 Z" fill="#FFFFFF"></path>
                <path d="M178.745785,72.7895184 C178.430413,72.5107649 178.290248,72.1274788 178.290248,71.7441926 L178.640661,70.8033994 C178.745785,70.4549575 178.570579,70.1065156 178.220165,70.001983 C177.869752,69.8974504 177.519339,70.0716714 177.414215,70.4201133 L176.888595,71.9532578 C176.853554,72.0229462 176.853554,72.0577904 176.853554,72.1274788 C176.818512,72.3016997 176.853554,72.5107649 176.993719,72.6152975 L177.974876,73.5212465 C178.185124,73.7303116 178.535537,73.6954674 178.710744,73.4864023 C178.88595,73.2773371 178.88595,72.9985836 178.745785,72.7895184 Z" fill="#FFFFFF"></path>
                <path d="M176.783471,79.8977337 L176.888595,79.7932011 C177.168926,79.5144476 177.168926,79.0963173 176.888595,78.8175637 L176.047603,77.9464589 C175.767273,77.6677054 175.346777,77.6677054 175.066446,77.9464589 L173.664793,79.3053824 C173.664793,79.3053824 173.664793,79.3053824 173.664793,79.3053824 L170.93157,81.9883853 C170.581157,82.301983 170.581157,82.8594901 170.93157,83.1730878 L172.683636,84.9152975 C172.999008,85.2637394 173.559669,85.2637394 173.875041,84.9152975 L176.608264,82.2322946 C176.958678,81.9186969 176.958678,81.3611898 176.643306,81.0475921 C176.468099,80.7339943 176.50314,80.2461756 176.783471,79.8977337 Z" fill="#FFFFFF"></path>
                <path d="M197.913388,100.97847 L195.84595,97.0759207 C195.600661,96.6229462 195.285289,96.2745042 194.864793,96.0305949 C194.864793,96.0305949 194.829752,96.0305949 194.829752,95.9957507 C194.829752,95.9957507 194.829752,95.9957507 194.794711,95.9957507 C194.759669,95.9957507 194.759669,95.9609065 194.724628,95.9609065 C194.409256,95.7866856 194.199008,95.4730878 194.128926,95.1246459 L194.128926,93.1733711 C194.128926,92.5810198 193.70843,92.0932011 193.112727,91.9886686 C192.762314,91.9189802 192.481983,91.6053824 192.481983,91.2220963 L192.481983,90.2116147 C192.481983,89.7934844 192.13157,89.4450425 191.711074,89.4450425 C191.290579,89.4450425 190.940165,89.7934844 190.940165,90.2116147 L190.940165,93.5566572 C190.905124,93.8005666 190.729917,94.0096317 190.519669,94.1141643 C190.309421,94.2186969 190.099174,94.2186969 189.888926,94.1490085 L188.41719,93.2082153 C188.066777,92.9294618 187.926612,92.5113314 187.996694,92.0932011 C188.101818,91.8144476 188.101818,91.5356941 187.996694,91.2220963 C187.751405,90.5949008 187.050579,90.2813031 186.419835,90.4903683 L178.780826,93.2779037 C178.255207,93.4869688 177.939835,94.0096317 177.974876,94.5671388 C177.939835,94.9504249 177.694545,95.2988669 177.309091,95.4730878 L172.999008,97.0410765 C172.473388,97.2152975 172.158017,97.7379603 172.193058,98.2606232 C172.193058,98.2606232 172.193058,98.2606232 172.193058,98.2606232 L172.193058,106.414164 C172.193058,107.180737 172.78876,107.773088 173.559669,107.773088 C173.559669,107.773088 173.594711,107.773088 173.594711,107.773088 C173.734876,107.773088 173.910083,107.773088 174.050248,107.703399 L181.759339,105.264306 C182.284959,105.055241 182.880661,105.264306 183.196033,105.71728 L184.70281,107.773088 C184.913058,108.051841 185.22843,108.226062 185.543802,108.295751 C185.613884,108.295751 185.683967,108.330595 185.75405,108.330595 C186.209587,108.435127 186.630083,108.783569 186.700165,109.271388 C186.840331,110.351558 187.471074,111.396884 188.487273,111.989235 C190.239339,112.964873 192.446942,112.372521 193.428099,110.630312 L197.492893,103.731161 C198.22876,102.999433 198.403967,101.919263 197.913388,100.97847 Z" fill="#FFFFFF"></path>
                <path d="M121.10281,8.81558074 C121.10281,9.09433428 121.348099,9.30339943 121.62843,9.30339943 L123.906116,9.19886686 C124.186446,9.19886686 124.396694,8.95495751 124.396694,8.67620397 L124.361653,7.80509915 C124.361653,7.52634561 124.116364,7.31728045 123.836033,7.31728045 L121.558347,7.42181303 C121.278017,7.42181303 121.067769,7.66572238 121.067769,7.94447592 L121.10281,8.81558074 Z" fill="#FFFFFF"></path>
                <path d="M120.226777,9.09433428 C120.226777,8.92011331 120.05157,8.78073654 119.876364,8.78073654 L118.404628,8.88526912 C118.229421,8.88526912 118.089256,9.05949008 118.089256,9.23371105 L118.124298,9.79121813 C118.124298,9.96543909 118.299504,10.1048159 118.474711,10.1048159 L119.946446,10.0002833 C120.121653,10.0002833 120.261818,9.82606232 120.261818,9.65184136 L120.226777,9.09433428 Z" fill="#FFFFFF"></path>
                <path d="M197.107438,88.6436261 L195.670744,87.9815864 C195.285289,87.7725212 195.145124,87.3195467 195.285289,86.9014164 C195.495537,86.3787535 195.250248,85.8212465 194.759669,85.5773371 L189.22314,82.9988669 C188.802645,82.7898017 188.312066,82.8943343 188.031736,83.207932 C188.031736,83.207932 187.996694,83.207932 187.996694,83.207932 C187.646281,83.5563739 187.120661,83.6957507 186.665124,83.4866856 L185.473719,82.9291785 C185.158347,82.7898017 184.772893,82.9291785 184.597686,83.2427762 C184.457521,83.5563739 184.597686,83.9396601 184.913058,84.113881 L188.767603,85.8909348 C189.153058,86.0651558 189.328264,86.4832861 189.258182,86.8665722 C189.153058,87.2847025 189.363306,87.7376771 189.74876,87.8770538 L191.816198,88.7830028 C192.201653,88.9223796 192.622149,88.7830028 192.832397,88.4694051 C193.007603,88.086119 193.428099,87.911898 193.813554,88.0164306 L196.721983,89.3753541 C196.932231,89.4798867 197.177521,89.3753541 197.282645,89.166289 C197.387769,88.992068 197.282645,88.7481586 197.107438,88.6436261 Z" fill="#FFFFFF"></path>
            </g>
            <g transform="translate(93.910744, 39.025496)" fill="#FFFFFF" id="Shape">
                <path d="M7.32363636,7.24759207 C7.28859504,7.1082153 7.18347107,7.00368272 7.04330579,6.96883853 C7.00826446,6.96883853 7.00826446,6.93399433 6.97322314,6.93399433 C6.97322314,6.89915014 6.97322314,6.89915014 6.97322314,6.86430595 L7.32363636,6.44617564 C7.5338843,6.20226629 7.49884298,5.85382436 7.25355372,5.64475921 C7.11338843,5.54022663 6.93818182,5.47053824 6.76297521,5.54022663 C6.62280992,5.57507082 6.48264463,5.50538244 6.41256198,5.40084986 L4.8707438,2.99660057 C4.80066116,2.89206799 4.66049587,2.78753541 4.52033058,2.78753541 C4.48528926,2.78753541 4.45024793,2.75269122 4.45024793,2.71784703 C4.41520661,2.68300283 4.41520661,2.64815864 4.41520661,2.61331445 L5.01090909,1.53314448 C5.04595041,1.49830028 5.04595041,1.46345609 5.01090909,1.39376771 C5.01090909,1.39376771 5.01090909,1.35892351 5.01090909,1.35892351 C5.01090909,1.25439093 4.94082645,1.18470255 4.83570248,1.18470255 L3.95966942,1.21954674 C3.9246281,1.21954674 3.88958678,1.18470255 3.88958678,1.18470255 C3.85454545,1.14985836 3.85454545,1.11501416 3.85454545,1.08016997 L3.99471074,0.766572238 C4.06479339,0.592351275 3.99471074,0.383286119 3.81950413,0.313597734 C3.64429752,0.243909348 3.43404959,0.313597734 3.36396694,0.487818697 L2.6631405,2.05580737 C2.62809917,2.09065156 2.62809917,2.16033994 2.62809917,2.19518414 C2.62809917,2.26487252 2.62809917,2.33456091 2.6631405,2.40424929 L3.50413223,3.90254958 C3.6092562,4.07677054 3.78446281,4.11161473 3.95966942,4.04192635 C3.99471074,4.04192635 4.02975207,4.04192635 4.06479339,4.04192635 C4.09983471,4.07677054 4.09983471,4.07677054 4.09983471,4.11161473 C4.06479339,4.18130312 4.06479339,4.2509915 4.06479339,4.35552408 L4.27504132,5.2266289 C4.31008264,5.36600567 4.20495868,5.54022663 4.02975207,5.57507082 C3.85454545,5.60991501 3.74942149,5.74929178 3.74942149,5.92351275 L3.81950413,7.14305949 C3.81950413,7.31728045 3.99471074,7.49150142 4.20495868,7.45665722 C4.20495868,7.45665722 4.24,7.45665722 4.24,7.45665722 C4.27504132,7.45665722 4.31008264,7.45665722 4.34512397,7.52634561 C4.34512397,7.5611898 4.34512397,7.59603399 4.27504132,7.63087819 L3.81950413,7.73541076 C3.6092562,7.77025496 3.50413223,7.97932011 3.53917355,8.18838527 C3.57421488,8.39745042 3.78446281,8.501983 3.99471074,8.46713881 L7.00826446,7.73541076 C7.25355372,7.63087819 7.35867769,7.45665722 7.32363636,7.24759207 Z"></path>
                <path d="M2.31272727,3.58895184 C1.99735537,3.48441926 1.64694215,3.69348442 1.5768595,4.00708215 L1.47173554,4.39036827 C1.43669421,4.46005666 1.36661157,4.52974504 1.2614876,4.52974504 L0.770909091,4.52974504 C0.525619835,4.52974504 0.315371901,4.70396601 0.315371901,4.94787535 C0.315371901,5.1917847 0.490578512,5.40084986 0.735867769,5.40084986 L0.770909091,5.40084986 C0.805950413,5.40084986 0.840991736,5.43569405 0.876033058,5.47053824 C0.91107438,5.50538244 0.91107438,5.54022663 0.876033058,5.60991501 C0.876033058,5.60991501 0.876033058,5.60991501 0.876033058,5.60991501 L0.525619835,6.27195467 C0.525619835,6.27195467 0.525619835,6.27195467 0.525619835,6.27195467 C0.525619835,6.30679887 0.490578512,6.30679887 0.45553719,6.30679887 L0.420495868,6.30679887 C0.175206612,6.37648725 0.0700826446,6.6203966 0.140165289,6.86430595 C0.210247934,7.1082153 0.45553719,7.21274788 0.700826446,7.14305949 L2.38280992,6.58555241 C2.45289256,6.58555241 2.52297521,6.51586402 2.52297521,6.44617564 L2.73322314,5.26147309 C2.73322314,5.1917847 2.69818182,5.12209632 2.62809917,5.08725212 C2.59305785,5.05240793 2.59305785,5.05240793 2.59305785,5.01756374 L2.76826446,4.39036827 C2.80330579,4.04192635 2.62809917,3.69348442 2.31272727,3.58895184 Z"></path>
            </g>
        </g>
    </g>
</svg>