<?xml version="1.0" encoding="UTF-8"?>
<svg width="230px" height="230px" viewBox="0 0 230 230" version="1.1" xmlns="http://www.w3.org/2000/svg" xmlns:xlink="http://www.w3.org/1999/xlink">
    <!-- Generator: Sketch 50.2 (55047) - http://www.bohemiancoding.com/sketch -->
    <title>Artboard 2 Copy 6</title>
    <desc>Created with Sketch.</desc>
    <defs></defs>
    <g id="Artboard-2-Copy-6" stroke="none" stroke-width="1" fill="none" fill-rule="evenodd">
        <path d="M20,180.89825 C27.4604193,159.840739 35.0139345,138.815109 42.3468253,117.712962 C46.8670742,104.705689 52.3182815,92.2136315 60.8493029,81.2799725 C74.8532113,63.3303312 93.5877908,54.9242877 116.041102,54.065383 C132.357103,53.4417685 148.136847,56.6204173 163.803727,60.6764623 C166.778968,61.4467347 169.788641,62.0977679 172.802141,62.7067166 C178.153238,63.7881586 183.124938,62.9891923 187.592263,59.6428435 C191.92632,56.395967 196.282057,53.1745962 200.69837,50.0405825 C202.595357,48.6945188 204.584165,47.4090311 206.696675,46.4646823 C207.795333,45.9736975 210.009229,45.7804917 210.382887,46.3422549 C211.069628,47.3739608 211.154435,49.1772143 210.779501,50.4493114 C210.315935,52.0211006 209.273389,53.4946928 208.227655,54.8095121 C201.693093,63.023625 193.962313,69.9229188 185.175597,75.6693546 C181.937647,77.7863283 178.88844,78.158074 175.033252,76.8534571 C163.899374,73.0862641 152.769958,68.9843088 141.311519,66.5682807 C120.961153,62.2775831 101.266284,64.4997678 83.7757453,76.8693981 C69.4938246,86.9702958 62.3171563,101.263694 60.0312073,118.42776 C55.0135971,156.099689 86.8950933,181.369468 116.340795,183.636926 C131.134742,184.776393 144.645753,181.606034 155.094804,170.58438 C166.796184,158.241531 171.79339,143.321967 168.694447,126.377889 C165.545129,109.160899 151.530381,96.8269763 134.039205,94.682584 C123.367617,93.3741412 113.505198,94.7597387 104.890007,101.657757 C95.0065458,109.570265 90.4544147,123.025801 93.8715418,134.108031 C97.0890868,144.54114 108.414258,152.072338 119.22549,150.969216 C131.216361,149.74558 138.585597,136.61843 133.757367,125.113443 C132.939271,123.164807 131.850177,121.225736 131.572165,119.189105 C131.354729,117.597549 131.675463,115.09799 132.70972,114.387018 C133.930805,113.547243 136.507519,113.568922 137.919898,114.312414 C144.031703,117.530596 147.004393,122.958849 147.656064,129.757395 C149.194696,145.814513 135.530651,161.957075 119.786616,162.658482 C100.944274,163.497619 83.0826277,148.301319 80.621327,129.478107 C78.2295293,111.190515 87.0532287,98.3063073 101.074991,88.5210428 C116.379691,77.8398903 132.740327,78.2511698 149.062066,86.3945044 C167.910784,95.7984587 184.168121,117.763336 181.182041,143.967899 C179.283141,160.628865 171.326636,174.394295 158.587172,185.090113 C150.640232,191.762406 140.527219,193.163307 130.532808,194.197564 C124.945782,194.775268 119.333889,195.116407 113.733474,195.564032 L86.3148385,195.564032 C85.2697421,195.421838 84.2284716,195.184635 83.1795494,195.152115 C72.3574779,194.814802 61.5303052,194.594177 50.7120596,194.167595 C44.1417894,193.908074 37.5676934,193.506997 31.0261172,192.861065 C26.5505032,192.418541 22.1348277,191.430832 20,186.637035 L20,180.89825 Z" id="Fill-1" fill="#FEFEFE"></path>
    </g>
</svg>