<svg width="230" height="230" viewBox="0 0 230 230" xmlns="http://www.w3.org/2000/svg"><title>246DB110-9888-41E6-9FC9-27D3F71EBFC6</title><g fill="#FFF" fill-rule="evenodd"><path d="M174.245 26H46.755c-.823 0-1.47.65-1.47 1.476v76.104a1.46 1.46 0 0 0 1.47 1.476h58.995v27.31c-5.367 7.2-8.337 16.747-8.337 27.223 0 7.879.442 14.149 1.926 18.99l-.015.015V195h41.349v-16.408l17.322-53.381c.603-1.137 1-2.376 1.19-3.675l.148-.428-.088.03c.103-.872.118-1.771 0-2.686l-2.895-13.396h17.896c.824 0 1.471-.65 1.471-1.476V27.476A1.462 1.462 0 0 0 174.245 26zm-17.895 92.926a8.883 8.883 0 0 1-.03 1.874c0 .045 0 .103-.015.148a.523.523 0 0 1-.03.148 8.475 8.475 0 0 1-.881 2.744c-.073.148-.148.295-.191.458L137.88 177.68a2.77 2.77 0 0 0-.148.915v13.456h-35.467v-13.353a3.109 3.109 0 0 0-.118-.975c-1.235-4.057-1.795-9.65-1.795-18.133 0-9.723 2.75-18.754 7.75-25.452a2.978 2.978 0 0 0 .587-1.77V95.215c0-.133 0-.265.015-.398.206-4.59 4-8.262 8.631-8.262 4.647 0 8.44 3.703 8.616 8.262.015.103.015.221.015.34l-.058 2.612-.103 4.337-.058 2.952-.308 13.101c0 3.779 3.058 6.847 6.823 6.847 3.75 0 6.823-3.068 6.823-6.847 0-.251 0-.264-1.853-13.1h16.117l3 13.867zm-27.454-24.111c-.19-5.917-4.852-10.726-10.676-11.184 6.999-3.01 11.911-9.99 11.911-18.104 0-10.859-8.809-19.698-19.631-19.698-10.822 0-19.631 8.839-19.631 19.698 0 10.86 8.809 19.698 19.631 19.698.339 0 .676-.015 1.014-.03-3.338 1.947-5.618 5.519-5.749 9.62h-36.85c-.69-7.111-6.339-12.778-13.426-13.471V49.726c7.087-.693 12.735-6.373 13.426-13.486h83.155c.706 7.11 6.367 12.79 13.456 13.486v31.62c-7.102.693-12.764 6.36-13.456 13.47h-23.174v-.001zM110.5 82.275c-9.206 0-16.69-7.51-16.69-16.746 0-9.237 7.484-16.746 16.69-16.746 9.206 0 16.69 7.51 16.69 16.746 0 9.237-7.484 16.746-16.69 16.746zm25.646 35.883a3.894 3.894 0 0 1-3.881 3.894 3.884 3.884 0 0 1-3.882-3.894l.31-13.102h5.587c.659 4.618 1.866 13.058 1.866 13.102zm36.63-16.054h-44.028l.103-4.337h24.617c.808 0 1.47-.665 1.47-1.476 0-6.655 5.413-12.069 12.059-12.069.808 0 1.47-.664 1.47-1.476V48.323c0-.811-.662-1.476-1.47-1.476-6.633 0-12.043-5.43-12.058-12.083 0-.812-.663-1.476-1.471-1.476h-85.95a1.54 1.54 0 0 0-1.043.428 1.53 1.53 0 0 0-.427 1.048c0 6.654-5.397 12.083-12.028 12.083-.808 0-1.47.665-1.47 1.476v34.423c0 .812.662 1.476 1.47 1.476 6.633 0 12.028 5.416 12.028 12.069 0 .811.662 1.476 1.47 1.476h38.234v4.337H48.224V28.952h124.55v73.152h.002z"/><path d="M102.075 124.916v-16.421H83.046c-4.087 0-7.44 3.363-7.44 7.48v1.477c0 4.1 3.351 7.466 7.44 7.466h19.029v-.002zm-23.528-7.466v-1.476c0-2.494 2.014-4.53 4.5-4.53h16.086v10.52H83.046a4.506 4.506 0 0 1-4.499-4.514zM87.472 128.147c-4.087 0-7.44 3.363-7.44 7.466v1.476c0 4.101 3.351 7.466 7.44 7.466h7.072l6.058-16.408h-13.13zm5.016 13.457h-5.014a4.506 4.506 0 0 1-4.499-4.515v-1.476a4.506 4.506 0 0 1 4.499-4.514h8.912l-3.898 10.505z"/></g></svg>