<?xml version="1.0" encoding="UTF-8" standalone="no"?>
<svg width="230px" height="230px" viewBox="0 0 230 230" version="1.1" xmlns="http://www.w3.org/2000/svg" xmlns:xlink="http://www.w3.org/1999/xlink">
    <!-- Generator: Sketch 39.1 (31720) - http://www.bohemiancoding.com/sketch -->
    <title>10</title>
    <desc>Created with Sketch.</desc>
    <defs></defs>
    <g id="Page-1" stroke="none" stroke-width="1" fill="none" fill-rule="evenodd">
        <g id="10" transform="translate(-1048.000000, -454.000000)" fill="#FFFFFF">
            <g id="noun_906455_cc" transform="translate(643.000000, 454.000000)">
                <g id="Group-11" transform="translate(440.000000, 25.000000)">
                    <g id="19--Sunglasses--(Outline)">
                        <g id="Group">
                            <g id="Shape">
                                <path d="M110.7,5.52380952 L51.3,5.52380952 C49.68,5.52380952 48.6,4.41904762 48.6,2.76190476 C48.6,1.1047619 49.68,0 51.3,0 L110.7,0 C112.32,0 113.4,1.1047619 113.4,2.76190476 C113.4,4.41904762 112.32,5.52380952 110.7,5.52380952 L110.7,5.52380952 Z"></path>
                                <path d="M28.89,5.52380952 C18.9,5.52380952 10.8,13.8095238 10.8,24.0285714 L10.8,32.8666667 C10.8,38.3904762 13.23,43.3619048 17.28,46.952381 C21.33,50.5428571 26.73,51.9238095 31.86,51.0952381 L55.89,46.952381 C64.26,45.5714286 70.2,38.1142857 70.2,29.552381 L70.2,23.2 C70.2,13.5333333 62.37,5.52380952 52.92,5.52380952 L28.89,5.52380952 L28.89,5.52380952 Z M28.89,56.8952381 C23.49,56.8952381 18.09,54.9619048 13.77,51.0952381 C8.37,46.4 5.4,39.7714286 5.4,32.5904762 L5.4,24.0285714 C5.4,10.7714286 15.93,0 28.89,0 L52.92,0 C65.34,0 75.6,10.4952381 75.6,23.2 L75.6,29.8285714 C75.6,41.152381 67.77,50.8190476 56.7,52.752381 L32.67,56.8952381 L28.89,56.8952381 L28.89,56.8952381 L28.89,56.8952381 Z"></path>
                                <path d="M18.9,26.7904762 C17.28,26.7904762 16.2,25.6857143 16.2,24.0285714 C16.2,16.847619 21.87,11.047619 28.89,11.047619 C30.51,11.047619 31.59,12.152381 31.59,13.8095238 C31.59,15.4666667 30.51,16.5714286 28.89,16.5714286 C24.84,16.5714286 21.6,19.8857143 21.6,24.0285714 C21.6,25.6857143 20.52,26.7904762 18.9,26.7904762"></path>
                                <path d="M106.11,46.952381 L130.14,51.0952381 C135.54,51.9238095 140.67,50.5428571 144.72,46.952381 C148.77,43.3619048 151.2,38.3904762 151.2,32.8666667 L151.2,24.0285714 C151.2,13.8095238 143.1,5.52380952 133.11,5.52380952 L109.08,5.52380952 C99.63,5.52380952 91.8,13.5333333 91.8,23.2 L91.8,29.8285714 C91.8,38.3904762 97.74,45.5714286 106.11,46.952381 M133.11,56.8952381 C131.76,56.8952381 130.41,56.8952381 129.33,56.6190476 L105.3,52.4761905 C94.23,50.5428571 86.4,41.152381 86.4,29.552381 L86.4,23.2 C86.4,10.4952381 96.66,0 109.08,0 L133.11,0 C146.07,0 156.6,10.7714286 156.6,24.0285714 L156.6,32.8666667 C156.6,40.047619 153.63,46.6761905 148.23,51.3714286 C143.91,54.9619048 138.51,56.8952381 133.11,56.8952381"></path>
                                <path d="M8.1,27.6190476 L2.7,27.6190476 C1.08,27.6190476 0,26.5142857 0,24.8571429 C0,23.2 1.08,22.0952381 2.7,22.0952381 L8.1,22.0952381 C9.72,22.0952381 10.8,23.2 10.8,24.8571429 C10.8,26.5142857 9.72,27.6190476 8.1,27.6190476"></path>
                                <path d="M159.3,27.6190476 L153.9,27.6190476 C152.28,27.6190476 151.2,26.5142857 151.2,24.8571429 C151.2,23.2 152.28,22.0952381 153.9,22.0952381 L159.3,22.0952381 C160.92,22.0952381 162,23.2 162,24.8571429 C162,26.5142857 160.92,27.6190476 159.3,27.6190476"></path>
                                <path d="M90.45,18.7809524 C90.18,18.7809524 89.64,18.7809524 89.37,18.5047619 C84.24,16.0190476 78.03,16.0190476 72.9,18.5047619 C71.55,19.0571429 69.93,18.5047619 69.39,17.1238095 C68.85,15.7428571 69.39,14.0857143 70.74,13.5333333 C77.22,10.2190476 85.32,10.2190476 91.8,13.5333333 C93.15,14.0857143 92.88,15.7428571 92.34,17.1238095 C91.53,18.2285714 91.26,18.7809524 90.45,18.7809524"></path>
                            </g>
                        </g>
                    </g>
                    <g id="68--Shorts--(Outline)" transform="translate(11.000000, 83.000000)">
                        <g id="Group">
                            <g id="Shape">
                                <g>
                                    <path d="M11.75,24.4883721 L129.25,24.4883721 C130.547869,24.4883721 131.6,23.4367619 131.6,22.1395349 L131.6,3.34883721 C131.6,2.05161024 130.547869,1 129.25,1 L11.75,1 C10.4521308,1 9.4,2.05161024 9.4,3.34883721 L9.4,22.1395349 C9.4,23.4367619 10.4521308,24.4883721 11.75,24.4883721 L11.75,24.4883721 Z M14.1,19.7906977 L14.1,5.69767442 L126.9,5.69767442 L126.9,19.7906977 L14.1,19.7906977 L14.1,19.7906977 Z"></path>
                                    <path d="M68.15,22.1388302 L68.15,55.0225512 C68.15,55.2750091 68.1907206,55.5258161 68.2705942,55.7653188 L80.0205942,90.9978769 C80.3404621,91.957006 81.2384886,92.6039465 82.25,92.6039465 L136.3,92.6039465 C137.693513,92.6039465 138.780917,91.3988455 138.637526,90.0134158 L131.587526,21.8971369 C131.46361,20.6998755 130.454246,19.789993 129.25,19.789993 L70.5,19.789993 C69.202131,19.789993 68.15,20.8416033 68.15,22.1388302 L68.15,22.1388302 Z M127.130562,24.4876674 L133.694356,87.9062721 L83.9437841,87.9062721 L72.85,54.6413873 L72.85,24.4876674 L127.130562,24.4876674 L127.130562,24.4876674 Z"></path>
                                    <path d="M70.5,19.789993 L11.75,19.789993 C10.5457535,19.789993 9.53639022,20.6998755 9.41247429,21.8971369 L2.36247428,90.0134158 C2.21908302,91.3988455 3.30648742,92.6039465 4.7,92.6039465 L58.75,92.6039465 C59.7615114,92.6039465 60.6595379,91.957006 60.9794058,90.9978769 L72.7294058,55.7653188 C72.8092794,55.5258161 72.85,55.2750091 72.85,55.0225512 L72.85,22.1388302 C72.85,20.8416033 71.797869,19.789993 70.5,19.789993 L70.5,19.789993 Z M68.15,54.6413873 L57.0562159,87.9062721 L7.3056443,87.9062721 L13.8694374,24.4876674 L68.15,24.4876674 L68.15,54.6413873 L68.15,54.6413873 Z"></path>
                                    <path d="M82.25,97.3016209 L82.25,92.6039465 L136.3,92.6039465 L136.3,97.3016209 L82.25,97.3016209 L82.25,97.3016209 Z M136.3,101.999295 C138.895069,101.999295 141,99.8954059 141,97.3016209 L141,92.6039465 C141,90.0101615 138.895069,87.9062721 136.3,87.9062721 L82.25,87.9062721 C79.654931,87.9062721 77.55,90.0101615 77.55,92.6039465 L77.55,97.3016209 C77.55,99.8954059 79.654931,101.999295 82.25,101.999295 L136.3,101.999295 L136.3,101.999295 Z"></path>
                                    <path d="M4.7,97.3016209 L4.7,92.6039465 L58.75,92.6039465 L58.75,97.3016209 L4.7,97.3016209 L4.7,97.3016209 Z M58.75,101.999295 C61.345069,101.999295 63.45,99.8954059 63.45,97.3016209 L63.45,92.6039465 C63.45,90.0101615 61.345069,87.9062721 58.75,87.9062721 L4.7,87.9062721 C2.10493084,87.9062721 0,90.0101615 0,92.6039465 L0,97.3016209 C0,99.8954059 2.10493084,101.999295 4.7,101.999295 L58.75,101.999295 L58.75,101.999295 Z"></path>
                                    <path d="M37.6,3.34813256 L37.6,22.1388302 C37.6,23.4360572 38.652131,24.4876674 39.95,24.4876674 C41.247869,24.4876674 42.3,23.4360572 42.3,22.1388302 L42.3,3.34813256 C42.3,2.05090559 41.247869,0.999295349 39.95,0.999295349 C38.652131,0.999295349 37.6,2.05090559 37.6,3.34813256 L37.6,3.34813256 Z"></path>
                                    <path d="M68.15,3.34813256 L68.15,22.1388302 C68.15,23.4360572 69.202131,24.4876674 70.5,24.4876674 C71.797869,24.4876674 72.85,23.4360572 72.85,22.1388302 L72.85,3.34813256 C72.85,2.05090559 71.797869,0.999295349 70.5,0.999295349 C69.202131,0.999295349 68.15,2.05090559 68.15,3.34813256 L68.15,3.34813256 Z"></path>
                                    <path d="M96.35,3.34813256 L96.35,22.1388302 C96.35,23.4360572 97.402131,24.4876674 98.7,24.4876674 C99.997869,24.4876674 101.05,23.4360572 101.05,22.1388302 L101.05,3.34813256 C101.05,2.05090559 99.997869,0.999295349 98.7,0.999295349 C97.402131,0.999295349 96.35,2.05090559 96.35,3.34813256 L96.35,3.34813256 Z"></path>
                                    <path d="M25.85,62.0697674 L54.05,62.0697674 C55.347869,62.0697674 56.4,61.0181571 56.4,59.7209302 L56.4,40.9302326 C56.4,39.6330057 55.347869,38.5813953 54.05,38.5813953 L25.85,38.5813953 C24.5521308,38.5813953 23.5,39.6330057 23.5,40.9302326 L23.5,59.7209302 C23.5,61.0181571 24.5521308,62.0697674 25.85,62.0697674 L25.85,62.0697674 Z M28.2,43.2790698 L51.7,43.2790698 L51.7,57.372093 L28.2,57.372093 L28.2,43.2790698 L28.2,43.2790698 Z"></path>
                                    <path d="M25.85,43.2790698 L54.05,43.2790698 C55.347869,43.2790698 56.4,42.2274594 56.4,40.9302326 L56.4,31.5348837 C56.4,30.2376569 55.347869,29.1860465 54.05,29.1860465 L25.85,29.1860465 C24.5521308,29.1860465 23.5,30.2376569 23.5,31.5348837 L23.5,40.9302326 C23.5,42.2274594 24.5521308,43.2790698 25.85,43.2790698 L25.85,43.2790698 Z M28.2,33.8837209 L51.7,33.8837209 L51.7,38.5813953 L28.2,38.5813953 L28.2,33.8837209 L28.2,33.8837209 Z"></path>
                                    <path d="M86.95,62.0697674 L115.15,62.0697674 C116.447869,62.0697674 117.5,61.0181571 117.5,59.7209302 L117.5,40.9302326 C117.5,39.6330057 116.447869,38.5813953 115.15,38.5813953 L86.95,38.5813953 C85.652131,38.5813953 84.6,39.6330057 84.6,40.9302326 L84.6,59.7209302 C84.6,61.0181571 85.652131,62.0697674 86.95,62.0697674 L86.95,62.0697674 Z M89.3,57.372093 L89.3,43.2790698 L112.8,43.2790698 L112.8,57.372093 L89.3,57.372093 L89.3,57.372093 Z"></path>
                                    <path d="M86.95,43.2790698 L115.15,43.2790698 C116.447869,43.2790698 117.5,42.2274594 117.5,40.9302326 L117.5,31.5348837 C117.5,30.2376569 116.447869,29.1860465 115.15,29.1860465 L86.95,29.1860465 C85.652131,29.1860465 84.6,30.2376569 84.6,31.5348837 L84.6,40.9302326 C84.6,42.2274594 85.652131,43.2790698 86.95,43.2790698 L86.95,43.2790698 Z M89.3,38.5813953 L89.3,33.8837209 L112.8,33.8837209 L112.8,38.5813953 L89.3,38.5813953 L89.3,38.5813953 Z"></path>
                                </g>
                            </g>
                        </g>
                    </g>
                </g>
            </g>
        </g>
    </g>
</svg>