<svg xmlns="http://www.w3.org/2000/svg" width="211" height="210" viewBox="0 0 211 210">
    <path fill="#FFF" fill-rule="evenodd" d="M11.888 85.088v-72.74c0-1.15.966-2.087 2.152-2.087h29.697v39.998c0 4.604 3.859 8.348 8.608 8.348h105.458c4.746 0 8.609-3.744 8.609-8.348V10.261h12l20.563 22.24v52.585H11.888v.002zm187.087 110.564c0 1.15-.966 2.087-2.152 2.087H14.04c-1.186 0-2.152-.937-2.152-2.087V164.16h187.087v31.492zm-187.087-37.75h187.087V91.349H11.888v66.553zM63.384 10.26v42.085H52.345c-1.19 0-2.152-.935-2.152-2.087V10.261h13.19zm63.57 33.564h9.504c2.973 0 5.38-2.598 5.38-5.806V10.261h18.117v39.998c0 1.152-.966 2.087-2.152 2.087H69.84V10.261h51.734v27.758c0 3.208 2.409 5.806 5.38 5.806zM181.297 4H14.04C9.295 4 5.43 7.746 5.43 12.348v183.304c0 4.602 3.864 8.348 8.609 8.348h182.783c4.745 0 8.608-3.746 8.608-8.348V30.108L181.296 4zm-29.28 109.648v10.679h10.685v6.165h-10.685v10.724h-6.519v-10.724h-10.69v-6.165h10.69v-10.68h6.52zm-44.54 0v10.679h10.685v6.165h-10.685v10.724h-6.519v-10.724h-10.69v-6.165h10.69v-10.68h6.519zm-39.762 14.675h10.429c-.312 4.38-1.9 7.78-4.772 10.195-2.87 2.417-6.764 3.623-11.664 3.623-5.499 0-9.82-1.561-12.97-4.685-3.15-3.122-4.725-7.4-4.725-12.835 0-5.42 1.56-9.694 4.68-12.824 3.117-3.133 7.372-4.696 12.761-4.696 4.965 0 8.873 1.163 11.723 3.487 2.845 2.325 4.442 5.648 4.784 9.968H67.414c-.155-1.7-.723-2.985-1.702-3.85-.975-.865-2.35-1.299-4.119-1.299-2.156 0-3.775.764-4.855 2.294-1.08 1.525-1.619 3.833-1.619 6.918 0 3.026.577 5.315 1.724 6.864 1.147 1.55 2.832 2.325 5.053 2.325 1.707 0 3.06-.474 4.066-1.424.994-.945 1.58-2.3 1.752-4.06z"/>
</svg>
