<svg width="230" height="230" viewBox="0 0 230 230" xmlns="http://www.w3.org/2000/svg"><title>93B8965A-ADE2-4BC5-9DFE-72043EB1F3CB</title><g fill="#FFF" fill-rule="evenodd"><path d="M186.61 25H45.56C35.165 25 27 33.171 27 43.571v115.886c0 10.4 8.166 18.572 18.56 18.572H92.7l-5.197 17.828h-7.052c-2.227 0-3.712 1.486-3.712 3.714 0 2.229 1.485 3.715 3.712 3.715h72.01c2.227 0 3.712-1.486 3.712-3.715 0-2.228-1.485-3.714-3.712-3.714h-7.053l-5.196-17.828h47.14c10.394 0 18.56-8.172 18.56-18.572V43.571C205.169 33.171 197.003 25 186.61 25zM34.424 43.571c0-6.314 4.825-11.142 11.135-11.142H186.61c6.31 0 11.136 4.828 11.136 11.142v94.343H34.424V43.571zm102.818 152.286H94.927l5.197-17.828h31.55l5.568 17.828zm60.504-36.4c0 6.314-4.826 11.143-11.136 11.143H45.56c-6.31 0-11.136-4.829-11.136-11.143v-14.486h163.322v14.486z"/><path d="M147.836 49h-62.6C80.625 49 77 52.627 77 57.242v51.431c0 4.616 3.624 8.242 8.237 8.242h20.921l-2.306 7.913h-3.13c-.989 0-1.647.659-1.647 1.648 0 .99.658 1.648 1.647 1.648h31.958c.989 0 1.648-.659 1.648-1.648 0-.989-.66-1.648-1.648-1.648h-3.13l-2.306-7.913h20.922c4.612 0 8.236-3.626 8.236-8.242v-51.43c-.33-4.616-3.953-8.243-8.566-8.243zm-67.541 8.242c0-2.802 2.141-4.945 4.942-4.945h62.6c2.8 0 4.941 2.143 4.941 4.945v41.87H80.295v-41.87zm45.631 67.586h-18.78l2.307-7.913h14.002l2.471 7.913zm26.852-16.155c0 2.802-2.141 4.945-4.942 4.945h-62.6c-2.8 0-4.941-2.143-4.941-4.945v-6.429h72.483v6.429z"/><path d="M130.332 60h-26.805c-1.975 0-3.527 1.558-3.527 3.542v22.1c0 1.983 1.552 3.541 3.527 3.541h8.958l-.987 3.4h-1.34c-.424 0-.706.284-.706.709s.282.708.706.708h13.684c.424 0 .706-.283.706-.708s-.282-.709-.706-.709h-1.34l-.987-3.4h8.958c1.975 0 3.527-1.558 3.527-3.541v-22.1c-.141-1.984-1.693-3.542-3.668-3.542zm-28.921 3.542c0-1.205.917-2.125 2.116-2.125h26.805c1.2 0 2.116.92 2.116 2.125v17.991h-31.037V63.542zm19.54 29.041h-8.042l.987-3.4h5.996l1.058 3.4zm11.497-6.941c0 1.204-.917 2.125-2.116 2.125h-26.805c-1.2 0-2.116-.921-2.116-2.125v-2.763h31.037v2.763zM116.764 168.543c5.94 0 10.765-4.829 10.765-10.772 0-5.942-4.826-10.771-10.765-10.771-5.939 0-10.764 4.829-10.764 10.771 0 5.943 4.825 10.772 10.764 10.772zm0-14.114a3.328 3.328 0 0 1 3.341 3.342 3.328 3.328 0 0 1-3.34 3.343 3.328 3.328 0 0 1-3.341-3.343 3.328 3.328 0 0 1 3.34-3.342zM116.777 112.56a4.782 4.782 0 0 0 4.778-4.78 4.782 4.782 0 0 0-4.778-4.78 4.782 4.782 0 0 0-4.777 4.78 4.782 4.782 0 0 0 4.777 4.78zm0-6.263c.824 0 1.483.66 1.483 1.483 0 .825-.659 1.484-1.483 1.484-.823 0-1.482-.66-1.482-1.484s.659-1.483 1.482-1.483z"/></g></svg>
