<svg width="230" height="230" viewBox="0 0 230 230" xmlns="http://www.w3.org/2000/svg"><title>33D75F0F-2781-4B12-B62F-5E56D1AD5C99</title><g fill="none" fill-rule="evenodd"><g stroke="#FFF" stroke-width="4"><path d="M66.905 47c6.943 0 12.572 5.62 12.572 12.55 0 6.932-5.63 12.552-12.572 12.552-6.942 0-12.57-5.62-12.57-12.551 0-6.932 5.628-12.551 12.57-12.551zM115.248 74.384a3.434 3.434 0 0 0-3.94-2.833L85.806 75.69c-4.47-.333-8.946-.63-13.416-1.003-5.845-.487-12.254-1.519-18.086-.54-7.463 1.25-10.861 7.734-13.839 13.92-3.216 6.676-5.605 14.265-7.012 21.543-1.518 7.85-.766 15.739-.092 23.62.562 6.585 1.111 13.171 1.632 19.762.038.501.789 4.423.392 4.739L5.74 181.33a4.611 4.611 0 0 0-1.062 6.013 4.623 4.623 0 0 0 6.353 1.532l36.024-21.962c1.646-1.02 2.834-2.795 3.004-4.869l.087-1.06 1.78-21.63 11.716 14.768 6.966 31.627a4.624 4.624 0 0 0 4.814 3.615 4.615 4.615 0 0 0 4.318-4.903l-2.223-34.521a4.74 4.74 0 0 0-.593-2.01l-.56-1-16.437-29.43c2.204-6.764 4.58-15.856 5.912-22.87a236.373 236.373 0 0 0 5.072 3.184c2.4 1.433 4.796 2.864 7.294 4.147l.888.457a4.27 4.27 0 0 0 3.157.295l18.721-5.512a3.847 3.847 0 0 0 2.73-4.169 3.852 3.852 0 0 0-4.301-3.336l-16.723 2.105c-1.761-1.332-3.567-2.594-5.378-3.855a225.216 225.216 0 0 0-3.002-2.017l11.265.839.366.028a3.53 3.53 0 0 0 1.36-.17l25.644-8.437a3.428 3.428 0 0 0 2.316-3.806z"/></g><g fill="#FFF"><path d="M160.585 52.485h8.364c.226 0 .452.225.452.45v1.278c0 .226-.226.451-.452.451h-8.364c-.226 0-.452-.225-.452-.45V52.86c0-.226.15-.376.452-.376M218.383 97.868c0 4.133-3.391 7.514-7.536 7.514h-1.959v7.288l-10.248-7.288h-21.477c-4.144 0-7.535-3.381-7.535-7.514v-21.64c0-4.132 3.39-7.513 7.535-7.513h33.684c4.145 0 7.536 3.381 7.536 7.514v21.64zm-7.536-32.159h-33.684c-5.802 0-10.55 4.734-10.55 10.52v21.714c0 5.786 4.748 10.52 10.55 10.52h20.497l10.098 7.138c1.205.826 2.863.601 3.692-.601.302-.451.452-.977.452-1.503v-5.034c5.35-.526 9.42-5.11 9.495-10.444v-21.79c0-5.786-4.747-10.52-10.55-10.52zM132.1 117.404l-6.707 4.734v-4.734h-1.808a4.881 4.881 0 0 1-4.898-4.884V97.267a4.881 4.881 0 0 1 4.898-4.884h23.812a4.881 4.881 0 0 1 4.899 4.884v15.328a4.881 4.881 0 0 1-4.899 4.884H132.1v-.075zm23.21-4.884V97.267c0-4.358-3.542-7.89-7.913-7.89H123.66c-4.37 0-7.912 3.532-7.912 7.89v15.328c0 3.908 2.863 7.214 6.707 7.74v3.155c0 1.278 1.055 2.33 2.26 2.33.452 0 .98-.15 1.357-.451l7.008-4.96h14.393c4.37 0 7.837-3.53 7.837-7.889z"/><path d="M208.963 75.402h-28.635a1.51 1.51 0 0 0-1.507 1.503 1.51 1.51 0 0 0 1.507 1.503h28.635a1.51 1.51 0 0 0 1.508-1.503 1.51 1.51 0 0 0-1.508-1.503M208.963 84.043h-20.346a1.51 1.51 0 0 0-1.507 1.503 1.51 1.51 0 0 0 1.507 1.502h20.346a1.51 1.51 0 0 0 1.508-1.502 1.51 1.51 0 0 0-1.508-1.503M208.963 92.684H182.74a1.51 1.51 0 0 0-1.507 1.503 1.51 1.51 0 0 0 1.507 1.502h26.224a1.51 1.51 0 0 0 1.508-1.502 1.51 1.51 0 0 0-1.508-1.503M127.579 103.955h-2.94a1.51 1.51 0 0 0-1.506 1.502 1.51 1.51 0 0 0 1.507 1.503h2.939a1.51 1.51 0 0 0 1.507-1.503 1.51 1.51 0 0 0-1.507-1.502M136.998 103.955h-2.939a1.51 1.51 0 0 0-1.507 1.502 1.51 1.51 0 0 0 1.507 1.503H137a1.51 1.51 0 0 0 1.506-1.503 1.51 1.51 0 0 0-1.507-1.502M148 105.457a1.51 1.51 0 0 0-1.507-1.502h-2.939a1.51 1.51 0 0 0-1.507 1.502 1.51 1.51 0 0 0 1.507 1.503h2.94a1.51 1.51 0 0 0 1.506-1.503M139.334 54.89a4.881 4.881 0 0 1 4.899-4.884h41.069a4.881 4.881 0 0 1 4.898 4.883v6.913h3.014V54.89c0-4.358-3.542-7.889-7.912-7.889h-41.07c-4.37 0-7.912 3.531-7.912 7.89v30.58h3.014V54.89zM190.2 135.287a4.881 4.881 0 0 1-4.898 4.884h-41.07a4.881 4.881 0 0 1-4.898-4.884v-10.97h-3.014v10.97c0 4.358 3.542 7.89 7.913 7.89h41.069c4.37 0 7.912-3.532 7.912-7.89v-22.992H190.2v22.992z"/><path d="M185.754 123.941v-11.646h-3.015v11.646a.594.594 0 0 1-.602.601h-34.74a.685.685 0 0 1-.527-.225h-3.165a3.492 3.492 0 0 0 3.617 3.23h34.74c2.034 0 3.692-1.577 3.692-3.606M185.754 61.802v-1.127c0-2.029-1.658-3.607-3.617-3.607h-34.74a3.613 3.613 0 0 0-3.617 3.607v24.72h3.015V60.75c0-.375.301-.6.602-.6h34.74c.376 0 .602.3.602.6v1.127h3.015v-.075zM167.894 133.634c0 1.728-1.356 3.08-3.09 3.08-1.732 0-3.089-1.352-3.089-3.08s1.357-3.08 3.09-3.08c1.658 0 3.014 1.352 3.09 3.08m-7.762 0a4.56 4.56 0 0 0 4.596 4.583 4.56 4.56 0 0 0 4.597-4.583 4.56 4.56 0 0 0-4.597-4.583h-.075c-2.487 0-4.521 2.028-4.521 4.583"/></g></g></svg>
