<svg xmlns="http://www.w3.org/2000/svg" width="585" height="260" viewBox="0 0 585 260">
    <defs>
        <filter id="a" width="102.4%" height="105.8%" x="-1.2%" y="-2.3%" filterUnits="objectBoundingBox">
            <feOffset dy="2" in="SourceAlpha" result="shadowOffsetOuter1"/>
            <feGaussianBlur in="shadowOffsetOuter1" result="shadowBlurOuter1" stdDeviation="2"/>
            <feColorMatrix in="shadowBlurOuter1" result="shadowMatrixOuter1" values="0 0 0 0 0 0 0 0 0 0 0 0 0 0 0 0 0 0 0.5 0"/>
            <feMerge>
                <feMergeNode in="shadowMatrixOuter1"/>
                <feMergeNode in="SourceGraphic"/>
            </feMerge>
        </filter>
    </defs>
    <g fill="none" fill-rule="evenodd" filter="url(#a)">
        <path fill="#FFF" d="M49.59 17.551c-4.288 0-8.356.81-12.205 2.425-3.85 1.618-7.306 3.954-10.367 7.012-3.063 3.06-5.403 6.51-7.02 10.354-1.62 3.846-2.428 7.91-2.428 12.19 0 4.282.808 8.367 2.428 12.254 1.617 3.89 3.957 7.363 7.02 10.421 3.061 3.06 6.517 5.373 10.367 6.947 3.849 1.572 7.917 2.358 12.204 2.358 4.286 0 8.377-.786 12.27-2.358 3.893-1.574 7.37-3.887 10.433-6.947 3.06-3.058 5.38-6.53 6.955-10.42 1.574-3.888 2.362-7.973 2.362-12.256 0-4.28-.788-8.343-2.362-12.189-1.575-3.844-3.895-7.295-6.955-10.354-3.064-3.058-6.54-5.394-10.433-7.012-3.893-1.615-7.984-2.425-12.27-2.425m0-15.728c6.562 0 12.75 1.246 18.57 3.735 5.817 2.49 10.891 5.898 15.221 10.223 4.332 4.326 7.743 9.395 10.237 15.204 2.493 5.813 3.739 11.994 3.739 18.546 0 6.554-1.246 12.737-3.74 18.547-2.493 5.812-5.904 10.879-10.236 15.204-4.33 4.324-9.404 7.733-15.221 10.223-5.82 2.49-12.008 3.736-18.57 3.736-6.561 0-12.751-1.245-18.568-3.736-5.82-2.49-10.892-5.899-15.222-10.223-4.331-4.325-7.742-9.392-10.236-15.204-2.494-5.81-3.74-11.993-3.74-18.547 0-6.552 1.246-12.733 3.74-18.546 2.494-5.81 5.905-10.878 10.236-15.204 4.33-4.325 9.403-7.733 15.222-10.223 5.817-2.49 12.007-3.735 18.568-3.735"/>
        <path stroke="#FFF" stroke-width="2" d="M49.59 17.551c-4.288 0-8.356.81-12.205 2.425-3.85 1.618-7.306 3.954-10.367 7.012-3.063 3.06-5.403 6.51-7.02 10.354-1.62 3.846-2.428 7.91-2.428 12.19 0 4.282.808 8.367 2.428 12.254 1.617 3.89 3.957 7.363 7.02 10.421 3.061 3.06 6.517 5.373 10.367 6.947 3.849 1.572 7.917 2.358 12.204 2.358 4.286 0 8.377-.786 12.27-2.358 3.893-1.574 7.37-3.887 10.433-6.947 3.06-3.058 5.38-6.53 6.955-10.42 1.574-3.888 2.362-7.973 2.362-12.256 0-4.28-.788-8.343-2.362-12.189-1.575-3.844-3.895-7.295-6.955-10.354-3.064-3.058-6.54-5.394-10.433-7.012-3.893-1.615-7.984-2.425-12.27-2.425zm0-15.728c6.56 0 12.75 1.246 18.569 3.735 5.817 2.49 10.891 5.898 15.221 10.223 4.332 4.326 7.743 9.395 10.237 15.204 2.493 5.813 3.739 11.994 3.739 18.546 0 6.554-1.246 12.737-3.74 18.547-2.493 5.812-5.904 10.879-10.236 15.204-4.33 4.324-9.404 7.733-15.221 10.223-5.82 2.49-12.008 3.736-18.57 3.736-6.561 0-12.751-1.245-18.568-3.736-5.82-2.49-10.892-5.899-15.222-10.223-4.331-4.325-7.742-9.392-10.236-15.204-2.494-5.81-3.74-11.993-3.74-18.547 0-6.552 1.246-12.733 3.74-18.546 2.494-5.81 5.905-10.878 10.236-15.204 4.33-4.325 9.403-7.733 15.222-10.223 5.817-2.49 12.007-3.735 18.568-3.735z"/>
        <path fill="#FFF" d="M173.861 36.687c0 3.322-.459 6.488-1.378 9.503-.918 3.014-2.187 5.789-3.805 8.323a32.641 32.641 0 0 1-5.906 6.88 31.946 31.946 0 0 1-7.677 5.046l18.766 29.098h-18.766l-16.666-25.82h-10.76l6.43-15.728h6.824c4.725 0 8.792-1.705 12.204-5.112 1.576-1.659 2.8-3.54 3.674-5.636a16.873 16.873 0 0 0 1.314-6.554c0-2.27-.44-4.456-1.314-6.552a16.858 16.858 0 0 0-3.674-5.506c-3.412-3.408-7.48-5.111-12.204-5.111h-18.635v76.018h-15.746V3.79h34.381c4.548 0 8.812.875 12.795 2.621 3.98 1.75 7.458 4.108 10.432 7.078 2.974 2.971 5.336 6.445 7.087 10.42 1.75 3.978 2.624 8.237 2.624 12.779"/>
        <path stroke="#FFF" stroke-width="2" d="M173.861 36.687c0 3.322-.459 6.488-1.378 9.503-.918 3.014-2.187 5.789-3.805 8.323a32.641 32.641 0 0 1-5.906 6.88 31.946 31.946 0 0 1-7.677 5.046l18.766 29.098h-18.766l-16.666-25.82h-10.76l6.43-15.728h6.824c4.725 0 8.792-1.705 12.204-5.112 1.576-1.659 2.8-3.54 3.674-5.636a16.873 16.873 0 0 0 1.314-6.554c0-2.27-.44-4.456-1.314-6.552a16.858 16.858 0 0 0-3.674-5.506c-3.412-3.408-7.48-5.111-12.204-5.111h-18.635v76.018h-15.746V3.79h34.381c4.548 0 8.812.875 12.795 2.621 3.98 1.75 7.458 4.108 10.432 7.078 2.974 2.971 5.336 6.445 7.087 10.42 1.75 3.978 2.624 8.237 2.624 12.779z"/>
        <path fill="#FFF" d="M277.726 45.6c.131 1.31.197 2.621.197 3.932 0 6.554-1.247 12.736-3.74 18.546-2.493 5.812-5.905 10.878-10.235 15.203-4.332 4.326-9.406 7.734-15.223 10.224-5.82 2.49-12.008 3.736-18.57 3.736-6.561 0-12.75-1.245-18.567-3.736-5.819-2.49-10.892-5.898-15.222-10.224-4.33-4.325-7.743-9.39-10.236-15.203-2.493-5.81-3.74-11.992-3.74-18.546 0-6.553 1.247-12.735 3.74-18.547 2.493-5.809 5.905-10.878 10.236-15.203 4.33-4.325 9.403-7.733 15.222-10.223 5.816-2.49 12.006-3.736 18.567-3.736 6.65 0 12.862 1.246 18.636 3.736 5.772 2.49 10.803 5.92 15.09 10.288l-11.022 11.141c-3.063-3.058-6.541-5.394-10.433-7.013-3.894-1.615-7.983-2.424-12.27-2.424-4.288 0-8.356.81-12.203 2.424-3.852 1.619-7.306 3.955-10.368 7.013-3.064 3.06-5.403 6.511-7.02 10.355-1.62 3.846-2.427 7.908-2.427 12.19 0 4.281.807 8.367 2.426 12.254 1.618 3.889 3.957 7.362 7.02 10.42 3.063 3.06 6.517 5.373 10.369 6.946 3.847 1.574 7.915 2.36 12.202 2.36 4.288 0 8.377-.786 12.271-2.36 3.892-1.573 7.37-3.887 10.433-6.946 4.111-4.28 6.91-9.218 8.398-14.812H218.74l3.937-15.727h54.59c.175 1.31.33 2.621.46 3.932"/>
        <path stroke="#FFF" stroke-width="2" d="M277.726 45.6c.131 1.31.197 2.621.197 3.932 0 6.554-1.247 12.736-3.74 18.546-2.493 5.812-5.905 10.878-10.235 15.203-4.332 4.326-9.406 7.734-15.223 10.224-5.82 2.49-12.008 3.736-18.57 3.736-6.561 0-12.75-1.245-18.567-3.736-5.819-2.49-10.892-5.898-15.222-10.224-4.33-4.325-7.743-9.39-10.236-15.203-2.493-5.81-3.74-11.992-3.74-18.546 0-6.553 1.247-12.735 3.74-18.547 2.493-5.809 5.905-10.878 10.236-15.203 4.33-4.325 9.403-7.733 15.222-10.223 5.816-2.49 12.006-3.736 18.567-3.736 6.65 0 12.862 1.246 18.636 3.736 5.772 2.49 10.803 5.92 15.09 10.288l-11.022 11.141c-3.063-3.058-6.541-5.394-10.433-7.013-3.894-1.615-7.983-2.424-12.27-2.424-4.288 0-8.356.81-12.203 2.424-3.852 1.619-7.306 3.955-10.368 7.013-3.064 3.06-5.403 6.511-7.02 10.355-1.62 3.846-2.427 7.908-2.427 12.19 0 4.281.807 8.367 2.426 12.254 1.618 3.889 3.957 7.362 7.02 10.42 3.063 3.06 6.517 5.373 10.369 6.946 3.847 1.574 7.915 2.36 12.202 2.36 4.288 0 8.377-.786 12.271-2.36 3.892-1.573 7.37-3.887 10.433-6.946 4.111-4.28 6.91-9.218 8.398-14.812H218.74l3.937-15.727h54.59c.175 1.31.33 2.621.46 3.932z"/>
        <path fill="#FFF" d="M363.612 3.79v55.048c0 5.331-1.006 10.334-3.018 15.006-2.013 4.676-4.77 8.762-8.267 12.256-3.5 3.496-7.59 6.248-12.27 8.257-4.68 2.01-9.69 3.015-15.025 3.015-5.337 0-10.346-1.006-15.026-3.015-4.681-2.009-8.77-4.761-12.27-8.257-3.5-3.494-6.255-7.58-8.266-12.256-2.014-4.672-3.02-9.675-3.02-15.006V3.789h15.748v55.049c0 3.06.57 5.964 1.706 8.715 1.135 2.753 2.799 5.223 4.987 7.406 2.186 2.186 4.658 3.846 7.414 4.98 2.756 1.137 5.664 1.705 8.727 1.705 6.299 0 11.68-2.229 16.14-6.685 2.187-2.183 3.85-4.653 4.988-7.406 1.136-2.751 1.705-5.656 1.705-8.715V3.789h15.747z"/>
        <path stroke="#FFF" stroke-width="2" d="M363.612 3.79v55.048c0 5.331-1.006 10.334-3.018 15.006-2.013 4.676-4.77 8.762-8.267 12.256-3.5 3.496-7.59 6.248-12.27 8.257-4.68 2.01-9.69 3.015-15.025 3.015-5.337 0-10.346-1.006-15.026-3.015-4.681-2.009-8.77-4.761-12.27-8.257-3.5-3.494-6.255-7.58-8.266-12.256-2.014-4.672-3.02-9.675-3.02-15.006V3.789h15.748v55.049c0 3.06.57 5.964 1.706 8.715 1.135 2.753 2.799 5.223 4.987 7.406 2.186 2.186 4.658 3.846 7.414 4.98 2.756 1.137 5.664 1.705 8.727 1.705 6.299 0 11.68-2.229 16.14-6.685 2.187-2.183 3.85-4.653 4.988-7.406 1.136-2.751 1.705-5.656 1.705-8.715V3.789h15.747z"/>
        <path fill="#FFF" d="M425.289 79.809v15.728h-51.835V3.92h15.747v75.89z"/>
        <path stroke="#FFF" stroke-width="2" d="M425.289 79.809v15.728h-51.835V3.92h15.747v75.89z"/>
        <path fill="#FFF" d="M485.653 79.809v15.728h-51.835V3.92h15.747v75.89z"/>
        <path stroke="#FFF" stroke-width="2" d="M485.653 79.809v15.728h-51.835V3.92h15.747v75.89z"/>
        <path fill="#FFF" d="M535.258 17.551c-4.287 0-8.355.81-12.204 2.425-3.85 1.618-7.306 3.954-10.367 7.012-3.063 3.06-5.403 6.51-7.02 10.354-1.62 3.846-2.428 7.91-2.428 12.19 0 4.282.808 8.367 2.428 12.254 1.617 3.89 3.957 7.363 7.02 10.421 3.061 3.06 6.516 5.373 10.367 6.947 3.849 1.572 7.917 2.358 12.204 2.358 4.286 0 8.377-.786 12.27-2.358 3.893-1.574 7.37-3.887 10.432-6.947 3.061-3.058 5.381-6.53 6.956-10.42 1.574-3.888 2.362-7.973 2.362-12.256 0-4.28-.788-8.343-2.362-12.189-1.575-3.844-3.895-7.295-6.956-10.354-3.063-3.058-6.54-5.394-10.432-7.012-3.893-1.615-7.984-2.425-12.27-2.425m0-15.728c6.562 0 12.75 1.246 18.57 3.735 5.815 2.49 10.891 5.898 15.221 10.223 4.332 4.326 7.743 9.395 10.236 15.204 2.494 5.813 3.74 11.994 3.74 18.546 0 6.554-1.246 12.737-3.74 18.547-2.493 5.812-5.904 10.879-10.236 15.204-4.33 4.324-9.406 7.733-15.221 10.223-5.82 2.49-12.008 3.736-18.57 3.736-6.561 0-12.751-1.245-18.568-3.736-5.82-2.49-10.892-5.899-15.222-10.223-4.331-4.325-7.743-9.392-10.236-15.204-2.494-5.81-3.74-11.993-3.74-18.547 0-6.552 1.246-12.733 3.74-18.546 2.493-5.81 5.905-10.878 10.236-15.204 4.33-4.325 9.403-7.733 15.222-10.223 5.817-2.49 12.007-3.735 18.568-3.735"/>
        <path stroke="#FFF" stroke-width="2" d="M535.258 17.551c-4.287 0-8.355.81-12.204 2.425-3.85 1.618-7.306 3.954-10.367 7.012-3.063 3.06-5.403 6.51-7.02 10.354-1.62 3.846-2.428 7.91-2.428 12.19 0 4.282.808 8.367 2.428 12.254 1.617 3.89 3.957 7.363 7.02 10.421 3.061 3.06 6.516 5.373 10.367 6.947 3.849 1.572 7.917 2.358 12.204 2.358 4.286 0 8.377-.786 12.27-2.358 3.893-1.574 7.37-3.887 10.432-6.947 3.061-3.058 5.381-6.53 6.956-10.42 1.574-3.888 2.362-7.973 2.362-12.256 0-4.28-.788-8.343-2.362-12.189-1.575-3.844-3.895-7.295-6.956-10.354-3.063-3.058-6.54-5.394-10.432-7.012-3.893-1.615-7.984-2.425-12.27-2.425zm0-15.728c6.562 0 12.75 1.246 18.57 3.735 5.815 2.49 10.891 5.898 15.221 10.223 4.332 4.326 7.743 9.395 10.236 15.204 2.494 5.813 3.74 11.994 3.74 18.546 0 6.554-1.246 12.737-3.74 18.547-2.493 5.812-5.904 10.879-10.236 15.204-4.33 4.324-9.406 7.733-15.221 10.223-5.82 2.49-12.008 3.736-18.57 3.736-6.561 0-12.751-1.245-18.568-3.736-5.82-2.49-10.892-5.899-15.222-10.223-4.331-4.325-7.743-9.392-10.236-15.204-2.494-5.81-3.74-11.993-3.74-18.547 0-6.552 1.246-12.733 3.74-18.546 2.493-5.81 5.905-10.878 10.236-15.204 4.33-4.325 9.403-7.733 15.222-10.223 5.817-2.49 12.007-3.735 18.568-3.735z"/>
        <path fill="#FFF" d="M187.977 114.307v132.117h-24.565l-53.1-90.406v90.406H87.636V114.307h24.566l53.099 90.406v-90.406z"/>
        <path stroke="#FFF" stroke-width="2" d="M187.977 114.307v132.117h-24.565l-53.1-90.406v90.406H87.636V114.307h24.566l53.099 90.406v-90.406z"/>
        <path fill="#FFF" d="M225.769 137.145v32.085h49.32l5.669 22.648h-54.989v32.086h66.327v22.648h-89.003V114.496h89.003v22.649z"/>
        <path stroke="#FFF" stroke-width="2" d="M225.769 137.145v32.085h49.32l5.669 22.648h-54.989v32.086h66.327v22.648h-89.003V114.496h89.003v22.649z"/>
        <path fill="#FFF" d="M403.208 161.87c0 4.783-.661 9.342-1.984 13.683-1.322 4.34-3.15 8.337-5.48 11.985-2.334 3.65-5.168 6.953-8.504 9.908a46.04 46.04 0 0 1-11.054 7.267l27.022 41.9h-27.022l-23.999-37.182h-15.494l9.26-22.648h9.825c6.802 0 12.66-2.454 17.573-7.362a26.539 26.539 0 0 0 5.29-8.115 24.28 24.28 0 0 0 1.891-9.437c0-3.27-.631-6.416-1.89-9.436-1.26-3.02-3.024-5.663-5.291-7.928-4.913-4.906-10.77-7.36-17.573-7.36h-26.833v109.468h-22.677V114.496h49.51c6.549 0 12.69 1.26 18.424 3.775 5.73 2.518 10.738 5.916 15.022 10.192 4.283 4.279 7.682 9.28 10.205 15.004 2.52 5.728 3.78 11.861 3.78 18.402"/>
        <path stroke="#FFF" stroke-width="2" d="M403.208 161.87c0 4.783-.661 9.342-1.984 13.683-1.322 4.34-3.15 8.337-5.48 11.985-2.334 3.65-5.168 6.953-8.504 9.908a46.04 46.04 0 0 1-11.054 7.267l27.022 41.9h-27.022l-23.999-37.182h-15.494l9.26-22.648h9.825c6.802 0 12.66-2.454 17.573-7.362a26.539 26.539 0 0 0 5.29-8.115 24.28 24.28 0 0 0 1.891-9.437c0-3.27-.631-6.416-1.89-9.436-1.26-3.02-3.024-5.663-5.291-7.928-4.913-4.906-10.77-7.36-17.573-7.36h-26.833v109.468h-22.677V114.496h49.51c6.549 0 12.69 1.26 18.424 3.775 5.73 2.518 10.738 5.916 15.022 10.192 4.283 4.279 7.682 9.28 10.205 15.004 2.52 5.728 3.78 11.861 3.78 18.402z"/>
        <path fill="#FFF" d="M497.879 119.686c8.06 3.463 15.083 8.182 21.069 14.156 5.981 5.977 10.706 12.993 14.172 21.044 3.464 8.054 5.197 16.609 5.197 25.668 0 9.06-1.733 17.618-5.197 25.669-3.466 8.053-8.19 15.07-14.172 21.044-5.986 5.977-13.01 10.696-21.07 14.155-8.063 3.462-16.629 5.19-25.699 5.19h-23.431l9.257-22.648h14.174c5.793 0 11.338-1.1 16.63-3.303 5.29-2.2 10.014-5.314 14.172-9.342 4.03-4.152 7.148-8.84 9.353-14.062 2.202-5.22 3.307-10.786 3.307-16.703 0-5.786-1.105-11.324-3.307-16.609-2.205-5.285-5.322-10.002-9.353-14.155-4.158-4.025-8.882-7.139-14.173-9.343-5.29-2.2-10.836-3.302-16.629-3.302h-32.124v109.468h-22.676V114.497h54.8c9.07 0 17.636 1.73 25.7 5.19"/>
        <path stroke="#FFF" stroke-width="2" d="M497.879 119.686c8.06 3.463 15.083 8.182 21.069 14.156 5.981 5.977 10.706 12.993 14.172 21.044 3.464 8.054 5.197 16.609 5.197 25.668 0 9.06-1.733 17.618-5.197 25.669-3.466 8.053-8.19 15.07-14.172 21.044-5.986 5.977-13.01 10.696-21.07 14.155-8.063 3.462-16.629 5.19-25.699 5.19h-23.431l9.257-22.648h14.174c5.793 0 11.338-1.1 16.63-3.303 5.29-2.2 10.014-5.314 14.172-9.342 4.03-4.152 7.148-8.84 9.353-14.062 2.202-5.22 3.307-10.786 3.307-16.703 0-5.786-1.105-11.324-3.307-16.609-2.205-5.285-5.322-10.002-9.353-14.155-4.158-4.025-8.882-7.139-14.173-9.343-5.29-2.2-10.836-3.302-16.629-3.302h-32.124v109.468h-22.676V114.497h54.8c9.07 0 17.636 1.73 25.7 5.19z"/>
    </g>
</svg>
