<?xml version="1.0" encoding="UTF-8"?>
<svg width="777px" height="144px" viewBox="0 0 777 144" version="1.1" xmlns="http://www.w3.org/2000/svg" xmlns:xlink="http://www.w3.org/1999/xlink">
    <!-- Generator: Sketch 50.2 (55047) - http://www.bohemiancoding.com/sketch -->
    <title>Group 3</title>
    <desc>Created with Sketch.</desc>
    <defs>
        <polygon id="path-1" points="6.15384615e-05 0.246858657 83.8809846 0.246858657 83.8809846 86.8378664 6.15384615e-05 86.8378664"></polygon>
        <polygon id="path-3" points="0.2547 0.12325 20.7610333 0.12325 20.7610333 30 0.2547 30"></polygon>
        <polygon id="path-5" points="0 144 777 144 777 0 0 0"></polygon>
    </defs>
    <g id="Page-1" stroke="none" stroke-width="1" fill="none" fill-rule="evenodd">
        <g id="Artboard-Copy-9" transform="translate(-984.000000, -412.000000)">
            <g id="Group-3" transform="translate(984.000000, 412.000000)">
                <g id="Group">
                    <path d="M233.363622,77.7627438 C230.93753,77.7627438 229.734297,76.6244682 229.734297,74.2965267 L229.734297,28.7713468 L207.259524,75.7800701 C206.544453,77.2703835 205.447315,78 203.962591,78 C202.492892,78 201.390541,77.2703835 200.674856,75.7800701 L178.258038,28.7713468 L178.258038,74.2965267 C178.258038,76.6244682 177.052964,77.7627438 174.636685,77.7627438 C172.195568,77.7627438 171,76.6244682 171,74.2965267 L171,12.7640952 C171,10.2573653 172.166744,9 174.521697,9 C176.046283,9 177.162739,9.78623799 177.912461,11.3344037 L203.962591,65.9285542 L230.021306,11.3344037 C230.765508,9.78623799 231.918454,9 233.483516,9 C235.826203,9 237,10.2573653 237,12.7640952 L237,74.2965267 C237,76.6244682 235.79738,77.7627438 233.363622,77.7627438" id="Fill-1" fill="#FEFEFE"></path>
                    <path d="M368.113956,14.7390203 L339.637128,47.5994995 L339.637128,74.4751156 C339.637128,76.8197683 338.428887,78 335.992496,78 C333.569275,78 332.368078,76.8197683 332.368078,74.4751156 L332.368078,47.5994995 L303.893701,14.7390203 C303.307497,14.0402437 303,13.2695434 303,12.4737317 C303,10.1396196 304.229987,9 306.68261,9 C307.739553,9 308.669087,9.4414631 309.447324,10.2952478 L335.992496,40.8408359 L362.48009,10.2952478 C363.231068,9.4414631 364.172547,9 365.304221,9 C367.768788,9 369,10.1396196 369,12.4737317 C369,13.2695434 368.676883,14.0402437 368.113956,14.7390203" id="Fill-3" fill="#FEFEFE"></path>
                    <path d="M500.364168,16.0284959 L474.611301,16.0284959 L474.611301,74.4730328 C474.611301,76.818967 473.386887,78 470.967496,78 C468.555771,78 467.331357,76.818967 467.331357,74.4730328 L467.331357,16.0284959 L441.650244,16.0284959 C439.209082,16.0284959 438,14.8474629 438,12.5086639 C438,10.1807228 439.209082,9 441.650244,9 L500.364168,9 C502.790918,9 504,10.1807228 504,12.5086639 C504,14.8474629 502.790918,16.0284959 500.364168,16.0284959" id="Fill-5" fill="#FEFEFE"></path>
                    <path d="M632.350976,78 C629.932701,78 628.730461,76.8188342 628.730461,74.4726363 L628.730461,38.5446574 L577.270153,38.5446574 L577.270153,74.4726363 C577.270153,76.8188342 576.060555,78 573.642586,78 C571.223698,78 570,76.8188342 570,74.4726363 L570,12.501612 C570,10.1734092 571.223698,9 573.642586,9 C576.060555,9 577.270153,10.1734092 577.270153,12.501612 L577.270153,31.6134141 L628.730461,31.6134141 L628.730461,12.501612 C628.730461,10.1734092 629.932701,9 632.350976,9 C634.769865,9 636,10.1734092 636,12.501612 L636,74.4726363 C636,76.8188342 634.769865,78 632.350976,78" id="Fill-7" fill="#FEFEFE"></path>
                    <path d="M759.820116,78 L728.123764,78 C723.562988,78 719.640083,76.638262 716.325914,73.9296785 C712.767945,71.057277 711,67.4771688 711,63.2039363 L711,23.8351567 C711,19.5085592 712.753531,15.934346 716.275621,13.1100349 C719.618309,10.3685638 723.562988,9 728.123764,9 L759.820116,9 C764.351145,9 768.295517,10.3685638 771.674086,13.1100349 C775.209975,15.934346 777,19.5085592 777,23.8351567 L777,63.2039363 C777,67.5637318 775.174402,71.1699019 771.487938,74.0745707 C768.122863,76.6630829 764.229704,78 759.820116,78 Z M769.727046,23.8351567 C769.727046,21.5075744 768.646346,19.5550984 766.498439,18.0121676 C764.529626,16.6985202 762.304132,16.0215295 759.820116,16.0215295 L728.123764,16.0215295 C725.610308,16.0215295 723.405667,16.6985202 721.486534,18.0596377 C719.332187,19.6022582 718.258847,21.5075744 718.258847,23.8351567 L718.258847,63.2039363 C718.258847,65.4924256 719.332187,67.4079805 721.486534,68.9574267 C723.455347,70.3120287 725.638521,70.9713345 728.123764,70.9713345 L759.820116,70.9713345 C762.304132,70.9713345 764.529626,70.3120287 766.498439,68.9574267 C768.646346,67.4480042 769.727046,65.5324493 769.727046,63.2039363 L769.727046,23.8351567 Z" id="Fill-9" fill="#FEFEFE"></path>
                    <path d="M82.8999791,22.2787804 L46.6359565,63.8324614 L46.6359565,79.5587418 C46.6359565,82.5130739 45.0826776,84 42.040519,84 C38.918863,84 37.3933158,82.5130739 37.3933158,79.5587418 L37.3933158,63.8324614 L1.10556723,22.2787804 C0.353424085,21.3817912 0,20.4197355 0,19.4325827 C0,16.4674061 1.56837715,15 4.71714849,15 C6.06336455,15 7.19296585,15.5639103 8.21410571,16.6660141 L42.040519,55.3016143 L75.7365936,16.6660141 C76.6785443,15.5639103 77.878399,15 79.3115075,15 C82.4467212,15 84,16.4674061 84,19.4325827 C84,20.4197355 83.6552035,21.3817912 82.8999791,22.2787804" id="Fill-11" fill="#FEFEFE"></path>
                    <path d="M79.3540293,69 C76.3047837,69 74.7567431,67.5113753 74.7567431,64.5125563 L9.24972764,64.5125563 C9.24972764,67.5113753 7.68874558,69 4.65028447,69 C1.53941301,69 0,67.5113753 0,64.5125563 L0,19.4721261 C0,16.4989406 1.53941301,15 4.65028447,15 C7.68874558,15 9.24972764,16.5061305 9.24972764,19.4721261 L9.24972764,55.672089 L74.7567431,55.672089 L74.7567431,19.4721261 C74.7567431,16.4989406 76.3047837,15 79.3540293,15 C82.467674,15 84,16.5061305 84,19.4721261 L84,64.5125563 C84,67.5113753 82.467674,69 79.3540293,69" id="Fill-13" fill="#FEFEFE"></path>
                    <g id="Group-17">
                        <mask id="mask-2" fill="white">
                            <use xlink:href="#path-1"></use>
                        </mask>
                        <g id="Clip-16"></g>
                        <path d="M62.0619077,86.8378664 L21.7914462,86.8378664 C16.0019077,86.8378664 11.0246769,85.1439795 6.78775385,81.7540537 C2.26806154,78.1197286 6.15384615e-05,73.6344636 6.15384615e-05,68.2708982 L6.15384615e-05,18.8684247 C6.15384615e-05,13.4544424 2.21267692,8.96548834 6.67729231,5.38465442 C10.9886769,1.94369682 16.0019077,0.246735689 21.7914462,0.246735689 L62.0619077,0.246735689 C67.8148308,0.246735689 72.8354462,1.94369682 77.0942154,5.38465442 C81.6117538,8.96548834 83.8809846,13.4544424 83.8809846,18.8684247 L83.8809846,68.2708982 C83.8809846,73.7346827 81.5474462,78.2841986 76.8640615,81.9010007 C72.6046769,85.1771809 67.6431385,86.8378664 62.0619077,86.8378664 Z M74.6508308,18.8684247 C74.6508308,15.9439336 73.2877538,13.4934848 70.5222154,11.5665731 C68.0662154,9.89143887 65.2145231,9.03342827 62.0619077,9.03342827 L21.7914462,9.0263576 C18.6022154,9.0263576 15.7794462,9.90527279 13.3449846,11.6452728 C10.5997538,13.533142 9.23667692,15.9439336 9.23667692,18.8684247 L9.23667692,68.2708982 C9.23667692,71.1551173 10.5997538,73.5659088 13.3449846,75.4934353 C15.8228308,77.1830184 18.6452923,78.0404141 21.7914462,78.0404141 L62.0619077,78.0404141 C65.2145231,78.0404141 68.0662154,77.1830184 70.5222154,75.4934353 C73.2877538,73.6126367 74.6508308,71.1941597 74.6508308,68.2708982 L74.6508308,18.8684247 Z" id="Fill-15" fill="#FEFEFE" mask="url(#mask-2)"></path>
                    </g>
                    <path d="M559.825321,124.407626 L560.631851,118.384686 L556.216881,118.384686 L555.410351,124.407626 L559.825321,124.407626 Z M551.41959,135 L552.523724,126.858585 L549,126.858585 L549,124.407626 L552.905106,124.407626 L553.712261,118.384686 L550.018479,118.384686 L550.018479,115.933728 L554.051754,115.933728 L555.155575,108 L557.660195,108 L556.556374,115.933728 L561.014172,115.933728 L562.075165,108 L564.58041,108 L563.518479,115.933728 L567,115.933728 L567,118.384686 L563.136471,118.384686 L562.372456,124.407626 L566.023724,124.407626 L566.023724,126.858585 L561.990448,126.858585 L560.886627,135 L558.33918,135 L559.443001,126.858585 L555.028031,126.858585 L553.967037,135 L551.41959,135 Z" id="Fill-18" fill="#FEFEFE"></path>
                    <path d="M580.455783,134.939663 C586.50477,134.939663 589.923341,129.465843 589.923341,122.870978 C589.923341,117.094997 586.855276,111.060337 580.5,111.060337 C574.144401,111.060337 570.988871,116.879485 570.988871,123.172505 C570.988871,129.293179 574.407442,134.939663 580.412212,134.939663 L580.455783,134.939663 Z M580.28053,138 C572.434792,138 567,132.051672 567,123.258837 C567,114.03466 572.785299,108 580.675253,108 C588.783709,108 594,114.077508 594,122.698315 C594,132.65536 587.819654,138 580.324747,138 L580.28053,138 Z" id="Fill-20" fill="#FEFEFE"></path>
                    <path d="M597.148091,120.872648 C597.148091,118.454413 597.110727,116.375749 597,114.466715 L599.851909,114.466715 L600,118.496898 L600.110727,118.496898 C600.925909,115.739405 602.926091,114 605.110909,114 C605.444455,114 605.703818,114.042485 606,114.127144 L606,117.605953 C605.629909,117.563468 605.296364,117.520982 604.851545,117.520982 C602.555727,117.520982 600.925909,119.514987 600.481636,122.272481 C600.407455,122.824167 600.370091,123.418027 600.370091,124.054684 L600.370091,135 L597.110727,135 L597.148091,120.872648 Z" id="Fill-22" fill="#FEFEFE"></path>
                    <g id="Group-26" transform="translate(609.000000, 114.000000)">
                        <mask id="mask-4" fill="white">
                            <use xlink:href="#path-3"></use>
                        </mask>
                        <g id="Clip-25"></g>
                        <path d="M16.5963667,8.6535625 C16.5963667,8.0595 16.5513667,7.507625 16.3697,6.99825 C15.6457,4.7916875 13.7447,3.0091875 10.8020333,3.0091875 C6.99936667,3.0091875 4.2837,6.0223125 4.2837,10.8179375 C4.2837,14.807 6.50203333,18.2023125 10.7570333,18.2023125 C13.2467,18.2023125 15.4647,16.7591875 16.2793667,14.340125 C16.5060333,13.7460625 16.5963667,13.0245 16.5963667,12.3454375 L16.5963667,8.6535625 Z M20.5800333,18.1173125 C20.5800333,22.8704375 19.5390333,25.713875 17.4563667,27.5385625 C15.2837,29.36325 12.2057,30.000125 9.44403333,30.000125 C6.81836667,30.000125 3.92136667,29.40575 2.15636667,28.3023125 L3.1517,25.4166875 C4.60036667,26.3079375 6.86403333,27.0716875 9.58003333,27.0716875 C13.6543667,27.0716875 16.6420333,25.0773125 16.6420333,19.8573125 L16.6420333,17.6079375 L16.5513667,17.6079375 C15.3743667,19.5179375 12.9753667,21.0454375 9.58003333,21.0454375 C4.1477,21.0454375 0.2547,16.7166875 0.2547,10.987625 C0.2547,4.027625 5.09836667,0.12325 10.1687,0.12325 C13.9707,0.12325 16.0077,1.94825 17.0040333,3.64575 L17.0943667,3.64575 L17.2303667,0.590125 L20.7610333,0.590125 C20.6250333,2.0329375 20.5800333,3.6879375 20.5800333,6.192 L20.5800333,18.1173125 Z" id="Fill-24" fill="#FEFEFE" mask="url(#mask-4)"></path>
                    </g>
                    <path d="M650.825311,128.933549 C650.825311,131.054729 650.868742,132.921618 651,134.53359 L647.592447,134.53359 L647.373684,131.181875 L647.286501,131.181875 C646.325231,132.836646 644.052993,135 640.296063,135 C636.975371,135 633,133.17591 633,126.006069 L633,114 L636.844757,114 L636.844757,125.327542 C636.844757,129.230326 638.11133,131.903201 641.562957,131.903201 C644.141141,131.903201 645.93178,130.163771 646.631177,128.466826 C646.849297,127.957618 646.980554,127.27909 646.980554,126.557764 L646.980554,114 L650.825311,114 L650.825311,128.933549 Z" id="Fill-27" fill="#FEFEFE"></path>
                    <mask id="mask-6" fill="white">
                        <use xlink:href="#path-5"></use>
                    </mask>
                    <g id="Clip-30"></g>
                    <polygon id="Fill-29" fill="#FEFEFE" mask="url(#mask-6)" points="657 135 660 135 660 105 657 105"></polygon>
                    <polygon id="Fill-31" fill="#FEFEFE" mask="url(#mask-6)" points="666 135 669 135 669 105 666 105"></polygon>
                    <path d="M685.433633,132.260856 C689.163247,132.260856 691.96013,128.982013 691.96013,124.416875 C691.96013,121.01365 690.139786,116.738838 685.522231,116.738838 C680.949139,116.738838 678.951272,120.723325 678.951272,124.541562 C678.951272,128.940756 681.615095,132.260856 685.388844,132.260856 L685.433633,132.260856 Z M685.300246,135 C679.52863,135 675,131.015819 675,124.665944 C675,117.942619 679.750615,114 685.655945,114 C691.826743,114 696,118.191688 696,124.292494 C696,131.763025 690.450696,135 685.345035,135 L685.300246,135 Z" id="Fill-32" fill="#FEFEFE" mask="url(#mask-6)"></path>
                    <path d="M699,138 L699,108 L702.984123,108 L711.906763,123.177809 C713.94115,126.694322 715.60087,129.810316 716.887146,132.925981 L717.011831,132.881406 C716.680254,128.875223 716.59713,125.225312 716.59713,120.596388 L716.59713,108 L720,108 L720,138 L716.34776,138 L707.466682,122.777289 C705.51603,119.439075 703.6485,116.011712 702.278796,112.762649 L702.154416,112.806896 C702.361614,116.590532 702.403481,120.195868 702.403481,125.181064 L702.403481,138 L699,138 Z" id="Fill-33" fill="#FEFEFE" mask="url(#mask-6)"></path>
                    <path d="M737.416948,122.5495 C737.458854,120.266965 736.44692,116.614724 732.315686,116.614724 C728.521867,116.614724 726.920156,120.0179 726.625267,122.5495 L737.416948,122.5495 Z M726.583052,125.164224 C726.667173,130.10274 729.828999,132.136516 733.538698,132.136516 C736.194247,132.136516 737.838173,131.679643 739.187211,131.140256 L739.86142,133.713419 C738.554908,134.294672 736.278368,135 733.032421,135 C726.793819,135 723,130.891191 723,124.873598 C723,118.77288 726.667173,114 732.611195,114 C739.271642,114 741,119.768529 741,123.462331 C741,124.209832 740.957474,124.790474 740.873353,125.20548 L726.583052,125.164224 Z" id="Fill-34" fill="#FEFEFE" mask="url(#mask-6)"></path>
                    <path d="M747.148091,120.872648 C747.148091,118.454413 747.110727,116.375749 747,114.466715 L749.851909,114.466715 L750,118.496898 L750.110727,118.496898 C750.925909,115.739405 752.926091,114 755.110909,114 C755.444455,114 755.703818,114.042485 756,114.127144 L756,117.605953 C755.629909,117.563468 755.296364,117.520982 754.851545,117.520982 C752.555727,117.520982 750.925909,119.514987 750.481636,122.272481 C750.407455,122.824167 750.370091,123.418027 750.370091,124.054684 L750.370091,135 L747.110727,135 L747.148091,120.872648 Z" id="Fill-35" fill="#FEFEFE" mask="url(#mask-6)"></path>
                    <path d="M772.772456,122.60065 C772.772456,122.101538 772.7261,121.518782 772.588724,121.01967 C771.991169,118.730927 769.785362,116.817207 766.752588,116.817207 C762.571401,116.817207 760.089825,120.145842 760.089825,124.556345 C760.089825,128.67547 762.341312,132.045775 766.660891,132.045775 C769.372217,132.045775 771.853116,130.381764 772.588724,127.676941 C772.7261,127.177523 772.772456,126.678412 772.772456,126.095962 L772.772456,122.60065 Z M776.816267,105 L776.816267,129.341259 C776.816267,131.130584 776.861947,133.169312 777,134.542558 L773.37001,134.542558 L773.186278,131.047246 L773.094242,131.047246 C771.853116,133.294013 769.188484,135 765.558495,135 C760.181522,135 756.000334,130.880875 756.000334,124.764385 C755.954655,118.023776 760.595344,113.946014 765.971301,113.946014 C769.417897,113.946014 771.715739,115.402292 772.680759,116.983577 L772.772456,116.983577 L772.772456,105 L776.816267,105 Z" id="Fill-36" fill="#FEFEFE" mask="url(#mask-6)"></path>
                </g>
            </g>
        </g>
    </g>
</svg>