<svg width="230" height="230" viewBox="0 0 230 230" xmlns="http://www.w3.org/2000/svg" xmlns:xlink="http://www.w3.org/1999/xlink"><title>821CCAAC-8138-4FDC-BE1D-40A1AF3C53E7</title><defs><path d="M.391 27.772c0 1.392 1.227 2.516 2.738 2.516 1.512 0 2.738-1.124 2.738-2.516 0-12.488 11.057-22.646 24.643-22.646 1.512 0 2.738-1.124 2.738-2.515 0-1.392-1.226-2.517-2.738-2.517C13.904.094.391 12.512.391 27.772z" id="a"/><path d="M.391 27.772c0 1.392 1.227 2.516 2.738 2.516 1.512 0 2.738-1.124 2.738-2.516 0-12.488 11.057-22.646 24.643-22.646 1.512 0 2.738-1.124 2.738-2.515 0-1.392-1.226-2.517-2.738-2.517C13.903.094.391 12.512.391 27.772z" id="c"/></defs><g fill="none" fill-rule="evenodd"><path d="M180.714 161.131c-16.606 0-30.119 12.418-30.119 27.678 0 1.392 1.227 2.517 2.738 2.517 1.512 0 2.738-1.125 2.738-2.517 0-12.487 11.057-22.645 24.643-22.645 1.512 0 2.738-1.125 2.738-2.516 0-1.392-1.226-2.517-2.738-2.517" fill="#FFF"/><g transform="translate(150.204 161.037)"><mask id="b" fill="#fff"><use xlink:href="#a"/></mask><path fill="#FFF" mask="url(#b)" d="M-357.204 202.803H544.02v-465.027h-901.224z"/><path fill="#FFF" mask="url(#b)" d="M-1.956 32.442h37.551v-34.5h-37.55z"/></g><path d="M49.286 161.131c-16.607 0-30.12 12.418-30.12 27.678 0 1.392 1.227 2.517 2.739 2.517 1.511 0 2.738-1.125 2.738-2.517 0-12.487 11.056-22.645 24.643-22.645 1.511 0 2.738-1.125 2.738-2.516 0-1.392-1.227-2.517-2.738-2.517" fill="#FFF"/><g transform="translate(18.776 161.037)"><mask id="d" fill="#fff"><use xlink:href="#c"/></mask><path fill="#FFF" mask="url(#d)" d="M-225.776 202.803H675.45v-465.027h-901.225z"/><path fill="#FFF" mask="url(#d)" d="M-1.956 32.442h37.551v-34.5h-37.55z"/></g><path d="M224.524 173.712h-3.215c-6.503-14.747-22.214-25.162-40.595-25.162-19.53 0-36.063 11.754-41.717 27.978-1.966-1.736-4.625-2.816-7.568-2.816H98.572c-2.944 0-5.603 1.08-7.569 2.816-5.654-16.224-22.186-27.978-41.717-27.978-18.38 0-34.092 10.415-40.595 25.162H5.476c-3.025 0-5.476 2.252-5.476 5.033 0 2.78 2.45 5.032 5.476 5.032h.378c-.224 1.653-.378 3.324-.378 5.033 0 22.235 19.613 40.259 43.81 40.259 24.196 0 43.81-18.024 43.81-40.26v-5.032c0-2.78 2.45-5.032 5.476-5.032h32.857c3.025 0 5.476 2.252 5.476 5.032v5.033c0 22.235 19.612 40.259 43.81 40.259 24.196 0 43.809-18.024 43.809-40.26 0-1.708-.154-3.379-.378-5.032h.378c3.025 0 5.476-2.252 5.476-5.032 0-2.78-2.45-5.033-5.476-5.033M49.286 224.036c-21.139 0-38.334-15.801-38.334-35.226 0-19.425 17.195-35.227 38.334-35.227 21.138 0 38.333 15.802 38.333 35.227 0 19.425-17.195 35.226-38.333 35.226m131.428 0c-21.138 0-38.333-15.801-38.333-35.226 0-19.425 17.195-35.227 38.333-35.227 21.138 0 38.333 15.802 38.333 35.227 0 19.425-17.195 35.226-38.333 35.226" fill="#FFF"/><g fill="#FFF"><path d="M81.544 133.883c-15.697-1.45-25.64-3.746-33.247-7.679-7.602-3.929-13.33-9.587-19.774-19.528l-.054-.088-1.513-2.618 3.982-1.936 1.486 2.573c11.417 17.599 21.158 22.539 49.57 25.163l-.45 4.113z"/><path d="M109.63 135.49c-2.024 0-4.066-.05-6.132-.153a899 899 0 0 1-6.026-.316l.277-4.126c1.933.11 3.928.212 5.993.315 18.226.902 34.746-2.353 49.102-9.675 11.81-6.024 19.319-13.282 23.805-17.618.678-.655 1.28-1.237 1.809-1.73 6.968-8.26 8.138-14.565 9.172-20.13 1.193-6.423 2.32-12.49 11.718-18.929 6.255-4.284 9.276-9.96 8.98-16.87a23.772 23.772 0 0 0-.876-5.38c-2.708 3.31-7.688 7.772-15.775 9.629-11.332 2.602-17.12 7.232-22.12 17.692-5.337 11.167-11.505 15.112-21.287 13.614-5.033-.77-14.367-7.538-28.033-17.775-7.774-5.824-15.812-11.845-20.2-13.966-10.381-5.019-34.894-6.077-50.936.079-14.52 5.571-18.356 23.673-18.356 32.467 0 4.59-3.112 7.663-5.614 10.132-1.884 1.861-3.004 3.053-2.674 3.912.999 2.6 7.926 4.496 14.046 4.827 4.865.263 14.356.437 20.227.003l.058-.004c11.643-.583 17.551-6.987 17.797-7.26l3.489 2.617c-.293.33-7.32 8.072-21.01 8.77-6.429.472-16.182.251-20.826 0-1.228-.066-5.56-.381-9.754-1.651-4.505-1.364-7.29-3.358-8.277-5.928-1.26-3.278 1.334-5.839 3.623-8.099 2.168-2.14 4.41-4.353 4.41-7.32 0-1.15.24-28.267 21.122-36.28 17.425-6.687 43.29-5.474 54.776.078 4.787 2.315 12.637 8.195 20.948 14.42 9.667 7.242 21.697 16.254 25.926 16.901 6.531.999 11.311-.512 16.418-11.197 5.512-11.532 12.564-17.151 25.153-20.042 11.171-2.565 15.32-11.133 15.36-11.22l1.936-4.11 2.154 4.017c.104.193 2.537 4.793 2.798 10.91.246 5.744-1.426 13.934-10.787 20.347-7.955 5.45-8.801 10.005-9.972 16.31-1.07 5.766-2.403 12.942-10.137 22.07l-.179.186c-.533.493-1.144 1.085-1.838 1.755-4.359 4.213-12.47 12.054-24.884 18.386-13.474 6.872-28.725 10.342-45.404 10.343"/><path d="M100.19 144.645l-3.164-.655c-8.384-1.735-14.117-5.364-17.04-10.788-3.691-6.846-1.812-14.644-.403-18.61-5.922-1.01-9.552-3.93-11.63-6.38-2.602-3.068-3.372-6.08-3.404-6.206l4.394-.92-2.197.46 2.194-.469c.097.373 2.5 9.127 13.89 9.715l3.3.171-1.38 2.756c-.047.096-4.87 9.993-.716 17.669 1.953 3.61 5.65 6.235 11.013 7.828-.167-4.85.42-14.492 6.728-21.632l.128-.132c.037-.036 4.263-4.198 3.338-9.436l4.448-.66c1.224 6.93-3.738 12.165-4.462 12.886-7.312 8.344-5.492 21.324-5.472 21.454l.436 2.95z"/><path d="M79.572 126.748c-26.152-5.88-33.018-21.519-33.298-22.182l4.2-1.499c.061.143 6.43 14.328 30.17 19.666l-1.072 4.015zM99.45 127.89l-.125-4.132c.316-.008 31.807-.933 52.456-11.29 21.336-10.703 29.367-20.333 36.722-34.358l4.06 1.791c-7.58 14.456-16.329 25.012-38.62 36.193-21.613 10.841-53.16 11.762-54.492 11.796"/><path d="M112.05 117.451c-3.518 0-5.764-.166-6.075-.19l.386-4.12c.264.02 26.528 1.941 45.536-8.435 19.301-10.537 35.943-25.653 38.805-32.628l4.218 1.457c-1.637 3.986-6.781 9.923-14.114 16.29-7.824 6.791-17.272 13.338-26.605 18.433-14.707 8.029-32.86 9.193-42.152 9.193M61.319 87.357c-.209 0-.379.155-.379.345 0 .19.17.344.379.344.208 0 .378-.154.378-.344 0-.19-.17-.345-.378-.345m0 4.134c-2.277 0-4.128-1.7-4.128-3.79 0-2.089 1.851-3.788 4.128-3.788 2.276 0 4.128 1.7 4.128 3.789 0 2.089-1.852 3.789-4.128 3.789M74.075 52.12c-1.308 0-4.785 0-4.785-2.497s3.477-2.497 4.785-2.497c1.309 0 4.786 0 4.786 2.497s-3.477 2.497-4.786 2.497M164.149 76.292l-4.417-.817-.01.045c.023-.137.496-3.397-5.088-6.058-3.618-1.726-8.563-4.804-11.564-9.667-3.412-5.529-3.472-11.866-.179-18.834l1.65-3.493 2.295 3.172c.25.342 6.399 8.51 18.05 7.484 6.736-.594 11.454.142 14.024 2.185 1.336 1.062 1.857 2.326 1.9 3.155l-4.5.195a.844.844 0 0 0 .027.206c-.223-.654-2.73-2.358-11.021-1.627-9.615.847-16.154-3.389-19.54-6.43-3.382 11.135 5.175 17.239 10.937 19.986 8.72 4.157 7.492 10.241 7.436 10.498M75.202 38.423h-2.254V28.02c0-3.385-2.997-6.139-6.681-6.139-3.685 0-6.682 2.754-6.682 6.14H57.33c0-4.525 4.009-8.206 8.936-8.206 4.926 0 8.935 3.68 8.935 8.205v10.403z"/><path d="M75.202 25.79h-2.254V15.094c0-2.34-2.071-4.243-4.617-4.243-2.547 0-4.619 1.904-4.619 4.243H61.46c0-3.48 3.083-6.31 6.872-6.31 3.789 0 6.871 2.83 6.871 6.31V25.79z"/><path d="M75.2 38.423h-2.254V28.02c0-4.524 4.009-8.205 8.936-8.205s8.935 3.68 8.935 8.205h-2.253c0-3.385-2.997-6.139-6.682-6.139-3.685 0-6.682 2.754-6.682 6.14v10.402z"/><path d="M75.202 25.03h-2.254V14.336c0-3.48 3.083-6.31 6.872-6.31 3.789 0 6.872 2.83 6.872 6.31h-2.254c0-2.34-2.071-4.243-4.618-4.243s-4.618 1.903-4.618 4.243v10.696zM72.948 4.18h2.254V.171h-2.254zM48.327 30.864h2.253V27.18h-2.253zM53.11 18.975h2.253v-3.683H53.11zM92.785 18.975h2.253v-3.683h-2.253zM97.71 30.864h2.254V27.18H97.71z"/></g></g></svg>