<svg width="627" height="269" viewBox="0 0 627 269" xmlns="http://www.w3.org/2000/svg" xmlns:xlink="http://www.w3.org/1999/xlink"><title>715238B8-5849-4245-AEBF-48B677586F92</title><defs><path id="a" d="M360.07.662H.298V122h359.774V.662z"/></defs><g fill="none" fill-rule="evenodd"><path d="M21.495 250.287c0-1.84.089-3.326.266-4.459.174-1.131.563-1.999 1.163-2.601.599-.601 1.462-.991 2.593-1.168 1.127-.176 2.609-.265 4.442-.265h2.117c1.831 0 3.315.089 4.442.265 1.13.177 1.992.567 2.593 1.168.598.602.987 1.47 1.163 2.601.175 1.133.266 2.62.266 4.46v9.557c0 1.84-.09 3.327-.266 4.459-.176 1.133-.565 2-1.163 2.6-.6.604-1.464.993-2.593 1.169-1.127.176-2.61.265-4.442.265h-2.117c-1.833 0-3.315-.089-4.442-.265-1.131-.176-1.994-.565-2.593-1.169-.6-.6-.989-1.467-1.163-2.6-.177-1.132-.266-2.619-.266-4.459v-9.558zm30.68-7.856c0-1.982-.016-3.54-.052-4.673-.036-1.131-.194-2.124-.474-2.973a9.855 9.855 0 0 0-1.27-2.496c-.567-.813-1.377-1.857-2.434-3.132l-31.846-38.861c-.776-.92-1.427-1.558-1.956-1.912-.529-.353-1.182-.53-1.956-.53-.778 0-1.36.247-1.746.742-.39.496-.582 1.452-.582 2.867v70.08c0 2.69-.302 4.425-.9 5.202-.6.78-1.71 1.169-3.333 1.169-1.623 0-2.734-.389-3.332-1.17-.599-.776-.899-2.51-.899-5.201v-74.326c0-1.84.087-3.326.264-4.46.174-1.132.563-2 1.163-2.603.6-.599 1.465-.99 2.593-1.167 1.127-.176 2.609-.265 4.444-.265h2.115c1.269 0 2.292.036 3.07.106a5.242 5.242 0 0 1 2.167.69c.67.39 1.409 1.01 2.222 1.858.809.85 1.85 2.054 3.121 3.61l24.437 29.944c1.2 1.415 2.223 2.124 3.07 2.124 1.409 0 2.115-1.452 2.115-4.354v-27.608c0-2.689.3-4.423.9-5.201.597-.78 1.71-1.17 3.333-1.17 1.622 0 2.732.39 3.332 1.17.597.778.899 2.512.899 5.201v76.451c0 2.69-.302 4.425-.899 5.202-.6.78-1.71 1.169-3.332 1.169-1.624 0-2.736-.389-3.333-1.17-.6-.776-.9-2.51-.9-5.201v-19.112zM66.459 195.71c0-3.962.14-7.077.421-9.344.282-2.264.988-3.962 2.118-5.095 1.126-1.132 2.82-1.842 5.077-2.124 2.258-.283 5.36-.425 9.31-.425h23.274c2.681 0 4.407.301 5.185.902.777.603 1.163 1.719 1.163 3.345 0 1.63-.386 2.743-1.163 3.344-.778.603-2.504.904-5.185.904H83.385c-1.835 0-3.315.089-4.444.265-1.127.177-1.992.567-2.59 1.168-.6.602-.988 1.47-1.165 2.601-.176 1.133-.265 2.62-.265 4.46v14.865c0 1.842.089 3.329.265 4.459.177 1.133.564 2.002 1.164 2.601.6.603 1.464.993 2.591 1.17 1.129.177 2.61.265 4.444.265h23.274c2.681 0 4.407.301 5.185.902.777.602 1.163 1.718 1.163 3.344 0 1.63-.386 2.744-1.163 3.345-.778.602-2.504.904-5.185.904H93.964c-1.833 0-3.314.089-4.443.265-1.129.176-1.993.566-2.592 1.167-.6.603-.989 1.47-1.163 2.602-.176 1.133-.264 2.619-.264 4.46v14.865c0 1.841.088 3.328.264 4.46.174 1.131.563 2 1.163 2.6.599.603 1.463.993 2.592 1.17 1.13.177 2.61.264 4.443.264h12.695c2.681 0 4.407.302 5.185.902.777.603 1.163 1.719 1.163 3.347 0 1.627-.386 2.743-1.163 3.344-.778.601-2.504.902-5.185.902H83.385c-3.95 0-7.052-.142-9.31-.424-2.258-.283-3.95-.991-5.077-2.124-1.13-1.132-1.836-2.831-2.118-5.098-.281-2.264-.421-5.378-.421-9.343V195.71zM127.29 210.576c0 1.841.089 3.329.264 4.459.176 1.134.563 2.002 1.165 2.601.599.603 1.462.993 2.59 1.17 1.13.177 2.61.265 4.443.265h16.928c1.834 0 3.316-.088 4.445-.266 1.127-.176 1.992-.566 2.59-1.169.6-.599.988-1.467 1.165-2.601.176-1.13.264-2.618.264-4.46V195.71c0-1.84-.088-3.326-.264-4.459-.177-1.131-.566-1.999-1.165-2.601-.598-.601-1.463-.991-2.59-1.168-1.13-.176-2.611-.265-4.445-.265h-16.928c-1.833 0-3.313.089-4.442.265-1.13.177-1.992.567-2.59 1.168-.603.602-.99 1.47-1.166 2.601-.175 1.133-.264 2.62-.264 4.46v14.865zm33.854 25.695c0-1.91-.088-3.432-.264-4.565-.177-1.132-.566-2.016-1.165-2.655-.598-.637-1.463-1.044-2.59-1.22-1.13-.177-2.611-.266-4.445-.266h-6.347c-1.835 0-3.315.09-4.443.266-1.129.176-1.993.566-2.592 1.167-.6.603-.99 1.47-1.163 2.602-.178 1.133-.265 2.619-.265 4.46v23.36c0 1.84-.09 3.327-.264 4.458-.177 1.133-.566 2.002-1.165 2.602-.6.602-1.464.992-2.592 1.169-1.129.178-2.61.265-4.444.265h-2.115c-1.835 0-3.317-.087-4.443-.265-1.129-.177-1.995-.567-2.592-1.17-.6-.599-.989-1.468-1.165-2.6-.177-1.132-.262-2.618-.262-4.46V195.71c0-3.962.14-7.078.421-9.344.281-2.264.987-3.962 2.116-5.095 1.128-1.132 2.821-1.84 5.08-2.125 2.255-.282 5.358-.424 9.307-.424h16.928c3.95 0 7.052.142 9.31.424 2.258.285 3.95.993 5.08 2.125 1.126 1.133 1.832 2.83 2.114 5.095.281 2.266.424 5.382.424 9.344v14.866c0 1.345.142 2.442.423 3.291.282.85.652 1.54 1.11 2.071.46.53 1.007.94 1.641 1.22.635.285 1.34.569 2.115.851.705.283 1.393.584 2.064.902.67.319 1.233.743 1.693 1.274.457.532.829 1.205 1.11 2.018.282.815.425 1.895.425 3.238v33.978c0 1.842-.09 3.328-.265 4.46-.178 1.132-.567 2.001-1.164 2.6-.6.603-1.465.993-2.592 1.17-1.13.178-2.61.265-4.445.265h-2.115c-1.834 0-3.316-.087-4.442-.265-1.13-.177-1.995-.567-2.594-1.17-.599-.599-.987-1.468-1.163-2.6-.177-1.132-.265-2.618-.265-4.46v-23.148zM234.672 204.205c0-2.901-.3-5.431-.9-7.591-.6-2.16-1.623-3.93-3.069-5.31-1.446-1.38-3.402-2.406-5.87-3.079-2.47-.671-5.539-1.008-9.204-1.008h-2.116c-1.835 0-3.316.089-4.445.265-1.127.177-1.993.567-2.592 1.168-.6.602-.989 1.47-1.163 2.601-.176 1.133-.264 2.655-.264 4.567v55.106c0 1.842.088 3.33.264 4.46.174 1.134.563 2.002 1.163 2.602.599.601 1.446.992 2.54 1.168 1.093.178 2.592.265 4.497.265h2.116c3.665 0 6.733-.335 9.204-1.008 2.468-.673 4.424-1.7 5.87-3.08 1.446-1.38 2.468-3.149 3.068-5.309.6-2.158.9-4.688.9-7.59v-38.227zm-48.666-16.988c0-1.84.087-3.328.264-4.46.174-1.132.563-2 1.163-2.602.599-.6 1.463-.99 2.592-1.168 1.128-.176 2.61-.265 4.443-.265h21.16c4.725 0 8.835.424 12.326 1.274 3.491.85 6.348 2.283 8.568 4.3 2.222 2.017 3.88 4.656 4.973 7.91 1.093 3.258 1.64 7.258 1.64 11.999v38.226c0 4.815-.547 8.83-1.64 12.05-1.093 3.223-2.75 5.84-4.973 7.858-2.22 2.018-5.077 3.451-8.568 4.3-3.491.85-7.6 1.275-12.325 1.275h-21.16c-1.834 0-3.316-.087-4.444-.265-1.129-.177-1.993-.567-2.592-1.17-.6-.599-.989-1.468-1.163-2.6-.177-1.132-.264-2.618-.264-4.46v-72.202zM284.182 162.795c.916 0 1.709.106 2.38.318.67.212 1.005.709 1.005 1.486 0 .922-.528 2.055-1.587 3.398l-2.75 3.717c-.846 1.133-1.552 1.876-2.116 2.23-.566.355-1.658.53-3.28.53h-.634c-1.13 0-1.888-.247-2.275-.743-.389-.495-.582-1.45-.582-2.867v-4.46c0-1.415.318-2.37.952-2.866.634-.495 1.55-.743 2.75-.743h6.137zm2.857 61.585c0-1.344.14-2.424.423-3.239.281-.813.65-1.487 1.11-2.018a5.272 5.272 0 0 1 1.64-1.273c.635-.319 1.34-.62 2.115-.904.705-.28 1.394-.565 2.064-.849.67-.28 1.233-.69 1.692-1.22.458-.53.828-1.222 1.111-2.071.282-.85.425-1.947.425-3.292V195.71c0-1.839-.09-3.326-.264-4.46-.18-1.13-.568-1.998-1.165-2.6-.6-.6-1.465-.99-2.592-1.168-1.13-.177-2.611-.265-4.445-.265h-23.275c-1.834 0-3.314.088-4.443.265-1.129.178-1.992.568-2.59 1.167-.602.603-.99 1.47-1.165 2.602-.176 1.133-.265 2.62-.265 4.459v55.214c0 1.842.089 3.329.265 4.46.175 1.134.581 2.001 1.216 2.602.634.601 1.536.991 2.7 1.168 1.162.178 2.696.265 4.6.265h12.38c1.832 0 3.312-.087 4.443-.265 1.127-.177 1.99-.567 2.59-1.168.6-.6.988-1.468 1.165-2.601.174-1.132.265-2.62.265-4.461V224.38zm-38.086-28.67c0-3.963.138-7.076.421-9.342.282-2.267.988-3.965 2.117-5.098 1.127-1.131 2.82-1.84 5.078-2.124 2.257-.282 5.359-.424 9.309-.424h23.275c3.95 0 7.052.142 9.31.424 2.258.284 3.952.993 5.079 2.124 1.127 1.133 1.833 2.831 2.116 5.098.28 2.266.423 5.38.423 9.342v55.214c0 3.966-.143 7.08-.423 9.345-.283 2.267-.989 3.965-2.116 5.096-1.127 1.133-2.82 1.842-5.079 2.124-2.258.284-5.36.425-9.31.425h-23.275c-3.95 0-7.052-.14-9.309-.425-2.257-.282-3.95-.99-5.078-2.124-1.13-1.131-1.835-2.83-2.117-5.096-.283-2.266-.421-5.38-.421-9.345V195.71zM332 250.287c0-1.84.089-3.326.266-4.459.174-1.131.563-1.999 1.163-2.601.6-.601 1.462-.991 2.593-1.168 1.127-.176 2.609-.265 4.442-.265h2.117c1.832 0 3.315.089 4.442.265 1.13.177 1.992.567 2.593 1.168.598.602.987 1.47 1.163 2.601.176 1.133.266 2.62.266 4.46v9.557c0 1.84-.09 3.327-.266 4.459-.176 1.133-.565 2-1.163 2.6-.6.604-1.464.993-2.593 1.169-1.127.176-2.61.265-4.442.265h-2.117c-1.833 0-3.315-.089-4.442-.265-1.13-.176-1.994-.565-2.593-1.169-.6-.6-.989-1.467-1.163-2.6-.177-1.132-.266-2.619-.266-4.459v-9.558zm5.398-50.01c.774 1.629 1.707 2.442 2.802 2.442 1.093 0 2.064-.779 2.911-2.336l8.78-15.397c.846-1.485 1.55-2.636 2.115-3.45.564-.814 1.198-1.435 1.904-1.86.705-.424 1.57-.689 2.593-.795 1.021-.106 2.416-.16 4.178-.16h10.58c1.834 0 3.314.09 4.445.266 1.125.178 1.99.568 2.592 1.167.597.603.984 1.47 1.163 2.602.174 1.135.264 2.62.264 4.46v72.203c0 1.842-.09 3.327-.264 4.459-.179 1.134-.566 2.002-1.163 2.601-.602.603-1.467.993-2.592 1.17-1.13.177-2.611.265-4.445.265h-2.116c-1.835 0-3.315-.088-4.444-.266-1.128-.176-1.992-.566-2.59-1.169-.601-.599-.988-1.467-1.166-2.601-.175-1.132-.264-2.617-.264-4.46v-67.955c0-1.131-.157-1.965-.474-2.495-.318-.531-.69-.813-1.112-.85-.425-.034-.865.125-1.323.478-.46.356-.83.78-1.11 1.275l-15.551 27.075c-1.059 1.842-2.294 2.799-3.704 2.867-1.412.072-2.577-.883-3.491-2.867l-12.272-26.65c-.423-.991-1.076-1.45-1.958-1.381-.882.071-1.322.92-1.322 2.548v70.08c0 2.69-.302 4.425-.9 5.202-.599.78-1.71 1.169-3.333 1.169-1.623 0-2.733-.389-3.332-1.17-.599-.776-.899-2.51-.899-5.201v-74.326c0-1.84.087-3.326.264-4.46.175-1.132.563-2 1.164-2.603.598-.599 1.464-.99 2.592-1.167 1.127-.176 2.61-.265 4.444-.265h1.48c1.41 0 2.54.053 3.386.159.846.106 1.535.371 2.063.796.529.424 1.022 1.045 1.482 1.859.457.814 1.003 1.965 1.638 3.45l6.985 15.29zM387.542 195.71c0-3.962.14-7.077.423-9.344.28-2.264.986-3.962 2.117-5.095 1.126-1.132 2.819-1.842 5.077-2.124 2.258-.283 5.36-.425 9.31-.425h23.275c2.68 0 4.406.301 5.183.902.778.603 1.165 1.719 1.165 3.345 0 1.63-.387 2.743-1.165 3.344-.777.603-2.503.904-5.183.904H404.47c-1.835 0-3.315.089-4.444.265-1.128.177-1.992.567-2.591 1.168-.6.602-.988 1.47-1.165 2.601-.176 1.133-.264 2.62-.264 4.46v14.865c0 1.842.088 3.329.264 4.459.177 1.133.565 2.002 1.165 2.601.599.603 1.463.993 2.59 1.17 1.13.177 2.61.265 4.445.265h23.275c2.68 0 4.406.301 5.183.902.778.602 1.165 1.718 1.165 3.344 0 1.63-.387 2.744-1.165 3.345-.777.602-2.503.904-5.183.904H415.05c-1.835 0-3.315.089-4.444.265-1.129.176-1.994.566-2.592 1.167-.6.603-.99 1.47-1.163 2.602-.176 1.133-.265 2.619-.265 4.46v14.865c0 1.841.089 3.328.265 4.46.174 1.131.563 2 1.163 2.6.598.603 1.463.993 2.592 1.17 1.129.177 2.61.264 4.444.264h12.695c2.68 0 4.406.302 5.183.902.778.603 1.165 1.719 1.165 3.347 0 1.627-.387 2.743-1.165 3.344-.777.601-2.503.902-5.183.902H404.47c-3.95 0-7.052-.142-9.31-.424-2.258-.283-3.951-.991-5.077-2.124-1.13-1.132-1.837-2.831-2.117-5.098-.283-2.264-.423-5.378-.423-9.343V195.71zM438.85 183.075c0-1.627.388-2.76 1.164-3.397.776-.637 2.502-.957 5.184-.957h46.551c2.678 0 4.407.32 5.183.957.776.637 1.165 1.77 1.165 3.397 0 1.558-.389 2.638-1.165 3.239-.776.602-2.505.902-5.183.902h-4.232c-1.835 0-3.317.089-4.445.265-1.129.178-1.993.568-2.592 1.17-.599.6-.987 1.47-1.163 2.6-.177 1.132-.264 2.62-.264 4.46v63.707c0 1.843-.089 3.33-.265 4.46-.177 1.134-.581 2.002-1.217 2.602-.635.603-1.57.993-2.802 1.168-1.235.178-2.91.265-5.026.265-2.187 0-3.914-.087-5.185-.265-1.269-.175-2.239-.565-2.91-1.168-.671-.6-1.11-1.468-1.321-2.601-.211-1.132-.319-2.618-.319-4.46V195.71c0-1.84-.087-3.328-.263-4.46-.177-1.13-.566-2-1.164-2.6-.599-.602-1.464-.992-2.593-1.17-1.127-.176-2.609-.265-4.442-.265h-6.348c-2.682 0-4.408-.3-5.184-.902-.776-.601-1.163-1.681-1.163-3.239M511.32 210.576c0 1.841.089 3.329.264 4.459.176 1.134.563 2.002 1.165 2.601.599.603 1.462.993 2.59 1.17 1.13.177 2.61.265 4.444.265h16.928c1.833 0 3.315-.088 4.444-.266 1.127-.176 1.992-.566 2.592-1.169.597-.599.986-1.467 1.163-2.601.176-1.13.266-2.618.266-4.46V195.71c0-1.84-.09-3.326-.266-4.459-.177-1.131-.566-1.999-1.163-2.601-.6-.601-1.465-.991-2.592-1.168-1.13-.176-2.611-.265-4.444-.265h-16.928c-1.834 0-3.314.089-4.443.265-1.13.177-1.992.567-2.59 1.168-.603.602-.99 1.47-1.166 2.601-.175 1.133-.264 2.62-.264 4.46v14.865zm33.856 25.695c0-1.91-.09-3.432-.266-4.565-.177-1.132-.566-2.016-1.163-2.655-.6-.637-1.465-1.044-2.592-1.22-1.13-.177-2.611-.266-4.444-.266h-6.348c-1.835 0-3.315.09-4.443.266-1.129.176-1.993.566-2.592 1.167-.6.603-.989 1.47-1.163 2.602-.177 1.133-.264 2.619-.264 4.46v23.36c0 1.84-.09 3.327-.265 4.458-.177 1.133-.566 2.002-1.165 2.602-.6.602-1.464.992-2.592 1.169-1.129.178-2.61.265-4.444.265h-2.115c-1.835 0-3.317-.087-4.443-.265-1.129-.177-1.995-.567-2.592-1.17-.6-.599-.989-1.468-1.163-2.6-.179-1.132-.264-2.618-.264-4.46V195.71c0-3.962.138-7.078.421-9.344.282-2.264.988-3.962 2.116-5.095 1.128-1.132 2.821-1.84 5.08-2.125 2.256-.282 5.358-.424 9.308-.424h16.928c3.95 0 7.052.142 9.31.424 2.257.285 3.95.993 5.078 2.125 1.128 1.133 1.834 2.83 2.115 5.095.281 2.266.425 5.382.425 9.344v14.866c0 1.345.141 2.442.423 3.291.281.85.651 1.54 1.11 2.071.459.53 1.006.94 1.64 1.22.635.285 1.34.569 2.115.851.705.283 1.393.584 2.064.902.67.319 1.233.743 1.693 1.274.457.532.829 1.205 1.11 2.018.282.815.425 1.895.425 3.238v33.978c0 1.842-.09 3.328-.264 4.46-.18 1.132-.568 2.001-1.165 2.6-.6.603-1.465.993-2.592 1.17-1.13.178-2.61.265-4.445.265h-2.114c-1.835 0-3.317-.087-4.443-.265-1.13-.177-1.995-.567-2.592-1.17-.6-.599-.99-1.468-1.165-2.6-.177-1.132-.263-2.618-.263-4.46v-23.148zM608.122 224.38c0-1.344.14-2.424.423-3.239.281-.813.65-1.487 1.11-2.018a5.272 5.272 0 0 1 1.64-1.273 20.21 20.21 0 0 1 2.116-.904c.704-.28 1.393-.565 2.063-.849.67-.28 1.233-.69 1.692-1.22.459-.531.83-1.222 1.112-2.071.281-.85.424-1.947.424-3.292V195.71c0-1.839-.09-3.326-.264-4.46-.177-1.13-.566-1.998-1.165-2.6-.6-.6-1.465-.99-2.592-1.168-1.129-.177-2.61-.266-4.444-.266h-23.274c-1.835 0-3.316.09-4.445.266-1.127.178-1.992.568-2.59 1.167-.602.603-.99 1.47-1.165 2.602-.176 1.133-.264 2.62-.264 4.459v55.214c0 1.842.088 3.329.264 4.46.176 1.133.582 2.001 1.216 2.602.636.6 1.536.991 2.7 1.167 1.163.178 2.696.266 4.6.266h12.38c1.832 0 3.314-.088 4.443-.266 1.128-.176 1.99-.566 2.59-1.167.6-.6.988-1.469 1.166-2.602.174-1.131.264-2.618.264-4.46V224.38zm-38.086-28.67c0-3.963.14-7.077.422-9.343.281-2.266.987-3.964 2.118-5.097 1.125-1.131 2.819-1.84 5.077-2.124 2.256-.282 5.36-.424 9.31-.424h23.274c3.95 0 7.053.142 9.311.424 2.257.284 3.95.993 5.077 2.124 1.128 1.133 1.834 2.831 2.117 5.097.28 2.266.423 5.38.423 9.343v55.214c0 3.966-.143 7.08-.423 9.345-.283 2.266-.99 3.964-2.117 5.096-1.127 1.133-2.82 1.842-5.077 2.124-2.258.284-5.361.425-9.311.425h-23.274c-3.95 0-7.054-.14-9.31-.425-2.258-.282-3.952-.99-5.077-2.124-1.13-1.132-1.837-2.83-2.118-5.096-.282-2.266-.422-5.38-.422-9.345V195.71z" fill="#FFF"/><path d="M-12 123.05c0-6.542 105.49-11.85 235.62-11.85s235.624 5.308 235.624 11.85c0 6.544-105.495 11.849-235.624 11.849C93.49 134.899-12 129.594-12 123.05"/><path d="M166.67 123.05c0-6.542 105.489-11.85 235.62-11.85 130.129 0 235.623 5.308 235.623 11.85 0 6.544-105.494 11.849-235.624 11.849s-235.62-5.305-235.62-11.849"/><g transform="translate(135.727 -.101)"><mask id="b" fill="#fff"><use xlink:href="#a"/></mask><path d="M329.076 65.538c-2.432 11.59-7.368 30.822-17.525 36.902-11.546 6.91-34.435 10.674-53.579 8.233-19.142-2.44-31.904-9.76-39.502-24.093-6.148-11.6-15.192-45.44-9.115-57.029C215.432 17.963 247.64 14 262.53 13.084c19.735-1.214 49.53-.61 61.38 7.623 11.85 8.235 7.598 33.242 5.166 44.83M141.896 86.58c-7.596 14.334-20.358 21.653-39.5 24.093-19.145 2.44-42.033-1.322-53.579-8.233-10.157-6.08-15.095-25.313-17.525-36.902-2.43-11.589-6.685-36.596 5.166-44.831 11.849-8.233 41.645-8.837 61.378-7.623 14.891.915 47.1 4.879 53.177 16.467 6.076 11.59-2.967 45.429-9.117 57.03m72.016-76.242c-10.596 3.507-23.092 8.487-33.727 8.487-10.639 0-23.134-4.98-33.73-8.487C117.891.884 45.876-5.215.297 9.423l1.369 25.313s8.279-1.83 11.014 7.32c2.735 9.148 9.087 46.865 20.702 61.603 14.42 18.298 45.478 19.002 66.48 18.095 28.278-1.22 46.794-13.825 54.695-35.174 7.901-21.347 12.36-39.644 17.418-45.44 2.73-3.127 5.808-3.348 8.21-3.353 2.4.005 5.477.226 8.206 3.354 5.06 5.795 9.519 24.092 17.418 45.44 7.903 21.348 26.418 33.952 54.697 35.173 21.002.907 52.06.203 66.48-18.095 11.614-14.738 17.967-52.455 20.702-61.604 2.735-9.148 11.014-7.32 11.014-7.32l1.369-25.312c-45.58-14.638-117.594-8.539-146.159.916" fill="#FFF" mask="url(#b)"/></g></g></svg>