<?xml version="1.0" encoding="UTF-8"?>
<svg width="223px" height="44px" viewBox="0 0 223 44" version="1.1" xmlns="http://www.w3.org/2000/svg" xmlns:xlink="http://www.w3.org/1999/xlink">
    <!-- Generator: Sketch 50.2 (55047) - http://www.bohemiancoding.com/sketch -->
    <title>Group 2</title>
    <desc>Created with Sketch.</desc>
    <defs>
        <polygon id="path-1" points="0.0471824798 0.0406920635 6.18250054 0.0406920635 6.18250054 9.9047619 0.0471824798 9.9047619"></polygon>
        <polygon id="path-3" points="0 12.8968254 73.9405606 12.8968254 73.9405606 0.0203253968 0 0.0203253968"></polygon>
        <path d="M17.4,1.03 L9.87,16.52 L2.34,1.03 C2.127,0.593 1.8,0.367 1.36,0.367 C0.682,0.367 0.343,0.723 0.343,1.435 L0.343,18.895 C0.343,19.555 0.687,19.878 1.394,19.878 C2.092,19.878 2.44,19.556 2.44,18.895 L2.44,5.977 L8.919,19.315 C9.127,19.739 9.444,19.943 9.871,19.943 C10.3,19.943 10.614,19.739 10.823,19.315 L17.317,5.977 L17.317,18.895 C17.317,19.555 17.667,19.878 18.364,19.878 C19.071,19.878 19.415,19.556 19.415,18.895 L19.415,1.435 C19.415,0.723 19.078,0.367 18.403,0.367 C17.95,0.367 17.617,0.593 17.401,1.03 L17.4,1.03 Z" id="path-5"></path>
        <path d="M17.349,0.784 L9.683,9.386 L2.003,0.784 C1.778,0.544 1.51,0.416 1.203,0.416 C0.494,0.416 0.137,0.738 0.137,1.396 C0.137,1.62 0.225,1.836 0.395,2.035 L8.635,11.289 L8.635,18.86 C8.635,19.52 8.985,19.852 9.683,19.852 C10.391,19.852 10.738,19.52 10.738,18.86 L10.738,11.29 L18.98,2.035 C19.142,1.837 19.234,1.62 19.234,1.396 C19.234,0.738 18.881,0.416 18.168,0.416 C17.838,0.416 17.566,0.543 17.348,0.784 L17.349,0.784 Z" id="path-7"></path>
        <path d="M1.957,0.432 C1.253,0.432 0.904,0.764 0.904,1.42 C0.904,2.076 1.254,2.409 1.957,2.409 L9.38,2.409 L9.38,18.86 C9.38,19.52 9.736,19.852 10.432,19.852 C11.132,19.852 11.487,19.52 11.487,18.86 L11.487,2.41 L18.929,2.41 C19.629,2.41 19.982,2.077 19.982,1.42 C19.982,0.765 19.629,0.433 18.929,0.433 L1.958,0.433 L1.957,0.432 Z" id="path-9"></path>
        <path d="M17.376,1.418 L17.376,6.796 L2.496,6.796 L2.496,1.418 C2.496,0.764 2.146,0.433 1.448,0.433 C0.748,0.433 0.396,0.764 0.396,1.418 L0.396,18.86 C0.396,19.518 0.747,19.852 1.448,19.852 C2.147,19.852 2.496,19.518 2.496,18.86 L2.496,8.75 L17.376,8.75 L17.376,18.86 C17.376,19.518 17.721,19.852 18.42,19.852 C19.12,19.852 19.475,19.518 19.475,18.86 L19.475,1.418 C19.475,0.764 19.121,0.433 18.42,0.433 C17.721,0.433 17.376,0.764 17.376,1.418 Z" id="path-11"></path>
        <path d="M5.895,0.433 C4.576,0.433 3.439,0.819 2.469,1.59 C1.45,2.384 0.944,3.392 0.944,4.609 L0.944,15.687 C0.944,16.89 1.457,17.897 2.483,18.708 C3.442,19.468 4.576,19.852 5.895,19.852 L15.049,19.852 C16.327,19.852 17.454,19.475 18.426,18.746 C19.462,17.949 19.992,16.966 20.019,15.783 L20.019,4.513 C19.992,3.337 19.477,2.363 18.478,1.59 C17.504,0.819 16.364,0.433 15.049,0.433 L5.895,0.433 Z M3.975,17.307 C3.353,16.871 3.042,16.332 3.042,15.687 L3.042,4.61 C3.042,3.954 3.352,3.417 3.975,2.984 C4.53,2.601 5.167,2.41 5.895,2.41 L15.049,2.41 C15.772,2.41 16.415,2.6 16.983,2.973 C17.605,3.406 17.918,3.954 17.918,4.61 L17.918,15.688 C17.918,16.345 17.605,16.884 16.983,17.308 C16.415,17.69 15.772,17.875 15.049,17.875 L5.895,17.875 C5.21214104,17.8863137 4.54216306,17.6884608 3.975,17.308 L3.975,17.307 Z" id="path-13"></path>
        <path d="M21.782,0.54 L12.09,11.43 L2.362,0.54 C2.068,0.231 1.742,0.072 1.355,0.072 C0.451,0.073 0,0.486 0,1.323 C0,1.601 0.1,1.87 0.318,2.123 L10.754,13.834 L10.754,18.267 C10.754,19.1 11.193,19.517 12.09,19.517 C12.965,19.517 13.411,19.1 13.411,18.267 L13.411,13.834 L23.841,2.124 C24.059,1.87 24.158,1.601 24.158,1.323 C24.158,0.487 23.712,0.073 22.81,0.073 C22.4,0.073 22.054,0.233 21.782,0.541 L21.782,0.54 Z" id="path-15"></path>
        <path d="M21.5,1.322 L21.5,11.433 L2.659,11.433 L2.659,1.322 C2.659,0.492 2.211,0.072 1.338,0.072 C0.443,0.073 0,0.488 0,1.323 L0,13.904 C0,14.74 0.443,15.157 1.337,15.157 C2.21,15.157 2.657,14.74 2.657,13.904 L21.501,13.904 C21.501,14.74 21.947,15.157 22.821,15.157 C23.719,15.157 24.157,14.74 24.157,13.904 L24.157,1.322 C24.157,0.492 23.719,0.072 22.822,0.072 C21.947,0.072 21.501,0.488 21.501,1.322 L21.5,1.322 Z" id="path-17"></path>
        <path d="M6.275,0.46 C4.61,0.46 3.162,0.942 1.922,1.92 C0.635,2.937 0,4.212 0,5.75 L0,19.78 C0,21.303 0.65,22.576 1.954,23.61 C3.173,24.572 4.61,25.051 6.275,25.051 L17.875,25.051 C19.482,25.051 20.91,24.583 22.138,23.651 C23.488,22.624 24.157,21.332 24.157,19.78 L24.157,5.749 C24.157,4.212 23.504,2.937 22.205,1.92 C20.978,0.943 19.529,0.46 17.875,0.46 L6.275,0.46 Z M3.843,21.833 C3.05,21.286 2.658,20.599 2.658,19.781 L2.658,5.749 C2.658,4.918 3.05,4.233 3.843,3.697 C4.545,3.203 5.357,2.954 6.275,2.954 L17.875,2.954 C18.782,2.954 19.605,3.199 20.311,3.676 C21.107,4.222 21.501,4.918 21.501,5.749 L21.501,19.78 C21.501,20.61 21.107,21.296 20.311,21.833 C19.604,22.313 18.781,22.554 17.875,22.554 L6.275,22.554 C5.37,22.554 4.557,22.312 3.843,21.833 Z" id="path-19"></path>
    </defs>
    <g id="Page-1" stroke="none" stroke-width="1" fill="none" fill-rule="evenodd">
        <g id="Group-2">
            <g id="Group" transform="translate(147.000000, 31.000000)">
                <path d="M4.17138598,0.943903175 L3.83280108,3.62004603 L2.41074447,3.62004603 L2.76279299,0.943903175 L1.96385229,0.943903175 L1.61170404,3.62004603 L0.324881941,3.62004603 L0.324881941,4.44678413 L1.50329704,4.44678413 L1.24579299,6.47839524 L-3.98921833e-05,6.47839524 L-3.98921833e-05,7.30503016 L1.12412183,7.30503016 L0.771873854,10.0512286 L1.58457736,10.0512286 L1.92316226,7.30503016 L3.33165553,7.30503016 L2.97950728,10.0512286 L3.79211105,10.0512286 L4.1442593,7.30503016 L5.4310814,7.30503016 L5.4310814,6.47839524 L4.26612992,6.47839524 L4.50987116,4.44678413 L5.74253962,4.44678413 L5.74253962,3.62004603 L4.63184151,3.62004603 L4.97062588,0.943903175 L4.17138598,0.943903175 Z M2.30233747,4.44678413 L3.71083073,4.44678413 L3.45362588,6.47839524 L2.04503288,6.47839524 L2.30233747,4.44678413 Z" id="Fill-1" fill="#FEFEFE"></path>
                <g id="Group-19" transform="translate(0.000000, 0.082849)">
                    <path d="M10.7401226,9.12772302 C12.6092709,9.12772302 13.6656159,7.34837381 13.6656159,5.2046119 C13.6656159,3.32704048 12.7175782,1.36538175 10.7537857,1.36538175 C8.78989353,1.36538175 7.81482884,3.25698492 7.81482884,5.30262778 C7.81482884,7.29224683 8.87117385,9.12772302 10.726659,9.12772302 L10.7401226,9.12772302 Z M10.685969,10.1225325 C8.26162129,10.1225325 6.58226011,8.1889373 6.58226011,5.33069127 C6.58226011,2.33223095 8.36992857,0.370572222 10.8079394,0.370572222 C13.3134677,0.370572222 14.9253113,2.34615952 14.9253113,5.14848492 C14.9253113,8.3851754 13.0155728,10.1225325 10.6996321,10.1225325 L10.685969,10.1225325 Z" id="Fill-2" fill="#FEFEFE"></path>
                    <path d="M16.2932741,5.30260714 C16.2932741,4.50393254 16.2796111,3.81740873 16.2391205,3.18690873 L17.2820019,3.18690873 L17.3361555,4.51796429 L17.3766461,4.51796429 C17.6747404,3.60724206 18.4061636,3.03276587 19.2051043,3.03276587 C19.3270747,3.03276587 19.4219183,3.04679762 19.5302256,3.07475794 L19.5302256,4.22371032 C19.3948914,4.20967857 19.272921,4.19564683 19.1102606,4.19564683 C18.2707296,4.19564683 17.6747404,4.85421032 17.5122795,5.76493254 C17.4851528,5.94713889 17.4714898,6.14327381 17.4714898,6.35354365 L17.4714898,9.96847222 L16.2796111,9.96847222 L16.2932741,5.30260714 Z" id="Fill-4" fill="#FEFEFE"></path>
                    <g id="Group-8" transform="translate(19.946092, 2.992063)">
                        <mask id="mask-2" fill="white">
                            <use xlink:href="#path-1"></use>
                        </mask>
                        <g id="Clip-7"></g>
                        <path d="M4.93646819,2.85704921 C4.93646819,2.66091429 4.92300458,2.47870794 4.86865148,2.31053333 C4.65203693,1.58201746 4.08327412,0.993509524 3.20285364,0.993509524 C2.06512857,0.993509524 1.25262453,1.98831905 1.25262453,3.57163651 C1.25262453,4.88866032 1.91633073,6.00965238 3.18939003,6.00965238 C3.93427682,6.00965238 4.59788329,5.53319206 4.84162453,4.73451746 C4.90944124,4.53838254 4.93646819,4.30015238 4.93646819,4.07595397 L4.93646819,2.85704921 Z M6.1283469,5.98158889 C6.1283469,7.5508746 5.81688868,8.48966032 5.19377278,9.09209683 C4.54372965,9.69453333 3.6228186,9.90480317 2.79655175,9.90480317 C2.01097493,9.90480317 1.14421752,9.70856508 0.616144744,9.34425556 L0.913939892,8.39154127 C1.34736846,8.68579524 2.02463801,8.93795397 2.83724178,8.93795397 C4.05624717,8.93795397 4.95013127,8.27949365 4.95013127,6.55606508 L4.95013127,5.81341429 L4.92300458,5.81341429 C4.57085633,6.44401746 3.85309623,6.94833492 2.83724178,6.94833492 C1.2119345,6.94833492 0.0471824798,5.51916032 0.0471824798,3.62766032 C0.0471824798,1.32975556 1.49636577,0.0406920635 3.01336577,0.0406920635 C4.15089137,0.0406920635 4.7603442,0.643231746 5.05843854,1.20367619 L5.0854655,1.20367619 L5.12615553,0.194834921 L6.18250054,0.194834921 C6.14181051,0.671192063 6.1283469,1.21760476 6.1283469,2.04434286 L6.1283469,5.98158889 Z" id="Fill-6" fill="#FEFEFE" mask="url(#mask-2)"></path>
                    </g>
                    <path d="M33.3880919,8.11895397 C33.3880919,8.81950952 33.4015555,9.43608095 33.4422456,9.9684619 L32.3859005,9.9684619 L32.3180838,8.86150159 L32.2910569,8.86150159 C31.9930623,9.40801746 31.288666,10.1225016 30.1240137,10.1225016 C29.094596,10.1225016 27.8622267,9.52006508 27.8622267,7.15210476 L27.8622267,3.18689841 L29.0541054,3.18689841 L29.0541054,6.92800952 C29.0541054,8.21696984 29.4467442,9.09973175 30.5167523,9.09973175 C31.3159922,9.09973175 31.8710919,8.52525556 32.0879059,7.96481111 C32.1555232,7.79663651 32.1962132,7.57254127 32.1962132,7.33431111 L32.1962132,3.18689841 L33.3880919,3.18689841 L33.3880919,8.11895397 Z" id="Fill-9" fill="#FEFEFE"></path>
                    <mask id="mask-4" fill="white">
                        <use xlink:href="#path-3"></use>
                    </mask>
                    <g id="Clip-12"></g>
                    <polygon id="Fill-11" fill="#FEFEFE" mask="url(#mask-4)" points="35.2301833 9.96842063 36.4218625 9.96842063 36.4218625 0.0203253968 35.2301833 0.0203253968"></polygon>
                    <polygon id="Fill-13" fill="#FEFEFE" mask="url(#mask-4)" points="38.2639838 9.96842063 39.4556631 9.96842063 39.4556631 0.0203253968 38.2639838 0.0203253968"></polygon>
                    <path d="M44.0064636,9.19779921 C45.1441887,9.19779921 45.9973827,8.09083889 45.9973827,6.54961667 C45.9973827,5.40066429 45.4420836,3.95745794 44.0334906,3.95745794 C42.6384609,3.95745794 42.0290081,5.30264841 42.0290081,6.5917119 C42.0290081,8.07691032 42.8416119,9.19779921 43.9928005,9.19779921 L44.0064636,9.19779921 Z M43.9657736,10.1225532 C42.2051321,10.1225532 40.8236658,8.77746587 40.8236658,6.63370397 C40.8236658,4.3638627 42.2728491,3.03280714 44.0742803,3.03280714 C45.9566927,3.03280714 47.229752,4.44795 47.229752,6.5076246 C47.229752,9.02972778 45.5369272,10.1225532 43.9794367,10.1225532 L43.9657736,10.1225532 Z" id="Fill-14" fill="#FEFEFE" mask="url(#mask-4)"></path>
                    <path d="M48.6384747,9.96843095 L48.6384747,0.524756349 L49.9386606,0.524756349 L52.8504908,5.30256587 C53.5143965,6.40952619 54.0560326,7.39040714 54.4757981,8.37118492 L54.5164881,8.35715317 C54.4082806,7.09605 54.3811539,5.94709762 54.3811539,4.4899627 L54.3811539,0.524756349 L55.4916526,0.524756349 L55.4916526,9.96843095 L54.2997739,9.96843095 L51.401507,5.17648651 C50.7649275,4.12565317 50.1554747,3.04675635 49.7084827,2.02398651 L49.6678925,2.03791508 C49.7355097,3.2289627 49.7491728,4.36388333 49.7491728,5.93316905 L49.7491728,9.96843095 L48.6384747,9.96843095 Z" id="Fill-15" fill="#FEFEFE" mask="url(#mask-4)"></path>
                    <path d="M61.5190922,5.90512619 C61.5325558,5.13451508 61.2074345,3.9014754 59.8801218,3.9014754 C58.6612162,3.9014754 58.146607,5.05042778 58.0518631,5.90512619 L61.5190922,5.90512619 Z M58.0382997,6.7878881 C58.0653267,8.45518968 59.0811811,9.14181667 60.2730598,9.14181667 C61.1262539,9.14181667 61.6544264,8.98757063 62.087855,8.80546746 L62.3044695,9.67419762 C61.884704,9.87043571 61.1532809,10.1085627 60.1103995,10.1085627 C58.1060167,10.1085627 56.8871111,8.72138016 56.8871111,6.68976905 C56.8871111,4.63009444 58.0653267,3.01871349 59.9750652,3.01871349 C62.1149817,3.01871349 62.6702809,4.9662373 62.6702809,6.21330873 C62.6702809,6.46567381 62.6566178,6.66170556 62.6295908,6.80181667 L58.0382997,6.7878881 Z" id="Fill-16" fill="#FEFEFE" mask="url(#mask-4)"></path>
                    <path d="M64.0246205,5.30260714 C64.0246205,4.50393254 64.0109574,3.81740873 63.9704668,3.18690873 L65.0133482,3.18690873 L65.0675019,4.51796429 L65.1079925,4.51796429 C65.4060868,3.60724206 66.13751,3.03276587 66.9364507,3.03276587 C67.058421,3.03276587 67.1532647,3.04679762 67.261572,3.07475794 L67.261572,4.22371032 C67.1262377,4.20967857 67.0042674,4.19564683 66.841607,4.19564683 C66.002076,4.19564683 65.4060868,4.85421032 65.2436259,5.76493254 C65.2164992,5.94713889 65.2028361,6.14327381 65.2028361,6.35354365 L65.2028361,9.96847222 L64.0109574,9.96847222 L64.0246205,5.30260714 Z" id="Fill-17" fill="#FEFEFE" mask="url(#mask-4)"></path>
                    <path d="M72.6945482,5.94714921 C72.6945482,5.77907778 72.6808852,5.58283968 72.6403946,5.41476825 C72.4642706,4.64405397 71.8141278,3.9996254 70.9202437,3.9996254 C69.6878744,3.9996254 68.9564512,5.12051429 68.9564512,6.6057127 C68.9564512,7.99279206 69.6200577,9.1277127 70.8932167,9.1277127 C71.6923569,9.1277127 72.4235806,8.56737143 72.6403946,7.65654603 C72.6808852,7.48837143 72.6945482,7.3203 72.6945482,7.12416508 L72.6945482,5.94714921 Z M73.886427,0.020284127 L73.886427,8.21699048 C73.886427,8.81953016 73.8998906,9.50605397 73.9405806,9.96848254 L72.8706722,9.96848254 L72.8165186,8.79146667 L72.7893919,8.79146667 C72.4235806,9.54804603 71.6382032,10.1225222 70.5682949,10.1225222 C68.9834782,10.1225222 67.7511089,8.73544286 67.7511089,6.67576825 C67.7376453,4.40592698 69.1054485,3.03277619 70.689966,3.03277619 C71.7058205,3.03277619 72.38309,3.52316508 72.6675213,4.05564921 L72.6945482,4.05564921 L72.6945482,0.020284127 L73.886427,0.020284127 Z" id="Fill-18" fill="#FEFEFE" mask="url(#mask-4)"></path>
                </g>
            </g>
            <g id="brand">
                <g id="Group" transform="translate(48.251000, 2.600000)">
                    <g id="Clipped">
                        <mask id="mask-6" fill="white">
                            <use xlink:href="#path-5"></use>
                        </mask>
                        <g id="a"></g>
                        <polygon id="Shape" fill="#FFFFFF" fill-rule="nonzero" mask="url(#mask-6)" points="-6.179 26.443 25.936 26.443 25.936 -6.133 -6.18 -6.133"></polygon>
                    </g>
                </g>
                <g id="Group" transform="translate(87.070000, 2.600000)">
                    <g id="Clipped">
                        <mask id="mask-8" fill="white">
                            <use xlink:href="#path-7"></use>
                        </mask>
                        <g id="c"></g>
                        <polygon id="Shape" fill="#FFFFFF" fill-rule="nonzero" mask="url(#mask-8)" points="-6.385 26.351 25.755 26.351 25.755 -6.084 -6.385 -6.084"></polygon>
                    </g>
                </g>
                <g id="Group" transform="translate(123.889000, 2.600000)">
                    <g id="Clipped">
                        <mask id="mask-10" fill="white">
                            <use xlink:href="#path-9"></use>
                        </mask>
                        <g id="e"></g>
                        <polygon id="Shape" fill="#FFFFFF" fill-rule="nonzero" mask="url(#mask-10)" points="-5.617 26.352 26.5 26.352 26.5 -6.068 -5.617 -6.068"></polygon>
                    </g>
                </g>
                <g id="Group" transform="translate(163.012000, 2.600000)">
                    <g id="Clipped">
                        <mask id="mask-12" fill="white">
                            <use xlink:href="#path-11"></use>
                        </mask>
                        <g id="g"></g>
                        <polygon id="Shape" fill="#FFFFFF" fill-rule="nonzero" mask="url(#mask-12)" points="-6.124 26.352 25.996 26.352 25.996 -6.068 -6.124 -6.068"></polygon>
                    </g>
                </g>
                <g id="Group" transform="translate(202.135000, 2.600000)">
                    <g id="Clipped">
                        <mask id="mask-14" fill="white">
                            <use xlink:href="#path-13"></use>
                        </mask>
                        <g id="i"></g>
                        <polygon id="Shape" fill="#FFFFFF" fill-rule="nonzero" mask="url(#mask-14)" points="-5.576 26.352 26.54 26.352 26.54 -6.068 -5.576 -6.068"></polygon>
                    </g>
                </g>
                <g id="Group" transform="translate(0.000000, 4.900000)">
                    <g id="Clipped">
                        <mask id="mask-16" fill="white">
                            <use xlink:href="#path-15"></use>
                        </mask>
                        <g id="k"></g>
                        <polygon id="Shape" fill="#FFFFFF" fill-rule="nonzero" mask="url(#mask-16)" points="-6.52 26.015 30.679 26.015 30.679 -6.427 -6.521 -6.427"></polygon>
                    </g>
                </g>
                <g id="Group" transform="translate(0.000000, 4.900000)">
                    <g id="Clipped">
                        <mask id="mask-18" fill="white">
                            <use xlink:href="#path-17"></use>
                        </mask>
                        <g id="m"></g>
                        <polygon id="Shape" fill="#FFFFFF" fill-rule="nonzero" mask="url(#mask-18)" points="-6.52 21.655 30.679 21.655 30.679 -6.427 -6.521 -6.427"></polygon>
                    </g>
                </g>
                <g id="Clipped">
                    <mask id="mask-20" fill="white">
                        <use xlink:href="#path-19"></use>
                    </mask>
                    <g id="o"></g>
                    <polygon id="Shape" fill="#FFFFFF" fill-rule="nonzero" mask="url(#mask-20)" points="-6.52 31.554 30.679 31.554 30.679 -6.04 -6.521 -6.04"></polygon>
                </g>
            </g>
        </g>
    </g>
</svg>