<svg width="223" height="52" viewBox="0 0 223 52" xmlns="http://www.w3.org/2000/svg" xmlns:xlink="http://www.w3.org/1999/xlink"><title>03E7E346-0EFA-4425-A72E-42CECB3CD284</title><defs><path d="M17.4 1.03L9.87 16.52 2.34 1.03C2.127.593 1.8.367 1.36.367.682.367.343.723.343 1.435v17.46c0 .66.344.983 1.051.983.698 0 1.046-.322 1.046-.983V5.977l6.479 13.338c.208.424.525.628.952.628.429 0 .743-.204.952-.628l6.494-13.338v12.918c0 .66.35.983 1.047.983.707 0 1.051-.322 1.051-.983V1.435c0-.712-.337-1.068-1.012-1.068-.453 0-.786.226-1.002.663z" id="a"/><path d="M17.349.784L9.683 9.386 2.003.784c-.225-.24-.493-.368-.8-.368-.709 0-1.066.322-1.066.98 0 .224.088.44.258.639l8.24 9.254v7.571c0 .66.35.992 1.048.992.708 0 1.055-.332 1.055-.992v-7.57l8.242-9.255c.162-.198.254-.415.254-.639 0-.658-.353-.98-1.066-.98-.33 0-.602.127-.82.368z" id="c"/><path d="M1.957.432C1.253.432.904.764.904 1.42c0 .656.35.989 1.053.989H9.38V18.86c0 .66.356.992 1.052.992.7 0 1.055-.332 1.055-.992V2.41h7.442c.7 0 1.053-.333 1.053-.99 0-.655-.353-.987-1.053-.987H1.958z" id="e"/><path d="M17.376 1.418v5.378H2.496V1.418c0-.654-.35-.985-1.048-.985-.7 0-1.052.331-1.052.985V18.86c0 .658.351.992 1.052.992.699 0 1.048-.334 1.048-.992V8.75h14.88V18.86c0 .658.345.992 1.044.992.7 0 1.055-.334 1.055-.992V1.418c0-.654-.354-.985-1.055-.985-.699 0-1.044.331-1.044.985z" id="g"/><path d="M5.895.433c-1.319 0-2.456.386-3.426 1.157C1.45 2.384.944 3.392.944 4.609v11.078c0 1.203.513 2.21 1.539 3.021.959.76 2.093 1.144 3.412 1.144h9.154c1.278 0 2.405-.377 3.377-1.106 1.036-.797 1.566-1.78 1.593-2.963V4.513c-.027-1.176-.542-2.15-1.541-2.923C17.504.819 16.364.433 15.049.433H5.895zm-1.92 16.874c-.622-.436-.933-.975-.933-1.62V4.61c0-.656.31-1.193.933-1.626.555-.383 1.192-.574 1.92-.574h9.154c.723 0 1.366.19 1.934.563.622.433.935.981.935 1.637v11.078c0 .657-.313 1.196-.935 1.62-.568.382-1.211.567-1.934.567H5.895a3.347 3.347 0 0 1-1.92-.567z" id="i"/><path d="M21.782.54L12.09 11.43 2.362.54C2.068.231 1.742.072 1.355.072.451.073 0 .486 0 1.323c0 .278.1.547.318.8l10.436 11.711v4.433c0 .833.439 1.25 1.336 1.25.875 0 1.321-.417 1.321-1.25v-4.433l10.43-11.71c.218-.254.317-.523.317-.801 0-.836-.446-1.25-1.348-1.25-.41 0-.756.16-1.028.468z" id="k"/><path d="M21.5 1.322v10.111H2.659V1.322c0-.83-.448-1.25-1.321-1.25C.443.073 0 .488 0 1.323v12.581c0 .836.443 1.253 1.337 1.253.873 0 1.32-.417 1.32-1.253h18.844c0 .836.446 1.253 1.32 1.253.898 0 1.336-.417 1.336-1.253V1.322c0-.83-.438-1.25-1.335-1.25-.875 0-1.321.416-1.321 1.25z" id="m"/><path d="M6.275.46C4.61.46 3.162.942 1.922 1.92.635 2.937 0 4.212 0 5.75V19.78c0 1.523.65 2.796 1.954 3.83 1.219.962 2.656 1.441 4.321 1.441h11.6c1.607 0 3.035-.468 4.263-1.4 1.35-1.027 2.019-2.319 2.019-3.871V5.749c0-1.537-.653-2.812-1.952-3.829C20.978.943 19.529.46 17.875.46h-11.6zM3.843 21.833c-.793-.547-1.185-1.234-1.185-2.052V5.749c0-.831.392-1.516 1.185-2.052.702-.494 1.514-.743 2.432-.743h11.6c.907 0 1.73.245 2.436.722.796.546 1.19 1.242 1.19 2.073V19.78c0 .83-.394 1.516-1.19 2.053-.707.48-1.53.721-2.436.721h-11.6c-.905 0-1.718-.242-2.432-.721z" id="o"/><path d="M.095.086V6.92c0 .914.471 1.584 1.733 1.584 1.1 0 2.225 0 3.304-.085l-.053-.83H2c-.567 0-.828-.244-.828-.801V.086H.095z" id="q"/><path d="M3.27.086c-.2 0-.362.109-.411.291L.113 8.492H1.24l.843-2.632h3.512l.838 2.632H7.56L4.813.377c-.05-.182-.21-.291-.406-.291H3.269zm.183 1.512l.212-.682h.346c.062.219.133.462.21.682l1.075 3.337H2.377l1.076-3.337z" id="s"/><path d="M.322 1.534v5.508c.013.904.643 1.463 1.645 1.463 1.224 0 2.522 0 3.661-.073l-.05-.83H2.154c-.506 0-.742-.24-.742-.813V4.482h3.687V3.62H1.41V1.793c0-.562.236-.805.742-.805H5.58l.05-.84C4.488.072 3.19.072 1.966.072.965.071.335.635.322 1.533z" id="u"/><path d="M6.03.086l-2 6.65c-.1.306-.187.626-.264.928h-.33c-.075-.302-.16-.609-.249-.912L1.173.086H.048l2.583 8.103c.05.17.21.304.42.304h1.1c.197 0 .36-.134.421-.304L7.157.086H6.03z" id="w"/><path d="M.029 4.589c0 3.289.89 4.362 3.375 4.362 2.488 0 3.366-1.073 3.366-4.362 0-3.29-.878-4.362-3.366-4.362C.918.227.029 1.298.029 4.59zm1.15 0c0-2.573.543-3.4 2.225-3.4s2.229.827 2.229 3.4c0 2.571-.547 3.398-2.23 3.398-1.681 0-2.224-.827-2.224-3.398z" id="y"/><path d="M.265.086V6.92c0 .914.47 1.584 1.728 1.584 1.103 0 2.228 0 3.303-.085l-.047-.83H2.167c-.568 0-.826-.244-.826-.801V.086H.265z" id="A"/><path d="M6.07.086v5.19c0 1.801-.535 2.41-2.018 2.41-1.495 0-2.012-.609-2.012-2.41V.087H.95v5.19c0 2.437.842 3.376 3.153 3.376 2.235 0 3.055-.94 3.055-3.375V.086H6.07z" id="C"/><path d="M.906 4.589c0 3.204.891 4.35 3.35 4.35 1.114 0 1.785-.086 2.5-.28l-.11-.805c-.693.098-1.337.133-2.39.133-1.667 0-2.2-.84-2.2-3.398 0-2.56.533-3.4 2.2-3.4.992 0 1.473.037 2.214.11l.113-.817C5.878.312 5.333.239 4.257.239c-2.46 0-3.35 1.145-3.35 4.35z" id="E"/><path d="M2.933 2.049l.359.474 2.376-1.464L5.06.257 2.933 2.05zm-2.56 5.14c0 3.289.89 4.363 3.378 4.363 2.485 0 3.363-1.074 3.363-4.363 0-3.29-.878-4.362-3.363-4.362C1.262 2.827.373 3.898.373 7.19zm1.151 0c0-2.573.544-3.4 2.227-3.4 1.68 0 2.226.827 2.226 3.4 0 2.571-.545 3.398-2.226 3.398-1.683 0-2.227-.827-2.227-3.398z" id="G"/><path d="M6.43.086v6.092c0 .426.01.84.036 1.281h-.212a28.662 28.662 0 0 0-.58-1.22L2.88.425c-.099-.23-.234-.34-.483-.34H1.372c-.286 0-.433.146-.433.426v7.982h1.086V2.192c0-.366-.01-.74-.048-1.108h.197c.1.338.332.792.481 1.108L5.538 8.15c.1.234.235.343.483.343h1.063c.27 0 .422-.147.422-.427V.086H6.43z" id="I"/><path d="M.288.386v8.407c.887.06 1.866.11 3.041.11 2.448 0 3.33-1.062 3.33-4.314 0-3.254-.882-4.312-3.33-4.312A43.03 43.03 0 0 0 .29.386zM1.376 7.94V1.226c.578-.01 1.2-.024 1.953-.024 1.633 0 2.193.84 2.193 3.387 0 2.545-.56 3.374-2.193 3.374-.742 0-1.399-.011-1.953-.023z" id="K"/><path d="M.407 1.534v5.508c.01.904.643 1.463 1.646 1.463 1.222 0 2.52 0 3.658-.073l-.049-.83H2.238c-.51 0-.745-.24-.745-.813V4.482H5.18V3.62H1.493V1.793c0-.562.235-.805.745-.805h3.424l.049-.84C4.572.072 3.275.072 2.053.072 1.05.071.417.635.407 1.533z" id="M"/><path d="M.617.086V6.92c0 .914.47 1.584 1.734 1.584 1.1 0 2.226 0 3.302-.085l-.05-.83H2.524c-.57 0-.83-.244-.83-.801V.086H.617z" id="O"/><path d="M3.791.086c-.197 0-.36.109-.408.291L.636 8.492h1.126l.841-2.632h3.515l.838 2.632h1.127L5.335.377c-.046-.182-.21-.291-.406-.291H3.791zm.185 1.512l.211-.682h.347c.062.219.136.462.212.682L5.82 4.935H2.9l1.076-3.337z" id="Q"/><path d="M.848 1.534v5.508c.009.904.64 1.463 1.644 1.463 1.22 0 2.522 0 3.66-.073l-.051-.83H2.676c-.507 0-.742-.24-.742-.813V4.482h3.685V3.62H1.934V1.793c0-.562.235-.805.742-.805h3.425l.05-.84C5.014.072 3.713.072 2.492.072 1.488.071.857.635.848 1.533z" id="S"/><path d="M.736 2.457c0 1.279.444 2.035 1.682 2.34l1.767.438c.742.184 1.076.413 1.076 1.388 0 1.159-.408 1.352-1.72 1.352-.706.012-1.161-.011-2.607-.06l-.075.793c1.161.208 2.09.232 2.645.232 1.995 0 2.859-.355 2.859-2.292 0-1.304-.407-2.045-1.722-2.362l-1.729-.43c-.755-.18-1.076-.448-1.076-1.377 0-1.24.484-1.277 1.719-1.277.79 0 1.693.024 2.411.061L6.04.482C5.186.299 4.306.251 3.504.24 1.6.24.736.495.736 2.457z" id="U"/><path d="M.047.386v8.407h1.091V5.43c.533.059 1.237.108 1.968.108 1.928 0 2.619-.562 2.619-2.632 0-2.058-.691-2.63-2.745-2.63C1.61.277.975.288.047.386zm1.091.83c.48-.014 1.112-.014 1.83-.014 1.238 0 1.658.353 1.658 1.704 0 1.355-.42 1.696-1.658 1.707h-1.83V1.215z" id="W"/><path d="M.56 1.534v5.508c.009.904.641 1.463 1.64 1.463 1.223 0 2.526 0 3.666-.073l-.055-.83H2.386c-.507 0-.742-.24-.742-.813V4.482h3.687V3.62H1.644V1.793c0-.562.235-.805.742-.805h3.425l.055-.84C4.726.072 3.423.072 2.2.072 1.201.071.569.635.56 1.533z" id="Y"/><path d="M.447 4.589c0 3.204.886 4.35 3.35 4.35 1.113 0 1.78-.086 2.495-.28l-.104-.805c-.698.098-1.338.133-2.39.133-1.668 0-2.202-.84-2.202-3.398 0-2.56.534-3.4 2.202-3.4.99 0 1.47.037 2.213.11l.112-.817C5.417.312 4.873.239 3.798.239c-2.465 0-3.35 1.145-3.35 4.35z" id="aa"/><path d="M.162 1.534v5.508c.01.904.641 1.463 1.642 1.463 1.224 0 2.522 0 3.659-.073l-.048-.83H1.99c-.507 0-.74-.24-.74-.813V4.482h3.682V3.62H1.25V1.793c0-.562.234-.805.741-.805h3.425l.048-.84C4.326.072 3.028.072 1.803.072c-1 0-1.63.564-1.641 1.462z" id="ac"/></defs><g fill="none" fill-rule="evenodd"><g transform="translate(48.251 2.6)"><mask id="b" fill="#fff"><use xlink:href="#a"/></mask><path fill="#FFF" mask="url(#b)" d="M-6.179 26.443h32.115V-6.133H-6.18z"/></g><g transform="translate(87.07 2.6)"><mask id="d" fill="#fff"><use xlink:href="#c"/></mask><path fill="#FFF" mask="url(#d)" d="M-6.385 26.351h32.14V-6.084h-32.14z"/></g><g transform="translate(123.889 2.6)"><mask id="f" fill="#fff"><use xlink:href="#e"/></mask><path fill="#FFF" mask="url(#f)" d="M-5.617 26.352H26.5v-32.42H-5.617z"/></g><g transform="translate(163.012 2.6)"><mask id="h" fill="#fff"><use xlink:href="#g"/></mask><path fill="#FFF" mask="url(#h)" d="M-6.124 26.352h32.12v-32.42h-32.12z"/></g><g transform="translate(202.135 2.6)"><mask id="j" fill="#fff"><use xlink:href="#i"/></mask><path fill="#FFF" mask="url(#j)" d="M-5.576 26.352H26.54v-32.42H-5.576z"/></g><g transform="translate(0 4.9)"><mask id="l" fill="#fff"><use xlink:href="#k"/></mask><path fill="#FFF" mask="url(#l)" d="M-6.52 26.015h37.199V-6.427h-37.2z"/></g><g transform="translate(0 4.9)"><mask id="n" fill="#fff"><use xlink:href="#m"/></mask><path fill="#FFF" mask="url(#n)" d="M-6.52 21.655h37.199V-6.427h-37.2z"/></g><g><mask id="p" fill="#fff"><use xlink:href="#o"/></mask><path fill="#FFF" mask="url(#p)" d="M-6.52 31.554h37.199V-6.04h-37.2z"/></g><g transform="translate(0 42.9)"><mask id="r" fill="#fff"><use xlink:href="#q"/></mask><path fill="#FFF" mask="url(#r)" d="M-6.425 15.005h18.077v-21.42H-6.425z"/></g><g transform="translate(7.825 42.9)"><mask id="t" fill="#fff"><use xlink:href="#s"/></mask><path fill="#FFF" mask="url(#t)" d="M-6.407 14.993h20.486V-6.414H-6.407z"/></g><g transform="translate(23.474 42.9)"><mask id="v" fill="#fff"><use xlink:href="#u"/></mask><path fill="#FFF" mask="url(#v)" d="M-6.198 15.005h18.347V-6.43H-6.198z"/></g><g transform="translate(32.298 42.9)"><mask id="x" fill="#fff"><use xlink:href="#w"/></mask><path fill="#FFF" mask="url(#x)" d="M-6.472 14.993h20.15V-6.414h-20.15z"/></g><g transform="translate(42.731 42.6)"><mask id="z" fill="#fff"><use xlink:href="#y"/></mask><path fill="#FFF" mask="url(#z)" d="M-6.492 15.45H13.29V-6.273H-6.492z"/></g><g transform="translate(53.468 42.9)"><mask id="B" fill="#fff"><use xlink:href="#A"/></mask><path fill="#FFF" mask="url(#B)" d="M-6.256 15.005h18.074v-21.42H-6.256z"/></g><g transform="translate(61.292 42.9)"><mask id="D" fill="#fff"><use xlink:href="#C"/></mask><path fill="#FFF" mask="url(#D)" d="M-5.571 15.152h19.25V-6.414h-19.25z"/></g><g transform="translate(71.725 42.6)"><mask id="F" fill="#fff"><use xlink:href="#E"/></mask><path fill="#FFF" mask="url(#F)" d="M-5.613 15.44h18.89v-21.7h-18.89z"/></g><path fill="#FFF" d="M82.415 51.393h1.089v-8.407h-1.09z"/><g transform="translate(87.374 40)"><mask id="H" fill="#fff"><use xlink:href="#G"/></mask><path fill="#FFF" mask="url(#H)" d="M-6.147 18.052h19.781V-6.244H-6.147z"/></g><g transform="translate(97.807 42.9)"><mask id="J" fill="#fff"><use xlink:href="#I"/></mask><path fill="#FFF" mask="url(#J)" d="M-5.582 14.993h19.608V-6.414H-5.582z"/></g><g transform="translate(114.76 42.6)"><mask id="L" fill="#fff"><use xlink:href="#K"/></mask><path fill="#FFF" mask="url(#L)" d="M-6.232 15.403h19.41V-6.223h-19.41z"/></g><g transform="translate(125.193 42.9)"><mask id="N" fill="#fff"><use xlink:href="#M"/></mask><path fill="#FFF" mask="url(#N)" d="M-6.115 15.005H12.23V-6.43H-6.115z"/></g><g transform="translate(139.538 42.9)"><mask id="P" fill="#fff"><use xlink:href="#O"/></mask><path fill="#FFF" mask="url(#P)" d="M-5.904 15.005h18.076v-21.42H-5.904z"/></g><g transform="translate(147.363 42.9)"><mask id="R" fill="#fff"><use xlink:href="#Q"/></mask><path fill="#FFF" mask="url(#R)" d="M-5.884 14.993h20.487V-6.414H-5.884z"/></g><g transform="translate(163.012 42.9)"><mask id="T" fill="#fff"><use xlink:href="#S"/></mask><path fill="#FFF" mask="url(#T)" d="M-5.673 15.005h18.345V-6.43H-5.673z"/></g><g transform="translate(172.14 42.6)"><mask id="V" fill="#fff"><use xlink:href="#U"/></mask><path fill="#FFF" mask="url(#V)" d="M-5.785 15.44h18.668v-21.7H-5.785z"/></g><g transform="translate(182.573 42.6)"><mask id="X" fill="#fff"><use xlink:href="#W"/></mask><path fill="#FFF" mask="url(#X)" d="M-6.474 15.293h18.72V-6.223h-18.72z"/></g><g transform="translate(191.702 42.9)"><mask id="Z" fill="#fff"><use xlink:href="#Y"/></mask><path fill="#FFF" mask="url(#Z)" d="M-5.961 15.005h18.347V-6.43H-5.96z"/></g><g transform="translate(200.83 42.6)"><mask id="ab" fill="#fff"><use xlink:href="#aa"/></mask><path fill="#FFF" mask="url(#ab)" d="M-6.073 15.44h18.887v-21.7H-6.073z"/></g><path fill="#FFF" d="M211.061 51.393h1.086v-8.407h-1.086z"/><g transform="translate(216.48 42.9)"><mask id="ad" fill="#fff"><use xlink:href="#ac"/></mask><path fill="#FFF" mask="url(#ad)" d="M-6.36 15.005h18.343V-6.43H-6.36z"/></g></g></svg>