<svg width="321" height="191" viewBox="0 0 321 191" xmlns="http://www.w3.org/2000/svg" xmlns:xlink="http://www.w3.org/1999/xlink"><title>EAC2EEA0-F6BB-4979-9278-4C7D226479AC</title><defs><path id="a" d="M.503 20.49h16.04V.031H.504z"/></defs><g fill="none" fill-rule="evenodd"><path d="M99.66 180.693c1.343 0 2.127-1.425 2.127-2.851 0-1.397-.728-2.767-2.127-2.767h-3.61v5.618h3.61zm-8.65 9.503v-19.565c2.911 0 5.739-.028 8.65 0 4.702 0 7.11 3.661 7.026 7.351 0 3.578-2.38 7.155-7.026 7.155h-3.527v5.06H91.01zM118.019 179.91c1.427 0 2.127-1.23 2.127-2.459 0-1.23-.672-2.376-2.127-2.376h-3.555v4.835h3.555zm8.004 9.56v.726h-5.43l-3.358-6.121h-2.687v6.12h-5.122v-19.564c2.91 0 5.737-.028 8.62 0 4.73 0 7.055 3.494 7.055 6.932-.028 2.236-.98 4.388-2.912 5.701l3.835 6.205zM141.108 175.103h-7.11v2.795h6.55v4.472h-6.55v3.186h7.362v4.668h-12.484V170.66h12.232z" fill="#FFF"/><g transform="translate(143.4 170.18)"><mask id="b" fill="#fff"><use xlink:href="#a"/></mask><path d="M5.375 14.034c0 1.341 1.54 2.012 3.107 2.012 1.456 0 2.995-.67 2.995-1.844 0-1.873-2.183-1.957-3.61-2.041C4.282 11.938.7 10.512.7 6.43c0-4.248 3.611-6.4 7.615-6.4 3.778 0 7.613 2.152 7.528 6.4h-4.786c-.028-1.34-1.288-1.9-2.659-1.9-1.147 0-2.659.308-2.659 1.789 0 1.313 1.12 1.621 2.995 1.817 4.17.363 7.81 1.341 7.81 6.092 0 4.11-4.003 6.262-8.006 6.262-4.143 0-8.117-2.07-8.033-6.457h4.87z" fill="#FFF" mask="url(#b)"/></g><path fill="#FFF" d="M175.279 175.103h-7.11v2.795h6.55v4.472h-6.55v3.186h7.362v4.668h-12.484V170.66h12.232zM184.178 180.134v10.09h-5.122v-19.649h1.595l10.217 9.643v-9.559h5.122v19.62h-1.512zM198.618 175.131v-4.472h14.555v4.472h-4.786v15.093h-4.955v-15.093zM219.916 183.516h4.059l-2.044-4.723-2.015 4.723zm-1.651 4.277l-1.12 2.431H211.8v-.699l8.985-19.061h2.351l8.901 19.061v.7h-5.29l-1.148-2.432h-7.333zM27.21 9.628c-2.352 0-4.584.444-6.696 1.33-2.113.888-4.009 2.17-5.689 3.847-1.68 1.678-2.964 3.571-3.852 5.68a17.052 17.052 0 0 0-1.332 6.686c0 2.35.444 4.59 1.332 6.723a17.52 17.52 0 0 0 3.852 5.717c1.68 1.678 3.576 2.947 5.689 3.81 2.112.863 4.344 1.294 6.696 1.294 2.352 0 4.597-.431 6.733-1.294 2.136-.863 4.044-2.132 5.725-3.81 1.68-1.678 2.952-3.583 3.816-5.717a17.737 17.737 0 0 0 1.296-6.723c0-2.347-.432-4.576-1.296-6.686-.864-2.109-2.137-4.002-3.816-5.68a17.614 17.614 0 0 0-5.725-3.847 17.402 17.402 0 0 0-6.733-1.33m0-8.628c3.6 0 6.997.684 10.19 2.049 3.192 1.366 5.976 3.235 8.352 5.608 2.377 2.373 4.249 5.154 5.617 8.34 1.368 3.19 2.052 6.58 2.052 10.174 0 3.596-.684 6.988-2.052 10.175-1.368 3.188-3.24 5.967-5.617 8.34-2.376 2.372-5.16 4.242-8.352 5.608-3.193 1.367-6.59 2.05-10.19 2.05-3.6 0-6.996-.683-10.188-2.05-3.193-1.366-5.977-3.236-8.353-5.608-2.376-2.373-4.248-5.152-5.617-8.34C1.684 34.159 1 30.766 1 27.17c0-3.594.684-6.985 2.052-10.173 1.369-3.187 3.24-5.968 5.617-8.341 2.376-2.373 5.16-4.242 8.353-5.608C20.214 1.684 23.61.999 27.21.999"/><path d="M27.21 9.628c-2.352 0-4.584.444-6.696 1.33-2.113.888-4.009 2.17-5.689 3.847-1.68 1.678-2.964 3.571-3.852 5.68a17.052 17.052 0 0 0-1.332 6.686c0 2.35.444 4.59 1.332 6.723a17.52 17.52 0 0 0 3.852 5.717c1.68 1.678 3.576 2.947 5.689 3.81 2.112.863 4.344 1.294 6.696 1.294 2.352 0 4.597-.431 6.733-1.294 2.136-.863 4.044-2.132 5.725-3.81 1.68-1.678 2.952-3.583 3.816-5.717a17.737 17.737 0 0 0 1.296-6.723c0-2.347-.432-4.576-1.296-6.686-.864-2.109-2.137-4.002-3.816-5.68a17.614 17.614 0 0 0-5.725-3.847 17.402 17.402 0 0 0-6.733-1.33zm0-8.628c3.6 0 6.997.684 10.19 2.049 3.192 1.366 5.976 3.235 8.352 5.608 2.377 2.373 4.249 5.154 5.617 8.34 1.368 3.19 2.052 6.58 2.052 10.174 0 3.596-.684 6.988-2.052 10.175-1.368 3.188-3.24 5.967-5.617 8.34-2.376 2.372-5.16 4.242-8.352 5.608-3.193 1.367-6.59 2.05-10.19 2.05-3.6 0-6.996-.683-10.188-2.05-3.193-1.366-5.977-3.236-8.353-5.608-2.376-2.373-4.248-5.152-5.617-8.34C1.684 34.159 1 30.766 1 27.17c0-3.594.684-6.985 2.052-10.173 1.369-3.187 3.24-5.968 5.617-8.341 2.376-2.373 5.16-4.242 8.353-5.608C20.214 1.684 23.61.999 27.21.999z" stroke="#FFF" stroke-width="2"/><path d="M95.4 20.125c0 1.823-.251 3.56-.755 5.214a18.389 18.389 0 0 1-2.089 4.565 17.907 17.907 0 0 1-3.24 3.775 17.53 17.53 0 0 1-4.213 2.768l10.298 15.962H85.103L75.96 38.244h-5.905l3.529-8.627h3.744c2.593 0 4.824-.935 6.697-2.804a10.108 10.108 0 0 0 2.016-3.092c.48-1.15.72-2.349.72-3.596a9.255 9.255 0 0 0-.72-3.594 9.248 9.248 0 0 0-2.016-3.02c-1.873-1.87-4.104-2.804-6.697-2.804H67.102v41.702h-8.64V2.079h18.865c2.496 0 4.836.48 7.02 1.438 2.185.959 4.093 2.253 5.725 3.882 1.632 1.63 2.928 3.536 3.889 5.716.96 2.182 1.44 4.519 1.44 7.01" fill="#FFF"/><path d="M95.4 20.125c0 1.823-.251 3.56-.755 5.214a18.389 18.389 0 0 1-2.089 4.565 17.907 17.907 0 0 1-3.24 3.775 17.53 17.53 0 0 1-4.213 2.768l10.298 15.962H85.103L75.96 38.244h-5.905l3.529-8.627h3.744c2.593 0 4.824-.935 6.697-2.804a10.108 10.108 0 0 0 2.016-3.092c.48-1.15.72-2.349.72-3.596a9.255 9.255 0 0 0-.72-3.594 9.248 9.248 0 0 0-2.016-3.02c-1.873-1.87-4.104-2.804-6.697-2.804H67.102v41.702h-8.64V2.079h18.865c2.496 0 4.836.48 7.02 1.438 2.185.959 4.093 2.253 5.725 3.882 1.632 1.63 2.928 3.536 3.889 5.716.96 2.182 1.44 4.519 1.44 7.01z" stroke="#FFF" stroke-width="2"/><path d="M152.393 25.015c.072.719.108 1.438.108 2.157 0 3.595-.684 6.986-2.052 10.174-1.368 3.188-3.24 5.967-5.616 8.34-2.377 2.373-5.161 4.242-8.353 5.608-3.193 1.366-6.59 2.05-10.19 2.05-3.6 0-6.996-.684-10.188-2.05-3.193-1.366-5.977-3.235-8.353-5.608-2.376-2.373-4.248-5.152-5.616-8.34-1.368-3.188-2.053-6.579-2.053-10.174 0-3.595.685-6.986 2.053-10.174 1.368-3.187 3.24-5.968 5.616-8.34 2.376-2.373 5.16-4.243 8.353-5.609C119.294 1.683 122.69 1 126.29 1c3.649 0 7.058.683 10.226 2.05 3.167 1.365 5.928 3.247 8.28 5.643l-6.048 6.112a17.613 17.613 0 0 0-5.724-3.847 17.405 17.405 0 0 0-6.734-1.33c-2.352 0-4.584.444-6.695 1.33-2.114.888-4.01 2.17-5.69 3.847-1.68 1.678-2.964 3.572-3.852 5.68a17.049 17.049 0 0 0-1.331 6.687c0 2.349.443 4.59 1.331 6.723a17.533 17.533 0 0 0 3.852 5.716c1.68 1.678 3.576 2.947 5.69 3.81 2.11.863 4.343 1.295 6.695 1.295 2.353 0 4.597-.432 6.734-1.295 2.135-.863 4.043-2.132 5.724-3.81 2.256-2.349 3.792-5.057 4.609-8.126h-23.33l2.16-8.627h29.954c.096.719.18 1.438.252 2.157" fill="#FFF"/><path d="M152.393 25.015c.072.719.108 1.438.108 2.157 0 3.595-.684 6.986-2.052 10.174-1.368 3.188-3.24 5.967-5.616 8.34-2.377 2.373-5.161 4.242-8.353 5.608-3.193 1.366-6.59 2.05-10.19 2.05-3.6 0-6.996-.684-10.188-2.05-3.193-1.366-5.977-3.235-8.353-5.608-2.376-2.373-4.248-5.152-5.616-8.34-1.368-3.188-2.053-6.579-2.053-10.174 0-3.595.685-6.986 2.053-10.174 1.368-3.187 3.24-5.968 5.616-8.34 2.376-2.373 5.16-4.243 8.353-5.609C119.294 1.683 122.69 1 126.29 1c3.649 0 7.058.683 10.226 2.05 3.167 1.365 5.928 3.247 8.28 5.643l-6.048 6.112a17.613 17.613 0 0 0-5.724-3.847 17.405 17.405 0 0 0-6.734-1.33c-2.352 0-4.584.444-6.695 1.33-2.114.888-4.01 2.17-5.69 3.847-1.68 1.678-2.964 3.572-3.852 5.68a17.049 17.049 0 0 0-1.331 6.687c0 2.349.443 4.59 1.331 6.723a17.533 17.533 0 0 0 3.852 5.716c1.68 1.678 3.576 2.947 5.69 3.81 2.11.863 4.343 1.295 6.695 1.295 2.353 0 4.597-.432 6.734-1.295 2.135-.863 4.043-2.132 5.724-3.81 2.256-2.349 3.792-5.057 4.609-8.126h-23.33l2.16-8.627h29.954c.096.719.18 1.438.252 2.157z" stroke="#FFF" stroke-width="2"/><path d="M199.52 2.079v30.198c0 2.924-.552 5.669-1.655 8.232-1.105 2.565-2.618 4.806-4.537 6.723-1.92 1.918-4.165 3.428-6.732 4.53-2.569 1.102-5.317 1.653-8.245 1.653-2.929 0-5.677-.551-8.245-1.653-2.569-1.102-4.813-2.612-6.733-4.53-1.92-1.917-3.432-4.158-4.536-6.723-1.105-2.563-1.656-5.308-1.656-8.232V2.079h8.64v30.198c0 1.678.313 3.271.936 4.78a12.358 12.358 0 0 0 2.737 4.063 12.374 12.374 0 0 0 4.068 2.733 12.44 12.44 0 0 0 4.789.935c3.456 0 6.409-1.223 8.857-3.668a12.406 12.406 0 0 0 2.736-4.062c.623-1.51.936-3.103.936-4.781V2.079h8.64z" fill="#FFF"/><path d="M199.52 2.079v30.198c0 2.924-.552 5.669-1.655 8.232-1.105 2.565-2.618 4.806-4.537 6.723-1.92 1.918-4.165 3.428-6.732 4.53-2.569 1.102-5.317 1.653-8.245 1.653-2.929 0-5.677-.551-8.245-1.653-2.569-1.102-4.813-2.612-6.733-4.53-1.92-1.917-3.432-4.158-4.536-6.723-1.105-2.563-1.656-5.308-1.656-8.232V2.079h8.64v30.198c0 1.678.313 3.271.936 4.78a12.358 12.358 0 0 0 2.737 4.063 12.374 12.374 0 0 0 4.068 2.733 12.44 12.44 0 0 0 4.789.935c3.456 0 6.409-1.223 8.857-3.668a12.406 12.406 0 0 0 2.736-4.062c.623-1.51.936-3.103.936-4.781V2.079h8.64z" stroke="#FFF" stroke-width="2"/><path fill="#FFF" d="M233.364 43.78v8.63H204.92V2.15h8.64v41.63z"/><path stroke="#FFF" stroke-width="2" d="M233.364 43.78v8.63H204.92V2.15h8.64v41.63z"/><path fill="#FFF" d="M266.487 43.78v8.63h-28.443V2.15h8.64v41.63z"/><path stroke="#FFF" stroke-width="2" d="M266.487 43.78v8.63h-28.443V2.15h8.64v41.63z"/><path d="M293.706 9.628c-2.353 0-4.585.444-6.697 1.33-2.113.888-4.009 2.17-5.688 3.847-1.681 1.678-2.965 3.571-3.853 5.68a17.052 17.052 0 0 0-1.331 6.686c0 2.35.443 4.59 1.331 6.723a17.52 17.52 0 0 0 3.853 5.717c1.68 1.678 3.575 2.947 5.688 3.81 2.112.863 4.344 1.294 6.697 1.294 2.352 0 4.596-.431 6.732-1.294s4.044-2.132 5.725-3.81c1.68-1.678 2.952-3.583 3.817-5.717a17.737 17.737 0 0 0 1.296-6.723c0-2.347-.433-4.576-1.296-6.686-.865-2.109-2.138-4.002-3.817-5.68a17.614 17.614 0 0 0-5.725-3.847 17.402 17.402 0 0 0-6.732-1.33m0-8.628c3.6 0 6.996.684 10.19 2.049 3.19 1.366 5.976 3.235 8.352 5.608 2.376 2.373 4.248 5.154 5.616 8.34 1.369 3.19 2.052 6.58 2.052 10.174 0 3.596-.683 6.988-2.052 10.175-1.368 3.188-3.24 5.967-5.616 8.34-2.376 2.372-5.162 4.242-8.353 5.608-3.193 1.367-6.589 2.05-10.19 2.05-3.6 0-6.996-.683-10.188-2.05-3.193-1.366-5.976-3.236-8.352-5.608-2.377-2.373-4.25-5.152-5.617-8.34-1.368-3.187-2.052-6.58-2.052-10.175 0-3.594.684-6.985 2.052-10.173 1.368-3.187 3.24-5.968 5.617-8.341 2.376-2.373 5.159-4.242 8.352-5.608 3.192-1.365 6.588-2.05 10.189-2.05" fill="#FFF"/><path d="M293.706 9.628c-2.353 0-4.585.444-6.697 1.33-2.113.888-4.009 2.17-5.688 3.847-1.681 1.678-2.965 3.571-3.853 5.68a17.052 17.052 0 0 0-1.331 6.686c0 2.35.443 4.59 1.331 6.723a17.52 17.52 0 0 0 3.853 5.717c1.68 1.678 3.575 2.947 5.688 3.81 2.112.863 4.344 1.294 6.697 1.294 2.352 0 4.596-.431 6.732-1.294s4.044-2.132 5.725-3.81c1.68-1.678 2.952-3.583 3.817-5.717a17.737 17.737 0 0 0 1.296-6.723c0-2.347-.433-4.576-1.296-6.686-.865-2.109-2.138-4.002-3.817-5.68a17.614 17.614 0 0 0-5.725-3.847 17.402 17.402 0 0 0-6.732-1.33zm0-8.628c3.6 0 6.996.684 10.19 2.049 3.19 1.366 5.976 3.235 8.352 5.608 2.376 2.373 4.248 5.154 5.616 8.34 1.369 3.19 2.052 6.58 2.052 10.174 0 3.596-.683 6.988-2.052 10.175-1.368 3.188-3.24 5.967-5.616 8.34-2.376 2.372-5.162 4.242-8.353 5.608-3.193 1.367-6.589 2.05-10.19 2.05-3.6 0-6.996-.683-10.188-2.05-3.193-1.366-5.976-3.236-8.352-5.608-2.377-2.373-4.25-5.152-5.617-8.34-1.368-3.187-2.052-6.58-2.052-10.175 0-3.594.684-6.985 2.052-10.173 1.368-3.187 3.24-5.968 5.617-8.341 2.376-2.373 5.159-4.242 8.352-5.608 3.192-1.365 6.588-2.05 10.189-2.05z" stroke="#FFF" stroke-width="2"/><path fill="#FFF" d="M103.146 62.706v72.475h-13.48L60.53 85.587v49.594H48.087V62.706h13.48l29.136 49.593V62.706z"/><path stroke="#FFF" stroke-width="2" d="M103.146 62.706v72.475h-13.48L60.53 85.587v49.594H48.087V62.706h13.48l29.136 49.593V62.706z"/><path fill="#FFF" d="M123.884 75.234v17.6h27.062l3.11 12.425h-30.172v17.601h36.394v12.424h-48.837V62.81h48.837v12.425z"/><path stroke="#FFF" stroke-width="2" d="M123.884 75.234v17.6h27.062l3.11 12.425h-30.172v17.601h36.394v12.424h-48.837V62.81h48.837v12.425z"/><path d="M221.248 88.797c0 2.624-.363 5.125-1.09 7.506a26.49 26.49 0 0 1-3.006 6.575 25.813 25.813 0 0 1-4.667 5.435 25.264 25.264 0 0 1-6.065 3.987l14.828 22.985H206.42l-13.168-20.397h-8.503l5.081-12.424h5.392c3.732 0 6.947-1.346 9.642-4.039a14.558 14.558 0 0 0 2.904-4.452 13.316 13.316 0 0 0 1.037-5.176c0-1.795-.347-3.52-1.037-5.177a13.343 13.343 0 0 0-2.904-4.349c-2.695-2.691-5.91-4.037-9.642-4.037h-14.724V135.285h-12.443V62.809h27.167c3.593 0 6.963.691 10.11 2.07 3.144 1.382 5.892 3.246 8.242 5.592 2.35 2.347 4.216 5.091 5.6 8.231 1.382 3.142 2.074 6.507 2.074 10.095" fill="#FFF"/><path d="M221.248 88.797c0 2.624-.363 5.125-1.09 7.506a26.49 26.49 0 0 1-3.006 6.575 25.813 25.813 0 0 1-4.667 5.435 25.264 25.264 0 0 1-6.065 3.987l14.828 22.985H206.42l-13.168-20.397h-8.503l5.081-12.424h5.392c3.732 0 6.947-1.346 9.642-4.039a14.558 14.558 0 0 0 2.904-4.452 13.316 13.316 0 0 0 1.037-5.176c0-1.795-.347-3.52-1.037-5.177a13.343 13.343 0 0 0-2.904-4.349c-2.695-2.691-5.91-4.037-9.642-4.037h-14.724V135.285h-12.443V62.809h27.167c3.593 0 6.963.691 10.11 2.07 3.144 1.382 5.892 3.246 8.242 5.592 2.35 2.347 4.216 5.091 5.6 8.231 1.382 3.142 2.074 6.507 2.074 10.095z" stroke="#FFF" stroke-width="2"/><path d="M273.195 65.657c4.422 1.899 8.277 4.488 11.561 7.765 3.282 3.279 5.875 7.127 7.777 11.544 1.9 4.418 2.851 9.111 2.851 14.08 0 4.97-.95 9.665-2.851 14.082-1.902 4.418-4.495 8.267-7.777 11.544-3.284 3.28-7.139 5.868-11.561 7.765-4.425 1.9-9.125 2.848-14.102 2.848h-12.857l5.08-12.425h7.777c3.179 0 6.222-.603 9.125-1.812a24.735 24.735 0 0 0 7.776-5.125 24.897 24.897 0 0 0 5.133-7.713c1.208-2.864 1.815-5.918 1.815-9.163 0-3.174-.607-6.212-1.815-9.111a24.735 24.735 0 0 0-5.133-7.766 24.8 24.8 0 0 0-7.776-5.125 23.542 23.542 0 0 0-9.125-1.811h-17.627v60.051h-12.443V62.81h30.07c4.977 0 9.677.949 14.102 2.847" fill="#FFF"/><path d="M273.195 65.657c4.422 1.899 8.277 4.488 11.561 7.765 3.282 3.279 5.875 7.127 7.777 11.544 1.9 4.418 2.851 9.111 2.851 14.08 0 4.97-.95 9.665-2.851 14.082-1.902 4.418-4.495 8.267-7.777 11.544-3.284 3.28-7.139 5.868-11.561 7.765-4.425 1.9-9.125 2.848-14.102 2.848h-12.857l5.08-12.425h7.777c3.179 0 6.222-.603 9.125-1.812a24.735 24.735 0 0 0 7.776-5.125 24.897 24.897 0 0 0 5.133-7.713c1.208-2.864 1.815-5.918 1.815-9.163 0-3.174-.607-6.212-1.815-9.111a24.735 24.735 0 0 0-5.133-7.766 24.8 24.8 0 0 0-7.776-5.125 23.542 23.542 0 0 0-9.125-1.811h-17.627v60.051h-12.443V62.81h30.07c4.977 0 9.677.949 14.102 2.847z" stroke="#FFF" stroke-width="2"/></g></svg>