<svg xmlns="http://www.w3.org/2000/svg" xmlns:xlink="http://www.w3.org/1999/xlink" width="476" height="312" viewBox="0 0 476 312">
    <defs>
        <filter id="a" width="102.9%" height="104.5%" x="-1.4%" y="-1.6%" filterUnits="objectBoundingBox">
            <feOffset dy="2" in="SourceAlpha" result="shadowOffsetOuter1"/>
            <feGaussianBlur in="shadowOffsetOuter1" result="shadowBlurOuter1" stdDeviation="2"/>
            <feColorMatrix in="shadowBlurOuter1" result="shadowMatrixOuter1" values="0 0 0 0 0 0 0 0 0 0 0 0 0 0 0 0 0 0 0.5 0"/>
            <feMerge>
                <feMergeNode in="shadowMatrixOuter1"/>
                <feMergeNode in="SourceGraphic"/>
            </feMerge>
        </filter>
        <path id="b" d="M.847 34.39h27.005V.053H.847z"/>
    </defs>
    <g fill="none" fill-rule="evenodd" filter="url(#a)" transform="translate(-4 -2)">
        <path fill="#FFF" d="M137.173 289.506c2.262 0 3.58-2.392 3.58-4.785 0-2.345-1.224-4.644-3.58-4.644h-6.079v9.43h6.08zm-14.562 15.95V272.62c4.9 0 9.66-.047 14.562 0 7.917 0 11.97 6.144 11.828 12.337 0 6.005-4.005 12.009-11.828 12.009h-5.937v8.491h-8.625zM168.08 288.192c2.403 0 3.582-2.064 3.582-4.127 0-2.064-1.13-3.988-3.581-3.988h-5.985v8.115h5.985zm13.477 16.044v1.22h-9.141l-5.654-10.274h-4.525v10.273h-8.623V272.62c4.9 0 9.66-.047 14.514 0 7.964 0 11.876 5.864 11.876 11.633-.047 3.753-1.65 7.365-4.902 9.569l6.455 10.415zM206.952 280.124h-11.97v4.69h11.028v7.506h-11.028v5.348h12.395v7.835H186.36v-32.837h20.592z"/>
        <g transform="translate(210.81 271.862)">
            <mask id="c" fill="#fff">
                <use xlink:href="#b"/>
            </mask>
            <path fill="#FFF" d="M9.05 23.555c0 2.25 2.59 3.376 5.23 3.376 2.45 0 5.043-1.125 5.043-3.095 0-3.143-3.677-3.284-6.08-3.425-6.032-.374-12.064-2.767-12.064-9.616C1.18 3.665 7.26.053 14 .053c6.36 0 12.816 3.612 12.674 10.742h-8.058c-.047-2.251-2.168-3.19-4.476-3.19-1.932 0-4.477.517-4.477 3.002 0 2.204 1.885 2.721 5.042 3.05 7.021.61 13.148 2.25 13.148 10.225 0 6.897-6.74 10.509-13.478 10.509C7.4 34.39.708 30.918.85 23.555h8.2z" mask="url(#c)"/>
        </g>
        <path fill="#FFF" d="M264.48 280.124h-11.968v4.69h11.027v7.506h-11.027v5.348h12.393v7.835h-21.018v-32.837h20.594zM279.462 288.568v16.935h-8.623v-32.979h2.685l17.201 16.185v-16.044h8.623v32.931h-2.544zM303.772 280.171v-7.505h24.504v7.505h-8.057v25.332h-8.342v-25.332zM339.629 294.244h6.833l-3.44-7.928-3.393 7.928zm-2.78 7.178l-1.885 4.081h-9.001v-1.173l15.127-31.993h3.958l14.985 31.993v1.173h-8.906l-1.932-4.081H336.85zM44.265 16.255c-3.481 0-6.785.657-9.91 1.97-3.126 1.314-5.932 3.211-8.417 5.694-2.487 2.485-4.387 5.288-5.7 8.41-1.315 3.124-1.971 6.424-1.971 9.9 0 3.479.656 6.797 1.97 9.954 1.314 3.16 3.214 5.98 5.701 8.464 2.485 2.484 5.29 4.364 8.418 5.641 3.124 1.277 6.428 1.916 9.909 1.916 3.48 0 6.802-.639 9.962-1.916 3.161-1.277 5.984-3.157 8.471-5.641 2.486-2.484 4.37-5.305 5.648-8.464 1.278-3.157 1.918-6.475 1.918-9.954 0-3.476-.64-6.776-1.918-9.9-1.279-3.122-3.162-5.925-5.648-8.41-2.487-2.483-5.31-4.38-8.47-5.695a25.738 25.738 0 0 0-9.963-1.969m0-12.775c5.327 0 10.352 1.013 15.077 3.034 4.724 2.023 8.844 4.79 12.36 8.303 3.517 3.514 6.286 7.63 8.312 12.35 2.024 4.72 3.035 9.74 3.035 15.062 0 5.323-1.01 10.345-3.035 15.064-2.026 4.72-4.795 8.835-8.312 12.348-3.516 3.513-7.636 6.28-12.36 8.303-4.725 2.024-9.75 3.035-15.077 3.035-5.328 0-10.354-1.011-15.077-3.035-4.725-2.022-8.844-4.79-12.36-8.303-3.516-3.513-6.286-7.627-8.311-12.348-2.025-4.719-3.037-9.741-3.037-15.064 0-5.322 1.012-10.342 3.037-15.063 2.025-4.718 4.795-8.835 8.311-12.349 3.516-3.512 7.635-6.28 12.36-8.303 4.723-2.021 9.749-3.034 15.077-3.034"/>
        <path stroke="#FFF" stroke-width="2" d="M44.265 16.255c-3.481 0-6.785.657-9.91 1.97-3.126 1.314-5.932 3.211-8.417 5.694-2.487 2.485-4.387 5.288-5.7 8.41-1.315 3.124-1.971 6.424-1.971 9.9 0 3.479.656 6.797 1.97 9.954 1.314 3.16 3.214 5.98 5.701 8.464 2.485 2.484 5.29 4.364 8.418 5.641 3.124 1.277 6.428 1.916 9.909 1.916 3.48 0 6.802-.639 9.962-1.916 3.161-1.277 5.984-3.157 8.471-5.641 2.486-2.484 4.37-5.305 5.648-8.464 1.278-3.157 1.918-6.475 1.918-9.954 0-3.476-.64-6.776-1.918-9.9-1.279-3.122-3.162-5.925-5.648-8.41-2.487-2.483-5.31-4.38-8.47-5.695a25.738 25.738 0 0 0-9.963-1.969zm0-12.775c5.327 0 10.352 1.013 15.077 3.034 4.724 2.023 8.844 4.79 12.36 8.303 3.517 3.514 6.286 7.63 8.312 12.35 2.024 4.72 3.035 9.74 3.035 15.062 0 5.323-1.01 10.345-3.035 15.064-2.026 4.72-4.795 8.835-8.312 12.348-3.516 3.513-7.636 6.28-12.36 8.303-4.725 2.024-9.75 3.035-15.077 3.035-5.328 0-10.354-1.011-15.077-3.035-4.725-2.022-8.844-4.79-12.36-8.303-3.516-3.513-6.286-7.627-8.311-12.348-2.025-4.719-3.037-9.741-3.037-15.064 0-5.322 1.012-10.342 3.037-15.063 2.025-4.718 4.795-8.835 8.311-12.349 3.516-3.512 7.635-6.28 12.36-8.303 4.723-2.021 9.749-3.034 15.077-3.034z"/>
        <path fill="#FFF" d="M145.17 31.797c0 2.698-.373 5.27-1.12 7.719a27.233 27.233 0 0 1-3.09 6.76 26.51 26.51 0 0 1-4.794 5.588 25.938 25.938 0 0 1-6.234 4.098l15.237 23.633h-15.237L116.4 58.623h-8.737l5.22-12.773h5.542c3.836 0 7.139-1.385 9.91-4.152a14.966 14.966 0 0 0 2.982-4.578 13.708 13.708 0 0 0 1.067-5.323c0-1.844-.357-3.62-1.067-5.322a13.692 13.692 0 0 0-2.983-4.471c-2.77-2.768-6.073-4.152-9.909-4.152h-15.131v61.743H90.508V5.077h27.917c3.693 0 7.155.711 10.389 2.13 3.231 1.42 6.055 3.336 8.47 5.748 2.415 2.413 4.333 5.234 5.754 8.463 1.421 3.23 2.131 6.69 2.131 10.38"/>
        <path stroke="#FFF" stroke-width="2" d="M145.17 31.797c0 2.698-.373 5.27-1.12 7.719a27.233 27.233 0 0 1-3.09 6.76 26.51 26.51 0 0 1-4.794 5.588 25.938 25.938 0 0 1-6.234 4.098l15.237 23.633h-15.237L116.4 58.623h-8.737l5.22-12.773h5.542c3.836 0 7.139-1.385 9.91-4.152a14.966 14.966 0 0 0 2.982-4.578 13.708 13.708 0 0 0 1.067-5.323c0-1.844-.357-3.62-1.067-5.322a13.692 13.692 0 0 0-2.983-4.471c-2.77-2.768-6.073-4.152-9.909-4.152h-15.131v61.743H90.508V5.077h27.917c3.693 0 7.155.711 10.389 2.13 3.231 1.42 6.055 3.336 8.47 5.748 2.415 2.413 4.333 5.234 5.754 8.463 1.421 3.23 2.131 6.69 2.131 10.38z"/>
        <path fill="#FFF" d="M229.504 39.036c.107 1.065.16 2.13.16 3.194 0 5.323-1.012 10.344-3.037 15.063-2.024 4.72-4.795 8.835-8.31 12.348-3.517 3.513-7.638 6.281-12.36 8.304-4.726 2.022-9.75 3.034-15.079 3.034-5.327 0-10.353-1.012-15.075-3.034-4.725-2.023-8.845-4.79-12.36-8.304-3.517-3.513-6.287-7.628-8.312-12.348-2.024-4.72-3.037-9.74-3.037-15.063s1.013-10.343 3.037-15.064c2.025-4.718 4.795-8.835 8.311-12.348s7.636-6.28 12.36-8.303c4.723-2.023 9.749-3.034 15.076-3.034 5.399 0 10.443 1.011 15.131 3.034 4.688 2.022 8.772 4.808 12.253 8.356l-8.95 9.049c-2.486-2.484-5.31-4.381-8.47-5.696a25.743 25.743 0 0 0-9.964-1.97c-3.48 0-6.784.658-9.908 1.97-3.127 1.315-5.932 3.212-8.418 5.696-2.488 2.485-4.387 5.288-5.7 8.41-1.316 3.124-1.97 6.423-1.97 9.9 0 3.478.654 6.796 1.97 9.953 1.313 3.159 3.212 5.98 5.7 8.463 2.486 2.485 5.29 4.364 8.418 5.642 3.124 1.278 6.427 1.917 9.908 1.917s6.802-.639 9.964-1.917c3.16-1.278 5.984-3.157 8.47-5.642 3.34-3.476 5.611-7.487 6.82-12.03H181.61l3.196-12.774h44.326c.142 1.065.267 2.13.373 3.194"/>
        <path stroke="#FFF" stroke-width="2" d="M229.504 39.036c.107 1.065.16 2.13.16 3.194 0 5.323-1.012 10.344-3.037 15.063-2.024 4.72-4.795 8.835-8.31 12.348-3.517 3.513-7.638 6.281-12.36 8.304-4.726 2.022-9.75 3.034-15.079 3.034-5.327 0-10.353-1.012-15.075-3.034-4.725-2.023-8.845-4.79-12.36-8.304-3.517-3.513-6.287-7.628-8.312-12.348-2.024-4.72-3.037-9.74-3.037-15.063s1.013-10.343 3.037-15.064c2.025-4.718 4.795-8.835 8.311-12.348s7.636-6.28 12.36-8.303c4.723-2.023 9.749-3.034 15.076-3.034 5.399 0 10.443 1.011 15.131 3.034 4.688 2.022 8.772 4.808 12.253 8.356l-8.95 9.049c-2.486-2.484-5.31-4.381-8.47-5.696a25.743 25.743 0 0 0-9.964-1.97c-3.48 0-6.784.658-9.908 1.97-3.127 1.315-5.932 3.212-8.418 5.696-2.488 2.485-4.387 5.288-5.7 8.41-1.316 3.124-1.97 6.423-1.97 9.9 0 3.478.654 6.796 1.97 9.953 1.313 3.159 3.212 5.98 5.7 8.463 2.486 2.485 5.29 4.364 8.418 5.642 3.124 1.278 6.427 1.917 9.908 1.917s6.802-.639 9.964-1.917c3.16-1.278 5.984-3.157 8.47-5.642 3.34-3.476 5.611-7.487 6.82-12.03H181.61l3.196-12.774h44.326c.142 1.065.267 2.13.373 3.194z"/>
        <path fill="#FFF" d="M299.24 5.077v44.711c0 4.33-.816 8.393-2.45 12.188-1.635 3.798-3.873 7.117-6.712 9.954-2.843 2.84-6.163 5.075-9.963 6.707-3.8 1.632-7.868 2.448-12.2 2.448-4.334 0-8.401-.816-12.2-2.448-3.802-1.632-7.122-3.868-9.963-6.707-2.842-2.837-5.08-6.156-6.712-9.954-1.636-3.795-2.452-7.858-2.452-12.188V5.078h12.787v44.71c0 2.485.462 4.844 1.385 7.079.922 2.235 2.272 4.241 4.05 6.015 1.774 1.775 3.781 3.124 6.019 4.045 2.238.923 4.599 1.384 7.086 1.384 5.114 0 9.483-1.81 13.106-5.43 1.775-1.773 3.125-3.779 4.05-6.014a18.377 18.377 0 0 0 1.383-7.079V5.078h12.787z"/>
        <path stroke="#FFF" stroke-width="2" d="M299.24 5.077v44.711c0 4.33-.816 8.393-2.45 12.188-1.635 3.798-3.873 7.117-6.712 9.954-2.843 2.84-6.163 5.075-9.963 6.707-3.8 1.632-7.868 2.448-12.2 2.448-4.334 0-8.401-.816-12.2-2.448-3.802-1.632-7.122-3.868-9.963-6.707-2.842-2.837-5.08-6.156-6.712-9.954-1.636-3.795-2.452-7.858-2.452-12.188V5.078h12.787v44.71c0 2.485.462 4.844 1.385 7.079.922 2.235 2.272 4.241 4.05 6.015 1.774 1.775 3.781 3.124 6.019 4.045 2.238.923 4.599 1.384 7.086 1.384 5.114 0 9.483-1.81 13.106-5.43 1.775-1.773 3.125-3.779 4.05-6.014a18.377 18.377 0 0 0 1.383-7.079V5.078h12.787z"/>
        <path fill="#FFF" d="M349.32 66.82v12.775h-42.088V5.184h12.786V66.82z"/>
        <path stroke="#FFF" stroke-width="2" d="M349.32 66.82v12.775h-42.088V5.184h12.786V66.82z"/>
        <path fill="#FFF" d="M398.334 66.82v12.775h-42.088V5.184h12.785V66.82z"/>
        <path stroke="#FFF" stroke-width="2" d="M398.334 66.82v12.775h-42.088V5.184h12.785V66.82z"/>
        <path fill="#FFF" d="M438.611 16.255c-3.48 0-6.784.657-9.909 1.97-3.127 1.314-5.932 3.211-8.417 5.694-2.488 2.485-4.388 5.288-5.7 8.41-1.316 3.124-1.972 6.424-1.972 9.9 0 3.479.656 6.797 1.971 9.954 1.313 3.16 3.213 5.98 5.7 8.464 2.486 2.484 5.291 4.364 8.418 5.641 3.125 1.277 6.428 1.916 9.91 1.916 3.48 0 6.801-.639 9.962-1.916 3.16-1.277 5.984-3.157 8.47-5.641 2.486-2.484 4.37-5.305 5.649-8.464 1.278-3.157 1.917-6.475 1.917-9.954 0-3.476-.64-6.776-1.917-9.9-1.28-3.122-3.163-5.925-5.648-8.41-2.487-2.483-5.31-4.38-8.471-5.695a25.738 25.738 0 0 0-9.963-1.969m0-12.775c5.328 0 10.353 1.013 15.078 3.034 4.722 2.023 8.844 4.79 12.36 8.303 3.516 3.514 6.286 7.63 8.31 12.35 2.026 4.72 3.037 9.74 3.037 15.062 0 5.323-1.011 10.345-3.037 15.064-2.024 4.72-4.794 8.835-8.31 12.348-3.516 3.513-7.638 6.28-12.36 8.303-4.725 2.024-9.75 3.035-15.078 3.035-5.327 0-10.353-1.011-15.076-3.035-4.725-2.022-8.844-4.79-12.36-8.303-3.517-3.513-6.287-7.627-8.312-12.348-2.024-4.719-3.036-9.741-3.036-15.064 0-5.322 1.012-10.342 3.036-15.063 2.025-4.718 4.795-8.835 8.312-12.349 3.516-3.512 7.635-6.28 12.36-8.303 4.723-2.021 9.749-3.034 15.076-3.034"/>
        <path stroke="#FFF" stroke-width="2" d="M438.611 16.255c-3.48 0-6.784.657-9.909 1.97-3.127 1.314-5.932 3.211-8.417 5.694-2.488 2.485-4.388 5.288-5.7 8.41-1.316 3.124-1.972 6.424-1.972 9.9 0 3.479.656 6.797 1.971 9.954 1.313 3.16 3.213 5.98 5.7 8.464 2.486 2.484 5.291 4.364 8.418 5.641 3.125 1.277 6.428 1.916 9.91 1.916 3.48 0 6.801-.639 9.962-1.916 3.16-1.277 5.984-3.157 8.47-5.641 2.486-2.484 4.37-5.305 5.649-8.464 1.278-3.157 1.917-6.475 1.917-9.954 0-3.476-.64-6.776-1.917-9.9-1.28-3.122-3.163-5.925-5.648-8.41-2.487-2.483-5.31-4.38-8.471-5.695a25.738 25.738 0 0 0-9.963-1.969zm0-12.775c5.328 0 10.353 1.013 15.078 3.034 4.722 2.023 8.844 4.79 12.36 8.303 3.516 3.514 6.286 7.63 8.31 12.35 2.026 4.72 3.037 9.74 3.037 15.062 0 5.323-1.011 10.345-3.037 15.064-2.024 4.72-4.794 8.835-8.31 12.348-3.516 3.513-7.638 6.28-12.36 8.303-4.725 2.024-9.75 3.035-15.078 3.035-5.327 0-10.353-1.011-15.076-3.035-4.725-2.022-8.844-4.79-12.36-8.303-3.517-3.513-6.287-7.627-8.312-12.348-2.024-4.719-3.036-9.741-3.036-15.064 0-5.322 1.012-10.342 3.036-15.063 2.025-4.718 4.795-8.835 8.312-12.349 3.516-3.512 7.635-6.28 12.36-8.303 4.723-2.021 9.749-3.034 15.076-3.034z"/>
        <path fill="#FFF" d="M156.63 94.84v107.305h-19.945L93.57 128.718v73.427H75.157V94.84h19.948l43.113 73.427V94.84z"/>
        <path stroke="#FFF" stroke-width="2" d="M156.63 94.84v107.305h-19.945L93.57 128.718v73.427H75.157V94.84h19.948l43.113 73.427V94.84z"/>
        <path fill="#FFF" d="M187.317 113.389v26.06h40.046l4.603 18.394h-44.65v26.06h53.856v18.395h-72.268V94.993h72.268v18.396z"/>
        <path stroke="#FFF" stroke-width="2" d="M187.317 113.389v26.06h40.046l4.603 18.394h-44.65v26.06h53.856v18.395h-72.268V94.993h72.268v18.396z"/>
        <path fill="#FFF" d="M331.391 133.47c0 3.885-.537 7.588-1.61 11.113-1.075 3.526-2.559 6.772-4.45 9.735a38.211 38.211 0 0 1-6.906 8.048 37.382 37.382 0 0 1-8.975 5.902l21.941 34.03h-21.94L289.963 172.1h-12.581l7.518-18.394h7.978c5.524 0 10.28-1.993 14.269-5.98a21.555 21.555 0 0 0 4.296-6.59 19.725 19.725 0 0 0 1.535-7.665c0-2.657-.512-5.212-1.535-7.664a19.756 19.756 0 0 0-4.296-6.44c-3.989-3.984-8.745-5.977-14.269-5.977h-21.787v88.91h-18.413V94.992h40.2c5.318 0 10.305 1.023 14.96 3.066 4.653 2.046 8.72 4.805 12.198 8.278 3.477 3.475 6.237 7.538 8.286 12.187 2.045 4.652 3.068 9.633 3.068 14.946"/>
        <path stroke="#FFF" stroke-width="2" d="M331.391 133.47c0 3.885-.537 7.588-1.61 11.113-1.075 3.526-2.559 6.772-4.45 9.735a38.211 38.211 0 0 1-6.906 8.048 37.382 37.382 0 0 1-8.975 5.902l21.941 34.03h-21.94L289.963 172.1h-12.581l7.518-18.394h7.978c5.524 0 10.28-1.993 14.269-5.98a21.555 21.555 0 0 0 4.296-6.59 19.725 19.725 0 0 0 1.535-7.665c0-2.657-.512-5.212-1.535-7.664a19.756 19.756 0 0 0-4.296-6.44c-3.989-3.984-8.745-5.977-14.269-5.977h-21.787v88.91h-18.413V94.992h40.2c5.318 0 10.305 1.023 14.96 3.066 4.653 2.046 8.72 4.805 12.198 8.278 3.477 3.475 6.237 7.538 8.286 12.187 2.045 4.652 3.068 9.633 3.068 14.946z"/>
        <path fill="#FFF" d="M408.26 99.21c6.545 2.811 12.248 6.644 17.108 11.496 4.857 4.855 8.693 10.553 11.508 17.092 2.812 6.541 4.22 13.49 4.22 20.848 0 7.358-1.408 14.309-4.22 20.848-2.815 6.54-6.651 12.24-11.508 17.092-4.86 4.854-10.563 8.687-17.108 11.496-6.547 2.813-13.502 4.216-20.867 4.216h-19.025l7.517-18.395h11.508c4.704 0 9.206-.894 13.503-2.682a36.6 36.6 0 0 0 11.507-7.588c3.273-3.372 5.804-7.18 7.595-11.421 1.788-4.24 2.685-8.761 2.685-13.566 0-4.7-.897-9.198-2.685-13.49a36.624 36.624 0 0 0-7.595-11.497 36.695 36.695 0 0 0-11.507-7.588c-4.297-1.787-8.799-2.683-13.503-2.683H361.31v88.91h-18.412V94.994h44.496c7.365 0 14.32 1.406 20.867 4.215"/>
        <path stroke="#FFF" stroke-width="2" d="M408.26 99.21c6.545 2.811 12.248 6.644 17.108 11.496 4.857 4.855 8.693 10.553 11.508 17.092 2.812 6.541 4.22 13.49 4.22 20.848 0 7.358-1.408 14.309-4.22 20.848-2.815 6.54-6.651 12.24-11.508 17.092-4.86 4.854-10.563 8.687-17.108 11.496-6.547 2.813-13.502 4.216-20.867 4.216h-19.025l7.517-18.395h11.508c4.704 0 9.206-.894 13.503-2.682a36.6 36.6 0 0 0 11.507-7.588c3.273-3.372 5.804-7.18 7.595-11.421 1.788-4.24 2.685-8.761 2.685-13.566 0-4.7-.897-9.198-2.685-13.49a36.624 36.624 0 0 0-7.595-11.497 36.695 36.695 0 0 0-11.507-7.588c-4.297-1.787-8.799-2.683-13.503-2.683H361.31v88.91h-18.412V94.994h44.496c7.365 0 14.32 1.406 20.867 4.215z"/>
    </g>
</svg>
