<svg width="188" height="81" viewBox="0 0 188 81" xmlns="http://www.w3.org/2000/svg" xmlns:xlink="http://www.w3.org/1999/xlink"><title>026F0905-70DD-4702-ACD8-B9C4A61DEB6D</title><defs><path id="a" d="M108.021.199H.09V36.6h107.932V.199z"/></defs><g fill="none" fill-rule="evenodd"><path d="M6.049 75.386c0-.552.026-.998.08-1.337.052-.34.168-.6.348-.781.18-.18.439-.297.778-.35a8.97 8.97 0 0 1 1.333-.08h.635c.55 0 .994.027 1.332.08.34.053.598.17.778.35.18.18.296.441.35.78.052.34.079.786.079 1.338v2.867c0 .553-.027.999-.08 1.338-.053.34-.17.6-.349.78-.18.181-.439.298-.778.35-.338.054-.783.08-1.332.08h-.635a8.97 8.97 0 0 1-1.333-.08c-.34-.052-.598-.169-.778-.35-.18-.18-.296-.44-.349-.78a8.993 8.993 0 0 1-.08-1.338v-2.867zm9.204-2.357c0-.594-.005-1.062-.016-1.402a3.179 3.179 0 0 0-.142-.892 2.957 2.957 0 0 0-.382-.748c-.17-.244-.412-.557-.73-.94L4.43 57.39c-.233-.276-.428-.468-.587-.574a1.035 1.035 0 0 0-.587-.159c-.233 0-.408.074-.524.223-.116.149-.174.435-.174.86v21.024c0 .807-.09 1.327-.27 1.56-.18.235-.514.351-1 .351-.487 0-.82-.116-1-.35-.18-.234-.27-.754-.27-1.561V56.465c0-.552.027-.998.08-1.338.052-.34.169-.6.349-.78.18-.18.44-.298.777-.35.339-.054.783-.08 1.334-.08h.634c.38 0 .688.01.921.031.232.022.449.09.65.207.201.117.423.303.667.558.243.255.555.616.936 1.083l7.331 8.983c.36.425.667.637.921.637.423 0 .635-.435.635-1.306v-8.282c0-.807.09-1.327.27-1.56.179-.234.513-.351 1-.351.486 0 .82.117 1 .35.178.234.269.754.269 1.56v22.936c0 .807-.09 1.327-.27 1.56-.18.235-.513.351-1 .351-.486 0-.82-.116-1-.35-.18-.234-.27-.754-.27-1.561v-5.734zM19.538 59.013c0-1.189.042-2.123.126-2.803.085-.68.296-1.189.635-1.529.338-.34.846-.552 1.524-.637.677-.085 1.608-.127 2.793-.127h6.982c.804 0 1.322.09 1.555.27.233.181.35.516.35 1.004s-.117.823-.35 1.003c-.233.18-.75.271-1.555.271h-6.982c-.55 0-.995.027-1.334.08-.338.053-.597.17-.777.35-.18.18-.296.441-.35.78-.052.34-.079.786-.079 1.338v4.46c0 .552.027.998.08 1.337.053.34.169.601.35.78.179.182.438.299.776.352.339.053.783.08 1.334.08h6.982c.804 0 1.322.09 1.555.27.233.18.35.515.35 1.003 0 .489-.117.823-.35 1.004-.233.18-.75.27-1.555.27h-3.809c-.55 0-.994.027-1.333.08-.338.053-.598.17-.777.35-.18.181-.297.442-.35.781-.052.34-.078.786-.078 1.338v4.46c0 .552.026.998.079 1.337.052.34.169.6.349.78.18.181.439.298.777.351.34.054.783.08 1.333.08h3.809c.804 0 1.322.09 1.555.27.233.181.35.516.35 1.004 0 .489-.117.823-.35 1.004-.233.18-.75.27-1.555.27h-6.982c-1.185 0-2.116-.042-2.793-.127-.678-.085-1.186-.297-1.524-.637-.339-.34-.55-.85-.635-1.53-.084-.679-.126-1.613-.126-2.803V59.013zM37.787 63.473c0 .552.027.998.08 1.337.052.34.168.601.349.78.18.182.438.299.777.352.339.053.783.08 1.333.08h5.078c.55 0 .995-.027 1.333-.08.339-.053.598-.17.778-.351.18-.18.296-.44.349-.78.053-.34.08-.786.08-1.338v-4.46c0-.552-.027-.998-.08-1.338-.053-.34-.17-.6-.35-.78-.179-.18-.438-.297-.777-.35a8.98 8.98 0 0 0-1.333-.08h-5.078c-.55 0-.994.027-1.333.08-.339.053-.598.17-.777.35-.18.18-.297.44-.35.78-.052.34-.079.786-.079 1.338v4.46zm10.156 7.708c0-.573-.026-1.03-.079-1.37-.053-.339-.17-.604-.35-.796-.179-.19-.438-.313-.777-.366a8.98 8.98 0 0 0-1.333-.08H43.5c-.55 0-.995.027-1.333.08-.339.053-.598.17-.778.35-.18.181-.296.442-.349.781a9.01 9.01 0 0 0-.079 1.338v7.008c0 .552-.027.998-.08 1.337-.052.34-.169.601-.349.78-.18.182-.439.299-.777.352-.339.053-.783.08-1.334.08h-.634c-.55 0-.995-.027-1.333-.08-.338-.053-.598-.17-.777-.351-.18-.18-.297-.44-.35-.78a9.008 9.008 0 0 1-.079-1.338V59.013c0-1.189.042-2.123.127-2.803.084-.68.296-1.189.635-1.529.338-.34.846-.552 1.523-.637.677-.085 1.608-.127 2.793-.127h5.078c1.185 0 2.116.042 2.793.127.677.085 1.185.298 1.524.637.338.34.55.85.634 1.529.085.68.128 1.614.128 2.803v4.46c0 .403.042.732.126.987.085.255.196.462.334.621.137.16.301.282.492.367.19.085.401.17.634.255.211.085.418.175.62.27.2.096.37.223.507.382.137.16.249.362.333.606.085.244.128.568.128.971v10.194c0 .552-.027.998-.08 1.337-.053.34-.17.601-.35.78-.18.182-.439.299-.777.352-.338.053-.783.08-1.333.08h-.634c-.55 0-.996-.027-1.333-.08-.339-.053-.599-.17-.778-.351-.18-.18-.297-.44-.35-.78a8.998 8.998 0 0 1-.079-1.338V71.18zM70.002 61.561c0-.87-.09-1.629-.27-2.277-.18-.648-.487-1.179-.921-1.593-.434-.414-1.02-.722-1.761-.923-.741-.202-1.662-.303-2.761-.303h-.635c-.55 0-.995.027-1.334.08-.338.053-.598.17-.777.35-.18.18-.297.44-.35.78-.052.34-.078.797-.078 1.37v16.532c0 .553.026.999.079 1.338.052.34.169.6.349.78.18.181.434.298.762.351.328.054.777.08 1.349.08h.635c1.1 0 2.02-.1 2.76-.303.741-.201 1.328-.51 1.762-.923.434-.415.74-.945.92-1.593.18-.648.27-1.407.27-2.278V61.561zm-14.6-5.096c0-.552.026-.998.079-1.338.052-.34.169-.6.349-.78.18-.18.439-.297.778-.35a8.97 8.97 0 0 1 1.332-.08h6.349c1.417 0 2.65.127 3.697.382 1.048.255 1.904.685 2.57 1.29.667.605 1.165 1.397 1.493 2.373.328.977.491 2.177.491 3.6v11.467c0 1.445-.163 2.65-.491 3.615-.328.967-.826 1.752-1.492 2.358-.667.605-1.523 1.035-2.57 1.29-1.048.255-2.281.382-3.698.382H57.94c-.55 0-.994-.026-1.332-.08-.34-.052-.598-.17-.778-.35-.18-.18-.297-.44-.349-.78a8.998 8.998 0 0 1-.08-1.338v-21.66zM84.855 49.138c.274 0 .512.032.713.096.201.064.302.213.302.446 0 .276-.158.616-.476 1.019l-.825 1.115c-.254.34-.465.563-.635.67-.17.106-.497.158-.984.158h-.19c-.34 0-.566-.074-.683-.223-.116-.148-.174-.435-.174-.86v-1.338c0-.424.095-.71.286-.86.19-.148.465-.223.825-.223h1.84zm.857 18.476c0-.403.042-.727.126-.972.085-.244.195-.446.334-.605.137-.16.301-.287.492-.382.19-.096.401-.186.634-.271.211-.084.418-.17.62-.255.2-.084.37-.207.507-.366a1.82 1.82 0 0 0 .333-.621c.085-.255.128-.584.128-.988v-4.141a9.14 9.14 0 0 0-.08-1.338c-.053-.34-.17-.6-.349-.78-.18-.18-.44-.297-.778-.35a8.98 8.98 0 0 0-1.333-.08h-6.983c-.55 0-.994.027-1.332.08-.34.053-.598.17-.778.35-.18.18-.296.44-.35.78-.052.34-.078.786-.078 1.338v16.564c0 .553.026.999.079 1.338.053.34.174.6.365.78.19.181.46.298.81.351.349.053.809.08 1.38.08h3.714c.55 0 .993-.027 1.333-.08.338-.053.597-.17.777-.35.18-.18.296-.44.35-.78.052-.34.079-.786.079-1.339v-7.963zm-11.426-8.601c0-1.189.041-2.123.126-2.803.085-.68.297-1.189.635-1.529.338-.34.846-.552 1.524-.637.677-.085 1.607-.127 2.792-.127h6.983c1.185 0 2.116.042 2.793.127.677.085 1.185.298 1.524.637.338.34.55.85.635 1.53.083.68.126 1.613.126 2.802v16.564c0 1.19-.043 2.124-.126 2.804-.085.68-.297 1.19-.635 1.529-.339.34-.847.552-1.524.637-.677.085-1.608.127-2.793.127h-6.983c-1.185 0-2.115-.042-2.792-.127-.678-.085-1.186-.298-1.524-.637-.338-.34-.55-.85-.635-1.53-.085-.679-.126-1.613-.126-2.803V59.013zM99.2 75.386c0-.552.027-.998.08-1.337.052-.34.169-.6.349-.781.18-.18.438-.297.777-.35a8.97 8.97 0 0 1 1.333-.08h.635c.55 0 .995.027 1.333.08.339.053.598.17.778.35.18.18.296.441.349.78.052.34.08.786.08 1.338v2.867c0 .553-.028.999-.08 1.338-.053.34-.17.6-.35.78-.18.181-.438.298-.777.35-.338.054-.783.08-1.333.08h-.635a8.97 8.97 0 0 1-1.333-.08c-.339-.052-.598-.169-.777-.35-.18-.18-.297-.44-.35-.78a8.993 8.993 0 0 1-.079-1.338v-2.867zm1.62-15.003c.232.489.512.733.84.733.328 0 .62-.234.873-.701l2.634-4.62c.254-.445.465-.79.635-1.034.169-.244.36-.43.571-.558.211-.127.47-.207.778-.239.306-.032.725-.047 1.253-.047h3.174c.55 0 .995.026 1.334.08.337.052.597.17.777.35.18.18.296.44.35.78.052.34.079.786.079 1.338v21.66c0 .553-.027.999-.08 1.338-.053.34-.17.601-.349.78-.18.182-.44.299-.777.352-.34.053-.784.08-1.334.08h-.635c-.55 0-.994-.027-1.333-.08-.338-.053-.597-.17-.777-.351-.18-.18-.296-.44-.35-.78a9.062 9.062 0 0 1-.079-1.338V57.739c0-.34-.047-.59-.142-.749-.095-.159-.207-.244-.334-.254-.127-.01-.259.037-.397.143a1.284 1.284 0 0 0-.333.382l-4.665 8.123c-.317.552-.688.84-1.11.86-.425.021-.774-.265-1.048-.86l-3.682-7.995c-.127-.298-.323-.435-.587-.415-.265.022-.397.277-.397.765v21.024c0 .807-.09 1.327-.27 1.56-.18.235-.513.351-1 .351s-.82-.116-1-.35c-.179-.234-.269-.754-.269-1.561V56.465c0-.552.026-.998.08-1.338.052-.34.168-.6.348-.78.18-.18.44-.298.778-.35.338-.054.783-.08 1.333-.08h.444c.423 0 .762.015 1.016.047s.46.112.619.239c.159.127.306.314.445.558.137.244.3.59.49 1.035l2.096 4.587zM115.863 59.013c0-1.189.042-2.123.127-2.803.084-.68.295-1.189.635-1.529.337-.34.845-.552 1.523-.637.677-.085 1.608-.127 2.793-.127h6.982c.804 0 1.322.09 1.555.27.233.181.35.516.35 1.004s-.117.823-.35 1.003c-.233.18-.75.271-1.555.271h-6.982c-.55 0-.995.027-1.334.08-.338.053-.597.17-.777.35-.18.18-.296.441-.35.78a9.07 9.07 0 0 0-.079 1.338v4.46c0 .552.027.998.08 1.337.053.34.17.601.35.78.179.182.438.299.776.352.34.053.783.08 1.334.08h6.982c.804 0 1.322.09 1.555.27.233.18.35.515.35 1.003 0 .489-.117.823-.35 1.004-.233.18-.75.27-1.555.27h-3.808c-.55 0-.995.027-1.334.08-.338.053-.598.17-.777.35-.18.181-.297.442-.35.781-.052.34-.078.786-.078 1.338v4.46c0 .552.026.998.079 1.337.052.34.169.6.349.78.18.181.439.298.777.351.34.054.783.08 1.334.08h3.808c.804 0 1.322.09 1.555.27.233.181.35.516.35 1.004 0 .489-.117.823-.35 1.004-.233.18-.75.27-1.555.27h-6.982c-1.185 0-2.116-.042-2.793-.127-.678-.085-1.186-.297-1.523-.637-.34-.34-.551-.85-.635-1.53-.085-.679-.127-1.613-.127-2.803V59.013zM131.255 55.223c0-.489.116-.829.35-1.02.232-.19.75-.287 1.554-.287h13.966c.803 0 1.322.096 1.555.287.232.191.35.531.35 1.02 0 .467-.118.79-.35.971-.233.18-.752.27-1.555.27h-1.27c-.55 0-.995.027-1.333.08-.339.054-.598.17-.778.351-.18.18-.296.441-.349.78-.053.34-.08.786-.08 1.338v19.112c0 .553-.026 1-.079 1.339-.053.34-.174.6-.365.78-.19.18-.47.298-.84.35-.37.054-.873.08-1.508.08-.656 0-1.174-.026-1.556-.08-.38-.052-.671-.17-.872-.35-.202-.18-.333-.44-.397-.78-.063-.34-.096-.786-.096-1.339V59.013c0-.552-.026-.998-.078-1.338-.054-.339-.17-.6-.35-.78-.18-.18-.439-.297-.777-.35a8.97 8.97 0 0 0-1.333-.08h-1.905c-.804 0-1.322-.09-1.555-.27-.233-.181-.349-.505-.349-.972M152.996 63.473c0 .552.027.998.08 1.337.052.34.168.601.349.78.18.182.438.299.777.352.339.053.783.08 1.333.08h5.078c.55 0 .995-.027 1.333-.08.339-.053.598-.17.778-.351.18-.18.296-.44.35-.78.052-.34.079-.786.079-1.338v-4.46c0-.552-.027-.998-.08-1.338-.053-.34-.17-.6-.349-.78-.18-.18-.44-.297-.778-.35a8.98 8.98 0 0 0-1.333-.08h-5.078c-.55 0-.994.027-1.333.08-.339.053-.598.17-.777.35-.18.18-.297.44-.35.78a9.07 9.07 0 0 0-.079 1.338v4.46zm10.157 7.708c0-.573-.027-1.03-.08-1.37-.053-.339-.17-.604-.349-.796-.18-.19-.44-.313-.778-.366a8.98 8.98 0 0 0-1.333-.08h-1.904c-.55 0-.995.027-1.333.08-.339.053-.598.17-.778.35-.18.181-.296.442-.349.781a9.01 9.01 0 0 0-.079 1.338v7.008c0 .552-.027.998-.08 1.337-.052.34-.169.601-.349.78-.18.182-.439.299-.777.352-.339.053-.783.08-1.334.08h-.634c-.55 0-.995-.027-1.333-.08-.338-.053-.598-.17-.777-.351-.18-.18-.297-.44-.35-.78a8.935 8.935 0 0 1-.079-1.338V59.013c0-1.189.042-2.123.127-2.803.084-.68.296-1.189.635-1.529.338-.34.846-.552 1.523-.637.677-.085 1.608-.127 2.793-.127h5.078c1.185 0 2.116.042 2.793.127.678.085 1.185.298 1.524.637.338.34.55.85.634 1.529.085.68.128 1.614.128 2.803v4.46c0 .403.042.732.126.987.085.255.196.462.334.621.137.16.301.282.492.367.19.085.401.17.634.255.211.085.418.175.62.27.2.096.37.223.507.382.137.16.249.362.333.606.085.244.128.568.128.971v10.194c0 .552-.027.998-.08 1.337-.053.34-.17.601-.349.78-.18.182-.44.299-.778.352-.338.053-.783.08-1.333.08h-.634c-.55 0-.995-.027-1.333-.08-.339-.053-.599-.17-.778-.351-.18-.18-.297-.44-.35-.78a9.008 9.008 0 0 1-.078-1.338V71.18zM182.037 67.614c0-.403.042-.727.126-.972.085-.244.195-.446.334-.605.137-.16.301-.287.492-.382.19-.096.401-.186.634-.271.211-.084.418-.17.62-.255.2-.084.37-.207.507-.366.137-.16.249-.367.333-.621.085-.255.128-.584.128-.988v-4.141a9.14 9.14 0 0 0-.08-1.338c-.053-.34-.17-.6-.349-.78-.18-.18-.44-.297-.778-.35a8.98 8.98 0 0 0-1.333-.08h-6.982c-.55 0-.995.027-1.333.08-.339.053-.598.17-.778.35-.18.18-.296.44-.35.78-.052.34-.078.786-.078 1.338v16.564c0 .553.026.999.079 1.338.053.34.174.6.365.78.19.181.46.298.81.351.349.053.809.08 1.38.08h3.714c.55 0 .994-.027 1.333-.08.338-.053.597-.17.777-.35.18-.18.296-.44.35-.78.052-.34.079-.786.079-1.339v-7.963zm-11.426-8.601c0-1.189.042-2.123.126-2.803.085-.68.297-1.189.636-1.529.337-.34.845-.552 1.523-.637.677-.085 1.608-.128 2.793-.128h6.982c1.185 0 2.116.043 2.793.128s1.185.298 1.524.637c.338.34.55.85.635 1.53.084.679.126 1.613.126 2.802v16.564c0 1.19-.042 2.124-.126 2.804-.085.68-.297 1.189-.635 1.528-.339.34-.847.553-1.524.638-.677.085-1.608.127-2.793.127h-6.982c-1.185 0-2.116-.042-2.793-.127-.678-.085-1.186-.298-1.523-.638-.34-.339-.551-.848-.636-1.528-.084-.68-.126-1.614-.126-2.804V59.013z" fill="#FFF"/><path d="M-4 37.215c0-1.963 31.647-3.555 70.686-3.555 39.039 0 70.687 1.592 70.687 3.555s-31.648 3.555-70.687 3.555C27.646 40.77-4 39.178-4 37.215"/><path d="M49.6 37.215c0-1.963 31.648-3.555 70.687-3.555s70.687 1.592 70.687 3.555-31.648 3.555-70.687 3.555c-39.04 0-70.686-1.592-70.686-3.555"/><g transform="translate(40.318 .27)"><mask id="b" fill="#fff"><use xlink:href="#a"/></mask><path d="M98.723 19.661c-.73 3.477-2.21 9.247-5.258 11.071-3.464 2.073-10.33 3.202-16.073 2.47-5.743-.732-9.572-2.928-11.851-7.228-1.845-3.48-4.558-13.632-2.735-17.109C64.63 5.39 74.292 4.2 78.76 3.925c5.92-.364 14.86-.183 18.414 2.287 3.555 2.47 2.28 9.973 1.55 13.45m-56.154 6.312c-2.28 4.3-6.108 6.496-11.85 7.228-5.744.732-12.61-.397-16.074-2.47-3.047-1.824-4.528-7.594-5.257-11.07-.73-3.477-2.006-10.98 1.55-13.45 3.554-2.47 12.493-2.651 18.413-2.287 4.467.275 14.13 1.464 15.953 4.94 1.823 3.477-.89 13.629-2.735 17.11M64.174 3.101c-3.18 1.052-6.928 2.546-10.118 2.546-3.192 0-6.94-1.494-10.12-2.546C35.368.265 13.764-1.564.09 2.827L.5 10.42s2.484-.549 3.305 2.196c.82 2.744 2.726 14.06 6.21 18.48 4.326 5.49 13.644 5.701 19.945 5.43 8.483-.367 14.038-4.148 16.408-10.553 2.37-6.404 3.708-11.893 5.225-13.632.82-.938 1.743-1.005 2.464-1.006.72.001 1.643.068 2.461 1.006 1.518 1.739 2.856 7.228 5.226 13.632 2.37 6.405 7.925 10.186 16.409 10.552 6.3.272 15.618.061 19.944-5.428 3.484-4.422 5.39-15.737 6.21-18.481.821-2.745 3.305-2.196 3.305-2.196l.41-7.594C94.347-1.564 72.743.265 64.174 3.102" fill="#FFF" mask="url(#b)"/></g></g></svg>