<svg width="230" height="230" viewBox="0 0 230 230" xmlns="http://www.w3.org/2000/svg" xmlns:xlink="http://www.w3.org/1999/xlink"><title>4B786300-99F6-42C7-915F-F8C885D2A2E7</title><defs><path id="a" d="M0 121.343h120.724V0H0z"/></defs><g fill="none" fill-rule="evenodd"><g transform="translate(54 98.652)"><mask id="b" fill="#fff"><use xlink:href="#a"/></mask><path d="M116.092 88.959c-.648 1.56-1.426 1.82-2.075 1.95h-.389c-.13 0-.389 0-.648-.13.389-3.381-.39-7.283-1.556-9.754.13-.52.26-.91.389-1.3 1.167-.78 2.853-1.561 3.89-1.691.778 1.43 1.816 7.413.39 10.925m-10.635 24.58c-9.467 2.992-19.193 4.292-28.66 4.292-36.182 0-68.862-17.687-71.067-20.679-1.037-1.69-1.686-8.323-1.815-14.306 1.686 2.861 4.928 4.682 9.207 5.202h1.167c2.464 0 4.799-.91 6.744-2.47 1.167 3.901 4.539 6.372 9.467 6.892h1.037c2.205 0 4.28-.78 6.096-2.08.907 3.901 4.02 6.372 8.818 6.892h.908c2.334 0 4.539-.91 6.354-2.6.26.78.649 1.69 1.168 2.47 1.426 2.341 3.63 3.902 6.095 4.422.389.13.907.13 1.296.13 1.557 0 4.54-.65 6.485-5.462.13-.13.13-.39.13-.52 0 .13.13.26.13.39 1.944 3.511 4.927 5.462 8.429 5.462.389 0 .778 0 1.296-.13 2.983-.39 5.317-1.95 6.614-4.422 1.686 2.861 4.15 4.422 7.003 4.422.39 0 .778 0 1.167-.13 2.464-.39 4.41-1.69 5.577-3.772 1.686 1.821 3.501 2.341 4.798 2.341.648 0 1.427-.13 2.075-.39 2.723-.78 4.669-2.6 5.706-5.202.519.13 1.038.26 1.556.26.39 0 .778 0 1.167-.13.52 13.526-.907 16.517-8.948 19.118M9.103 68.02c1.556-.13 2.334.52 3.502 1.691.778.65 1.556 1.561 2.723 1.951 1.037.39 2.334.13 3.242-.13.389-.13.778-.26 1.167-.26.26 0 .908 0 1.945 2.08.908 1.822.52 4.553-.907 6.764-1.557 2.471-4.02 4.032-6.485 4.032h-.648c-4.02-.39-6.355-2.211-7.133-5.203-1.037-4.292 1.427-9.884 2.594-10.924m16.859 7.803c.389-.78.778-1.3 1.037-1.56 1.297-.13 1.946.52 3.113 1.56.648.65 1.426 1.43 2.464 1.82.908.391 2.204.13 2.983 0 .389-.13.778-.13 1.037-.13.519 0 1.038.651 1.556 1.822.778 1.56.39 4.031-.778 6.112-1.556 2.471-3.89 3.772-6.354 3.512-3.502-.39-5.577-1.951-6.355-4.552-.26-.78-.26-1.691-.26-2.601 1.038-1.951 1.557-4.032 1.557-5.983m17.507 6.113c1.038 0 1.686.39 2.594 1.17.648.52 1.297 1.17 2.334 1.56.908.261 1.946.13 2.724 0 .389-.13.648-.13.907-.13.39 0 .779.521 1.297 1.431.649 1.17.39 2.992-.648 4.552-.908 1.561-2.723 3.122-5.058 3.122H47.1c-3.112-.39-4.928-1.56-5.446-3.642-.908-3.251.908-7.153 1.815-8.063m13.876 4.422c.52-1.431 1.427-2.602 3.761-2.992 1.427 1.04 4.15 2.992 5.188 3.902.389 1.3.13 6.373-1.816 9.364-.908 1.43-1.686 1.43-1.945 1.43h-.519c-1.556-.26-2.723-1.17-3.631-2.73-.908-1.431-1.297-3.252-1.556-4.683.518-1.43.648-2.86.518-4.291m14.136-1.04c1.427-.261 4.41-.651 6.873-.651 2.464 0 3.113.39 3.113.39.778.65 2.334 5.592 1.167 9.364-.649 2.081-2.075 3.252-4.15 3.512h-.778c-2.075 0-3.76-1.17-4.928-3.382-1.816-3.121-1.945-7.283-1.297-9.234m15.822-.65c1.296-.26 3.76-.65 5.706-.65 1.945 0 2.464.39 2.464.39.778.91 2.334 6.633.907 10.534-.778 2.341-2.334 2.862-3.371 2.992h-.649c-.519 0-2.204 0-3.631-2.602-1.816-3.381-1.945-8.453-1.426-10.664m-.908-10.145c-3.502 0-6.355-.78-7.263-1.56-.389-.39-.778-1.43-.907-2.861.13-1.821.13-4.032-.13-6.243.13-2.211.648-4.682 1.426-6.893 1.427-3.642 3.372-5.463 5.836-5.463h.26c7.392.52 7.78 3.512 8.559 14.827.13 1.69.26 3.381.389 5.332 0 .39-.13.65-.39.91-1.037 1.171-4.15 1.951-7.78 1.951m11.542-8.453c-.26-3.382-.39-6.373-.908-8.974.389-2.341 1.037-4.422 2.204-5.853.779-.91 1.557-1.43 2.464-1.43h.52c1.685 0 3.112.52 4.15 1.69 3.63 3.902 2.982 13.136 2.722 16.518 0 .39 0 .78-.13 1.17-.907 1.04-5.316 3.252-8.688 3.252-.908 0-1.427-.13-1.945-.39v-.781c-.13-1.82-.26-3.642-.39-5.202m11.024 10.925l-.39.26-.129.39c-.13.13-.13.39-.26.52-.259 0-.648-.13-.907-.13-3.242 0-8.04 2.21-9.337 2.861-2.075-1.3-4.28-2.21-6.355-2.991 1.945-.39 3.76-1.17 5.058-2.341 1.037.52 2.204.78 3.63.78 2.335 0 5.188-.78 7.912-2.08.648-.26 1.167-.651 1.686-.911.648.65 1.167 1.3 1.685 2.08-1.296.651-2.204 1.301-2.593 1.562m-8.948 7.803c0-.13.13-.39.13-.52 2.074-.91 5.446-2.211 7.132-2.211h.389c.778 1.04 2.205 5.982 1.167 10.014-.648 2.211-1.816 3.642-3.76 4.162-.39.13-.65.13-.909.13-.907 0-1.815-.65-2.593-1.95-.26-.521-.519-.911-.649-1.562.26-2.73-.13-5.852-.907-8.063m-24.64-29.003c-.13.26-.13.52-.26.78-.778-1.69-2.593-3.25-5.187-3.901-.519-.13-1.038-.26-1.556-.26-2.335 0-4.41 1.3-5.966 3.641-1.167-3.121-3.372-5.722-7.521-6.242h-.649c-1.426 0-3.501.65-5.706 3.511-.26.39-.648.91-.908 1.3-1.556-3.51-4.928-5.722-9.726-6.242-2.594-.26-5.058.39-7.262 1.95-.779-5.592-4.928-9.233-11.802-9.883-.389 0-.778-.13-1.296-.13-4.02 0-8.04 2.21-10.505 5.852-.778-.52-1.297-.91-1.556-1.3-1.556-2.472-2.205-15.867-1.556-22.11 2.334 2.21 6.095 4.812 10.763 7.153 5.836 2.991 15.563 7.153 28.66 9.624 12.969 2.471 27.364 3.902 39.295 3.902 8.04 0 18.934-.65 25.159-3.772 2.075-1.04 3.89-2.21 5.317-3.511v.39c.389-.39.648-.65.907-1.04.13 2.99.13 5.722.13 7.933-1.815-.26-3.372.39-4.539 1.95-.519.781-.908 1.822-1.297 2.862-1.945-1.69-4.28-2.471-7.262-2.341-2.075.13-3.89 1.17-5.317 2.861-.519.65-1.038 1.56-1.427 2.471-1.685-2.21-4.409-3.511-8.818-3.771-4.539-.26-8.04 2.73-10.115 8.323m-1.557 16.648h-.907c-2.464 0-7.781 0-9.467-1.561-.26-.26-.39-1.04-.39-2.081.13-1.3.26-2.861.39-4.682a19.55 19.55 0 0 1 1.426-4.682c.649-1.43 1.945-3.121 3.502-3.121.259 0 .389 0 .648.13 2.075.52 3.502 2.08 4.539 4.812 1.556 4.422.908 9.624.26 11.185M59.42 63.988c-.259 1.56-.389 3.121-.389 4.682-.259 2.991-2.982 4.682-4.28 5.332-1.426-.65-4.927-2.6-5.965-5.852-.907-2.992.52-9.104 2.983-12.486.908-1.17 1.816-1.95 2.464-1.95h.13c4.28.52 5.187 4.811 5.057 10.274M42.043 68.54h-.26c-1.426 0-2.204-.65-3.242-1.69-.778-.651-1.556-1.562-2.723-1.952-.39-.13-.908-.26-1.297-.26-.648 0-1.297.13-1.945.26-.39.13-.778.26-1.167.26-.26 0-.908 0-1.946-2.08-.389-.78-.518-1.561-.518-2.472a16.065 16.065 0 0 0 1.426-4.422c1.686-2.73 4.41-4.161 7.133-3.901 4.02.39 6.354 2.21 7.132 5.202 1.038 4.422-1.426 10.014-2.593 11.055m-18.286-6.893h-.518c-1.816 0-2.724-.78-3.89-1.821-.909-.78-1.687-1.56-2.984-1.95-.389-.13-.907-.26-1.426-.26-.778 0-1.427.13-2.075.26-.519.13-1.038.26-1.427.26s-1.167 0-2.334-2.342c-.908-1.82-.648-4.552.778-6.893 1.427-2.47 4.54-5.072 8.43-4.682 4.668.52 7.521 2.471 8.17 5.983 1.297 4.812-1.557 10.534-2.724 11.445m85.98-42.789c2.205 2.471 4.8 6.243 4.15 9.754-.518 2.862-3.112 5.463-7.65 7.674-4.41 2.21-12.58 3.381-23.473 3.381-11.672 0-25.808-1.43-38.517-3.771C23.627 32.124 10.141 23.67 6.38 19.639 11.826 18.078 77.057 4.552 79.52 4.032h.13c3.372.65 22.695 6.503 30.087 14.826m6.743 31.864c1.038 4.682-.907 10.925-1.945 11.705l-.13.13c-.13-.39-.259-.65-.259-1.04-.26-.78-.519-1.821-.908-2.992-.13-.26-.13-.39-.26-.65-.129-1.04-.258-2.08-.647-2.991-.26-2.861 0-5.723.907-7.023.26-.39.39-.39.519-.39h.26c1.167.26 2.074 1.3 2.463 3.251m2.075 24.71c-.518-.52-1.296-1.17-2.723-1.17-.908-1.3-1.816-2.6-3.112-3.771.13-.26.13-.65.13-.91s0-.651.129-1.171c0-.39.13-.91.13-1.56.259 0 .389.13.648.13.908 0 1.816-.391 2.853-1.171 3.113-2.081 4.669-10.275 3.76-15.477-.388-1.82-1.037-3.382-1.944-4.552.13-4.032-.13-8.844-.26-14.436l-.26-4.422c0-2.601-1.685-7.153-5.186-10.925C103.643 5.983 81.985.26 79.91 0h-.52C74.724.52 5.084 14.826 2.75 16.777c-.13 0-.26.13-.52.26-.648.39-2.463 1.561-2.204 14.437.13 3.771.519 12.745 2.464 15.737.39.65 1.427 1.43 2.983 2.6-.908 2.732-.778 5.463.389 7.804 1.556 2.991 3.372 4.422 5.836 4.422.778 0 1.556-.13 2.204-.39.52-.13 1.168-.26 1.297-.13.39.13.908.65 1.556 1.17 1.297 1.17 3.242 2.862 6.485 2.862h1.037c.519 0 1.167-.26 1.686-.78 1.426 2.86 3.112 4.291 5.447 4.291.778 0 1.556-.13 2.075-.39.389-.13.778-.26 1.037-.26.39 0 .778.65 1.297 1.04 1.297 1.17 2.983 2.861 5.965 2.861h1.038c.908-.13 1.945-.91 2.723-1.95 2.335 5.332 8.43 7.543 8.69 7.543l.648.26.648-.26c.13-.13 3.372-1.3 5.576-4.032 2.594 2.211 7.263 2.471 11.802 2.471h1.685c.649 0 1.297-.26 1.816-.78l.39.39c.129.13.258.13.388.26.519.91 1.038 1.56 1.816 1.821.778.26 1.815.52 3.242.91 1.426.39 3.372.91 5.447 1.561-1.168.13-1.946.39-2.075.39l-.908.13-.39.78c0 .13-.129.26-.129.26l-.26-.26c-1.037-.78-2.852-1.17-5.446-1.17-3.76 0-8.3.78-8.43.91l-.778.13-.518.65c-.26.391-.39.781-.649 1.171-1.945-1.56-4.798-3.511-5.187-3.901l-.519-.39h-.648c-2.983.13-4.928 1.3-6.095 2.73-.908-1.04-2.075-1.56-3.372-1.56-.649 0-1.297.13-1.816.26-.26 0-.518.13-.648.13-.26-.13-.649-.39-.908-.78-1.037-1.04-2.723-2.471-5.965-2.211a.99.99 0 0 0-.649.26c-.13-.26-.13-.52-.26-.78-1.296-2.732-2.982-4.032-5.057-4.032-.778 0-1.426.13-1.945.26-.26.13-.649.13-.778.13-.26-.13-.649-.52-1.167-.91-1.168-1.17-2.983-2.992-6.485-2.601-.518 0-.907.26-1.426.65-1.297-2.341-2.983-3.512-5.058-3.512-.778 0-1.556.39-2.075.52-.389.13-.778.52-1.037.52-.39-1.3-.778-.91-1.297-1.3-1.427-1.3-3.242-3.511-7.003-2.991-1.556.13-3.112 2.08-4.28 4.552a2.064 2.064 0 0 0-1.945.26c-.648.39-2.464 1.56-2.204 14.436.13 3.772.518 12.746 2.464 15.737 2.853 4.292 37.219 22.37 74.438 22.37 9.856 0 19.971-1.3 29.698-4.422 11.153-3.642 12.32-9.364 11.93-24.71.52-.651 1.038-1.431 1.298-2.602 1.426-4.552.13-12.355-1.557-14.176" fill="#FFF" mask="url(#b)"/></g><path d="M113.716 84.163H95.622c-.5 0-.844-.204-1.031-.611-.188-.407-.156-.8.094-1.175l14.062-19.368c.25-.313.297-.658.14-1.034-.156-.376-.453-.595-.89-.658-6-.94-10.906-3.541-14.719-7.804-3.812-4.262-5.718-9.59-5.718-15.982 0-7.898 2.687-14.557 8.062-19.98 5.375-5.42 11.906-8.132 19.593-8.132 7.875 0 14.547 2.711 20.016 8.133 5.468 5.422 8.203 11.924 8.203 19.508 0 6.331-2.313 12.693-6.938 19.086l-19.218 26.23c-.875 1.192-2.063 1.787-3.562 1.787zm11.437-46.35c0-2.946-.938-5.36-2.813-7.24-1.875-1.88-4.187-2.82-6.937-2.82-2.687 0-4.953.94-6.797 2.82-1.843 1.88-2.765 4.2-2.765 6.958 0 2.632.937 4.888 2.812 6.769 1.875 1.88 4.156 2.82 6.844 2.82 3 0 5.562-1.285 7.687-3.854 1.313-1.567 1.969-3.385 1.969-5.453z" stroke="#FFF" stroke-width="5"/></g></svg>