<svg width="230" height="230" viewBox="0 0 230 230" xmlns="http://www.w3.org/2000/svg" xmlns:xlink="http://www.w3.org/1999/xlink"><title>BF032875-61A9-4517-BC96-6BBD56DB2AC4</title><defs><path id="a" d="M0 224.4h170V.62H0z"/></defs><g fill="none" fill-rule="evenodd"><g transform="translate(30 2.092)"><mask id="b" fill="#fff"><use xlink:href="#a"/></mask><path d="M165 58.673a107.21 107.21 0 0 1-10 44.738v.223-9.395c0-13.727-11.192-24.854-25-24.854-2.135.005-4.26.28-6.325.82l-28 7.183a42.738 42.738 0 0 1-21.325 0l-28.075-7.232C32.91 66.71 19.265 74.689 15.8 87.976a24.748 24.748 0 0 0-.8 6.263v9.495-.224A107.21 107.21 0 0 1 5 58.772V58.4a39.794 39.794 0 0 1 9.525-25.8C25.38 19.829 40.358 11.192 56.9 8.17h.375a155.23 155.23 0 0 1 55.45 0h.375c16.59 3.006 31.615 11.65 42.5 24.456A39.62 39.62 0 0 1 165 58.4v.273zm-5 76.253a7.461 7.461 0 0 1-5 7.009v-26.346l4.65-9.942.35-.894v30.173zm-10 28.234c-.125 12.514-6.998 23.997-18 30.074l-4.5 2.485v-1.143a2.494 2.494 0 0 0-2.5-2.486c-1.38 0-2.5 1.114-2.5 2.486v9.941c0 8.351-7.5 14.913-16.85 14.913h-41.3c-9.35 0-16.85-6.562-16.85-14.913v-9.941a2.494 2.494 0 0 0-2.5-2.486c-1.38 0-2.5 1.114-2.5 2.486v1.193l-4.5-2.486c-11.017-6.086-17.895-17.591-18-30.123V94.24c-.005-10.981 8.945-19.889 19.99-19.894 1.69 0 3.372.211 5.01.631l28.05 7.233a47.79 47.79 0 0 0 23.85 0l28.1-7.258c10.695-2.746 21.602 3.649 24.365 14.282.422 1.628.635 3.3.635 4.98v68.946zM10 134.926v-30.173l.35.82 4.65 9.942v26.345a7.461 7.461 0 0 1-5-6.934zM170 58.4a44.767 44.767 0 0 0-10.725-29.005c-11.615-13.63-27.625-22.836-45.3-26.048l-.35-.149a160.209 160.209 0 0 0-57.25 0H56c-17.725 3.274-33.758 12.57-45.35 26.296A44.588 44.588 0 0 0 0 58.4v.273A112.134 112.134 0 0 0 5 91.48v43.446c0 5.905 4.18 10.998 10 12.178v16.08c.127 14.307 7.975 27.442 20.55 34.4l6.95 3.876v3.057c0 11.16 9.6 19.884 21.85 19.884h41.3c12.25 0 21.85-8.724 21.85-19.884v-3.057l6.95-3.877c12.583-6.962 20.433-20.107 20.55-34.423v-16.056c5.82-1.18 10-6.273 10-12.178V91.48a112.134 112.134 0 0 0 5-32.807V58.4z" fill="#FFF" mask="url(#b)"/></g><path d="M89.825 178.027a12.53 12.53 0 0 1-4.325-.77l-3.425-1.268a1.243 1.243 0 0 1-.738-1.603 1.254 1.254 0 0 1 1.613-.733l3.425 1.267c1.94.711 4.053.806 6.05.274l17.9-4.772 2.85 2.485c1.06.868 2.59.868 3.65 0l2.85-2.485 17.825 4.772a10.06 10.06 0 0 0 6.05-.274l3.425-1.267c.65-.241 1.37.087 1.613.733a1.243 1.243 0 0 1-.738 1.603l-3.425 1.268c-2.405.877-5.022.999-7.5.348L120.3 173.18l-1.85 1.615a5.373 5.373 0 0 1-6.95 0l-1.85-1.615-16.625 4.424a12.54 12.54 0 0 1-3.2.422M125 194.182h-20c-10.775 0-16.25-3.927-16.25-11.656 0-.686.56-1.243 1.25-1.243s1.25.557 1.25 1.243c0 6.263 4.375 9.17 13.75 9.17h20c9.125 0 13.75-3.23 13.75-9.618 0-.686.56-1.242 1.25-1.242s1.25.556 1.25 1.242c0 7.805-5.775 12.104-16.25 12.104M96.25 117.134c2.07 0 3.75 1.67 3.75 3.728 0 2.058-1.68 3.729-3.75 3.729-2.07 0-3.75-1.67-3.75-3.729 0-2.058 1.68-3.728 3.75-3.728M133.75 117.134c2.07 0 3.75 1.67 3.75 3.728 0 2.058-1.68 3.729-3.75 3.729-2.07 0-3.75-1.67-3.75-3.729 0-2.058 1.68-3.728 3.75-3.728M161.25 105.13a6.387 6.387 0 0 1 5 2.36l4.325 5.444a1.352 1.352 0 0 0 1.6.348l.9-.423a1.15 1.15 0 0 0 .625-.696 1.021 1.021 0 0 0 0-.795l-5.75-10.836a8.892 8.892 0 0 0-8.875-4.499l-29.525 3.306a3.753 3.753 0 0 0-2.8 1.69 3.21 3.21 0 0 0-.325 2.833l.925 2.635c1.118 2.913 4.218 4.563 7.275 3.877l25.375-5.12c.412-.082.83-.124 1.25-.124m10.35 10.762a3.828 3.828 0 0 1-3-1.417l-4.325-5.443a3.913 3.913 0 0 0-3.825-1.342l-25.325 5.12c-4.237.85-8.47-1.474-10-5.493l-1.05-2.61a5.716 5.716 0 0 1 .575-4.97 6.25 6.25 0 0 1 4.625-2.859l29.45-3.256A11.468 11.468 0 0 1 170 99.388l5.75 10.837c.447.842.53 1.829.225 2.734a3.613 3.613 0 0 1-1.925 2.137l-.9.423a3.849 3.849 0 0 1-1.55.373M69.975 96.008a8.857 8.857 0 0 0-7.85 4.548l-5.75 10.837a.98.98 0 0 0 0 .795c.105.301.332.545.625.671l.9.423a1.352 1.352 0 0 0 1.6-.348l4.325-5.443a6.445 6.445 0 0 1 6.275-2.237l25.325 5.12c3.055.676 6.15-.972 7.275-3.877l.925-2.635a3.21 3.21 0 0 0-.325-2.833 3.753 3.753 0 0 0-2.8-1.69L71 96.058l-1.025-.05zM58.4 115.892a3.83 3.83 0 0 1-1.65-.373l-.9-.423a3.613 3.613 0 0 1-1.925-2.137 3.433 3.433 0 0 1 .225-2.734L60 99.388c2.247-4.058 6.745-6.36 11.375-5.816l29.45 3.256a6.261 6.261 0 0 1 4.525 2.908 5.716 5.716 0 0 1 .575 4.971l-.925 2.61c-1.53 4.019-5.763 6.343-10 5.493l-25.475-5.12a3.913 3.913 0 0 0-3.825 1.342l-4.325 5.443a3.809 3.809 0 0 1-2.975 1.417z" fill="#FFF"/><path d="M153.225 170.248a1.13 1.13 0 0 1-1.075.273l-24.775-6.81a48.457 48.457 0 0 0-25.65 0L77.9 170.273a1.154 1.154 0 0 1-1.175-.373 1.78 1.78 0 0 1-.325-1.815l1.875-5.144a6.856 6.856 0 0 1 4.225-4.25l14.675-4.599a22.853 22.853 0 0 0 4.3-1.068 18.068 18.068 0 0 0 13.525 5.12 18.068 18.068 0 0 0 13.525-5.12c1.615.579 3.292.962 5 1.143l14.725 4.325a7.018 7.018 0 0 1 4.7 5.567l.825 4.598a1.733 1.733 0 0 1-.55 1.59m2.95-2.037l-.825-4.598a9.387 9.387 0 0 0-6.475-7.457l-10.2-2.982a9.777 9.777 0 0 0 5-8.625c.125-5.239-4.03-9.593-9.3-9.742a12.275 12.275 0 0 0-1.6 0l.4-2.61a1.258 1.258 0 0 0-1.063-1.43 1.264 1.264 0 0 0-1.437 1.057l-.825 6.189 1.8-.423c.917-.223 1.855-.35 2.8-.373 4.032.334 7.03 3.85 6.695 7.86-.295 3.546-3.128 6.362-6.695 6.655a18.406 18.406 0 0 1-5.9-1.367l-.9-.348-.575.796A15.048 15.048 0 0 1 115 155.658a15.048 15.048 0 0 1-12.075-4.846l-.575-.796-.9.348a18.406 18.406 0 0 1-5.9 1.367c-4.033-.333-7.03-3.85-6.695-7.859.295-3.546 3.127-6.362 6.695-6.656.945.023 1.882.15 2.8.373l1.8.423-.925-6.14a1.264 1.264 0 0 0-1.438-1.056 1.258 1.258 0 0 0-1.062 1.43l.4 2.61a12.275 12.275 0 0 0-1.6 0c-5.21.16-9.333 4.436-9.275 9.618a9.786 9.786 0 0 0 5.3 8.773l-9.825 3.082a9.228 9.228 0 0 0-5.85 5.767L74 167.24a4.227 4.227 0 0 0 .85 4.35 3.637 3.637 0 0 0 3.675 1.069l23.825-6.562a45.91 45.91 0 0 1 24.325 0l24.775 6.81c.31.085.63.124.95.124a3.685 3.685 0 0 0 2.5-.969 4.185 4.185 0 0 0 1.275-3.852M107.025 216.551H102.5c-.69 0-1.25-.557-1.25-1.243s.56-1.242 1.25-1.242h4.525c3.177-.005 5.845-2.379 6.2-5.518l.5-4.548a1.273 1.273 0 0 1 1.375-1.094 1.244 1.244 0 0 1 1.1 1.367l-.5 4.548c-.495 4.395-4.228 7.72-8.675 7.73" fill="#FFF"/><path d="M127.5 216.551h-4.525c-4.457.003-8.203-3.325-8.7-7.73l-.5-4.548a1.253 1.253 0 0 1 1.112-1.38c.69-.074 1.313.42 1.388 1.107l.5 4.548c.355 3.14 3.022 5.513 6.2 5.518h4.525c.69 0 1.25.556 1.25 1.242 0 .686-.56 1.243-1.25 1.243" fill="#FFF"/></g></svg>