<svg width="230" height="230" viewBox="0 0 230 230" xmlns="http://www.w3.org/2000/svg"><title>56CA145F-5084-4EAA-9BCD-B95F390D9D91</title><g fill="#FFF" fill-rule="evenodd"><path d="M88.764 14.685c-2.59 0-5.182.953-7.157 2.87a9.647 9.647 0 0 0 0 13.905L96.79 46.225c.504.486 1.415.486 1.92 0 5.065-4.916 10.131-9.821 15.196-14.737a9.642 9.642 0 0 0 0-13.906c-3.949-3.833-10.365-3.833-14.314 0l-1.82 1.775-1.85-1.803c-1.975-1.916-4.567-2.87-7.157-2.87zm5.222 4.755l2.817 2.731c.505.487 1.416.487 1.92 0l2.803-2.703a7.494 7.494 0 0 1 10.444 0c2.91 2.824 2.91 7.296 0 10.12-4.744 4.605-9.47 9.218-14.214 13.822L83.542 29.574c-2.908-2.828-2.924-7.31-.014-10.134 3.097-2.728 7.597-2.844 10.458 0zM132.177 37.973c-2.282 0-4.566.85-6.305 2.56a8.678 8.678 0 0 0 0 12.402l13.374 13.169c.445.433 1.247.433 1.692 0 4.462-4.385 8.925-8.76 13.386-13.145a8.674 8.674 0 0 0 0-12.402c-3.478-3.418-9.13-3.418-12.609 0l-1.604 1.583-1.63-1.607a8.966 8.966 0 0 0-6.304-2.56zm4.6 4.241l2.481 2.436c.445.434 1.248.434 1.692 0l2.47-2.411a6.544 6.544 0 0 1 9.2 0c2.563 2.52 2.563 6.507 0 9.027-4.18 4.107-8.343 8.22-12.522 12.327l-12.521-12.34c-2.562-2.523-2.576-6.52-.013-9.039 2.728-2.433 6.693-2.536 9.213 0z"/><g><path d="M188.824 99.424c-5.178 5.85-10.285 9.365-12.915 10.976-3.944-9.911-13.343-18.397-26.037-23.967 8.112-11.034 16.865-17.709 24.965-21.639 13.447.447 14.102 26.634 13.987 34.63zm-11.197 39.293c.543 5.744 1.016 10.707 2.244 13.983 3.309 8.838 3.35 23.773 3.35 23.927 0 21.203-30.967 38.454-69.033 38.454-38.067 0-69.034-17.25-69.034-38.454 0-.154.042-15.083 3.357-23.927 1.228-3.273 1.7-8.236 2.243-13.983.49-5.154 1.034-10.889 2.197-16.566.437-.124 7.675-18.864 7.675-18.864 10.031-12.445 30.433-20.983 53.904-20.983 22.879 0 42.834 8.106 53.12 20.04a1.44 1.44 0 0 0 .235 1.152c3.617 4.971 5.772 10.86 7.162 16.885v.374c0 .308.097.592.266.828 1.243 5.865 1.806 11.809 2.314 17.134zM41.984 97.787c-.115-7.993.543-34.183 13.987-34.63 8.268 4.011 17.222 10.872 25.473 22.325-9.75 3.894-17.772 9.455-23.115 16.072-.091.073-.168.16-.242.256-.115.16-.23.322-.34.484a34.733 34.733 0 0 0-3.69 5.944c-2.8-1.805-7.42-5.195-12.073-10.451zm163.693-40.652c-.321-.081-32.992-7.32-58.636 28.17-9.526-3.724-20.623-5.904-32.514-5.904-10.937 0-21.222 1.823-30.217 5.012C58.583 48.07 25.452 55.417 25.13 55.501l-1.13.267v1.144c0 32.923 21.47 49.344 28.91 54.045-.55 1.472-1.028 2.964-1.326 4.493-2.323 7.74-3.097 15.904-3.77 23-.525 5.544-.98 10.332-2.07 13.25-3.5 9.324-3.539 24.294-3.539 24.93 0 22.802 32.293 41.356 71.986 41.356 39.696 0 71.985-18.554 71.985-41.357 0-.635-.041-15.605-3.533-24.93-1.096-2.92-1.55-7.705-2.076-13.249-.543-5.711-1.148-12.12-2.577-18.44-.062-2.316-.49-4.574-1.113-6.783 6.226-3.706 29.937-20.09 29.937-54.678v-1.144l-1.137-.27z"/><path d="M61.39 163.204c8.559 0 15.499 6.823 15.499 15.236 0 8.414-6.94 15.237-15.498 15.237s-15.499-6.823-15.499-15.237c0-8.413 6.94-15.236 15.499-15.236M166.926 163.204c8.56 0 15.498 6.823 15.498 15.236 0 8.414-6.937 15.237-15.498 15.237-8.558 0-15.498-6.823-15.498-15.237 0-8.413 6.94-15.236 15.498-15.236M115.404 155.28c2.548 0 4.614 1.22 4.614 2.723s-2.066 2.722-4.614 2.722-4.614-1.219-4.614-2.722c0-1.504 2.066-2.722 4.614-2.722M83.838 124.906c-3.466 0-6.751 1.57-8.977 4.147a11.937 11.937 0 0 0-9.019-4.147c-6.181 0-10.978 4.716-10.978 10.877 0 7.514 6.798 13.542 17.107 22.85l2.89 2.577 2.89-2.577c10.308-9.308 17.113-15.336 17.113-22.85-.003-6.164-4.806-10.877-11.026-10.877M155.608 158.633c10.308-9.308 17.113-15.336 17.113-22.85 0-6.164-4.803-10.877-11.023-10.877-3.466 0-6.751 1.57-8.977 4.147a11.937 11.937 0 0 0-9.019-4.147c-6.181 0-10.978 4.716-10.978 10.877 0 7.514 6.798 13.542 17.107 22.85l2.89 2.577 2.887-2.577zM115.445 201.214c-9.733-2.156-12.298-19.332-12.806-23.833.248.012.479.05.727.05 5.352 0 9.889-1.965 12.115-4.897 2.232 2.932 6.763 4.896 12.115 4.896.224 0 .431-.037.652-.043-.51 4.507-3.064 21.671-12.803 23.827m12.148-26.686c-5.765 0-10.64-2.827-10.64-6.167h-2.951c0 3.34-4.871 6.167-10.64 6.167-5.768 0-10.638-2.827-10.638-6.167H89.77c0 4.214 4.122 7.633 9.86 8.692.346 3.724 2.855 24.716 15.572 27.078l.163-.868.109.891.068-.708.133.685c12.702-2.36 15.214-23.305 15.566-27.06 5.777-1.045 9.94-4.479 9.94-8.71h-2.953c.006 3.34-4.865 6.167-10.636 6.167"/></g></g></svg>